<?xml version="1.0" encoding="UTF-8" standalone="no"?>
<!-- Created with Inkscape (http://www.inkscape.org/) -->

<svg
   xmlns:dc="http://purl.org/dc/elements/1.1/"
   xmlns:cc="http://creativecommons.org/ns#"
   xmlns:rdf="http://www.w3.org/1999/02/22-rdf-syntax-ns#"
   xmlns:svg="http://www.w3.org/2000/svg"
   xmlns="http://www.w3.org/2000/svg"
   xmlns:sodipodi="http://sodipodi.sourceforge.net/DTD/sodipodi-0.dtd"
   xmlns:inkscape="http://www.inkscape.org/namespaces/inkscape"
   width="744.09448819"
   height="1052.3622047"
   id="svg2"
   version="1.1"
   inkscape:version="0.48.5 r10040"
   sodipodi:docname="pig1.svg">
  <defs
     id="defs4" />
  <sodipodi:namedview
     id="base"
     pagecolor="#ffffff"
     bordercolor="#666666"
     borderopacity="1.0"
     inkscape:pageopacity="0.0"
     inkscape:pageshadow="2"
     inkscape:zoom="1"
     inkscape:cx="613.68121"
     inkscape:cy="419.40627"
     inkscape:document-units="px"
     inkscape:current-layer="layer8"
     showgrid="false"
     inkscape:window-width="1680"
     inkscape:window-height="964"
     inkscape:window-x="-4"
     inkscape:window-y="-4"
     inkscape:window-maximized="1">
    <inkscape:grid
       type="xygrid"
       id="grid2985" />
  </sodipodi:namedview>
  <metadata
     id="metadata7">
    <rdf:RDF>
      <cc:Work
         rdf:about="">
        <dc:format>image/svg+xml</dc:format>
        <dc:type
           rdf:resource="http://purl.org/dc/dcmitype/StillImage" />
        <dc:title></dc:title>
      </cc:Work>
    </rdf:RDF>
  </metadata>
  <g
     inkscape:groupmode="layer"
     id="layer13"
     inkscape:label="String">
    <path
       style="fill:#000000;fill-opacity:1;stroke:none"
       d="m 638.5452,857.73549 -9.02149,4.31422 c 11.91334,24.9122 1.37569,54.76522 -23.5365,66.67857 l 4.3142,9.02151 c 29.89465,-14.29602 42.53982,-50.11965 28.24379,-80.0143 z m -18.04301,8.62842 -9.02151,4.3142 c 7.14802,14.94732 0.82542,32.85915 -14.1219,40.00716 l 4.31421,9.02149 c 19.92977,-9.53067 28.35989,-33.41309 18.8292,-53.34285 z m -18.04301,8.62841 -9.02152,4.31422 c 2.38269,4.98244 0.27515,10.95304 -4.70728,13.33571 l 4.3142,9.02151 c 9.96488,-4.76534 14.17994,-16.70656 9.4146,-26.67144 z"
       id="path4880-3"
       inkscape:connector-curvature="0" />
    <path
       style="fill:#000000;stroke:#000000;stroke-width:1px;stroke-linecap:butt;stroke-linejoin:miter;stroke-opacity:1"
       d="m 543,817.36218 41,65 -74,-41 z"
       id="path4866"
       inkscape:connector-curvature="0"
       sodipodi:nodetypes="cccc" />
  </g>
  <g
     inkscape:groupmode="layer"
     id="layer12"
     inkscape:label="Wings">
    <path
       style="fill:#000000;fill-opacity:1;stroke:none"
       d="m 613.05323,474.25515 c -84.40431,70.25816 -215.70542,95.74012 -236.32971,70.96322 -20.6243,-24.77689 28.25439,-149.27663 112.6587,-219.53479 84.40432,-70.25817 137.80565,-25.65643 155.85346,-3.97477 18.04781,21.68165 52.22187,82.28817 -32.18245,152.54634 z"
       id="path4789"
       inkscape:connector-curvature="0"
       sodipodi:nodetypes="szszs" />
    <path
       style="fill:#000000;fill-opacity:1;stroke:none"
       d="m 341.41931,364.02931 c 29.83818,78.65178 15.55166,180.10377 -7.53659,188.86277 -23.08823,8.759 -101.07099,-57.68875 -130.90914,-136.34052 -29.83819,-78.65179 15.78218,-106.20655 35.98614,-113.87133 20.20395,-7.66478 72.62144,-17.3027 102.45959,61.34908 z"
       id="path4789-7"
       inkscape:connector-curvature="0"
       sodipodi:nodetypes="szszs" />
  </g>
  <g
     style="display:inline"
     inkscape:label="Ears Bottom"
     id="g4752"
     inkscape:groupmode="layer">
    <path
       sodipodi:nodetypes="sssssss"
       inkscape:connector-curvature="0"
       id="path4754"
       d="m 198.06361,438.8899 c -4.32021,-24.51558 -33.85232,-59.50835 -54.59731,-47.97646 -14.36869,7.98735 -10.37765,20.2438 -19.42344,26.59944 -9.09584,6.39081 -20.03937,0.36689 -27.1567,8.90622 -11.81984,14.18136 -8.20758,45.32417 7.02737,55.75087 16.055,10.98795 52.69764,-4.76029 56.7833,-19.7982 11.50231,-42.33598 41.50115,-0.0209 37.36678,-23.48187 z"
       style="fill:#ffffff;fill-opacity:1;stroke:none" />
    <path
       sodipodi:type="inkscape:offset"
       inkscape:radius="0.58420622"
       inkscape:original="M 153.03125 388.5625 C 150.22364 388.46745 147.44535 388.93059 144.78125 390.09375 C 139.01822 392.60993 138.54695 393.96154 136.03125 396.6875 C 131.88311 401.18235 130.78534 412.4415 124.03125 417.5 C 114.93543 423.89082 104.02357 417.86692 96.90625 426.40625 C 85.0864 440.58762 88.6713 471.72953 103.90625 482.15625 C 112.16708 487.80991 125.9022 486.41123 137.8125 481.625 C 147.79045 477.61528 157.48051 471.54991 161.15625 462.65625 C 162.72852 458.85202 166.53154 455.16613 168.53125 452.53125 C 180.90398 436.22855 201.75601 459.86556 198.0625 438.90625 C 194.40045 418.12547 172.68453 389.22788 153.03125 388.5625 z M 153.65625 390.8125 C 156.21736 390.92036 158.64441 391.39289 160.71875 392.1875 C 177.41379 400.41818 191.61092 421.94404 195.0625 434.25 C 196.06391 437.82037 196.83087 444.62658 192.09375 443.8125 C 185.49333 442.67821 179.41289 440.76756 172.75 443.9375 C 170.48815 445.01358 166.62915 449.06184 165.15625 450.71875 C 172.15296 427.07472 170.63354 414.42441 168.4375 410.96875 C 164.01039 404.00226 156.74713 407.85194 153.15625 410.34375 C 175.06102 400.83505 167.96907 436.44524 161.125 455.8125 C 159.81981 459.50587 158.91742 463.04737 156.875 465.90625 C 152.15469 472.51348 144.83536 477.04506 137.21875 480.125 C 131.27982 482.52655 124.91218 483.85015 118.59375 483.9375 C 107.04542 485.08349 97.24573 475.85537 94.0625 465.3125 C 90.93581 453.58739 89.6879 439.47934 97.1875 429.125 C 103.41938 420.18694 115.9635 424.6985 124.21875 419.65625 C 126.06193 418.37155 127.51356 416.74434 128.75 414.9375 C 128.05932 416.85354 127.27662 418.82745 126.21875 420.8125 C 121.38297 429.88668 124.22967 423.67843 118.96875 434.3125 C 120.27176 432.98865 120.85448 431.58062 127.25 422.375 C 132.65254 414.59864 133.01644 401.53193 140.34375 394.90625 C 142.10378 393.43329 143.98855 392.49061 145.875 391.6875 C 148.41406 390.97573 151.09514 390.70464 153.65625 390.8125 z "
       style="fill:#000000;fill-opacity:1;stroke:none;display:inline"
       id="path4878"
       d="m 153.0625,387.96875 c -2.88477,-0.0977 -5.75152,0.39375 -8.5,1.59375 -5.82264,2.5422 -6.49366,4.0368 -8.96875,6.71875 -2.22153,2.40721 -3.49713,6.38894 -5.125,10.375 -1.62787,3.98606 -3.55851,7.96132 -6.78125,10.375 -4.38735,3.0826 -9.22206,3.16919 -14,3.53125 -4.77794,0.36206 -9.52282,1.03439 -13.21875,5.46875 -6.063179,7.27456 -8.119056,18.73664 -6.78125,29.71875 1.337806,10.98211 6.05144,21.5206 13.875,26.875 8.54696,5.84949 22.4508,4.36074 34.46875,-0.46875 10.04566,-4.03693 19.87789,-10.13929 23.65625,-19.28125 1.49613,-3.62001 5.25577,-7.28999 7.3125,-10 3.00431,-3.95857 6.42415,-5.42216 9.9375,-5.8125 3.51335,-0.39034 7.12696,0.34194 10.28125,0.96875 3.15429,0.62681 5.9032,1.23741 7.84375,0.0625 0.97028,-0.58746 1.61509,-1.65478 1.875,-3.15625 0.25991,-1.50147 0.15571,-3.46806 -0.3125,-6.125 -1.85725,-10.53918 -8.2206,-23.02241 -16.625,-33 -8.4044,-9.97759 -18.83229,-17.50163 -28.9375,-17.84375 z m 0.5625,3.4375 c 2.49377,0.10502 4.84502,0.5508 6.84375,1.3125 0.009,0.003 0.0223,-0.003 0.0312,0 8.21639,4.05753 15.88278,11.42178 21.90625,19.3125 6.02921,7.89824 10.40029,16.33728 12.09375,22.375 0.48511,1.72958 0.91176,4.28799 0.65625,6.1875 -0.12775,0.94976 -0.43145,1.7121 -0.875,2.15625 -0.44355,0.44415 -1.0408,0.68095 -2.09375,0.5 -6.55152,-1.12589 -12.81786,-3.11205 -19.6875,0.15625 -1.27118,0.60477 -2.8011,1.91119 -4.25,3.28125 -0.80013,0.75659 -1.2853,1.34639 -1.9375,2.03125 3.0302,-10.76571 4.29198,-19.25067 4.5,-25.4375 0.22235,-6.61321 -0.63661,-10.67629 -1.875,-12.625 -2.31725,-3.64642 -5.55267,-4.55104 -8.53125,-4.125 -2.97858,0.42604 -5.76251,2.073 -7.59375,3.34375 a 0.58426464,0.58426464 0 0 0 0.5625,1 c 2.68229,-1.16436 4.89167,-1.62609 6.65625,-1.53125 1.76458,0.0948 3.09811,0.72524 4.15625,1.78125 2.11628,2.11202 3.1022,6.12735 3.15625,11.125 0.10809,9.99529 -3.37557,23.73766 -6.78125,33.375 -1.3161,3.72423 -2.19917,7.19808 -4.15625,9.9375 -4.6277,6.47761 -11.85368,10.97721 -19.40625,14.03125 -5.87355,2.37511 -12.16396,3.6637 -18.40625,3.75 a 0.58426464,0.58426464 0 0 0 -0.0625,0 c -11.20933,1.11235 -20.791651,-7.87194 -23.90625,-18.1875 -3.1066,-11.64977 -4.302408,-25.56227 3.03125,-35.6875 2.98438,-4.28035 7.46797,-5.3541 12.375,-5.96875 4.90703,-0.61465 10.1939,-0.71361 14.5,-3.34375 a 0.58426464,0.58426464 0 0 0 0.0312,-0.0312 c 0.78894,-0.54989 1.46441,-1.1567 2.125,-1.8125 -0.33129,0.74736 -0.5688,1.46826 -0.96875,2.21875 -2.41426,4.53028 -2.90788,5.22746 -3.46875,6.15625 -0.56087,0.92879 -1.18057,2.055 -3.8125,7.375 a 0.58426464,0.58426464 0 0 0 0.9375,0.65625 c 1.3872,-1.40938 1.95467,-2.80365 8.34375,-12 2.78524,-4.00905 4.23033,-9.26451 5.90625,-14.3125 1.67592,-5.04799 3.59949,-9.87457 7.125,-13.0625 1.67143,-1.39392 3.44713,-2.30974 5.28125,-3.09375 2.47326,-0.69333 5.09088,-0.94916 7.59375,-0.84375 z" />
  </g>
  <g
     style="display:inline"
     inkscape:label="Googles Bottom"
     id="g4768"
     inkscape:groupmode="layer">
    <path
       sodipodi:nodetypes="ssszsss"
       inkscape:connector-curvature="0"
       id="path4770"
       d="m 112.5,458.36218 c -14.04315,9.83452 -15.79002,33.35353 -12.5,51 5.5,29.5 21.38447,43 37.5,43.5 9.99519,0.31011 24.98891,-0.57326 33,-11 8.01109,-10.42674 11.42046,-34.19886 7.5,-51.5 -5.95056,-26.26006 -23,-42 -33,-42 -8.33333,0 -19.38778,0.81742 -32.5,10 z"
       style="fill:#ffffff;stroke:#000000;stroke-width:3;stroke-linecap:butt;stroke-linejoin:miter;stroke-miterlimit:4;stroke-opacity:1;stroke-dasharray:none" />
    <path
       transform="matrix(0.9836885,-0.17988034,0.17988034,0.9836885,-185.4938,39.830477)"
       d="m 250,512.36218 a 25,45 0 1 1 -50,0 25,45 0 1 1 50,0 z"
       sodipodi:ry="45"
       sodipodi:rx="25"
       sodipodi:cy="512.36218"
       sodipodi:cx="225"
       id="path4776"
       style="fill:#ffffff;fill-opacity:1;stroke:#000000;stroke-width:3;stroke-miterlimit:4;stroke-opacity:1;stroke-dasharray:none"
       sodipodi:type="arc" />
  </g>
  <g
     style="display:inline"
     inkscape:label="Eyeballs Bottom"
     id="g4762"
     inkscape:groupmode="layer">
    <path
       transform="matrix(0.70784871,-0.12943941,0.12943941,0.70784871,-31.629287,183.86425)"
       d="m 250,512.36218 a 25,45 0 1 1 -50,0 25,45 0 1 1 50,0 z"
       sodipodi:ry="45"
       sodipodi:rx="25"
       sodipodi:cy="512.36218"
       sodipodi:cx="225"
       id="path4764"
       style="fill:#000000;stroke:#000000;stroke-width:1.38968754;stroke-miterlimit:4;stroke-opacity:1;stroke-dasharray:none"
       sodipodi:type="arc" />
    <path
       transform="matrix(0.537002,-0.09819785,0.09819785,0.537002,-40.484881,267.41679)"
       d="m 250,512.36218 a 25,45 0 1 1 -50,0 25,45 0 1 1 50,0 z"
       sodipodi:ry="45"
       sodipodi:rx="25"
       sodipodi:cy="512.36218"
       sodipodi:cx="225"
       id="path4766"
       style="fill:#000000;fill-opacity:1;stroke:#000000;stroke-width:1.83181536;stroke-miterlimit:4;stroke-opacity:1;stroke-dasharray:none"
       sodipodi:type="arc" />
  </g>
  <g
     style="display:inline"
     inkscape:label="Eye Shades Bottom"
     id="g4778"
     inkscape:groupmode="layer">
    <path
       inkscape:connector-curvature="0"
       id="path4780"
       d="m 183.25,446.3125 c -1.02616,6e-5 -2.04293,0.0948 -3.0625,0.28125 -16.29534,2.97982 -25.1763,29.14403 -19.84375,58.46875 L 203,457.28125 c -6.01108,-6.91346 -12.91224,-10.96917 -19.75,-10.96875 z"
       style="fill:#000000;fill-opacity:1;stroke:#000000;stroke-width:3;stroke-miterlimit:4;stroke-opacity:1;stroke-dasharray:none" />
    <path
       inkscape:connector-curvature="0"
       id="path4782"
       d="m 122.46875,458.875 c -0.85435,5e-5 -1.71363,0.0635 -2.5625,0.21875 -6.86885,1.25605 -12.15778,7.47941 -15.125,16.46875 l 48.65625,29.3125 c -0.20398,-1.97332 -0.47394,-3.97769 -0.84375,-6 -4.19112,-22.91946 -17.3097,-40.00078 -30.125,-40 z"
       style="fill:#000000;fill-opacity:1;stroke:#000000;stroke-width:3;stroke-miterlimit:4;stroke-opacity:1;stroke-dasharray:none" />
  </g>
  <g
     inkscape:groupmode="layer"
     id="layer4"
     inkscape:label="Body Smooth"
     style="display:inline">
    <path
       style="fill:#000000;fill-opacity:1;stroke:#000000;stroke-width:3;stroke-linecap:butt;stroke-linejoin:miter;stroke-miterlimit:4;stroke-opacity:1;stroke-dasharray:none"
       d="m 355,477.36218 c 45,25 95.9782,74.96294 132.66667,137.33333 50,85.00001 84.33333,159.33334 55,217.33334 -11.2828,22.30916 -79.19289,32.66666 -111.66667,31.33333 -39.96633,-1.64097 -91,-6 -146,-51 -55,-45 -63.02068,-80.5529 -69,-90 C 197.43672,693.03287 173.23486,685.6466 141.33333,667.69551 107.30168,648.5458 92.51767,628.08066 87,600.69551 84.34597,587.52313 82.88578,542.3906 101.36396,538.9774 c 11.05519,-2.04206 30.44793,11.63391 49.63604,9.84925 25.11512,-2.33592 23.15778,-12.97627 33,-40.13114 14.33921,-39.56216 13.49406,-54.94637 48,-58 37.66667,-3.33333 78,1.66667 123,26.66667 z"
       id="path3044-4"
       inkscape:connector-curvature="0"
       sodipodi:nodetypes="zssszsssssssz" />
  </g>
  <g
     inkscape:groupmode="layer"
     id="layer11"
     inkscape:label="Cheek">
    <path
       style="fill:#ffffff;stroke:#000000;stroke-width:1px;stroke-linecap:butt;stroke-linejoin:miter;stroke-opacity:1"
       d="m 282,571.36218 c 27.43854,6.11727 52.1857,38.42529 39,54 -20.13262,23.7803 -72.58917,38.44128 -129,25 55.04154,2.06098 71.58578,-4.09434 92,-19 15.44578,-11.2779 20.71779,-31.92055 -2,-60 z"
       id="path4787"
       inkscape:connector-curvature="0"
       sodipodi:nodetypes="cscsc" />
  </g>
  <g
     inkscape:groupmode="layer"
     id="layer5"
     inkscape:label="Googles"
     style="display:inline">
    <path
       style="fill:#ffffff;stroke:#000000;stroke-width:3;stroke-linecap:butt;stroke-linejoin:miter;stroke-miterlimit:4;stroke-opacity:1;stroke-dasharray:none"
       d="m 171.29567,445.69924 c -16.86719,11.81222 -18.96535,40.06084 -15.01371,61.25596 6.60603,35.43237 25.68482,51.64719 45.04114,52.24774 12.0052,0.37247 30.01412,-0.68855 39.63621,-13.21208 9.6221,-12.52352 13.71709,-41.07615 9.00823,-61.85651 -7.1472,-31.54088 -27.62523,-50.44608 -39.63621,-50.44608 -10.00914,0 -23.28661,0.9818 -39.03566,12.01097 z"
       id="path3066-8"
       inkscape:connector-curvature="0"
       sodipodi:nodetypes="ssszsss" />
    <path
       sodipodi:type="arc"
       style="fill:#ffffff;stroke:#000000;stroke-width:2.49771595;stroke-miterlimit:4;stroke-opacity:1;stroke-dasharray:none"
       id="path3110-8"
       sodipodi:cx="225"
       sodipodi:cy="512.36218"
       sodipodi:rx="25"
       sodipodi:ry="45"
       d="m 250,512.36218 a 25,45 0 1 1 -50,0 25,45 0 1 1 50,0 z"
       transform="matrix(1.1815056,-0.21605379,0.21605379,1.1815056,-186.62387,-56.998065)" />
  </g>
  <g
     inkscape:groupmode="layer"
     id="layer6"
     inkscape:label="Eye Shades"
     style="display:inline">
    <path
       style="fill:#000000;fill-opacity:1;stroke:#000000;stroke-width:3;stroke-miterlimit:4;stroke-opacity:1;stroke-dasharray:none"
       d="m 183.25,446.3125 c -1.02616,6e-5 -2.04293,0.0948 -3.0625,0.28125 -16.29534,2.97982 -25.1763,29.14403 -19.84375,58.46875 L 203,457.28125 c -6.01108,-6.91346 -12.91224,-10.96917 -19.75,-10.96875 z"
       id="path3110-8-1"
       inkscape:connector-curvature="0" />
  </g>
  <g
     inkscape:groupmode="layer"
     id="layer7"
     inkscape:label="Eyeballs"
     style="display:inline">
    <path
       sodipodi:type="arc"
       style="fill:#000000;stroke:#000000;stroke-width:1.38968754;stroke-miterlimit:4;stroke-opacity:1;stroke-dasharray:none"
       id="path3110-8-2"
       sodipodi:cx="225"
       sodipodi:cy="512.36218"
       sodipodi:rx="25"
       sodipodi:ry="45"
       d="m 250,512.36218 a 25,45 0 1 1 -50,0 25,45 0 1 1 50,0 z"
       transform="matrix(0.70784871,-0.12943941,0.12943941,0.70784871,-31.629287,183.86425)" />
  </g>
  <g
     inkscape:groupmode="layer"
     id="layer8"
     inkscape:label="Nose"
     style="display:inline">
    <path
       sodipodi:type="arc"
       style="fill:#ffffff;fill-opacity:1;stroke:#000000;stroke-width:3.35697030999999990;stroke-miterlimit:4;stroke-opacity:1;stroke-dasharray:none"
       id="path4107-6-1"
       sodipodi:cx="191"
       sodipodi:cy="612.36218"
       sodipodi:rx="9.666667"
       sodipodi:ry="19.333334"
       d="m 200.66667,612.36218 a 9.666667,19.333334 0 1 1 -19.33334,0 9.666667,19.333334 0 1 1 19.33334,0 z"
       transform="matrix(0.76147241,0.21191117,0.013956,1.0526854,-55.080565,-95.963667)" />
    <path
       sodipodi:type="arc"
       style="fill:#ffffff;fill-opacity:1;stroke:#000000;stroke-width:2.52261757999999990;stroke-miterlimit:4;stroke-opacity:1;stroke-dasharray:none"
       id="path4107-6-1-2"
       sodipodi:cx="191"
       sodipodi:cy="612.36218"
       sodipodi:rx="9.666667"
       sodipodi:ry="19.333334"
       d="m 200.66667,612.36218 a 9.666667,19.333334 0 1 1 -19.33334,0 9.666667,19.333334 0 1 1 19.33334,0 z"
       transform="matrix(1.1310955,0.07021819,0.23582071,1.265015,-238.44691,-196.69681)" />
  </g>
  <g
     inkscape:groupmode="layer"
     id="layer9"
     inkscape:label="Ears"
     style="display:inline">
    <path
       style="fill:#ffffff;fill-opacity:1;stroke:none;display:inline"
       d="m 335.11286,493.93854 c 22.41462,-26.43142 33.62702,-89.18413 2.82523,-101.14622 -21.33434,-8.28534 -30.91175,6.89016 -45.76426,2.85455 -14.93467,-4.05792 -18.21608,-21.13652 -33.6922,-21.1645 -25.70139,-0.0464 -55.84362,31.52103 -53.46093,57.11177 2.51096,26.96821 51.96807,52.20715 71.70802,43.20822 55.57352,-25.33453 36.93376,44.43057 58.38414,19.13618 z"
       id="path4579-2-1"
       inkscape:connector-curvature="0"
       sodipodi:nodetypes="sssssss" />
    <path
       sodipodi:type="inkscape:offset"
       inkscape:radius="0.28266686"
       inkscape:original="M 258.5 374.5 C 232.79861 374.4536 202.64855 406.003 205.03125 431.59375 C 206.32321 445.46979 219.99945 458.90682 235.71875 467.40625 C 248.88775 474.52671 264.04911 479.53574 276.84375 475.5625 C 282.31662 473.86296 287.37575 470.85631 291.90625 470.03125 C 328.53569 463.36056 315.96188 516.56599 335.125 493.96875 C 356.83915 468.36334 368.92208 408.05055 340 393.5 C 332.17942 389.5655 330.28208 390.2074 325.125 389.9375 C 316.6215 389.49248 303.58121 398.3598 292.15625 395.625 C 277.22159 391.56706 273.97611 374.52798 258.5 374.5 z M 255.84375 377.1875 C 270.9594 375.9125 277.28857 393.39294 290.03125 397.75 C 293.04657 398.58148 296.05886 398.689 299.09375 398.40625 C 296.42732 399.37066 293.62945 400.27374 290.5625 400.90625 C 276.54277 403.7976 285.72477 401.33288 269.65625 405.15625 C 272.23305 405.37442 274.26471 404.74398 289.8125 403.40625 C 302.94627 402.27622 317.26171 391.01386 330.875 392.96875 C 334.01798 393.54375 336.71202 394.72512 339.25 396.03125 C 345.29118 400.20399 349.94976 406.54941 351.9375 412.40625 C 357.97084 437.60763 347.51652 471.92074 337.40625 486.5625 C 334.47294 490.81057 327.87257 497.73515 324.53125 491.9375 C 319.87565 483.85936 317.69611 473.28559 308.375 468.96875 C 305.21076 467.50332 302.17836 466.66638 299.09375 466.5625 C 323.01616 455.28662 336.9083 442.80051 338.65625 437.375 C 342.1801 426.43735 331.61257 422.06721 325.75 420.4375 C 355.41638 435.44116 310.95518 459.54237 284.125 469.4375 C 279.00844 471.32451 274.40975 473.51982 269.53125 473.875 C 258.25639 474.69593 246.88552 470.88708 236.8125 465.46875 C 228.95825 461.24389 221.90073 455.59582 216.1875 448.90625 C 204.68895 437.55686 205.85189 418.84875 214.3125 406.0625 C 224.0896 392.28531 238.08371 378.36439 255.84375 377.1875 z "
       style="fill:#000000;fill-opacity:1;stroke:none;display:inline"
       id="path4876"
       d="m 258.5,374.21875 c -12.96656,-0.0234 -26.97605,7.90809 -37.46875,19.03125 -10.4927,11.12316 -17.4838,25.45937 -16.28125,38.375 1.30747,14.04261 15.07515,27.50516 30.84375,36.03125 13.20006,7.13725 28.42445,12.19945 41.34375,8.1875 5.51593,-1.71291 10.58335,-4.72123 15.03125,-5.53125 9.095,-1.65632 15.03918,0.38703 19.25,4.03125 4.21082,3.64422 6.68278,8.90824 8.59375,13.71875 0.95549,2.40526 1.77561,4.71337 2.625,6.625 0.84939,1.91163 1.70116,3.43586 2.8125,4.34375 1.11134,0.90789 2.49434,1.12765 4.125,0.375 1.63066,-0.75265 3.5606,-2.41029 5.96875,-5.25 10.91116,-12.86648 19.37424,-34.37653 21.5,-54.53125 1.06288,-10.07736 0.518,-19.81621 -2.09375,-27.96875 -2.61175,-8.15254 -7.31738,-14.72983 -14.625,-18.40625 -7.848,-3.9483 -9.86989,-3.32526 -15,-3.59375 -4.35713,-0.22803 -9.72903,1.90301 -15.46875,3.71875 -5.73972,1.81574 -11.81596,3.31438 -17.4375,1.96875 -7.37572,-2.00408 -11.84816,-7.22135 -16.46875,-12 -4.62059,-4.77865 -9.40824,-9.11082 -17.25,-9.125 z m 0.0625,3.21875 c 6.06633,0.40577 10.64338,3.97569 15.0625,8.125 5.05042,4.74207 9.84522,10.25741 16.3125,12.46875 a 0.28269513,0.28269513 0 0 0 0.0312,0 c 2.34332,0.64618 4.65714,0.84514 7,0.78125 -2.05237,0.68985 -4.17743,1.33995 -6.46875,1.8125 -7.00626,1.44493 -8.18109,1.55662 -9.65625,1.78125 -1.47516,0.22463 -3.21423,0.55671 -11.25,2.46875 a 0.28269513,0.28269513 0 0 0 -0.21875,0.3125 0.28269513,0.28269513 0 0 0 0.0625,0.15625 0.28269513,0.28269513 0 0 0 0.0937,0.0625 0.28269513,0.28269513 0 0 0 0.0937,0.0312 c 2.63486,0.22309 4.67642,-0.41274 20.21875,-1.75 6.63805,-0.57114 13.52425,-3.69729 20.4375,-6.40625 6.90266,-2.70481 13.82362,-4.9844 20.53125,-4.03125 0.0103,0.001 0.021,-0.001 0.0312,0 3.07578,0.56713 5.74181,1.71115 8.25,3 0.0119,0.008 0.0193,0.023 0.0312,0.0312 5.96019,4.12916 10.56546,10.41803 12.53125,16.1875 0.002,0.01 -0.002,0.0214 0,0.0312 2.99255,12.53029 1.89513,27.35677 -1.21875,40.875 -3.11632,13.52881 -8.22764,25.75784 -13.25,33.03125 -1.45113,2.10156 -3.84459,4.87561 -6.21875,6.375 -1.18708,0.7497 -2.36419,1.15411 -3.40625,1.0625 -1.04206,-0.0916 -1.97818,-0.66906 -2.78125,-2.0625 -2.31069,-4.00938 -4.03783,-8.65667 -6.34375,-12.875 -2.30592,-4.21833 -5.20471,-7.99563 -9.9375,-10.1875 -2.84926,-1.31956 -5.61988,-2.10893 -8.40625,-2.34375 11.54491,-5.51555 20.75186,-11.28464 27.28125,-16.375 3.3508,-2.61231 6.001,-5.03059 7.9375,-7.15625 1.9365,-2.12566 3.1642,-3.94472 3.625,-5.375 1.79059,-5.55778 -0.0389,-9.53381 -3.03125,-12.25 -2.99232,-2.71619 -7.14187,-4.24192 -10.09375,-5.0625 a 0.28269513,0.28269513 0 0 0 -0.34375,0.3125 0.28269513,0.28269513 0 0 0 0.0625,0.15625 0.28269513,0.28269513 0 0 0 0.0937,0.0625 c 3.68201,1.86216 6.18371,3.87169 7.71875,5.9375 1.53504,2.06581 2.10805,4.17842 1.90625,6.375 -0.40361,4.39317 -3.95784,9.07803 -9.3125,13.625 -10.70931,9.09395 -28.5135,17.62318 -41.90625,22.5625 -5.13175,1.89261 -9.72405,4.05626 -14.53125,4.40625 -11.19797,0.81533 -22.51897,-2.97253 -32.5625,-8.375 -7.8239,-4.20854 -14.84165,-9.8381 -20.53125,-16.5 a 0.28269513,0.28269513 0 0 0 -0.0312,0 c -11.38124,-11.2336 -10.20967,-29.80963 -1.8125,-42.5 l -0.0312,0 c 9.75544,-13.74666 23.72068,-27.58219 41.34375,-28.75 0.93084,-0.0785 1.82088,-0.0892 2.6875,-0.0312 z" />
  </g>
  <g
     inkscape:groupmode="layer"
     id="layer10"
     inkscape:label="Stripes"
     style="display:inline">
    <path
       style="fill:#ffffff;fill-opacity:1;stroke:#000000;stroke-width:3;stroke-miterlimit:4;stroke-opacity:1;stroke-dasharray:none"
       d="m 433.625,541.6875 c -0.0887,30.83552 -1.33926,77.52951 -82.3125,141.53125 -33.70955,26.64424 -83.43952,39.06116 -132.09375,45.65625 4.31486,9.62129 11.39488,26.36549 29.21875,47.75 48.66211,-2.60952 104.77208,-20.21015 160.65625,-68.8125 49.57181,-43.11249 65.21878,-83.54135 64.875,-114.875 -12.48618,-18.57908 -26.14679,-35.79429 -40.34375,-51.25 z"
       id="path4351-5-7-6"
       inkscape:connector-curvature="0" />
    <path
       style="fill:#ffffff;fill-opacity:1;stroke:#000000;stroke-width:3;stroke-miterlimit:4;stroke-opacity:1;stroke-dasharray:none"
       d="m 505.75,646.375 c -4.78506,25.17611 -20.65251,57.80604 -70.3125,103.78125 -43.2347,40.02667 -95.83053,59.66745 -149.53125,62.9375 19.56504,15.86204 38.61442,26.58226 56.84375,33.90625 0.009,0.004 0.0223,-0.004 0.0312,0 39.64821,-3.15442 86.66309,-20.55035 137,-66.59375 28.22735,-25.81968 45.67221,-50.84803 55.5,-73.625 C 527.36672,687.44181 517.26263,667.27922 505.75,646.375 z"
       id="path4351-5-7-6-7"
       inkscape:connector-curvature="0" />
    <path
       style="fill:#ffffff;fill-opacity:1;stroke:#000000;stroke-width:3;stroke-miterlimit:4;stroke-opacity:1;stroke-dasharray:none"
       d="m 550.3125,754.5625 c -5.59399,18.96851 -15.32949,38.58694 -34.53125,56.09375 -27.00413,24.62047 -49.33101,43.04691 -82.75,52.75 33.18082,0.84567 98.56909,-9.51447 109.625,-31.375 11.78548,-23.30312 13.31246,-49.25992 7.65625,-77.46875 z"
       id="path4351-5-7-6-7-9"
       inkscape:connector-curvature="0" />
  </g>
</svg>
