999
dxfrw 0.6.3
  0
SECTION
  2
HEADER
  9
$ACADVER
  1
AC1021
  9
$DWGCODEPAGE
  3
ANSI_1252
  9
$INSBASE
 10
0
 20
0
 30
0
  9
$EXTMIN
 10
-1.710226114820906e-015
 20
-11
 30
0
  9
$EXTMAX
 10
66
 20
16
 30
0
  9
$LIMMIN
 10
0
 20
0
  9
$LIMMAX
 10
420
 20
297
  9
$ORTHOMODE
 70
    0
  9
$REGENMODE
 70
    1
  9
$FILLMODE
 70
    1
  9
$QTEXTMODE
 70
    0
  9
$MIRRTEXT
 70
    0
  9
$LTSCALE
 40
1
  9
$ATTMODE
 70
    0
  9
$TEXTSIZE
 40
2.5
  9
$TRACEWID
 40
15.68
  9
$TEXTSTYLE
  7
STANDARD
  9
$CLAYER
  8
5-1
  9
$CELTYPE
  6
BYLAYER
  9
$CECOLOR
 62
  256
  9
$CELTSCALE
 40
1
  9
$DISPSILH
 70
    0
  9
$DIMSCALE
 40
2.5
  9
$DIMASZ
 40
2.5
  9
$DIMEXO
 40
0.625
  9
$DIMDLI
 40
3.75
  9
$DIMRND
 40
0
  9
$DIMDLE
 40
0
  9
$DIMEXE
 40
1.25
  9
$DIMTP
 40
0
  9
$DIMTM
 40
0
  9
$DIMTXT
 40
2.5
  9
$DIMCEN
 40
2.5
  9
$DIMTSZ
 40
0
  9
$DIMTOL
 70
    0
  9
$DIMLIM
 70
    0
  9
$DIMTIH
 70
    0
  9
$DIMTOH
 70
    0
  9
$DIMSE1
 70
    0
  9
$DIMSE2
 70
    0
  9
$DIMTAD
 70
    1
  9
$DIMZIN
 70
    8
  9
$DIMBLK
  1

  9
$DIMASO
 70
    1
  9
$DIMSHO
 70
    1
  9
$DIMPOST
  1

  9
$DIMAPOST
  1

  9
$DIMALT
 70
    0
  9
$DIMALTD
 70
    3
  9
$DIMALTF
 40
0.03937
  9
$DIMLFAC
 40
1
  9
$DIMTOFL
 70
    1
  9
$DIMTVP
 40
0
  9
$DIMTIX
 70
    0
  9
$DIMSOXD
 70
    0
  9
$DIMSAH
 70
    0
  9
$DIMBLK1
  1

  9
$DIMBLK2
  1

  9
$DIMSTYLE
  2
STANDARD
  9
$DIMCLRD
 70
    0
  9
$DIMCLRE
 70
    0
  9
$DIMCLRT
 70
    0
  9
$DIMTFAC
 40
1
  9
$DIMGAP
 40
0.625
  9
$DIMJUST
 70
    0
  9
$DIMSD1
 70
    0
  9
$DIMSD2
 70
    0
  9
$DIMTOLJ
 70
    0
  9
$DIMTZIN
 70
    8
  9
$DIMALTZ
 70
    0
  9
$DIMALTTZ
 70
    0
  9
$DIMUPT
 70
    0
  9
$DIMDEC
 70
    2
  9
$DIMTDEC
 70
    2
  9
$DIMALTU
 70
    2
  9
$DIMALTTD
 70
    3
  9
$DIMTXSTY
  7
STANDARD
  9
$DIMAUNIT
 70
    0
  9
$DIMADEC
 70
    0
  9
$DIMALTRND
 40
0
  9
$DIMAZIN
 70
    0
  9
$DIMDSEP
 70
   44
  9
$DIMATFIT
 70
    3
  9
$DIMFRAC
 70
    0
  9
$DIMLDRBLK
  1
STANDARD
  9
$DIMLUNIT
 70
    2
  9
$DIMLWD
 70
   -2
  9
$DIMLWE
 70
   -2
  9
$DIMTMOVE
 70
    0
  9
$DIMFXL
 40
1
  9
$DIMFXLON
 70
    0
  9
$DIMJOGANG
 40
0.7854
  9
$DIMTFILL
 70
    0
  9
$DIMTFILLCLR
 70
    0
  9
$DIMARCSYM
 70
    0
  9
$DIMLTYPE
  6

  9
$DIMLTEX1
  6

  9
$DIMLTEX2
  6

  9
$LUNITS
 70
    2
  9
$LUPREC
 70
    4
  9
$SKETCHINC
 40
1
  9
$FILLETRAD
 40
0
  9
$AUNITS
 70
    0
  9
$AUPREC
 70
    2
  9
$MENU
  1
.
  9
$ELEVATION
 40
0
  9
$PELEVATION
 40
0
  9
$THICKNESS
 40
0
  9
$LIMCHECK
 70
    0
  9
$CHAMFERA
 40
0
  9
$CHAMFERB
 40
0
  9
$CHAMFERC
 40
0
  9
$CHAMFERD
 40
0
  9
$SKPOLY
 70
    0
  9
$USRTIMER
 70
    1
  9
$ANGBASE
 50
0
  9
$ANGDIR
 70
    0
  9
$PDMODE
 70
   34
  9
$PDSIZE
 40
0
  9
$PLINEWID
 40
0
  9
$SPLFRAME
 70
    0
  9
$SPLINETYPE
 70
    2
  9
$SPLINESEGS
 70
    8
  9
$HANDSEED
  5
20000
  9
$SURFTAB1
 70
    6
  9
$SURFTAB2
 70
    6
  9
$SURFTYPE
 70
    6
  9
$SURFU
 70
    6
  9
$SURFV
 70
    6
  9
$UCSBASE
  2

  9
$UCSNAME
  2

  9
$UCSORG
 10
0
 20
0
 30
0
  9
$UCSXDIR
 10
1
 20
0
 30
0
  9
$UCSYDIR
 10
0
 20
1
 30
0
  9
$UCSORTHOREF
  2

  9
$UCSORTHOVIEW
 70
    0
  9
$UCSORGTOP
 10
0
 20
0
 30
0
  9
$UCSORGBOTTOM
 10
0
 20
0
 30
0
  9
$UCSORGLEFT
 10
0
 20
0
 30
0
  9
$UCSORGRIGHT
 10
0
 20
0
 30
0
  9
$UCSORGFRONT
 10
0
 20
0
 30
0
  9
$UCSORGBACK
 10
0
 20
0
 30
0
  9
$PUCSBASE
  2

  9
$PUCSNAME
  2

  9
$PUCSORG
 10
0
 20
0
 30
0
  9
$PUCSXDIR
 10
1
 20
0
 30
0
  9
$PUCSYDIR
 10
0
 20
1
 30
0
  9
$PUCSORTHOREF
  2

  9
$PUCSORTHOVIEW
 70
    0
  9
$PUCSORGTOP
 10
0
 20
0
 30
0
  9
$PUCSORGBOTTOM
 10
0
 20
0
 30
0
  9
$PUCSORGLEFT
 10
0
 20
0
 30
0
  9
$PUCSORGRIGHT
 10
0
 20
0
 30
0
  9
$PUCSORGFRONT
 10
0
 20
0
 30
0
  9
$PUCSORGBACK
 10
0
 20
0
 30
0
  9
$USERI1
 70
    0
  9
$USERI2
 70
    0
  9
$USERI3
 70
    0
  9
$USERI4
 70
    0
  9
$USERI5
 70
    0
  9
$USERR1
 40
0
  9
$USERR2
 40
0
  9
$USERR3
 40
0
  9
$USERR4
 40
0
  9
$USERR5
 40
0
  9
$WORLDVIEW
 70
    1
  9
$SHADEDGE
 70
    3
  9
$SHADEDIF
 70
   70
  9
$TILEMODE
 70
    1
  9
$MAXACTVP
 70
   64
  9
$PINSBASE
 10
0
 20
0
 30
0
  9
$PLIMCHECK
 70
    0
  9
$PEXTMIN
 10
0
 20
0
 30
0
  9
$PEXTMAX
 10
0
 20
0
 30
0
  9
$GRIDMODE
 70
    1
  9
$SNAPSTYLE
 70
    0
  9
$PLIMMIN
 10
0
 20
0
  9
$PLIMMAX
 10
210
 20
297
  9
$UNITMODE
 70
    0
  9
$VISRETAIN
 70
    1
  9
$PLINEGEN
 70
    0
  9
$PSLTSCALE
 70
    1
  9
$TREEDEPTH
 70
 3020
  9
$CMLSTYLE
  2
Standard
  9
$CMLJUST
 70
    0
  9
$CMLSCALE
 40
20
  9
$PROXYGRAPHICS
 70
    1
  9
$MEASUREMENT
 70
    1
  9
$CELWEIGHT
370
   -1
  9
$ENDCAPS
280
    0
  9
$JOINSTYLE
280
    0
  9
$LWDISPLAY
290
    0
  9
$INSUNITS
 70
    0
  9
$HYPERLINKBASE
  1

  9
$STYLESHEET
  1

  9
$XEDIT
290
    1
  9
$CEPSNTYPE
380
    0
  9
$PSTYLEMODE
290
    1
  9
$EXTNAMES
290
    1
  9
$PSVPSCALE
 40
1
  9
$OLESTARTUP
290
    0
  9
$SORTENTS
280
  127
  9
$INDEXCTL
280
    0
  9
$HIDETEXT
280
    1
  9
$XCLIPFRAME
290
    0
  9
$HALOGAP
280
    0
  9
$OBSCOLOR
 70
  257
  9
$OBSLTYPE
280
    0
  9
$INTERSECTIONDISPLAY
280
    0
  9
$INTERSECTIONCOLOR
 70
  257
  9
$DIMASSOC
280
    1
  9
$PROJECTNAME
  1

  9
$CAMERADISPLAY
290
    0
  9
$LENSLENGTH
 40
50
  9
$CAMERAHEIGHT
 40
0
  9
$STEPSPERSEC
 40
2
  9
$STEPSIZE
 40
50
  9
$3DDWFPREC
 40
2
  9
$PSOLWIDTH
 40
5
  9
$PSOLHEIGHT
 40
80
  9
$LOFTANG1
 40
1.570796326794897
  9
$LOFTANG2
 40
1.570796326794897
  9
$LOFTMAG1
 40
0
  9
$LOFTMAG2
 40
0
  9
$LOFTPARAM
 70
    7
  9
$LOFTNORMALS
280
    1
  9
$LATITUDE
 40
1
  9
$LONGITUDE
 40
1
  9
$NORTHDIRECTION
 40
0
  9
$TIMEZONE
 70
-8000
  9
$LIGHTGLYPHDISPLAY
280
    1
  9
$TILEMODELIGHTSYNCH
280
    1
  9
$SOLIDHIST
280
    1
  9
$SHOWHIST
280
    1
  9
$DWFFRAME
280
    2
  9
$DGNFRAME
280
    0
  9
$REALWORLDSCALE
290
    1
  9
$INTERFERECOLOR
 62
    1
  9
$CSHADOW
280
    0
  9
$SHADOWPLANELOCATION
 40
0
  0
ENDSEC
  0
SECTION
  2
CLASSES
  0
ENDSEC
  0
SECTION
  2
TABLES
  0
TABLE
  2
VPORT
  5
8
330
0
100
AcDbSymbolTable
 70
    1
  0
VPORT
  5
31
330
2
100
AcDbSymbolTableRecord
100
AcDbViewportTableRecord
  2
*ACTIVE
 70
    0
 10
0
 20
0
 11
1
 21
1
 12
33.70063694267516
 22
11.98089171974522
 13
0
 23
0
 14
10
 24
10
 15
10
 25
10
 16
0
 26
0
 36
1
 17
0
 27
0
 37
0
 40
42.73885350318471
 41
1.60983606557377
 42
50
 43
0
 44
0
 50
0
 51
0
 71
    0
 72
  100
 73
    1
 74
    3
 75
    0
 76
    1
 77
    0
 78
    0
281
    0
 65
    1
110
0
120
0
130
0
111
1
121
0
131
0
112
0
122
1
132
0
 79
    0
146
0
348
10020
 60
    7
 61
    5
292
1
282
    1
141
0
142
0
 63
  250
421
3358443
  0
ENDTAB
  0
TABLE
  2
LTYPE
  5
5
330
0
100
AcDbSymbolTable
 70
    4
  0
LTYPE
  5
14
330
5
100
AcDbSymbolTableRecord
100
AcDbLinetypeTableRecord
  2
ByBlock
 70
    0
  3

 72
   65
 73
    0
 40
0
  0
LTYPE
  5
15
330
5
100
AcDbSymbolTableRecord
100
AcDbLinetypeTableRecord
  2
ByLayer
 70
    0
  3

 72
   65
 73
    0
 40
0
  0
LTYPE
  5
16
330
5
100
AcDbSymbolTableRecord
100
AcDbLinetypeTableRecord
  2
Continuous
 70
    0
  3
Solid line
 72
   65
 73
    0
 40
0
  0
LTYPE
  5
32
330
5
100
AcDbSymbolTableRecord
100
AcDbLinetypeTableRecord
  2
DOT
 70
    0
  3
Dot . . . . . . . . . . . . . . . . . . . . . .
 72
   65
 73
    2
 40
6.35
 49
0
 74
    0
 49
-6.35
 74
    0
  0
LTYPE
  5
33
330
5
100
AcDbSymbolTableRecord
100
AcDbLinetypeTableRecord
  2
DOTTINY
 70
    0
  3
Dot (.15x) .....................................
 72
   65
 73
    2
 40
0.9525
 49
0
 74
    0
 49
-0.9525
 74
    0
  0
LTYPE
  5
34
330
5
100
AcDbSymbolTableRecord
100
AcDbLinetypeTableRecord
  2
DOT2
 70
    0
  3
Dot (.5x) .....................................
 72
   65
 73
    2
 40
3.175
 49
0
 74
    0
 49
-3.175
 74
    0
  0
LTYPE
  5
35
330
5
100
AcDbSymbolTableRecord
100
AcDbLinetypeTableRecord
  2
DOTX2
 70
    0
  3
Dot (2x) .  .  .  .  .  .  .  .  .  .  .  .  .
 72
   65
 73
    2
 40
12.7
 49
0
 74
    0
 49
-12.7
 74
    0
  0
LTYPE
  5
36
330
5
100
AcDbSymbolTableRecord
100
AcDbLinetypeTableRecord
  2
DASHED
 70
    0
  3
Dashed _ _ _ _ _ _ _ _ _ _ _ _ _ _ _ _ _
 72
   65
 73
    2
 40
19.05
 49
12.7
 74
    0
 49
-6.35
 74
    0
  0
LTYPE
  5
37
330
5
100
AcDbSymbolTableRecord
100
AcDbLinetypeTableRecord
  2
DASHEDTINY
 70
    0
  3
Dashed (.15x) _ _ _ _ _ _ _ _ _ _ _ _ _ _ _ _ _
 72
   65
 73
    2
 40
2.8575
 49
1.905
 74
    0
 49
-0.9525
 74
    0
  0
LTYPE
  5
38
330
5
100
AcDbSymbolTableRecord
100
AcDbLinetypeTableRecord
  2
DASHED2
 70
    0
  3
Dashed (.5x) _ _ _ _ _ _ _ _ _ _ _ _ _ _ _ _ _
 72
   65
 73
    2
 40
9.524999999999999
 49
6.35
 74
    0
 49
-3.175
 74
    0
  0
LTYPE
  5
39
330
5
100
AcDbSymbolTableRecord
100
AcDbLinetypeTableRecord
  2
DASHEDX2
 70
    0
  3
Dashed (2x) ____  ____  ____  ____  ____  ___
 72
   65
 73
    2
 40
38.09999999999999
 49
25.4
 74
    0
 49
-12.7
 74
    0
  0
LTYPE
  5
3A
330
5
100
AcDbSymbolTableRecord
100
AcDbLinetypeTableRecord
  2
DASHDOT
 70
    0
  3
Dash dot __ . __ . __ . __ . __ . __ . __ . __
 72
   65
 73
    4
 40
25.4
 49
12.7
 74
    0
 49
-6.35
 74
    0
 49
0
 74
    0
 49
-6.35
 74
    0
  0
LTYPE
  5
3B
330
5
100
AcDbSymbolTableRecord
100
AcDbLinetypeTableRecord
  2
DASHDOTTINY
 70
    0
  3
Dash dot (.15x) _._._._._._._._._._._._._._._.
 72
   65
 73
    4
 40
3.81
 49
1.905
 74
    0
 49
-0.9525
 74
    0
 49
0
 74
    0
 49
-0.9525
 74
    0
  0
LTYPE
  5
3C
330
5
100
AcDbSymbolTableRecord
100
AcDbLinetypeTableRecord
  2
DASHDOT2
 70
    0
  3
Dash dot (.5x) _._._._._._._._._._._._._._._.
 72
   65
 73
    4
 40
12.7
 49
6.35
 74
    0
 49
-3.175
 74
    0
 49
0
 74
    0
 49
-3.175
 74
    0
  0
LTYPE
  5
3D
330
5
100
AcDbSymbolTableRecord
100
AcDbLinetypeTableRecord
  2
DASHDOTX2
 70
    0
  3
Dash dot (2x) ____  .  ____  .  ____  .  ___
 72
   65
 73
    4
 40
50.8
 49
25.4
 74
    0
 49
-12.7
 74
    0
 49
0
 74
    0
 49
-12.7
 74
    0
  0
LTYPE
  5
3E
330
5
100
AcDbSymbolTableRecord
100
AcDbLinetypeTableRecord
  2
DIVIDE
 70
    0
  3
Divide ____ . . ____ . . ____ . . ____ . . ____
 72
   65
 73
    6
 40
31.75
 49
12.7
 74
    0
 49
-6.35
 74
    0
 49
0
 74
    0
 49
-6.35
 74
    0
 49
0
 74
    0
 49
-6.35
 74
    0
  0
LTYPE
  5
3F
330
5
100
AcDbSymbolTableRecord
100
AcDbLinetypeTableRecord
  2
DIVIDETINY
 70
    0
  3
Divide (.15x) __..__..__..__..__..__..__..__.._
 72
   65
 73
    6
 40
4.7625
 49
1.905
 74
    0
 49
-0.9525
 74
    0
 49
0
 74
    0
 49
-0.9525
 74
    0
 49
0
 74
    0
 49
-0.9525
 74
    0
  0
LTYPE
  5
40
330
5
100
AcDbSymbolTableRecord
100
AcDbLinetypeTableRecord
  2
DIVIDE2
 70
    0
  3
Divide (.5x) __..__..__..__..__..__..__..__.._
 72
   65
 73
    6
 40
15.875
 49
6.35
 74
    0
 49
-3.175
 74
    0
 49
0
 74
    0
 49
-3.175
 74
    0
 49
0
 74
    0
 49
-3.175
 74
    0
  0
LTYPE
  5
41
330
5
100
AcDbSymbolTableRecord
100
AcDbLinetypeTableRecord
  2
DIVIDEX2
 70
    0
  3
Divide (2x) ________  .  .  ________  .  .  _
 72
   65
 73
    6
 40
63.5
 49
25.4
 74
    0
 49
-12.7
 74
    0
 49
0
 74
    0
 49
-12.7
 74
    0
 49
0
 74
    0
 49
-12.7
 74
    0
  0
LTYPE
  5
42
330
5
100
AcDbSymbolTableRecord
100
AcDbLinetypeTableRecord
  2
BORDER
 70
    0
  3
Border __ __ . __ __ . __ __ . __ __ . __ __ .
 72
   65
 73
    6
 40
44.45
 49
12.7
 74
    0
 49
-6.35
 74
    0
 49
12.7
 74
    0
 49
-6.35
 74
    0
 49
0
 74
    0
 49
-6.35
 74
    0
  0
LTYPE
  5
43
330
5
100
AcDbSymbolTableRecord
100
AcDbLinetypeTableRecord
  2
BORDERTINY
 70
    0
  3
Border (.15x) __.__.__.__.__.__.__.__.__.__.__.
 72
   65
 73
    6
 40
6.6675
 49
1.905
 74
    0
 49
-0.9525
 74
    0
 49
1.905
 74
    0
 49
-0.9525
 74
    0
 49
0
 74
    0
 49
-0.9525
 74
    0
  0
LTYPE
  5
44
330
5
100
AcDbSymbolTableRecord
100
AcDbLinetypeTableRecord
  2
BORDER2
 70
    0
  3
Border (.5x) __.__.__.__.__.__.__.__.__.__.__.
 72
   65
 73
    6
 40
22.225
 49
6.35
 74
    0
 49
-3.175
 74
    0
 49
6.35
 74
    0
 49
-3.175
 74
    0
 49
0
 74
    0
 49
-3.175
 74
    0
  0
LTYPE
  5
45
330
5
100
AcDbSymbolTableRecord
100
AcDbLinetypeTableRecord
  2
BORDERX2
 70
    0
  3
Border (2x) ____  ____  .  ____  ____  .  ___
 72
   65
 73
    6
 40
88.89999999999999
 49
25.4
 74
    0
 49
-12.7
 74
    0
 49
25.4
 74
    0
 49
-12.7
 74
    0
 49
0
 74
    0
 49
-12.7
 74
    0
  0
LTYPE
  5
46
330
5
100
AcDbSymbolTableRecord
100
AcDbLinetypeTableRecord
  2
CENTER
 70
    0
  3
Center ____ _ ____ _ ____ _ ____ _ ____ _ ____
 72
   65
 73
    4
 40
50.8
 49
31.75
 74
    0
 49
-6.35
 74
    0
 49
6.35
 74
    0
 49
-6.35
 74
    0
  0
LTYPE
  5
47
330
5
100
AcDbSymbolTableRecord
100
AcDbLinetypeTableRecord
  2
CENTERTINY
 70
    0
  3
Center (.15x) ___ _ ___ _ ___ _ ___ _ ___ _ ___
 72
   65
 73
    4
 40
7.62
 49
4.7625
 74
    0
 49
-0.9525
 74
    0
 49
0.9525
 74
    0
 49
-0.9525
 74
    0
  0
LTYPE
  5
48
330
5
100
AcDbSymbolTableRecord
100
AcDbLinetypeTableRecord
  2
CENTER2
 70
    0
  3
Center (.5x) ___ _ ___ _ ___ _ ___ _ ___ _ ___
 72
   65
 73
    4
 40
28.575
 49
19.05
 74
    0
 49
-3.175
 74
    0
 49
3.175
 74
    0
 49
-3.175
 74
    0
  0
LTYPE
  5
49
330
5
100
AcDbSymbolTableRecord
100
AcDbLinetypeTableRecord
  2
CENTERX2
 70
    0
  3
Center (2x) ________  __  ________  __  _____
 72
   65
 73
    4
 40
101.6
 49
63.5
 74
    0
 49
-12.7
 74
    0
 49
12.7
 74
    0
 49
-12.7
 74
    0
  0
ENDTAB
  0
TABLE
  2
LAYER
  5
2
330
0
100
AcDbSymbolTable
 70
    1
  0
LAYER
  5
10
330
2
100
AcDbSymbolTableRecord
100
AcDbLayerTableRecord
  2
0
 70
    5
 62
    7
  6
CONTINUOUS
370
   -3
390
F
  0
LAYER
  5
4A
330
2
100
AcDbSymbolTableRecord
100
AcDbLayerTableRecord
  2
0-1
 70
    5
 62
    6
  6
CONTINUOUS
370
    0
390
F
  0
LAYER
  5
4B
330
2
100
AcDbSymbolTableRecord
100
AcDbLayerTableRecord
  2
0-2
 70
    5
 62
  216
420
8388736
  6
CONTINUOUS
370
    0
390
F
  0
LAYER
  5
4C
330
2
100
AcDbSymbolTableRecord
100
AcDbLayerTableRecord
  2
1
 70
    5
 62
    7
  6
CONTINUOUS
370
    0
390
F
  0
LAYER
  5
4D
330
2
100
AcDbSymbolTableRecord
100
AcDbLayerTableRecord
  2
1-1
 70
    5
 62
    1
  6
CONTINUOUS
370
    0
390
F
  0
LAYER
  5
4E
330
2
100
AcDbSymbolTableRecord
100
AcDbLayerTableRecord
  2
2
 70
    5
 62
    7
  6
CONTINUOUS
370
    0
390
F
  0
LAYER
  5
4F
330
2
100
AcDbSymbolTableRecord
100
AcDbLayerTableRecord
  2
2-1
 70
    5
 62
    3
  6
CONTINUOUS
370
    0
390
F
  0
LAYER
  5
50
330
2
100
AcDbSymbolTableRecord
100
AcDbLayerTableRecord
  2
4
 70
    5
 62
    7
  6
CONTINUOUS
370
    0
390
F
  0
LAYER
  5
51
330
2
100
AcDbSymbolTableRecord
100
AcDbLayerTableRecord
  2
4-1
 70
    5
 62
    7
  6
CONTINUOUS
370
    0
390
F
  0
LAYER
  5
52
330
2
100
AcDbSymbolTableRecord
100
AcDbLayerTableRecord
  2
5
 70
    4
 62
    7
  6
CONTINUOUS
370
    0
390
F
  0
LAYER
  5
53
330
2
100
AcDbSymbolTableRecord
100
AcDbLayerTableRecord
  2
5-1
 70
    4
 62
    7
  6
CONTINUOUS
370
    0
390
F
  0
ENDTAB
  0
TABLE
  2
STYLE
  5
3
330
0
100
AcDbSymbolTable
 70
    3
  0
STYLE
  5
54
330
2
100
AcDbSymbolTableRecord
100
AcDbTextStyleTableRecord
  2
Standard
 70
    0
 40
0
 41
1
 50
0
 71
    0
 42
1
  3
txt
  4

  0
ENDTAB
  0
TABLE
  2
VIEW
  5
6
330
0
100
AcDbSymbolTable
 70
    0
  0
ENDTAB
  0
TABLE
  2
UCS
  5
7
330
0
100
AcDbSymbolTable
 70
    0
  0
ENDTAB
  0
TABLE
  2
APPID
  5
9
330
0
100
AcDbSymbolTable
 70
    1
  0
APPID
  5
12
330
9
100
AcDbSymbolTableRecord
100
AcDbRegAppTableRecord
  2
ACAD
 70
    0
  0
APPID
  5
55
330
9
100
AcDbSymbolTableRecord
100
AcDbRegAppTableRecord
  2
LibreCad
 70
    0
  0
ENDTAB
  0
TABLE
  2
DIMSTYLE
  5
A
330
0
100
AcDbSymbolTable
 70
    1
100
AcDbDimStyleTable
 71
    1
  0
DIMSTYLE
105
56
330
A
100
AcDbSymbolTableRecord
100
AcDbDimStyleTableRecord
  2
Standard
 70
    0
 40
2.5
 41
2.5
 42
0.625
 43
0.38
 44
1.25
 45
0
 46
0
 47
0
 48
0
 49
1
140
2.5
141
0.09
142
0
143
25.4
144
1
145
0
146
1
147
0.625
148
0
 71
    0
 72
    0
 73
    0
 74
    1
 75
    0
 76
    0
 77
    0
 78
    8
 79
    0
170
    0
171
    2
172
    0
173
    0
174
    0
175
    0
176
    0
177
    0
178
    0
179
    0
271
    2
272
    4
273
    2
274
    2
275
    0
276
    0
277
    2
278
   44
279
    0
280
    0
281
    0
282
    0
283
    1
284
    0
285
    0
286
    0
288
    0
289
    3
340
STANDARD
341

371
   -2
372
   -2
  0
ENDTAB
  0
TABLE
  2
BLOCK_RECORD
  5
1
330
0
100
AcDbSymbolTable
 70
    2
  0
BLOCK_RECORD
  5
1F
330
1
100
AcDbSymbolTableRecord
100
AcDbBlockTableRecord
  2
*Model_Space
 70
    0
280
    1
281
    0
  0
BLOCK_RECORD
  5
1E
330
1
100
AcDbSymbolTableRecord
100
AcDbBlockTableRecord
  2
*Paper_Space
 70
    0
280
    1
281
    0
  0
BLOCK_RECORD
  5
57
330
1
100
AcDbSymbolTableRecord
100
AcDbBlockTableRecord
  2
FRONT_BUMPER001_CS001
 70
    0
280
    1
281
    0
  0
ENDTAB
  0
ENDSEC
  0
SECTION
  2
BLOCKS
  0
BLOCK
  5
20
330
1F
100
AcDbEntity
  8
0
100
AcDbBlockBegin
  2
*Model_Space
 70
    0
 10
0
 20
0
 30
0
  3
*Model_Space
  1

  0
ENDBLK
  5
21
330
1F
100
AcDbEntity
  8
0
100
AcDbBlockEnd
  0
BLOCK
  5
1C
330
1B
100
AcDbEntity
  8
0
100
AcDbBlockBegin
  2
*Paper_Space
 70
    0
 10
0
 20
0
 30
0
  3
*Paper_Space
  1

  0
ENDBLK
  5
1D
330
1F
100
AcDbEntity
  8
0
100
AcDbBlockEnd
  0
BLOCK
  5
58
330
57
100
AcDbEntity
  8
0
100
AcDbBlockBegin
  2
FRONT_BUMPER001_CS001
 70
    0
 10
0
 20
0
  3
FRONT_BUMPER001_CS001
  1

  0
LWPOLYLINE
  5
5A
100
AcDbEntity
  8
0
  6
ByLayer
 62
    0
370
   -1
100
AcDbPolyline
 90
  197
 70
    1
 43
0
 10
108.333007813
 20
-20.1540412903
 10
108.715530396
 20
-20.0619239807
 10
109.107765198
 20
-20.0309619904
 10
109.5
 20
-20
 10
112
 20
-20
 10
114.871925354
 20
-20
 10
115.243850708
 20
-20
 10
115.254007339
 20
-20.0008306503
 10
115.257416722
 20
-20.0011867282
 10
115.261938719
 20
-20.0015823036
 10
115.270982768
 20
-20.0023734592
 10
115.287261963
 20
-20.0037975311
 10
115.297784855
 20
-20.0066175595
 10
115.329353333
 20
-20.0150775909
 10
115.339227723
 20
-20.0196814757
 10
115.368850708
 20
-20.033493042
 10
115.377775235
 20
-20.0397420227
 10
115.404548645
 20
-20.0584888458
 10
115.412252463
 20
-20.0661926637
 10
115.43536377
 20
-20.0893039703
 10
115.441612273
 20
-20.0982280203
 10
115.460357666
 20
-20.125
 10
115.464962028
 20
-20.1348739141
 10
115.478775024
 20
-20.1644954681
 10
115.481594099
 20
-20.1750188376
 10
115.49005127
 20
-20.2065887451
 10
115.490989684
 20
-20.2133414638
 10
115.492553711
 20
-20.2245960236
 10
115.5638237
 20
-20.7629308701
 10
115.777633667
 20
-22.3779354095
 10
116.087350845
 20
-23.9773187637
 10
116.190589905
 20
-24.5104465485
 10
116.59510994
 20
-26.0885195732
 10
116.729949951
 20
-26.6145439148
 10
116.771001816
 20
-26.8206515312
 10
116.896114349
 20
-27.4566669464
 10
116.902057648
 20
-27.6667394638
 10
116.915773392
 20
-28.3147997856
 10
116.88643837
 20
-28.522898674
 10
116.788345337
 20
-29.1636390686
 10
116.724561691
 20
-29.3638825417
 10
116.517595291
 20
-29.978158474
 10
116.327398795
 20
-30.3456585602
 10
116.194742323
 20
-30.6025414061
 10
115.975686955
 20
-30.9200343346
 10
115.767432062
 20
-31.1968327619
 10
115.525785941
 20
-31.46553008
 10
115.243318599
 20
-31.732637729
 10
114.984649658
 20
-31.9544277191
 10
114.635192871
 20
-32.1879711151
 10
114.454770638
 20
-32.3057614735
 10
114.298549211
 20
-32.3999508692
 10
113.691856202
 20
-32.6714726846
 10
113.521652756
 20
-32.7371032175
 10
112.878040575
 20
-32.9031490071
 10
112.699025711
 20
-32.9382270099
 10
112.036700576
 20
-32.9941004379
 10
111.981218027
 20
-32.9970502188
 10
111.925735474
 20
-33
 10
108.233242301
 20
-33
 10
59
 20
-33
 10
57.8085263274
 20
-32.9147849859
 10
57.7107174008
 20
-32.9071499137
 10
56.6310428353
 20
-32.6722800676
 10
56.4480544689
 20
-32.6305139231
 10
55.4127909638
 20
-32.2443805961
 10
55.2380716191
 20
-32.1758081303
 10
55.0690803528
 20
-32.0933437347
 10
54.505563736
 20
-31.7856407166
 10
54.1505847196
 20
-31.581744462
 10
53.7582670556
 20
-31.305796142
 10
53.3328161868
 20
-30.9873071436
 10
52.9496012266
 20
-30.6610218367
 10
52.6355052116
 20
-30.3469264815
 10
52.2684116364
 20
-29.9734368324
 10
51.667470932
 20
-29.1939268112
 10
51.4750871658
 20
-28.9369316101
 10
50.9939002991
 20
-28.0783143044
 10
50.84004879
 20
-27.7965564728
 10
50.4888439178
 20
-26.8770895004
 10
50.3766565323
 20
-26.5763039589
 10
50.1629009247
 20
-25.6155366898
 10
50.0946617126
 20
-25.301846981
 10
50.022901535
 20
-24.3202085495
 10
50
 20
-24
 10
50
 20
-22
 10
50
 20
-20
 10
50.0061073303
 20
-19.7933216095
 10
50.0563812256
 20
-19.2022342682
 10
50.0746822357
 20
-18.9962759018
 10
50.1051139832
 20
-18.7917585373
 10
50.2544879913
 20
-18.2176513672
 10
50.406703949
 20
-17.6488399506
 10
50.6508903503
 20
-17.108206749
 10
50.8963050842
 20
-16.5729608536
 10
51.2282867432
 20
-16.0813312531
 10
51.5599594116
 20
-15.5948019028
 10
51.970199585
 20
-15.1662993431
 10
52.3787384033
 20
-14.7422566414
 10
52.8554534912
 20
-14.3891916275
 10
53.3292980194
 20
-14.0396375656
 10
53.8587913513
 20
-13.7721524239
 10
54.3845291138
 20
-13.5069799423
 10
55.6620750427
 20
-15.3788218498
 10
56.9396209717
 20
-17.2506637573
 10
56.7050323486
 20
-17.2760658264
 10
56.4704437256
 20
-17.3014678955
 10
56.2436523438
 20
-17.3666057587
 10
56.0168609619
 20
-17.4317436218
 10
55.8045463562
 20
-17.5346975327
 10
55.5922317505
 20
-17.6376514435
 10
55.4006462097
 20
-17.7753887177
 10
55.2090606689
 20
-17.9131259918
 10
55.0438461304
 20
-18.0815925598
 10
54.8786315918
 20
-18.2500591278
 10
54.7446517944
 20
-18.4442920685
 10
54.6106719971
 20
-18.6385250092
 10
54.5118751526
 20
-18.8528051376
 10
54.4130783081
 20
-19.0670852661
 10
54.3523712158
 20
-19.2951021194
 10
54.2916641235
 20
-19.5231189728
 10
54.2708358765
 20
-19.7581567764
 10
54.2500076294
 20
-19.9931945801
 10
54.2696723938
 20
-20.2283334732
 10
54.2893371582
 20
-20.4634723663
 10
54.3489151001
 20
-20.6917867661
 10
54.408493042
 20
-20.9201011658
 10
54.5062294006
 20
-21.1348676682
 10
54.6039657593
 20
-21.3496341705
 10
54.7369823456
 20
-21.5445280075
 10
54.8699989319
 20
-21.7394218445
 10
55.0343780518
 20
-21.9087028503
 10
55.1987571716
 20
-22.0779838562
 10
55.3896579742
 20
-22.2166690826
 10
55.5805587769
 20
-22.3553543091
 10
55.7923622131
 20
-22.4593572617
 10
56.0041656494
 20
-22.5633602142
 10
56.2306308746
 20
-22.6296186447
 10
56.4570960999
 20
-22.6958770752
 10
56.6915550232
 20
-22.7224407196
 10
56.9260139465
 20
-22.749004364
 10
57.1615638733
 20
-22.7350902557
 10
57.3971138
 20
-22.7211761475
 10
57.6268157959
 20
-22.6671943665
 10
57.8565177917
 20
-22.6132125854
 10
58.0736064911
 20
-22.5207519531
 10
58.2906951904
 20
-22.4282913208
 10
58.4887809753
 20
-22.3000764847
 10
58.6868667603
 20
-22.1718616486
 10
58.8601131439
 20
-22.0116662979
 10
59.0333595276
 20
-21.8514709473
 10
59.1766662598
 20
-21.6640138626
 10
59.3199729919
 20
-21.476556778
 10
59.4291191101
 20
-21.2673587799
 10
59.5382652283
 20
-21.0581607819
 10
61.8932781219
 20
-24.5086870193
 10
64.2482910156
 20
-27.9592132568
 10
64.4463920593
 20
-28.2052268982
 10
64.644493103
 20
-28.4512405396
 10
64.8788604736
 20
-28.6629981995
 10
65.1132278442
 20
-28.8747558594
 10
65.37800598139999
 20
-29.0469741821
 10
65.64278411870001
 20
-29.2191925049
 10
65.9313774109
 20
-29.347577095
 10
66.2199707031
 20
-29.4759616852
 10
66.52517700200001
 20
-29.5573091507
 10
66.83038330079999
 20
-29.6386566162
 10
67.1445884705
 20
-29.6709394455
 10
67.4587936401
 20
-29.7032222748
 10
67.7741661072
 20
-29.685634613
 10
68.08953857420001
 20
-29.6680469513
 10
84.7418289185
 20
-27.4103355408
 10
101.394119263
 20
-25.1526241302
 10
101.787727356
 20
-25.0664930344
 10
102.181335449
 20
-24.9803619385
 10
102.555992126
 20
-24.832118988
 10
102.930648804
 20
-24.6838760376
 10
103.276630402
 20
-24.4773702621
 10
103.622612
 20
-24.2708644867
 10
103.930923462
 20
-24.0114622116
 10
104.239234924
 20
-23.7520599365
 10
104.501869202
 20
-23.4464979172
 10
104.764503479
 20
-23.1409358978
 10
104.974639893
 20
-22.7971515656
 10
105.184776306
 20
-22.4533672333
 10
105.111183167
 20
-22.5989770889
 10
105.037590027
 20
-22.7445869446
 10
105.242153168
 20
-22.4084892273
 10
105.446716309
 20
-22.07239151
 10
105.701477051
 20
-21.7725515366
 10
105.956237793
 20
-21.4727115631
 10
106.254890442
 20
-21.2165546417
 10
106.553543091
 20
-20.9603977203
 10
106.888683319
 20
-20.7542705536
 10
107.223823547
 20
-20.5481433868
 10
107.587154388
 20
-20.3971509933
 10
107.950485229
 20
-20.2461585999
  0
LWPOLYLINE
  5
5B
100
AcDbEntity
  8
0
  6
ByLayer
 62
    0
370
   -1
100
AcDbPolyline
 90
   72
 70
    1
 43
0
 10
112.229110718
 20
-24.7612333298
 10
112.208221436
 20
-24.5224666595
 10
112.146186829
 20
-24.2909555435
 10
112.084152222
 20
-24.0594444275
 10
111.982860565
 20
-23.8422222137
 10
111.881568909
 20
-23.625
 10
111.744094849
 20
-23.4286670685
 10
111.606620789
 20
-23.232334137
 10
111.437145233
 20
-23.0628557205
 10
111.267669678
 20
-22.8933773041
 10
111.071334839
 20
-22.7559041977
 10
110.875
 20
-22.6184310913
 10
110.657775879
 20
-22.5171384811
 10
110.440551758
 20
-22.415845871
 10
110.209041595
 20
-22.3538122177
 10
109.977531433
 20
-22.2917785645
 10
109.738765717
 20
-22.2708892822
 10
109.5
 20
-22.25
 10
109.261234283
 20
-22.2708892822
 10
109.022468567
 20
-22.2917785645
 10
108.790958405
 20
-22.3538122177
 10
108.559448242
 20
-22.415845871
 10
108.342224121
 20
-22.5171384811
 10
108.125
 20
-22.6184310913
 10
107.928665161
 20
-22.7559041977
 10
107.732330322
 20
-22.8933773041
 10
107.562854767
 20
-23.0628557205
 10
107.393379211
 20
-23.232334137
 10
107.255905151
 20
-23.4286670685
 10
107.118431091
 20
-23.625
 10
107.017139435
 20
-23.8422222137
 10
106.915847778
 20
-24.0594444275
 10
106.853813171
 20
-24.2909555435
 10
106.791778564
 20
-24.5224666595
 10
106.770889282
 20
-24.7612333298
 10
106.75
 20
-25
 10
106.770889282
 20
-25.2387666702
 10
106.791778564
 20
-25.4775333405
 10
106.853813171
 20
-25.7090444565
 10
106.915847778
 20
-25.9405555725
 10
107.017139435
 20
-26.1577777863
 10
107.118431091
 20
-26.375
 10
107.255905151
 20
-26.5713329315
 10
107.393379211
 20
-26.767665863
 10
107.562854767
 20
-26.9371442795
 10
107.732330322
 20
-27.1066226959
 10
107.928665161
 20
-27.2440958023
 10
108.125
 20
-27.3815689087
 10
108.342224121
 20
-27.4828615189
 10
108.559448242
 20
-27.584154129
 10
108.790958405
 20
-27.6461877823
 10
109.022468567
 20
-27.7082214355
 10
109.261234283
 20
-27.7291107178
 10
109.5
 20
-27.75
 10
109.738765717
 20
-27.7291107178
 10
109.977531433
 20
-27.7082214355
 10
110.209041595
 20
-27.6461877823
 10
110.440551758
 20
-27.584154129
 10
110.657775879
 20
-27.4828615189
 10
110.875
 20
-27.3815689087
 10
111.071334839
 20
-27.2440958023
 10
111.267669678
 20
-27.1066226959
 10
111.437145233
 20
-26.9371442795
 10
111.606620789
 20
-26.767665863
 10
111.744094849
 20
-26.5713329315
 10
111.881568909
 20
-26.375
 10
111.982860565
 20
-26.1577777863
 10
112.084152222
 20
-25.9405555725
 10
112.146186829
 20
-25.7090444565
 10
112.208221436
 20
-25.4775333405
 10
112.229110718
 20
-25.2387666702
 10
112.25
 20
-25
  0
ENDBLK
  5
59
330
57
100
AcDbEntity
  8
0
100
AcDbBlockEnd
  0
ENDSEC
  0
SECTION
  2
ENTITIES
  0
LINE
  5
5C
100
AcDbEntity
  8
0
  6
ByLayer
 62
    0
370
   -1
100
AcDbLine
 10
8.359582901000003
 20
-2.9541969299
 11
9
 21
-3
  0
LINE
  5
5D
100
AcDbEntity
  8
0
  6
ByLayer
 62
    0
370
   -1
100
AcDbLine
 10
9
 20
-3
 11
35.46286773680001
 21
-3
  0
LINE
  5
5E
100
AcDbEntity
  8
0
  6
ByLayer
 62
    0
370
   -1
100
AcDbLine
 10
35.46286773680001
 20
-3
 11
61.92573547400001
 21
-3
  0
LINE
  5
5F
100
AcDbEntity
  8
0
  6
ByLayer
 62
    0
370
   -1
100
AcDbLine
 10
61.92573547400001
 20
-3
 11
62.323360439
 21
-2.978859901699998
  0
LINE
  5
60
100
AcDbEntity
  8
0
  6
ByLayer
 62
    0
370
   -1
100
AcDbLine
 10
62.323360439
 20
-2.978859901699998
 11
62.4559021
 21
-2.971813201899998
  0
LINE
  5
61
100
AcDbEntity
  8
0
  6
ByLayer
 62
    0
370
   -1
100
AcDbLine
 10
62.4559021
 20
-2.971813201899998
 11
62.88354870800001
 21
-2.888015752599998
  0
LINE
  5
62
100
AcDbEntity
  8
0
  6
ByLayer
 62
    0
370
   -1
100
AcDbLine
 10
62.88354870800001
 20
-2.888015752599998
 11
63.31119537399999
 21
-2.804218292199998
  0
LINE
  5
63
100
AcDbEntity
  8
0
  6
ByLayer
 62
    0
370
   -1
100
AcDbLine
 10
63.31119537399999
 20
-2.804218292199998
 11
63.717792484
 21
-2.647434245100001
  0
LINE
  5
64
100
AcDbEntity
  8
0
  6
ByLayer
 62
    0
370
   -1
100
AcDbLine
 10
63.717792484
 20
-2.647434245100001
 11
64.124389648
 21
-2.490650176999999
  0
LINE
  5
65
100
AcDbEntity
  8
0
  6
ByLayer
 62
    0
370
   -1
100
AcDbLine
 10
64.124389648
 20
-2.490650176999999
 11
64.49758527199999
 21
-2.265642181099999
  0
LINE
  5
66
100
AcDbEntity
  8
0
  6
ByLayer
 62
    0
370
   -1
100
AcDbLine
 10
64.49758527199999
 20
-2.265642181099999
 11
64.87078094500001
 21
-2.040634155299998
  0
LINE
  5
67
100
AcDbEntity
  8
0
  6
ByLayer
 62
    0
370
   -1
100
AcDbLine
 10
64.87078094500001
 20
-2.040634155299998
 11
64.88815627300001
 21
-2.027786592299996
  0
LINE
  5
68
100
AcDbEntity
  8
0
  6
ByLayer
 62
    0
370
   -1
100
AcDbLine
 10
64.88815627300001
 20
-2.027786592299996
 11
64.92573547400001
 21
-2
  0
LINE
  5
69
100
AcDbEntity
  8
0
  6
ByLayer
 62
    0
370
   -1
100
AcDbLine
 10
64.92573547400001
 20
-2
 11
49.9135246277
 21
-2
  0
LINE
  5
6A
100
AcDbEntity
  8
0
  6
ByLayer
 62
    0
370
   -1
100
AcDbLine
 10
49.9135246277
 20
-2
 11
34.9013137817
 21
-2
  0
LINE
  5
6B
100
AcDbEntity
  8
0
  6
ByLayer
 62
    0
370
   -1
100
AcDbLine
 10
34.9013137817
 20
-2
 11
19.8891048431
 21
-2
  0
LINE
  5
6C
100
AcDbEntity
  8
0
  6
ByLayer
 62
    0
370
   -1
100
AcDbLine
 10
19.8891048431
 20
-2
 11
4.876895904500003
 21
-2
  0
LINE
  5
6D
100
AcDbEntity
  8
0
  6
ByLayer
 62
    0
370
   -1
100
AcDbLine
 10
4.876895904500003
 20
-2
 11
5.095046997099999
 21
-2.108718872099999
  0
LINE
  5
6E
100
AcDbEntity
  8
0
  6
ByLayer
 62
    0
370
   -1
100
AcDbLine
 10
5.095046997099999
 20
-2.108718872099999
 11
6.347202301000003
 21
-2.600154876700003
  0
LINE
  5
6F
100
AcDbEntity
  8
0
  6
ByLayer
 62
    0
370
   -1
100
AcDbLine
 10
6.347202301000003
 20
-2.600154876700003
 11
7.658618926999999
 21
-2.899478912399999
  0
LINE
  5
70
100
AcDbEntity
  8
0
  6
ByLayer
 62
    0
370
   -1
100
AcDbLine
 10
7.658618926999999
 20
-2.899478912399999
 11
8.359582901000003
 21
-2.9541969299
  0
INSERT
  5
71
100
AcDbEntity
  8
1
  6
ByLayer
 62
    0
370
   -1
100
AcDbBlockReference
  2
FRONT_BUMPER001_CS001
 10
-50
 20
30
 30
0
 41
1
 42
1
 43
0
 50
0
 70
    1
 71
    1
 44
0
 45
0
  0
LWPOLYLINE
  5
72
100
AcDbEntity
  8
2
  6
ByLayer
 62
    0
370
   -1
100
AcDbPolyline
 90
  119
 70
    1
 43
0
 10
64.5
 20
6
 10
64.5
 20
8
 10
64.5
 20
10
 10
64.871925354
 20
10
 10
65.243850708
 20
10
 10
65.274320602
 20
9.997508049000004
 10
65.28454875
 20
9.996439815400009
 10
65.28726196300001
 20
9.996202468900009
 10
65.31883044
 20
9.987742437500003
 10
65.329353333
 20
9.984922409099994
 10
65.358976317
 20
9.9711108427
 10
65.368850708
 20
9.966506957999997
 10
65.395624118
 20
9.947760134899994
 10
65.40454864500001
 20
9.941511154199986
 10
65.427659952
 20
9.918399847500012
 10
65.43536377
 20
9.910696029700006
 10
65.45410916199999
 20
9.88392404999999
 10
65.46035766599999
 20
9.875
 10
65.474170663
 20
9.845378446000012
 10
65.478775024
 20
9.8355045319
 10
65.487232195
 20
9.803934624299984
 10
65.49005127
 20
9.793411254900008
 10
65.490989684
 20
9.786658536200008
 10
65.49151102800001
 20
9.782907004399988
 10
65.492553711
 20
9.775403976400014
 10
65.706363678
 20
8.160399436999995
 10
65.777633667
 20
7.622064590500003
 10
65.88087272600001
 20
7.088936805700001
 10
66.190589905
 20
5.489553451500001
 10
66.325429916
 20
4.963529109999996
 10
66.72994995099999
 20
3.385456085199991
 10
66.85310554500001
 20
2.76713323589999
 10
66.89480972299999
 20
2.555128097499988
 10
66.912639618
 20
1.924910545300008
 10
66.917211533
 20
1.708890438100013
 10
66.82920646700001
 20
1.084593772900007
 10
66.796508789
 20
0.8710136413999976
 10
66.605157852
 20
0.2702832221999927
 10
66.53616905200001
 20
0.06552457809999623
 10
66.47277022
 20
-0.05697545059999243
 10
66.171410283
 20
-0.6405444009999997
 10
66.098391827
 20
-0.7463753771999961
 10
65.692044208
 20
-1.286465361900014
 10
65.61149550099999
 20
-1.376031134699986
 10
65.11014876199999
 20
-1.850116201800006
 10
65.023925781
 20
-1.924046198500008
 10
64.441497803
 20
-2.313285191900007
 10
64.38135705800001
 20
-2.352548644600006
 10
64.329283249
 20
-2.383945109899997
 10
63.615526774
 20
-2.703382537099998
 10
63.558792293
 20
-2.725259381400008
 10
62.80160149699999
 20
-2.920607367599985
 10
62.741929876
 20
-2.932300035200001
 10
61.962723841
 20
-2.998033479300005
 10
61.944229658
 20
-2.999016739599995
 10
61.92573547400001
 20
-3
 10
60.694904416
 20
-3
 10
9
 20
-3
 10
7.748952643800003
 20
-2.9105242352
 10
7.716349668299998
 20
-2.907979211099985
 10
6.519953528099997
 20
-2.6477180304
 10
6.458957406000003
 20
-2.633795982200013
 10
5.311773522000003
 20
-2.205918511699991
 10
5.253533740400002
 20
-2.183061023100009
 10
5.197203318299998
 20
-2.155572891199995
 10
4.258008956899999
 20
-1.642734527599998
 10
4.139682618099997
 20
-1.574769109399995
 10
4.008910063499997
 20
-1.482786336099991
 10
3.181775113999997
 20
-0.8635999601000037
 10
3.054036793900003
 20
-0.7548381912000082
 10
2.344004158300002
 20
-0.04480704700000615
 10
2.221639633199999
 20
0.07968950270000619
 10
2.021326065099998
 20
0.3395261764999873
 10
1.444174766499998
 20
1.110511779799992
 10
1.283779144299999
 20
1.396717548400005
 10
0.8222246170000034
 20
2.241991043100001
 10
0.7051563262999991
 20
2.548480033900006
 10
0.3685941696000015
 20
3.450836658500009
 10
0.2973423003999969
 20
3.771092414900011
 10
0.09262466429999705
 20
4.712161541
 10
0.06870460510000242
 20
5.039374351499987
 10
0
 20
6
 10
0
 20
8
 10
0
 20
10.68251037600001
 10
0
 20
11.36502075199999
 10
0.05484008789999706
 20
11.29966449739999
 10
3.549150466900002
 20
7.135306358299999
 10
6.988620758099998
 20
3.036304473900003
 10
7.418928146399999
 20
2.59329605100001
 10
7.8492355347
 20
2.150287628200005
 10
8.3392047882
 20
1.774320602399996
 10
8.8291740417
 20
1.398353576700003
 10
9.368459701500001
 20
1.097368240399987
 10
9.907745361300002
 20
0.7963829040999997
 10
10.4849586487
 20
0.5767364502000021
 10
11.062171936
 20
0.3570899963000045
 10
11.6651248932
 20
0.2234182358000112
 10
12.2680778503
 20
0.0897464752000019
 10
12.8840389252
 20
0.04487323760000095
 10
13.5
 20
0
 10
36
 20
0
 10
58.5
 20
0
 10
59.02094268800001
 20
0.04557704929999318
 10
59.541885376
 20
0.09115409849999878
 10
60.0470047
 20
0.2264995575000057
 10
60.552124023
 20
0.3618450165000127
 10
61.026062012
 20
0.582846641499998
 10
61.5
 20
0.8038482665999993
 10
61.9283638
 20
1.103791236900008
 10
62.3567276
 20
1.403734207199989
 10
62.72649765
 20
1.773504257199988
 10
63.0962677
 20
2.143274307300004
 10
63.396209717
 20
2.571637153599994
 10
63.69615173299999
 20
3
 10
63.917152405
 20
3.473939895600012
 10
64.13815307599999
 20
3.947879791300011
 10
64.273498535
 20
4.452995300299989
 10
64.40884399399999
 20
4.958110809299995
 10
64.454421997
 20
5.479055404700006
  0
LWPOLYLINE
  5
73
100
AcDbEntity
  8
4
  6
ByLayer
 62
    0
370
   -1
100
AcDbPolyline
 90
   38
 70
    1
 43
0
 10
17.5
 20
2.415738985500013
 10
17.5
 20
0.01915243190001092
 10
17.5
 20
0.01648543969997718
 10
17.5
 20
0
 10
17.4824940499
 20
-0.01750595009997369
 10
17.4659492521
 20
-0.03405068979998305
 10
15.5404869935
 20
-1.959512918899975
 10
15.5192027061
 20
-1.980797383399988
 10
15.5
 20
-2
 10
-14.01082117839
 20
-2
 10
-15.5
 20
-2
 10
-15.51920261664
 20
-1.980797383399988
 10
-15.54048705924001
 20
-1.959512918899975
 10
-17.46594929568001
 20
-0.03405068979998305
 10
-17.48249403568001
 20
-0.01750595009997369
 10
-17.5
 20
0
 10
-17.5
 20
0.01648543969997718
 10
-17.5
 20
0.01915243190001092
 10
-17.5
 20
2.415738985500013
 10
-18.42296381507001
 20
2.415738985500013
 10
-19.5
 20
2.415738985500013
 10
-19.5
 20
0.5037577420000048
 10
-19.5
 20
0.214357530299992
 10
-19.5
 20
0
 10
-20.38706666666999
 20
0
 10
-21.5
 20
0
 10
-21.5
 20
-1.2364706372
 10
-21.5
 20
-3
 10
-1.628060751800007
 20
-3
 10
21.5
 20
-3
 10
21.5
 20
-1.2364706372
 10
21.5
 20
0
 10
20.6129333333
 20
0
 10
19.5
 20
0
 10
19.5
 20
0.214357530299992
 10
19.5
 20
0.5037577420000048
 10
19.5
 20
2.415738985500013
 10
18.5770361849
 20
2.415738985500013
  0
CIRCLE
  5
74
100
AcDbEntity
  8
1-1
  6
ByLayer
 62
  256
370
   -1
100
AcDbCircle
 10
59.5
 20
5
 40
2.75
  0
LINE
  5
75
100
AcDbEntity
  8
1-1
  6
ByLayer
 62
  256
370
   -1
100
AcDbLine
 10
65.777633667
 20
7.622064590499999
 11
65.48582236592937
 21
9.826248906553401
  0
ARC
  5
76
100
AcDbEntity
  8
1-1
  6
ByLayer
 62
  256
370
   -1
100
AcDbCircle
 10
65.28755236087376
 20
9.800000000000001
 40
0.2
100
AcDbArc
 50
7.541515015062658
 51
90
  0
LINE
  5
77
100
AcDbEntity
  8
1-1
  6
ByLayer
 62
  256
370
   -1
100
AcDbLine
 10
59.50000109319531
 20
10
 11
65.28755236087376
 21
10
  0
ARC
  5
78
100
AcDbEntity
  8
1-1
  6
ByLayer
 62
  256
370
   -1
100
AcDbCircle
 10
17.31326515392371
 20
3.758727913416428
 40
3.5
100
AcDbArc
 50
214.3138412255793
 51
277.721061346266
  0
LINE
  5
79
100
AcDbEntity
  8
1-1
  6
ByLayer
 62
  256
370
   -1
100
AcDbLine
 10
51.65486441591634
 20
4.882727601892685
 11
17.78349173491193
 21
0.2904593306027898
  0
ARC
  5
7A
100
AcDbEntity
  8
1-1
  6
ByLayer
 62
  256
370
   -1
100
AcDbCircle
 10
59.5
 20
5
 40
5
100
AcDbArc
 50
90
 51
152.8033920876006
  0
ARC
  5
7B
100
AcDbEntity
  8
1-1
  6
ByLayer
 62
  256
370
   -1
100
AcDbCircle
 10
51.0502873832172
 20
9.341930065510221
 40
4.5
100
AcDbArc
 50
277.7210613462659
 51
332.8033920876006
  0
ARC
  5
7C
100
AcDbEntity
  8
1-1
  6
ByLayer
 62
  256
370
   -1
100
AcDbCircle
 10
7
 20
10
 40
7
100
AcDbArc
 50
111.9402019647506
 51
180
  0
LINE
  5
7D
100
AcDbEntity
  8
1-1
  6
ByLayer
 62
  256
370
   -1
100
AcDbLine
 10
-4.709774237277031e-016
 20
10
 11
-3.767819389821625e-016
 21
6
  0
ARC
  5
7E
100
AcDbEntity
  8
1-1
  6
ByLayer
 62
  256
370
   -1
100
AcDbCircle
 10
9
 20
6
 40
9
100
AcDbArc
 50
180
 51
270
  0
LINE
  5
7F
100
AcDbEntity
  8
1-1
  6
ByLayer
 62
  256
370
   -1
100
AcDbLine
 10
9
 20
-3
 11
61.92343544449696
 21
-3
  0
LINE
  5
80
100
AcDbEntity
  8
1-1
  6
ByLayer
 62
  256
370
   -1
100
AcDbLine
 10
66.76683899835309
 20
3.24154823285031
 11
66.190589905
 21
5.489553451500001
  0
ARC
  5
81
100
AcDbEntity
  8
1-1
  6
ByLayer
 62
  256
370
   -1
100
AcDbCircle
 10
61.92343544449696
 20
2
 40
5
100
AcDbArc
 50
270
 51
14.3775082978448
  0
LINE
  5
82
100
AcDbEntity
  8
1-1
  6
ByLayer
 62
  256
370
   -1
100
AcDbLine
 10
65.777633667
 20
7.622064590499999
 11
66.190589905
 21
5.489553451500001
  0
LINE
  5
83
100
AcDbEntity
  8
1-1
  6
ByLayer
 62
  256
370
   -1
100
AcDbLine
 10
4.384529007700681
 20
16.49302021315511
 11
6.939621917186533
 21
12.74933709957797
  0
LINE
  5
84
100
AcDbEntity
  8
1-1
  6
ByLayer
 62
  256
370
   -1
100
AcDbLine
 10
9.538267281012423
 20
8.941841594967089
 11
14.42239767578842
 21
1.785688323377816
  0
ARC
  5
85
100
AcDbEntity
  8
1-1
  6
ByLayer
 62
  256
370
   -1
100
AcDbCircle
 10
7
 20
10
 40
2.75
100
AcDbArc
 50
91.25806811493283
 51
337.3696143362257
  0
LINE
  5
86
100
AcDbEntity
  8
2-1
  6
ByLayer
 62
  256
370
   -1
100
AcDbLine
 10
65.777633667
 20
7.622064590499999
 11
65.48582236592937
 21
9.826248906553401
  0
ARC
  5
87
100
AcDbEntity
  8
2-1
  6
ByLayer
 62
  256
370
   -1
100
AcDbCircle
 10
65.28755236087376
 20
9.800000000000001
 40
0.2
100
AcDbArc
 50
7.541515015062658
 51
90
  0
ARC
  5
88
100
AcDbEntity
  8
2-1
  6
ByLayer
 62
  256
370
   -1
100
AcDbCircle
 10
9
 20
6
 40
9
100
AcDbArc
 50
180
 51
270
  0
LINE
  5
89
100
AcDbEntity
  8
2-1
  6
ByLayer
 62
  256
370
   -1
100
AcDbLine
 10
9
 20
-3
 11
61.92343544449696
 21
-3
  0
LINE
  5
8A
100
AcDbEntity
  8
2-1
  6
ByLayer
 62
  256
370
   -1
100
AcDbLine
 10
66.76683899835309
 20
3.24154823285031
 11
66.190589905
 21
5.489553451500001
  0
ARC
  5
8B
100
AcDbEntity
  8
2-1
  6
ByLayer
 62
  256
370
   -1
100
AcDbCircle
 10
61.92343544449696
 20
2
 40
5
100
AcDbArc
 50
270
 51
14.3775082978448
  0
LINE
  5
8C
100
AcDbEntity
  8
2-1
  6
ByLayer
 62
  256
370
   -1
100
AcDbLine
 10
65.777633667
 20
7.622064590499999
 11
66.190589905
 21
5.489553451500001
  0
ARC
  5
8D
100
AcDbEntity
  8
2-1
  6
ByLayer
 62
  256
370
   -1
100
AcDbCircle
 10
58.5
 20
6
 40
6
100
AcDbArc
 50
270
 51
0
  0
LINE
  5
8E
100
AcDbEntity
  8
2-1
  6
ByLayer
 62
  256
370
   -1
100
AcDbLine
 10
64.5
 20
10
 11
65.28755236087376
 21
10
  0
LINE
  5
8F
100
AcDbEntity
  8
2-1
  6
ByLayer
 62
  256
370
   -1
100
AcDbLine
 10
64.5
 20
10
 11
64.5
 21
6
  0
LINE
  5
90
100
AcDbEntity
  8
2-1
  6
ByLayer
 62
  256
370
   -1
100
AcDbLine
 10
7.771561172376096e-016
 20
11.365020752
 11
-3.767819389821625e-016
 21
6
  0
LINE
  5
91
100
AcDbEntity
  8
2-1
  6
ByLayer
 62
  256
370
   -1
100
AcDbLine
 10
13.49999781660921
 20
0
 11
58.5
 21
0
  0
LINE
  5
92
100
AcDbEntity
  8
2-1
  6
ByLayer
 62
  256
370
   -1
100
AcDbLine
 10
7.771561172376096e-016
 20
11.365020752
 11
6.98861928054857
 21
3.036306234777726
  0
ARC
  5
93
100
AcDbEntity
  8
2-1
  6
ByLayer
 62
  256
370
   -1
100
AcDbCircle
 10
13.49999781660921
 20
8.5
 40
8.5
100
AcDbArc
 50
219.9999919300153
 51
270
  0
LINE
  5
94
100
AcDbEntity
  8
0-1
  6
ByLayer
 62
  256
370
   -1
100
AcDbLine
 10
9
 20
-3
 11
61.92343544449696
 21
-3
  0
ARC
  5
95
100
AcDbEntity
  8
0-1
  6
ByLayer
 62
  256
370
   -1
100
AcDbCircle
 10
9
 20
6
 40
9
100
AcDbArc
 50
242.7339555492671
 51
270
  0
ARC
  5
96
100
AcDbEntity
  8
0-1
  6
ByLayer
 62
  256
370
   -1
100
AcDbCircle
 10
61.92343544449696
 20
2
 40
5
100
AcDbArc
 50
270
 51
306.8698976458454
  0
LINE
  5
97
100
AcDbEntity
  8
0-1
  6
ByLayer
 62
  256
370
   -1
100
AcDbLine
 10
4.876894374382339
 20
-2
 11
64.92343544449712
 21
-2.000000000000001
  0
LINE
  5
98
100
AcDbEntity
  8
0-2
  6
ByLayer
 62
  256
370
   -1
100
AcDbLine
 10
9
 20
-3
 11
61.92343544449696
 21
-3
  0
LINE
  5
99
100
AcDbEntity
  8
0-2
  6
ByLayer
 62
  256
370
   -1
100
AcDbLine
 10
13.49999781660921
 20
0
 11
58.5
 21
0
  0
ARC
  5
9A
100
AcDbEntity
  8
0-2
  6
ByLayer
 62
  256
370
   -1
100
AcDbCircle
 10
9
 20
6
 40
9
100
AcDbArc
 50
221.8103148957786
 51
270
  0
ARC
  5
9B
100
AcDbEntity
  8
0-2
  6
ByLayer
 62
  256
370
   -1
100
AcDbCircle
 10
61.92343544449696
 20
2
 40
5
100
AcDbArc
 50
270
 51
336.4218215217981
  0
LINE
  5
9C
100
AcDbEntity
  8
0-2
  6
ByLayer
 62
  256
370
   -1
100
AcDbLine
 10
2.291796067500631
 20
-2.287666583944414e-017
 11
66.50601113945277
 21
-1.97758476261356e-016
  0
LINE
  5
9D
100
AcDbEntity
  8
4-1
  6
ByLayer
 62
  256
370
   -1
100
AcDbLine
 10
70
 20
22.41573999999999
 11
70
 21
-20.00000000000001
  0
LINE
  5
9E
100
AcDbEntity
  8
4-1
  6
ByLayer
 62
  256
370
   -1
100
AcDbLine
 10
-21.5
 20
-3
 11
-21.5
 21
0
  0
LINE
  5
9F
100
AcDbEntity
  8
4-1
  6
ByLayer
 62
  256
370
   -1
100
AcDbLine
 10
21.5
 20
0
 11
21.5
 21
-3
  0
LINE
  5
A0
100
AcDbEntity
  8
4-1
  6
ByLayer
 62
  256
370
   -1
100
AcDbLine
 10
-21.5
 20
-3
 11
21.5
 21
-3
  0
LINE
  5
A1
100
AcDbEntity
  8
4-1
  6
ByLayer
 62
  256
370
   -1
100
AcDbLine
 10
-16.5
 20
16.49302021315512
 11
-19.5
 21
16.49302021315511
  0
LINE
  5
A2
100
AcDbEntity
  8
4-1
  6
ByLayer
 62
  256
370
   -1
100
AcDbLine
 10
19.5
 20
16.49302021315511
 11
16.5
 21
16.49302021315511
  0
LINE
  5
A3
100
AcDbEntity
  8
4-1
  6
ByLayer
 62
  256
370
   -1
100
AcDbLine
 10
-16.5
 20
0
 11
-16.5
 21
16.49302021315512
  0
LINE
  5
A4
100
AcDbEntity
  8
4-1
  6
ByLayer
 62
  256
370
   -1
100
AcDbLine
 10
-19.5
 20
0
 11
-19.5
 21
16.49302021315511
  0
LINE
  5
A5
100
AcDbEntity
  8
4-1
  6
ByLayer
 62
  256
370
   -1
100
AcDbLine
 10
16.5
 20
16.49302021315511
 11
16.5
 21
0
  0
LINE
  5
A6
100
AcDbEntity
  8
4-1
  6
ByLayer
 62
  256
370
   -1
100
AcDbLine
 10
19.5
 20
16.49302021315511
 11
19.5
 21
0
  0
LINE
  5
A7
100
AcDbEntity
  8
4-1
  6
ByLayer
 62
  256
370
   -1
100
AcDbLine
 10
19.5
 20
0
 11
21.5
 21
0
  0
LINE
  5
A8
100
AcDbEntity
  8
4-1
  6
ByLayer
 62
  256
370
   -1
100
AcDbLine
 10
-16.5
 20
0
 11
16.5
 21
0
  0
LINE
  5
A9
100
AcDbEntity
  8
4-1
  6
ByLayer
 62
  256
370
   -1
100
AcDbLine
 10
-21.5
 20
0
 11
-19.5
 21
0
  0
ARC
  5
AA
100
AcDbEntity
  8
5
  6
ByLayer
 62
  256
370
   -1
100
AcDbCircle
 10
17.31326515392371
 20
3.758727913416428
 40
3.5
100
AcDbArc
 50
214.3138412255793
 51
277.721061346266
  0
LINE
  5
AB
100
AcDbEntity
  8
5
  6
ByLayer
 62
  256
370
   -1
100
AcDbLine
 10
51.65486441591634
 20
4.882727601892685
 11
17.78349173491193
 21
0.2904593306027898
  0
ARC
  5
AC
100
AcDbEntity
  8
5
  6
ByLayer
 62
  256
370
   -1
100
AcDbCircle
 10
59.5
 20
5
 40
5
100
AcDbArc
 50
90
 51
152.8033920876006
  0
ARC
  5
AD
100
AcDbEntity
  8
5
  6
ByLayer
 62
  256
370
   -1
100
AcDbCircle
 10
51.0502873832172
 20
9.341930065510221
 40
4.5
100
AcDbArc
 50
277.7210613462659
 51
332.8033920876006
  0
CIRCLE
  5
AE
100
AcDbEntity
  8
5
  6
ByLayer
 62
  256
370
   -1
100
AcDbCircle
 10
59.5
 20
5
 40
2.5
  0
LINE
  5
AF
100
AcDbEntity
  8
5
  6
ByLayer
 62
  256
370
   -1
100
AcDbLine
 10
9.36639507975036
 20
9.193666119691551
 11
14.42239767578842
 21
1.785688323377816
  0
ARC
  5
B0
100
AcDbEntity
  8
5
  6
ByLayer
 62
  256
370
   -1
100
AcDbCircle
 10
7
 20
10
 40
2.5
100
AcDbArc
 50
87.44389522345995
 51
341.1837872276985
  0
LINE
  5
B1
100
AcDbEntity
  8
5
  6
ByLayer
 62
  256
370
   -1
100
AcDbLine
 10
4.721019146595516
 20
16
 11
7.111494118448602
 21
12.4975125748535
  0
LINE
  5
B2
100
AcDbEntity
  8
5
  6
ByLayer
 62
  256
370
   -1
100
AcDbLine
 10
0
 20
16
 11
4.721019146595516
 21
16
  0
LINE
  5
B3
100
AcDbEntity
  8
5
  6
ByLayer
 62
  256
370
   -1
100
AcDbLine
 10
59.50000109319531
 20
10
 11
66
 21
10
  0
LINE
  5
B4
100
AcDbEntity
  8
5-1
  6
ByLayer
 62
  256
370
   -1
100
AcDbLine
 10
13.49999781660921
 20
0
 11
58.5
 21
0
  0
LINE
  5
B5
100
AcDbEntity
  8
5-1
  6
ByLayer
 62
  256
370
   -1
100
AcDbLine
 10
7.771561172376096e-016
 20
11.365020752
 11
6.98861928054857
 21
3.036306234777726
  0
ARC
  5
B6
100
AcDbEntity
  8
5-1
  6
ByLayer
 62
  256
370
   -1
100
AcDbCircle
 10
13.49999781660921
 20
8.5
 40
8.5
100
AcDbArc
 50
219.9999919300153
 51
270
  0
LINE
  5
B7
100
AcDbEntity
  8
5
  6
ByLayer
 62
  256
370
   -1
100
AcDbLine
 10
0
 20
-2.5
 11
66
 21
-2.5
  0
LINE
  5
B8
100
AcDbEntity
  8
5
  6
ByLayer
 62
  256
370
   -1
100
AcDbLine
 10
-1.10214571844014e-015
 20
-8.5
 11
66
 21
-8.5
  0
LINE
  5
B9
100
AcDbEntity
  8
5
  6
ByLayer
 62
  256
370
   -1
100
AcDbLine
 10
66
 20
10
 11
66
 21
-11
  0
LINE
  5
BA
100
AcDbEntity
  8
5
  6
ByLayer
 62
  256
370
   -1
100
AcDbLine
 10
0
 20
16
 11
-1.710226114820906e-015
 21
-11
  0
LINE
  5
BB
100
AcDbEntity
  8
5
  6
ByLayer
 62
  256
370
   -1
100
AcDbLine
 10
-1.710226114820906e-015
 20
-11
 11
66
 21
-11
  0
LINE
  5
BC
100
AcDbEntity
  8
5-1
  6
ByLayer
 62
  256
370
   -1
100
AcDbLine
 10
-1.710226114820906e-015
 20
-11
 11
66
 21
-11
  0
ARC
  5
BD
100
AcDbEntity
  8
5-1
  6
ByLayer
 62
  256
370
   -1
100
AcDbCircle
 10
58.5
 20
6
 40
6
100
AcDbArc
 50
270
 51
330.0000000000001
  0
LINE
  5
BE
100
AcDbEntity
  8
5-1
  6
ByLayer
 62
  256
370
   -1
100
AcDbLine
 10
63.69615242270664
 20
2.999999999999999
 11
66
 21
3
  0
LINE
  5
BF
100
AcDbEntity
  8
5-1
  6
ByLayer
 62
  256
370
   -1
100
AcDbLine
 10
7.771561172376096e-016
 20
11.365020752
 11
-1.710226114820906e-015
 21
-11
  0
LINE
  5
C0
100
AcDbEntity
  8
5-1
  6
ByLayer
 62
  256
370
   -1
100
AcDbLine
 10
66
 20
-11
 11
66
 21
3
  0
ENDSEC
  0
SECTION
  2
OBJECTS
  0
DICTIONARY
  5
C
330
0
100
AcDbDictionary
281
    1
  3
ACAD_GROUP
350
D
  0
DICTIONARY
  5
D
330
C
100
AcDbDictionary
281
    1
  0
ENDSEC
  0
EOF
