999
dxfrw 0.6.3
  0
SECTION
  2
HEADER
  9
$ACADVER
  1
AC1021
  9
$DWGCODEPAGE
  3
ANSI_1252
  9
$INSBASE
 10
0
 20
0
 30
0
  9
$EXTMIN
 10
-10.38136959080001
 20
-10.3813695908
 30
0
  9
$EXTMAX
 10
22.6186294556
 20
22.6186294556
 30
0
  9
$LIMMIN
 10
0
 20
0
  9
$LIMMAX
 10
420
 20
297
  9
$ORTHOMODE
 70
    0
  9
$REGENMODE
 70
    1
  9
$FILLMODE
 70
    1
  9
$QTEXTMODE
 70
    0
  9
$MIRRTEXT
 70
    0
  9
$LTSCALE
 40
1
  9
$ATTMODE
 70
    0
  9
$TEXTSIZE
 40
2.5
  9
$TRACEWID
 40
15.68
  9
$TEXTSTYLE
  7
STANDARD
  9
$CLAYER
  8
LED Mount 1
  9
$CELTYPE
  6
BYLAYER
  9
$CECOLOR
 62
  256
  9
$CELTSCALE
 40
1
  9
$DISPSILH
 70
    0
  9
$DIMSCALE
 40
2.5
  9
$DIMASZ
 40
2.5
  9
$DIMEXO
 40
0.625
  9
$DIMDLI
 40
3.75
  9
$DIMRND
 40
0
  9
$DIMDLE
 40
0
  9
$DIMEXE
 40
1.25
  9
$DIMTP
 40
0
  9
$DIMTM
 40
0
  9
$DIMTXT
 40
2.5
  9
$DIMCEN
 40
2.5
  9
$DIMTSZ
 40
0
  9
$DIMTOL
 70
    0
  9
$DIMLIM
 70
    0
  9
$DIMTIH
 70
    0
  9
$DIMTOH
 70
    0
  9
$DIMSE1
 70
    0
  9
$DIMSE2
 70
    0
  9
$DIMTAD
 70
    1
  9
$DIMZIN
 70
    8
  9
$DIMBLK
  1

  9
$DIMASO
 70
    1
  9
$DIMSHO
 70
    1
  9
$DIMPOST
  1

  9
$DIMAPOST
  1

  9
$DIMALT
 70
    0
  9
$DIMALTD
 70
    3
  9
$DIMALTF
 40
0.03937
  9
$DIMLFAC
 40
1
  9
$DIMTOFL
 70
    1
  9
$DIMTVP
 40
0
  9
$DIMTIX
 70
    0
  9
$DIMSOXD
 70
    0
  9
$DIMSAH
 70
    0
  9
$DIMBLK1
  1

  9
$DIMBLK2
  1

  9
$DIMSTYLE
  2
Standard
  9
$DIMCLRD
 70
    0
  9
$DIMCLRE
 70
    0
  9
$DIMCLRT
 70
    0
  9
$DIMTFAC
 40
1
  9
$DIMGAP
 40
0.625
  9
$DIMJUST
 70
    0
  9
$DIMSD1
 70
    0
  9
$DIMSD2
 70
    0
  9
$DIMTOLJ
 70
    0
  9
$DIMTZIN
 70
    8
  9
$DIMALTZ
 70
    0
  9
$DIMALTTZ
 70
    0
  9
$DIMUPT
 70
    0
  9
$DIMDEC
 70
    2
  9
$DIMTDEC
 70
    2
  9
$DIMALTU
 70
    2
  9
$DIMALTTD
 70
    3
  9
$DIMTXSTY
  7
STANDARD
  9
$DIMAUNIT
 70
    0
  9
$DIMADEC
 70
    0
  9
$DIMALTRND
 40
0
  9
$DIMAZIN
 70
    0
  9
$DIMDSEP
 70
   44
  9
$DIMATFIT
 70
    3
  9
$DIMFRAC
 70
    0
  9
$DIMLDRBLK
  1
STANDARD
  9
$DIMLUNIT
 70
    2
  9
$DIMLWD
 70
   -2
  9
$DIMLWE
 70
   -2
  9
$DIMTMOVE
 70
    0
  9
$DIMFXL
 40
1
  9
$DIMFXLON
 70
    0
  9
$DIMJOGANG
 40
0.7854
  9
$DIMTFILL
 70
    0
  9
$DIMTFILLCLR
 70
    0
  9
$DIMARCSYM
 70
    0
  9
$DIMLTYPE
  6

  9
$DIMLTEX1
  6

  9
$DIMLTEX2
  6

  9
$LUNITS
 70
    2
  9
$LUPREC
 70
    4
  9
$SKETCHINC
 40
1
  9
$FILLETRAD
 40
0
  9
$AUNITS
 70
    0
  9
$AUPREC
 70
    2
  9
$MENU
  1
.
  9
$ELEVATION
 40
0
  9
$PELEVATION
 40
0
  9
$THICKNESS
 40
0
  9
$LIMCHECK
 70
    0
  9
$CHAMFERA
 40
0
  9
$CHAMFERB
 40
0
  9
$CHAMFERC
 40
0
  9
$CHAMFERD
 40
0
  9
$SKPOLY
 70
    0
  9
$USRTIMER
 70
    1
  9
$ANGBASE
 50
0
  9
$ANGDIR
 70
    0
  9
$PDMODE
 70
   34
  9
$PDSIZE
 40
0
  9
$PLINEWID
 40
0
  9
$SPLFRAME
 70
    0
  9
$SPLINETYPE
 70
    2
  9
$SPLINESEGS
 70
    8
  9
$HANDSEED
  5
20000
  9
$SURFTAB1
 70
    6
  9
$SURFTAB2
 70
    6
  9
$SURFTYPE
 70
    6
  9
$SURFU
 70
    6
  9
$SURFV
 70
    6
  9
$UCSBASE
  2

  9
$UCSNAME
  2

  9
$UCSORG
 10
0
 20
0
 30
0
  9
$UCSXDIR
 10
1
 20
0
 30
0
  9
$UCSYDIR
 10
0
 20
1
 30
0
  9
$UCSORTHOREF
  2

  9
$UCSORTHOVIEW
 70
    0
  9
$UCSORGTOP
 10
0
 20
0
 30
0
  9
$UCSORGBOTTOM
 10
0
 20
0
 30
0
  9
$UCSORGLEFT
 10
0
 20
0
 30
0
  9
$UCSORGRIGHT
 10
0
 20
0
 30
0
  9
$UCSORGFRONT
 10
0
 20
0
 30
0
  9
$UCSORGBACK
 10
0
 20
0
 30
0
  9
$PUCSBASE
  2

  9
$PUCSNAME
  2

  9
$PUCSORG
 10
0
 20
0
 30
0
  9
$PUCSXDIR
 10
1
 20
0
 30
0
  9
$PUCSYDIR
 10
0
 20
1
 30
0
  9
$PUCSORTHOREF
  2

  9
$PUCSORTHOVIEW
 70
    0
  9
$PUCSORGTOP
 10
0
 20
0
 30
0
  9
$PUCSORGBOTTOM
 10
0
 20
0
 30
0
  9
$PUCSORGLEFT
 10
0
 20
0
 30
0
  9
$PUCSORGRIGHT
 10
0
 20
0
 30
0
  9
$PUCSORGFRONT
 10
0
 20
0
 30
0
  9
$PUCSORGBACK
 10
0
 20
0
 30
0
  9
$USERI1
 70
    0
  9
$USERI2
 70
    0
  9
$USERI3
 70
    0
  9
$USERI4
 70
    0
  9
$USERI5
 70
    0
  9
$USERR1
 40
0
  9
$USERR2
 40
0
  9
$USERR3
 40
0
  9
$USERR4
 40
0
  9
$USERR5
 40
0
  9
$WORLDVIEW
 70
    1
  9
$SHADEDGE
 70
    3
  9
$SHADEDIF
 70
   70
  9
$TILEMODE
 70
    1
  9
$MAXACTVP
 70
   64
  9
$PINSBASE
 10
0
 20
0
 30
0
  9
$PLIMCHECK
 70
    0
  9
$PEXTMIN
 10
0
 20
0
 30
0
  9
$PEXTMAX
 10
0
 20
0
 30
0
  9
$PLIMMIN
 10
0
 20
0
  9
$PLIMMAX
 10
297
 20
210
  9
$UNITMODE
 70
    0
  9
$VISRETAIN
 70
    1
  9
$PLINEGEN
 70
    0
  9
$PSLTSCALE
 70
    1
  9
$TREEDEPTH
 70
 3020
  9
$CMLSTYLE
  2
Standard
  9
$CMLJUST
 70
    0
  9
$CMLSCALE
 40
20
  9
$PROXYGRAPHICS
 70
    1
  9
$MEASUREMENT
 70
    1
  9
$CELWEIGHT
370
   -1
  9
$ENDCAPS
280
    0
  9
$JOINSTYLE
280
    0
  9
$LWDISPLAY
290
    0
  9
$INSUNITS
 70
    0
  9
$HYPERLINKBASE
  1

  9
$STYLESHEET
  1

  9
$XEDIT
290
    1
  9
$CEPSNTYPE
380
    0
  9
$PSTYLEMODE
290
    1
  9
$EXTNAMES
290
    1
  9
$PSVPSCALE
 40
0
  9
$OLESTARTUP
290
    0
  9
$SORTENTS
280
  127
  9
$INDEXCTL
280
    0
  9
$HIDETEXT
280
    1
  9
$XCLIPFRAME
290
    0
  9
$HALOGAP
280
    0
  9
$OBSCOLOR
 70
  257
  9
$OBSLTYPE
280
    0
  9
$INTERSECTIONDISPLAY
280
    0
  9
$INTERSECTIONCOLOR
 70
  257
  9
$DIMASSOC
280
    1
  9
$PROJECTNAME
  1

  9
$CAMERADISPLAY
290
    0
  9
$LENSLENGTH
 40
50
  9
$CAMERAHEIGHT
 40
0
  9
$STEPSPERSEC
 40
2
  9
$STEPSIZE
 40
50
  9
$3DDWFPREC
 40
2
  9
$PSOLWIDTH
 40
5
  9
$PSOLHEIGHT
 40
80
  9
$LOFTANG1
 40
1.570796326794897
  9
$LOFTANG2
 40
1.570796326794897
  9
$LOFTMAG1
 40
0
  9
$LOFTMAG2
 40
0
  9
$LOFTPARAM
 70
    7
  9
$LOFTNORMALS
280
    1
  9
$LATITUDE
 40
1
  9
$LONGITUDE
 40
1
  9
$NORTHDIRECTION
 40
0
  9
$TIMEZONE
 70
-8000
  9
$LIGHTGLYPHDISPLAY
280
    1
  9
$TILEMODELIGHTSYNCH
280
    1
  9
$SOLIDHIST
280
    1
  9
$SHOWHIST
280
    1
  9
$DWFFRAME
280
    2
  9
$DGNFRAME
280
    0
  9
$REALWORLDSCALE
290
    1
  9
$INTERFERECOLOR
 62
    1
  9
$CSHADOW
280
    0
  9
$SHADOWPLANELOCATION
 40
0
  0
ENDSEC
  0
SECTION
  2
CLASSES
  0
ENDSEC
  0
SECTION
  2
TABLES
  0
TABLE
  2
VPORT
  5
8
330
0
100
AcDbSymbolTable
 70
    1
  0
VPORT
  5
31
330
2
100
AcDbSymbolTableRecord
100
AcDbViewportTableRecord
  2
*ACTIVE
 70
    0
 10
0
 20
0
 11
1
 21
1
 12
24
 22
31.125
 13
0
 23
0
 14
10
 24
10
 15
10
 25
10
 16
0
 26
0
 36
1
 17
0
 27
0
 37
0
 40
96.25
 41
0.7662337662337663
 42
50
 43
0
 44
0
 50
0
 51
0
 71
    0
 72
  100
 73
    1
 74
    3
 75
    0
 76
    1
 77
    0
 78
    0
281
    0
 65
    1
110
0
120
0
130
0
111
1
121
0
131
0
112
0
122
1
132
0
 79
    0
146
0
348
10020
 60
    7
 61
    5
292
1
282
    1
141
0
142
0
 63
  250
421
3358443
  0
ENDTAB
  0
TABLE
  2
LTYPE
  5
5
330
0
100
AcDbSymbolTable
 70
    4
  0
LTYPE
  5
14
330
5
100
AcDbSymbolTableRecord
100
AcDbLinetypeTableRecord
  2
ByBlock
 70
    0
  3

 72
   65
 73
    0
 40
0
  0
LTYPE
  5
15
330
5
100
AcDbSymbolTableRecord
100
AcDbLinetypeTableRecord
  2
ByLayer
 70
    0
  3

 72
   65
 73
    0
 40
0
  0
LTYPE
  5
16
330
5
100
AcDbSymbolTableRecord
100
AcDbLinetypeTableRecord
  2
Continuous
 70
    0
  3
Solid line
 72
   65
 73
    0
 40
0
  0
LTYPE
  5
32
330
5
100
AcDbSymbolTableRecord
100
AcDbLinetypeTableRecord
  2
DOT
 70
    0
  3
Dot . . . . . . . . . . . . . . . . . . . . . .
 72
   65
 73
    2
 40
6.35
 49
0
 74
    0
 49
-6.35
 74
    0
  0
LTYPE
  5
33
330
5
100
AcDbSymbolTableRecord
100
AcDbLinetypeTableRecord
  2
DOTTINY
 70
    0
  3
Dot (.15x) .....................................
 72
   65
 73
    2
 40
0.9525
 49
0
 74
    0
 49
-0.9525
 74
    0
  0
LTYPE
  5
34
330
5
100
AcDbSymbolTableRecord
100
AcDbLinetypeTableRecord
  2
DOT2
 70
    0
  3
Dot (.5x) .....................................
 72
   65
 73
    2
 40
3.175
 49
0
 74
    0
 49
-3.175
 74
    0
  0
LTYPE
  5
35
330
5
100
AcDbSymbolTableRecord
100
AcDbLinetypeTableRecord
  2
DOTX2
 70
    0
  3
Dot (2x) .  .  .  .  .  .  .  .  .  .  .  .  .
 72
   65
 73
    2
 40
12.7
 49
0
 74
    0
 49
-12.7
 74
    0
  0
LTYPE
  5
36
330
5
100
AcDbSymbolTableRecord
100
AcDbLinetypeTableRecord
  2
DASHED
 70
    0
  3
Dashed _ _ _ _ _ _ _ _ _ _ _ _ _ _ _ _ _
 72
   65
 73
    2
 40
19.05
 49
12.7
 74
    0
 49
-6.35
 74
    0
  0
LTYPE
  5
37
330
5
100
AcDbSymbolTableRecord
100
AcDbLinetypeTableRecord
  2
DASHEDTINY
 70
    0
  3
Dashed (.15x) _ _ _ _ _ _ _ _ _ _ _ _ _ _ _ _ _
 72
   65
 73
    2
 40
2.8575
 49
1.905
 74
    0
 49
-0.9525
 74
    0
  0
LTYPE
  5
38
330
5
100
AcDbSymbolTableRecord
100
AcDbLinetypeTableRecord
  2
DASHED2
 70
    0
  3
Dashed (.5x) _ _ _ _ _ _ _ _ _ _ _ _ _ _ _ _ _
 72
   65
 73
    2
 40
9.524999999999999
 49
6.35
 74
    0
 49
-3.175
 74
    0
  0
LTYPE
  5
39
330
5
100
AcDbSymbolTableRecord
100
AcDbLinetypeTableRecord
  2
DASHEDX2
 70
    0
  3
Dashed (2x) ____  ____  ____  ____  ____  ___
 72
   65
 73
    2
 40
38.09999999999999
 49
25.4
 74
    0
 49
-12.7
 74
    0
  0
LTYPE
  5
3A
330
5
100
AcDbSymbolTableRecord
100
AcDbLinetypeTableRecord
  2
DASHDOT
 70
    0
  3
Dash dot __ . __ . __ . __ . __ . __ . __ . __
 72
   65
 73
    4
 40
25.4
 49
12.7
 74
    0
 49
-6.35
 74
    0
 49
0
 74
    0
 49
-6.35
 74
    0
  0
LTYPE
  5
3B
330
5
100
AcDbSymbolTableRecord
100
AcDbLinetypeTableRecord
  2
DASHDOTTINY
 70
    0
  3
Dash dot (.15x) _._._._._._._._._._._._._._._.
 72
   65
 73
    4
 40
3.81
 49
1.905
 74
    0
 49
-0.9525
 74
    0
 49
0
 74
    0
 49
-0.9525
 74
    0
  0
LTYPE
  5
3C
330
5
100
AcDbSymbolTableRecord
100
AcDbLinetypeTableRecord
  2
DASHDOT2
 70
    0
  3
Dash dot (.5x) _._._._._._._._._._._._._._._.
 72
   65
 73
    4
 40
12.7
 49
6.35
 74
    0
 49
-3.175
 74
    0
 49
0
 74
    0
 49
-3.175
 74
    0
  0
LTYPE
  5
3D
330
5
100
AcDbSymbolTableRecord
100
AcDbLinetypeTableRecord
  2
DASHDOTX2
 70
    0
  3
Dash dot (2x) ____  .  ____  .  ____  .  ___
 72
   65
 73
    4
 40
50.8
 49
25.4
 74
    0
 49
-12.7
 74
    0
 49
0
 74
    0
 49
-12.7
 74
    0
  0
LTYPE
  5
3E
330
5
100
AcDbSymbolTableRecord
100
AcDbLinetypeTableRecord
  2
DIVIDE
 70
    0
  3
Divide ____ . . ____ . . ____ . . ____ . . ____
 72
   65
 73
    6
 40
31.75
 49
12.7
 74
    0
 49
-6.35
 74
    0
 49
0
 74
    0
 49
-6.35
 74
    0
 49
0
 74
    0
 49
-6.35
 74
    0
  0
LTYPE
  5
3F
330
5
100
AcDbSymbolTableRecord
100
AcDbLinetypeTableRecord
  2
DIVIDETINY
 70
    0
  3
Divide (.15x) __..__..__..__..__..__..__..__.._
 72
   65
 73
    6
 40
4.7625
 49
1.905
 74
    0
 49
-0.9525
 74
    0
 49
0
 74
    0
 49
-0.9525
 74
    0
 49
0
 74
    0
 49
-0.9525
 74
    0
  0
LTYPE
  5
40
330
5
100
AcDbSymbolTableRecord
100
AcDbLinetypeTableRecord
  2
DIVIDE2
 70
    0
  3
Divide (.5x) __..__..__..__..__..__..__..__.._
 72
   65
 73
    6
 40
15.875
 49
6.35
 74
    0
 49
-3.175
 74
    0
 49
0
 74
    0
 49
-3.175
 74
    0
 49
0
 74
    0
 49
-3.175
 74
    0
  0
LTYPE
  5
41
330
5
100
AcDbSymbolTableRecord
100
AcDbLinetypeTableRecord
  2
DIVIDEX2
 70
    0
  3
Divide (2x) ________  .  .  ________  .  .  _
 72
   65
 73
    6
 40
63.5
 49
25.4
 74
    0
 49
-12.7
 74
    0
 49
0
 74
    0
 49
-12.7
 74
    0
 49
0
 74
    0
 49
-12.7
 74
    0
  0
LTYPE
  5
42
330
5
100
AcDbSymbolTableRecord
100
AcDbLinetypeTableRecord
  2
BORDER
 70
    0
  3
Border __ __ . __ __ . __ __ . __ __ . __ __ .
 72
   65
 73
    6
 40
44.45
 49
12.7
 74
    0
 49
-6.35
 74
    0
 49
12.7
 74
    0
 49
-6.35
 74
    0
 49
0
 74
    0
 49
-6.35
 74
    0
  0
LTYPE
  5
43
330
5
100
AcDbSymbolTableRecord
100
AcDbLinetypeTableRecord
  2
BORDERTINY
 70
    0
  3
Border (.15x) __.__.__.__.__.__.__.__.__.__.__.
 72
   65
 73
    6
 40
6.6675
 49
1.905
 74
    0
 49
-0.9525
 74
    0
 49
1.905
 74
    0
 49
-0.9525
 74
    0
 49
0
 74
    0
 49
-0.9525
 74
    0
  0
LTYPE
  5
44
330
5
100
AcDbSymbolTableRecord
100
AcDbLinetypeTableRecord
  2
BORDER2
 70
    0
  3
Border (.5x) __.__.__.__.__.__.__.__.__.__.__.
 72
   65
 73
    6
 40
22.225
 49
6.35
 74
    0
 49
-3.175
 74
    0
 49
6.35
 74
    0
 49
-3.175
 74
    0
 49
0
 74
    0
 49
-3.175
 74
    0
  0
LTYPE
  5
45
330
5
100
AcDbSymbolTableRecord
100
AcDbLinetypeTableRecord
  2
BORDERX2
 70
    0
  3
Border (2x) ____  ____  .  ____  ____  .  ___
 72
   65
 73
    6
 40
88.89999999999999
 49
25.4
 74
    0
 49
-12.7
 74
    0
 49
25.4
 74
    0
 49
-12.7
 74
    0
 49
0
 74
    0
 49
-12.7
 74
    0
  0
LTYPE
  5
46
330
5
100
AcDbSymbolTableRecord
100
AcDbLinetypeTableRecord
  2
CENTER
 70
    0
  3
Center ____ _ ____ _ ____ _ ____ _ ____ _ ____
 72
   65
 73
    4
 40
50.8
 49
31.75
 74
    0
 49
-6.35
 74
    0
 49
6.35
 74
    0
 49
-6.35
 74
    0
  0
LTYPE
  5
47
330
5
100
AcDbSymbolTableRecord
100
AcDbLinetypeTableRecord
  2
CENTERTINY
 70
    0
  3
Center (.15x) ___ _ ___ _ ___ _ ___ _ ___ _ ___
 72
   65
 73
    4
 40
7.62
 49
4.7625
 74
    0
 49
-0.9525
 74
    0
 49
0.9525
 74
    0
 49
-0.9525
 74
    0
  0
LTYPE
  5
48
330
5
100
AcDbSymbolTableRecord
100
AcDbLinetypeTableRecord
  2
CENTER2
 70
    0
  3
Center (.5x) ___ _ ___ _ ___ _ ___ _ ___ _ ___
 72
   65
 73
    4
 40
28.575
 49
19.05
 74
    0
 49
-3.175
 74
    0
 49
3.175
 74
    0
 49
-3.175
 74
    0
  0
LTYPE
  5
49
330
5
100
AcDbSymbolTableRecord
100
AcDbLinetypeTableRecord
  2
CENTERX2
 70
    0
  3
Center (2x) ________  __  ________  __  _____
 72
   65
 73
    4
 40
101.6
 49
63.5
 74
    0
 49
-12.7
 74
    0
 49
12.7
 74
    0
 49
-12.7
 74
    0
  0
ENDTAB
  0
TABLE
  2
LAYER
  5
2
330
0
100
AcDbSymbolTable
 70
    1
  0
LAYER
  5
10
330
2
100
AcDbSymbolTableRecord
100
AcDbLayerTableRecord
  2
0
 70
    0
 62
    7
  6
CONTINUOUS
370
   -3
390
F
  0
LAYER
  5
4A
330
2
100
AcDbSymbolTableRecord
100
AcDbLayerTableRecord
  2
LED Mount 1
 70
    0
 62
    7
  6
CONTINUOUS
370
    0
390
F
  0
ENDTAB
  0
TABLE
  2
STYLE
  5
3
330
0
100
AcDbSymbolTable
 70
    3
  0
STYLE
  5
4B
330
2
100
AcDbSymbolTableRecord
100
AcDbTextStyleTableRecord
  2
Standard
 70
    0
 40
0
 41
1
 50
0
 71
    0
 42
1
  3
txt
  4

  0
ENDTAB
  0
TABLE
  2
VIEW
  5
6
330
0
100
AcDbSymbolTable
 70
    0
  0
ENDTAB
  0
TABLE
  2
UCS
  5
7
330
0
100
AcDbSymbolTable
 70
    0
  0
ENDTAB
  0
TABLE
  2
APPID
  5
9
330
0
100
AcDbSymbolTable
 70
    1
  0
APPID
  5
12
330
9
100
AcDbSymbolTableRecord
100
AcDbRegAppTableRecord
  2
ACAD
 70
    0
  0
APPID
  5
4C
330
9
100
AcDbSymbolTableRecord
100
AcDbRegAppTableRecord
  2
LibreCad
 70
    0
  0
ENDTAB
  0
TABLE
  2
DIMSTYLE
  5
A
330
0
100
AcDbSymbolTable
 70
    1
100
AcDbDimStyleTable
 71
    1
  0
DIMSTYLE
105
4D
330
A
100
AcDbSymbolTableRecord
100
AcDbDimStyleTableRecord
  2
Standard
 70
    0
 40
1
 41
2.5
 42
0.625
 43
0.38
 44
1.25
 45
0
 46
0
 47
0
 48
0
 49
1
140
2.5
141
0.09
142
2.5
143
25.4
144
1
145
0
146
1
147
0.625
148
0
 71
    0
 72
    0
 73
    0
 74
    1
 75
    0
 76
    0
 77
    0
 78
    1
 79
    0
170
    0
171
    2
172
    0
173
    0
174
    0
175
    0
176
    0
177
    0
178
    0
179
    0
271
    2
272
    4
273
    2
274
    2
275
    0
276
    0
277
    2
278
    0
279
    0
280
    0
281
    0
282
    0
283
    1
284
    0
285
    0
286
    0
288
    0
289
    3
340
standard
341

371
   -2
372
   -2
  0
ENDTAB
  0
TABLE
  2
BLOCK_RECORD
  5
1
330
0
100
AcDbSymbolTable
 70
    2
  0
BLOCK_RECORD
  5
1F
330
1
100
AcDbSymbolTableRecord
100
AcDbBlockTableRecord
  2
*Model_Space
 70
    0
280
    1
281
    0
  0
BLOCK_RECORD
  5
1E
330
1
100
AcDbSymbolTableRecord
100
AcDbBlockTableRecord
  2
*Paper_Space
 70
    0
280
    1
281
    0
  0
BLOCK_RECORD
  5
4E
330
1
100
AcDbSymbolTableRecord
100
AcDbBlockTableRecord
  2
REAR_LED_MOUNT_V17001_CS
 70
    0
280
    1
281
    0
  0
ENDTAB
  0
ENDSEC
  0
SECTION
  2
BLOCKS
  0
BLOCK
  5
20
330
1F
100
AcDbEntity
  8
0
100
AcDbBlockBegin
  2
*Model_Space
 70
    0
 10
0
 20
0
 30
0
  3
*Model_Space
  1

  0
ENDBLK
  5
21
330
1F
100
AcDbEntity
  8
0
100
AcDbBlockEnd
  0
BLOCK
  5
1C
330
1B
100
AcDbEntity
  8
0
100
AcDbBlockBegin
  2
*Paper_Space
 70
    0
 10
0
 20
0
 30
0
  3
*Paper_Space
  1

  0
ENDBLK
  5
1D
330
1F
100
AcDbEntity
  8
0
100
AcDbBlockEnd
  0
BLOCK
  5
4F
330
4E
100
AcDbEntity
  8
0
100
AcDbBlockBegin
  2
REAR_LED_MOUNT_V17001_CS
 70
    0
 10
0
 20
0
  3
REAR_LED_MOUNT_V17001_CS
  1

  0
LWPOLYLINE
  5
51
100
AcDbEntity
  8
0
  6
ByLayer
 62
    0
370
   -1
100
AcDbPolyline
 90
   80
 70
    1
 43
0
 10
10.5747104003
 20
17.7658554108
 10
10.6161403656
 20
17.9384403229
 10
10.6360733952
 20
18.1916937754
 10
10.6499996185
 20
18.3686294556
 10
10.630066589
 20
18.6218896453
 10
10.6161403656
 20
18.7988300323
 10
10.5568403886
 20
19.0458493603
 10
10.5154104233
 20
19.2184295654
 10
10.4181919896
 20
19.4531333533
 10
10.3502702713
 20
19.6171092987
 10
10.2175351808
 20
19.8337114433
 10
10.1247997284
 20
19.9850406647
 10
9.959812138209999
 20
20.1782109447
 10
9.844543457029999
 20
20.3131694794
 10
9.65137036989
 20
20.4781593153
 10
9.516409873960001
 20
20.5934295654
 10
9.299804922170001
 20
20.7261640945
 10
9.14847373962
 20
20.8188991547
 10
8.9137716361
 20
20.9161175883
 10
8.74979686737
 20
20.9840393066
 10
8.50277585513
 20
21.0433398451
 10
8.33019447327
 20
21.0847702026
 10
8.076937932830001
 20
21.1047032322
 10
7.90000009537
 20
21.1186294556
 10
7.6467429935
 20
21.098696426
 10
7.46980476379
 20
21.0847702026
 10
7.22278403227
 20
21.0254696642
 10
7.05020284653
 20
20.9840393066
 10
6.815500743
 20
20.886820873
 10
6.65152597427
 20
20.8188991547
 10
6.43492158392
 20
20.6861646256
 10
6.28359079361
 20
20.5934295654
 10
6.09041686432
 20
20.4284397295
 10
5.95545578003
 20
20.3131694794
 10
5.79047015485
 20
20.1199991994
 10
5.67520284653
 20
19.9850406647
 10
5.54246747535
 20
19.76843852
 10
5.44973182678
 20
19.6171092987
 10
5.35251535816
 20
19.3824055109
 10
5.28459501266
 20
19.2184295654
 10
5.22529026351
 20
18.9714102375
 10
5.18385696411
 20
18.7988300323
 10
5.16392533811
 20
18.5455698426
 10
5.15000009537
 20
18.3686294556
 10
5.16993172137
 20
18.115376003
 10
5.18385696411
 20
17.9384403229
 10
5.24316171326
 20
17.6914142578
 10
5.28459501266
 20
17.5188293457
 10
5.38181148129
 20
17.2841311722
 10
5.44973182678
 20
17.1201591492
 10
5.58246719796
 20
16.9035525131
 10
5.67520284653
 20
16.7522201538
 10
5.84018847171
 20
16.559048751
 10
5.95545578003
 20
16.4240894318
 10
6.14862970932
 20
16.2590995959
 10
6.28359079361
 20
16.1438293457
 10
6.50019518397
 20
16.0110948167
 10
6.65152597427
 20
15.9183597565
 10
6.8862280778
 20
15.8211474986
 10
7.05020284653
 20
15.7532300949
 10
7.29722357805
 20
15.6939239422
 10
7.46980476379
 20
15.6524896622
 10
7.72306186566
 20
15.6325566326
 10
7.90000009537
 20
15.6186304092
 10
8.1532566358
 20
15.6385634388
 10
8.33019447327
 20
15.6524896622
 10
8.577215485509999
 20
15.7117958149
 10
8.74979686737
 20
15.7532300949
 10
8.984498970900001
 20
15.8504423528
 10
9.14847373962
 20
15.9183597565
 10
9.36507869141
 20
16.0510942855
 10
9.516409873960001
 20
16.1438293457
 10
9.709582961100001
 20
16.3088191816
 10
9.844543457029999
 20
16.4240894318
 10
10.0095310472
 20
16.6172608346
 10
10.1247997284
 20
16.7522201538
 10
10.2575348189
 20
16.9688267899
 10
10.3502702713
 20
17.1201591492
 10
10.4474887049
 20
17.3548573227
 10
10.5154104233
 20
17.5188293457
  0
LWPOLYLINE
  5
52
100
AcDbEntity
  8
0
  6
ByLayer
 62
    0
370
   -1
100
AcDbPolyline
 90
  130
 70
    0
 43
0
 10
9.945684086449999
 20
-2.78610531669
 10
9.83561420441
 20
-2.74035096169
 10
5.56174814691
 20
-1.36632981075
 10
2.57580900192
 20
-0.40636909008
 10
2.55090871572
 20
-2.70543616816
 10
2.51972866886
 20
-5.58434948803
 10
2.5
 20
-7.40595912933
 10
2.5
 20
-8.19715407839
 10
2.5
 20
-9.931293662410001
 10
2.5
 20
-9.949122507289999
 10
2.5
 20
-10.3319547757
 10
2.5
 20
-10.3813695908
 10
0.10546085162
 20
-10.3813695908
 10
-3.99680288865e-015
 20
-10.3813695908
 10
-3.99680288865e-015
 20
-10.2490750386
 10
-3.99680288865e-015
 20
-10.234985902
 10
-3.99680288865e-015
 20
-10.1645338312
 10
-3.99680288865e-015
 20
-10.12392014
 10
-3.99680288865e-015
 20
-9.78065435111
 10
-3.99680288865e-015
 20
-9.761445182539999
 10
-3.99680288865e-015
 20
-8.568216506360001
 10
-3.99680288865e-015
 20
-5.20342590319
 10
-3.99680288865e-015
 20
-4.10052249933
 10
-3.99680288865e-015
 20
-0.735731963015
 10
-3.99680288865e-015
 20
11.9878135442
 10
-3.99680288865e-015
 20
13.0907171486
 10
-3.99680288865e-015
 20
16.4555090888
 10
-3.99680288865e-015
 20
17.5584086821
 10
-3.99680288865e-015
 20
20.9231992852
 10
-3.99680288865e-015
 20
22.0859903022
 10
-3.99680288865e-015
 20
22.3903554774
 10
-3.99680288865e-015
 20
22.4263666199
 10
-3.99680288865e-015
 20
22.488834706
 10
-3.99680288865e-015
 20
22.5013271905
 10
-3.99680288865e-015
 20
22.6186294556
 10
1.02824354845
 20
22.6186294556
 10
2.5
 20
22.6186294556
 10
5.67899399149
 20
22.6186294556
 10
7.90000009537
 20
22.6186294556
 10
8.11919906274
 20
22.6048303192
 10
8.43294525146
 20
22.5850791931
 10
8.64868364804
 20
22.5439045785
 10
8.95747661591
 20
22.4849700928
 10
9.16634839278
 20
22.4170648487
 10
9.46531295776
 20
22.3198699951
 10
9.664020913670001
 20
22.226308085
 10
9.94843769073
 20
22.0923900604
 10
10.1338434832
 20
21.9746518124
 10
10.3992204666
 20
21.8061294556
 10
10.5683991336
 20
21.6660662602
 10
10.810549736
 20
21.4655895233
 10
10.9608297052
 20
21.305422265
 10
11.1759300232
 20
21.0761699677
 10
11.3049417499
 20
20.8984192049
 10
11.4896001816
 20
20.6439990997
 10
11.5952992911
 20
20.4514709447
 10
11.7465896606
 20
20.1758995056
 10
11.8273150006
 20
19.9716409079
 10
11.9428596497
 20
19.6792793274
 10
11.9973321131
 20
19.4665074706
 10
12.0753002167
 20
19.1619606018
 10
12.1026596129
 20
18.9440425065
 10
12.1418199539
 20
18.6321296692
 10
12.1416391295
 20
18.4124966841
 10
12.1413803101
 20
18.0981292725
 10
12.1136588728
 20
17.880252755
 10
12.0739803314
 20
17.5683994293
 10
12.0191583788
 20
17.3557177886
 10
11.9406900406
 20
17.0513000488
 10
11.8596273709
 20
16.847173245
 10
11.7435998917
 20
16.5550003052
 10
11.6375799267
 20
16.3626525822
 10
11.485830307
 20
16.0873394012
 10
11.3565306734
 20
15.9097988812
 10
11.1714601517
 20
15.6556797028
 10
11.0209130644
 20
15.4957591658
 10
10.8054304123
 20
15.2668600082
 10
10.6360211059
 20
15.1270804052
 10
10.3935403824
 20
14.9270095825
 10
7.55824501271
 20
12.872769258
 10
3.5
 20
9.932472229
 10
3.5
 20
9.762260391850001
 10
3.5
 20
9.51863098145
 10
3.08870258062
 20
9.51863098145
 10
2.5
 20
9.51863098145
 10
2.5
 20
8.517836706680001
 10
2.5
 20
7.81863117218
 10
2.88122251939
 20
7.81863117218
 10
3.42687797546
 20
7.81863117218
 10
3.42687797546
 20
7.4073337528
 10
3.42687797546
 20
6.81863117218
 10
3.04565545607
 20
6.81863117218
 10
2.5
 20
6.81863117218
 10
2.5
 20
0.94750016611
 10
2.5
 20
-4.90303711665
 10
2.5
 20
-7.40595912933
 10
2.7590833472
 20
-7.35941625759
 10
5.6831705503
 20
-6.83412279199
 10
9.60942268372
 20
-6.12879705429
 10
9.72459722638
 20
-6.09807809
 10
9.889450073240001
 20
-6.05410909653
 10
10.0447849883
 20
-5.98353587519
 10
10.1533098221
 20
-5.93422985077
 10
10.2948694776
 20
-5.83898793332
 10
10.3937702179
 20
-5.77244710922
 10
10.5176683918
 20
-5.65514855121
 10
10.6042299271
 20
-5.57319784164
 10
10.707070526
 20
-5.4370593593
 10
10.7789201736
 20
-5.34194612503
 10
10.8578769564
 20
-5.19070179282
 10
10.9130401611
 20
-5.08503484726
 10
10.9659583573
 20
-4.92283279465
 10
11.0029296875
 20
-4.80951023102
 10
11.0283501391
 20
-4.64079923355
 10
11.0461101532
 20
-4.52292919159
 10
11.0433434235
 20
-4.35233599827
 10
11.0414104462
 20
-4.23315095901
 10
11.0105210998
 20
-4.06535425117
 10
10.988940239
 20
-3.94812297821
 10
10.9307822117
 20
-3.78772508262
 10
10.8901500702
 20
-3.67566299438
 10
10.8063189476
 20
-3.52706384212
 10
10.7477502823
 20
-3.42324495316
 10
10.6405417538
 20
-3.29051898594
 10
10.5656404495
 20
-3.19778990746
 10
10.437997534
 20
-3.08457772157
 10
10.3488197327
 20
-3.00548195839
 10
10.2042407037
 20
-2.91488826467
 10
10.1032304764
 20
-2.85159492493
 10
9.945684086449999
 20
-2.78610531669
  0
LWPOLYLINE
  5
53
100
AcDbEntity
  8
0
  6
ByLayer
 62
    0
370
   -1
100
AcDbPolyline
 90
   72
 70
    1
 43
0
 10
10.4397155248
 20
-4.28880818251
 10
10.4325304031
 20
-4.20667409897
 10
10.4019880208
 20
-4.09268461251
 10
10.3806495667
 20
-4.01304578781
 10
10.3307748854
 20
-3.90609214877
 10
10.2959299088
 20
-3.83136892319
 10
10.2282410368
 20
-3.73470041076
 10
10.1809501648
 20
-3.6671628952
 10
10.0975075521
 20
-3.583717335
 10
10.0392103195
 20
-3.52541804314
 10
9.942539280649999
 20
-3.45773015365
 10
9.875
 20
-3.41043996811
 10
9.76804636096
 20
-3.36056626938
 10
9.69332313538
 20
-3.32572197914
 10
9.57933421035
 20
-3.29517889503
 10
9.49969577789
 20
-3.27383995056
 10
9.38213447039
 20
-3.26355482395
 10
9.30000019073
 20
-3.25636911392
 10
9.18243888324
 20
-3.26665424054
 10
9.10030460358
 20
-3.27383995056
 10
8.98631567855
 20
-3.30438303467
 10
8.90667724609
 20
-3.32572197914
 10
8.79972360705
 20
-3.37559567787
 10
8.72500038147
 20
-3.41043996811
 10
8.628331588329999
 20
-3.47812785759
 10
8.560793876649999
 20
-3.52541804314
 10
8.4773484568
 20
-3.60886360334
 10
8.419049263
 20
-3.6671628952
 10
8.35136095244
 20
-3.76383140763
 10
8.304070472719999
 20
-3.83136892319
 10
8.25419747578
 20
-3.93832256223
 10
8.219353675840001
 20
-4.01304578781
 10
8.18881017066
 20
-4.12703527427
 10
8.16747093201
 20
-4.20667409897
 10
8.157185524679999
 20
-4.32423512575
 10
8.14999961853
 20
-4.40636920929
 10
8.16028502586
 20
-4.52392995536
 10
8.16747093201
 20
-4.60606384277
 10
8.19801443719
 20
-4.72005389066
 10
8.219353675840001
 20
-4.7996931076
 10
8.26922667278
 20
-4.90664618522
 10
8.304070472719999
 20
-4.98136901855
 10
8.37175878327
 20
-5.07803753098
 10
8.419049263
 20
-5.14557504654
 10
8.50249468284
 20
-5.22902130853
 10
8.560793876649999
 20
-5.2873210907
 10
8.65746266979
 20
-5.35500827839
 10
8.72500038147
 20
-5.40229797363
 10
8.83195402051
 20
-5.45217097057
 10
8.90667724609
 20
-5.48701477051
 10
9.02066617112
 20
-5.51755855641
 10
9.10030460358
 20
-5.53889799118
 10
9.217865911080001
 20
-5.5491831178
 10
9.30000019073
 20
-5.55636882782
 10
9.41756149823
 20
-5.5460837012
 10
9.49969577789
 20
-5.53889799118
 10
9.613684702920001
 20
-5.50835420528
 10
9.69332313538
 20
-5.48701477051
 10
9.80027677442
 20
-5.43714177357
 10
9.875
 20
-5.40229797363
 10
9.971671038869999
 20
-5.33461078594
 10
10.0392103195
 20
-5.2873210907
 10
10.1226529322
 20
-5.20387482871
 10
10.1809501648
 20
-5.14557504654
 10
10.2486390368
 20
-5.04890653411
 10
10.2959299088
 20
-4.98136901855
 10
10.34580459
 20
-4.87441594094
 10
10.3806495667
 20
-4.7996931076
 10
10.411191949
 20
-4.68570305972
 10
10.4325304031
 20
-4.60606384277
 10
10.4428146876
 20
-4.48850309671
 10
10.4499998093
 20
-4.40636920929
  0
ENDBLK
  5
50
330
4E
100
AcDbEntity
  8
0
100
AcDbBlockEnd
  0
ENDSEC
  0
SECTION
  2
ENTITIES
  0
LWPOLYLINE
  5
54
100
AcDbEntity
  8
LED Mount 1
  6
ByLayer
 62
    0
370
   -1
100
AcDbPolyline
 90
   80
 70
    1
 43
0
 10
17.7658554108
 20
10.5747104003
 10
17.9384403229
 20
10.6161403656
 10
18.1916937754
 20
10.6360733952
 10
18.3686294556
 20
10.6499996185
 10
18.6218896453
 20
10.630066589
 10
18.7988300323
 20
10.6161403656
 10
19.0458493603
 20
10.5568403886
 10
19.2184295654
 20
10.5154104233
 10
19.4531333533
 20
10.4181919896
 10
19.6171092987
 20
10.3502702713
 10
19.8337114433
 20
10.2175351808
 10
19.9850406647
 20
10.1247997284
 10
20.1782109447
 20
9.959812138209999
 10
20.3131694794
 20
9.844543457029999
 10
20.4781593153
 20
9.65137036989
 10
20.5934295654
 20
9.516409873960001
 10
20.7261640945
 20
9.299804922170001
 10
20.8188991547
 20
9.14847373962
 10
20.9161175883
 20
8.9137716361
 10
20.9840393066
 20
8.749796867369998
 10
21.0433398451
 20
8.50277585513
 10
21.0847702026
 20
8.33019447327
 10
21.10470323219999
 20
8.076937932829999
 10
21.1186294556
 20
7.90000009537
 10
21.098696426
 20
7.6467429935
 10
21.0847702026
 20
7.469804763789998
 10
21.0254696642
 20
7.222784032269999
 10
20.9840393066
 20
7.050202846530002
 10
20.886820873
 20
6.815500742999999
 10
20.8188991547
 20
6.651525974269999
 10
20.6861646256
 20
6.43492158392
 10
20.5934295654
 20
6.283590793609999
 10
20.4284397295
 20
6.09041686432
 10
20.3131694794
 20
5.955455780030002
 10
20.1199991994
 20
5.79047015485
 10
19.9850406647
 20
5.675202846529999
 10
19.76843852
 20
5.54246747535
 10
19.6171092987
 20
5.449731826779999
 10
19.3824055109
 20
5.35251535816
 10
19.2184295654
 20
5.284595012660001
 10
18.9714102375
 20
5.225290263509999
 10
18.7988300323
 20
5.183856964109999
 10
18.5455698426
 20
5.163925338109998
 10
18.3686294556
 20
5.15000009537
 10
18.115376003
 20
5.169931721370002
 10
17.9384403229
 20
5.183856964109999
 10
17.6914142578
 20
5.243161713259997
 10
17.5188293457
 20
5.284595012659999
 10
17.2841311722
 20
5.381811481290001
 10
17.1201591492
 20
5.449731826779999
 10
16.9035525131
 20
5.58246719796
 10
16.7522201538
 20
5.675202846529999
 10
16.559048751
 20
5.84018847171
 10
16.4240894318
 20
5.95545578003
 10
16.2590995959
 20
6.148629709320002
 10
16.1438293457
 20
6.283590793610003
 10
16.0110948167
 20
6.50019518397
 10
15.9183597565
 20
6.651525974270001
 10
15.8211474986
 20
6.8862280778
 10
15.7532300949
 20
7.05020284653
 10
15.6939239422
 20
7.29722357805
 10
15.6524896622
 20
7.469804763790002
 10
15.6325566326
 20
7.72306186566
 10
15.6186304092
 20
7.900000095370002
 10
15.6385634388
 20
8.1532566358
 10
15.6524896622
 20
8.330194473270002
 10
15.7117958149
 20
8.577215485509999
 10
15.7532300949
 20
8.74979686737
 10
15.8504423528
 20
8.984498970900001
 10
15.9183597565
 20
9.148473739620002
 10
16.0510942855
 20
9.36507869141
 10
16.1438293457
 20
9.516409873960001
 10
16.3088191816
 20
9.709582961100001
 10
16.4240894318
 20
9.844543457029999
 10
16.6172608346
 20
10.0095310472
 10
16.7522201538
 20
10.1247997284
 10
16.9688267899
 20
10.2575348189
 10
17.1201591492
 20
10.3502702713
 10
17.3548573227
 20
10.4474887049
 10
17.5188293457
 20
10.5154104233
  0
LWPOLYLINE
  5
55
100
AcDbEntity
  8
LED Mount 1
  6
ByLayer
 62
    0
370
   -1
100
AcDbPolyline
 90
  130
 70
    0
 43
0
 10
-2.786105316689996
 20
9.945684086450003
 10
-2.740350961690005
 20
9.835614204409994
 10
-1.366329810749997
 20
5.561748146910003
 10
-0.4063690900799988
 20
2.575809001920002
 10
-2.70543616816
 20
2.55090871572
 10
-5.584349488030003
 20
2.519728668859997
 10
-7.40595912933
 20
2.5
 10
-8.197154078390007
 20
2.499999999999993
 10
-9.931293662409999
 20
2.500000000000002
 10
-9.949122507290006
 20
2.499999999999993
 10
-10.3319547757
 20
2.500000000000002
 10
-10.38136959080001
 20
2.499999999999995
 10
-10.3813695908
 20
0.1054608516199966
 10
-10.3813695908
 20
-5.329070518200751e-015
 10
-10.2490750386
 20
-5.329070518200751e-015
 10
-10.234985902
 20
-5.329070518200751e-015
 10
-10.1645338312
 20
-3.552713678800501e-015
 10
-10.12392014
 20
-3.552713678800501e-015
 10
-9.780654351110005
 20
-8.881784197001252e-015
 10
-9.761445182539997
 20
-1.77635683940025e-015
 10
-8.568216506359999
 20
-1.77635683940025e-015
 10
-5.203425903189999
 20
-1.77635683940025e-015
 10
-4.100522499329994
 20
2.664535259100376e-015
 10
-0.7357319630150019
 20
-5.88418203051333e-015
 10
11.9878135442
 20
-5.329070518200751e-015
 10
13.0907171486
 20
-3.552713678800501e-015
 10
16.4555090888
 20
-3.552713678800501e-015
 10
17.5584086821
 20
-3.552713678800501e-015
 10
20.9231992852
 20
-3.552713678800501e-015
 10
22.0859903022
 20
-3.552713678800501e-015
 10
22.3903554774
 20
-3.552713678800501e-015
 10
22.4263666199
 20
-3.552713678800501e-015
 10
22.488834706
 20
-3.552713678800501e-015
 10
22.5013271905
 20
-3.552713678800501e-015
 10
22.6186294556
 20
-3.552713678800501e-015
 10
22.6186294556
 20
1.02824354845
 10
22.6186294556
 20
2.5
 10
22.6186294556
 20
5.67899399149
 10
22.6186294556
 20
7.90000009537
 10
22.6048303192
 20
8.11919906274
 10
22.5850791931
 20
8.43294525146
 10
22.5439045785
 20
8.64868364804
 10
22.4849700928
 20
8.95747661591
 10
22.4170648487
 20
9.16634839278
 10
22.3198699951
 20
9.46531295776
 10
22.226308085
 20
9.664020913670001
 10
22.0923900604
 20
9.94843769073
 10
21.9746518124
 20
10.1338434832
 10
21.8061294556
 20
10.3992204666
 10
21.6660662602
 20
10.5683991336
 10
21.4655895233
 20
10.810549736
 10
21.305422265
 20
10.9608297052
 10
21.0761699677
 20
11.1759300232
 10
20.8984192049
 20
11.3049417499
 10
20.6439990997
 20
11.4896001816
 10
20.4514709447
 20
11.5952992911
 10
20.1758995056
 20
11.7465896606
 10
19.9716409079
 20
11.8273150006
 10
19.6792793274
 20
11.9428596497
 10
19.4665074706
 20
11.9973321131
 10
19.1619606018
 20
12.0753002167
 10
18.9440425065
 20
12.1026596129
 10
18.6321296692
 20
12.1418199539
 10
18.4124966841
 20
12.1416391295
 10
18.0981292725
 20
12.1413803101
 10
17.880252755
 20
12.1136588728
 10
17.5683994293
 20
12.0739803314
 10
17.3557177886
 20
12.0191583788
 10
17.0513000488
 20
11.9406900406
 10
16.847173245
 20
11.8596273709
 10
16.5550003052
 20
11.7435998917
 10
16.3626525822
 20
11.6375799267
 10
16.0873394012
 20
11.485830307
 10
15.9097988812
 20
11.3565306734
 10
15.6556797028
 20
11.1714601517
 10
15.4957591658
 20
11.0209130644
 10
15.2668600082
 20
10.8054304123
 10
15.1270804052
 20
10.6360211059
 10
14.9270095825
 20
10.3935403824
 10
12.872769258
 20
7.558245012710001
 10
9.932472228999998
 20
3.499999999999998
 10
9.762260391849999
 20
3.499999999999998
 10
9.518630981450002
 20
3.500000000000002
 10
9.518630981450004
 20
3.088702580620003
 10
9.518630981450002
 20
2.500000000000002
 10
8.517836706680001
 20
2.5
 10
7.818631172179998
 20
2.499999999999998
 10
7.818631172180002
 20
2.881222519390002
 10
7.81863117218
 20
3.42687797546
 10
7.407333752799998
 20
3.426877975459998
 10
6.81863117218
 20
3.42687797546
 10
6.818631172180003
 20
3.045655456070003
 10
6.818631172179998
 20
2.499999999999998
 10
0.9475001661099967
 20
2.499999999999996
 10
-4.903037116650005
 20
2.499999999999996
 10
-7.40595912933
 20
2.5
 10
-7.359416257589994
 20
2.759083347200006
 10
-6.83412279199
 20
5.6831705503
 10
-6.128797054289999
 20
9.609422683720002
 10
-6.098078089999996
 20
9.724597226380004
 10
-6.05410909653
 20
9.889450073240001
 10
-5.983535875190006
 20
10.04478498829999
 10
-5.934229850769997
 20
10.1533098221
 10
-5.838987933319997
 20
10.2948694776
 10
-5.772447109219998
 20
10.3937702179
 10
-5.655148551210003
 20
10.5176683918
 10
-5.573197841640003
 20
10.6042299271
 10
-5.437059359299999
 20
10.707070526
 10
-5.341946125029999
 20
10.7789201736
 10
-5.190701792820002
 20
10.8578769564
 10
-5.085034847259998
 20
10.9130401611
 10
-4.922832794649995
 20
10.9659583573
 10
-4.809510231019999
 20
11.0029296875
 10
-4.64079923355
 20
11.0283501391
 10
-4.522929191589999
 20
11.0461101532
 10
-4.352335998270002
 20
11.0433434235
 10
-4.23315095901
 20
11.0414104462
 10
-4.065354251169998
 20
11.0105210998
 10
-3.94812297821
 20
10.988940239
 10
-3.787725082620002
 20
10.9307822117
 10
-3.675662994379998
 20
10.8901500702
 10
-3.527063842119995
 20
10.8063189476
 10
-3.423244953159998
 20
10.7477502823
 10
-3.290518985940002
 20
10.6405417538
 10
-3.197789907459997
 20
10.5656404495
 10
-3.084577721569996
 20
10.437997534
 10
-3.00548195839
 20
10.3488197327
 10
-2.914888264670003
 20
10.2042407037
 10
-2.851594924929998
 20
10.1032304764
 10
-2.786105316689996
 20
9.945684086450003
  0
LWPOLYLINE
  5
56
100
AcDbEntity
  8
LED Mount 1
  6
ByLayer
 62
    0
370
   -1
100
AcDbPolyline
 90
   72
 70
    1
 43
0
 10
-4.288808182509996
 20
10.4397155248
 10
-4.206674098970002
 20
10.4325304031
 10
-4.09268461251
 20
10.4019880208
 10
-4.01304578781
 20
10.3806495667
 10
-3.906092148769996
 20
10.3307748854
 10
-3.83136892319
 20
10.2959299088
 10
-3.734700410759999
 20
10.2282410368
 10
-3.667162895199999
 20
10.1809501648
 10
-3.583717334999998
 20
10.0975075521
 10
-3.52541804314
 20
10.0392103195
 10
-3.457730153650001
 20
9.942539280649999
 10
-3.410439968109998
 20
9.875000000000002
 10
-3.360566269380001
 20
9.768046360959998
 10
-3.325721979140001
 20
9.693323135379998
 10
-3.29517889503
 20
9.57933421035
 10
-3.273839950559999
 20
9.49969577789
 10
-3.263554823950003
 20
9.382134470389996
 10
-3.256369113920005
 20
9.300000190729994
 10
-3.266654240539996
 20
9.182438883240003
 10
-3.273839950560003
 20
9.100304603579996
 10
-3.304383034669996
 20
8.986315678550003
 10
-3.325721979140001
 20
8.906677246089998
 10
-3.375595677869997
 20
8.799723607050002
 10
-3.410439968110001
 20
8.725000381469998
 10
-3.478127857589996
 20
8.628331588330003
 10
-3.525418043140004
 20
8.560793876649996
 10
-3.608863603340003
 20
8.477348456799996
 10
-3.667162895200002
 20
8.419049262999998
 10
-3.763831407630004
 20
8.351360952439997
 10
-3.831368923189999
 20
8.304070472720001
 10
-3.938322562229995
 20
8.254197475780005
 10
-4.013045787809997
 20
8.219353675840004
 10
-4.127035274269995
 20
8.188810170660005
 10
-4.20667409897
 20
8.16747093201
 10
-4.324235125750004
 20
8.157185524679996
 10
-4.406369209290002
 20
8.149999618529998
 10
-4.523929955359998
 20
8.160285025860002
 10
-4.60606384277
 20
8.16747093201
 10
-4.720053890660001
 20
8.19801443719
 10
-4.799693107599996
 20
8.219353675840004
 10
-4.906646185220005
 20
8.269226672779995
 10
-4.981369018549998
 20
8.304070472720001
 10
-5.078037530980001
 20
8.371758783269998
 10
-5.145575046539998
 20
8.419049263000002
 10
-5.229021308529999
 20
8.502494682840002
 10
-5.287321090700001
 20
8.560793876649999
 10
-5.355008278389995
 20
8.657462669790004
 10
-5.402297973629995
 20
8.725000381470004
 10
-5.452170970569998
 20
8.831954020510002
 10
-5.487014770510003
 20
8.906677246089998
 10
-5.517558556409996
 20
9.020666171120004
 10
-5.538897991180001
 20
9.10030460358
 10
-5.549183117800002
 20
9.217865911079999
 10
-5.556368827819998
 20
9.300000190730001
 10
-5.546083701199997
 20
9.417561498230004
 10
-5.538897991179997
 20
9.499695777890004
 10
-5.508354205279996
 20
9.613684702920004
 10
-5.487014770509996
 20
9.693323135380005
 10
-5.43714177357
 20
9.80027677442
 10
-5.402297973629999
 20
9.875
 10
-5.334610785940001
 20
9.971671038869999
 10
-5.287321090699997
 20
10.0392103195
 10
-5.203874828710001
 20
10.1226529322
 10
-5.145575046540001
 20
10.1809501648
 10
-5.048906534110003
 20
10.2486390368
 10
-4.98136901855
 20
10.2959299088
 10
-4.874415940939997
 20
10.34580459
 10
-4.7996931076
 20
10.3806495667
 10
-4.685703059719998
 20
10.411191949
 10
-4.606063842770002
 20
10.4325304031
 10
-4.48850309671
 20
10.4428146876
 10
-4.406369209289995
 20
10.4499998093
  0
ENDSEC
  0
SECTION
  2
OBJECTS
  0
DICTIONARY
  5
C
330
0
100
AcDbDictionary
281
    1
  3
ACAD_GROUP
350
D
  0
DICTIONARY
  5
D
330
C
100
AcDbDictionary
281
    1
  0
ENDSEC
  0
EOF
