999
dxfrw 0.6.3
  0
SECTION
  2
HEADER
  9
$ACADVER
  1
AC1021
  9
$DWGCODEPAGE
  3
ANSI_1252
  9
$INSBASE
 10
0
 20
0
 30
0
  9
$EXTMIN
 10
10000000000
 20
10000000000
 30
0
  9
$EXTMAX
 10
-10000000000
 20
-10000000000
 30
0
  9
$LIMMIN
 10
0
 20
0
  9
$LIMMAX
 10
420
 20
297
  9
$ORTHOMODE
 70
    0
  9
$REGENMODE
 70
    1
  9
$FILLMODE
 70
    1
  9
$QTEXTMODE
 70
    0
  9
$MIRRTEXT
 70
    0
  9
$LTSCALE
 40
1
  9
$ATTMODE
 70
    0
  9
$TEXTSIZE
 40
2.5
  9
$TRACEWID
 40
15.68
  9
$TEXTSTYLE
  7
STANDARD
  9
$CLAYER
  8
0
  9
$CELTYPE
  6
BYLAYER
  9
$CECOLOR
 62
  256
  9
$CELTSCALE
 40
1
  9
$DISPSILH
 70
    0
  9
$DIMSCALE
 40
2.5
  9
$DIMASZ
 40
2.5
  9
$DIMEXO
 40
0.625
  9
$DIMDLI
 40
3.75
  9
$DIMRND
 40
0
  9
$DIMDLE
 40
0
  9
$DIMEXE
 40
1.25
  9
$DIMTP
 40
0
  9
$DIMTM
 40
0
  9
$DIMTXT
 40
2.5
  9
$DIMCEN
 40
2.5
  9
$DIMTSZ
 40
0
  9
$DIMTOL
 70
    0
  9
$DIMLIM
 70
    0
  9
$DIMTIH
 70
    0
  9
$DIMTOH
 70
    0
  9
$DIMSE1
 70
    0
  9
$DIMSE2
 70
    0
  9
$DIMTAD
 70
    1
  9
$DIMZIN
 70
    8
  9
$DIMBLK
  1

  9
$DIMASO
 70
    1
  9
$DIMSHO
 70
    1
  9
$DIMPOST
  1

  9
$DIMAPOST
  1

  9
$DIMALT
 70
    0
  9
$DIMALTD
 70
    3
  9
$DIMALTF
 40
0.03937
  9
$DIMLFAC
 40
1
  9
$DIMTOFL
 70
    1
  9
$DIMTVP
 40
0
  9
$DIMTIX
 70
    0
  9
$DIMSOXD
 70
    0
  9
$DIMSAH
 70
    0
  9
$DIMBLK1
  1

  9
$DIMBLK2
  1

  9
$DIMSTYLE
  2
Standard
  9
$DIMCLRD
 70
    0
  9
$DIMCLRE
 70
    0
  9
$DIMCLRT
 70
    0
  9
$DIMTFAC
 40
1
  9
$DIMGAP
 40
0.625
  9
$DIMJUST
 70
    0
  9
$DIMSD1
 70
    0
  9
$DIMSD2
 70
    0
  9
$DIMTOLJ
 70
    0
  9
$DIMTZIN
 70
    8
  9
$DIMALTZ
 70
    0
  9
$DIMALTTZ
 70
    0
  9
$DIMUPT
 70
    0
  9
$DIMDEC
 70
    2
  9
$DIMTDEC
 70
    2
  9
$DIMALTU
 70
    2
  9
$DIMALTTD
 70
    3
  9
$DIMTXSTY
  7
STANDARD
  9
$DIMAUNIT
 70
    0
  9
$DIMADEC
 70
    0
  9
$DIMALTRND
 40
0
  9
$DIMAZIN
 70
    0
  9
$DIMDSEP
 70
   44
  9
$DIMATFIT
 70
    3
  9
$DIMFRAC
 70
    0
  9
$DIMLDRBLK
  1
STANDARD
  9
$DIMLUNIT
 70
    2
  9
$DIMLWD
 70
   -2
  9
$DIMLWE
 70
   -2
  9
$DIMTMOVE
 70
    0
  9
$DIMFXL
 40
1
  9
$DIMFXLON
 70
    0
  9
$DIMJOGANG
 40
0.7854
  9
$DIMTFILL
 70
    0
  9
$DIMTFILLCLR
 70
    0
  9
$DIMARCSYM
 70
    0
  9
$DIMLTYPE
  6

  9
$DIMLTEX1
  6

  9
$DIMLTEX2
  6

  9
$LUNITS
 70
    2
  9
$LUPREC
 70
    4
  9
$SKETCHINC
 40
1
  9
$FILLETRAD
 40
0
  9
$AUNITS
 70
    0
  9
$AUPREC
 70
    2
  9
$MENU
  1
.
  9
$ELEVATION
 40
0
  9
$PELEVATION
 40
0
  9
$THICKNESS
 40
0
  9
$LIMCHECK
 70
    0
  9
$CHAMFERA
 40
0
  9
$CHAMFERB
 40
0
  9
$CHAMFERC
 40
0
  9
$CHAMFERD
 40
0
  9
$SKPOLY
 70
    0
  9
$USRTIMER
 70
    1
  9
$ANGBASE
 50
0
  9
$ANGDIR
 70
    0
  9
$PDMODE
 70
   34
  9
$PDSIZE
 40
0
  9
$PLINEWID
 40
0
  9
$SPLFRAME
 70
    0
  9
$SPLINETYPE
 70
    2
  9
$SPLINESEGS
 70
    8
  9
$HANDSEED
  5
20000
  9
$SURFTAB1
 70
    6
  9
$SURFTAB2
 70
    6
  9
$SURFTYPE
 70
    6
  9
$SURFU
 70
    6
  9
$SURFV
 70
    6
  9
$UCSBASE
  2

  9
$UCSNAME
  2

  9
$UCSORG
 10
0
 20
0
 30
0
  9
$UCSXDIR
 10
1
 20
0
 30
0
  9
$UCSYDIR
 10
0
 20
1
 30
0
  9
$UCSORTHOREF
  2

  9
$UCSORTHOVIEW
 70
    0
  9
$UCSORGTOP
 10
0
 20
0
 30
0
  9
$UCSORGBOTTOM
 10
0
 20
0
 30
0
  9
$UCSORGLEFT
 10
0
 20
0
 30
0
  9
$UCSORGRIGHT
 10
0
 20
0
 30
0
  9
$UCSORGFRONT
 10
0
 20
0
 30
0
  9
$UCSORGBACK
 10
0
 20
0
 30
0
  9
$PUCSBASE
  2

  9
$PUCSNAME
  2

  9
$PUCSORG
 10
0
 20
0
 30
0
  9
$PUCSXDIR
 10
1
 20
0
 30
0
  9
$PUCSYDIR
 10
0
 20
1
 30
0
  9
$PUCSORTHOREF
  2

  9
$PUCSORTHOVIEW
 70
    0
  9
$PUCSORGTOP
 10
0
 20
0
 30
0
  9
$PUCSORGBOTTOM
 10
0
 20
0
 30
0
  9
$PUCSORGLEFT
 10
0
 20
0
 30
0
  9
$PUCSORGRIGHT
 10
0
 20
0
 30
0
  9
$PUCSORGFRONT
 10
0
 20
0
 30
0
  9
$PUCSORGBACK
 10
0
 20
0
 30
0
  9
$USERI1
 70
    0
  9
$USERI2
 70
    0
  9
$USERI3
 70
    0
  9
$USERI4
 70
    0
  9
$USERI5
 70
    0
  9
$USERR1
 40
0
  9
$USERR2
 40
0
  9
$USERR3
 40
0
  9
$USERR4
 40
0
  9
$USERR5
 40
0
  9
$WORLDVIEW
 70
    1
  9
$SHADEDGE
 70
    3
  9
$SHADEDIF
 70
   70
  9
$TILEMODE
 70
    1
  9
$MAXACTVP
 70
   64
  9
$PINSBASE
 10
0
 20
0
 30
0
  9
$PLIMCHECK
 70
    0
  9
$PEXTMIN
 10
0
 20
0
 30
0
  9
$PEXTMAX
 10
0
 20
0
 30
0
  9
$PLIMMIN
 10
0
 20
0
  9
$PLIMMAX
 10
297
 20
210
  9
$UNITMODE
 70
    0
  9
$VISRETAIN
 70
    1
  9
$PLINEGEN
 70
    0
  9
$PSLTSCALE
 70
    1
  9
$TREEDEPTH
 70
 3020
  9
$CMLSTYLE
  2
Standard
  9
$CMLJUST
 70
    0
  9
$CMLSCALE
 40
20
  9
$PROXYGRAPHICS
 70
    1
  9
$MEASUREMENT
 70
    1
  9
$CELWEIGHT
370
   -1
  9
$ENDCAPS
280
    0
  9
$JOINSTYLE
280
    0
  9
$LWDISPLAY
290
    0
  9
$INSUNITS
 70
    4
  9
$HYPERLINKBASE
  1

  9
$STYLESHEET
  1

  9
$XEDIT
290
    1
  9
$CEPSNTYPE
380
    0
  9
$PSTYLEMODE
290
    1
  9
$EXTNAMES
290
    1
  9
$PSVPSCALE
 40
0
  9
$OLESTARTUP
290
    0
  9
$SORTENTS
280
  127
  9
$INDEXCTL
280
    0
  9
$HIDETEXT
280
    1
  9
$XCLIPFRAME
290
    0
  9
$HALOGAP
280
    0
  9
$OBSCOLOR
 70
  257
  9
$OBSLTYPE
280
    0
  9
$INTERSECTIONDISPLAY
280
    0
  9
$INTERSECTIONCOLOR
 70
  257
  9
$DIMASSOC
280
    1
  9
$PROJECTNAME
  1

  9
$CAMERADISPLAY
290
    0
  9
$LENSLENGTH
 40
50
  9
$CAMERAHEIGHT
 40
0
  9
$STEPSPERSEC
 40
2
  9
$STEPSIZE
 40
50
  9
$3DDWFPREC
 40
2
  9
$PSOLWIDTH
 40
5
  9
$PSOLHEIGHT
 40
80
  9
$LOFTANG1
 40
1.570796326794897
  9
$LOFTANG2
 40
1.570796326794897
  9
$LOFTMAG1
 40
0
  9
$LOFTMAG2
 40
0
  9
$LOFTPARAM
 70
    7
  9
$LOFTNORMALS
280
    1
  9
$LATITUDE
 40
1
  9
$LONGITUDE
 40
1
  9
$NORTHDIRECTION
 40
0
  9
$TIMEZONE
 70
-8000
  9
$LIGHTGLYPHDISPLAY
280
    1
  9
$TILEMODELIGHTSYNCH
280
    1
  9
$SOLIDHIST
280
    1
  9
$SHOWHIST
280
    1
  9
$DWFFRAME
280
    2
  9
$DGNFRAME
280
    0
  9
$REALWORLDSCALE
290
    1
  9
$INTERFERECOLOR
 62
    1
  9
$CSHADOW
280
    0
  9
$SHADOWPLANELOCATION
 40
0
  0
ENDSEC
  0
SECTION
  2
CLASSES
  0
ENDSEC
  0
SECTION
  2
TABLES
  0
TABLE
  2
VPORT
  5
8
330
0
100
AcDbSymbolTable
 70
    1
  0
VPORT
  5
31
330
2
100
AcDbSymbolTableRecord
100
AcDbViewportTableRecord
  2
*ACTIVE
 70
    0
 10
0
 20
0
 11
1
 21
1
 12
-14.60891011872263
 22
-3.531063583198361
 13
0
 23
0
 14
10
 24
10
 15
10
 25
10
 16
0
 26
0
 36
1
 17
0
 27
0
 37
0
 40
52.89671720712838
 41
2.109947643979058
 42
50
 43
0
 44
0
 50
0
 51
0
 71
    0
 72
  100
 73
    1
 74
    3
 75
    0
 76
    1
 77
    0
 78
    0
281
    0
 65
    1
110
0
120
0
130
0
111
1
121
0
131
0
112
0
122
1
132
0
 79
    0
146
0
348
10020
 60
    7
 61
    5
292
1
282
    1
141
0
142
0
 63
  250
421
3358443
  0
ENDTAB
  0
TABLE
  2
LTYPE
  5
5
330
0
100
AcDbSymbolTable
 70
    4
  0
LTYPE
  5
14
330
5
100
AcDbSymbolTableRecord
100
AcDbLinetypeTableRecord
  2
ByBlock
 70
    0
  3

 72
   65
 73
    0
 40
0
  0
LTYPE
  5
15
330
5
100
AcDbSymbolTableRecord
100
AcDbLinetypeTableRecord
  2
ByLayer
 70
    0
  3

 72
   65
 73
    0
 40
0
  0
LTYPE
  5
16
330
5
100
AcDbSymbolTableRecord
100
AcDbLinetypeTableRecord
  2
Continuous
 70
    0
  3
Solid line
 72
   65
 73
    0
 40
0
  0
LTYPE
  5
32
330
5
100
AcDbSymbolTableRecord
100
AcDbLinetypeTableRecord
  2
DOT
 70
    0
  3
Dot . . . . . . . . . . . . . . . . . . . . . .
 72
   65
 73
    2
 40
6.35
 49
0
 74
    0
 49
-6.35
 74
    0
  0
LTYPE
  5
33
330
5
100
AcDbSymbolTableRecord
100
AcDbLinetypeTableRecord
  2
DOTTINY
 70
    0
  3
Dot (.15x) .....................................
 72
   65
 73
    2
 40
0.9525
 49
0
 74
    0
 49
-0.9525
 74
    0
  0
LTYPE
  5
34
330
5
100
AcDbSymbolTableRecord
100
AcDbLinetypeTableRecord
  2
DOT2
 70
    0
  3
Dot (.5x) .....................................
 72
   65
 73
    2
 40
3.175
 49
0
 74
    0
 49
-3.175
 74
    0
  0
LTYPE
  5
35
330
5
100
AcDbSymbolTableRecord
100
AcDbLinetypeTableRecord
  2
DOTX2
 70
    0
  3
Dot (2x) .  .  .  .  .  .  .  .  .  .  .  .  .
 72
   65
 73
    2
 40
12.7
 49
0
 74
    0
 49
-12.7
 74
    0
  0
LTYPE
  5
36
330
5
100
AcDbSymbolTableRecord
100
AcDbLinetypeTableRecord
  2
DASHED
 70
    0
  3
Dashed _ _ _ _ _ _ _ _ _ _ _ _ _ _ _ _ _
 72
   65
 73
    2
 40
19.05
 49
12.7
 74
    0
 49
-6.35
 74
    0
  0
LTYPE
  5
37
330
5
100
AcDbSymbolTableRecord
100
AcDbLinetypeTableRecord
  2
DASHEDTINY
 70
    0
  3
Dashed (.15x) _ _ _ _ _ _ _ _ _ _ _ _ _ _ _ _ _
 72
   65
 73
    2
 40
2.8575
 49
1.905
 74
    0
 49
-0.9525
 74
    0
  0
LTYPE
  5
38
330
5
100
AcDbSymbolTableRecord
100
AcDbLinetypeTableRecord
  2
DASHED2
 70
    0
  3
Dashed (.5x) _ _ _ _ _ _ _ _ _ _ _ _ _ _ _ _ _
 72
   65
 73
    2
 40
9.524999999999999
 49
6.35
 74
    0
 49
-3.175
 74
    0
  0
LTYPE
  5
39
330
5
100
AcDbSymbolTableRecord
100
AcDbLinetypeTableRecord
  2
DASHEDX2
 70
    0
  3
Dashed (2x) ____  ____  ____  ____  ____  ___
 72
   65
 73
    2
 40
38.09999999999999
 49
25.4
 74
    0
 49
-12.7
 74
    0
  0
LTYPE
  5
3A
330
5
100
AcDbSymbolTableRecord
100
AcDbLinetypeTableRecord
  2
DASHDOT
 70
    0
  3
Dash dot __ . __ . __ . __ . __ . __ . __ . __
 72
   65
 73
    4
 40
25.4
 49
12.7
 74
    0
 49
-6.35
 74
    0
 49
0
 74
    0
 49
-6.35
 74
    0
  0
LTYPE
  5
3B
330
5
100
AcDbSymbolTableRecord
100
AcDbLinetypeTableRecord
  2
DASHDOTTINY
 70
    0
  3
Dash dot (.15x) _._._._._._._._._._._._._._._.
 72
   65
 73
    4
 40
3.81
 49
1.905
 74
    0
 49
-0.9525
 74
    0
 49
0
 74
    0
 49
-0.9525
 74
    0
  0
LTYPE
  5
3C
330
5
100
AcDbSymbolTableRecord
100
AcDbLinetypeTableRecord
  2
DASHDOT2
 70
    0
  3
Dash dot (.5x) _._._._._._._._._._._._._._._.
 72
   65
 73
    4
 40
12.7
 49
6.35
 74
    0
 49
-3.175
 74
    0
 49
0
 74
    0
 49
-3.175
 74
    0
  0
LTYPE
  5
3D
330
5
100
AcDbSymbolTableRecord
100
AcDbLinetypeTableRecord
  2
DASHDOTX2
 70
    0
  3
Dash dot (2x) ____  .  ____  .  ____  .  ___
 72
   65
 73
    4
 40
50.8
 49
25.4
 74
    0
 49
-12.7
 74
    0
 49
0
 74
    0
 49
-12.7
 74
    0
  0
LTYPE
  5
3E
330
5
100
AcDbSymbolTableRecord
100
AcDbLinetypeTableRecord
  2
DIVIDE
 70
    0
  3
Divide ____ . . ____ . . ____ . . ____ . . ____
 72
   65
 73
    6
 40
31.75
 49
12.7
 74
    0
 49
-6.35
 74
    0
 49
0
 74
    0
 49
-6.35
 74
    0
 49
0
 74
    0
 49
-6.35
 74
    0
  0
LTYPE
  5
3F
330
5
100
AcDbSymbolTableRecord
100
AcDbLinetypeTableRecord
  2
DIVIDETINY
 70
    0
  3
Divide (.15x) __..__..__..__..__..__..__..__.._
 72
   65
 73
    6
 40
4.7625
 49
1.905
 74
    0
 49
-0.9525
 74
    0
 49
0
 74
    0
 49
-0.9525
 74
    0
 49
0
 74
    0
 49
-0.9525
 74
    0
  0
LTYPE
  5
40
330
5
100
AcDbSymbolTableRecord
100
AcDbLinetypeTableRecord
  2
DIVIDE2
 70
    0
  3
Divide (.5x) __..__..__..__..__..__..__..__.._
 72
   65
 73
    6
 40
15.875
 49
6.35
 74
    0
 49
-3.175
 74
    0
 49
0
 74
    0
 49
-3.175
 74
    0
 49
0
 74
    0
 49
-3.175
 74
    0
  0
LTYPE
  5
41
330
5
100
AcDbSymbolTableRecord
100
AcDbLinetypeTableRecord
  2
DIVIDEX2
 70
    0
  3
Divide (2x) ________  .  .  ________  .  .  _
 72
   65
 73
    6
 40
63.5
 49
25.4
 74
    0
 49
-12.7
 74
    0
 49
0
 74
    0
 49
-12.7
 74
    0
 49
0
 74
    0
 49
-12.7
 74
    0
  0
LTYPE
  5
42
330
5
100
AcDbSymbolTableRecord
100
AcDbLinetypeTableRecord
  2
BORDER
 70
    0
  3
Border __ __ . __ __ . __ __ . __ __ . __ __ .
 72
   65
 73
    6
 40
44.45
 49
12.7
 74
    0
 49
-6.35
 74
    0
 49
12.7
 74
    0
 49
-6.35
 74
    0
 49
0
 74
    0
 49
-6.35
 74
    0
  0
LTYPE
  5
43
330
5
100
AcDbSymbolTableRecord
100
AcDbLinetypeTableRecord
  2
BORDERTINY
 70
    0
  3
Border (.15x) __.__.__.__.__.__.__.__.__.__.__.
 72
   65
 73
    6
 40
6.6675
 49
1.905
 74
    0
 49
-0.9525
 74
    0
 49
1.905
 74
    0
 49
-0.9525
 74
    0
 49
0
 74
    0
 49
-0.9525
 74
    0
  0
LTYPE
  5
44
330
5
100
AcDbSymbolTableRecord
100
AcDbLinetypeTableRecord
  2
BORDER2
 70
    0
  3
Border (.5x) __.__.__.__.__.__.__.__.__.__.__.
 72
   65
 73
    6
 40
22.225
 49
6.35
 74
    0
 49
-3.175
 74
    0
 49
6.35
 74
    0
 49
-3.175
 74
    0
 49
0
 74
    0
 49
-3.175
 74
    0
  0
LTYPE
  5
45
330
5
100
AcDbSymbolTableRecord
100
AcDbLinetypeTableRecord
  2
BORDERX2
 70
    0
  3
Border (2x) ____  ____  .  ____  ____  .  ___
 72
   65
 73
    6
 40
88.89999999999999
 49
25.4
 74
    0
 49
-12.7
 74
    0
 49
25.4
 74
    0
 49
-12.7
 74
    0
 49
0
 74
    0
 49
-12.7
 74
    0
  0
LTYPE
  5
46
330
5
100
AcDbSymbolTableRecord
100
AcDbLinetypeTableRecord
  2
CENTER
 70
    0
  3
Center ____ _ ____ _ ____ _ ____ _ ____ _ ____
 72
   65
 73
    4
 40
50.8
 49
31.75
 74
    0
 49
-6.35
 74
    0
 49
6.35
 74
    0
 49
-6.35
 74
    0
  0
LTYPE
  5
47
330
5
100
AcDbSymbolTableRecord
100
AcDbLinetypeTableRecord
  2
CENTERTINY
 70
    0
  3
Center (.15x) ___ _ ___ _ ___ _ ___ _ ___ _ ___
 72
   65
 73
    4
 40
7.619999999999999
 49
4.7625
 74
    0
 49
-0.9525
 74
    0
 49
0.9525
 74
    0
 49
-0.9525
 74
    0
  0
LTYPE
  5
48
330
5
100
AcDbSymbolTableRecord
100
AcDbLinetypeTableRecord
  2
CENTER2
 70
    0
  3
Center (.5x) ___ _ ___ _ ___ _ ___ _ ___ _ ___
 72
   65
 73
    4
 40
28.575
 49
19.05
 74
    0
 49
-3.175
 74
    0
 49
3.175
 74
    0
 49
-3.175
 74
    0
  0
LTYPE
  5
49
330
5
100
AcDbSymbolTableRecord
100
AcDbLinetypeTableRecord
  2
CENTERX2
 70
    0
  3
Center (2x) ________  __  ________  __  _____
 72
   65
 73
    4
 40
101.6
 49
63.5
 74
    0
 49
-12.7
 74
    0
 49
12.7
 74
    0
 49
-12.7
 74
    0
  0
ENDTAB
  0
TABLE
  2
LAYER
  5
2
330
0
100
AcDbSymbolTable
 70
    1
  0
LAYER
  5
10
330
2
100
AcDbSymbolTableRecord
100
AcDbLayerTableRecord
  2
0
 70
    0
 62
    7
  6
CONTINUOUS
370
   -3
390
F
  0
ENDTAB
  0
TABLE
  2
STYLE
  5
3
330
0
100
AcDbSymbolTable
 70
    3
  0
STYLE
  5
4A
330
2
100
AcDbSymbolTableRecord
100
AcDbTextStyleTableRecord
  2
Standard
 70
    0
 40
0
 41
1
 50
0
 71
    0
 42
1
  3
txt
  4

  0
ENDTAB
  0
TABLE
  2
VIEW
  5
6
330
0
100
AcDbSymbolTable
 70
    0
  0
ENDTAB
  0
TABLE
  2
UCS
  5
7
330
0
100
AcDbSymbolTable
 70
    0
  0
ENDTAB
  0
TABLE
  2
APPID
  5
9
330
0
100
AcDbSymbolTable
 70
    1
  0
APPID
  5
12
330
9
100
AcDbSymbolTableRecord
100
AcDbRegAppTableRecord
  2
ACAD
 70
    0
  0
APPID
  5
4B
330
9
100
AcDbSymbolTableRecord
100
AcDbRegAppTableRecord
  2
LibreCad
 70
    0
  0
ENDTAB
  0
TABLE
  2
DIMSTYLE
  5
A
330
0
100
AcDbSymbolTable
 70
    1
100
AcDbDimStyleTable
 71
    1
  0
DIMSTYLE
105
4C
330
A
100
AcDbSymbolTableRecord
100
AcDbDimStyleTableRecord
  2
Standard
 70
    0
 40
1
 41
2.5
 42
0.625
 43
0.38
 44
1.25
 45
0
 46
0
 47
0
 48
0
 49
1
140
2.5
141
0.09
142
2.5
143
25.4
144
1
145
0
146
1
147
0.625
148
0
 71
    0
 72
    0
 73
    0
 74
    1
 75
    0
 76
    0
 77
    0
 78
    1
 79
    0
170
    0
171
    2
172
    0
173
    0
174
    0
175
    0
176
    0
177
    0
178
    0
179
    0
271
    2
272
    4
273
    2
274
    2
275
    0
276
    0
277
    2
278
    0
279
    0
280
    0
281
    0
282
    0
283
    1
284
    0
285
    0
286
    0
288
    0
289
    3
340
standard
341

371
   -2
372
   -2
  0
ENDTAB
  0
TABLE
  2
BLOCK_RECORD
  5
1
330
0
100
AcDbSymbolTable
 70
    2
  0
BLOCK_RECORD
  5
1F
330
1
100
AcDbSymbolTableRecord
100
AcDbBlockTableRecord
  2
*Model_Space
 70
    0
280
    1
281
    0
  0
BLOCK_RECORD
  5
1E
330
1
100
AcDbSymbolTableRecord
100
AcDbBlockTableRecord
  2
*Paper_Space
 70
    0
280
    1
281
    0
  0
BLOCK_RECORD
  5
4D
330
1
100
AcDbSymbolTableRecord
100
AcDbBlockTableRecord
  2
REAR_BUMPER_V6001_CS001
 70
    0
280
    1
281
    0
  0
ENDTAB
  0
ENDSEC
  0
SECTION
  2
BLOCKS
  0
BLOCK
  5
20
330
1F
100
AcDbEntity
  8
0
100
AcDbBlockBegin
  2
*Model_Space
 70
    0
 10
0
 20
0
 30
0
  3
*Model_Space
  1

  0
ENDBLK
  5
21
330
1F
100
AcDbEntity
  8
0
100
AcDbBlockEnd
  0
BLOCK
  5
1C
330
1B
100
AcDbEntity
  8
0
100
AcDbBlockBegin
  2
*Paper_Space
 70
    0
 10
0
 20
0
 30
0
  3
*Paper_Space
  1

  0
ENDBLK
  5
1D
330
1F
100
AcDbEntity
  8
0
100
AcDbBlockEnd
  0
BLOCK
  5
4E
330
4D
100
AcDbEntity
  8
0
100
AcDbBlockBegin
  2
REAR_BUMPER_V6001_CS001
 70
    0
 10
0
 20
0
  3
REAR_BUMPER_V6001_CS001
  1

  0
LWPOLYLINE
  5
50
100
AcDbEntity
  8
0
  6
ByLayer
 62
    0
370
   -1
100
AcDbPolyline
 90
  542
 70
    1
 43
0
 10
-78.5008728027
 20
-24.9409034729
 10
-78.5
 20
-25
 10
-78.5
 20
-25.1690907478
 10
-78.5
 20
-25.2254543304
 10
-78.4988975525
 20
-25.2829084396
 10
-78.49779510499999
 20
-25.3403625488
 10
-78.4944953918
 20
-25.3977327347
 10
-78.4911956787
 20
-25.4551029205
 10
-78.48570251460001
 20
-25.512304306
 10
-78.48020935060001
 20
-25.5695056915
 10
-78.4725265503
 20
-25.6264543533
 10
-78.46484375
 20
-25.6834030151
 10
-78.45498275760001
 20
-25.7400150299
 10
-78.4451217651
 20
-25.7966270447
 10
-78.43310546879999
 20
-25.8528213501
 10
-78.4210891724
 20
-25.9090156555
 10
-78.4069252014
 20
-25.9647073746
 10
-78.3927612305
 20
-26.0203990936
 10
-78.3764762878
 20
-26.0755081177
 10
-78.36019134519999
 20
-26.1306171417
 10
-78.3418045044
 20
-26.1850614548
 10
-78.3234176636
 20
-26.2395057678
 10
-78.3029632568
 20
-26.2932062149
 10
-78.2825088501
 20
-26.346906662
 10
-78.2600097656
 20
-26.3997840881
 10
-78.23751068120001
 20
-26.4526615143
 10
-78.21300506590001
 20
-26.5046377182
 10
-78.18849945069999
 20
-26.5566139221
 10
-78.1620178223
 20
-26.6076135635
 10
-78.13553619379999
 20
-26.658613205
 10
-78.10712432859999
 20
-26.7085618973
 10
-78.0787124634
 20
-26.7585105896
 10
-78.04840469360001
 20
-26.8073339462
 10
-78.0180969238
 20
-26.8561573029
 10
-77.9859428406
 20
-26.9037837982
 10
-77.9537887573
 20
-26.9514102936
 10
-77.919834137
 20
-26.9977703094
 10
-77.8858795166
 20
-27.0441303253
 10
-77.8501739502
 20
-27.0891561508
 10
-77.8144683838
 20
-27.1341819763
 10
-77.77706527709999
 20
-27.1778068542
 10
-77.7396621704
 20
-27.2214317322
 10
-77.7006149292
 20
-27.2635917664
 10
-77.66156768800001
 20
-27.3057518005
 10
-77.62093353269999
 20
-27.3463859558
 10
-77.5802993774
 20
-27.3870201111
 10
-77.5381393433
 20
-27.4260673523
 10
-77.49597930909999
 20
-27.4651145935
 10
-77.45235443120001
 20
-27.5025186539
 10
-77.4087295532
 20
-27.5399227142
 10
-77.36370468139999
 20
-27.5756282806
 10
-77.3186798096
 20
-27.611333847
 10
-77.27231979370001
 20
-27.6452884674
 10
-77.2259597778
 20
-27.6792430878
 10
-77.1783294678
 20
-27.711397171
 10
-77.13069915769999
 20
-27.7435512543
 10
-77.0818786621
 20
-27.7738571167
 10
-77.0330581665
 20
-27.8041629791
 10
-76.9831085205
 20
-27.8325767517
 10
-76.93315887449999
 20
-27.8609905243
 10
-76.88216018679999
 20
-27.887471199
 10
-76.831161499
 20
-27.9139518738
 10
-76.77918243409999
 20
-27.9384584427
 10
-76.7272033691
 20
-27.9629650116
 10
-76.6743278503
 20
-27.9854631424
 10
-76.6214523315
 20
-28.0079612732
 10
-76.56775283810001
 20
-28.0284175873
 10
-76.5140533447
 20
-28.0488739014
 10
-76.4596061707
 20
-28.0672588348
 10
-76.40515899659999
 20
-28.0856437683
 10
-76.35005187989999
 20
-28.1019296646
 10
-76.29494476319999
 20
-28.1182155609
 10
-76.23925399780001
 20
-28.1323785782
 10
-76.1835632324
 20
-28.1465415955
 10
-76.12736892700001
 20
-28.1585607529
 10
-76.07117462159999
 20
-28.1705799103
 10
-76.0145606995
 20
-28.1804380417
 10
-75.95794677729999
 20
-28.1902961731
 10
-75.90099716189999
 20
-28.1979789734
 10
-75.84404754640001
 20
-28.2056617737
 10
-75.7868461609
 20
-28.2111568451
 10
-75.7296447754
 20
-28.2166519165
 10
-75.6722755432
 20
-28.2199525833
 10
-75.614906311
 20
-28.2232532501
 10
-75.5574531555
 20
-28.2243537903
 10
-75.5
 20
-28.2254543304
 10
-69.30518150330001
 20
-28.2254543304
 10
-66.9725055695
 20
-28.2254543304
 10
-66.16929626460001
 20
-28.2254543304
 10
-66.1729030166
 20
-28.2945582819
 10
-66.173106881
 20
-28.2979637404
 10
-66.1838228093
 20
-28.442302749
 10
-66.1841263881
 20
-28.4457007112
 10
-66.19911229340001
 20
-28.5896596695
 10
-66.1995154091
 20
-28.5930472965
 10
-66.2187638395
 20
-28.736499521
 10
-66.21926631469999
 20
-28.739873841
 10
-66.24275491420001
 20
-28.8826907854
 10
-66.24335603919999
 20
-28.8860489594
 10
-66.27106245189999
 20
-29.0281095291
 10
-66.2717618719
 20
-29.0314485853
 10
-66.3036711939
 20
-29.172624234
 10
-66.3044681991
 20
-29.1759413335
 10
-66.3405506225
 20
-29.3161091037
 10
-66.34144468069999
 20
-29.3194014077
 10
-66.38165549369999
 20
-29.4584383419
 10
-66.3826457177
 20
-29.4617029671
 10
-66.4269625644
 20
-29.5994879709
 10
-66.42804806709999
 20
-29.6027222117
 10
-66.47643368769999
 20
-29.7391341906
 10
-66.4776137594
 20
-29.7423351193
 10
-66.5300159901
 20
-29.8772511158
 10
-66.5312893887
 20
-29.8804161155
 10
-66.5876635178
 20
-30.0137224872
 10
-66.5890291788
 20
-30.0168487188
 10
-66.6493379464
 20
-30.1484243712
 10
-66.6507946278
 20
-30.1515092179
 10
-66.7149709662
 20
-30.2812405085
 10
-66.7165177808
 20
-30.2842812644
 10
-66.7845095262
 20
-30.4120545507
 10
-66.78614469990001
 20
-30.4150486431
 10
-66.85789223659999
 20
-30.5407502826
 10
-66.85961452719999
 20
-30.5436951388
 10
-66.9350507875
 20
-30.6672152151
 10
-66.9368587757
 20
-30.6701082624
 10
-67.0159315958
 20
-30.7913387219
 10
-67.01782368470001
 20
-30.7941774763
 10
-67.100451093
 20
-30.9130121284
 10
-67.1024256858
 20
-30.9157941504
 10
-67.1885331626
 20
-31.0321268046
 10
-67.19058848509999
 20
-31.0348496988
 10
-67.2801164146
 20
-31.1485797536
 10
-67.2822506924
 20
-31.1512412134
 10
-67.3751021991
 20
-31.2622699303
 10
-67.3773136579
 20
-31.2648676048
 10
-67.47341422220001
 20
-31.3730943821
 10
-67.47570091039999
 20
-31.3756260536
 10
-67.5749685606
 20
-31.4809596048
 10
-67.5773285264
 20
-31.483423144
 10
-67.6796738389
 20
-31.5857665935
 10
-67.68210513059999
 20
-31.5881597827
 10
-67.78743122989999
 20
-31.6874274328
 10
-67.7899317184
 20
-31.6897483202
 10
-67.8981640847
 20
-31.7858488845
 10
-67.90073146349999
 20
-31.7880953853
 10
-68.01175831730001
 20
-31.880948755
 10
-68.01439045719999
 20
-31.8831190063
 10
-68.128122375
 20
-31.9726394838
 10
-68.1308171469
 20
-31.9747315782
 10
-68.2471498012
 20
-32.0608446439
 10
-68.2499048984
 20
-32.0628567184
 10
-68.3687414135
 20
-32.1454841266
 10
-68.3715541748
 20
-32.1474146287
 10
-68.4927827713
 20
-32.2264837228
 10
-68.4956510674
 20
-32.2283308338
 10
-68.6191674177
 20
-32.30377082
 10
-68.6220885873
 20
-32.3055329432
 10
-68.7477958158
 20
-32.3772804799
 10
-68.75076737489999
 20
-32.3789561958
 10
-68.8785387982
 20
-32.4469479412
 10
-68.8815582628
 20
-32.4485357416
 10
-69.0112895534
 20
-32.51271208
 10
-69.0143544395
 20
-32.5142106343
 10
-69.1459263659
 20
-32.574515676
 10
-69.14903365710001
 20
-32.5759236534
 10
-69.2823418918
 20
-32.6323015085
 10
-69.28548928169999
 20
-32.6336176672
 10
-69.4204071413
 20
-32.686019898
 10
-69.42359179100001
 20
-32.6872432619
 10
-69.5600000439
 20
-32.7356251566
 10
-69.5632192921
 20
-32.7367545726
 10
-69.7010061588
 20
-32.7810714194
 10
-69.7042569891
 20
-32.7821058228
 10
-69.8432957863
 20
-32.8223203619
 10
-69.84657571469999
 20
-32.8232590431
 10
-69.9867397589
 20
-32.8593377405
 10
-69.99004576910001
 20
-32.8601797237
 10
-70.1312232808
 20
-32.8920890456
 10
-70.1345525341
 20
-32.8928337097
 10
-70.2766093779
 20
-32.9205438484
 10
-70.2799590354
 20
-32.9211904836
 10
-70.4227834317
 20
-32.9446790831
 10
-70.42615065459999
 20
-32.9452272459
 10
-70.56960101609999
 20
-32.9644719503
 10
-70.572982788
 20
-32.9649211085
 10
-70.7169398833
 20
-32.9799070138
 10
-70.72033354289999
 20
-32.9802567238
 10
-70.8646706885
 20
-32.9909726521
 10
-70.86807304200001
 20
-32.9912226477
 10
-71.0126710065
 20
-32.9976536951
 10
-71.01607921510001
 20
-32.9978037989
 10
-71.0277654958
 20
-32.9979986146
 10
-71.1642074585
 20
-33
 10
-84.7989432756
 20
-33
 10
-85.82154846189999
 20
-33
 10
-85.84210311530001
 20
-32.9996971308
 10
-85.84552889059999
 20
-32.9996466526
 10
-85.85032497749999
 20
-32.9995759831
 10
-85.85751910579999
 20
-32.9994699789
 10
-85.86950931920001
 20
-32.9992933052
 10
-85.8934897497
 20
-32.9989399577
 10
-85.9654310375
 20
-32.9978799154
 10
-85.9688568115
 20
-32.9978294373
 10
-85.9722797467
 20
-32.9976780914
 10
-86.1177123314
 20
-32.9912209622
 10
-86.12112923399999
 20
-32.9909687487
 10
-86.2654663796
 20
-32.9802528204
 10
-86.2688744108
 20
-32.9799000941
 10
-86.41283150610001
 20
-32.9649141888
 10
-86.41622764970001
 20
-32.9644612159
 10
-86.55967801120001
 20
-32.9452165116
 10
-86.56305925079999
 20
-32.9446636469
 10
-86.7058836472
 20
-32.9211750474
 10
-86.709247144
 20
-32.9205228232
 10
-86.85130398779999
 20
-32.8928126845
 10
-86.854646903
 20
-32.8920616331
 10
-86.9958244147
 20
-32.8601523111
 10
-86.99914373209999
 20
-32.8593031421
 10
-87.1393077762
 20
-32.8232244447
 10
-87.1426006569
 20
-32.8222777792
 10
-87.2816394541
 20
-32.7820632402
 10
-87.2849030591
 20
-32.7810200541
 10
-87.4226899259
 20
-32.7367032073
 10
-87.42592123910001
 20
-32.7355642989
 10
-87.562329492
 20
-32.6871824042
 10
-87.56552585199999
 20
-32.6859487495
 10
-87.7004437115
 20
-32.6335465187
 10
-87.7036024568
 20
-32.6322191821
 10
-87.83691069149999
 20
-32.575841327
 10
-87.8400288058
 20
-32.5744216393
 10
-87.9716007323
 20
-32.5141165977
 10
-87.9746757317
 20
-32.5126055347
 10
-88.10440702229999
 20
-32.4484291963
 10
-88.1074362454
 20
-32.4468282662
 10
-88.2352151207
 20
-32.3788365208
 10
-88.238195906
 20
-32.3771469656
 10
-88.3638956825
 20
-32.3053994289
 10
-88.36682519129999
 20
-32.3036228454
 10
-88.4903415415
 20
-32.2281828591
 10
-88.49321764450001
 20
-32.2263207554
 10
-88.6144536929
 20
-32.1472516613
 10
-88.6172735513
 20
-32.1453056343
 10
-88.7361026145
 20
-32.0626782261
 10
-88.7388639217
 20
-32.060649917
 10
-88.8551965759
 20
-31.9745368513
 10
-88.85789702549999
 20
-31.9724280787
 10
-88.9716289433
 20
-31.8829076012
 10
-88.97426587379999
 20
-31.8807201838
 10
-89.08529272760001
 20
-31.787866814
 10
-89.0878641872
 20
-31.7856026592
 10
-89.1960965535
 20
-31.6895020949
 10
-89.1986002358
 20
-31.6871631543
 10
-89.30393378700001
 20
-31.5878955041
 10
-89.3063675627
 20
-31.5854838181
 10
-89.4087054232
 20
-31.4831403686
 10
-89.41106698590001
 20
-31.4806580221
 10
-89.5103346361
 20
-31.3753244709
 10
-89.5126220339
 20
-31.3727736372
 10
-89.6087225982
 20
-31.2645468599
 10
-89.6109337022
 20
-31.261929757
 10
-89.70379266090001
 20
-31.1509010402
 10
-89.7059258741
 20
-31.1482198859
 10
-89.79544635169999
 20
-31.034489831
 10
-89.7974997224
 20
-31.0317470206
 10
-89.8836071992
 20
-30.9154143664
 10
-89.8855785983
 20
-30.9126122507
 10
-89.9682060066
 20
-30.7937775986
 10
-89.97009419219999
 20
-30.7909186174
 10
-90.0491670122
 20
-30.669688158
 10
-90.0509702099
 20
-30.6667747508
 10
-90.1264064702
 20
-30.5432546746
 10
-90.1281229057
 20
-30.5402894586
 10
-90.1998704424
 20
-30.414587819
 10
-90.20149887380001
 20
-30.4115732781
 10
-90.2694980712
 20
-30.2837999917
 10
-90.2710369016
 20
-30.2807388317
 10
-90.335205788
 20
-30.1510075411
 10
-90.33665377539999
 20
-30.1479023346
 10
-90.396962543
 20
-30.0163266822
 10
-90.3983184455
 20
-30.0131801794
 10
-90.4546925746
 20
-29.8798738077
 10
-90.4559551501
 20
-29.8766887144
 10
-90.50835738080001
 20
-29.7417727179
 10
-90.5095255648
 20
-29.7385517842
 10
-90.5579111855
 20
-29.6021398053
 10
-90.5589839133
 20
-29.5988859144
 10
-90.6033007601
 20
-29.4611009106
 10
-90.60427714470001
 20
-29.4578167683
 10
-90.64448795769999
 20
-29.3187798341
 10
-90.6453672894
 20
-29.3154683679
 10
-90.6814497128
 20
-29.1753005977
 10
-90.6822311044
 20
-29.1719646909
 10
-90.71414042639999
 20
-29.0307890422
 10
-90.7148231681
 20
-29.0274315335
 10
-90.7425295808
 20
-28.8853709638
 10
-90.7431129631
 20
-28.8819947809
 10
-90.7666015626
 20
-28.7391778365
 10
-90.7670854079
 20
-28.7357859512
 10
-90.78633383819999
 20
-28.5923337267
 10
-90.78671743690001
 20
-28.5889290666
 10
-90.8017033422
 20
-28.4449701083
 10
-90.8019865168
 20
-28.441555601
 10
-90.8127024451
 20
-28.2972165924
 10
-90.8128848408
 20
-28.2937952541
 10
-90.81931588819999
 20
-28.1492010156
 10
-90.8193975049
 20
-28.1457757739
 10
-90.82154367139999
 20
-28.001054852
 10
-90.8215243317
 20
-27.9976287232
 10
-90.81937816529999
 20
-27.8529078013
 10
-90.81925769190001
 20
-27.8494836685
 10
-90.81282664450001
 20
-27.70488943
 10
-90.8126055696
 20
-27.7014703983
 10
-90.80188964129999
 20
-27.5571313897
 10
-90.8011418663
 20
-27.5494261453
 10
-90.7919845581
 20
-27.4571018219
 10
-90.66636657710001
 20
-27.3807086945
 10
-90.54304504389999
 20
-27.300655365
 10
-90.42213439939999
 20
-27.2170085907
 10
-90.30373382569999
 20
-27.1298446655
 10
-90.1879501343
 20
-27.0392379761
 10
-90.0748748779
 20
-26.9452648163
 10
-89.9646148682
 20
-26.8480091095
 10
-89.85726165769999
 20
-26.7475509644
 10
-89.75290679930001
 20
-26.6439819336
 10
-89.6516418457
 20
-26.5373897552
 10
-89.5535583496
 20
-26.4278659821
 10
-89.45873260499999
 20
-26.3155040741
 10
-89.36725616459999
 20
-26.2004051208
 10
-89.2792053223
 20
-26.0826644897
 10
-89.1946487427
 20
-25.962387085
 10
-89.1136627197
 20
-25.839673996
 10
-89.0363235474
 20
-25.7146339417
 10
-88.9626998901
 20
-25.5873756409
 10
-88.8928451538
 20
-25.4580059052
 10
-88.8268203735
 20
-25.3266372681
 10
-88.7646865845
 20
-25.1933860779
 10
-88.7065048218
 20
-25.0583648682
 10
-88.6523132324
 20
-24.9216899872
 10
-88.6021652222
 20
-24.7834835052
 10
-88.55609893800001
 20
-24.6438598633
 10
-88.51416015620001
 20
-24.5029449463
 10
-88.4763793945
 20
-24.3608551025
 10
-88.4428024292
 20
-24.2177181244
 10
-88.41343688960001
 20
-24.0736541748
 10
-88.4051757812
 20
-24.0322349548
 10
-88.3874649048
 20
-23.9453674316
 10
-88.3743972778
 20
-23.8875526428
 10
-88.3541275024
 20
-23.8012470245
 10
-88.3393539429
 20
-23.743844986
 10
-88.3165435791
 20
-23.6581756592
 10
-88.3000732422
 20
-23.6012367249
 10
-88.27474517820001
 20
-23.5162792206
 10
-88.25659637450001
 20
-23.4598529816
 10
-88.2287643433
 20
-23.375680542
 10
-88.2089492798
 20
-23.3198165894
 10
-88.1786407471
 20
-23.2365036011
 10
-88.1571807861
 20
-23.1812522888
 10
-88.1244277954
 20
-23.0988708496
 10
-88.1013412476
 20
-23.044278717
 10
-88.06616668700001
 20
-22.9629009247
 10
-88.04147186279999
 20
-22.9090175629
 10
-88.0039077759
 20
-22.8287155151
 10
-87.9776260376
 20
-22.7755874634
 10
-87.9377044678
 20
-22.6964298248
 10
-87.9098602295
 20
-22.6441036224
 10
-87.8676177979
 20
-22.566160202
 10
-87.83823547359999
 20
-22.5146823883
 10
-87.7937088013
 20
-22.4380207062
 10
-87.7628128052
 20
-22.3874362946
 10
-87.7160385132
 20
-22.3121238708
 10
-87.68365631099999
 20
-22.2624771118
 10
-87.6346801758
 20
-22.1885803223
 10
-87.6008422852
 20
-22.1399147034
 10
-87.5497055054
 20
-22.0674964905
 10
-87.51444244379999
 20
-22.0198554993
 10
-87.4611862183
 20
-21.9489810944
 10
-87.42452545170001
 20
-21.9024059296
 10
-87.3691955566
 20
-21.8331348419
 10
-87.3311706543
 20
-21.7876659393
 10
-87.2738220215
 20
-21.7200611115
 10
-87.23446350099999
 20
-21.6757396698
 10
-87.1751373291
 20
-21.6098583221
 10
-87.13448791499999
 20
-21.5667217255
 10
-87.0732437134
 20
-21.5026222229
 10
-87.03133087160001
 20
-21.460710144
 10
-86.9682189941
 20
-21.3984485626
 10
-86.92508239750001
 20
-21.3577960968
 10
-86.8601623535
 20
-21.2974262238
 10
-86.8158416748
 20
-21.258070755
 10
-86.74916381840001
 20
-21.1996452332
 10
-86.703692627
 20
-21.1616195679
 10
-86.6353164673
 20
-21.1051898956
 10
-86.5887435913
 20
-21.068529129
 10
-86.51872863769999
 20
-21.014144516
 10
-86.4710845947
 20
-20.9788791656
 10
-86.39949493410001
 20
-20.926587677
 10
-86.35083160400001
 20
-20.8927505493
 10
-86.27772674560001
 20
-20.842596817
 10
-86.2280776978
 20
-20.8102161407
 10
-86.15352630620001
 20
-20.7622436523
 10
-86.1029434204
 20
-20.7313484192
 10
-86.02700042719999
 20
-20.6856006622
 10
-85.97552337650001
 20
-20.6562175751
 10
-85.8982666016
 20
-20.6127334595
 10
-85.8459411621
 20
-20.5848892212
 10
-85.7674346924
 20
-20.5437076569
 10
-85.7143066406
 20
-20.5174266815
 10
-85.634614563
 20
-20.4785820007
 10
-85.58072967530001
 20
-20.4538864136
 10
-85.49992523189999
 20
-20.417414093
 10
-85.4453323364
 20
-20.3943260193
 10
-85.36348876949999
 20
-20.3602558136
 10
-85.30823669430001
 20
-20.3387958527
 10
-85.22541809080001
 20
-20.3071598053
 10
-85.1695556641
 20
-20.2873462677
 10
-85.0858398437
 20
-20.2581718445
 10
-85.0294128418
 20
-20.2400222778
 10
-84.9448684692
 20
-20.2133335114
 10
-84.887928772
 20
-20.1968647003
 10
-84.8026382446
 20
-20.1726856232
 10
-84.7452377319
 20
-20.1579105377
 10
-84.6592651367
 20
-20.1362628937
 10
-84.601449585
 20
-20.1231960297
 10
-84.5148773193
 20
-20.1040969849
 10
-84.4567016602
 20
-20.0927490234
 10
-84.36960296629999
 20
-20.0762168884
 10
-84.3111160278
 20
-20.0665969849
 10
-84.2235687256
 20
-20.052646637
 10
-84.1648223877
 20
-20.0447654724
 10
-84.0768951416
 20
-20.0334072113
 10
-84.0179382324
 20
-20.0272693634
 10
-83.9297180176
 20
-20.0185134888
 10
-83.8706085205
 20
-20.014125824
 10
-83.7821685791
 20
-20.0079814911
 10
-83.7229522705
 20
-20.0053470612
 10
-83.6343704224
 20
-20.0018188477
 10
-83.5751052856
 20
-20.0009407043
 10
-83.4864547729
 20
-20.000030899
 10
-83.4271896362
 20
-20.0009090424
 10
-83.3385528564
 20
-20.0026187897
 10
-83.2793365479
 20
-20.0052532196
 10
-83.19078674319999
 20
-20.0095813751
 10
-83.1316772461
 20
-20.0139690399
 10
-83.043296814
 20
-20.0209121704
 10
-82.9843399048
 20
-20.0270500183
 10
-82.8961975098
 20
-20.0366024017
 10
-82.8374511719
 20
-20.0444835663
 10
-82.7496337891
 20
-20.056634903
 10
-82.69114685060001
 20
-20.0662548065
 10
-82.60372772220001
 20
-20.0809959412
 10
-82.545552063
 20
-20.0923439026
 10
-82.4586090088
 20
-20.1096622467
 10
-82.40079345700001
 20
-20.1227291107
 10
-82.3143951416
 20
-20.1426086426
 10
-82.2569946289
 20
-20.157383728
 10
-82.17122344969999
 20
-20.1798072815
 10
-82.1142837524
 20
-20.1962760925
 10
-82.0292129517
 20
-20.2212242126
 10
-81.9727859497
 20
-20.2393737793
 10
-81.8884887695
 20
-20.2668247223
 10
-81.8326263428
 20
-20.2866382599
 10
-81.7491760254
 20
-20.3165679932
 10
-81.6939239502
 20
-20.3380279541
 10
-81.6113937378
 20
-20.3704101562
 10
-81.55680084230001
 20
-20.39349823
 10
-81.47526855469999
 20
-20.4283054352
 10
-81.421383667
 20
-20.4530010223
 10
-81.34090881349999
 20
-20.4902023315
 10
-81.28778076170001
 20
-20.5164833069
 10
-81.2084457397
 20
-20.5560455322
 10
-81.1561203003
 20
-20.5838897705
 10
-81.0779891968
 20
-20.6257797241
 10
-81.026512146
 20
-20.6551628113
 10
-80.9496490479
 20
-20.6993427277
 10
-80.8990661621
 20
-20.7302379608
 10
-80.8235443115
 20
-20.7766700745
 10
-80.7738952637
 20
-20.8090507507
 10
-80.6997741699
 20
-20.8576938629
 10
-80.6511108398
 20
-20.8915309906
 10
-80.5784637451
 20
-20.9423427582
 10
-80.5308197021
 20
-20.9776081085
 10
-80.4597061157
 20
-21.0305438995
 10
-80.4131332397
 20
-21.0672046661
 10
-80.3436126709
 20
-21.1222198486
 10
-80.2981414795
 20
-21.1602455139
 10
-80.2302780151
 20
-21.2172897339
 10
-80.18595733639999
 20
-21.2566452026
 10
-80.1198104858
 20
-21.3156703949
 10
-80.07667388919999
 20
-21.3563228607
 10
-80.01229858400001
 20
-21.4172763824
 10
-79.97038574219999
 20
-21.4591884613
 10
-79.9078369141
 20
-21.5220176697
 10
-79.8671875
 20
-21.5651542664
 10
-79.8065246582
 20
-21.6298042297
 10
-79.7671661377
 20
-21.6741256714
 10
-79.70844421389999
 20
-21.7405403137
 10
-79.6704193115
 20
-21.7860092163
 10
-79.6136795044
 20
-21.8541301727
 10
-79.5770187378
 20
-21.9007053375
 10
-79.52232055659999
 20
-21.9704719543
 10
-79.4870574951
 20
-22.0181129456
 10
-79.43444213870001
 20
-22.0894657135
 10
-79.40060424799999
 20
-22.1381313324
 10
-79.3501220703
 20
-22.2110084534
 10
-79.31773986819999
 20
-22.2606552124
 10
-79.2694320679
 20
-22.3349914551
 10
-79.2385360718
 20
-22.3855758667
 10
-79.19244384770001
 20
-22.4613071442
 10
-79.1630615234
 20
-22.5127849579
 10
-79.1192306519
 20
-22.5898460388
 10
-79.09138641360001
 20
-22.6421722412
 10
-79.049848938
 20
-22.7204933167
 10
-79.0235671997
 20
-22.7736213684
 10
-78.9843643188
 20
-22.8531360626
 10
-78.95966949460001
 20
-22.9070194244
 10
-78.92282867430001
 20
-22.9876579285
 10
-78.8997421265
 20
-23.042250061
 10
-78.8653045654
 20
-23.1239425659
 10
-78.84384460450001
 20
-23.1791938782
 10
-78.8118377686
 20
-23.2618671417
 10
-78.7920227051
 20
-23.3177310944
 10
-78.76246948239999
 20
-23.4013141632
 10
-78.74432067870001
 20
-23.4577404022
 10
-78.7172485352
 20
-23.5421611786
 10
-78.7007781982
 20
-23.5991001129
 10
-78.6762145996
 20
-23.6842830658
 10
-78.66144104
 20
-23.7416851044
 10
-78.6394042969
 20
-23.8275569916
 10
-78.6263366699
 20
-23.8853717804
 10
-78.6068496704
 20
-23.9718570709
 10
-78.59550323489999
 20
-24.030034256
 10
-78.5785751343
 20
-24.1170585632
 10
-78.5689559937
 20
-24.1755455017
 10
-78.5546096802
 20
-24.2630310059
 10
-78.54672698970001
 20
-24.3217781067
 10
-78.53497619629999
 20
-24.4096492767
 10
-78.528793335
 20
-24.4691127777
 10
-78.5196380615
 20
-24.5572929382
 10
-78.51527404789999
 20
-24.6162345886
 10
-78.50872802729999
 20
-24.7046470642
 10
-78.5061096191
 20
-24.7636917114
 10
-78.5021820068
 20
-24.8522586823
  0
LWPOLYLINE
  5
51
100
AcDbEntity
  8
0
  6
ByLayer
 62
    0
370
   -1
100
AcDbPolyline
 90
  314
 70
    1
 43
0
 10
-80.7511024475
 20
-24.9449863434
 10
-80.75220489500001
 20
-24.8899726868
 10
-80.7555046082
 20
-24.8350477219
 10
-80.7588043213
 20
-24.780122757
 10
-80.7643013
 20
-24.7253742218
 10
-80.7697982788
 20
-24.6706256866
 10
-80.7774810791
 20
-24.6161403656
 10
-80.7851638794
 20
-24.5616550446
 10
-80.79501724239999
 20
-24.5075206757
 10
-80.8048706055
 20
-24.4533863068
 10
-80.81688690190001
 20
-24.3996896744
 10
-80.8289031982
 20
-24.345993042
 10
-80.8430557251
 20
-24.2928199768
 10
-80.85720825200001
 20
-24.2396469116
 10
-80.8734741211
 20
-24.1870822906
 10
-80.8897399902
 20
-24.1345176697
 10
-80.9081001282
 20
-24.0826463699
 10
-80.92646026609999
 20
-24.0307750702
 10
-80.9468803406
 20
-23.9796800613
 10
-80.967300415
 20
-23.9285850525
 10
-80.98974609379999
 20
-23.8783483505
 10
-81.0121917725
 20
-23.8281116486
 10
-81.0366325378
 20
-23.7788124084
 10
-81.0610733032
 20
-23.7295131683
 10
-81.08746719360001
 20
-23.6812314987
 10
-81.11386108400001
 20
-23.6329498291
 10
-81.14216232299999
 20
-23.5857629776
 10
-81.17046356199999
 20
-23.5385761261
 10
-81.20063018800001
 20
-23.492559433
 10
-81.230796814
 20
-23.4465427399
 10
-81.2627830505
 20
-23.4017696381
 10
-81.2947692871
 20
-23.3569965363
 10
-81.32852172849999
 20
-23.313539505
 10
-81.3622741699
 20
-23.2700824738
 10
-81.3977355957
 20
-23.2280101776
 10
-81.43319702150001
 20
-23.1859378815
 10
-81.4703140259
 20
-23.1453180313
 10
-81.5074310303
 20
-23.1046981812
 10
-81.5461425781
 20
-23.0655956268
 10
-81.584854126
 20
-23.0264930725
 10
-81.6251029968
 20
-22.9889717102
 10
-81.6653518677
 20
-22.9514503479
 10
-81.7070655823
 20
-22.9155683517
 10
-81.7487792969
 20
-22.8796863556
 10
-81.79189682010001
 20
-22.8455018997
 10
-81.8350143433
 20
-22.8113174438
 10
-81.87946701049999
 20
-22.778886795
 10
-81.9239196777
 20
-22.7464561462
 10
-81.96963119510001
 20
-22.7158288956
 10
-82.0153427124
 20
-22.6852016449
 10
-82.0622444153
 20
-22.6564283371
 10
-82.1091461182
 20
-22.6276550293
 10
-82.1571617126
 20
-22.6007804871
 10
-82.2051773071
 20
-22.5739059448
 10
-82.2542266846
 20
-22.5489749908
 10
-82.30327606199999
 20
-22.5240440369
 10
-82.3532867432
 20
-22.5010948181
 10
-82.40329742430001
 20
-22.4781455994
 10
-82.4541854858
 20
-22.4572162628
 10
-82.5050735474
 20
-22.4362869263
 10
-82.5567588806
 20
-22.4174098969
 10
-82.6084442139
 20
-22.3985328674
 10
-82.6608428955
 20
-22.3817386627
 10
-82.71324157710001
 20
-22.364944458
 10
-82.7662696838
 20
-22.3502607346
 10
-82.8192977905
 20
-22.3355770111
 10
-82.8728713989
 20
-22.3230266571
 10
-82.9264450073
 20
-22.3104763031
 10
-82.9804801941
 20
-22.3000793457
 10
-83.0345153809
 20
-22.2896823883
 10
-83.0889205933
 20
-22.28145504
 10
-83.1433258057
 20
-22.2732276917
 10
-83.1980171204
 20
-22.2671842575
 10
-83.2527084351
 20
-22.2611408234
 10
-83.307598114
 20
-22.2572908401
 10
-83.362487793
 20
-22.2534408569
 10
-83.41748809809999
 20
-22.251789093
 10
-83.47248840330001
 20
-22.2501373291
 10
-83.527507782
 20
-22.2506875992
 10
-83.58252716059999
 20
-22.2512378693
 10
-83.6374855042
 20
-22.2539901733
 10
-83.69244384770001
 20
-22.2567424774
 10
-83.7472419739
 20
-22.2616901398
 10
-83.8020401001
 20
-22.2666378021
 10
-83.8566017151
 20
-22.273774147
 10
-83.9111633301
 20
-22.2809104919
 10
-83.9653930664
 20
-22.2902240753
 10
-84.0196228027
 20
-22.2995376587
 10
-84.0734367371
 20
-22.3110141754
 10
-84.12725067140001
 20
-22.3224906921
 10
-84.1805610657
 20
-22.3361110687
 10
-84.23387146
 20
-22.3497314453
 10
-84.2865982056
 20
-22.3654727936
 10
-84.3393249512
 20
-22.3812141418
 10
-84.3913764954
 20
-22.3990535736
 10
-84.44342803959999
 20
-22.4168930054
 10
-84.4947242737
 20
-22.4368000031
 10
-84.54602050779999
 20
-22.4567070007
 10
-84.5964813232
 20
-22.4786510468
 10
-84.6469421387
 20
-22.5005950928
 10
-84.6964836121
 20
-22.5245399475
 10
-84.74602508540001
 20
-22.5484848022
 10
-84.7945671082
 20
-22.5743923187
 10
-84.8431091309
 20
-22.6002998352
 10
-84.89057540890001
 20
-22.6281290054
 10
-84.93804168699999
 20
-22.6559581757
 10
-84.9843597412
 20
-22.6856641769
 10
-85.0306777954
 20
-22.7153701782
 10
-85.0757675171
 20
-22.7469062805
 10
-85.1208572388
 20
-22.7784423828
 10
-85.1646499634
 20
-22.8117570877
 10
-85.20844268800001
 20
-22.8450717926
 10
-85.250869751
 20
-22.8801107407
 10
-85.293296814
 20
-22.9151496887
 10
-85.3342857361
 20
-22.9518594742
 10
-85.3752746582
 20
-22.9885692596
 10
-85.41476058959999
 20
-23.0268888474
 10
-85.454246521
 20
-23.0652084351
 10
-85.4921684265
 20
-23.1050777435
 10
-85.530090332
 20
-23.144947052
 10
-85.5663871765
 20
-23.1863012314
 10
-85.602684021
 20
-23.2276554108
 10
-85.63729858400001
 20
-23.2704286575
 10
-85.671913147
 20
-23.3132019043
 10
-85.704788208
 20
-23.3573255539
 10
-85.737663269
 20
-23.4014492035
 10
-85.7687454224
 20
-23.4468536377
 10
-85.79982757569999
 20
-23.4922580719
 10
-85.8290710449
 20
-23.5388689041
 10
-85.8583145142
 20
-23.5854797363
 10
-85.88566589360001
 20
-23.6332235336
 10
-85.91301727290001
 20
-23.6809673309
 10
-85.9384384155
 20
-23.7297677994
 10
-85.9638595581
 20
-23.7785682678
 10
-85.98730850219999
 20
-23.8283462524
 10
-86.0107574463
 20
-23.8781242371
 10
-86.0321960449
 20
-23.9288005829
 10
-86.05363464360001
 20
-23.9794769287
 10
-86.0730247498
 20
-24.0309705734
 10
-86.092414856
 20
-24.0824642181
 10
-86.1097335815
 20
-24.1346921921
 10
-86.1270523071
 20
-24.186920166
 10
-86.1422653198
 20
-24.2397994995
 10
-86.15747833250001
 20
-24.292678833
 10
-86.1705665588
 20
-24.3461236954
 10
-86.18365478520001
 20
-24.3995685577
 10
-86.1945915222
 20
-24.4534950256
 10
-86.2055282593
 20
-24.5074214935
 10
-86.2142982483
 20
-24.5617418289
 10
-86.2230682373
 20
-24.6160621643
 10
-86.2296562195
 20
-24.6706905365
 10
-86.2362442017
 20
-24.7253189087
 10
-86.2406463623
 20
-24.7801675797
 10
-86.24504852290001
 20
-24.8350162506
 10
-86.24724960330001
 20
-24.889995575
 10
-86.2494506836
 20
-24.9449748993
 10
-86.2494506836
 20
-25
 10
-86.2494506836
 20
-25.0550251007
 10
-86.24724960330001
 20
-25.110004425
 10
-86.24504852290001
 20
-25.1649837494
 10
-86.2406463623
 20
-25.2198324203
 10
-86.2362442017
 20
-25.2746810913
 10
-86.2296562195
 20
-25.3293094635
 10
-86.2230682373
 20
-25.3839378357
 10
-86.2142982483
 20
-25.4382581711
 10
-86.2055282593
 20
-25.4925785065
 10
-86.1945915222
 20
-25.5465049744
 10
-86.18365478520001
 20
-25.6004314423
 10
-86.1705665588
 20
-25.6538763046
 10
-86.15747833250001
 20
-25.707321167
 10
-86.1422653198
 20
-25.7602005005
 10
-86.1270523071
 20
-25.813079834
 10
-86.1097335815
 20
-25.8653078079
 10
-86.092414856
 20
-25.9175357819
 10
-86.0730247498
 20
-25.9690294266
 10
-86.05363464360001
 20
-26.0205230713
 10
-86.0321960449
 20
-26.0711994171
 10
-86.0107574463
 20
-26.1218757629
 10
-85.98730850219999
 20
-26.1716537476
 10
-85.9638595581
 20
-26.2214317322
 10
-85.9384384155
 20
-26.2702322006
 10
-85.91301727290001
 20
-26.3190326691
 10
-85.88566589360001
 20
-26.3667764664
 10
-85.8583145142
 20
-26.4145202637
 10
-85.8290710449
 20
-26.4611310959
 10
-85.79982757569999
 20
-26.5077419281
 10
-85.7687454224
 20
-26.5531463623
 10
-85.737663269
 20
-26.5985507965
 10
-85.704788208
 20
-26.6426744461
 10
-85.671913147
 20
-26.6867980957
 10
-85.63729858400001
 20
-26.7295713425
 10
-85.602684021
 20
-26.7723445892
 10
-85.5663871765
 20
-26.8136987686
 10
-85.530090332
 20
-26.855052948
 10
-85.4921684265
 20
-26.8949222565
 10
-85.454246521
 20
-26.9347915649
 10
-85.41476058959999
 20
-26.9731111526
 10
-85.3752746582
 20
-27.0114307404
 10
-85.3342857361
 20
-27.0481405258
 10
-85.293296814
 20
-27.0848503113
 10
-85.250869751
 20
-27.1198892593
 10
-85.20844268800001
 20
-27.1549282074
 10
-85.1646499634
 20
-27.1882429123
 10
-85.1208572388
 20
-27.2215576172
 10
-85.0757675171
 20
-27.2530937195
 10
-85.0306777954
 20
-27.2846298218
 10
-84.9843597412
 20
-27.3143358231
 10
-84.93804168699999
 20
-27.3440418243
 10
-84.89057540890001
 20
-27.3718709946
 10
-84.8431091309
 20
-27.3997001648
 10
-84.7945671082
 20
-27.4256076813
 10
-84.74602508540001
 20
-27.4515151978
 10
-84.6964836121
 20
-27.4754600525
 10
-84.6469421387
 20
-27.4994049072
 10
-84.5964813232
 20
-27.5213489532
 10
-84.54602050779999
 20
-27.5432929993
 10
-84.4947242737
 20
-27.5631999969
 10
-84.44342803959999
 20
-27.5831069946
 10
-84.3913764954
 20
-27.6009464264
 10
-84.3393249512
 20
-27.6187858582
 10
-84.2865982056
 20
-27.6345272064
 10
-84.23387146
 20
-27.6502685547
 10
-84.1805610657
 20
-27.6638889313
 10
-84.12725067140001
 20
-27.6775093079
 10
-84.0734367371
 20
-27.6889858246
 10
-84.0196228027
 20
-27.7004623413
 10
-83.9653930664
 20
-27.7097759247
 10
-83.9111633301
 20
-27.7190895081
 10
-83.8566017151
 20
-27.726225853
 10
-83.8020401001
 20
-27.7333621979
 10
-83.7472419739
 20
-27.7383098602
 10
-83.69244384770001
 20
-27.7432575226
 10
-83.6374855042
 20
-27.7460098267
 10
-83.58252716059999
 20
-27.7487621307
 10
-83.527507782
 20
-27.7493124008
 10
-83.47248840330001
 20
-27.7498626709
 10
-83.41748809809999
 20
-27.748210907
 10
-83.362487793
 20
-27.7465591431
 10
-83.307598114
 20
-27.7427091599
 10
-83.2527084351
 20
-27.7388591766
 10
-83.1980171204
 20
-27.7328157425
 10
-83.1433258057
 20
-27.7267723083
 10
-83.0889205933
 20
-27.71854496
 10
-83.0345153809
 20
-27.7103176117
 10
-82.9804801941
 20
-27.6999206543
 10
-82.9264450073
 20
-27.6895236969
 10
-82.8728713989
 20
-27.6769733429
 10
-82.8192977905
 20
-27.6644229889
 10
-82.7662696838
 20
-27.6497392654
 10
-82.71324157710001
 20
-27.635055542
 10
-82.6608428955
 20
-27.6182613373
 10
-82.6084442139
 20
-27.6014671326
 10
-82.5567588806
 20
-27.5825901031
 10
-82.5050735474
 20
-27.5637130737
 10
-82.4541854858
 20
-27.5427837372
 10
-82.40329742430001
 20
-27.5218544006
 10
-82.3532867432
 20
-27.4989051819
 10
-82.30327606199999
 20
-27.4759559631
 10
-82.2542266846
 20
-27.4510250092
 10
-82.2051773071
 20
-27.4260940552
 10
-82.1571617126
 20
-27.3992195129
 10
-82.1091461182
 20
-27.3723449707
 10
-82.0622444153
 20
-27.3435716629
 10
-82.0153427124
 20
-27.3147983551
 10
-81.96963119510001
 20
-27.2841711044
 10
-81.9239196777
 20
-27.2535438538
 10
-81.87946701049999
 20
-27.221113205
 10
-81.8350143433
 20
-27.1886825562
 10
-81.79189682010001
 20
-27.1544981003
 10
-81.7487792969
 20
-27.1203136444
 10
-81.7070655823
 20
-27.0844316483
 10
-81.6653518677
 20
-27.0485496521
 10
-81.6251029968
 20
-27.0110282898
 10
-81.584854126
 20
-26.9735069275
 10
-81.5461425781
 20
-26.9344043732
 10
-81.5074310303
 20
-26.8953018188
 10
-81.4703140259
 20
-26.8546819687
 10
-81.43319702150001
 20
-26.8140621185
 10
-81.3977355957
 20
-26.7719898224
 10
-81.3622741699
 20
-26.7299175262
 10
-81.32852172849999
 20
-26.686460495
 10
-81.2947692871
 20
-26.6430034637
 10
-81.2627830505
 20
-26.5982303619
 10
-81.230796814
 20
-26.5534572601
 10
-81.20063018800001
 20
-26.507440567
 10
-81.17046356199999
 20
-26.4614238739
 10
-81.14216232299999
 20
-26.4142370224
 10
-81.11386108400001
 20
-26.3670501709
 10
-81.08746719360001
 20
-26.3187685013
 10
-81.0610733032
 20
-26.2704868317
 10
-81.0366325378
 20
-26.2211875916
 10
-81.0121917725
 20
-26.1718883514
 10
-80.98974609379999
 20
-26.1216516495
 10
-80.967300415
 20
-26.0714149475
 10
-80.9468803406
 20
-26.0203199387
 10
-80.92646026609999
 20
-25.9692249298
 10
-80.9081001282
 20
-25.9173536301
 10
-80.8897399902
 20
-25.8654823303
 10
-80.8734741211
 20
-25.8129177094
 10
-80.85720825200001
 20
-25.7603530884
 10
-80.8430557251
 20
-25.7071800232
 10
-80.8289031982
 20
-25.654006958
 10
-80.81688690190001
 20
-25.6003103256
 10
-80.8048706055
 20
-25.5466136932
 10
-80.79501724239999
 20
-25.4924793243
 10
-80.7851638794
 20
-25.4383449554
 10
-80.7774810791
 20
-25.3838596344
 10
-80.7697982788
 20
-25.3293743134
 10
-80.7643013
 20
-25.2746257782
 10
-80.7588043213
 20
-25.219877243
 10
-80.7555046082
 20
-25.1649522781
 10
-80.75220489500001
 20
-25.1100273132
 10
-80.7511024475
 20
-25.0550136566
 10
-80.75
 20
-25
  0
ENDBLK
  5
4F
330
4D
100
AcDbEntity
  8
0
100
AcDbBlockEnd
  0
ENDSEC
  0
SECTION
  2
ENTITIES
  0
INSERT
  5
52
100
AcDbEntity
  8
0
  6
ByLayer
 62
    0
370
   -1
100
AcDbBlockReference
  2
REAR_BUMPER_V6001_CS001
 10
0
 20
0
 30
0
 41
1
 42
1
 43
0
 50
0
 70
    1
 71
    1
 44
0
 45
0
  0
ENDSEC
  0
SECTION
  2
OBJECTS
  0
DICTIONARY
  5
C
330
0
100
AcDbDictionary
281
    1
  3
ACAD_GROUP
350
D
  0
DICTIONARY
  5
D
330
C
100
AcDbDictionary
281
    1
  0
ENDSEC
  0
EOF
