999
dxfrw 0.6.3
  0
SECTION
  2
HEADER
  9
$ACADVER
  1
AC1021
  9
$DWGCODEPAGE
  3
ANSI_1252
  9
$INSBASE
 10
0
 20
0
 30
0
  9
$EXTMIN
 10
-443.8439332740994
 20
-378.9219666370498
 30
0
  9
$EXTMAX
 10
0
 20
0
 30
0
  9
$LIMMIN
 10
0
 20
0
  9
$LIMMAX
 10
420
 20
297
  9
$ORTHOMODE
 70
    0
  9
$REGENMODE
 70
    1
  9
$FILLMODE
 70
    1
  9
$QTEXTMODE
 70
    0
  9
$MIRRTEXT
 70
    0
  9
$LTSCALE
 40
1
  9
$ATTMODE
 70
    0
  9
$TEXTSIZE
 40
2.5
  9
$TRACEWID
 40
15.68
  9
$TEXTSTYLE
  7
STANDARD
  9
$CLAYER
  8
wing-top
  9
$CELTYPE
  6
BYLAYER
  9
$CECOLOR
 62
  256
  9
$CELTSCALE
 40
1
  9
$DISPSILH
 70
    0
  9
$DIMSCALE
 40
2.5
  9
$DIMASZ
 40
2.5
  9
$DIMEXO
 40
0.625
  9
$DIMDLI
 40
3.75
  9
$DIMRND
 40
0
  9
$DIMDLE
 40
0
  9
$DIMEXE
 40
1.25
  9
$DIMTP
 40
0
  9
$DIMTM
 40
0
  9
$DIMTXT
 40
2.5
  9
$DIMCEN
 40
2.5
  9
$DIMTSZ
 40
0
  9
$DIMTOL
 70
    0
  9
$DIMLIM
 70
    0
  9
$DIMTIH
 70
    0
  9
$DIMTOH
 70
    0
  9
$DIMSE1
 70
    0
  9
$DIMSE2
 70
    0
  9
$DIMTAD
 70
    1
  9
$DIMZIN
 70
    8
  9
$DIMBLK
  1

  9
$DIMASO
 70
    1
  9
$DIMSHO
 70
    1
  9
$DIMPOST
  1

  9
$DIMAPOST
  1

  9
$DIMALT
 70
    0
  9
$DIMALTD
 70
    3
  9
$DIMALTF
 40
0.03937
  9
$DIMLFAC
 40
1
  9
$DIMTOFL
 70
    1
  9
$DIMTVP
 40
0
  9
$DIMTIX
 70
    0
  9
$DIMSOXD
 70
    0
  9
$DIMSAH
 70
    0
  9
$DIMBLK1
  1

  9
$DIMBLK2
  1

  9
$DIMSTYLE
  2
STANDARD
  9
$DIMCLRD
 70
    0
  9
$DIMCLRE
 70
    0
  9
$DIMCLRT
 70
    0
  9
$DIMTFAC
 40
1
  9
$DIMGAP
 40
0.625
  9
$DIMJUST
 70
    0
  9
$DIMSD1
 70
    0
  9
$DIMSD2
 70
    0
  9
$DIMTOLJ
 70
    0
  9
$DIMTZIN
 70
    8
  9
$DIMALTZ
 70
    0
  9
$DIMALTTZ
 70
    0
  9
$DIMUPT
 70
    0
  9
$DIMDEC
 70
    2
  9
$DIMTDEC
 70
    2
  9
$DIMALTU
 70
    2
  9
$DIMALTTD
 70
    3
  9
$DIMTXSTY
  7
STANDARD
  9
$DIMAUNIT
 70
    0
  9
$DIMADEC
 70
    0
  9
$DIMALTRND
 40
0
  9
$DIMAZIN
 70
    0
  9
$DIMDSEP
 70
   44
  9
$DIMATFIT
 70
    3
  9
$DIMFRAC
 70
    0
  9
$DIMLDRBLK
  1
STANDARD
  9
$DIMLUNIT
 70
    2
  9
$DIMLWD
 70
   -2
  9
$DIMLWE
 70
   -2
  9
$DIMTMOVE
 70
    0
  9
$DIMFXL
 40
1
  9
$DIMFXLON
 70
    0
  9
$DIMJOGANG
 40
0.7854
  9
$DIMTFILL
 70
    0
  9
$DIMTFILLCLR
 70
    0
  9
$DIMARCSYM
 70
    0
  9
$DIMLTYPE
  6

  9
$DIMLTEX1
  6

  9
$DIMLTEX2
  6

  9
$LUNITS
 70
    2
  9
$LUPREC
 70
    4
  9
$SKETCHINC
 40
1
  9
$FILLETRAD
 40
0
  9
$AUNITS
 70
    0
  9
$AUPREC
 70
    2
  9
$MENU
  1
.
  9
$ELEVATION
 40
0
  9
$PELEVATION
 40
0
  9
$THICKNESS
 40
0
  9
$LIMCHECK
 70
    0
  9
$CHAMFERA
 40
0
  9
$CHAMFERB
 40
0
  9
$CHAMFERC
 40
0
  9
$CHAMFERD
 40
0
  9
$SKPOLY
 70
    0
  9
$USRTIMER
 70
    1
  9
$ANGBASE
 50
0
  9
$ANGDIR
 70
    0
  9
$PDMODE
 70
   34
  9
$PDSIZE
 40
0
  9
$PLINEWID
 40
0
  9
$SPLFRAME
 70
    0
  9
$SPLINETYPE
 70
    2
  9
$SPLINESEGS
 70
    8
  9
$HANDSEED
  5
20000
  9
$SURFTAB1
 70
    6
  9
$SURFTAB2
 70
    6
  9
$SURFTYPE
 70
    6
  9
$SURFU
 70
    6
  9
$SURFV
 70
    6
  9
$UCSBASE
  2

  9
$UCSNAME
  2

  9
$UCSORG
 10
0
 20
0
 30
0
  9
$UCSXDIR
 10
1
 20
0
 30
0
  9
$UCSYDIR
 10
0
 20
1
 30
0
  9
$UCSORTHOREF
  2

  9
$UCSORTHOVIEW
 70
    0
  9
$UCSORGTOP
 10
0
 20
0
 30
0
  9
$UCSORGBOTTOM
 10
0
 20
0
 30
0
  9
$UCSORGLEFT
 10
0
 20
0
 30
0
  9
$UCSORGRIGHT
 10
0
 20
0
 30
0
  9
$UCSORGFRONT
 10
0
 20
0
 30
0
  9
$UCSORGBACK
 10
0
 20
0
 30
0
  9
$PUCSBASE
  2

  9
$PUCSNAME
  2

  9
$PUCSORG
 10
0
 20
0
 30
0
  9
$PUCSXDIR
 10
1
 20
0
 30
0
  9
$PUCSYDIR
 10
0
 20
1
 30
0
  9
$PUCSORTHOREF
  2

  9
$PUCSORTHOVIEW
 70
    0
  9
$PUCSORGTOP
 10
0
 20
0
 30
0
  9
$PUCSORGBOTTOM
 10
0
 20
0
 30
0
  9
$PUCSORGLEFT
 10
0
 20
0
 30
0
  9
$PUCSORGRIGHT
 10
0
 20
0
 30
0
  9
$PUCSORGFRONT
 10
0
 20
0
 30
0
  9
$PUCSORGBACK
 10
0
 20
0
 30
0
  9
$USERI1
 70
    0
  9
$USERI2
 70
    0
  9
$USERI3
 70
    0
  9
$USERI4
 70
    0
  9
$USERI5
 70
    0
  9
$USERR1
 40
0
  9
$USERR2
 40
0
  9
$USERR3
 40
0
  9
$USERR4
 40
0
  9
$USERR5
 40
0
  9
$WORLDVIEW
 70
    1
  9
$SHADEDGE
 70
    3
  9
$SHADEDIF
 70
   70
  9
$TILEMODE
 70
    1
  9
$MAXACTVP
 70
   64
  9
$PINSBASE
 10
497.5595500575529
 20
425.021982686186
 30
0
  9
$PLIMCHECK
 70
    0
  9
$PEXTMIN
 10
0
 20
0
 30
0
  9
$PEXTMAX
 10
0
 20
0
 30
0
  9
$GRIDMODE
 70
    1
  9
$SNAPSTYLE
 70
    0
  9
$PLIMMIN
 10
0
 20
0
  9
$PLIMMAX
 10
210
 20
297
  9
$UNITMODE
 70
    0
  9
$VISRETAIN
 70
    1
  9
$PLINEGEN
 70
    0
  9
$PSLTSCALE
 70
    1
  9
$TREEDEPTH
 70
 3020
  9
$CMLSTYLE
  2
Standard
  9
$CMLJUST
 70
    0
  9
$CMLSCALE
 40
20
  9
$PROXYGRAPHICS
 70
    1
  9
$MEASUREMENT
 70
    1
  9
$CELWEIGHT
370
   -1
  9
$ENDCAPS
280
    0
  9
$JOINSTYLE
280
    0
  9
$LWDISPLAY
290
    0
  9
$INSUNITS
 70
    4
  9
$HYPERLINKBASE
  1

  9
$STYLESHEET
  1

  9
$XEDIT
290
    1
  9
$CEPSNTYPE
380
    0
  9
$PSTYLEMODE
290
    1
  9
$EXTNAMES
290
    1
  9
$PSVPSCALE
 40
1
  9
$OLESTARTUP
290
    0
  9
$SORTENTS
280
  127
  9
$INDEXCTL
280
    0
  9
$HIDETEXT
280
    1
  9
$XCLIPFRAME
290
    0
  9
$HALOGAP
280
    0
  9
$OBSCOLOR
 70
  257
  9
$OBSLTYPE
280
    0
  9
$INTERSECTIONDISPLAY
280
    0
  9
$INTERSECTIONCOLOR
 70
  257
  9
$DIMASSOC
280
    1
  9
$PROJECTNAME
  1

  9
$CAMERADISPLAY
290
    0
  9
$LENSLENGTH
 40
50
  9
$CAMERAHEIGHT
 40
0
  9
$STEPSPERSEC
 40
2
  9
$STEPSIZE
 40
50
  9
$3DDWFPREC
 40
2
  9
$PSOLWIDTH
 40
5
  9
$PSOLHEIGHT
 40
80
  9
$LOFTANG1
 40
1.570796326794897
  9
$LOFTANG2
 40
1.570796326794897
  9
$LOFTMAG1
 40
0
  9
$LOFTMAG2
 40
0
  9
$LOFTPARAM
 70
    7
  9
$LOFTNORMALS
280
    1
  9
$LATITUDE
 40
1
  9
$LONGITUDE
 40
1
  9
$NORTHDIRECTION
 40
0
  9
$TIMEZONE
 70
-8000
  9
$LIGHTGLYPHDISPLAY
280
    1
  9
$TILEMODELIGHTSYNCH
280
    1
  9
$SOLIDHIST
280
    1
  9
$SHOWHIST
280
    1
  9
$DWFFRAME
280
    2
  9
$DGNFRAME
280
    0
  9
$REALWORLDSCALE
290
    1
  9
$INTERFERECOLOR
 62
    1
  9
$CSHADOW
280
    0
  9
$SHADOWPLANELOCATION
 40
0
  0
ENDSEC
  0
SECTION
  2
CLASSES
  0
ENDSEC
  0
SECTION
  2
TABLES
  0
TABLE
  2
VPORT
  5
8
330
0
100
AcDbSymbolTable
 70
    1
  0
VPORT
  5
31
330
2
100
AcDbSymbolTableRecord
100
AcDbViewportTableRecord
  2
*ACTIVE
 70
    0
 10
0
 20
0
 11
1
 21
1
 12
20.00532879298233
 22
64.53331868703977
 13
0
 23
0
 14
10
 24
10
 15
10
 25
10
 16
0
 26
0
 36
1
 17
0
 27
0
 37
0
 40
620.8105257693226
 41
0.8544698544698545
 42
50
 43
0
 44
0
 50
0
 51
0
 71
    0
 72
  100
 73
    1
 74
    3
 75
    0
 76
    1
 77
    0
 78
    0
281
    0
 65
    1
110
0
120
0
130
0
111
1
121
0
131
0
112
0
122
1
132
0
 79
    0
146
0
348
10020
 60
    7
 61
    5
292
1
282
    1
141
0
142
0
 63
  250
421
3358443
  0
ENDTAB
  0
TABLE
  2
LTYPE
  5
5
330
0
100
AcDbSymbolTable
 70
    4
  0
LTYPE
  5
14
330
5
100
AcDbSymbolTableRecord
100
AcDbLinetypeTableRecord
  2
ByBlock
 70
    0
  3

 72
   65
 73
    0
 40
0
  0
LTYPE
  5
15
330
5
100
AcDbSymbolTableRecord
100
AcDbLinetypeTableRecord
  2
ByLayer
 70
    0
  3

 72
   65
 73
    0
 40
0
  0
LTYPE
  5
16
330
5
100
AcDbSymbolTableRecord
100
AcDbLinetypeTableRecord
  2
Continuous
 70
    0
  3
Solid line
 72
   65
 73
    0
 40
0
  0
LTYPE
  5
32
330
5
100
AcDbSymbolTableRecord
100
AcDbLinetypeTableRecord
  2
DOT
 70
    0
  3
Dot . . . . . . . . . . . . . . . . . . . . . .
 72
   65
 73
    2
 40
6.35
 49
0
 74
    0
 49
-6.35
 74
    0
  0
LTYPE
  5
33
330
5
100
AcDbSymbolTableRecord
100
AcDbLinetypeTableRecord
  2
DOTTINY
 70
    0
  3
Dot (.15x) .....................................
 72
   65
 73
    2
 40
0.9525
 49
0
 74
    0
 49
-0.9525
 74
    0
  0
LTYPE
  5
34
330
5
100
AcDbSymbolTableRecord
100
AcDbLinetypeTableRecord
  2
DOT2
 70
    0
  3
Dot (.5x) .....................................
 72
   65
 73
    2
 40
3.175
 49
0
 74
    0
 49
-3.175
 74
    0
  0
LTYPE
  5
35
330
5
100
AcDbSymbolTableRecord
100
AcDbLinetypeTableRecord
  2
DOTX2
 70
    0
  3
Dot (2x) .  .  .  .  .  .  .  .  .  .  .  .  .
 72
   65
 73
    2
 40
12.7
 49
0
 74
    0
 49
-12.7
 74
    0
  0
LTYPE
  5
36
330
5
100
AcDbSymbolTableRecord
100
AcDbLinetypeTableRecord
  2
DASHED
 70
    0
  3
Dashed _ _ _ _ _ _ _ _ _ _ _ _ _ _ _ _ _
 72
   65
 73
    2
 40
19.05
 49
12.7
 74
    0
 49
-6.35
 74
    0
  0
LTYPE
  5
37
330
5
100
AcDbSymbolTableRecord
100
AcDbLinetypeTableRecord
  2
DASHEDTINY
 70
    0
  3
Dashed (.15x) _ _ _ _ _ _ _ _ _ _ _ _ _ _ _ _ _
 72
   65
 73
    2
 40
2.8575
 49
1.905
 74
    0
 49
-0.9525
 74
    0
  0
LTYPE
  5
38
330
5
100
AcDbSymbolTableRecord
100
AcDbLinetypeTableRecord
  2
DASHED2
 70
    0
  3
Dashed (.5x) _ _ _ _ _ _ _ _ _ _ _ _ _ _ _ _ _
 72
   65
 73
    2
 40
9.524999999999999
 49
6.35
 74
    0
 49
-3.175
 74
    0
  0
LTYPE
  5
39
330
5
100
AcDbSymbolTableRecord
100
AcDbLinetypeTableRecord
  2
DASHEDX2
 70
    0
  3
Dashed (2x) ____  ____  ____  ____  ____  ___
 72
   65
 73
    2
 40
38.09999999999999
 49
25.4
 74
    0
 49
-12.7
 74
    0
  0
LTYPE
  5
3A
330
5
100
AcDbSymbolTableRecord
100
AcDbLinetypeTableRecord
  2
DASHDOT
 70
    0
  3
Dash dot __ . __ . __ . __ . __ . __ . __ . __
 72
   65
 73
    4
 40
25.4
 49
12.7
 74
    0
 49
-6.35
 74
    0
 49
0
 74
    0
 49
-6.35
 74
    0
  0
LTYPE
  5
3B
330
5
100
AcDbSymbolTableRecord
100
AcDbLinetypeTableRecord
  2
DASHDOTTINY
 70
    0
  3
Dash dot (.15x) _._._._._._._._._._._._._._._.
 72
   65
 73
    4
 40
3.81
 49
1.905
 74
    0
 49
-0.9525
 74
    0
 49
0
 74
    0
 49
-0.9525
 74
    0
  0
LTYPE
  5
3C
330
5
100
AcDbSymbolTableRecord
100
AcDbLinetypeTableRecord
  2
DASHDOT2
 70
    0
  3
Dash dot (.5x) _._._._._._._._._._._._._._._.
 72
   65
 73
    4
 40
12.7
 49
6.35
 74
    0
 49
-3.175
 74
    0
 49
0
 74
    0
 49
-3.175
 74
    0
  0
LTYPE
  5
3D
330
5
100
AcDbSymbolTableRecord
100
AcDbLinetypeTableRecord
  2
DASHDOTX2
 70
    0
  3
Dash dot (2x) ____  .  ____  .  ____  .  ___
 72
   65
 73
    4
 40
50.8
 49
25.4
 74
    0
 49
-12.7
 74
    0
 49
0
 74
    0
 49
-12.7
 74
    0
  0
LTYPE
  5
3E
330
5
100
AcDbSymbolTableRecord
100
AcDbLinetypeTableRecord
  2
DIVIDE
 70
    0
  3
Divide ____ . . ____ . . ____ . . ____ . . ____
 72
   65
 73
    6
 40
31.75
 49
12.7
 74
    0
 49
-6.35
 74
    0
 49
0
 74
    0
 49
-6.35
 74
    0
 49
0
 74
    0
 49
-6.35
 74
    0
  0
LTYPE
  5
3F
330
5
100
AcDbSymbolTableRecord
100
AcDbLinetypeTableRecord
  2
DIVIDETINY
 70
    0
  3
Divide (.15x) __..__..__..__..__..__..__..__.._
 72
   65
 73
    6
 40
4.7625
 49
1.905
 74
    0
 49
-0.9525
 74
    0
 49
0
 74
    0
 49
-0.9525
 74
    0
 49
0
 74
    0
 49
-0.9525
 74
    0
  0
LTYPE
  5
40
330
5
100
AcDbSymbolTableRecord
100
AcDbLinetypeTableRecord
  2
DIVIDE2
 70
    0
  3
Divide (.5x) __..__..__..__..__..__..__..__.._
 72
   65
 73
    6
 40
15.875
 49
6.35
 74
    0
 49
-3.175
 74
    0
 49
0
 74
    0
 49
-3.175
 74
    0
 49
0
 74
    0
 49
-3.175
 74
    0
  0
LTYPE
  5
41
330
5
100
AcDbSymbolTableRecord
100
AcDbLinetypeTableRecord
  2
DIVIDEX2
 70
    0
  3
Divide (2x) ________  .  .  ________  .  .  _
 72
   65
 73
    6
 40
63.5
 49
25.4
 74
    0
 49
-12.7
 74
    0
 49
0
 74
    0
 49
-12.7
 74
    0
 49
0
 74
    0
 49
-12.7
 74
    0
  0
LTYPE
  5
42
330
5
100
AcDbSymbolTableRecord
100
AcDbLinetypeTableRecord
  2
BORDER
 70
    0
  3
Border __ __ . __ __ . __ __ . __ __ . __ __ .
 72
   65
 73
    6
 40
44.45
 49
12.7
 74
    0
 49
-6.35
 74
    0
 49
12.7
 74
    0
 49
-6.35
 74
    0
 49
0
 74
    0
 49
-6.35
 74
    0
  0
LTYPE
  5
43
330
5
100
AcDbSymbolTableRecord
100
AcDbLinetypeTableRecord
  2
BORDERTINY
 70
    0
  3
Border (.15x) __.__.__.__.__.__.__.__.__.__.__.
 72
   65
 73
    6
 40
6.6675
 49
1.905
 74
    0
 49
-0.9525
 74
    0
 49
1.905
 74
    0
 49
-0.9525
 74
    0
 49
0
 74
    0
 49
-0.9525
 74
    0
  0
LTYPE
  5
44
330
5
100
AcDbSymbolTableRecord
100
AcDbLinetypeTableRecord
  2
BORDER2
 70
    0
  3
Border (.5x) __.__.__.__.__.__.__.__.__.__.__.
 72
   65
 73
    6
 40
22.225
 49
6.35
 74
    0
 49
-3.175
 74
    0
 49
6.35
 74
    0
 49
-3.175
 74
    0
 49
0
 74
    0
 49
-3.175
 74
    0
  0
LTYPE
  5
45
330
5
100
AcDbSymbolTableRecord
100
AcDbLinetypeTableRecord
  2
BORDERX2
 70
    0
  3
Border (2x) ____  ____  .  ____  ____  .  ___
 72
   65
 73
    6
 40
88.89999999999999
 49
25.4
 74
    0
 49
-12.7
 74
    0
 49
25.4
 74
    0
 49
-12.7
 74
    0
 49
0
 74
    0
 49
-12.7
 74
    0
  0
LTYPE
  5
46
330
5
100
AcDbSymbolTableRecord
100
AcDbLinetypeTableRecord
  2
CENTER
 70
    0
  3
Center ____ _ ____ _ ____ _ ____ _ ____ _ ____
 72
   65
 73
    4
 40
50.8
 49
31.75
 74
    0
 49
-6.35
 74
    0
 49
6.35
 74
    0
 49
-6.35
 74
    0
  0
LTYPE
  5
47
330
5
100
AcDbSymbolTableRecord
100
AcDbLinetypeTableRecord
  2
CENTERTINY
 70
    0
  3
Center (.15x) ___ _ ___ _ ___ _ ___ _ ___ _ ___
 72
   65
 73
    4
 40
7.62
 49
4.7625
 74
    0
 49
-0.9525
 74
    0
 49
0.9525
 74
    0
 49
-0.9525
 74
    0
  0
LTYPE
  5
48
330
5
100
AcDbSymbolTableRecord
100
AcDbLinetypeTableRecord
  2
CENTER2
 70
    0
  3
Center (.5x) ___ _ ___ _ ___ _ ___ _ ___ _ ___
 72
   65
 73
    4
 40
28.575
 49
19.05
 74
    0
 49
-3.175
 74
    0
 49
3.175
 74
    0
 49
-3.175
 74
    0
  0
LTYPE
  5
49
330
5
100
AcDbSymbolTableRecord
100
AcDbLinetypeTableRecord
  2
CENTERX2
 70
    0
  3
Center (2x) ________  __  ________  __  _____
 72
   65
 73
    4
 40
101.6
 49
63.5
 74
    0
 49
-12.7
 74
    0
 49
12.7
 74
    0
 49
-12.7
 74
    0
  0
ENDTAB
  0
TABLE
  2
LAYER
  5
2
330
0
100
AcDbSymbolTable
 70
    1
  0
LAYER
  5
10
330
2
100
AcDbSymbolTableRecord
100
AcDbLayerTableRecord
  2
0
 70
    5
 62
    7
  6
CONTINUOUS
370
    0
390
F
  0
LAYER
  5
4A
330
2
100
AcDbSymbolTableRecord
100
AcDbLayerTableRecord
  2
fuselage-bottom plate
 70
    5
 62
    1
  6
CONTINUOUS
370
    0
390
F
  0
LAYER
  5
4B
330
2
100
AcDbSymbolTableRecord
100
AcDbLayerTableRecord
  2
fuselage-camera cover
 70
    5
 62
    7
  6
CONTINUOUS
370
    0
390
F
  0
LAYER
  5
4C
330
2
100
AcDbSymbolTableRecord
100
AcDbLayerTableRecord
  2
fuselage-camera mount
 70
    5
 62
    7
  6
CONTINUOUS
370
    0
390
F
  0
LAYER
  5
4D
330
2
100
AcDbSymbolTableRecord
100
AcDbLayerTableRecord
  2
fuselage-camera plate
 70
    5
 62
    7
  6
CONTINUOUS
370
    0
390
F
  0
LAYER
  5
4E
330
2
100
AcDbSymbolTableRecord
100
AcDbLayerTableRecord
  2
fuselage-motor plate
 70
    5
 62
    7
  6
CONTINUOUS
370
    0
390
F
  0
LAYER
  5
4F
330
2
100
AcDbSymbolTableRecord
100
AcDbLayerTableRecord
  2
fuselage-top plate
 70
    5
 62
    4
  6
CONTINUOUS
370
    0
390
F
  0
LAYER
  5
50
330
2
100
AcDbSymbolTableRecord
100
AcDbLayerTableRecord
  2
fuselage-tube clip
 70
    5
 62
    7
  6
CONTINUOUS
370
    0
390
F
  0
LAYER
  5
51
330
2
100
AcDbSymbolTableRecord
100
AcDbLayerTableRecord
  2
mh45_152.7722
 70
    5
 62
    7
  6
CONTINUOUS
370
    0
390
F
  0
LAYER
  5
52
330
2
100
AcDbSymbolTableRecord
100
AcDbLayerTableRecord
  2
mh45_190
 70
    5
 62
    7
  6
CONTINUOUS
370
    0
390
F
  0
LAYER
  5
53
330
2
100
AcDbSymbolTableRecord
100
AcDbLayerTableRecord
  2
mh45_240
 70
    5
 62
    7
  6
CONTINUOUS
370
    0
390
F
  0
LAYER
  5
54
330
2
100
AcDbSymbolTableRecord
100
AcDbLayerTableRecord
  2
wing-top
 70
    4
 62
    7
  6
CONTINUOUS
370
    0
390
F
  0
ENDTAB
  0
TABLE
  2
STYLE
  5
3
330
0
100
AcDbSymbolTable
 70
    3
  0
STYLE
  5
55
330
2
100
AcDbSymbolTableRecord
100
AcDbTextStyleTableRecord
  2
Standard
 70
    0
 40
0
 41
1
 50
0
 71
    0
 42
1
  3
txt
  4

  0
ENDTAB
  0
TABLE
  2
VIEW
  5
6
330
0
100
AcDbSymbolTable
 70
    0
  0
ENDTAB
  0
TABLE
  2
UCS
  5
7
330
0
100
AcDbSymbolTable
 70
    0
  0
ENDTAB
  0
TABLE
  2
APPID
  5
9
330
0
100
AcDbSymbolTable
 70
    1
  0
APPID
  5
12
330
9
100
AcDbSymbolTableRecord
100
AcDbRegAppTableRecord
  2
ACAD
 70
    0
  0
APPID
  5
56
330
9
100
AcDbSymbolTableRecord
100
AcDbRegAppTableRecord
  2
LibreCad
 70
    0
  0
ENDTAB
  0
TABLE
  2
DIMSTYLE
  5
A
330
0
100
AcDbSymbolTable
 70
    1
100
AcDbDimStyleTable
 71
    1
  0
DIMSTYLE
105
57
330
A
100
AcDbSymbolTableRecord
100
AcDbDimStyleTableRecord
  2
Standard
 70
    0
 40
2.5
 41
2.5
 42
0.625
 43
0.38
 44
1.25
 45
0
 46
0
 47
0
 48
0
 49
1
140
2.5
141
0.09
142
0
143
25.4
144
1
145
0
146
1
147
0.625
148
0
 71
    0
 72
    0
 73
    0
 74
    1
 75
    0
 76
    0
 77
    0
 78
    8
 79
    0
170
    0
171
    2
172
    0
173
    0
174
    0
175
    0
176
    0
177
    0
178
    0
179
    0
271
    2
272
    4
273
    2
274
    2
275
    0
276
    0
277
    2
278
   44
279
    0
280
    0
281
    0
282
    0
283
    1
284
    0
285
    0
286
    0
288
    0
289
    3
340
STANDARD
341

371
   -2
372
   -2
  0
ENDTAB
  0
TABLE
  2
BLOCK_RECORD
  5
1
330
0
100
AcDbSymbolTable
 70
    2
  0
BLOCK_RECORD
  5
1F
330
1
100
AcDbSymbolTableRecord
100
AcDbBlockTableRecord
  2
*Model_Space
 70
    0
280
    1
281
    0
  0
BLOCK_RECORD
  5
1E
330
1
100
AcDbSymbolTableRecord
100
AcDbBlockTableRecord
  2
*Paper_Space
 70
    0
280
    1
281
    0
  0
ENDTAB
  0
ENDSEC
  0
SECTION
  2
BLOCKS
  0
BLOCK
  5
20
330
1F
100
AcDbEntity
  8
0
100
AcDbBlockBegin
  2
*Model_Space
 70
    0
 10
0
 20
0
 30
0
  3
*Model_Space
  1

  0
ENDBLK
  5
21
330
1F
100
AcDbEntity
  8
0
100
AcDbBlockEnd
  0
BLOCK
  5
1C
330
1B
100
AcDbEntity
  8
0
100
AcDbBlockBegin
  2
*Paper_Space
 70
    0
 10
0
 20
0
 30
0
  3
*Paper_Space
  1

  0
ENDBLK
  5
1D
330
1F
100
AcDbEntity
  8
0
100
AcDbBlockEnd
  0
ENDSEC
  0
SECTION
  2
ENTITIES
  0
LINE
  5
58
100
AcDbEntity
  8
0
  6
ByLayer
 62
    2
370
   -1
100
AcDbLine
 10
27
 20
-420.0000000000001
 11
27
 21
49.99999999999999
  0
LINE
  5
59
100
AcDbEntity
  8
0
  6
ByLayer
 62
    2
370
   -1
100
AcDbLine
 10
260
 20
-420.0000000000001
 11
260
 21
49.99999999999993
  0
LINE
  5
5A
100
AcDbEntity
  8
0
  6
ByLayer
 62
    2
370
   -1
100
AcDbLine
 10
380
 20
-420.0000000000002
 11
380
 21
49.9999999999999
  0
LINE
  5
5B
100
AcDbEntity
  8
0
  6
ByLayer
 62
    2
370
   -1
100
AcDbLine
 10
500
 20
-420.0000000000002
 11
500
 21
49.99999999999987
  0
LINE
  5
5C
100
AcDbEntity
  8
0
  6
ByLayer
 62
    2
370
   -1
100
AcDbLine
 10
140
 20
-420.0000000000001
 11
140
 21
49.99999999999996
  0
LINE
  5
5D
100
AcDbEntity
  8
0
  6
ByLayer
 62
    2
370
   -1
100
AcDbLine
 10
-27
 20
-420.0000000000001
 11
-27
 21
49.99999999999999
  0
LINE
  5
5E
100
AcDbEntity
  8
0
  6
ByLayer
 62
    2
370
   -1
100
AcDbLine
 10
-260
 20
-420.0000000000001
 11
-260
 21
49.99999999999993
  0
LINE
  5
5F
100
AcDbEntity
  8
0
  6
ByLayer
 62
    2
370
   -1
100
AcDbLine
 10
-380
 20
-420.0000000000002
 11
-380
 21
49.9999999999999
  0
LINE
  5
60
100
AcDbEntity
  8
0
  6
ByLayer
 62
    2
370
   -1
100
AcDbLine
 10
-500
 20
-420.0000000000002
 11
-500
 21
49.99999999999987
  0
LINE
  5
61
100
AcDbEntity
  8
0
  6
ByLayer
 62
    2
370
   -1
100
AcDbLine
 10
-140
 20
-420.0000000000001
 11
-140
 21
49.99999999999996
  0
CIRCLE
  5
62
100
AcDbEntity
  8
fuselage-bottom plate
  6
ByLayer
 62
  256
370
   -1
100
AcDbCircle
 10
-1.179611963664229e-016
 20
192
 40
1.5
  0
CIRCLE
  5
63
100
AcDbEntity
  8
fuselage-bottom plate
  6
ByLayer
 62
  256
370
   -1
100
AcDbCircle
 10
15.5
 20
192
 40
1.5
  0
CIRCLE
  5
64
100
AcDbEntity
  8
fuselage-bottom plate
  6
ByLayer
 62
  256
370
   -1
100
AcDbCircle
 10
-15.5
 20
192
 40
1.5
  0
ARC
  5
65
100
AcDbEntity
  8
fuselage-bottom plate
  6
ByLayer
 62
  256
370
   -1
100
AcDbCircle
 10
-11
 20
142
 40
1.5
100
AcDbArc
 50
180
 51
270
  0
LINE
  5
66
100
AcDbEntity
  8
fuselage-bottom plate
  6
ByLayer
 62
  256
370
   -1
100
AcDbLine
 10
-11
 20
140.5
 11
-11
 21
140.5
  0
ARC
  5
67
100
AcDbEntity
  8
fuselage-bottom plate
  6
ByLayer
 62
  256
370
   -1
100
AcDbCircle
 10
-11
 20
142
 40
1.5
100
AcDbArc
 50
270
 51
0
  0
LINE
  5
68
100
AcDbEntity
  8
fuselage-bottom plate
  6
ByLayer
 62
  256
370
   -1
100
AcDbLine
 10
-12.5
 20
182
 11
-12.5
 21
142
  0
ARC
  5
69
100
AcDbEntity
  8
fuselage-bottom plate
  6
ByLayer
 62
  256
370
   -1
100
AcDbCircle
 10
-11
 20
182
 40
1.5
100
AcDbArc
 50
90
 51
179.9999999999997
  0
LINE
  5
6A
100
AcDbEntity
  8
fuselage-bottom plate
  6
ByLayer
 62
  256
370
   -1
100
AcDbLine
 10
-11
 20
183.5
 11
-11
 21
183.5
  0
LINE
  5
6B
100
AcDbEntity
  8
fuselage-bottom plate
  6
ByLayer
 62
  256
370
   -1
100
AcDbLine
 10
-9.5
 20
182
 11
-9.5
 21
142
  0
ARC
  5
6C
100
AcDbEntity
  8
fuselage-bottom plate
  6
ByLayer
 62
  256
370
   -1
100
AcDbCircle
 10
-11
 20
182
 40
1.5
100
AcDbArc
 50
0
 51
90
  0
ARC
  5
6D
100
AcDbEntity
  8
fuselage-bottom plate
  6
ByLayer
 62
  256
370
   -1
100
AcDbCircle
 10
11
 20
182
 40
1.5
100
AcDbArc
 50
359.9999999999997
 51
90
  0
LINE
  5
6E
100
AcDbEntity
  8
fuselage-bottom plate
  6
ByLayer
 62
  256
370
   -1
100
AcDbLine
 10
11
 20
183.5
 11
11
 21
183.5
  0
ARC
  5
6F
100
AcDbEntity
  8
fuselage-bottom plate
  6
ByLayer
 62
  256
370
   -1
100
AcDbCircle
 10
11
 20
182
 40
1.5
100
AcDbArc
 50
90
 51
180
  0
LINE
  5
70
100
AcDbEntity
  8
fuselage-bottom plate
  6
ByLayer
 62
  256
370
   -1
100
AcDbLine
 10
9.5
 20
182
 11
9.5
 21
142
  0
ARC
  5
71
100
AcDbEntity
  8
fuselage-bottom plate
  6
ByLayer
 62
  256
370
   -1
100
AcDbCircle
 10
11
 20
142
 40
1.5
100
AcDbArc
 50
180
 51
270
  0
LINE
  5
72
100
AcDbEntity
  8
fuselage-bottom plate
  6
ByLayer
 62
  256
370
   -1
100
AcDbLine
 10
12.5
 20
182
 11
12.5
 21
142
  0
LINE
  5
73
100
AcDbEntity
  8
fuselage-bottom plate
  6
ByLayer
 62
  256
370
   -1
100
AcDbLine
 10
11
 20
140.5
 11
11
 21
140.5
  0
ARC
  5
74
100
AcDbEntity
  8
fuselage-bottom plate
  6
ByLayer
 62
  256
370
   -1
100
AcDbCircle
 10
11
 20
142
 40
1.5
100
AcDbArc
 50
270
 51
0
  0
ARC
  5
75
100
AcDbEntity
  8
fuselage-bottom plate
  6
ByLayer
 62
  256
370
   -1
100
AcDbCircle
 10
-11
 20
82
 40
1.5
100
AcDbArc
 50
180
 51
270
  0
LINE
  5
76
100
AcDbEntity
  8
fuselage-bottom plate
  6
ByLayer
 62
  256
370
   -1
100
AcDbLine
 10
-11
 20
80.5
 11
-11
 21
80.5
  0
ARC
  5
77
100
AcDbEntity
  8
fuselage-bottom plate
  6
ByLayer
 62
  256
370
   -1
100
AcDbCircle
 10
-11
 20
82
 40
1.5
100
AcDbArc
 50
270
 51
0
  0
LINE
  5
78
100
AcDbEntity
  8
fuselage-bottom plate
  6
ByLayer
 62
  256
370
   -1
100
AcDbLine
 10
-12.5
 20
122
 11
-12.5
 21
82
  0
ARC
  5
79
100
AcDbEntity
  8
fuselage-bottom plate
  6
ByLayer
 62
  256
370
   -1
100
AcDbCircle
 10
-11
 20
122
 40
1.5
100
AcDbArc
 50
90
 51
179.9999999999997
  0
LINE
  5
7A
100
AcDbEntity
  8
fuselage-bottom plate
  6
ByLayer
 62
  256
370
   -1
100
AcDbLine
 10
-11
 20
123.5
 11
-11
 21
123.5
  0
LINE
  5
7B
100
AcDbEntity
  8
fuselage-bottom plate
  6
ByLayer
 62
  256
370
   -1
100
AcDbLine
 10
-9.5
 20
122
 11
-9.5
 21
82
  0
ARC
  5
7C
100
AcDbEntity
  8
fuselage-bottom plate
  6
ByLayer
 62
  256
370
   -1
100
AcDbCircle
 10
-11
 20
122
 40
1.5
100
AcDbArc
 50
0
 51
90
  0
ARC
  5
7D
100
AcDbEntity
  8
fuselage-bottom plate
  6
ByLayer
 62
  256
370
   -1
100
AcDbCircle
 10
11
 20
122
 40
1.5
100
AcDbArc
 50
359.9999999999997
 51
90
  0
LINE
  5
7E
100
AcDbEntity
  8
fuselage-bottom plate
  6
ByLayer
 62
  256
370
   -1
100
AcDbLine
 10
11
 20
123.5
 11
11
 21
123.5
  0
ARC
  5
7F
100
AcDbEntity
  8
fuselage-bottom plate
  6
ByLayer
 62
  256
370
   -1
100
AcDbCircle
 10
11
 20
122
 40
1.5
100
AcDbArc
 50
90
 51
180
  0
LINE
  5
80
100
AcDbEntity
  8
fuselage-bottom plate
  6
ByLayer
 62
  256
370
   -1
100
AcDbLine
 10
9.5
 20
122
 11
9.5
 21
82
  0
ARC
  5
81
100
AcDbEntity
  8
fuselage-bottom plate
  6
ByLayer
 62
  256
370
   -1
100
AcDbCircle
 10
11
 20
82
 40
1.5
100
AcDbArc
 50
180
 51
270
  0
LINE
  5
82
100
AcDbEntity
  8
fuselage-bottom plate
  6
ByLayer
 62
  256
370
   -1
100
AcDbLine
 10
12.5
 20
122
 11
12.5
 21
82
  0
LINE
  5
83
100
AcDbEntity
  8
fuselage-bottom plate
  6
ByLayer
 62
  256
370
   -1
100
AcDbLine
 10
11
 20
80.5
 11
11
 21
80.5
  0
ARC
  5
84
100
AcDbEntity
  8
fuselage-bottom plate
  6
ByLayer
 62
  256
370
   -1
100
AcDbCircle
 10
11
 20
82
 40
1.5
100
AcDbArc
 50
270
 51
0
  0
ARC
  5
85
100
AcDbEntity
  8
fuselage-bottom plate
  6
ByLayer
 62
  256
370
   -1
100
AcDbCircle
 10
11
 20
62
 40
1.5
100
AcDbArc
 50
359.9999999999997
 51
90
  0
LINE
  5
86
100
AcDbEntity
  8
fuselage-bottom plate
  6
ByLayer
 62
  256
370
   -1
100
AcDbLine
 10
11
 20
63.5
 11
11
 21
63.5
  0
ARC
  5
87
100
AcDbEntity
  8
fuselage-bottom plate
  6
ByLayer
 62
  256
370
   -1
100
AcDbCircle
 10
11
 20
62
 40
1.5
100
AcDbArc
 50
90
 51
180
  0
LINE
  5
88
100
AcDbEntity
  8
fuselage-bottom plate
  6
ByLayer
 62
  256
370
   -1
100
AcDbLine
 10
12.5
 20
62
 11
12.5
 21
32
  0
LINE
  5
89
100
AcDbEntity
  8
fuselage-bottom plate
  6
ByLayer
 62
  256
370
   -1
100
AcDbLine
 10
9.5
 20
62
 11
9.5
 21
32
  0
ARC
  5
8A
100
AcDbEntity
  8
fuselage-bottom plate
  6
ByLayer
 62
  256
370
   -1
100
AcDbCircle
 10
11
 20
32
 40
1.5
100
AcDbArc
 50
180
 51
270
  0
ARC
  5
8B
100
AcDbEntity
  8
fuselage-bottom plate
  6
ByLayer
 62
  256
370
   -1
100
AcDbCircle
 10
11
 20
32
 40
1.5
100
AcDbArc
 50
270
 51
0
  0
ARC
  5
8C
100
AcDbEntity
  8
fuselage-bottom plate
  6
ByLayer
 62
  256
370
   -1
100
AcDbCircle
 10
-11
 20
62
 40
1.5
100
AcDbArc
 50
90
 51
180.0000000000003
  0
LINE
  5
8D
100
AcDbEntity
  8
fuselage-bottom plate
  6
ByLayer
 62
  256
370
   -1
100
AcDbLine
 10
-11
 20
63.5
 11
-11
 21
63.5
  0
ARC
  5
8E
100
AcDbEntity
  8
fuselage-bottom plate
  6
ByLayer
 62
  256
370
   -1
100
AcDbCircle
 10
-11
 20
62
 40
1.5
100
AcDbArc
 50
360
 51
90
  0
LINE
  5
8F
100
AcDbEntity
  8
fuselage-bottom plate
  6
ByLayer
 62
  256
370
   -1
100
AcDbLine
 10
-12.5
 20
62
 11
-12.5
 21
32
  0
LINE
  5
90
100
AcDbEntity
  8
fuselage-bottom plate
  6
ByLayer
 62
  256
370
   -1
100
AcDbLine
 10
-9.5
 20
62
 11
-9.5
 21
32
  0
ARC
  5
91
100
AcDbEntity
  8
fuselage-bottom plate
  6
ByLayer
 62
  256
370
   -1
100
AcDbCircle
 10
-11
 20
32
 40
1.5
100
AcDbArc
 50
270
 51
360
  0
ARC
  5
92
100
AcDbEntity
  8
fuselage-bottom plate
  6
ByLayer
 62
  256
370
   -1
100
AcDbCircle
 10
-11
 20
32
 40
1.5
100
AcDbArc
 50
180
 51
270
  0
CIRCLE
  5
93
100
AcDbEntity
  8
fuselage-bottom plate
  6
ByLayer
 62
  256
370
   -1
100
AcDbCircle
 10
17.5
 20
182
 40
1.5
  0
CIRCLE
  5
94
100
AcDbEntity
  8
fuselage-bottom plate
  6
ByLayer
 62
  256
370
   -1
100
AcDbCircle
 10
17.5
 20
142
 40
1.5
  0
CIRCLE
  5
95
100
AcDbEntity
  8
fuselage-bottom plate
  6
ByLayer
 62
  256
370
   -1
100
AcDbCircle
 10
17.5
 20
162
 40
1.5
  0
CIRCLE
  5
96
100
AcDbEntity
  8
fuselage-bottom plate
  6
ByLayer
 62
  256
370
   -1
100
AcDbCircle
 10
17.5
 20
172
 40
1.5
  0
CIRCLE
  5
97
100
AcDbEntity
  8
fuselage-bottom plate
  6
ByLayer
 62
  256
370
   -1
100
AcDbCircle
 10
17.5
 20
152
 40
1.5
  0
CIRCLE
  5
98
100
AcDbEntity
  8
fuselage-bottom plate
  6
ByLayer
 62
  256
370
   -1
100
AcDbCircle
 10
17.5
 20
122
 40
1.5
  0
CIRCLE
  5
99
100
AcDbEntity
  8
fuselage-bottom plate
  6
ByLayer
 62
  256
370
   -1
100
AcDbCircle
 10
17.5
 20
82
 40
1.5
  0
CIRCLE
  5
9A
100
AcDbEntity
  8
fuselage-bottom plate
  6
ByLayer
 62
  256
370
   -1
100
AcDbCircle
 10
17.5
 20
102
 40
1.5
  0
CIRCLE
  5
9B
100
AcDbEntity
  8
fuselage-bottom plate
  6
ByLayer
 62
  256
370
   -1
100
AcDbCircle
 10
17.5
 20
112
 40
1.5
  0
CIRCLE
  5
9C
100
AcDbEntity
  8
fuselage-bottom plate
  6
ByLayer
 62
  256
370
   -1
100
AcDbCircle
 10
17.5
 20
92
 40
1.5
  0
CIRCLE
  5
9D
100
AcDbEntity
  8
fuselage-bottom plate
  6
ByLayer
 62
  256
370
   -1
100
AcDbCircle
 10
17.5
 20
132
 40
1.5
  0
CIRCLE
  5
9E
100
AcDbEntity
  8
fuselage-bottom plate
  6
ByLayer
 62
  256
370
   -1
100
AcDbCircle
 10
17.5
 20
62
 40
1.5
  0
CIRCLE
  5
9F
100
AcDbEntity
  8
fuselage-bottom plate
  6
ByLayer
 62
  256
370
   -1
100
AcDbCircle
 10
17.5
 20
32
 40
1.5
  0
CIRCLE
  5
A0
100
AcDbEntity
  8
fuselage-bottom plate
  6
ByLayer
 62
  256
370
   -1
100
AcDbCircle
 10
17.5
 20
52
 40
1.5
  0
CIRCLE
  5
A1
100
AcDbEntity
  8
fuselage-bottom plate
  6
ByLayer
 62
  256
370
   -1
100
AcDbCircle
 10
17.5
 20
42
 40
1.5
  0
CIRCLE
  5
A2
100
AcDbEntity
  8
fuselage-bottom plate
  6
ByLayer
 62
  256
370
   -1
100
AcDbCircle
 10
17.5
 20
72
 40
1.5
  0
CIRCLE
  5
A3
100
AcDbEntity
  8
fuselage-bottom plate
  6
ByLayer
 62
  256
370
   -1
100
AcDbCircle
 10
-17.5
 20
182
 40
1.5
  0
CIRCLE
  5
A4
100
AcDbEntity
  8
fuselage-bottom plate
  6
ByLayer
 62
  256
370
   -1
100
AcDbCircle
 10
-17.5
 20
142
 40
1.5
  0
CIRCLE
  5
A5
100
AcDbEntity
  8
fuselage-bottom plate
  6
ByLayer
 62
  256
370
   -1
100
AcDbCircle
 10
-17.5
 20
162
 40
1.5
  0
CIRCLE
  5
A6
100
AcDbEntity
  8
fuselage-bottom plate
  6
ByLayer
 62
  256
370
   -1
100
AcDbCircle
 10
-17.5
 20
172
 40
1.5
  0
CIRCLE
  5
A7
100
AcDbEntity
  8
fuselage-bottom plate
  6
ByLayer
 62
  256
370
   -1
100
AcDbCircle
 10
-17.5
 20
152
 40
1.5
  0
CIRCLE
  5
A8
100
AcDbEntity
  8
fuselage-bottom plate
  6
ByLayer
 62
  256
370
   -1
100
AcDbCircle
 10
-17.5
 20
122
 40
1.5
  0
CIRCLE
  5
A9
100
AcDbEntity
  8
fuselage-bottom plate
  6
ByLayer
 62
  256
370
   -1
100
AcDbCircle
 10
-17.5
 20
82
 40
1.5
  0
CIRCLE
  5
AA
100
AcDbEntity
  8
fuselage-bottom plate
  6
ByLayer
 62
  256
370
   -1
100
AcDbCircle
 10
-17.5
 20
102
 40
1.5
  0
CIRCLE
  5
AB
100
AcDbEntity
  8
fuselage-bottom plate
  6
ByLayer
 62
  256
370
   -1
100
AcDbCircle
 10
-17.5
 20
112
 40
1.5
  0
CIRCLE
  5
AC
100
AcDbEntity
  8
fuselage-bottom plate
  6
ByLayer
 62
  256
370
   -1
100
AcDbCircle
 10
-17.5
 20
92
 40
1.5
  0
CIRCLE
  5
AD
100
AcDbEntity
  8
fuselage-bottom plate
  6
ByLayer
 62
  256
370
   -1
100
AcDbCircle
 10
-17.5
 20
132
 40
1.5
  0
CIRCLE
  5
AE
100
AcDbEntity
  8
fuselage-bottom plate
  6
ByLayer
 62
  256
370
   -1
100
AcDbCircle
 10
-17.5
 20
62
 40
1.5
  0
CIRCLE
  5
AF
100
AcDbEntity
  8
fuselage-bottom plate
  6
ByLayer
 62
  256
370
   -1
100
AcDbCircle
 10
-17.5
 20
32
 40
1.5
  0
CIRCLE
  5
B0
100
AcDbEntity
  8
fuselage-bottom plate
  6
ByLayer
 62
  256
370
   -1
100
AcDbCircle
 10
-17.5
 20
52
 40
1.5
  0
CIRCLE
  5
B1
100
AcDbEntity
  8
fuselage-bottom plate
  6
ByLayer
 62
  256
370
   -1
100
AcDbCircle
 10
-17.5
 20
42
 40
1.5
  0
CIRCLE
  5
B2
100
AcDbEntity
  8
fuselage-bottom plate
  6
ByLayer
 62
  256
370
   -1
100
AcDbCircle
 10
-17.5
 20
72
 40
1.5
  0
CIRCLE
  5
B3
100
AcDbEntity
  8
fuselage-bottom plate
  6
ByLayer
 62
  256
370
   -1
100
AcDbCircle
 10
-7
 20
221
 40
1.5
  0
CIRCLE
  5
B4
100
AcDbEntity
  8
fuselage-bottom plate
  6
ByLayer
 62
  256
370
   -1
100
AcDbCircle
 10
7
 20
221
 40
1.5
  0
CIRCLE
  5
B5
100
AcDbEntity
  8
fuselage-bottom plate
  6
ByLayer
 62
  256
370
   -1
100
AcDbCircle
 10
9
 20
17
 40
1.5
  0
CIRCLE
  5
B6
100
AcDbEntity
  8
fuselage-bottom plate
  6
ByLayer
 62
  256
370
   -1
100
AcDbCircle
 10
-9
 20
17
 40
1.5
  0
CIRCLE
  5
B7
100
AcDbEntity
  8
fuselage-bottom plate
  6
ByLayer
 62
  256
370
   -1
100
AcDbCircle
 10
9
 20
9
 40
1.5
  0
CIRCLE
  5
B8
100
AcDbEntity
  8
fuselage-bottom plate
  6
ByLayer
 62
  256
370
   -1
100
AcDbCircle
 10
-9
 20
9
 40
1.5
  0
ARC
  5
B9
100
AcDbEntity
  8
fuselage-bottom plate
  6
ByLayer
 62
  256
370
   -1
100
AcDbCircle
 10
4.375000000000654
 20
13.875
 40
0.75
100
AcDbArc
 50
359.9999505480478
 51
180
  0
ARC
  5
BA
100
AcDbEntity
  8
fuselage-bottom plate
  6
ByLayer
 62
  256
370
   -1
100
AcDbCircle
 10
-4.375000000000654
 20
13.875
 40
0.75
100
AcDbArc
 50
360
 51
180.0000494519522
  0
LINE
  5
BB
100
AcDbEntity
  8
fuselage-bottom plate
  6
ByLayer
 62
  256
370
   -1
100
AcDbLine
 10
-3.625000000002681
 20
13.87500000000001
 11
3.625000000001307
 21
13.875
  0
ARC
  5
BC
100
AcDbEntity
  8
fuselage-bottom plate
  6
ByLayer
 62
  256
370
   -1
100
AcDbCircle
 10
4.375000000000654
 20
12.125
 40
0.75
100
AcDbArc
 50
180
 51
4.945195220498345e-005
  0
ARC
  5
BD
100
AcDbEntity
  8
fuselage-bottom plate
  6
ByLayer
 62
  256
370
   -1
100
AcDbCircle
 10
-4.375000000000654
 20
12.125
 40
0.75
100
AcDbArc
 50
179.9999505480478
 51
360
  0
LINE
  5
BE
100
AcDbEntity
  8
fuselage-bottom plate
  6
ByLayer
 62
  256
370
   -1
100
AcDbLine
 10
-3.625000000002681
 20
12.12499999999999
 11
3.625000000001305
 21
12.125
  0
LINE
  5
BF
100
AcDbEntity
  8
fuselage-bottom plate
  6
ByLayer
 62
  256
370
   -1
100
AcDbLine
 10
5.125000000000375
 20
12.12500064732454
 11
5.125000000000375
 21
13.87499935267546
  0
LINE
  5
C0
100
AcDbEntity
  8
fuselage-bottom plate
  6
ByLayer
 62
  256
370
   -1
100
AcDbLine
 10
-5.125000000000375
 20
12.12500064732454
 11
-5.125000000000375
 21
13.87499935267546
  0
ARC
  5
C1
100
AcDbEntity
  8
fuselage-bottom plate
  6
ByLayer
 62
  256
370
   -1
100
AcDbCircle
 10
4.375000000000654
 20
21.875
 40
0.75
100
AcDbArc
 50
359.9999505480478
 51
180
  0
ARC
  5
C2
100
AcDbEntity
  8
fuselage-bottom plate
  6
ByLayer
 62
  256
370
   -1
100
AcDbCircle
 10
-4.375000000000654
 20
21.875
 40
0.75
100
AcDbArc
 50
360
 51
180.0000494519522
  0
LINE
  5
C3
100
AcDbEntity
  8
fuselage-bottom plate
  6
ByLayer
 62
  256
370
   -1
100
AcDbLine
 10
-3.625000000002681
 20
21.87500000000001
 11
3.625000000001307
 21
21.875
  0
ARC
  5
C4
100
AcDbEntity
  8
fuselage-bottom plate
  6
ByLayer
 62
  256
370
   -1
100
AcDbCircle
 10
4.375000000000654
 20
20.125
 40
0.75
100
AcDbArc
 50
180
 51
4.945195220498345e-005
  0
ARC
  5
C5
100
AcDbEntity
  8
fuselage-bottom plate
  6
ByLayer
 62
  256
370
   -1
100
AcDbCircle
 10
-4.375000000000654
 20
20.125
 40
0.75
100
AcDbArc
 50
179.9999505480478
 51
360
  0
LINE
  5
C6
100
AcDbEntity
  8
fuselage-bottom plate
  6
ByLayer
 62
  256
370
   -1
100
AcDbLine
 10
-3.625000000002681
 20
20.12499999999999
 11
3.625000000001305
 21
20.125
  0
LINE
  5
C7
100
AcDbEntity
  8
fuselage-bottom plate
  6
ByLayer
 62
  256
370
   -1
100
AcDbLine
 10
5.125000000000375
 20
20.12500064732454
 11
5.125000000000375
 21
21.87499935267546
  0
LINE
  5
C8
100
AcDbEntity
  8
fuselage-bottom plate
  6
ByLayer
 62
  256
370
   -1
100
AcDbLine
 10
-5.125000000000375
 20
20.12500064732454
 11
-5.125000000000375
 21
21.87499935267546
  0
ARC
  5
C9
100
AcDbEntity
  8
fuselage-bottom plate
  6
ByLayer
 62
  256
370
   -1
100
AcDbCircle
 10
4.375000000000654
 20
5.875000000000014
 40
0.75
100
AcDbArc
 50
359.9999505480478
 51
180
  0
ARC
  5
CA
100
AcDbEntity
  8
fuselage-bottom plate
  6
ByLayer
 62
  256
370
   -1
100
AcDbCircle
 10
-4.375000000000654
 20
5.875000000000014
 40
0.75
100
AcDbArc
 50
360
 51
180.0000494519522
  0
LINE
  5
CB
100
AcDbEntity
  8
fuselage-bottom plate
  6
ByLayer
 62
  256
370
   -1
100
AcDbLine
 10
-3.625000000002681
 20
5.875000000000028
 11
3.625000000001307
 21
5.875000000000014
  0
ARC
  5
CC
100
AcDbEntity
  8
fuselage-bottom plate
  6
ByLayer
 62
  256
370
   -1
100
AcDbCircle
 10
4.375000000000654
 20
4.125000000000014
 40
0.75
100
AcDbArc
 50
180
 51
4.945195220498345e-005
  0
ARC
  5
CD
100
AcDbEntity
  8
fuselage-bottom plate
  6
ByLayer
 62
  256
370
   -1
100
AcDbCircle
 10
-4.375000000000654
 20
4.125000000000014
 40
0.75
100
AcDbArc
 50
179.9999505480478
 51
360
  0
LINE
  5
CE
100
AcDbEntity
  8
fuselage-bottom plate
  6
ByLayer
 62
  256
370
   -1
100
AcDbLine
 10
-3.625000000002681
 20
4.125
 11
3.625000000001305
 21
4.125000000000014
  0
LINE
  5
CF
100
AcDbEntity
  8
fuselage-bottom plate
  6
ByLayer
 62
  256
370
   -1
100
AcDbLine
 10
5.125000000000375
 20
4.125000647324555
 11
5.125000000000375
 21
5.874999352675474
  0
LINE
  5
D0
100
AcDbEntity
  8
fuselage-bottom plate
  6
ByLayer
 62
  256
370
   -1
100
AcDbLine
 10
-5.125000000000375
 20
4.125000647324555
 11
-5.125000000000375
 21
5.874999352675474
  0
LINE
  5
D1
100
AcDbEntity
  8
fuselage-bottom plate
  6
ByLayer
 62
  256
370
   -1
100
AcDbLine
 10
8.5
 20
232
 11
8.5
 21
230.25
  0
LINE
  5
D2
100
AcDbEntity
  8
fuselage-bottom plate
  6
ByLayer
 62
  256
370
   -1
100
AcDbLine
 10
14
 20
234.625
 11
15.75
 21
234.625
  0
LINE
  5
D3
100
AcDbEntity
  8
fuselage-bottom plate
  6
ByLayer
 62
  256
370
   -1
100
AcDbLine
 10
14
 20
227.625
 11
15.75
 21
227.625
  0
LINE
  5
D4
100
AcDbEntity
  8
fuselage-bottom plate
  6
ByLayer
 62
  256
370
   -1
100
AcDbLine
 10
10.24999999999956
 20
232
 11
14
 21
232
  0
LINE
  5
D5
100
AcDbEntity
  8
fuselage-bottom plate
  6
ByLayer
 62
  256
370
   -1
100
AcDbLine
 10
13.99999999999999
 20
232.8750000000001
 11
14
 21
232
  0
ARC
  5
D6
100
AcDbEntity
  8
fuselage-bottom plate
  6
ByLayer
 62
  256
370
   -1
100
AcDbCircle
 10
14
 20
233.75
 40
0.8749999999996163
100
AcDbArc
 50
89.99999999999977
 51
269.9999999999998
  0
ARC
  5
D7
100
AcDbEntity
  8
fuselage-bottom plate
  6
ByLayer
 62
  256
370
   -1
100
AcDbCircle
 10
9.37499999999978
 20
232
 40
0.8749999999997797
100
AcDbArc
 50
359.9999999999991
 51
540.0000000000009
  0
ARC
  5
D8
100
AcDbEntity
  8
fuselage-bottom plate
  6
ByLayer
 62
  256
370
   -1
100
AcDbCircle
 10
9.37499999999978
 20
230.25
 40
0.8749999999997797
100
AcDbArc
 50
179.9999999999991
 51
9.159997482614929e-013
  0
ARC
  5
D9
100
AcDbEntity
  8
fuselage-bottom plate
  6
ByLayer
 62
  256
370
   -1
100
AcDbCircle
 10
15.75
 20
233.75
 40
0.8749999999996163
100
AcDbArc
 50
270.0000000000002
 51
90.0000000000002
  0
ARC
  5
DA
100
AcDbEntity
  8
fuselage-bottom plate
  6
ByLayer
 62
  256
370
   -1
100
AcDbCircle
 10
14
 20
228.5
 40
0.8749999999996163
100
AcDbArc
 50
90.00000000000026
 51
270.0000000000002
  0
ARC
  5
DB
100
AcDbEntity
  8
fuselage-bottom plate
  6
ByLayer
 62
  256
370
   -1
100
AcDbCircle
 10
15.75
 20
228.5
 40
0.8749999999996163
100
AcDbArc
 50
269.9999999999998
 51
89.99999999999974
  0
LINE
  5
DC
100
AcDbEntity
  8
fuselage-bottom plate
  6
ByLayer
 62
  256
370
   -1
100
AcDbLine
 10
14
 20
230.25
 11
14
 21
229.374999999999
  0
LINE
  5
DD
100
AcDbEntity
  8
fuselage-bottom plate
  6
ByLayer
 62
  256
370
   -1
100
AcDbLine
 10
15.75
 20
232.8749999999977
 11
15.75
 21
229.3749999999992
  0
LINE
  5
DE
100
AcDbEntity
  8
fuselage-bottom plate
  6
ByLayer
 62
  256
370
   -1
100
AcDbLine
 10
10.25000000000096
 20
230.25
 11
14
 21
230.25
  0
LINE
  5
DF
100
AcDbEntity
  8
fuselage-bottom plate
  6
ByLayer
 62
  256
370
   -1
100
AcDbLine
 10
-8.5
 20
232
 11
-8.5
 21
230.25
  0
LINE
  5
E0
100
AcDbEntity
  8
fuselage-bottom plate
  6
ByLayer
 62
  256
370
   -1
100
AcDbLine
 10
-14
 20
234.625
 11
-15.75
 21
234.625
  0
LINE
  5
E1
100
AcDbEntity
  8
fuselage-bottom plate
  6
ByLayer
 62
  256
370
   -1
100
AcDbLine
 10
-14
 20
227.625
 11
-15.75
 21
227.625
  0
LINE
  5
E2
100
AcDbEntity
  8
fuselage-bottom plate
  6
ByLayer
 62
  256
370
   -1
100
AcDbLine
 10
-10.24999999999956
 20
232
 11
-14
 21
232
  0
LINE
  5
E3
100
AcDbEntity
  8
fuselage-bottom plate
  6
ByLayer
 62
  256
370
   -1
100
AcDbLine
 10
-13.99999999999999
 20
232.8750000000001
 11
-14
 21
232
  0
ARC
  5
E4
100
AcDbEntity
  8
fuselage-bottom plate
  6
ByLayer
 62
  256
370
   -1
100
AcDbCircle
 10
-14
 20
233.75
 40
0.8749999999996163
100
AcDbArc
 50
270.0000000000002
 51
90.0000000000002
  0
ARC
  5
E5
100
AcDbEntity
  8
fuselage-bottom plate
  6
ByLayer
 62
  256
370
   -1
100
AcDbCircle
 10
-9.37499999999978
 20
232
 40
0.8749999999997797
100
AcDbArc
 50
359.9999999999991
 51
180.0000000000009
  0
ARC
  5
E6
100
AcDbEntity
  8
fuselage-bottom plate
  6
ByLayer
 62
  256
370
   -1
100
AcDbCircle
 10
-9.37499999999978
 20
230.25
 40
0.8749999999997797
100
AcDbArc
 50
179.9999999999991
 51
9.159997482614929e-013
  0
ARC
  5
E7
100
AcDbEntity
  8
fuselage-bottom plate
  6
ByLayer
 62
  256
370
   -1
100
AcDbCircle
 10
-15.75
 20
233.75
 40
0.8749999999996163
100
AcDbArc
 50
89.9999999999998
 51
269.9999999999998
  0
ARC
  5
E8
100
AcDbEntity
  8
fuselage-bottom plate
  6
ByLayer
 62
  256
370
   -1
100
AcDbCircle
 10
-14
 20
228.5
 40
0.8749999999996163
100
AcDbArc
 50
269.9999999999998
 51
89.99999999999974
  0
ARC
  5
E9
100
AcDbEntity
  8
fuselage-bottom plate
  6
ByLayer
 62
  256
370
   -1
100
AcDbCircle
 10
-15.75
 20
228.5
 40
0.8749999999996163
100
AcDbArc
 50
90.00000000000026
 51
270.0000000000002
  0
LINE
  5
EA
100
AcDbEntity
  8
fuselage-bottom plate
  6
ByLayer
 62
  256
370
   -1
100
AcDbLine
 10
-14
 20
230.25
 11
-14
 21
229.374999999999
  0
LINE
  5
EB
100
AcDbEntity
  8
fuselage-bottom plate
  6
ByLayer
 62
  256
370
   -1
100
AcDbLine
 10
-15.75
 20
232.8749999999977
 11
-15.75
 21
229.3749999999992
  0
LINE
  5
EC
100
AcDbEntity
  8
fuselage-bottom plate
  6
ByLayer
 62
  256
370
   -1
100
AcDbLine
 10
-10.25000000000096
 20
230.25
 11
-14
 21
230.25
  0
CIRCLE
  5
ED
100
AcDbEntity
  8
fuselage-bottom plate
  6
ByLayer
 62
  256
370
   -1
100
AcDbCircle
 10
17.5
 20
242
 40
1.5
  0
CIRCLE
  5
EE
100
AcDbEntity
  8
fuselage-bottom plate
  6
ByLayer
 62
  256
370
   -1
100
AcDbCircle
 10
-17.5
 20
242
 40
1.5
  0
ARC
  5
EF
100
AcDbEntity
  8
fuselage-bottom plate
  6
ByLayer
 62
  256
370
   -1
100
AcDbCircle
 10
-18.50000000000002
 20
245.6642838216367
 40
3
100
AcDbArc
 50
108.9390048777084
 51
180
  0
ARC
  5
F0
100
AcDbEntity
  8
fuselage-bottom plate
  6
ByLayer
 62
  256
370
   -1
100
AcDbCircle
 10
-15.49999999999999
 20
5.147926201464415
 40
3
100
AcDbArc
 50
180
 51
254.2208650173368
  0
LINE
  5
F1
100
AcDbEntity
  8
fuselage-bottom plate
  6
ByLayer
 62
  256
370
   -1
100
AcDbLine
 10
-18.5
 20
19.75735931288072
 11
-18.5
 21
5.147926201464415
  0
ARC
  5
F2
100
AcDbEntity
  8
fuselage-bottom plate
  6
ByLayer
 62
  256
370
   -1
100
AcDbCircle
 10
-21.5
 20
19.75735931288072
 40
3
100
AcDbArc
 50
0
 51
45.00000000000009
  0
LINE
  5
F3
100
AcDbEntity
  8
fuselage-bottom plate
  6
ByLayer
 62
  256
370
   -1
100
AcDbLine
 10
-20.62132034355964
 20
23.12132034355965
 11
-19.37867965644036
 21
21.87867965644037
  0
LINE
  5
F4
100
AcDbEntity
  8
fuselage-bottom plate
  6
ByLayer
 62
  256
370
   -1
100
AcDbLine
 10
-21.50000000000001
 20
245.6642838216367
 11
-21.5
 21
25.24264068711931
  0
ARC
  5
F5
100
AcDbEntity
  8
fuselage-bottom plate
  6
ByLayer
 62
  256
370
   -1
100
AcDbCircle
 10
-18.5
 20
25.24264068711929
 40
3
100
AcDbArc
 50
179.9999999999997
 51
225.0000000000001
  0
LINE
  5
F6
100
AcDbEntity
  8
fuselage-bottom plate
  6
ByLayer
 62
  256
370
   -1
100
AcDbLine
 10
-4.375
 20
247
 11
-4.375
 21
245.25
  0
LINE
  5
F7
100
AcDbEntity
  8
fuselage-bottom plate
  6
ByLayer
 62
  256
370
   -1
100
AcDbLine
 10
-11.625
 20
247
 11
-11.625
 21
245.25
  0
LINE
  5
F8
100
AcDbEntity
  8
fuselage-bottom plate
  6
ByLayer
 62
  256
370
   -1
100
AcDbLine
 10
-6.125000000001818
 20
247
 11
-9.87499999999778
 21
247
  0
ARC
  5
F9
100
AcDbEntity
  8
fuselage-bottom plate
  6
ByLayer
 62
  256
370
   -1
100
AcDbCircle
 10
-5.250000000000598
 20
247
 40
0.8750000000005977
100
AcDbArc
 50
9.305358770791191e-013
 51
179.9999999999982
  0
ARC
  5
FA
100
AcDbEntity
  8
fuselage-bottom plate
  6
ByLayer
 62
  256
370
   -1
100
AcDbCircle
 10
-10.75000000000011
 20
247
 40
0.8749999999998943
100
AcDbArc
 50
0
 51
180
  0
LINE
  5
FB
100
AcDbEntity
  8
fuselage-bottom plate
  6
ByLayer
 62
  256
370
   -1
100
AcDbLine
 10
-6.125000000001818
 20
245.25
 11
-9.87499999999778
 21
245.25
  0
ARC
  5
FC
100
AcDbEntity
  8
fuselage-bottom plate
  6
ByLayer
 62
  256
370
   -1
100
AcDbCircle
 10
-5.250000000000598
 20
245.25
 40
0.8750000000005977
100
AcDbArc
 50
180.0000000000018
 51
359.9999999999991
  0
ARC
  5
FD
100
AcDbEntity
  8
fuselage-bottom plate
  6
ByLayer
 62
  256
370
   -1
100
AcDbCircle
 10
-10.75000000000011
 20
245.25
 40
0.8749999999998943
100
AcDbArc
 50
180
 51
0
  0
LINE
  5
FE
100
AcDbEntity
  8
fuselage-bottom plate
  6
ByLayer
 62
  256
370
   -1
100
AcDbLine
 10
4.375
 20
247
 11
4.375
 21
245.25
  0
LINE
  5
FF
100
AcDbEntity
  8
fuselage-bottom plate
  6
ByLayer
 62
  256
370
   -1
100
AcDbLine
 10
11.625
 20
247
 11
11.625
 21
245.25
  0
LINE
  5
100
100
AcDbEntity
  8
fuselage-bottom plate
  6
ByLayer
 62
  256
370
   -1
100
AcDbLine
 10
6.125000000001818
 20
247
 11
9.87499999999778
 21
247
  0
ARC
  5
101
100
AcDbEntity
  8
fuselage-bottom plate
  6
ByLayer
 62
  256
370
   -1
100
AcDbCircle
 10
5.250000000000598
 20
247
 40
0.8750000000005977
100
AcDbArc
 50
1.831999496522986e-012
 51
179.9999999999991
  0
ARC
  5
102
100
AcDbEntity
  8
fuselage-bottom plate
  6
ByLayer
 62
  256
370
   -1
100
AcDbCircle
 10
10.75000000000011
 20
247
 40
0.8749999999998943
100
AcDbArc
 50
360
 51
180
  0
LINE
  5
103
100
AcDbEntity
  8
fuselage-bottom plate
  6
ByLayer
 62
  256
370
   -1
100
AcDbLine
 10
6.125000000001818
 20
245.25
 11
9.87499999999778
 21
245.25
  0
ARC
  5
104
100
AcDbEntity
  8
fuselage-bottom plate
  6
ByLayer
 62
  256
370
   -1
100
AcDbCircle
 10
5.250000000000598
 20
245.25
 40
0.8750000000005977
100
AcDbArc
 50
180.0000000000009
 51
359.9999999999982
  0
ARC
  5
105
100
AcDbEntity
  8
fuselage-bottom plate
  6
ByLayer
 62
  256
370
   -1
100
AcDbCircle
 10
10.75000000000011
 20
245.25
 40
0.8749999999998943
100
AcDbArc
 50
180
 51
360
  0
ARC
  5
106
100
AcDbEntity
  8
fuselage-bottom plate
  6
ByLayer
 62
  256
370
   -1
100
AcDbCircle
 10
-1.179611963664229e-016
 20
191.75
 40
60
100
AcDbArc
 50
71.06099512229154
 51
108.9390048777085
  0
ARC
  5
107
100
AcDbEntity
  8
fuselage-bottom plate
  6
ByLayer
 62
  256
370
   -1
100
AcDbCircle
 10
18.50000000000001
 20
245.6642838216367
 40
3
100
AcDbArc
 50
0
 51
71.06099512229163
  0
ARC
  5
108
100
AcDbEntity
  8
fuselage-bottom plate
  6
ByLayer
 62
  256
370
   -1
100
AcDbCircle
 10
1.35308431126191e-016
 20
60.00000000000003
 40
60
100
AcDbArc
 50
254.220865017337
 51
285.779134982663
  0
ARC
  5
109
100
AcDbEntity
  8
fuselage-bottom plate
  6
ByLayer
 62
  256
370
   -1
100
AcDbCircle
 10
15.5
 20
5.147926201464391
 40
3
100
AcDbArc
 50
285.7791349826629
 51
359.9999999999999
  0
LINE
  5
10A
100
AcDbEntity
  8
fuselage-bottom plate
  6
ByLayer
 62
  256
370
   -1
100
AcDbLine
 10
18.5
 20
19.75735931288072
 11
18.5
 21
5.147926201464388
  0
ARC
  5
10B
100
AcDbEntity
  8
fuselage-bottom plate
  6
ByLayer
 62
  256
370
   -1
100
AcDbCircle
 10
21.5
 20
19.75735931288072
 40
3
100
AcDbArc
 50
134.9999999999999
 51
180
  0
LINE
  5
10C
100
AcDbEntity
  8
fuselage-bottom plate
  6
ByLayer
 62
  256
370
   -1
100
AcDbLine
 10
20.62132034355964
 20
23.12132034355964
 11
19.37867965644036
 21
21.87867965644036
  0
LINE
  5
10D
100
AcDbEntity
  8
fuselage-bottom plate
  6
ByLayer
 62
  256
370
   -1
100
AcDbLine
 10
21.5
 20
25.24264068711928
 11
21.5
 21
245.6642838216367
  0
ARC
  5
10E
100
AcDbEntity
  8
fuselage-bottom plate
  6
ByLayer
 62
  256
370
   -1
100
AcDbCircle
 10
18.5
 20
25.24264068711928
 40
3
100
AcDbArc
 50
315
 51
0
  0
CIRCLE
  5
10F
100
AcDbEntity
  8
fuselage-top plate
  6
ByLayer
 62
  256
370
   -1
100
AcDbCircle
 10
-1.179611963664229e-016
 20
192
 40
1.5
  0
ARC
  5
110
100
AcDbEntity
  8
fuselage-top plate
  6
ByLayer
 62
  256
370
   -1
100
AcDbCircle
 10
-11
 20
142
 40
1.5
100
AcDbArc
 50
180
 51
270
  0
LINE
  5
111
100
AcDbEntity
  8
fuselage-top plate
  6
ByLayer
 62
  256
370
   -1
100
AcDbLine
 10
-11
 20
140.5
 11
-11
 21
140.5
  0
ARC
  5
112
100
AcDbEntity
  8
fuselage-top plate
  6
ByLayer
 62
  256
370
   -1
100
AcDbCircle
 10
-11
 20
142
 40
1.5
100
AcDbArc
 50
270
 51
0
  0
LINE
  5
113
100
AcDbEntity
  8
fuselage-top plate
  6
ByLayer
 62
  256
370
   -1
100
AcDbLine
 10
-12.5
 20
182
 11
-12.5
 21
142
  0
ARC
  5
114
100
AcDbEntity
  8
fuselage-top plate
  6
ByLayer
 62
  256
370
   -1
100
AcDbCircle
 10
-11
 20
182
 40
1.5
100
AcDbArc
 50
90
 51
179.9999999999997
  0
LINE
  5
115
100
AcDbEntity
  8
fuselage-top plate
  6
ByLayer
 62
  256
370
   -1
100
AcDbLine
 10
-11
 20
183.5
 11
-11
 21
183.5
  0
LINE
  5
116
100
AcDbEntity
  8
fuselage-top plate
  6
ByLayer
 62
  256
370
   -1
100
AcDbLine
 10
-9.5
 20
182
 11
-9.5
 21
142
  0
ARC
  5
117
100
AcDbEntity
  8
fuselage-top plate
  6
ByLayer
 62
  256
370
   -1
100
AcDbCircle
 10
-11
 20
182
 40
1.5
100
AcDbArc
 50
0
 51
90
  0
ARC
  5
118
100
AcDbEntity
  8
fuselage-top plate
  6
ByLayer
 62
  256
370
   -1
100
AcDbCircle
 10
11
 20
182
 40
1.5
100
AcDbArc
 50
359.9999999999997
 51
90
  0
LINE
  5
119
100
AcDbEntity
  8
fuselage-top plate
  6
ByLayer
 62
  256
370
   -1
100
AcDbLine
 10
11
 20
183.5
 11
11
 21
183.5
  0
ARC
  5
11A
100
AcDbEntity
  8
fuselage-top plate
  6
ByLayer
 62
  256
370
   -1
100
AcDbCircle
 10
11
 20
182
 40
1.5
100
AcDbArc
 50
90
 51
180
  0
LINE
  5
11B
100
AcDbEntity
  8
fuselage-top plate
  6
ByLayer
 62
  256
370
   -1
100
AcDbLine
 10
9.5
 20
182
 11
9.5
 21
142
  0
ARC
  5
11C
100
AcDbEntity
  8
fuselage-top plate
  6
ByLayer
 62
  256
370
   -1
100
AcDbCircle
 10
11
 20
142
 40
1.5
100
AcDbArc
 50
180
 51
270
  0
LINE
  5
11D
100
AcDbEntity
  8
fuselage-top plate
  6
ByLayer
 62
  256
370
   -1
100
AcDbLine
 10
12.5
 20
182
 11
12.5
 21
142
  0
LINE
  5
11E
100
AcDbEntity
  8
fuselage-top plate
  6
ByLayer
 62
  256
370
   -1
100
AcDbLine
 10
11
 20
140.5
 11
11
 21
140.5
  0
ARC
  5
11F
100
AcDbEntity
  8
fuselage-top plate
  6
ByLayer
 62
  256
370
   -1
100
AcDbCircle
 10
11
 20
142
 40
1.5
100
AcDbArc
 50
270
 51
0
  0
ARC
  5
120
100
AcDbEntity
  8
fuselage-top plate
  6
ByLayer
 62
  256
370
   -1
100
AcDbCircle
 10
-11
 20
82
 40
1.5
100
AcDbArc
 50
180
 51
270
  0
LINE
  5
121
100
AcDbEntity
  8
fuselage-top plate
  6
ByLayer
 62
  256
370
   -1
100
AcDbLine
 10
-11
 20
80.5
 11
-11
 21
80.5
  0
ARC
  5
122
100
AcDbEntity
  8
fuselage-top plate
  6
ByLayer
 62
  256
370
   -1
100
AcDbCircle
 10
-11
 20
82
 40
1.5
100
AcDbArc
 50
270
 51
0
  0
LINE
  5
123
100
AcDbEntity
  8
fuselage-top plate
  6
ByLayer
 62
  256
370
   -1
100
AcDbLine
 10
-12.5
 20
122
 11
-12.5
 21
82
  0
ARC
  5
124
100
AcDbEntity
  8
fuselage-top plate
  6
ByLayer
 62
  256
370
   -1
100
AcDbCircle
 10
-11
 20
122
 40
1.5
100
AcDbArc
 50
90
 51
179.9999999999997
  0
LINE
  5
125
100
AcDbEntity
  8
fuselage-top plate
  6
ByLayer
 62
  256
370
   -1
100
AcDbLine
 10
-11
 20
123.5
 11
-11
 21
123.5
  0
LINE
  5
126
100
AcDbEntity
  8
fuselage-top plate
  6
ByLayer
 62
  256
370
   -1
100
AcDbLine
 10
-9.5
 20
122
 11
-9.5
 21
82
  0
ARC
  5
127
100
AcDbEntity
  8
fuselage-top plate
  6
ByLayer
 62
  256
370
   -1
100
AcDbCircle
 10
-11
 20
122
 40
1.5
100
AcDbArc
 50
0
 51
90
  0
ARC
  5
128
100
AcDbEntity
  8
fuselage-top plate
  6
ByLayer
 62
  256
370
   -1
100
AcDbCircle
 10
11
 20
122
 40
1.5
100
AcDbArc
 50
359.9999999999997
 51
90
  0
LINE
  5
129
100
AcDbEntity
  8
fuselage-top plate
  6
ByLayer
 62
  256
370
   -1
100
AcDbLine
 10
11
 20
123.5
 11
11
 21
123.5
  0
ARC
  5
12A
100
AcDbEntity
  8
fuselage-top plate
  6
ByLayer
 62
  256
370
   -1
100
AcDbCircle
 10
11
 20
122
 40
1.5
100
AcDbArc
 50
90
 51
180
  0
LINE
  5
12B
100
AcDbEntity
  8
fuselage-top plate
  6
ByLayer
 62
  256
370
   -1
100
AcDbLine
 10
9.5
 20
122
 11
9.5
 21
82
  0
ARC
  5
12C
100
AcDbEntity
  8
fuselage-top plate
  6
ByLayer
 62
  256
370
   -1
100
AcDbCircle
 10
11
 20
82
 40
1.5
100
AcDbArc
 50
180
 51
270
  0
LINE
  5
12D
100
AcDbEntity
  8
fuselage-top plate
  6
ByLayer
 62
  256
370
   -1
100
AcDbLine
 10
12.5
 20
122
 11
12.5
 21
82
  0
LINE
  5
12E
100
AcDbEntity
  8
fuselage-top plate
  6
ByLayer
 62
  256
370
   -1
100
AcDbLine
 10
11
 20
80.5
 11
11
 21
80.5
  0
ARC
  5
12F
100
AcDbEntity
  8
fuselage-top plate
  6
ByLayer
 62
  256
370
   -1
100
AcDbCircle
 10
11
 20
82
 40
1.5
100
AcDbArc
 50
270
 51
0
  0
ARC
  5
130
100
AcDbEntity
  8
fuselage-top plate
  6
ByLayer
 62
  256
370
   -1
100
AcDbCircle
 10
11
 20
62
 40
1.5
100
AcDbArc
 50
359.9999999999997
 51
90
  0
LINE
  5
131
100
AcDbEntity
  8
fuselage-top plate
  6
ByLayer
 62
  256
370
   -1
100
AcDbLine
 10
11
 20
63.5
 11
11
 21
63.5
  0
ARC
  5
132
100
AcDbEntity
  8
fuselage-top plate
  6
ByLayer
 62
  256
370
   -1
100
AcDbCircle
 10
11
 20
62
 40
1.5
100
AcDbArc
 50
90
 51
180
  0
LINE
  5
133
100
AcDbEntity
  8
fuselage-top plate
  6
ByLayer
 62
  256
370
   -1
100
AcDbLine
 10
12.5
 20
62
 11
12.5
 21
32
  0
LINE
  5
134
100
AcDbEntity
  8
fuselage-top plate
  6
ByLayer
 62
  256
370
   -1
100
AcDbLine
 10
9.5
 20
62
 11
9.5
 21
32
  0
ARC
  5
135
100
AcDbEntity
  8
fuselage-top plate
  6
ByLayer
 62
  256
370
   -1
100
AcDbCircle
 10
11
 20
32
 40
1.5
100
AcDbArc
 50
180
 51
270
  0
ARC
  5
136
100
AcDbEntity
  8
fuselage-top plate
  6
ByLayer
 62
  256
370
   -1
100
AcDbCircle
 10
11
 20
32
 40
1.5
100
AcDbArc
 50
270
 51
0
  0
ARC
  5
137
100
AcDbEntity
  8
fuselage-top plate
  6
ByLayer
 62
  256
370
   -1
100
AcDbCircle
 10
-11
 20
62
 40
1.5
100
AcDbArc
 50
90
 51
180.0000000000003
  0
LINE
  5
138
100
AcDbEntity
  8
fuselage-top plate
  6
ByLayer
 62
  256
370
   -1
100
AcDbLine
 10
-11
 20
63.5
 11
-11
 21
63.5
  0
ARC
  5
139
100
AcDbEntity
  8
fuselage-top plate
  6
ByLayer
 62
  256
370
   -1
100
AcDbCircle
 10
-11
 20
62
 40
1.5
100
AcDbArc
 50
360
 51
90
  0
LINE
  5
13A
100
AcDbEntity
  8
fuselage-top plate
  6
ByLayer
 62
  256
370
   -1
100
AcDbLine
 10
-12.5
 20
62
 11
-12.5
 21
32
  0
LINE
  5
13B
100
AcDbEntity
  8
fuselage-top plate
  6
ByLayer
 62
  256
370
   -1
100
AcDbLine
 10
-9.5
 20
62
 11
-9.5
 21
32
  0
ARC
  5
13C
100
AcDbEntity
  8
fuselage-top plate
  6
ByLayer
 62
  256
370
   -1
100
AcDbCircle
 10
-11
 20
32
 40
1.5
100
AcDbArc
 50
270
 51
360
  0
ARC
  5
13D
100
AcDbEntity
  8
fuselage-top plate
  6
ByLayer
 62
  256
370
   -1
100
AcDbCircle
 10
-11
 20
32
 40
1.5
100
AcDbArc
 50
180
 51
270
  0
CIRCLE
  5
13E
100
AcDbEntity
  8
fuselage-top plate
  6
ByLayer
 62
  256
370
   -1
100
AcDbCircle
 10
17.5
 20
182
 40
1.5
  0
CIRCLE
  5
13F
100
AcDbEntity
  8
fuselage-top plate
  6
ByLayer
 62
  256
370
   -1
100
AcDbCircle
 10
17.5
 20
142
 40
1.5
  0
CIRCLE
  5
140
100
AcDbEntity
  8
fuselage-top plate
  6
ByLayer
 62
  256
370
   -1
100
AcDbCircle
 10
17.5
 20
122
 40
1.5
  0
CIRCLE
  5
141
100
AcDbEntity
  8
fuselage-top plate
  6
ByLayer
 62
  256
370
   -1
100
AcDbCircle
 10
17.5
 20
82
 40
1.5
  0
CIRCLE
  5
142
100
AcDbEntity
  8
fuselage-top plate
  6
ByLayer
 62
  256
370
   -1
100
AcDbCircle
 10
17.5
 20
132
 40
1.5
  0
CIRCLE
  5
143
100
AcDbEntity
  8
fuselage-top plate
  6
ByLayer
 62
  256
370
   -1
100
AcDbCircle
 10
17.5
 20
62
 40
1.5
  0
CIRCLE
  5
144
100
AcDbEntity
  8
fuselage-top plate
  6
ByLayer
 62
  256
370
   -1
100
AcDbCircle
 10
17.5
 20
32
 40
1.5
  0
CIRCLE
  5
145
100
AcDbEntity
  8
fuselage-top plate
  6
ByLayer
 62
  256
370
   -1
100
AcDbCircle
 10
17.5
 20
72
 40
1.5
  0
CIRCLE
  5
146
100
AcDbEntity
  8
fuselage-top plate
  6
ByLayer
 62
  256
370
   -1
100
AcDbCircle
 10
-17.5
 20
182
 40
1.5
  0
CIRCLE
  5
147
100
AcDbEntity
  8
fuselage-top plate
  6
ByLayer
 62
  256
370
   -1
100
AcDbCircle
 10
-17.5
 20
142
 40
1.5
  0
CIRCLE
  5
148
100
AcDbEntity
  8
fuselage-top plate
  6
ByLayer
 62
  256
370
   -1
100
AcDbCircle
 10
-17.5
 20
122
 40
1.5
  0
CIRCLE
  5
149
100
AcDbEntity
  8
fuselage-top plate
  6
ByLayer
 62
  256
370
   -1
100
AcDbCircle
 10
-17.5
 20
82
 40
1.5
  0
CIRCLE
  5
14A
100
AcDbEntity
  8
fuselage-top plate
  6
ByLayer
 62
  256
370
   -1
100
AcDbCircle
 10
-17.5
 20
132
 40
1.5
  0
CIRCLE
  5
14B
100
AcDbEntity
  8
fuselage-top plate
  6
ByLayer
 62
  256
370
   -1
100
AcDbCircle
 10
-17.5
 20
62
 40
1.5
  0
CIRCLE
  5
14C
100
AcDbEntity
  8
fuselage-top plate
  6
ByLayer
 62
  256
370
   -1
100
AcDbCircle
 10
-17.5
 20
32
 40
1.5
  0
CIRCLE
  5
14D
100
AcDbEntity
  8
fuselage-top plate
  6
ByLayer
 62
  256
370
   -1
100
AcDbCircle
 10
-17.5
 20
72
 40
1.5
  0
CIRCLE
  5
14E
100
AcDbEntity
  8
fuselage-top plate
  6
ByLayer
 62
  256
370
   -1
100
AcDbCircle
 10
9
 20
17
 40
1.5
  0
CIRCLE
  5
14F
100
AcDbEntity
  8
fuselage-top plate
  6
ByLayer
 62
  256
370
   -1
100
AcDbCircle
 10
-9
 20
17
 40
1.5
  0
CIRCLE
  5
150
100
AcDbEntity
  8
fuselage-top plate
  6
ByLayer
 62
  256
370
   -1
100
AcDbCircle
 10
9
 20
9
 40
1.5
  0
CIRCLE
  5
151
100
AcDbEntity
  8
fuselage-top plate
  6
ByLayer
 62
  256
370
   -1
100
AcDbCircle
 10
-9
 20
9
 40
1.5
  0
ARC
  5
152
100
AcDbEntity
  8
fuselage-top plate
  6
ByLayer
 62
  256
370
   -1
100
AcDbCircle
 10
4.375000000000654
 20
13.875
 40
0.75
100
AcDbArc
 50
359.9999505480478
 51
180
  0
ARC
  5
153
100
AcDbEntity
  8
fuselage-top plate
  6
ByLayer
 62
  256
370
   -1
100
AcDbCircle
 10
-4.375000000000654
 20
13.875
 40
0.75
100
AcDbArc
 50
360
 51
180.0000494519522
  0
LINE
  5
154
100
AcDbEntity
  8
fuselage-top plate
  6
ByLayer
 62
  256
370
   -1
100
AcDbLine
 10
-3.625000000002681
 20
13.87500000000001
 11
3.625000000001307
 21
13.875
  0
ARC
  5
155
100
AcDbEntity
  8
fuselage-top plate
  6
ByLayer
 62
  256
370
   -1
100
AcDbCircle
 10
4.375000000000654
 20
12.125
 40
0.75
100
AcDbArc
 50
180
 51
4.945195220498345e-005
  0
ARC
  5
156
100
AcDbEntity
  8
fuselage-top plate
  6
ByLayer
 62
  256
370
   -1
100
AcDbCircle
 10
-4.375000000000654
 20
12.125
 40
0.75
100
AcDbArc
 50
179.9999505480478
 51
360
  0
LINE
  5
157
100
AcDbEntity
  8
fuselage-top plate
  6
ByLayer
 62
  256
370
   -1
100
AcDbLine
 10
-3.625000000002681
 20
12.12499999999999
 11
3.625000000001305
 21
12.125
  0
LINE
  5
158
100
AcDbEntity
  8
fuselage-top plate
  6
ByLayer
 62
  256
370
   -1
100
AcDbLine
 10
5.125000000000375
 20
12.12500064732454
 11
5.125000000000375
 21
13.87499935267546
  0
LINE
  5
159
100
AcDbEntity
  8
fuselage-top plate
  6
ByLayer
 62
  256
370
   -1
100
AcDbLine
 10
-5.125000000000375
 20
12.12500064732454
 11
-5.125000000000375
 21
13.87499935267546
  0
ARC
  5
15A
100
AcDbEntity
  8
fuselage-top plate
  6
ByLayer
 62
  256
370
   -1
100
AcDbCircle
 10
4.375000000000654
 20
21.875
 40
0.75
100
AcDbArc
 50
359.9999505480478
 51
180
  0
ARC
  5
15B
100
AcDbEntity
  8
fuselage-top plate
  6
ByLayer
 62
  256
370
   -1
100
AcDbCircle
 10
-4.375000000000654
 20
21.875
 40
0.75
100
AcDbArc
 50
360
 51
180.0000494519522
  0
LINE
  5
15C
100
AcDbEntity
  8
fuselage-top plate
  6
ByLayer
 62
  256
370
   -1
100
AcDbLine
 10
-3.625000000002681
 20
21.87500000000001
 11
3.625000000001307
 21
21.875
  0
ARC
  5
15D
100
AcDbEntity
  8
fuselage-top plate
  6
ByLayer
 62
  256
370
   -1
100
AcDbCircle
 10
4.375000000000654
 20
20.125
 40
0.75
100
AcDbArc
 50
180
 51
4.945195220498345e-005
  0
ARC
  5
15E
100
AcDbEntity
  8
fuselage-top plate
  6
ByLayer
 62
  256
370
   -1
100
AcDbCircle
 10
-4.375000000000654
 20
20.125
 40
0.75
100
AcDbArc
 50
179.9999505480478
 51
360
  0
LINE
  5
15F
100
AcDbEntity
  8
fuselage-top plate
  6
ByLayer
 62
  256
370
   -1
100
AcDbLine
 10
-3.625000000002681
 20
20.12499999999999
 11
3.625000000001305
 21
20.125
  0
LINE
  5
160
100
AcDbEntity
  8
fuselage-top plate
  6
ByLayer
 62
  256
370
   -1
100
AcDbLine
 10
5.125000000000375
 20
20.12500064732454
 11
5.125000000000375
 21
21.87499935267546
  0
LINE
  5
161
100
AcDbEntity
  8
fuselage-top plate
  6
ByLayer
 62
  256
370
   -1
100
AcDbLine
 10
-5.125000000000375
 20
20.12500064732454
 11
-5.125000000000375
 21
21.87499935267546
  0
ARC
  5
162
100
AcDbEntity
  8
fuselage-top plate
  6
ByLayer
 62
  256
370
   -1
100
AcDbCircle
 10
4.375000000000654
 20
5.875000000000014
 40
0.75
100
AcDbArc
 50
359.9999505480478
 51
180
  0
ARC
  5
163
100
AcDbEntity
  8
fuselage-top plate
  6
ByLayer
 62
  256
370
   -1
100
AcDbCircle
 10
-4.375000000000654
 20
5.875000000000014
 40
0.75
100
AcDbArc
 50
360
 51
180.0000494519522
  0
LINE
  5
164
100
AcDbEntity
  8
fuselage-top plate
  6
ByLayer
 62
  256
370
   -1
100
AcDbLine
 10
-3.625000000002681
 20
5.875000000000028
 11
3.625000000001307
 21
5.875000000000014
  0
ARC
  5
165
100
AcDbEntity
  8
fuselage-top plate
  6
ByLayer
 62
  256
370
   -1
100
AcDbCircle
 10
4.375000000000654
 20
4.125000000000014
 40
0.75
100
AcDbArc
 50
180
 51
4.945195220498345e-005
  0
ARC
  5
166
100
AcDbEntity
  8
fuselage-top plate
  6
ByLayer
 62
  256
370
   -1
100
AcDbCircle
 10
-4.375000000000654
 20
4.125000000000014
 40
0.75
100
AcDbArc
 50
179.9999505480478
 51
360
  0
LINE
  5
167
100
AcDbEntity
  8
fuselage-top plate
  6
ByLayer
 62
  256
370
   -1
100
AcDbLine
 10
-3.625000000002681
 20
4.125
 11
3.625000000001305
 21
4.125000000000014
  0
LINE
  5
168
100
AcDbEntity
  8
fuselage-top plate
  6
ByLayer
 62
  256
370
   -1
100
AcDbLine
 10
5.125000000000375
 20
4.125000647324555
 11
5.125000000000375
 21
5.874999352675474
  0
LINE
  5
169
100
AcDbEntity
  8
fuselage-top plate
  6
ByLayer
 62
  256
370
   -1
100
AcDbLine
 10
-5.125000000000375
 20
4.125000647324555
 11
-5.125000000000375
 21
5.874999352675474
  0
ARC
  5
16A
100
AcDbEntity
  8
fuselage-top plate
  6
ByLayer
 62
  256
370
   -1
100
AcDbCircle
 10
-15.49999999999999
 20
5.147926201464415
 40
3
100
AcDbArc
 50
180
 51
254.2208650173368
  0
LINE
  5
16B
100
AcDbEntity
  8
fuselage-top plate
  6
ByLayer
 62
  256
370
   -1
100
AcDbLine
 10
-18.5
 20
19.75735931288072
 11
-18.5
 21
5.147926201464415
  0
ARC
  5
16C
100
AcDbEntity
  8
fuselage-top plate
  6
ByLayer
 62
  256
370
   -1
100
AcDbCircle
 10
-21.5
 20
19.75735931288072
 40
3
100
AcDbArc
 50
0
 51
45.00000000000009
  0
LINE
  5
16D
100
AcDbEntity
  8
fuselage-top plate
  6
ByLayer
 62
  256
370
   -1
100
AcDbLine
 10
-20.62132034355964
 20
23.12132034355965
 11
-19.37867965644036
 21
21.87867965644037
  0
ARC
  5
16E
100
AcDbEntity
  8
fuselage-top plate
  6
ByLayer
 62
  256
370
   -1
100
AcDbCircle
 10
-18.5
 20
25.24264068711929
 40
3
100
AcDbArc
 50
179.9999999999997
 51
225.0000000000001
  0
ARC
  5
16F
100
AcDbEntity
  8
fuselage-top plate
  6
ByLayer
 62
  256
370
   -1
100
AcDbCircle
 10
1.35308431126191e-016
 20
60.00000000000003
 40
60
100
AcDbArc
 50
254.220865017337
 51
285.779134982663
  0
ARC
  5
170
100
AcDbEntity
  8
fuselage-top plate
  6
ByLayer
 62
  256
370
   -1
100
AcDbCircle
 10
15.5
 20
5.147926201464391
 40
3
100
AcDbArc
 50
285.7791349826629
 51
359.9999999999999
  0
LINE
  5
171
100
AcDbEntity
  8
fuselage-top plate
  6
ByLayer
 62
  256
370
   -1
100
AcDbLine
 10
18.5
 20
19.75735931288072
 11
18.5
 21
5.147926201464388
  0
ARC
  5
172
100
AcDbEntity
  8
fuselage-top plate
  6
ByLayer
 62
  256
370
   -1
100
AcDbCircle
 10
21.5
 20
19.75735931288072
 40
3
100
AcDbArc
 50
134.9999999999999
 51
180
  0
LINE
  5
173
100
AcDbEntity
  8
fuselage-top plate
  6
ByLayer
 62
  256
370
   -1
100
AcDbLine
 10
20.62132034355964
 20
23.12132034355964
 11
19.37867965644036
 21
21.87867965644036
  0
ARC
  5
174
100
AcDbEntity
  8
fuselage-top plate
  6
ByLayer
 62
  256
370
   -1
100
AcDbCircle
 10
18.5
 20
25.24264068711928
 40
3
100
AcDbArc
 50
315
 51
0
  0
LINE
  5
175
100
AcDbEntity
  8
fuselage-top plate
  6
ByLayer
 62
  256
370
   -1
100
AcDbLine
 10
-17.24999999999999
 20
195.0310889132455
 11
-13.75
 21
195.0310889132455
  0
LINE
  5
176
100
AcDbEntity
  8
fuselage-top plate
  6
ByLayer
 62
  256
370
   -1
100
AcDbLine
 10
-13.75
 20
195.0310889132455
 11
-12.00000000000057
 21
192
  0
LINE
  5
177
100
AcDbEntity
  8
fuselage-top plate
  6
ByLayer
 62
  256
370
   -1
100
AcDbLine
 10
-12.00000000000057
 20
192
 11
-13.75
 21
188.9689110867545
  0
LINE
  5
178
100
AcDbEntity
  8
fuselage-top plate
  6
ByLayer
 62
  256
370
   -1
100
AcDbLine
 10
-13.75
 20
188.9689110867545
 11
-17.25
 21
188.9689110867545
  0
LINE
  5
179
100
AcDbEntity
  8
fuselage-top plate
  6
ByLayer
 62
  256
370
   -1
100
AcDbLine
 10
-17.25
 20
188.9689110867545
 11
-18.99999999999951
 21
192
  0
LINE
  5
17A
100
AcDbEntity
  8
fuselage-top plate
  6
ByLayer
 62
  256
370
   -1
100
AcDbLine
 10
-18.99999999999951
 20
192
 11
-17.25000000000037
 21
195.0310889132455
  0
LINE
  5
17B
100
AcDbEntity
  8
fuselage-top plate
  6
ByLayer
 62
  256
370
   -1
100
AcDbLine
 10
17.25
 20
195.0310889132456
 11
13.75000000000001
 21
195.0310889132456
  0
LINE
  5
17C
100
AcDbEntity
  8
fuselage-top plate
  6
ByLayer
 62
  256
370
   -1
100
AcDbLine
 10
13.75000000000001
 20
195.0310889132456
 11
12.00000000000059
 21
192
  0
LINE
  5
17D
100
AcDbEntity
  8
fuselage-top plate
  6
ByLayer
 62
  256
370
   -1
100
AcDbLine
 10
12.00000000000059
 20
192
 11
13.75000000000002
 21
188.9689110867545
  0
LINE
  5
17E
100
AcDbEntity
  8
fuselage-top plate
  6
ByLayer
 62
  256
370
   -1
100
AcDbLine
 10
13.75000000000002
 20
188.9689110867545
 11
17.25000000000002
 21
188.9689110867545
  0
LINE
  5
17F
100
AcDbEntity
  8
fuselage-top plate
  6
ByLayer
 62
  256
370
   -1
100
AcDbLine
 10
17.25000000000002
 20
188.9689110867545
 11
18.99999999999952
 21
192
  0
LINE
  5
180
100
AcDbEntity
  8
fuselage-top plate
  6
ByLayer
 62
  256
370
   -1
100
AcDbLine
 10
18.99999999999952
 20
192
 11
17.25000000000037
 21
195.0310889132456
  0
LINE
  5
181
100
AcDbEntity
  8
fuselage-top plate
  6
ByLayer
 62
  256
370
   -1
100
AcDbLine
 10
21.5
 20
25.24264068711928
 11
21.5
 21
195
  0
ARC
  5
182
100
AcDbEntity
  8
fuselage-top plate
  6
ByLayer
 62
  256
370
   -1
100
AcDbCircle
 10
18.5
 20
195
 40
3
100
AcDbArc
 50
0
 51
90
  0
LINE
  5
183
100
AcDbEntity
  8
fuselage-top plate
  6
ByLayer
 62
  256
370
   -1
100
AcDbLine
 10
-18.50000000000001
 20
198
 11
18.5
 21
198
  0
LINE
  5
184
100
AcDbEntity
  8
fuselage-top plate
  6
ByLayer
 62
  256
370
   -1
100
AcDbLine
 10
-21.50000000000001
 20
195
 11
-21.5
 21
25.24264068711931
  0
ARC
  5
185
100
AcDbEntity
  8
fuselage-top plate
  6
ByLayer
 62
  256
370
   -1
100
AcDbCircle
 10
-18.50000000000001
 20
195
 40
3
100
AcDbArc
 50
90.00000000000007
 51
180
  0
ARC
  5
186
100
AcDbEntity
  8
fuselage-top plate
  6
ByLayer
 62
  256
370
   -1
100
AcDbCircle
 10
-1
 20
162.5
 40
2
100
AcDbArc
 50
90
 51
180
  0
LINE
  5
187
100
AcDbEntity
  8
fuselage-top plate
  6
ByLayer
 62
  256
370
   -1
100
AcDbLine
 10
-3
 20
162.5
 11
-3
 21
161.5
  0
ARC
  5
188
100
AcDbEntity
  8
fuselage-top plate
  6
ByLayer
 62
  256
370
   -1
100
AcDbCircle
 10
-1
 20
161.5
 40
2
100
AcDbArc
 50
180
 51
270
  0
LINE
  5
189
100
AcDbEntity
  8
fuselage-top plate
  6
ByLayer
 62
  256
370
   -1
100
AcDbLine
 10
-1
 20
164.5
 11
1
 21
164.5
  0
ARC
  5
18A
100
AcDbEntity
  8
fuselage-top plate
  6
ByLayer
 62
  256
370
   -1
100
AcDbCircle
 10
1
 20
162.5
 40
2
100
AcDbArc
 50
0
 51
90
  0
LINE
  5
18B
100
AcDbEntity
  8
fuselage-top plate
  6
ByLayer
 62
  256
370
   -1
100
AcDbLine
 10
3
 20
162.5
 11
3
 21
161.5
  0
LINE
  5
18C
100
AcDbEntity
  8
fuselage-top plate
  6
ByLayer
 62
  256
370
   -1
100
AcDbLine
 10
-1
 20
159.5
 11
1
 21
159.5
  0
ARC
  5
18D
100
AcDbEntity
  8
fuselage-top plate
  6
ByLayer
 62
  256
370
   -1
100
AcDbCircle
 10
1
 20
161.5
 40
2
100
AcDbArc
 50
270
 51
0
  0
ARC
  5
18E
100
AcDbEntity
  8
fuselage-top plate
  6
ByLayer
 62
  256
370
   -1
100
AcDbCircle
 10
-1
 20
177.5
 40
2
100
AcDbArc
 50
90
 51
180
  0
LINE
  5
18F
100
AcDbEntity
  8
fuselage-top plate
  6
ByLayer
 62
  256
370
   -1
100
AcDbLine
 10
-3
 20
177.5
 11
-3
 21
176.5
  0
ARC
  5
190
100
AcDbEntity
  8
fuselage-top plate
  6
ByLayer
 62
  256
370
   -1
100
AcDbCircle
 10
-1
 20
176.5
 40
2
100
AcDbArc
 50
180
 51
270
  0
LINE
  5
191
100
AcDbEntity
  8
fuselage-top plate
  6
ByLayer
 62
  256
370
   -1
100
AcDbLine
 10
-1
 20
179.5
 11
1
 21
179.5
  0
ARC
  5
192
100
AcDbEntity
  8
fuselage-top plate
  6
ByLayer
 62
  256
370
   -1
100
AcDbCircle
 10
1
 20
177.5
 40
2
100
AcDbArc
 50
0
 51
90
  0
LINE
  5
193
100
AcDbEntity
  8
fuselage-top plate
  6
ByLayer
 62
  256
370
   -1
100
AcDbLine
 10
3
 20
177.5
 11
3
 21
176.5
  0
LINE
  5
194
100
AcDbEntity
  8
fuselage-top plate
  6
ByLayer
 62
  256
370
   -1
100
AcDbLine
 10
-1
 20
174.5
 11
1
 21
174.5
  0
ARC
  5
195
100
AcDbEntity
  8
fuselage-top plate
  6
ByLayer
 62
  256
370
   -1
100
AcDbCircle
 10
1
 20
176.5
 40
2
100
AcDbArc
 50
270
 51
0
  0
ARC
  5
196
100
AcDbEntity
  8
fuselage-top plate
  6
ByLayer
 62
  256
370
   -1
100
AcDbCircle
 10
-1
 20
147.5
 40
2
100
AcDbArc
 50
90
 51
180
  0
LINE
  5
197
100
AcDbEntity
  8
fuselage-top plate
  6
ByLayer
 62
  256
370
   -1
100
AcDbLine
 10
-3
 20
147.5
 11
-3
 21
146.5
  0
ARC
  5
198
100
AcDbEntity
  8
fuselage-top plate
  6
ByLayer
 62
  256
370
   -1
100
AcDbCircle
 10
-1
 20
146.5
 40
2
100
AcDbArc
 50
180
 51
270
  0
LINE
  5
199
100
AcDbEntity
  8
fuselage-top plate
  6
ByLayer
 62
  256
370
   -1
100
AcDbLine
 10
-1
 20
149.5
 11
1
 21
149.5
  0
ARC
  5
19A
100
AcDbEntity
  8
fuselage-top plate
  6
ByLayer
 62
  256
370
   -1
100
AcDbCircle
 10
1
 20
147.5
 40
2
100
AcDbArc
 50
0
 51
90
  0
LINE
  5
19B
100
AcDbEntity
  8
fuselage-top plate
  6
ByLayer
 62
  256
370
   -1
100
AcDbLine
 10
3
 20
147.5
 11
3
 21
146.5
  0
LINE
  5
19C
100
AcDbEntity
  8
fuselage-top plate
  6
ByLayer
 62
  256
370
   -1
100
AcDbLine
 10
-1
 20
144.5
 11
1
 21
144.5
  0
ARC
  5
19D
100
AcDbEntity
  8
fuselage-top plate
  6
ByLayer
 62
  256
370
   -1
100
AcDbCircle
 10
1
 20
146.5
 40
2
100
AcDbArc
 50
270
 51
0
  0
ARC
  5
19E
100
AcDbEntity
  8
fuselage-top plate
  6
ByLayer
 62
  256
370
   -1
100
AcDbCircle
 10
-1
 20
102.5
 40
2
100
AcDbArc
 50
90
 51
180
  0
LINE
  5
19F
100
AcDbEntity
  8
fuselage-top plate
  6
ByLayer
 62
  256
370
   -1
100
AcDbLine
 10
-3
 20
102.5
 11
-3
 21
101.5
  0
ARC
  5
1A0
100
AcDbEntity
  8
fuselage-top plate
  6
ByLayer
 62
  256
370
   -1
100
AcDbCircle
 10
-1
 20
101.5
 40
2
100
AcDbArc
 50
180
 51
270
  0
LINE
  5
1A1
100
AcDbEntity
  8
fuselage-top plate
  6
ByLayer
 62
  256
370
   -1
100
AcDbLine
 10
-1
 20
104.5
 11
1
 21
104.5
  0
ARC
  5
1A2
100
AcDbEntity
  8
fuselage-top plate
  6
ByLayer
 62
  256
370
   -1
100
AcDbCircle
 10
1
 20
102.5
 40
2
100
AcDbArc
 50
0
 51
90
  0
LINE
  5
1A3
100
AcDbEntity
  8
fuselage-top plate
  6
ByLayer
 62
  256
370
   -1
100
AcDbLine
 10
3
 20
102.5
 11
3
 21
101.5
  0
LINE
  5
1A4
100
AcDbEntity
  8
fuselage-top plate
  6
ByLayer
 62
  256
370
   -1
100
AcDbLine
 10
-1
 20
99.5
 11
1
 21
99.5
  0
ARC
  5
1A5
100
AcDbEntity
  8
fuselage-top plate
  6
ByLayer
 62
  256
370
   -1
100
AcDbCircle
 10
1
 20
101.5
 40
2
100
AcDbArc
 50
270
 51
0
  0
ARC
  5
1A6
100
AcDbEntity
  8
fuselage-top plate
  6
ByLayer
 62
  256
370
   -1
100
AcDbCircle
 10
-1
 20
117.5
 40
2
100
AcDbArc
 50
90
 51
180
  0
LINE
  5
1A7
100
AcDbEntity
  8
fuselage-top plate
  6
ByLayer
 62
  256
370
   -1
100
AcDbLine
 10
-3
 20
117.5
 11
-3
 21
116.5
  0
ARC
  5
1A8
100
AcDbEntity
  8
fuselage-top plate
  6
ByLayer
 62
  256
370
   -1
100
AcDbCircle
 10
-1
 20
116.5
 40
2
100
AcDbArc
 50
180
 51
270
  0
LINE
  5
1A9
100
AcDbEntity
  8
fuselage-top plate
  6
ByLayer
 62
  256
370
   -1
100
AcDbLine
 10
-1
 20
119.5
 11
1
 21
119.5
  0
ARC
  5
1AA
100
AcDbEntity
  8
fuselage-top plate
  6
ByLayer
 62
  256
370
   -1
100
AcDbCircle
 10
1
 20
117.5
 40
2
100
AcDbArc
 50
0
 51
90
  0
LINE
  5
1AB
100
AcDbEntity
  8
fuselage-top plate
  6
ByLayer
 62
  256
370
   -1
100
AcDbLine
 10
3
 20
117.5
 11
3
 21
116.5
  0
LINE
  5
1AC
100
AcDbEntity
  8
fuselage-top plate
  6
ByLayer
 62
  256
370
   -1
100
AcDbLine
 10
-1
 20
114.5
 11
1
 21
114.5
  0
ARC
  5
1AD
100
AcDbEntity
  8
fuselage-top plate
  6
ByLayer
 62
  256
370
   -1
100
AcDbCircle
 10
1
 20
116.5
 40
2
100
AcDbArc
 50
270
 51
0
  0
ARC
  5
1AE
100
AcDbEntity
  8
fuselage-top plate
  6
ByLayer
 62
  256
370
   -1
100
AcDbCircle
 10
-1
 20
87.5
 40
2
100
AcDbArc
 50
90
 51
180
  0
LINE
  5
1AF
100
AcDbEntity
  8
fuselage-top plate
  6
ByLayer
 62
  256
370
   -1
100
AcDbLine
 10
-3
 20
87.5
 11
-3
 21
86.5
  0
ARC
  5
1B0
100
AcDbEntity
  8
fuselage-top plate
  6
ByLayer
 62
  256
370
   -1
100
AcDbCircle
 10
-1
 20
86.5
 40
2
100
AcDbArc
 50
180
 51
270
  0
LINE
  5
1B1
100
AcDbEntity
  8
fuselage-top plate
  6
ByLayer
 62
  256
370
   -1
100
AcDbLine
 10
-1
 20
89.5
 11
1
 21
89.5
  0
ARC
  5
1B2
100
AcDbEntity
  8
fuselage-top plate
  6
ByLayer
 62
  256
370
   -1
100
AcDbCircle
 10
1
 20
87.5
 40
2
100
AcDbArc
 50
0
 51
90
  0
LINE
  5
1B3
100
AcDbEntity
  8
fuselage-top plate
  6
ByLayer
 62
  256
370
   -1
100
AcDbLine
 10
3
 20
87.5
 11
3
 21
86.5
  0
LINE
  5
1B4
100
AcDbEntity
  8
fuselage-top plate
  6
ByLayer
 62
  256
370
   -1
100
AcDbLine
 10
-1
 20
84.5
 11
1
 21
84.5
  0
ARC
  5
1B5
100
AcDbEntity
  8
fuselage-top plate
  6
ByLayer
 62
  256
370
   -1
100
AcDbCircle
 10
1
 20
86.5
 40
2
100
AcDbArc
 50
270
 51
0
  0
ARC
  5
1B6
100
AcDbEntity
  8
fuselage-top plate
  6
ByLayer
 62
  256
370
   -1
100
AcDbCircle
 10
-1
 20
132.5
 40
2
100
AcDbArc
 50
90
 51
180
  0
LINE
  5
1B7
100
AcDbEntity
  8
fuselage-top plate
  6
ByLayer
 62
  256
370
   -1
100
AcDbLine
 10
-3
 20
132.5
 11
-3
 21
131.5
  0
ARC
  5
1B8
100
AcDbEntity
  8
fuselage-top plate
  6
ByLayer
 62
  256
370
   -1
100
AcDbCircle
 10
-1
 20
131.5
 40
2
100
AcDbArc
 50
180
 51
270
  0
LINE
  5
1B9
100
AcDbEntity
  8
fuselage-top plate
  6
ByLayer
 62
  256
370
   -1
100
AcDbLine
 10
-1
 20
134.5
 11
1
 21
134.5
  0
ARC
  5
1BA
100
AcDbEntity
  8
fuselage-top plate
  6
ByLayer
 62
  256
370
   -1
100
AcDbCircle
 10
1
 20
132.5
 40
2
100
AcDbArc
 50
0
 51
90
  0
LINE
  5
1BB
100
AcDbEntity
  8
fuselage-top plate
  6
ByLayer
 62
  256
370
   -1
100
AcDbLine
 10
3
 20
132.5
 11
3
 21
131.5
  0
LINE
  5
1BC
100
AcDbEntity
  8
fuselage-top plate
  6
ByLayer
 62
  256
370
   -1
100
AcDbLine
 10
-1
 20
129.5
 11
1
 21
129.5
  0
ARC
  5
1BD
100
AcDbEntity
  8
fuselage-top plate
  6
ByLayer
 62
  256
370
   -1
100
AcDbCircle
 10
1
 20
131.5
 40
2
100
AcDbArc
 50
270
 51
0
  0
ARC
  5
1BE
100
AcDbEntity
  8
fuselage-top plate
  6
ByLayer
 62
  256
370
   -1
100
AcDbCircle
 10
-1
 20
72.5
 40
2
100
AcDbArc
 50
90
 51
180
  0
LINE
  5
1BF
100
AcDbEntity
  8
fuselage-top plate
  6
ByLayer
 62
  256
370
   -1
100
AcDbLine
 10
-3
 20
72.5
 11
-3
 21
71.5
  0
ARC
  5
1C0
100
AcDbEntity
  8
fuselage-top plate
  6
ByLayer
 62
  256
370
   -1
100
AcDbCircle
 10
-1
 20
71.5
 40
2
100
AcDbArc
 50
180
 51
270
  0
LINE
  5
1C1
100
AcDbEntity
  8
fuselage-top plate
  6
ByLayer
 62
  256
370
   -1
100
AcDbLine
 10
-1
 20
74.5
 11
1
 21
74.5
  0
ARC
  5
1C2
100
AcDbEntity
  8
fuselage-top plate
  6
ByLayer
 62
  256
370
   -1
100
AcDbCircle
 10
1
 20
72.5
 40
2
100
AcDbArc
 50
0
 51
90
  0
LINE
  5
1C3
100
AcDbEntity
  8
fuselage-top plate
  6
ByLayer
 62
  256
370
   -1
100
AcDbLine
 10
3
 20
72.5
 11
3
 21
71.5
  0
LINE
  5
1C4
100
AcDbEntity
  8
fuselage-top plate
  6
ByLayer
 62
  256
370
   -1
100
AcDbLine
 10
-1
 20
69.5
 11
1
 21
69.5
  0
ARC
  5
1C5
100
AcDbEntity
  8
fuselage-top plate
  6
ByLayer
 62
  256
370
   -1
100
AcDbCircle
 10
1
 20
71.5
 40
2
100
AcDbArc
 50
270
 51
0
  0
ARC
  5
1C6
100
AcDbEntity
  8
fuselage-top plate
  6
ByLayer
 62
  256
370
   -1
100
AcDbCircle
 10
-1
 20
57.5
 40
2
100
AcDbArc
 50
90
 51
180
  0
LINE
  5
1C7
100
AcDbEntity
  8
fuselage-top plate
  6
ByLayer
 62
  256
370
   -1
100
AcDbLine
 10
-3
 20
57.5
 11
-3
 21
56.5
  0
ARC
  5
1C8
100
AcDbEntity
  8
fuselage-top plate
  6
ByLayer
 62
  256
370
   -1
100
AcDbCircle
 10
-1
 20
56.5
 40
2
100
AcDbArc
 50
180
 51
270
  0
LINE
  5
1C9
100
AcDbEntity
  8
fuselage-top plate
  6
ByLayer
 62
  256
370
   -1
100
AcDbLine
 10
-1
 20
59.5
 11
1
 21
59.5
  0
ARC
  5
1CA
100
AcDbEntity
  8
fuselage-top plate
  6
ByLayer
 62
  256
370
   -1
100
AcDbCircle
 10
1
 20
57.5
 40
2
100
AcDbArc
 50
0
 51
90
  0
LINE
  5
1CB
100
AcDbEntity
  8
fuselage-top plate
  6
ByLayer
 62
  256
370
   -1
100
AcDbLine
 10
3
 20
57.5
 11
3
 21
56.5
  0
LINE
  5
1CC
100
AcDbEntity
  8
fuselage-top plate
  6
ByLayer
 62
  256
370
   -1
100
AcDbLine
 10
-1
 20
54.5
 11
1
 21
54.5
  0
ARC
  5
1CD
100
AcDbEntity
  8
fuselage-top plate
  6
ByLayer
 62
  256
370
   -1
100
AcDbCircle
 10
1
 20
56.5
 40
2
100
AcDbArc
 50
270
 51
0
  0
ARC
  5
1CE
100
AcDbEntity
  8
fuselage-top plate
  6
ByLayer
 62
  256
370
   -1
100
AcDbCircle
 10
-1
 20
42.5
 40
2
100
AcDbArc
 50
90
 51
180
  0
LINE
  5
1CF
100
AcDbEntity
  8
fuselage-top plate
  6
ByLayer
 62
  256
370
   -1
100
AcDbLine
 10
-3
 20
42.5
 11
-3
 21
41.5
  0
ARC
  5
1D0
100
AcDbEntity
  8
fuselage-top plate
  6
ByLayer
 62
  256
370
   -1
100
AcDbCircle
 10
-1
 20
41.5
 40
2
100
AcDbArc
 50
180
 51
270
  0
LINE
  5
1D1
100
AcDbEntity
  8
fuselage-top plate
  6
ByLayer
 62
  256
370
   -1
100
AcDbLine
 10
-1
 20
44.5
 11
1
 21
44.5
  0
ARC
  5
1D2
100
AcDbEntity
  8
fuselage-top plate
  6
ByLayer
 62
  256
370
   -1
100
AcDbCircle
 10
1
 20
42.5
 40
2
100
AcDbArc
 50
0
 51
90
  0
LINE
  5
1D3
100
AcDbEntity
  8
fuselage-top plate
  6
ByLayer
 62
  256
370
   -1
100
AcDbLine
 10
3
 20
42.5
 11
3
 21
41.5
  0
LINE
  5
1D4
100
AcDbEntity
  8
fuselage-top plate
  6
ByLayer
 62
  256
370
   -1
100
AcDbLine
 10
-1
 20
39.5
 11
1
 21
39.5
  0
ARC
  5
1D5
100
AcDbEntity
  8
fuselage-top plate
  6
ByLayer
 62
  256
370
   -1
100
AcDbCircle
 10
1
 20
41.5
 40
2
100
AcDbArc
 50
270
 51
0
  0
CIRCLE
  5
1D6
100
AcDbEntity
  8
fuselage-camera plate
  6
ByLayer
 62
  256
370
   -1
100
AcDbCircle
 10
-1.179611963664229e-016
 20
192
 40
1.5
  0
CIRCLE
  5
1D7
100
AcDbEntity
  8
fuselage-camera plate
  6
ByLayer
 62
  256
370
   -1
100
AcDbCircle
 10
15.5
 20
192
 40
1.5
  0
CIRCLE
  5
1D8
100
AcDbEntity
  8
fuselage-camera plate
  6
ByLayer
 62
  256
370
   -1
100
AcDbCircle
 10
-15.5
 20
192
 40
1.5
  0
CIRCLE
  5
1D9
100
AcDbEntity
  8
fuselage-camera plate
  6
ByLayer
 62
  256
370
   -1
100
AcDbCircle
 10
-7
 20
221
 40
1.5
  0
CIRCLE
  5
1DA
100
AcDbEntity
  8
fuselage-camera plate
  6
ByLayer
 62
  256
370
   -1
100
AcDbCircle
 10
7
 20
221
 40
1.5
  0
LINE
  5
1DB
100
AcDbEntity
  8
fuselage-camera plate
  6
ByLayer
 62
  256
370
   -1
100
AcDbLine
 10
8.5
 20
232
 11
8.5
 21
230.25
  0
LINE
  5
1DC
100
AcDbEntity
  8
fuselage-camera plate
  6
ByLayer
 62
  256
370
   -1
100
AcDbLine
 10
14
 20
234.625
 11
15.75
 21
234.625
  0
LINE
  5
1DD
100
AcDbEntity
  8
fuselage-camera plate
  6
ByLayer
 62
  256
370
   -1
100
AcDbLine
 10
14
 20
227.625
 11
15.75
 21
227.625
  0
LINE
  5
1DE
100
AcDbEntity
  8
fuselage-camera plate
  6
ByLayer
 62
  256
370
   -1
100
AcDbLine
 10
10.24999999999956
 20
232
 11
14
 21
232
  0
LINE
  5
1DF
100
AcDbEntity
  8
fuselage-camera plate
  6
ByLayer
 62
  256
370
   -1
100
AcDbLine
 10
13.99999999999999
 20
232.8750000000001
 11
14
 21
232
  0
ARC
  5
1E0
100
AcDbEntity
  8
fuselage-camera plate
  6
ByLayer
 62
  256
370
   -1
100
AcDbCircle
 10
14
 20
233.75
 40
0.8749999999996163
100
AcDbArc
 50
89.99999999999977
 51
269.9999999999998
  0
ARC
  5
1E1
100
AcDbEntity
  8
fuselage-camera plate
  6
ByLayer
 62
  256
370
   -1
100
AcDbCircle
 10
9.37499999999978
 20
232
 40
0.8749999999997797
100
AcDbArc
 50
359.9999999999991
 51
540.0000000000009
  0
ARC
  5
1E2
100
AcDbEntity
  8
fuselage-camera plate
  6
ByLayer
 62
  256
370
   -1
100
AcDbCircle
 10
9.37499999999978
 20
230.25
 40
0.8749999999997797
100
AcDbArc
 50
179.9999999999991
 51
9.159997482614929e-013
  0
ARC
  5
1E3
100
AcDbEntity
  8
fuselage-camera plate
  6
ByLayer
 62
  256
370
   -1
100
AcDbCircle
 10
15.75
 20
233.75
 40
0.8749999999996163
100
AcDbArc
 50
270.0000000000002
 51
90.0000000000002
  0
ARC
  5
1E4
100
AcDbEntity
  8
fuselage-camera plate
  6
ByLayer
 62
  256
370
   -1
100
AcDbCircle
 10
14
 20
228.5
 40
0.8749999999996163
100
AcDbArc
 50
90.00000000000026
 51
270.0000000000002
  0
ARC
  5
1E5
100
AcDbEntity
  8
fuselage-camera plate
  6
ByLayer
 62
  256
370
   -1
100
AcDbCircle
 10
15.75
 20
228.5
 40
0.8749999999996163
100
AcDbArc
 50
269.9999999999998
 51
89.99999999999974
  0
LINE
  5
1E6
100
AcDbEntity
  8
fuselage-camera plate
  6
ByLayer
 62
  256
370
   -1
100
AcDbLine
 10
14
 20
230.25
 11
14
 21
229.374999999999
  0
LINE
  5
1E7
100
AcDbEntity
  8
fuselage-camera plate
  6
ByLayer
 62
  256
370
   -1
100
AcDbLine
 10
15.75
 20
232.8749999999977
 11
15.75
 21
229.3749999999992
  0
LINE
  5
1E8
100
AcDbEntity
  8
fuselage-camera plate
  6
ByLayer
 62
  256
370
   -1
100
AcDbLine
 10
10.25000000000096
 20
230.25
 11
14
 21
230.25
  0
LINE
  5
1E9
100
AcDbEntity
  8
fuselage-camera plate
  6
ByLayer
 62
  256
370
   -1
100
AcDbLine
 10
-8.5
 20
232
 11
-8.5
 21
230.25
  0
LINE
  5
1EA
100
AcDbEntity
  8
fuselage-camera plate
  6
ByLayer
 62
  256
370
   -1
100
AcDbLine
 10
-14
 20
234.625
 11
-15.75
 21
234.625
  0
LINE
  5
1EB
100
AcDbEntity
  8
fuselage-camera plate
  6
ByLayer
 62
  256
370
   -1
100
AcDbLine
 10
-14
 20
227.625
 11
-15.75
 21
227.625
  0
LINE
  5
1EC
100
AcDbEntity
  8
fuselage-camera plate
  6
ByLayer
 62
  256
370
   -1
100
AcDbLine
 10
-10.24999999999956
 20
232
 11
-14
 21
232
  0
LINE
  5
1ED
100
AcDbEntity
  8
fuselage-camera plate
  6
ByLayer
 62
  256
370
   -1
100
AcDbLine
 10
-13.99999999999999
 20
232.8750000000001
 11
-14
 21
232
  0
ARC
  5
1EE
100
AcDbEntity
  8
fuselage-camera plate
  6
ByLayer
 62
  256
370
   -1
100
AcDbCircle
 10
-14
 20
233.75
 40
0.8749999999996163
100
AcDbArc
 50
270.0000000000002
 51
90.0000000000002
  0
ARC
  5
1EF
100
AcDbEntity
  8
fuselage-camera plate
  6
ByLayer
 62
  256
370
   -1
100
AcDbCircle
 10
-9.37499999999978
 20
232
 40
0.8749999999997797
100
AcDbArc
 50
359.9999999999991
 51
180.0000000000009
  0
ARC
  5
1F0
100
AcDbEntity
  8
fuselage-camera plate
  6
ByLayer
 62
  256
370
   -1
100
AcDbCircle
 10
-9.37499999999978
 20
230.25
 40
0.8749999999997797
100
AcDbArc
 50
179.9999999999991
 51
9.159997482614929e-013
  0
ARC
  5
1F1
100
AcDbEntity
  8
fuselage-camera plate
  6
ByLayer
 62
  256
370
   -1
100
AcDbCircle
 10
-15.75
 20
233.75
 40
0.8749999999996163
100
AcDbArc
 50
89.9999999999998
 51
269.9999999999998
  0
ARC
  5
1F2
100
AcDbEntity
  8
fuselage-camera plate
  6
ByLayer
 62
  256
370
   -1
100
AcDbCircle
 10
-14
 20
228.5
 40
0.8749999999996163
100
AcDbArc
 50
269.9999999999998
 51
89.99999999999974
  0
ARC
  5
1F3
100
AcDbEntity
  8
fuselage-camera plate
  6
ByLayer
 62
  256
370
   -1
100
AcDbCircle
 10
-15.75
 20
228.5
 40
0.8749999999996163
100
AcDbArc
 50
90.00000000000026
 51
270.0000000000002
  0
LINE
  5
1F4
100
AcDbEntity
  8
fuselage-camera plate
  6
ByLayer
 62
  256
370
   -1
100
AcDbLine
 10
-14
 20
230.25
 11
-14
 21
229.374999999999
  0
LINE
  5
1F5
100
AcDbEntity
  8
fuselage-camera plate
  6
ByLayer
 62
  256
370
   -1
100
AcDbLine
 10
-15.75
 20
232.8749999999977
 11
-15.75
 21
229.3749999999992
  0
LINE
  5
1F6
100
AcDbEntity
  8
fuselage-camera plate
  6
ByLayer
 62
  256
370
   -1
100
AcDbLine
 10
-10.25000000000096
 20
230.25
 11
-14
 21
230.25
  0
CIRCLE
  5
1F7
100
AcDbEntity
  8
fuselage-camera plate
  6
ByLayer
 62
  256
370
   -1
100
AcDbCircle
 10
17.5
 20
242
 40
1.5
  0
CIRCLE
  5
1F8
100
AcDbEntity
  8
fuselage-camera plate
  6
ByLayer
 62
  256
370
   -1
100
AcDbCircle
 10
-17.5
 20
242
 40
1.5
  0
ARC
  5
1F9
100
AcDbEntity
  8
fuselage-camera plate
  6
ByLayer
 62
  256
370
   -1
100
AcDbCircle
 10
-18.50000000000002
 20
245.6642838216367
 40
3
100
AcDbArc
 50
108.9390048777084
 51
180
  0
LINE
  5
1FA
100
AcDbEntity
  8
fuselage-camera plate
  6
ByLayer
 62
  256
370
   -1
100
AcDbLine
 10
-4.375
 20
247
 11
-4.375
 21
245.25
  0
LINE
  5
1FB
100
AcDbEntity
  8
fuselage-camera plate
  6
ByLayer
 62
  256
370
   -1
100
AcDbLine
 10
-11.625
 20
247
 11
-11.625
 21
245.25
  0
LINE
  5
1FC
100
AcDbEntity
  8
fuselage-camera plate
  6
ByLayer
 62
  256
370
   -1
100
AcDbLine
 10
-6.125000000001818
 20
247
 11
-9.87499999999778
 21
247
  0
ARC
  5
1FD
100
AcDbEntity
  8
fuselage-camera plate
  6
ByLayer
 62
  256
370
   -1
100
AcDbCircle
 10
-5.250000000000598
 20
247
 40
0.8750000000005977
100
AcDbArc
 50
9.305358770791191e-013
 51
179.9999999999982
  0
ARC
  5
1FE
100
AcDbEntity
  8
fuselage-camera plate
  6
ByLayer
 62
  256
370
   -1
100
AcDbCircle
 10
-10.75000000000011
 20
247
 40
0.8749999999998943
100
AcDbArc
 50
0
 51
180
  0
LINE
  5
1FF
100
AcDbEntity
  8
fuselage-camera plate
  6
ByLayer
 62
  256
370
   -1
100
AcDbLine
 10
-6.125000000001818
 20
245.25
 11
-9.87499999999778
 21
245.25
  0
ARC
  5
200
100
AcDbEntity
  8
fuselage-camera plate
  6
ByLayer
 62
  256
370
   -1
100
AcDbCircle
 10
-5.250000000000598
 20
245.25
 40
0.8750000000005977
100
AcDbArc
 50
180.0000000000018
 51
359.9999999999991
  0
ARC
  5
201
100
AcDbEntity
  8
fuselage-camera plate
  6
ByLayer
 62
  256
370
   -1
100
AcDbCircle
 10
-10.75000000000011
 20
245.25
 40
0.8749999999998943
100
AcDbArc
 50
180
 51
0
  0
LINE
  5
202
100
AcDbEntity
  8
fuselage-camera plate
  6
ByLayer
 62
  256
370
   -1
100
AcDbLine
 10
4.375
 20
247
 11
4.375
 21
245.25
  0
LINE
  5
203
100
AcDbEntity
  8
fuselage-camera plate
  6
ByLayer
 62
  256
370
   -1
100
AcDbLine
 10
11.625
 20
247
 11
11.625
 21
245.25
  0
LINE
  5
204
100
AcDbEntity
  8
fuselage-camera plate
  6
ByLayer
 62
  256
370
   -1
100
AcDbLine
 10
6.125000000001818
 20
247
 11
9.87499999999778
 21
247
  0
ARC
  5
205
100
AcDbEntity
  8
fuselage-camera plate
  6
ByLayer
 62
  256
370
   -1
100
AcDbCircle
 10
5.250000000000598
 20
247
 40
0.8750000000005977
100
AcDbArc
 50
1.831999496522986e-012
 51
179.9999999999991
  0
ARC
  5
206
100
AcDbEntity
  8
fuselage-camera plate
  6
ByLayer
 62
  256
370
   -1
100
AcDbCircle
 10
10.75000000000011
 20
247
 40
0.8749999999998943
100
AcDbArc
 50
360
 51
180
  0
LINE
  5
207
100
AcDbEntity
  8
fuselage-camera plate
  6
ByLayer
 62
  256
370
   -1
100
AcDbLine
 10
6.125000000001818
 20
245.25
 11
9.87499999999778
 21
245.25
  0
ARC
  5
208
100
AcDbEntity
  8
fuselage-camera plate
  6
ByLayer
 62
  256
370
   -1
100
AcDbCircle
 10
5.250000000000598
 20
245.25
 40
0.8750000000005977
100
AcDbArc
 50
180.0000000000009
 51
359.9999999999982
  0
ARC
  5
209
100
AcDbEntity
  8
fuselage-camera plate
  6
ByLayer
 62
  256
370
   -1
100
AcDbCircle
 10
10.75000000000011
 20
245.25
 40
0.8749999999998943
100
AcDbArc
 50
180
 51
360
  0
ARC
  5
20A
100
AcDbEntity
  8
fuselage-camera plate
  6
ByLayer
 62
  256
370
   -1
100
AcDbCircle
 10
-1.179611963664229e-016
 20
191.75
 40
60
100
AcDbArc
 50
71.06099512229154
 51
108.9390048777085
  0
ARC
  5
20B
100
AcDbEntity
  8
fuselage-camera plate
  6
ByLayer
 62
  256
370
   -1
100
AcDbCircle
 10
18.50000000000001
 20
245.6642838216367
 40
3
100
AcDbArc
 50
0
 51
71.06099512229163
  0
LINE
  5
20C
100
AcDbEntity
  8
fuselage-camera plate
  6
ByLayer
 62
  256
370
   -1
100
AcDbLine
 10
21.5
 20
191.75
 11
21.5
 21
245.6642838216367
  0
LINE
  5
20D
100
AcDbEntity
  8
fuselage-camera plate
  6
ByLayer
 62
  256
370
   -1
100
AcDbLine
 10
-18.50000000000001
 20
188.75
 11
18.5
 21
188.75
  0
ARC
  5
20E
100
AcDbEntity
  8
fuselage-camera plate
  6
ByLayer
 62
  256
370
   -1
100
AcDbCircle
 10
18.5
 20
191.75
 40
3
100
AcDbArc
 50
269.9999999999999
 51
0
  0
CIRCLE
  5
20F
100
AcDbEntity
  8
fuselage-camera mount
  6
ByLayer
 62
  256
370
   -1
100
AcDbCircle
 10
0
 20
0
 40
1.5
  0
LINE
  5
210
100
AcDbEntity
  8
fuselage-camera mount
  6
ByLayer
 62
  256
370
   -1
100
AcDbLine
 10
7.5
 20
2.5
 11
7.5
 21
-2.5
  0
LINE
  5
211
100
AcDbEntity
  8
fuselage-camera mount
  6
ByLayer
 62
  256
370
   -1
100
AcDbLine
 10
7.5
 20
2.5
 11
17.5
 21
16.5
  0
LINE
  5
212
100
AcDbEntity
  8
fuselage-camera mount
  6
ByLayer
 62
  256
370
   -1
100
AcDbLine
 10
7.5
 20
-2.5
 11
17.5
 21
-16.5
  0
LINE
  5
213
100
AcDbEntity
  8
fuselage-camera mount
  6
ByLayer
 62
  256
370
   -1
100
AcDbLine
 10
-7.5
 20
1.799999999999999
 11
-7.5
 21
-1.800000000000012
  0
LINE
  5
214
100
AcDbEntity
  8
fuselage-camera mount
  6
ByLayer
 62
  256
370
   -1
100
AcDbLine
 10
17.5
 20
17.5
 11
17.5
 21
16.5
  0
LINE
  5
215
100
AcDbEntity
  8
fuselage-camera mount
  6
ByLayer
 62
  256
370
   -1
100
AcDbLine
 10
17.5
 20
-16.5
 11
17.5
 21
-17.5
  0
LINE
  5
216
100
AcDbEntity
  8
fuselage-camera mount
  6
ByLayer
 62
  256
370
   -1
100
AcDbLine
 10
2.999999999999997
 20
-16.5
 11
2.999999999999997
 21
-17.5
  0
LINE
  5
217
100
AcDbEntity
  8
fuselage-camera mount
  6
ByLayer
 62
  256
370
   -1
100
AcDbLine
 10
-7.5
 20
-1.800000000000012
 11
2.999999999999997
 21
-16.5
  0
LINE
  5
218
100
AcDbEntity
  8
fuselage-camera mount
  6
ByLayer
 62
  256
370
   -1
100
AcDbLine
 10
3.000000000000003
 20
17.5
 11
3.000000000000002
 21
16.49999999999999
  0
LINE
  5
219
100
AcDbEntity
  8
fuselage-camera mount
  6
ByLayer
 62
  256
370
   -1
100
AcDbLine
 10
-7.5
 20
1.799999999999999
 11
3.000000000000002
 21
16.49999999999999
  0
LINE
  5
21A
100
AcDbEntity
  8
fuselage-camera mount
  6
ByLayer
 62
  256
370
   -1
100
AcDbLine
 10
15.50000000000019
 20
17.5
 11
17.5
 21
17.5
  0
ARC
  5
21B
100
AcDbEntity
  8
fuselage-camera mount
  6
ByLayer
 62
  256
370
   -1
100
AcDbCircle
 10
14.75
 20
17.5
 40
0.7499999999999956
100
AcDbArc
 50
180
 51
0
  0
ARC
  5
21C
100
AcDbEntity
  8
fuselage-camera mount
  6
ByLayer
 62
  256
370
   -1
100
AcDbCircle
 10
5.75
 20
17.5
 40
0.7500000000000031
100
AcDbArc
 50
180
 51
360
  0
LINE
  5
21D
100
AcDbEntity
  8
fuselage-camera mount
  6
ByLayer
 62
  256
370
   -1
100
AcDbLine
 10
3.000000000000003
 20
17.5
 11
4.999999999999945
 21
17.5
  0
LINE
  5
21E
100
AcDbEntity
  8
fuselage-camera mount
  6
ByLayer
 62
  256
370
   -1
100
AcDbLine
 10
6.500000000000003
 20
19
 11
14
 21
19
  0
LINE
  5
21F
100
AcDbEntity
  8
fuselage-camera mount
  6
ByLayer
 62
  256
370
   -1
100
AcDbLine
 10
6.500000000000003
 20
17.5
 11
6.500000000000003
 21
19
  0
LINE
  5
220
100
AcDbEntity
  8
fuselage-camera mount
  6
ByLayer
 62
  256
370
   -1
100
AcDbLine
 10
14
 20
17.5
 11
14
 21
19
  0
LINE
  5
221
100
AcDbEntity
  8
fuselage-camera mount
  6
ByLayer
 62
  256
370
   -1
100
AcDbLine
 10
15.50000000000019
 20
-17.5
 11
17.5
 21
-17.5
  0
ARC
  5
222
100
AcDbEntity
  8
fuselage-camera mount
  6
ByLayer
 62
  256
370
   -1
100
AcDbCircle
 10
14.75
 20
-17.5
 40
0.7499999999999956
100
AcDbArc
 50
360
 51
180
  0
ARC
  5
223
100
AcDbEntity
  8
fuselage-camera mount
  6
ByLayer
 62
  256
370
   -1
100
AcDbCircle
 10
5.75
 20
-17.5
 40
0.7500000000000031
100
AcDbArc
 50
0
 51
180
  0
LINE
  5
224
100
AcDbEntity
  8
fuselage-camera mount
  6
ByLayer
 62
  256
370
   -1
100
AcDbLine
 10
3.000000000000004
 20
-17.5
 11
4.999999999999945
 21
-17.5
  0
LINE
  5
225
100
AcDbEntity
  8
fuselage-camera mount
  6
ByLayer
 62
  256
370
   -1
100
AcDbLine
 10
6.500000000000001
 20
-19
 11
14
 21
-19
  0
LINE
  5
226
100
AcDbEntity
  8
fuselage-camera mount
  6
ByLayer
 62
  256
370
   -1
100
AcDbLine
 10
6.500000000000001
 20
-17.5
 11
6.500000000000001
 21
-19
  0
LINE
  5
227
100
AcDbEntity
  8
fuselage-camera mount
  6
ByLayer
 62
  256
370
   -1
100
AcDbLine
 10
14
 20
-17.5
 11
14
 21
-19
  0
ARC
  5
228
100
AcDbEntity
  8
fuselage-tube clip
  6
ByLayer
 62
  256
370
   -1
100
AcDbCircle
 10
0
 20
0
 40
7
100
AcDbArc
 50
6.15063982794101
 51
353.849360172059
  0
LINE
  5
229
100
AcDbEntity
  8
fuselage-tube clip
  6
ByLayer
 62
  256
370
   -1
100
AcDbLine
 10
11.5
 20
-0.75
 11
6.959705453537528
 21
-0.7500000000000001
  0
LINE
  5
22A
100
AcDbEntity
  8
fuselage-tube clip
  6
ByLayer
 62
  256
370
   -1
100
AcDbLine
 10
11.5
 20
0.75
 11
6.959705453537526
 21
0.7500000000000003
  0
LINE
  5
22B
100
AcDbEntity
  8
fuselage-tube clip
  6
ByLayer
 62
  256
370
   -1
100
AcDbLine
 10
11.5
 20
10
 11
11.5
 21
0.75
  0
LINE
  5
22C
100
AcDbEntity
  8
fuselage-tube clip
  6
ByLayer
 62
  256
370
   -1
100
AcDbLine
 10
11.5
 20
-0.75
 11
11.5
 21
-10
  0
LINE
  5
22D
100
AcDbEntity
  8
fuselage-tube clip
  6
ByLayer
 62
  256
370
   -1
100
AcDbLine
 10
-11.5
 20
-10
 11
-11.5
 21
10
  0
LINE
  5
22E
100
AcDbEntity
  8
fuselage-tube clip
  6
ByLayer
 62
  256
370
   -1
100
AcDbLine
 10
-5
 20
11.5
 11
5
 21
11.5
  0
LINE
  5
22F
100
AcDbEntity
  8
fuselage-tube clip
  6
ByLayer
 62
  256
370
   -1
100
AcDbLine
 10
5
 20
-11.5
 11
-5
 21
-11.5
  0
ARC
  5
230
100
AcDbEntity
  8
fuselage-tube clip
  6
ByLayer
 62
  256
370
   -1
100
AcDbCircle
 10
5.75
 20
10
 40
0.75
100
AcDbArc
 50
180.0000000000002
 51
359.9999999999999
  0
LINE
  5
231
100
AcDbEntity
  8
fuselage-tube clip
  6
ByLayer
 62
  256
370
   -1
100
AcDbLine
 10
6.499999999999983
 20
9.999999999999998
 11
11.5
 21
10
  0
LINE
  5
232
100
AcDbEntity
  8
fuselage-tube clip
  6
ByLayer
 62
  256
370
   -1
100
AcDbLine
 10
5
 20
11.5
 11
5
 21
10
  0
ARC
  5
233
100
AcDbEntity
  8
fuselage-tube clip
  6
ByLayer
 62
  256
370
   -1
100
AcDbCircle
 10
5.75
 20
-10
 40
0.75
100
AcDbArc
 50
1.017777498068325e-013
 51
179.9999999999998
  0
LINE
  5
234
100
AcDbEntity
  8
fuselage-tube clip
  6
ByLayer
 62
  256
370
   -1
100
AcDbLine
 10
6.499999999999985
 20
-9.999999999999995
 11
11.5
 21
-10
  0
LINE
  5
235
100
AcDbEntity
  8
fuselage-tube clip
  6
ByLayer
 62
  256
370
   -1
100
AcDbLine
 10
5
 20
-11.5
 11
5
 21
-10
  0
ARC
  5
236
100
AcDbEntity
  8
fuselage-tube clip
  6
ByLayer
 62
  256
370
   -1
100
AcDbCircle
 10
-5.75
 20
10
 40
0.75
100
AcDbArc
 50
180.0000000000001
 51
359.9999999999998
  0
LINE
  5
237
100
AcDbEntity
  8
fuselage-tube clip
  6
ByLayer
 62
  256
370
   -1
100
AcDbLine
 10
-6.499999999999983
 20
9.999999999999998
 11
-11.5
 21
10
  0
LINE
  5
238
100
AcDbEntity
  8
fuselage-tube clip
  6
ByLayer
 62
  256
370
   -1
100
AcDbLine
 10
-5
 20
11.5
 11
-5
 21
10
  0
ARC
  5
239
100
AcDbEntity
  8
fuselage-tube clip
  6
ByLayer
 62
  256
370
   -1
100
AcDbCircle
 10
-5.75
 20
-10
 40
0.75
100
AcDbArc
 50
2.035554996136651e-013
 51
179.9999999999999
  0
LINE
  5
23A
100
AcDbEntity
  8
fuselage-tube clip
  6
ByLayer
 62
  256
370
   -1
100
AcDbLine
 10
-6.499999999999985
 20
-9.999999999999998
 11
-11.5
 21
-10
  0
LINE
  5
23B
100
AcDbEntity
  8
fuselage-tube clip
  6
ByLayer
 62
  256
370
   -1
100
AcDbLine
 10
-5
 20
-11.5
 11
-5
 21
-10
  0
LINE
  5
23C
100
AcDbEntity
  8
fuselage-camera cover
  6
ByLayer
 62
  256
370
   -1
100
AcDbLine
 10
17.5
 20
-17.5
 11
17.5
 21
17.5
  0
LINE
  5
23D
100
AcDbEntity
  8
fuselage-camera cover
  6
ByLayer
 62
  256
370
   -1
100
AcDbLine
 10
-17.5
 20
17.5
 11
-17.5
 21
-17.5
  0
LINE
  5
23E
100
AcDbEntity
  8
fuselage-camera cover
  6
ByLayer
 62
  256
370
   -1
100
AcDbLine
 10
11.5
 20
19
 11
4.500000000000001
 21
19
  0
LINE
  5
23F
100
AcDbEntity
  8
fuselage-camera cover
  6
ByLayer
 62
  256
370
   -1
100
AcDbLine
 10
4.500000000000001
 20
17.5
 11
4.500000000000001
 21
19
  0
LINE
  5
240
100
AcDbEntity
  8
fuselage-camera cover
  6
ByLayer
 62
  256
370
   -1
100
AcDbLine
 10
11.5
 20
17.5
 11
11.5
 21
19
  0
LINE
  5
241
100
AcDbEntity
  8
fuselage-camera cover
  6
ByLayer
 62
  256
370
   -1
100
AcDbLine
 10
17.5
 20
17.5
 11
13
 21
17.5
  0
ARC
  5
242
100
AcDbEntity
  8
fuselage-camera cover
  6
ByLayer
 62
  256
370
   -1
100
AcDbCircle
 10
12.25
 20
17.5
 40
0.75
100
AcDbArc
 50
180
 51
360
  0
ARC
  5
243
100
AcDbEntity
  8
fuselage-camera cover
  6
ByLayer
 62
  256
370
   -1
100
AcDbCircle
 10
3.75
 20
17.5
 40
0.75
100
AcDbArc
 50
180
 51
360
  0
LINE
  5
244
100
AcDbEntity
  8
fuselage-camera cover
  6
ByLayer
 62
  256
370
   -1
100
AcDbLine
 10
-11.5
 20
19
 11
-4.500000000000001
 21
19
  0
LINE
  5
245
100
AcDbEntity
  8
fuselage-camera cover
  6
ByLayer
 62
  256
370
   -1
100
AcDbLine
 10
-4.500000000000001
 20
17.5
 11
-4.500000000000001
 21
19
  0
LINE
  5
246
100
AcDbEntity
  8
fuselage-camera cover
  6
ByLayer
 62
  256
370
   -1
100
AcDbLine
 10
-11.5
 20
17.5
 11
-11.5
 21
19
  0
LINE
  5
247
100
AcDbEntity
  8
fuselage-camera cover
  6
ByLayer
 62
  256
370
   -1
100
AcDbLine
 10
-17.5
 20
17.5
 11
-13
 21
17.5
  0
ARC
  5
248
100
AcDbEntity
  8
fuselage-camera cover
  6
ByLayer
 62
  256
370
   -1
100
AcDbCircle
 10
-12.25
 20
17.5
 40
0.75
100
AcDbArc
 50
180
 51
0
  0
ARC
  5
249
100
AcDbEntity
  8
fuselage-camera cover
  6
ByLayer
 62
  256
370
   -1
100
AcDbCircle
 10
-3.75
 20
17.5
 40
0.75
100
AcDbArc
 50
180
 51
0
  0
LINE
  5
24A
100
AcDbEntity
  8
fuselage-camera cover
  6
ByLayer
 62
  256
370
   -1
100
AcDbLine
 10
-3
 20
17.5
 11
3
 21
17.5
  0
LINE
  5
24B
100
AcDbEntity
  8
fuselage-camera cover
  6
ByLayer
 62
  256
370
   -1
100
AcDbLine
 10
11.5
 20
-19
 11
4.499999999999999
 21
-19
  0
LINE
  5
24C
100
AcDbEntity
  8
fuselage-camera cover
  6
ByLayer
 62
  256
370
   -1
100
AcDbLine
 10
4.499999999999999
 20
-17.5
 11
4.499999999999999
 21
-19
  0
LINE
  5
24D
100
AcDbEntity
  8
fuselage-camera cover
  6
ByLayer
 62
  256
370
   -1
100
AcDbLine
 10
11.5
 20
-17.5
 11
11.5
 21
-19
  0
LINE
  5
24E
100
AcDbEntity
  8
fuselage-camera cover
  6
ByLayer
 62
  256
370
   -1
100
AcDbLine
 10
17.5
 20
-17.5
 11
13
 21
-17.5
  0
ARC
  5
24F
100
AcDbEntity
  8
fuselage-camera cover
  6
ByLayer
 62
  256
370
   -1
100
AcDbCircle
 10
12.25
 20
-17.5
 40
0.75
100
AcDbArc
 50
360
 51
180
  0
ARC
  5
250
100
AcDbEntity
  8
fuselage-camera cover
  6
ByLayer
 62
  256
370
   -1
100
AcDbCircle
 10
3.75
 20
-17.5
 40
0.75
100
AcDbArc
 50
360
 51
180
  0
LINE
  5
251
100
AcDbEntity
  8
fuselage-camera cover
  6
ByLayer
 62
  256
370
   -1
100
AcDbLine
 10
-11.5
 20
-19
 11
-4.499999999999999
 21
-19
  0
LINE
  5
252
100
AcDbEntity
  8
fuselage-camera cover
  6
ByLayer
 62
  256
370
   -1
100
AcDbLine
 10
-4.499999999999999
 20
-17.5
 11
-4.499999999999999
 21
-19
  0
LINE
  5
253
100
AcDbEntity
  8
fuselage-camera cover
  6
ByLayer
 62
  256
370
   -1
100
AcDbLine
 10
-11.5
 20
-17.5
 11
-11.5
 21
-19
  0
LINE
  5
254
100
AcDbEntity
  8
fuselage-camera cover
  6
ByLayer
 62
  256
370
   -1
100
AcDbLine
 10
-17.5
 20
-17.5
 11
-13
 21
-17.5
  0
ARC
  5
255
100
AcDbEntity
  8
fuselage-camera cover
  6
ByLayer
 62
  256
370
   -1
100
AcDbCircle
 10
-12.25
 20
-17.5
 40
0.75
100
AcDbArc
 50
0
 51
180
  0
ARC
  5
256
100
AcDbEntity
  8
fuselage-camera cover
  6
ByLayer
 62
  256
370
   -1
100
AcDbCircle
 10
-3.75
 20
-17.5
 40
0.75
100
AcDbArc
 50
0
 51
180
  0
LINE
  5
257
100
AcDbEntity
  8
fuselage-camera cover
  6
ByLayer
 62
  256
370
   -1
100
AcDbLine
 10
-3
 20
-17.5
 11
3
 21
-17.5
  0
ARC
  5
258
100
AcDbEntity
  8
fuselage-camera cover
  6
ByLayer
 62
  256
370
   -1
100
AcDbCircle
 10
6.448804067647965
 20
6.448804067647966
 40
3
100
AcDbArc
 50
9.770689105290929
 51
80.22931089470912
  0
ARC
  5
259
100
AcDbEntity
  8
fuselage-camera cover
  6
ByLayer
 62
  256
370
   -1
100
AcDbCircle
 10
-1.898139848424685e-015
 20
-31
 40
41
100
AcDbArc
 50
80.22931089470909
 51
99.77068910529093
  0
ARC
  5
25A
100
AcDbEntity
  8
fuselage-camera cover
  6
ByLayer
 62
  256
370
   -1
100
AcDbCircle
 10
-6.448804067647966
 20
6.448804067647968
 40
3
100
AcDbArc
 50
99.770689105291
 51
170.2293108947092
  0
ARC
  5
25B
100
AcDbEntity
  8
fuselage-camera cover
  6
ByLayer
 62
  256
370
   -1
100
AcDbCircle
 10
31
 20
-3.79627969684937e-015
 40
41
100
AcDbArc
 50
170.2293108947091
 51
189.7706891052909
  0
ARC
  5
25C
100
AcDbEntity
  8
fuselage-camera cover
  6
ByLayer
 62
  256
370
   -1
100
AcDbCircle
 10
-6.448804067647966
 20
-6.448804067647965
 40
3
100
AcDbArc
 50
189.7706891052908
 51
260.2293108947092
  0
ARC
  5
25D
100
AcDbEntity
  8
fuselage-camera cover
  6
ByLayer
 62
  256
370
   -1
100
AcDbCircle
 10
5.694419545274054e-015
 20
31
 40
41
100
AcDbArc
 50
260.2293108947091
 51
279.7706891052909
  0
ARC
  5
25E
100
AcDbEntity
  8
fuselage-camera cover
  6
ByLayer
 62
  256
370
   -1
100
AcDbCircle
 10
-31
 20
0
 40
41
100
AcDbArc
 50
350.2293108947091
 51
9.770689105290927
  0
ARC
  5
25F
100
AcDbEntity
  8
fuselage-camera cover
  6
ByLayer
 62
  256
370
   -1
100
AcDbCircle
 10
6.448804067647965
 20
-6.44880406764797
 40
3
100
AcDbArc
 50
279.7706891052908
 51
350.2293108947091
  0
ARC
  5
260
100
AcDbEntity
  8
fuselage-camera plate
  6
ByLayer
 62
  256
370
   -1
100
AcDbCircle
 10
-18.50000000000001
 20
191.75
 40
3
100
AcDbArc
 50
179.9999999999995
 51
270
  0
ARC
  5
261
100
AcDbEntity
  8
fuselage-camera plate
  6
ByLayer
 62
  256
370
   -1
100
AcDbCircle
 10
-23.00000000000001
 20
207.25
 40
1.5
100
AcDbArc
 50
270.0000000000001
 51
0
  0
ARC
  5
262
100
AcDbEntity
  8
fuselage-camera plate
  6
ByLayer
 62
  256
370
   -1
100
AcDbCircle
 10
-22.99999999999928
 20
193.25
 40
1.5
100
AcDbArc
 50
0
 51
90.00000000000028
  0
LINE
  5
263
100
AcDbEntity
  8
fuselage-camera plate
  6
ByLayer
 62
  256
370
   -1
100
AcDbLine
 10
-21.5
 20
245.664
 11
-21.5
 21
207.25
  0
LINE
  5
264
100
AcDbEntity
  8
fuselage-camera plate
  6
ByLayer
 62
  256
370
   -1
100
AcDbLine
 10
-21.50000000000001
 20
191.75
 11
-21.49999999999928
 21
193.25
  0
LINE
  5
265
100
AcDbEntity
  8
fuselage-camera plate
  6
ByLayer
 62
  256
370
   -1
100
AcDbLine
 10
-29.06239186818857
 20
205.75
 11
-23.00000000000001
 21
205.75
  0
ARC
  5
266
100
AcDbEntity
  8
fuselage-camera plate
  6
ByLayer
 62
  256
370
   -1
100
AcDbCircle
 10
-29.06239186818856
 20
204.25
 40
1.5
100
AcDbArc
 50
90.00000000000028
 51
167.5131101858406
  0
LINE
  5
267
100
AcDbEntity
  8
fuselage-camera plate
  6
ByLayer
 62
  256
370
   -1
100
AcDbLine
 10
-29.06239186818816
 20
194.75
 11
-22.99999999999928
 21
194.75
  0
ARC
  5
268
100
AcDbEntity
  8
fuselage-camera plate
  6
ByLayer
 62
  256
370
   -1
100
AcDbCircle
 10
-11.00000000000001
 20
200.25
 40
19.99999999999996
100
AcDbArc
 50
167.5131101858408
 51
192.4868898141596
  0
ARC
  5
269
100
AcDbEntity
  8
fuselage-camera plate
  6
ByLayer
 62
  256
370
   -1
100
AcDbCircle
 10
-29.06239186818816
 20
196.25
 40
1.5
100
AcDbArc
 50
192.4868898141595
 51
270
  0
CIRCLE
  5
26A
100
AcDbEntity
  8
fuselage-camera plate
  6
ByLayer
 62
  256
370
   -1
100
AcDbCircle
 10
4.003741782554471e-015
 20
205.0000000000002
 40
3.25
  0
CIRCLE
  5
26B
100
AcDbEntity
  8
fuselage-camera plate
  6
ByLayer
 62
  256
370
   -1
100
AcDbCircle
 10
-25.75
 20
200.25
 40
3.25
  0
CIRCLE
  5
26C
100
AcDbEntity
  8
fuselage-motor plate
  6
ByLayer
 62
  256
370
   -1
100
AcDbCircle
 10
-4.260760238453317e-015
 20
-12.70170592217177
 40
1
  0
CIRCLE
  5
26D
100
AcDbEntity
  8
fuselage-motor plate
  6
ByLayer
 62
  256
370
   -1
100
AcDbCircle
 10
-11
 20
6.350852961085883
 40
1
  0
CIRCLE
  5
26E
100
AcDbEntity
  8
fuselage-motor plate
  6
ByLayer
 62
  256
370
   -1
100
AcDbCircle
 10
11
 20
6.350852961085879
 40
1
  0
CIRCLE
  5
26F
100
AcDbEntity
  8
fuselage-motor plate
  6
ByLayer
 62
  256
370
   -1
100
AcDbCircle
 10
0
 20
0
 40
4.5
  0
ARC
  5
270
100
AcDbEntity
  8
fuselage-motor plate
  6
ByLayer
 62
  256
370
   -1
100
AcDbCircle
 10
14.46410161513777
 20
8.350852961085883
 40
30
100
AcDbArc
 50
183.80110216696
 51
236.19889783304
  0
ARC
  5
271
100
AcDbEntity
  8
fuselage-motor plate
  6
ByLayer
 62
  256
370
   -1
100
AcDbCircle
 10
-6.030575779797302e-015
 20
-13.2544650061871
 40
4
100
AcDbArc
 50
236.19889783304
 51
303.8011021669599
  0
ARC
  5
272
100
AcDbEntity
  8
fuselage-motor plate
  6
ByLayer
 62
  256
370
   -1
100
AcDbCircle
 10
-14.46410161513776
 20
8.350852961085897
 40
30
100
AcDbArc
 50
303.8011021669599
 51
356.19889783304
  0
ARC
  5
273
100
AcDbEntity
  8
fuselage-motor plate
  6
ByLayer
 62
  256
370
   -1
100
AcDbCircle
 10
11.47870340892991
 20
6.627232503093548
 40
4
100
AcDbArc
 50
356.19889783304
 51
63.80110216695997
  0
ARC
  5
274
100
AcDbEntity
  8
fuselage-motor plate
  6
ByLayer
 62
  256
370
   -1
100
AcDbCircle
 10
-1.98979036796518e-015
 20
-16.70170592217178
 40
30
100
AcDbArc
 50
63.80110216695997
 51
116.19889783304
  0
ARC
  5
275
100
AcDbEntity
  8
fuselage-motor plate
  6
ByLayer
 62
  256
370
   -1
100
AcDbCircle
 10
-11.47870340892989
 20
6.627232503093552
 40
4
100
AcDbArc
 50
116.1988978330397
 51
183.80110216696
  0
LINE
  5
276
100
AcDbEntity
  8
fuselage-motor plate
  6
ByLayer
 62
  256
370
   -1
100
AcDbLine
 10
8.873536282462743
 20
-10.5
 11
-8.873536282462746
 21
-10.5
  0
CIRCLE
  5
277
100
AcDbEntity
  8
fuselage-motor plate
  6
ByLayer
 62
  256
370
   -1
100
AcDbCircle
 10
-6.717514421272199
 20
6.717514421272204
 40
1.5
  0
CIRCLE
  5
278
100
AcDbEntity
  8
fuselage-motor plate
  6
ByLayer
 62
  256
370
   -1
100
AcDbCircle
 10
-5.656854249492382
 20
-5.656854249492378
 40
1.5
  0
CIRCLE
  5
279
100
AcDbEntity
  8
fuselage-motor plate
  6
ByLayer
 62
  256
370
   -1
100
AcDbCircle
 10
5.656854249492382
 20
5.656854249492378
 40
1.5
  0
CIRCLE
  5
27A
100
AcDbEntity
  8
fuselage-motor plate
  6
ByLayer
 62
  256
370
   -1
100
AcDbCircle
 10
6.717514421272199
 20
-6.717514421272204
 40
1.5
  0
CIRCLE
  5
27B
100
AcDbEntity
  8
fuselage-motor plate
  6
ByLayer
 62
  256
370
   -1
100
AcDbCircle
 10
-5.656854249492382
 20
-5.656854249492378
 40
3.5
  0
CIRCLE
  5
27C
100
AcDbEntity
  8
fuselage-motor plate
  6
ByLayer
 62
  256
370
   -1
100
AcDbCircle
 10
5.656854249492382
 20
5.656854249492378
 40
3.5
  0
CIRCLE
  5
27D
100
AcDbEntity
  8
fuselage-motor plate
  6
ByLayer
 62
  256
370
   -1
100
AcDbCircle
 10
6.717514421272199
 20
-6.717514421272204
 40
3.5
  0
CIRCLE
  5
27E
100
AcDbEntity
  8
fuselage-motor plate
  6
ByLayer
 62
  256
370
   -1
100
AcDbCircle
 10
-6.717514421272199
 20
6.717514421272204
 40
3.5
  0
LINE
  5
27F
100
AcDbEntity
  8
wing-top
  6
ByLayer
 62
  256
370
   -1
100
AcDbLine
 10
0
 20
0
 11
0
 21
-240
  0
LINE
  5
280
100
AcDbEntity
  8
wing-top
  6
ByLayer
 62
  256
370
   -1
100
AcDbLine
 10
-100
 20
-240
 11
-229.8057396393502
 21
-292.4449230782277
  0
LINE
  5
281
100
AcDbEntity
  8
wing-top
  6
ByLayer
 62
  256
370
   -1
100
AcDbLine
 10
-229.8057396393502
 20
-292.4449230782277
 11
-229.8057396393502
 21
-254.4449230782277
  0
LINE
  5
282
100
AcDbEntity
  8
wing-top
  6
ByLayer
 62
  256
370
   -1
100
AcDbLine
 10
-229.8057396393502
 20
-292.4449230782276
 11
-443.8439332740994
 21
-378.9219666370498
  0
LINE
  5
283
100
AcDbEntity
  8
wing-top
  6
ByLayer
 62
  256
370
   -1
100
AcDbLine
 10
-229.8057396393502
 20
-254.4449230782277
 11
-443.8439332740994
 21
-340.9219666370499
  0
LINE
  5
284
100
AcDbEntity
  8
wing-top
  6
ByLayer
 62
  256
370
   -1
100
AcDbLine
 10
-443.8439332740994
 20
-378.9219666370498
 11
-443.8439332740994
 21
-340.9219666370499
  0
LINE
  5
285
100
AcDbEntity
  8
mh45_240
  6
ByLayer
 62
  256
370
   -1
100
AcDbLine
 10
-4.408582873760558e-014
 20
-240
 11
-0.02333760000004394
 21
-239.2065912
  0
LINE
  5
286
100
AcDbEntity
  8
mh45_240
  6
ByLayer
 62
  256
370
   -1
100
AcDbLine
 10
-0.02333760000004394
 20
-239.2065912
 11
-0.0458280000000435
 21
-236.8074744
  0
LINE
  5
287
100
AcDbEntity
  8
mh45_240
  6
ByLayer
 62
  256
370
   -1
100
AcDbLine
 10
-0.0458280000000435
 20
-236.8074744
 11
0.04658159999995723
 21
-232.8342792
  0
LINE
  5
288
100
AcDbEntity
  8
mh45_240
  6
ByLayer
 62
  256
370
   -1
100
AcDbLine
 10
0.04658159999995723
 20
-232.8342792
 11
0.3260327999999583
 21
-227.3955432
  0
LINE
  5
289
100
AcDbEntity
  8
mh45_240
  6
ByLayer
 62
  256
370
   -1
100
AcDbLine
 10
0.3260327999999583
 20
-227.3955432
 11
0.8171087999999594
 21
-220.6063416
  0
LINE
  5
28A
100
AcDbEntity
  8
mh45_240
  6
ByLayer
 62
  256
370
   -1
100
AcDbLine
 10
0.8171087999999594
 20
-220.6063416
 11
1.537514399999961
 21
-212.5865376
  0
LINE
  5
28B
100
AcDbEntity
  8
mh45_240
  6
ByLayer
 62
  256
370
   -1
100
AcDbLine
 10
1.537514399999961
 20
-212.5865376
 11
2.504315999999963
 21
-203.4702456
  0
LINE
  5
28C
100
AcDbEntity
  8
mh45_240
  6
ByLayer
 62
  256
370
   -1
100
AcDbLine
 10
2.504315999999963
 20
-203.4702456
 11
3.733763999999964
 21
-193.4291496
  0
LINE
  5
28D
100
AcDbEntity
  8
mh45_240
  6
ByLayer
 62
  256
370
   -1
100
AcDbLine
 10
3.733763999999964
 20
-193.4291496
 11
5.194029599999967
 21
-182.6738832
  0
LINE
  5
28E
100
AcDbEntity
  8
mh45_240
  6
ByLayer
 62
  256
370
   -1
100
AcDbLine
 10
5.194029599999967
 20
-182.6738832
 11
6.798513599999969
 21
-171.3909648
  0
LINE
  5
28F
100
AcDbEntity
  8
mh45_240
  6
ByLayer
 62
  256
370
   -1
100
AcDbLine
 10
6.798513599999969
 20
-171.3909648
 11
8.45413679999997
 21
-159.73506
  0
LINE
  5
290
100
AcDbEntity
  8
mh45_240
  6
ByLayer
 62
  256
370
   -1
100
AcDbLine
 10
8.45413679999997
 20
-159.73506
 11
10.06305359999997
 21
-147.8355744
  0
LINE
  5
291
100
AcDbEntity
  8
mh45_240
  6
ByLayer
 62
  256
370
   -1
100
AcDbLine
 10
10.06305359999997
 20
-147.8355744
 11
11.54826959999997
 21
-135.7946976
  0
LINE
  5
292
100
AcDbEntity
  8
mh45_240
  6
ByLayer
 62
  256
370
   -1
100
AcDbLine
 10
11.54826959999997
 20
-135.7946976
 11
12.85325999999998
 21
-123.7102224
  0
LINE
  5
293
100
AcDbEntity
  8
mh45_240
  6
ByLayer
 62
  256
370
   -1
100
AcDbLine
 10
12.85325999999998
 20
-123.7102224
 11
13.94268239999998
 21
-111.6745368
  0
LINE
  5
294
100
AcDbEntity
  8
mh45_240
  6
ByLayer
 62
  256
370
   -1
100
AcDbLine
 10
13.94268239999998
 20
-111.6745368
 11
14.80048799999998
 21
-99.79122
  0
LINE
  5
295
100
AcDbEntity
  8
mh45_240
  6
ByLayer
 62
  256
370
   -1
100
AcDbLine
 10
14.80048799999998
 20
-99.79122
 11
15.41197679999998
 21
-88.174308
  0
LINE
  5
296
100
AcDbEntity
  8
mh45_240
  6
ByLayer
 62
  256
370
   -1
100
AcDbLine
 10
15.41197679999998
 20
-88.174308
 11
15.76072079999999
 21
-76.93533600000001
  0
LINE
  5
297
100
AcDbEntity
  8
mh45_240
  6
ByLayer
 62
  256
370
   -1
100
AcDbLine
 10
15.76072079999999
 20
-76.93533600000001
 11
15.83157119999999
 21
-66.1823472
  0
LINE
  5
298
100
AcDbEntity
  8
mh45_240
  6
ByLayer
 62
  256
370
   -1
100
AcDbLine
 10
15.83157119999999
 20
-66.1823472
 11
15.60652319999999
 21
-56.009184
  0
LINE
  5
299
100
AcDbEntity
  8
mh45_240
  6
ByLayer
 62
  256
370
   -1
100
AcDbLine
 10
15.60652319999999
 20
-56.009184
 11
15.08345279999999
 21
-46.492164
  0
LINE
  5
29A
100
AcDbEntity
  8
mh45_240
  6
ByLayer
 62
  256
370
   -1
100
AcDbLine
 10
15.08345279999999
 20
-46.492164
 11
14.27401919999999
 21
-37.7054856
  0
LINE
  5
29B
100
AcDbEntity
  8
mh45_240
  6
ByLayer
 62
  256
370
   -1
100
AcDbLine
 10
14.27401919999999
 20
-37.7054856
 11
13.19774879999999
 21
-29.7183144
  0
LINE
  5
29C
100
AcDbEntity
  8
mh45_240
  6
ByLayer
 62
  256
370
   -1
100
AcDbLine
 10
13.19774879999999
 20
-29.7183144
 11
11.8804488
 21
-22.59588
  0
LINE
  5
29D
100
AcDbEntity
  8
mh45_240
  6
ByLayer
 62
  256
370
   -1
100
AcDbLine
 10
11.8804488
 20
-22.59588
 11
10.3500768
 21
-16.3973472
  0
LINE
  5
29E
100
AcDbEntity
  8
mh45_240
  6
ByLayer
 62
  256
370
   -1
100
AcDbLine
 10
10.3500768
 20
-16.3973472
 11
8.632665599999997
 21
-11.1673584
  0
LINE
  5
29F
100
AcDbEntity
  8
mh45_240
  6
ByLayer
 62
  256
370
   -1
100
AcDbLine
 10
8.632665599999997
 20
-11.1673584
 11
6.768748799999999
 21
-6.927429600000001
  0
LINE
  5
2A0
100
AcDbEntity
  8
mh45_240
  6
ByLayer
 62
  256
370
   -1
100
AcDbLine
 10
6.768748799999999
 20
-6.927429600000001
 11
4.814992799999999
 21
-3.692469600000001
  0
LINE
  5
2A1
100
AcDbEntity
  8
mh45_240
  6
ByLayer
 62
  256
370
   -1
100
AcDbLine
 10
4.814992799999999
 20
-3.692469600000001
 11
2.8546152
 21
-1.4559552
  0
LINE
  5
2A2
100
AcDbEntity
  8
mh45_240
  6
ByLayer
 62
  256
370
   -1
100
AcDbLine
 10
2.8546152
 20
-1.4559552
 11
1.1767704
 21
-0.3005736000000002
  0
LINE
  5
2A3
100
AcDbEntity
  8
mh45_240
  6
ByLayer
 62
  256
370
   -1
100
AcDbLine
 10
1.1767704
 20
-0.3005736000000002
 11
0.6658584
 21
-0.1098600000000001
  0
LINE
  5
2A4
100
AcDbEntity
  8
mh45_240
  6
ByLayer
 62
  256
370
   -1
100
AcDbLine
 10
0.6658584
 20
-0.1098600000000001
 11
0.1927056
 21
-0.01251120000000003
  0
LINE
  5
2A5
100
AcDbEntity
  8
mh45_240
  6
ByLayer
 62
  256
370
   -1
100
AcDbLine
 10
0.1927056
 20
-0.01251120000000003
 11
-0.09509280000000001
 21
-0.003422399999999983
  0
LINE
  5
2A6
100
AcDbEntity
  8
mh45_240
  6
ByLayer
 62
  256
370
   -1
100
AcDbLine
 10
-0.09509280000000001
 20
-0.003422399999999983
 11
-0.349116
 21
-0.05238719999999994
  0
LINE
  5
2A7
100
AcDbEntity
  8
mh45_240
  6
ByLayer
 62
  256
370
   -1
100
AcDbLine
 10
-0.349116
 20
-0.05238719999999994
 11
-0.5846711999999999
 21
-0.1794911999999999
  0
LINE
  5
2A8
100
AcDbEntity
  8
mh45_240
  6
ByLayer
 62
  256
370
   -1
100
AcDbLine
 10
-0.5846711999999999
 20
-0.1794911999999999
 11
-0.8245728000000001
 21
-0.3833015999999999
  0
LINE
  5
2A9
100
AcDbEntity
  8
mh45_240
  6
ByLayer
 62
  256
370
   -1
100
AcDbLine
 10
-0.8245728000000001
 20
-0.3833015999999999
 11
-1.1917872
 21
-0.8018207999999998
  0
LINE
  5
2AA
100
AcDbEntity
  8
mh45_240
  6
ByLayer
 62
  256
370
   -1
100
AcDbLine
 10
-1.1917872
 20
-0.8018207999999998
 11
-1.567428
 21
-1.3427616
  0
LINE
  5
2AB
100
AcDbEntity
  8
mh45_240
  6
ByLayer
 62
  256
370
   -1
100
AcDbLine
 10
-1.567428
 20
-1.3427616
 11
-2.928926400000001
 21
-4.258238399999999
  0
LINE
  5
2AC
100
AcDbEntity
  8
mh45_240
  6
ByLayer
 62
  256
370
   -1
100
AcDbLine
 10
-2.928926400000001
 20
-4.258238399999999
 11
-4.141060800000002
 21
-8.193957599999999
  0
LINE
  5
2AD
100
AcDbEntity
  8
mh45_240
  6
ByLayer
 62
  256
370
   -1
100
AcDbLine
 10
-4.141060800000002
 20
-8.193957599999999
 11
-5.258376000000003
 21
-13.2585384
  0
LINE
  5
2AE
100
AcDbEntity
  8
mh45_240
  6
ByLayer
 62
  256
370
   -1
100
AcDbLine
 10
-5.258376000000003
 20
-13.2585384
 11
-6.225410400000004
 21
-19.3872
  0
LINE
  5
2AF
100
AcDbEntity
  8
mh45_240
  6
ByLayer
 62
  256
370
   -1
100
AcDbLine
 10
-6.225410400000004
 20
-19.3872
 11
-6.982264800000005
 21
-26.5378896
  0
LINE
  5
2B0
100
AcDbEntity
  8
mh45_240
  6
ByLayer
 62
  256
370
   -1
100
AcDbLine
 10
-6.982264800000005
 20
-26.5378896
 11
-7.506816000000006
 21
-34.6881552
  0
LINE
  5
2B1
100
AcDbEntity
  8
mh45_240
  6
ByLayer
 62
  256
370
   -1
100
AcDbLine
 10
-7.506816000000006
 20
-34.6881552
 11
-7.809957600000008
 21
-43.7869128
  0
LINE
  5
2B2
100
AcDbEntity
  8
mh45_240
  6
ByLayer
 62
  256
370
   -1
100
AcDbLine
 10
-7.809957600000008
 20
-43.7869128
 11
-7.90863360000001
 21
-53.7625056
  0
LINE
  5
2B3
100
AcDbEntity
  8
mh45_240
  6
ByLayer
 62
  256
370
   -1
100
AcDbLine
 10
-7.90863360000001
 20
-53.7625056
 11
-7.830384000000011
 21
-64.521804
  0
LINE
  5
2B4
100
AcDbEntity
  8
mh45_240
  6
ByLayer
 62
  256
370
   -1
100
AcDbLine
 10
-7.830384000000011
 20
-64.521804
 11
-7.598565600000014
 21
-75.953112
  0
LINE
  5
2B5
100
AcDbEntity
  8
mh45_240
  6
ByLayer
 62
  256
370
   -1
100
AcDbLine
 10
-7.598565600000014
 20
-75.953112
 11
-7.237063200000016
 21
-87.93612
  0
LINE
  5
2B6
100
AcDbEntity
  8
mh45_240
  6
ByLayer
 62
  256
370
   -1
100
AcDbLine
 10
-7.237063200000016
 20
-87.93612
 11
-6.771624000000019
 21
-100.3436904
  0
LINE
  5
2B7
100
AcDbEntity
  8
mh45_240
  6
ByLayer
 62
  256
370
   -1
100
AcDbLine
 10
-6.771624000000019
 20
-100.3436904
 11
-6.23472960000002
 21
-113.036412
  0
LINE
  5
2B8
100
AcDbEntity
  8
mh45_240
  6
ByLayer
 62
  256
370
   -1
100
AcDbLine
 10
-6.23472960000002
 20
-113.036412
 11
-5.652758400000023
 21
-125.8647
  0
LINE
  5
2B9
100
AcDbEntity
  8
mh45_240
  6
ByLayer
 62
  256
370
   -1
100
AcDbLine
 10
-5.652758400000023
 20
-125.8647
 11
-5.051952000000026
 21
-138.674028
  0
LINE
  5
2BA
100
AcDbEntity
  8
mh45_240
  6
ByLayer
 62
  256
370
   -1
100
AcDbLine
 10
-5.051952000000026
 20
-138.674028
 11
-4.450773600000027
 21
-151.30686
  0
LINE
  5
2BB
100
AcDbEntity
  8
mh45_240
  6
ByLayer
 62
  256
370
   -1
100
AcDbLine
 10
-4.450773600000027
 20
-151.30686
 11
-3.86670720000003
 21
-163.6065888
  0
LINE
  5
2BC
100
AcDbEntity
  8
mh45_240
  6
ByLayer
 62
  256
370
   -1
100
AcDbLine
 10
-3.86670720000003
 20
-163.6065888
 11
-3.308025600000033
 21
-175.4192856
  0
LINE
  5
2BD
100
AcDbEntity
  8
mh45_240
  6
ByLayer
 62
  256
370
   -1
100
AcDbLine
 10
-3.308025600000033
 20
-175.4192856
 11
-2.781307200000034
 21
-186.600804
  0
LINE
  5
2BE
100
AcDbEntity
  8
mh45_240
  6
ByLayer
 62
  256
370
   -1
100
AcDbLine
 10
-2.781307200000034
 20
-186.600804
 11
-2.291306400000036
 21
-197.0174952
  0
LINE
  5
2BF
100
AcDbEntity
  8
mh45_240
  6
ByLayer
 62
  256
370
   -1
100
AcDbLine
 10
-2.291306400000036
 20
-197.0174952
 11
-1.847270400000038
 21
-206.5412832
  0
LINE
  5
2C0
100
AcDbEntity
  8
mh45_240
  6
ByLayer
 62
  256
370
   -1
100
AcDbLine
 10
-1.847270400000038
 20
-206.5412832
 11
-1.45020240000004
 21
-215.0516112
  0
LINE
  5
2C1
100
AcDbEntity
  8
mh45_240
  6
ByLayer
 62
  256
370
   -1
100
AcDbLine
 10
-1.45020240000004
 20
-215.0516112
 11
-1.100484000000041
 21
-222.4412136
  0
LINE
  5
2C2
100
AcDbEntity
  8
mh45_240
  6
ByLayer
 62
  256
370
   -1
100
AcDbLine
 10
-1.100484000000041
 20
-222.4412136
 11
-0.792614400000042
 21
-228.6169848
  0
LINE
  5
2C3
100
AcDbEntity
  8
mh45_240
  6
ByLayer
 62
  256
370
   -1
100
AcDbLine
 10
-0.792614400000042
 20
-228.6169848
 11
-0.5211072000000428
 21
-233.5011168
  0
LINE
  5
2C4
100
AcDbEntity
  8
mh45_240
  6
ByLayer
 62
  256
370
   -1
100
AcDbLine
 10
-0.5211072000000428
 20
-233.5011168
 11
-0.2701200000000435
 21
-237.0454656
  0
LINE
  5
2C5
100
AcDbEntity
  8
mh45_240
  6
ByLayer
 62
  256
370
   -1
100
AcDbLine
 10
-0.2701200000000435
 20
-237.0454656
 11
-0.07305360000004395
 21
-239.239692
  0
LINE
  5
2C6
100
AcDbEntity
  8
mh45_240
  6
ByLayer
 62
  256
370
   -1
100
AcDbLine
 10
-0.07305360000004395
 20
-239.239692
 11
-4.408582873760558e-014
 21
-240
  0
LINE
  5
2C7
100
AcDbEntity
  8
mh45_240
  6
ByLayer
 62
  256
370
   -1
100
AcDbLine
 10
-4.408582873760558e-014
 20
-240
 11
-4.408582873760558e-014
 21
-240
  0
LINE
  5
2C8
100
AcDbEntity
  8
mh45_190
  6
ByLayer
 62
  256
370
   -1
100
AcDbLine
 10
-3.490128108393775e-014
 20
-240.0000000000001
 11
-0.01847560000003478
 21
-239.3718847000001
  0
LINE
  5
2C9
100
AcDbEntity
  8
mh45_190
  6
ByLayer
 62
  256
370
   -1
100
AcDbLine
 10
-0.01847560000003478
 20
-239.3718847000001
 11
-0.03628050000003444
 21
-237.4725839
  0
LINE
  5
2CA
100
AcDbEntity
  8
mh45_190
  6
ByLayer
 62
  256
370
   -1
100
AcDbLine
 10
-0.03628050000003444
 20
-237.4725839
 11
0.03687709999996614
 21
-234.3271377000001
  0
LINE
  5
2CB
100
AcDbEntity
  8
mh45_190
  6
ByLayer
 62
  256
370
   -1
100
AcDbLine
 10
0.03687709999996614
 20
-234.3271377000001
 11
0.2581092999999669
 21
-230.0214717000001
  0
LINE
  5
2CC
100
AcDbEntity
  8
mh45_190
  6
ByLayer
 62
  256
370
   -1
100
AcDbLine
 10
0.2581092999999669
 20
-230.0214717000001
 11
0.6468777999999679
 21
-224.6466871000001
  0
LINE
  5
2CD
100
AcDbEntity
  8
mh45_190
  6
ByLayer
 62
  256
370
   -1
100
AcDbLine
 10
0.6468777999999679
 20
-224.6466871000001
 11
1.217198899999969
 21
-218.2976756
  0
LINE
  5
2CE
100
AcDbEntity
  8
mh45_190
  6
ByLayer
 62
  256
370
   -1
100
AcDbLine
 10
1.217198899999969
 20
-218.2976756
 11
1.982583499999971
 21
-211.0806111000001
  0
LINE
  5
2CF
100
AcDbEntity
  8
mh45_190
  6
ByLayer
 62
  256
370
   -1
100
AcDbLine
 10
1.982583499999971
 20
-211.0806111000001
 11
2.955896499999972
 21
-203.1314101000001
  0
LINE
  5
2D0
100
AcDbEntity
  8
mh45_190
  6
ByLayer
 62
  256
370
   -1
100
AcDbLine
 10
2.955896499999972
 20
-203.1314101000001
 11
4.111940099999973
 21
-194.6168242000001
  0
LINE
  5
2D1
100
AcDbEntity
  8
mh45_190
  6
ByLayer
 62
  256
370
   -1
100
AcDbLine
 10
4.111940099999973
 20
-194.6168242000001
 11
5.382156599999975
 21
-185.6845138
  0
LINE
  5
2D2
100
AcDbEntity
  8
mh45_190
  6
ByLayer
 62
  256
370
   -1
100
AcDbLine
 10
5.382156599999975
 20
-185.6845138
 11
6.692858299999977
 21
-176.4569225
  0
LINE
  5
2D3
100
AcDbEntity
  8
mh45_190
  6
ByLayer
 62
  256
370
   -1
100
AcDbLine
 10
6.692858299999977
 20
-176.4569225
 11
7.966584099999979
 21
-167.0364964000001
  0
LINE
  5
2D4
100
AcDbEntity
  8
mh45_190
  6
ByLayer
 62
  256
370
   -1
100
AcDbLine
 10
7.966584099999979
 20
-167.0364964000001
 11
9.142380099999981
 21
-157.5041356
  0
LINE
  5
2D5
100
AcDbEntity
  8
mh45_190
  6
ByLayer
 62
  256
370
   -1
100
AcDbLine
 10
9.142380099999981
 20
-157.5041356
 11
10.17549749999998
 21
-147.9372594
  0
LINE
  5
2D6
100
AcDbEntity
  8
mh45_190
  6
ByLayer
 62
  256
370
   -1
100
AcDbLine
 10
10.17549749999998
 20
-147.9372594
 11
11.03795689999998
 21
-138.4090083
  0
LINE
  5
2D7
100
AcDbEntity
  8
mh45_190
  6
ByLayer
 62
  256
370
   -1
100
AcDbLine
 10
11.03795689999998
 20
-138.4090083
 11
11.71705299999999
 21
-129.0013825000001
  0
LINE
  5
2D8
100
AcDbEntity
  8
mh45_190
  6
ByLayer
 62
  256
370
   -1
100
AcDbLine
 10
11.71705299999999
 20
-129.0013825000001
 11
12.20114829999999
 21
-119.8046605
  0
LINE
  5
2D9
100
AcDbEntity
  8
mh45_190
  6
ByLayer
 62
  256
370
   -1
100
AcDbLine
 10
12.20114829999999
 20
-119.8046605
 11
12.47723729999999
 21
-110.9071410000001
  0
LINE
  5
2DA
100
AcDbEntity
  8
mh45_190
  6
ByLayer
 62
  256
370
   -1
100
AcDbLine
 10
12.47723729999999
 20
-110.9071410000001
 11
12.53332719999999
 21
-102.3943582000001
  0
LINE
  5
2DB
100
AcDbEntity
  8
mh45_190
  6
ByLayer
 62
  256
370
   -1
100
AcDbLine
 10
12.53332719999999
 20
-102.3943582000001
 11
12.35516419999999
 21
-94.34060400000004
  0
LINE
  5
2DC
100
AcDbEntity
  8
mh45_190
  6
ByLayer
 62
  256
370
   -1
100
AcDbLine
 10
12.35516419999999
 20
-94.34060400000004
 11
11.94106679999999
 21
-86.80629650000006
  0
LINE
  5
2DD
100
AcDbEntity
  8
mh45_190
  6
ByLayer
 62
  256
370
   -1
100
AcDbLine
 10
11.94106679999999
 20
-86.80629650000006
 11
11.30026519999999
 21
-79.85017610000006
  0
LINE
  5
2DE
100
AcDbEntity
  8
mh45_190
  6
ByLayer
 62
  256
370
   -1
100
AcDbLine
 10
11.30026519999999
 20
-79.85017610000006
 11
10.4482178
 21
-73.52699890000005
  0
LINE
  5
2DF
100
AcDbEntity
  8
mh45_190
  6
ByLayer
 62
  256
370
   -1
100
AcDbLine
 10
10.4482178
 20
-73.52699890000005
 11
9.405355299999997
 21
-67.88840500000005
  0
LINE
  5
2E0
100
AcDbEntity
  8
mh45_190
  6
ByLayer
 62
  256
370
   -1
100
AcDbLine
 10
9.405355299999997
 20
-67.88840500000005
 11
8.193810799999998
 21
-62.98123320000005
  0
LINE
  5
2E1
100
AcDbEntity
  8
mh45_190
  6
ByLayer
 62
  256
370
   -1
100
AcDbLine
 10
8.193810799999998
 20
-62.98123320000005
 11
6.834193599999998
 21
-58.84082540000005
  0
LINE
  5
2E2
100
AcDbEntity
  8
mh45_190
  6
ByLayer
 62
  256
370
   -1
100
AcDbLine
 10
6.834193599999998
 20
-58.84082540000005
 11
5.358592799999999
 21
-55.48421510000005
  0
LINE
  5
2E3
100
AcDbEntity
  8
mh45_190
  6
ByLayer
 62
  256
370
   -1
100
AcDbLine
 10
5.358592799999999
 20
-55.48421510000005
 11
3.8118693
 21
-52.92320510000005
  0
LINE
  5
2E4
100
AcDbEntity
  8
mh45_190
  6
ByLayer
 62
  256
370
   -1
100
AcDbLine
 10
3.8118693
 20
-52.92320510000005
 11
2.2599037
 21
-51.15263120000005
  0
LINE
  5
2E5
100
AcDbEntity
  8
mh45_190
  6
ByLayer
 62
  256
370
   -1
100
AcDbLine
 10
2.2599037
 20
-51.15263120000005
 11
0.9316099
 21
-50.23795410000005
  0
LINE
  5
2E6
100
AcDbEntity
  8
mh45_190
  6
ByLayer
 62
  256
370
   -1
100
AcDbLine
 10
0.9316099
 20
-50.23795410000005
 11
0.5271379
 21
-50.08697250000005
  0
LINE
  5
2E7
100
AcDbEntity
  8
mh45_190
  6
ByLayer
 62
  256
370
   -1
100
AcDbLine
 10
0.5271379
 20
-50.08697250000005
 11
0.1525586
 21
-50.00990470000005
  0
LINE
  5
2E8
100
AcDbEntity
  8
mh45_190
  6
ByLayer
 62
  256
370
   -1
100
AcDbLine
 10
0.1525586
 20
-50.00990470000005
 11
-0.0752818
 21
-50.00270940000005
  0
LINE
  5
2E9
100
AcDbEntity
  8
mh45_190
  6
ByLayer
 62
  256
370
   -1
100
AcDbLine
 10
-0.0752818
 20
-50.00270940000005
 11
-0.2763835
 21
-50.04147320000005
  0
LINE
  5
2EA
100
AcDbEntity
  8
mh45_190
  6
ByLayer
 62
  256
370
   -1
100
AcDbLine
 10
-0.2763835
 20
-50.04147320000005
 11
-0.4628647
 21
-50.14209720000005
  0
LINE
  5
2EB
100
AcDbEntity
  8
mh45_190
  6
ByLayer
 62
  256
370
   -1
100
AcDbLine
 10
-0.4628647
 20
-50.14209720000005
 11
-0.6527868000000001
 21
-50.30344710000005
  0
LINE
  5
2EC
100
AcDbEntity
  8
mh45_190
  6
ByLayer
 62
  256
370
   -1
100
AcDbLine
 10
-0.6527868000000001
 20
-50.30344710000005
 11
-0.9434982000000001
 21
-50.63477480000005
  0
LINE
  5
2ED
100
AcDbEntity
  8
mh45_190
  6
ByLayer
 62
  256
370
   -1
100
AcDbLine
 10
-0.9434982000000001
 20
-50.63477480000005
 11
-1.2408805
 21
-51.06301960000005
  0
LINE
  5
2EE
100
AcDbEntity
  8
mh45_190
  6
ByLayer
 62
  256
370
   -1
100
AcDbLine
 10
-1.2408805
 20
-51.06301960000005
 11
-2.318733400000001
 21
-53.37110540000005
  0
LINE
  5
2EF
100
AcDbEntity
  8
mh45_190
  6
ByLayer
 62
  256
370
   -1
100
AcDbLine
 10
-2.318733400000001
 20
-53.37110540000005
 11
-3.278339800000001
 21
-56.48688310000005
  0
LINE
  5
2F0
100
AcDbEntity
  8
mh45_190
  6
ByLayer
 62
  256
370
   -1
100
AcDbLine
 10
-3.278339800000001
 20
-56.48688310000005
 11
-4.162881000000001
 21
-60.49634290000005
  0
LINE
  5
2F1
100
AcDbEntity
  8
mh45_190
  6
ByLayer
 62
  256
370
   -1
100
AcDbLine
 10
-4.162881000000001
 20
-60.49634290000005
 11
-4.928449900000003
 21
-65.34820000000005
  0
LINE
  5
2F2
100
AcDbEntity
  8
mh45_190
  6
ByLayer
 62
  256
370
   -1
100
AcDbLine
 10
-4.928449900000003
 20
-65.34820000000005
 11
-5.527626300000003
 21
-71.00916260000005
  0
LINE
  5
2F3
100
AcDbEntity
  8
mh45_190
  6
ByLayer
 62
  256
370
   -1
100
AcDbLine
 10
-5.527626300000003
 20
-71.00916260000005
 11
-5.942896000000006
 21
-77.46145620000004
  0
LINE
  5
2F4
100
AcDbEntity
  8
mh45_190
  6
ByLayer
 62
  256
370
   -1
100
AcDbLine
 10
-5.942896000000006
 20
-77.46145620000004
 11
-6.182883100000006
 21
-84.66463930000005
  0
LINE
  5
2F5
100
AcDbEntity
  8
mh45_190
  6
ByLayer
 62
  256
370
   -1
100
AcDbLine
 10
-6.182883100000006
 20
-84.66463930000005
 11
-6.261001600000008
 21
-92.56198360000005
  0
LINE
  5
2F6
100
AcDbEntity
  8
mh45_190
  6
ByLayer
 62
  256
370
   -1
100
AcDbLine
 10
-6.261001600000008
 20
-92.56198360000005
 11
-6.19905400000001
 21
-101.0797615
  0
LINE
  5
2F7
100
AcDbEntity
  8
mh45_190
  6
ByLayer
 62
  256
370
   -1
100
AcDbLine
 10
-6.19905400000001
 20
-101.0797615
 11
-6.01553110000001
 21
-110.1295470000001
  0
LINE
  5
2F8
100
AcDbEntity
  8
mh45_190
  6
ByLayer
 62
  256
370
   -1
100
AcDbLine
 10
-6.01553110000001
 20
-110.1295470000001
 11
-5.729341700000012
 21
-119.6160950000001
  0
LINE
  5
2F9
100
AcDbEntity
  8
mh45_190
  6
ByLayer
 62
  256
370
   -1
100
AcDbLine
 10
-5.729341700000012
 20
-119.6160950000001
 11
-5.360869000000014
 21
-129.4387549
  0
LINE
  5
2FA
100
AcDbEntity
  8
mh45_190
  6
ByLayer
 62
  256
370
   -1
100
AcDbLine
 10
-5.360869000000014
 20
-129.4387549
 11
-4.935827600000017
 21
-139.4871595
  0
LINE
  5
2FB
100
AcDbEntity
  8
mh45_190
  6
ByLayer
 62
  256
370
   -1
100
AcDbLine
 10
-4.935827600000017
 20
-139.4871595
 11
-4.475100400000018
 21
-149.6428875000001
  0
LINE
  5
2FC
100
AcDbEntity
  8
mh45_190
  6
ByLayer
 62
  256
370
   -1
100
AcDbLine
 10
-4.475100400000018
 20
-149.6428875000001
 11
-3.99946200000002
 21
-159.7836055
  0
LINE
  5
2FD
100
AcDbEntity
  8
mh45_190
  6
ByLayer
 62
  256
370
   -1
100
AcDbLine
 10
-3.99946200000002
 20
-159.7836055
 11
-3.523529100000022
 21
-169.7845975
  0
LINE
  5
2FE
100
AcDbEntity
  8
mh45_190
  6
ByLayer
 62
  256
370
   -1
100
AcDbLine
 10
-3.523529100000022
 20
-169.7845975
 11
-3.061143200000024
 21
-179.5218828
  0
LINE
  5
2FF
100
AcDbEntity
  8
mh45_190
  6
ByLayer
 62
  256
370
   -1
100
AcDbLine
 10
-3.061143200000024
 20
-179.5218828
 11
-2.618853600000025
 21
-188.8736011000001
  0
LINE
  5
300
100
AcDbEntity
  8
mh45_190
  6
ByLayer
 62
  256
370
   -1
100
AcDbLine
 10
-2.618853600000025
 20
-188.8736011000001
 11
-2.201868200000027
 21
-197.7256365000001
  0
LINE
  5
301
100
AcDbEntity
  8
mh45_190
  6
ByLayer
 62
  256
370
   -1
100
AcDbLine
 10
-2.201868200000027
 20
-197.7256365000001
 11
-1.813950900000029
 21
-205.9721837
  0
LINE
  5
302
100
AcDbEntity
  8
mh45_190
  6
ByLayer
 62
  256
370
   -1
100
AcDbLine
 10
-1.813950900000029
 20
-205.9721837
 11
-1.46242240000003
 21
-213.5118492000001
  0
LINE
  5
303
100
AcDbEntity
  8
mh45_190
  6
ByLayer
 62
  256
370
   -1
100
AcDbLine
 10
-1.46242240000003
 20
-213.5118492000001
 11
-1.148076900000031
 21
-220.2491922000001
  0
LINE
  5
304
100
AcDbEntity
  8
mh45_190
  6
ByLayer
 62
  256
370
   -1
100
AcDbLine
 10
-1.148076900000031
 20
-220.2491922000001
 11
-0.8712165000000323
 21
-226.0992941000001
  0
LINE
  5
305
100
AcDbEntity
  8
mh45_190
  6
ByLayer
 62
  256
370
   -1
100
AcDbLine
 10
-0.8712165000000323
 20
-226.0992941000001
 11
-0.6274864000000332
 21
-230.9884463
  0
LINE
  5
306
100
AcDbEntity
  8
mh45_190
  6
ByLayer
 62
  256
370
   -1
100
AcDbLine
 10
-0.6274864000000332
 20
-230.9884463
 11
-0.412543200000034
 21
-234.8550508
  0
LINE
  5
307
100
AcDbEntity
  8
mh45_190
  6
ByLayer
 62
  256
370
   -1
100
AcDbLine
 10
-0.412543200000034
 20
-234.8550508
 11
-0.2138450000000345
 21
-237.6609936000001
  0
LINE
  5
308
100
AcDbEntity
  8
mh45_190
  6
ByLayer
 62
  256
370
   -1
100
AcDbLine
 10
-0.2138450000000345
 20
-237.6609936000001
 11
-0.05783410000003479
 21
-239.3980895000001
  0
LINE
  5
309
100
AcDbEntity
  8
mh45_190
  6
ByLayer
 62
  256
370
   -1
100
AcDbLine
 10
-0.05783410000003479
 20
-239.3980895000001
 11
-3.490128108393775e-014
 21
-240.0000000000001
  0
LINE
  5
30A
100
AcDbEntity
  8
mh45_190
  6
ByLayer
 62
  256
370
   -1
100
AcDbLine
 10
-3.490128108393775e-014
 20
-240.0000000000001
 11
-3.490128108393775e-014
 21
-240.0000000000001
  0
LINE
  5
30B
100
AcDbEntity
  8
mh45_190
  6
ByLayer
 62
  256
370
   -1
100
AcDbLine
 10
-100.0000000000001
 20
-221.9219666370497
 11
0
 21
-221.9219666370497
  0
LINE
  5
30C
100
AcDbEntity
  8
wing-top
  6
ByLayer
 62
  256
370
   -1
100
AcDbLine
 10
0
 20
-240
 11
-100.0000000000001
 21
-240
  0
ARC
  5
30D
100
AcDbEntity
  8
wing-top
  6
ByLayer
 62
  256
370
   -1
100
AcDbCircle
 10
-384.3753235446545
 20
-254.2503882535854
 40
55.92103956469673
100
AcDbArc
 50
138.4829632945715
 51
169.2797939070361
  0
ARC
  5
30E
100
AcDbEntity
  8
wing-top
  6
ByLayer
 62
  256
370
   -1
100
AcDbCircle
 10
600
 20
-340.9219666370499
 40
1043.843933274099
100
AcDbArc
 50
174.6639941809529
 51
180.0000018312663
  0
LINE
  5
30F
100
AcDbEntity
  8
wing-top
  6
ByLayer
 62
  256
370
   -1
100
AcDbLine
 10
0
 20
0
 11
-426.2466861871923
 21
-217.1835343750398
  0
LINE
  5
310
100
AcDbEntity
  8
mh45_152.7722
  6
ByLayer
 62
  256
370
   -1
100
AcDbLine
 10
-2.806287102111345e-014
 20
-378.9219796068607
 11
-0.01485556872802797
 21
-378.4169345740467
  0
LINE
  5
311
100
AcDbEntity
  8
mh45_152.7722
  6
ByLayer
 62
  256
370
   -1
100
AcDbLine
 10
-0.01485556872802797
 20
-378.4169345740467
 11
-0.02917185159002769
 21
-376.8897747757427
  0
LINE
  5
312
100
AcDbEntity
  8
mh45_152.7722
  6
ByLayer
 62
  256
370
   -1
100
AcDbLine
 10
-0.02917185159002769
 20
-376.8897747757427
 11
0.02965155629797277
 21
-374.3606340601867
  0
LINE
  5
313
100
AcDbEntity
  8
mh45_152.7722
  6
ByLayer
 62
  256
370
   -1
100
AcDbLine
 10
0.02965155629797277
 20
-374.3606340601867
 11
0.2075364505339734
 21
-370.8986021271067
  0
LINE
  5
314
100
AcDbEntity
  8
mh45_152.7722
  6
ByLayer
 62
  256
370
   -1
100
AcDbLine
 10
0.2075364505339734
 20
-370.8986021271067
 11
0.5201312875639742
 21
-366.5769301909587
  0
LINE
  5
315
100
AcDbEntity
  8
mh45_152.7722
  6
ByLayer
 62
  256
370
   -1
100
AcDbLine
 10
0.5201312875639742
 20
-366.5769301909587
 11
0.9787060725819752
 21
-361.4719172715887
  0
LINE
  5
316
100
AcDbEntity
  8
mh45_152.7722
  6
ByLayer
 62
  256
370
   -1
100
AcDbLine
 10
0.9787060725819752
 20
-361.4719172715887
 11
1.594124436729976
 21
-355.6689340020787
  0
LINE
  5
317
100
AcDbEntity
  8
mh45_152.7722
  6
ByLayer
 62
  256
370
   -1
100
AcDbLine
 10
1.594124436729976
 20
-355.6689340020787
 11
2.376730585669977
 21
-349.2772659756987
  0
LINE
  5
318
100
AcDbEntity
  8
mh45_152.7722
  6
ByLayer
 62
  256
370
   -1
100
AcDbLine
 10
2.376730585669977
 20
-349.2772659756987
 11
3.306263870237979
 21
-342.4309921860567
  0
LINE
  5
319
100
AcDbEntity
  8
mh45_152.7722
  6
ByLayer
 62
  256
370
   -1
100
AcDbLine
 10
3.306263870237979
 20
-342.4309921860567
 11
4.32759949750798
 21
-335.2488410761047
  0
LINE
  5
31A
100
AcDbEntity
  8
mh45_152.7722
  6
ByLayer
 62
  256
370
   -1
100
AcDbLine
 10
4.32759949750798
 20
-335.2488410761047
 11
5.381487825153981
 21
-327.8292651624107
  0
LINE
  5
31B
100
AcDbEntity
  8
mh45_152.7722
  6
ByLayer
 62
  256
370
   -1
100
AcDbLine
 10
5.381487825153981
 20
-327.8292651624107
 11
6.405645154957983
 21
-320.2546376874927
  0
LINE
  5
31C
100
AcDbEntity
  8
mh45_152.7722
  6
ByLayer
 62
  256
370
   -1
100
AcDbLine
 10
6.405645154957983
 20
-320.2546376874927
 11
7.351060637437984
 21
-312.5900075263887
  0
LINE
  5
31D
100
AcDbEntity
  8
mh45_152.7722
  6
ByLayer
 62
  256
370
   -1
100
AcDbLine
 10
7.351060637437984
 20
-312.5900075263887
 11
8.181753364049985
 21
-304.8976247674327
  0
LINE
  5
31E
100
AcDbEntity
  8
mh45_152.7722
  6
ByLayer
 62
  256
370
   -1
100
AcDbLine
 10
8.181753364049985
 20
-304.8976247674327
 11
8.875226100621987
 21
-297.2362990690147
  0
LINE
  5
31F
100
AcDbEntity
  8
mh45_152.7722
  6
ByLayer
 62
  256
370
   -1
100
AcDbLine
 10
8.875226100621987
 20
-297.2362990690147
 11
9.421262970139988
 21
-289.6719638572107
  0
LINE
  5
320
100
AcDbEntity
  8
mh45_152.7722
  6
ByLayer
 62
  256
370
   -1
100
AcDbLine
 10
9.421262970139988
 20
-289.6719638572107
 11
9.81050667535399
 21
-282.2772088428507
  0
LINE
  5
321
100
AcDbEntity
  8
mh45_152.7722
  6
ByLayer
 62
  256
370
   -1
100
AcDbLine
 10
9.81050667535399
 20
-282.2772088428507
 11
10.03249995917399
 21
-275.1230318504407
  0
LINE
  5
322
100
AcDbEntity
  8
mh45_152.7722
  6
ByLayer
 62
  256
370
   -1
100
AcDbLine
 10
10.03249995917399
 20
-275.1230318504407
 11
10.07759984033599
 21
-268.2782078689767
  0
LINE
  5
323
100
AcDbEntity
  8
mh45_152.7722
  6
ByLayer
 62
  256
370
   -1
100
AcDbLine
 10
10.07759984033599
 20
-268.2782078689767
 11
9.934345348395993
 21
-261.8024723563807
  0
LINE
  5
324
100
AcDbEntity
  8
mh45_152.7722
  6
ByLayer
 62
  256
370
   -1
100
AcDbLine
 10
9.934345348395993
 20
-261.8024723563807
 11
9.601384449383994
 21
-255.7444053445307
  0
LINE
  5
325
100
AcDbEntity
  8
mh45_152.7722
  6
ByLayer
 62
  256
370
   -1
100
AcDbLine
 10
9.601384449383994
 20
-255.7444053445307
 11
9.086138816775996
 21
-250.1512378867787
  0
LINE
  5
326
100
AcDbEntity
  8
mh45_152.7722
  6
ByLayer
 62
  256
370
   -1
100
AcDbLine
 10
9.086138816775996
 20
-250.1512378867787
 11
8.401037996763996
 21
-245.0669974034427
  0
LINE
  5
327
100
AcDbEntity
  8
mh45_152.7722
  6
ByLayer
 62
  256
370
   -1
100
AcDbLine
 10
8.401037996763996
 20
-245.0669974034427
 11
7.562509584013998
 21
-240.5332058507607
  0
LINE
  5
328
100
AcDbEntity
  8
mh45_152.7722
  6
ByLayer
 62
  256
370
   -1
100
AcDbLine
 10
7.562509584013998
 20
-240.5332058507607
 11
6.588350012103998
 21
-236.5875246314767
  0
LINE
  5
329
100
AcDbEntity
  8
mh45_152.7722
  6
ByLayer
 62
  256
370
   -1
100
AcDbLine
 10
6.588350012103998
 20
-236.5875246314767
 11
5.495130481567999
 21
-233.2583709025127
  0
LINE
  5
32A
100
AcDbEntity
  8
mh45_152.7722
  6
ByLayer
 62
  256
370
   -1
100
AcDbLine
 10
5.495130481567999
 20
-233.2583709025127
 11
4.308652689263999
 21
-230.5594406915987
  0
LINE
  5
32B
100
AcDbEntity
  8
mh45_152.7722
  6
ByLayer
 62
  256
370
   -1
100
AcDbLine
 10
4.308652689263999
 20
-230.5594406915987
 11
3.064987679334
 21
-228.5002242077987
  0
LINE
  5
32C
100
AcDbEntity
  8
mh45_152.7722
  6
ByLayer
 62
  256
370
   -1
100
AcDbLine
 10
3.064987679334
 20
-228.5002242077987
 11
1.817107684406
 21
-227.0765691027167
  0
LINE
  5
32D
100
AcDbEntity
  8
mh45_152.7722
  6
ByLayer
 62
  256
370
   -1
100
AcDbLine
 10
1.817107684406
 20
-227.0765691027167
 11
0.749074178762
 21
-226.3411099824187
  0
LINE
  5
32E
100
AcDbEntity
  8
mh45_152.7722
  6
ByLayer
 62
  256
370
   -1
100
AcDbLine
 10
0.749074178762
 20
-226.3411099824187
 11
0.423852719402
 21
-226.2197110814107
  0
LINE
  5
32F
100
AcDbEntity
  8
mh45_152.7722
  6
ByLayer
 62
  256
370
   -1
100
AcDbLine
 10
0.423852719402
 20
-226.2197110814107
 11
0.122666910268
 21
-226.1577436216467
  0
LINE
  5
330
100
AcDbEntity
  8
mh45_152.7722
  6
ByLayer
 62
  256
370
   -1
100
AcDbLine
 10
0.122666910268
 20
-226.1577436216467
 11
-0.060531401084
 21
-226.1519581384327
  0
LINE
  5
331
100
AcDbEntity
  8
mh45_152.7722
  6
ByLayer
 62
  256
370
   -1
100
AcDbLine
 10
-0.060531401084
 20
-226.1519581384327
 11
-0.22223008073
 21
-226.1831267226767
  0
LINE
  5
332
100
AcDbEntity
  8
mh45_152.7722
  6
ByLayer
 62
  256
370
   -1
100
AcDbLine
 10
-0.22223008073
 20
-226.1831267226767
 11
-0.372172939586
 21
-226.2640348797967
  0
LINE
  5
333
100
AcDbEntity
  8
mh45_152.7722
  6
ByLayer
 62
  256
370
   -1
100
AcDbLine
 10
-0.372172939586
 20
-226.2640348797967
 11
-0.524882502984
 21
-226.3937705597587
  0
LINE
  5
334
100
AcDbEntity
  8
mh45_152.7722
  6
ByLayer
 62
  256
370
   -1
100
AcDbLine
 10
-0.524882502984
 20
-226.3937705597587
 11
-0.7586331353160001
 21
-226.6601793052847
  0
LINE
  5
335
100
AcDbEntity
  8
mh45_152.7722
  6
ByLayer
 62
  256
370
   -1
100
AcDbLine
 10
-0.7586331353160001
 20
-226.6601793052847
 11
-0.9977475995900001
 21
-227.0045156223087
  0
LINE
  5
336
100
AcDbEntity
  8
mh45_152.7722
  6
ByLayer
 62
  256
370
   -1
100
AcDbLine
 10
-0.9977475995900001
 20
-227.0045156223087
 11
-1.864410540692
 21
-228.8603648089127
  0
LINE
  5
337
100
AcDbEntity
  8
mh45_152.7722
  6
ByLayer
 62
  256
370
   -1
100
AcDbLine
 10
-1.864410540692
 20
-228.8603648089127
 11
-2.635995703124001
 21
-231.3656501454387
  0
LINE
  5
338
100
AcDbEntity
  8
mh45_152.7722
  6
ByLayer
 62
  256
370
   -1
100
AcDbLine
 10
-2.635995703124001
 20
-231.3656501454387
 11
-3.347223624780001
 21
-234.5895132741627
  0
LINE
  5
339
100
AcDbEntity
  8
mh45_152.7722
  6
ByLayer
 62
  256
370
   -1
100
AcDbLine
 10
-3.347223624780001
 20
-234.5895132741627
 11
-3.962790177962002
 21
-238.4907179228607
  0
LINE
  5
33A
100
AcDbEntity
  8
mh45_152.7722
  6
ByLayer
 62
  256
370
   -1
100
AcDbLine
 10
-3.962790177962002
 20
-238.4907179228607
 11
-4.444566476994003
 21
-243.0424953466487
  0
LINE
  5
33B
100
AcDbEntity
  8
mh45_152.7722
  6
ByLayer
 62
  256
370
   -1
100
AcDbLine
 10
-4.444566476994003
 20
-243.0424953466487
 11
-4.778469980480004
 21
-248.2305537062167
  0
LINE
  5
33C
100
AcDbEntity
  8
mh45_152.7722
  6
ByLayer
 62
  256
370
   -1
100
AcDbLine
 10
-4.778469980480004
 20
-248.2305537062167
 11
-4.971435018578005
 21
-254.0223754387947
  0
LINE
  5
33D
100
AcDbEntity
  8
mh45_152.7722
  6
ByLayer
 62
  256
370
   -1
100
AcDbLine
 10
-4.971435018578005
 20
-254.0223754387947
 11
-5.034247308608006
 21
-260.3723473486287
  0
LINE
  5
33E
100
AcDbEntity
  8
mh45_152.7722
  6
ByLayer
 62
  256
370
   -1
100
AcDbLine
 10
-5.034247308608006
 20
-260.3723473486287
 11
-4.984437460520007
 21
-267.2211877112307
  0
LINE
  5
33F
100
AcDbEntity
  8
mh45_152.7722
  6
ByLayer
 62
  256
370
   -1
100
AcDbLine
 10
-4.984437460520007
 20
-267.2211877112307
 11
-4.836873264818009
 21
-274.4977963447207
  0
LINE
  5
340
100
AcDbEntity
  8
mh45_152.7722
  6
ByLayer
 62
  256
370
   -1
100
AcDbLine
 10
-4.836873264818009
 20
-274.4977963447207
 11
-4.60675861084601
 21
-282.1255900729607
  0
LINE
  5
341
100
AcDbEntity
  8
mh45_152.7722
  6
ByLayer
 62
  256
370
   -1
100
AcDbLine
 10
-4.60675861084601
 20
-282.1255900729607
 11
-4.310482900220012
 21
-290.0236393507227
  0
LINE
  5
342
100
AcDbEntity
  8
mh45_152.7722
  6
ByLayer
 62
  256
370
   -1
100
AcDbLine
 10
-4.310482900220012
 20
-290.0236393507227
 11
-3.968722322488013
 21
-298.1032018624707
  0
LINE
  5
343
100
AcDbEntity
  8
mh45_152.7722
  6
ByLayer
 62
  256
370
   -1
100
AcDbLine
 10
-3.968722322488013
 20
-298.1032018624707
 11
-3.598268070152014
 21
-306.2690592791107
  0
LINE
  5
344
100
AcDbEntity
  8
mh45_152.7722
  6
ByLayer
 62
  256
370
   -1
100
AcDbLine
 10
-3.598268070152014
 20
-306.2690592791107
 11
-3.215824255560016
 21
-314.4228476919507
  0
LINE
  5
345
100
AcDbEntity
  8
mh45_152.7722
  6
ByLayer
 62
  256
370
   -1
100
AcDbLine
 10
-3.215824255560016
 20
-314.4228476919507
 11
-2.833143644058018
 21
-322.4642874289107
  0
LINE
  5
346
100
AcDbEntity
  8
mh45_152.7722
  6
ByLayer
 62
  256
370
   -1
100
AcDbLine
 10
-2.833143644058018
 20
-322.4642874289107
 11
-2.461355690416019
 21
-330.2936900463247
  0
LINE
  5
347
100
AcDbEntity
  8
mh45_152.7722
  6
ByLayer
 62
  256
370
   -1
100
AcDbLine
 10
-2.461355690416019
 20
-330.2936900463247
 11
-2.105726452368021
 21
-337.8130720382787
  0
LINE
  5
348
100
AcDbEntity
  8
mh45_152.7722
  6
ByLayer
 62
  256
370
   -1
100
AcDbLine
 10
-2.105726452368021
 20
-337.8130720382787
 11
-1.770443415916022
 21
-344.9306768937307
  0
LINE
  5
349
100
AcDbEntity
  8
mh45_152.7722
  6
ByLayer
 62
  256
370
   -1
100
AcDbLine
 10
-1.770443415916022
 20
-344.9306768937307
 11
-1.458532998342023
 21
-351.5614303576667
  0
LINE
  5
34A
100
AcDbEntity
  8
mh45_152.7722
  6
ByLayer
 62
  256
370
   -1
100
AcDbLine
 10
-1.458532998342023
 20
-351.5614303576667
 11
-1.175881512512024
 21
-357.6238055455567
  0
LINE
  5
34B
100
AcDbEntity
  8
mh45_152.7722
  6
ByLayer
 62
  256
370
   -1
100
AcDbLine
 10
-1.175881512512024
 20
-357.6238055455567
 11
-0.9231275462220251
 21
-363.0410619258967
  0
LINE
  5
34C
100
AcDbEntity
  8
mh45_152.7722
  6
ByLayer
 62
  256
370
   -1
100
AcDbLine
 10
-0.9231275462220251
 20
-363.0410619258967
 11
-0.700514007270026
 21
-367.7449194916187
  0
LINE
  5
34D
100
AcDbEntity
  8
mh45_152.7722
  6
ByLayer
 62
  256
370
   -1
100
AcDbLine
 10
-0.700514007270026
 20
-367.7449194916187
 11
-0.5045393568320268
 21
-371.6761117954547
  0
LINE
  5
34E
100
AcDbEntity
  8
mh45_152.7722
  6
ByLayer
 62
  256
370
   -1
100
AcDbLine
 10
-0.5045393568320268
 20
-371.6761117954547
 11
-0.3317112224160273
 21
-374.7851100901647
  0
LINE
  5
34F
100
AcDbEntity
  8
mh45_152.7722
  6
ByLayer
 62
  256
370
   -1
100
AcDbLine
 10
-0.3317112224160273
 20
-374.7851100901647
 11
-0.1719451111000277
 21
-377.0412682724287
  0
LINE
  5
350
100
AcDbEntity
  8
mh45_152.7722
  6
ByLayer
 62
  256
370
   -1
100
AcDbLine
 10
-0.1719451111000277
 20
-377.0412682724287
 11
-0.04650232995802797
 21
-378.4380049158707
  0
LINE
  5
351
100
AcDbEntity
  8
mh45_152.7722
  6
ByLayer
 62
  256
370
   -1
100
AcDbLine
 10
-0.04650232995802797
 20
-378.4380049158707
 11
-2.806287102111345e-014
 21
-378.9219796068607
  0
LINE
  5
352
100
AcDbEntity
  8
mh45_152.7722
  6
ByLayer
 62
  256
370
   -1
100
AcDbLine
 10
-2.806287102111345e-014
 20
-378.9219796068607
 11
-2.806287102111345e-014
 21
-378.9219796068607
  0
LINE
  5
353
100
AcDbEntity
  8
wing-top
  6
ByLayer
 62
   16
420
8388608
370
   -1
100
AcDbLine
 10
-229.8057396393502
 20
-254.4449230782277
 11
-229.8057396393502
 21
-114.9028698196751
  0
LINE
  5
354
100
AcDbEntity
  8
wing-top
  6
ByLayer
 62
   16
420
8388608
370
   -1
100
AcDbLine
 10
-100.0000000000001
 20
-50.95254494944292
 11
0
 21
-50.95254494944292
  0
LINE
  5
355
100
AcDbEntity
  8
wing-top
  6
ByLayer
 62
   16
420
8388608
370
   -1
100
AcDbLine
 10
-100.0000000000001
 20
-240
 11
-100.0000000000001
 21
-50.95254494944291
  0
LINE
  5
356
100
AcDbEntity
  8
wing-top
  6
ByLayer
 62
   16
420
8388608
370
   -1
100
AcDbLine
 10
-443.8439332740994
 20
-226.1497796068607
 11
0
 21
-226.1497796068607
  0
LINE
  5
357
100
AcDbEntity
  8
wing-top
  6
ByLayer
 62
   16
420
8388608
370
   -1
100
AcDbLine
 10
-443.8439332740994
 20
-340.9219666370499
 11
-443.8439332740994
 21
-226.1497796068607
  0
LINE
  5
358
100
AcDbEntity
  8
wing-top
  6
ByLayer
 62
   16
420
8388608
370
   -1
100
AcDbLine
 10
-426.2466861871923
 20
-217.1835343750398
 11
-443.8439332740994
 21
-226.1497796068607
  0
ENDSEC
  0
SECTION
  2
OBJECTS
  0
DICTIONARY
  5
C
330
0
100
AcDbDictionary
281
    1
  3
ACAD_GROUP
350
D
  0
DICTIONARY
  5
D
330
C
100
AcDbDictionary
281
    1
  0
ENDSEC
  0
EOF
