999
dxfrw 0.6.3
  0
SECTION
  2
HEADER
  9
$ACADVER
  1
AC1021
  9
$DWGCODEPAGE
  3
ANSI_1252
  9
$INSBASE
 10
0
 20
0
 30
0
  9
$EXTMIN
 10
-30.5
 20
2.842170943040401e-014
 30
0
  9
$EXTMAX
 10
30.5
 20
252
 30
0
  9
$LIMMIN
 10
0
 20
0
  9
$LIMMAX
 10
420
 20
297
  9
$ORTHOMODE
 70
    0
  9
$REGENMODE
 70
    1
  9
$FILLMODE
 70
    1
  9
$QTEXTMODE
 70
    0
  9
$MIRRTEXT
 70
    0
  9
$LTSCALE
 40
1
  9
$ATTMODE
 70
    0
  9
$TEXTSIZE
 40
2.5
  9
$TRACEWID
 40
15.68
  9
$TEXTSTYLE
  7
STANDARD
  9
$CLAYER
  8
fuselage-camera plate
  9
$CELTYPE
  6
BYLAYER
  9
$CECOLOR
 62
  256
  9
$CELTSCALE
 40
1
  9
$DISPSILH
 70
    0
  9
$DIMSCALE
 40
2.5
  9
$DIMASZ
 40
2.5
  9
$DIMEXO
 40
0.625
  9
$DIMDLI
 40
3.75
  9
$DIMRND
 40
0
  9
$DIMDLE
 40
0
  9
$DIMEXE
 40
1.25
  9
$DIMTP
 40
0
  9
$DIMTM
 40
0
  9
$DIMTXT
 40
2.5
  9
$DIMCEN
 40
2.5
  9
$DIMTSZ
 40
0
  9
$DIMTOL
 70
    0
  9
$DIMLIM
 70
    0
  9
$DIMTIH
 70
    0
  9
$DIMTOH
 70
    0
  9
$DIMSE1
 70
    0
  9
$DIMSE2
 70
    0
  9
$DIMTAD
 70
    1
  9
$DIMZIN
 70
    8
  9
$DIMBLK
  1

  9
$DIMASO
 70
    1
  9
$DIMSHO
 70
    1
  9
$DIMPOST
  1

  9
$DIMAPOST
  1

  9
$DIMALT
 70
    0
  9
$DIMALTD
 70
    3
  9
$DIMALTF
 40
0.03937
  9
$DIMLFAC
 40
1
  9
$DIMTOFL
 70
    1
  9
$DIMTVP
 40
0
  9
$DIMTIX
 70
    0
  9
$DIMSOXD
 70
    0
  9
$DIMSAH
 70
    0
  9
$DIMBLK1
  1

  9
$DIMBLK2
  1

  9
$DIMSTYLE
  2
STANDARD
  9
$DIMCLRD
 70
    0
  9
$DIMCLRE
 70
    0
  9
$DIMCLRT
 70
    0
  9
$DIMTFAC
 40
1
  9
$DIMGAP
 40
0.625
  9
$DIMJUST
 70
    0
  9
$DIMSD1
 70
    0
  9
$DIMSD2
 70
    0
  9
$DIMTOLJ
 70
    0
  9
$DIMTZIN
 70
    8
  9
$DIMALTZ
 70
    0
  9
$DIMALTTZ
 70
    0
  9
$DIMUPT
 70
    0
  9
$DIMDEC
 70
    2
  9
$DIMTDEC
 70
    2
  9
$DIMALTU
 70
    2
  9
$DIMALTTD
 70
    3
  9
$DIMTXSTY
  7
STANDARD
  9
$DIMAUNIT
 70
    0
  9
$DIMADEC
 70
    0
  9
$DIMALTRND
 40
0
  9
$DIMAZIN
 70
    0
  9
$DIMDSEP
 70
   44
  9
$DIMATFIT
 70
    3
  9
$DIMFRAC
 70
    0
  9
$DIMLDRBLK
  1
STANDARD
  9
$DIMLUNIT
 70
    2
  9
$DIMLWD
 70
   -2
  9
$DIMLWE
 70
   -2
  9
$DIMTMOVE
 70
    0
  9
$DIMFXL
 40
1
  9
$DIMFXLON
 70
    0
  9
$DIMJOGANG
 40
0.7854
  9
$DIMTFILL
 70
    0
  9
$DIMTFILLCLR
 70
    0
  9
$DIMARCSYM
 70
    0
  9
$DIMLTYPE
  6

  9
$DIMLTEX1
  6

  9
$DIMLTEX2
  6

  9
$LUNITS
 70
    2
  9
$LUPREC
 70
    4
  9
$SKETCHINC
 40
1
  9
$FILLETRAD
 40
0
  9
$AUNITS
 70
    0
  9
$AUPREC
 70
    2
  9
$MENU
  1
.
  9
$ELEVATION
 40
0
  9
$PELEVATION
 40
0
  9
$THICKNESS
 40
0
  9
$LIMCHECK
 70
    0
  9
$CHAMFERA
 40
0
  9
$CHAMFERB
 40
0
  9
$CHAMFERC
 40
0
  9
$CHAMFERD
 40
0
  9
$SKPOLY
 70
    0
  9
$USRTIMER
 70
    1
  9
$ANGBASE
 50
0
  9
$ANGDIR
 70
    0
  9
$PDMODE
 70
   34
  9
$PDSIZE
 40
0
  9
$PLINEWID
 40
0
  9
$SPLFRAME
 70
    0
  9
$SPLINETYPE
 70
    2
  9
$SPLINESEGS
 70
    8
  9
$HANDSEED
  5
20000
  9
$SURFTAB1
 70
    6
  9
$SURFTAB2
 70
    6
  9
$SURFTYPE
 70
    6
  9
$SURFU
 70
    6
  9
$SURFV
 70
    6
  9
$UCSBASE
  2

  9
$UCSNAME
  2

  9
$UCSORG
 10
0
 20
0
 30
0
  9
$UCSXDIR
 10
1
 20
0
 30
0
  9
$UCSYDIR
 10
0
 20
1
 30
0
  9
$UCSORTHOREF
  2

  9
$UCSORTHOVIEW
 70
    0
  9
$UCSORGTOP
 10
0
 20
0
 30
0
  9
$UCSORGBOTTOM
 10
0
 20
0
 30
0
  9
$UCSORGLEFT
 10
0
 20
0
 30
0
  9
$UCSORGRIGHT
 10
0
 20
0
 30
0
  9
$UCSORGFRONT
 10
0
 20
0
 30
0
  9
$UCSORGBACK
 10
0
 20
0
 30
0
  9
$PUCSBASE
  2

  9
$PUCSNAME
  2

  9
$PUCSORG
 10
0
 20
0
 30
0
  9
$PUCSXDIR
 10
1
 20
0
 30
0
  9
$PUCSYDIR
 10
0
 20
1
 30
0
  9
$PUCSORTHOREF
  2

  9
$PUCSORTHOVIEW
 70
    0
  9
$PUCSORGTOP
 10
0
 20
0
 30
0
  9
$PUCSORGBOTTOM
 10
0
 20
0
 30
0
  9
$PUCSORGLEFT
 10
0
 20
0
 30
0
  9
$PUCSORGRIGHT
 10
0
 20
0
 30
0
  9
$PUCSORGFRONT
 10
0
 20
0
 30
0
  9
$PUCSORGBACK
 10
0
 20
0
 30
0
  9
$USERI1
 70
    0
  9
$USERI2
 70
    0
  9
$USERI3
 70
    0
  9
$USERI4
 70
    0
  9
$USERI5
 70
    0
  9
$USERR1
 40
0
  9
$USERR2
 40
0
  9
$USERR3
 40
0
  9
$USERR4
 40
0
  9
$USERR5
 40
0
  9
$WORLDVIEW
 70
    1
  9
$SHADEDGE
 70
    3
  9
$SHADEDIF
 70
   70
  9
$TILEMODE
 70
    1
  9
$MAXACTVP
 70
   64
  9
$PINSBASE
 10
105
 20
147.875
 30
0
  9
$PLIMCHECK
 70
    0
  9
$PEXTMIN
 10
0
 20
0
 30
0
  9
$PEXTMAX
 10
0
 20
0
 30
0
  9
$GRIDMODE
 70
    1
  9
$SNAPSTYLE
 70
    0
  9
$PLIMMIN
 10
0
 20
0
  9
$PLIMMAX
 10
210
 20
297
  9
$UNITMODE
 70
    0
  9
$VISRETAIN
 70
    1
  9
$PLINEGEN
 70
    0
  9
$PSLTSCALE
 70
    1
  9
$TREEDEPTH
 70
 3020
  9
$CMLSTYLE
  2
Standard
  9
$CMLJUST
 70
    0
  9
$CMLSCALE
 40
20
  9
$PROXYGRAPHICS
 70
    1
  9
$MEASUREMENT
 70
    1
  9
$CELWEIGHT
370
   -1
  9
$ENDCAPS
280
    0
  9
$JOINSTYLE
280
    0
  9
$LWDISPLAY
290
    0
  9
$INSUNITS
 70
    4
  9
$HYPERLINKBASE
  1

  9
$STYLESHEET
  1

  9
$XEDIT
290
    1
  9
$CEPSNTYPE
380
    0
  9
$PSTYLEMODE
290
    1
  9
$EXTNAMES
290
    1
  9
$PSVPSCALE
 40
1
  9
$OLESTARTUP
290
    0
  9
$SORTENTS
280
  127
  9
$INDEXCTL
280
    0
  9
$HIDETEXT
280
    1
  9
$XCLIPFRAME
290
    0
  9
$HALOGAP
280
    0
  9
$OBSCOLOR
 70
  257
  9
$OBSLTYPE
280
    0
  9
$INTERSECTIONDISPLAY
280
    0
  9
$INTERSECTIONCOLOR
 70
  257
  9
$DIMASSOC
280
    1
  9
$PROJECTNAME
  1

  9
$CAMERADISPLAY
290
    0
  9
$LENSLENGTH
 40
50
  9
$CAMERAHEIGHT
 40
0
  9
$STEPSPERSEC
 40
2
  9
$STEPSIZE
 40
50
  9
$3DDWFPREC
 40
2
  9
$PSOLWIDTH
 40
5
  9
$PSOLHEIGHT
 40
80
  9
$LOFTANG1
 40
1.570796326794897
  9
$LOFTANG2
 40
1.570796326794897
  9
$LOFTMAG1
 40
0
  9
$LOFTMAG2
 40
0
  9
$LOFTPARAM
 70
    7
  9
$LOFTNORMALS
280
    1
  9
$LATITUDE
 40
1
  9
$LONGITUDE
 40
1
  9
$NORTHDIRECTION
 40
0
  9
$TIMEZONE
 70
-8000
  9
$LIGHTGLYPHDISPLAY
280
    1
  9
$TILEMODELIGHTSYNCH
280
    1
  9
$SOLIDHIST
280
    1
  9
$SHOWHIST
280
    1
  9
$DWFFRAME
280
    2
  9
$DGNFRAME
280
    0
  9
$REALWORLDSCALE
290
    1
  9
$INTERFERECOLOR
 62
    1
  9
$CSHADOW
280
    0
  9
$SHADOWPLANELOCATION
 40
0
  0
ENDSEC
  0
SECTION
  2
CLASSES
  0
ENDSEC
  0
SECTION
  2
TABLES
  0
TABLE
  2
VPORT
  5
8
330
0
100
AcDbSymbolTable
 70
    1
  0
VPORT
  5
31
330
2
100
AcDbSymbolTableRecord
100
AcDbViewportTableRecord
  2
*ACTIVE
 70
    0
 10
0
 20
0
 11
1
 21
1
 12
95.10094636859223
 22
149.7985765652519
 13
0
 23
0
 14
10
 24
10
 15
10
 25
10
 16
0
 26
0
 36
1
 17
0
 27
0
 37
0
 40
227.2504209237219
 41
1.658536585365854
 42
50
 43
0
 44
0
 50
0
 51
0
 71
    0
 72
  100
 73
    1
 74
    3
 75
    0
 76
    1
 77
    0
 78
    0
281
    0
 65
    1
110
0
120
0
130
0
111
1
121
0
131
0
112
0
122
1
132
0
 79
    0
146
0
348
10020
 60
    7
 61
    5
292
1
282
    1
141
0
142
0
 63
  250
421
3358443
  0
ENDTAB
  0
TABLE
  2
LTYPE
  5
5
330
0
100
AcDbSymbolTable
 70
    4
  0
LTYPE
  5
14
330
5
100
AcDbSymbolTableRecord
100
AcDbLinetypeTableRecord
  2
ByBlock
 70
    0
  3

 72
   65
 73
    0
 40
0
  0
LTYPE
  5
15
330
5
100
AcDbSymbolTableRecord
100
AcDbLinetypeTableRecord
  2
ByLayer
 70
    0
  3

 72
   65
 73
    0
 40
0
  0
LTYPE
  5
16
330
5
100
AcDbSymbolTableRecord
100
AcDbLinetypeTableRecord
  2
Continuous
 70
    0
  3
Solid line
 72
   65
 73
    0
 40
0
  0
LTYPE
  5
32
330
5
100
AcDbSymbolTableRecord
100
AcDbLinetypeTableRecord
  2
DOT
 70
    0
  3
Dot . . . . . . . . . . . . . . . . . . . . . .
 72
   65
 73
    2
 40
6.35
 49
0
 74
    0
 49
-6.35
 74
    0
  0
LTYPE
  5
33
330
5
100
AcDbSymbolTableRecord
100
AcDbLinetypeTableRecord
  2
DOTTINY
 70
    0
  3
Dot (.15x) .....................................
 72
   65
 73
    2
 40
0.9525
 49
0
 74
    0
 49
-0.9525
 74
    0
  0
LTYPE
  5
34
330
5
100
AcDbSymbolTableRecord
100
AcDbLinetypeTableRecord
  2
DOT2
 70
    0
  3
Dot (.5x) .....................................
 72
   65
 73
    2
 40
3.175
 49
0
 74
    0
 49
-3.175
 74
    0
  0
LTYPE
  5
35
330
5
100
AcDbSymbolTableRecord
100
AcDbLinetypeTableRecord
  2
DOTX2
 70
    0
  3
Dot (2x) .  .  .  .  .  .  .  .  .  .  .  .  .
 72
   65
 73
    2
 40
12.7
 49
0
 74
    0
 49
-12.7
 74
    0
  0
LTYPE
  5
36
330
5
100
AcDbSymbolTableRecord
100
AcDbLinetypeTableRecord
  2
DASHED
 70
    0
  3
Dashed _ _ _ _ _ _ _ _ _ _ _ _ _ _ _ _ _
 72
   65
 73
    2
 40
19.05
 49
12.7
 74
    0
 49
-6.35
 74
    0
  0
LTYPE
  5
37
330
5
100
AcDbSymbolTableRecord
100
AcDbLinetypeTableRecord
  2
DASHEDTINY
 70
    0
  3
Dashed (.15x) _ _ _ _ _ _ _ _ _ _ _ _ _ _ _ _ _
 72
   65
 73
    2
 40
2.8575
 49
1.905
 74
    0
 49
-0.9525
 74
    0
  0
LTYPE
  5
38
330
5
100
AcDbSymbolTableRecord
100
AcDbLinetypeTableRecord
  2
DASHED2
 70
    0
  3
Dashed (.5x) _ _ _ _ _ _ _ _ _ _ _ _ _ _ _ _ _
 72
   65
 73
    2
 40
9.524999999999999
 49
6.35
 74
    0
 49
-3.175
 74
    0
  0
LTYPE
  5
39
330
5
100
AcDbSymbolTableRecord
100
AcDbLinetypeTableRecord
  2
DASHEDX2
 70
    0
  3
Dashed (2x) ____  ____  ____  ____  ____  ___
 72
   65
 73
    2
 40
38.09999999999999
 49
25.4
 74
    0
 49
-12.7
 74
    0
  0
LTYPE
  5
3A
330
5
100
AcDbSymbolTableRecord
100
AcDbLinetypeTableRecord
  2
DASHDOT
 70
    0
  3
Dash dot __ . __ . __ . __ . __ . __ . __ . __
 72
   65
 73
    4
 40
25.4
 49
12.7
 74
    0
 49
-6.35
 74
    0
 49
0
 74
    0
 49
-6.35
 74
    0
  0
LTYPE
  5
3B
330
5
100
AcDbSymbolTableRecord
100
AcDbLinetypeTableRecord
  2
DASHDOTTINY
 70
    0
  3
Dash dot (.15x) _._._._._._._._._._._._._._._.
 72
   65
 73
    4
 40
3.81
 49
1.905
 74
    0
 49
-0.9525
 74
    0
 49
0
 74
    0
 49
-0.9525
 74
    0
  0
LTYPE
  5
3C
330
5
100
AcDbSymbolTableRecord
100
AcDbLinetypeTableRecord
  2
DASHDOT2
 70
    0
  3
Dash dot (.5x) _._._._._._._._._._._._._._._.
 72
   65
 73
    4
 40
12.7
 49
6.35
 74
    0
 49
-3.175
 74
    0
 49
0
 74
    0
 49
-3.175
 74
    0
  0
LTYPE
  5
3D
330
5
100
AcDbSymbolTableRecord
100
AcDbLinetypeTableRecord
  2
DASHDOTX2
 70
    0
  3
Dash dot (2x) ____  .  ____  .  ____  .  ___
 72
   65
 73
    4
 40
50.8
 49
25.4
 74
    0
 49
-12.7
 74
    0
 49
0
 74
    0
 49
-12.7
 74
    0
  0
LTYPE
  5
3E
330
5
100
AcDbSymbolTableRecord
100
AcDbLinetypeTableRecord
  2
DIVIDE
 70
    0
  3
Divide ____ . . ____ . . ____ . . ____ . . ____
 72
   65
 73
    6
 40
31.75
 49
12.7
 74
    0
 49
-6.35
 74
    0
 49
0
 74
    0
 49
-6.35
 74
    0
 49
0
 74
    0
 49
-6.35
 74
    0
  0
LTYPE
  5
3F
330
5
100
AcDbSymbolTableRecord
100
AcDbLinetypeTableRecord
  2
DIVIDETINY
 70
    0
  3
Divide (.15x) __..__..__..__..__..__..__..__.._
 72
   65
 73
    6
 40
4.7625
 49
1.905
 74
    0
 49
-0.9525
 74
    0
 49
0
 74
    0
 49
-0.9525
 74
    0
 49
0
 74
    0
 49
-0.9525
 74
    0
  0
LTYPE
  5
40
330
5
100
AcDbSymbolTableRecord
100
AcDbLinetypeTableRecord
  2
DIVIDE2
 70
    0
  3
Divide (.5x) __..__..__..__..__..__..__..__.._
 72
   65
 73
    6
 40
15.875
 49
6.35
 74
    0
 49
-3.175
 74
    0
 49
0
 74
    0
 49
-3.175
 74
    0
 49
0
 74
    0
 49
-3.175
 74
    0
  0
LTYPE
  5
41
330
5
100
AcDbSymbolTableRecord
100
AcDbLinetypeTableRecord
  2
DIVIDEX2
 70
    0
  3
Divide (2x) ________  .  .  ________  .  .  _
 72
   65
 73
    6
 40
63.5
 49
25.4
 74
    0
 49
-12.7
 74
    0
 49
0
 74
    0
 49
-12.7
 74
    0
 49
0
 74
    0
 49
-12.7
 74
    0
  0
LTYPE
  5
42
330
5
100
AcDbSymbolTableRecord
100
AcDbLinetypeTableRecord
  2
BORDER
 70
    0
  3
Border __ __ . __ __ . __ __ . __ __ . __ __ .
 72
   65
 73
    6
 40
44.45
 49
12.7
 74
    0
 49
-6.35
 74
    0
 49
12.7
 74
    0
 49
-6.35
 74
    0
 49
0
 74
    0
 49
-6.35
 74
    0
  0
LTYPE
  5
43
330
5
100
AcDbSymbolTableRecord
100
AcDbLinetypeTableRecord
  2
BORDERTINY
 70
    0
  3
Border (.15x) __.__.__.__.__.__.__.__.__.__.__.
 72
   65
 73
    6
 40
6.6675
 49
1.905
 74
    0
 49
-0.9525
 74
    0
 49
1.905
 74
    0
 49
-0.9525
 74
    0
 49
0
 74
    0
 49
-0.9525
 74
    0
  0
LTYPE
  5
44
330
5
100
AcDbSymbolTableRecord
100
AcDbLinetypeTableRecord
  2
BORDER2
 70
    0
  3
Border (.5x) __.__.__.__.__.__.__.__.__.__.__.
 72
   65
 73
    6
 40
22.225
 49
6.35
 74
    0
 49
-3.175
 74
    0
 49
6.35
 74
    0
 49
-3.175
 74
    0
 49
0
 74
    0
 49
-3.175
 74
    0
  0
LTYPE
  5
45
330
5
100
AcDbSymbolTableRecord
100
AcDbLinetypeTableRecord
  2
BORDERX2
 70
    0
  3
Border (2x) ____  ____  .  ____  ____  .  ___
 72
   65
 73
    6
 40
88.89999999999999
 49
25.4
 74
    0
 49
-12.7
 74
    0
 49
25.4
 74
    0
 49
-12.7
 74
    0
 49
0
 74
    0
 49
-12.7
 74
    0
  0
LTYPE
  5
46
330
5
100
AcDbSymbolTableRecord
100
AcDbLinetypeTableRecord
  2
CENTER
 70
    0
  3
Center ____ _ ____ _ ____ _ ____ _ ____ _ ____
 72
   65
 73
    4
 40
50.8
 49
31.75
 74
    0
 49
-6.35
 74
    0
 49
6.35
 74
    0
 49
-6.35
 74
    0
  0
LTYPE
  5
47
330
5
100
AcDbSymbolTableRecord
100
AcDbLinetypeTableRecord
  2
CENTERTINY
 70
    0
  3
Center (.15x) ___ _ ___ _ ___ _ ___ _ ___ _ ___
 72
   65
 73
    4
 40
7.62
 49
4.7625
 74
    0
 49
-0.9525
 74
    0
 49
0.9525
 74
    0
 49
-0.9525
 74
    0
  0
LTYPE
  5
48
330
5
100
AcDbSymbolTableRecord
100
AcDbLinetypeTableRecord
  2
CENTER2
 70
    0
  3
Center (.5x) ___ _ ___ _ ___ _ ___ _ ___ _ ___
 72
   65
 73
    4
 40
28.575
 49
19.05
 74
    0
 49
-3.175
 74
    0
 49
3.175
 74
    0
 49
-3.175
 74
    0
  0
LTYPE
  5
49
330
5
100
AcDbSymbolTableRecord
100
AcDbLinetypeTableRecord
  2
CENTERX2
 70
    0
  3
Center (2x) ________  __  ________  __  _____
 72
   65
 73
    4
 40
101.6
 49
63.5
 74
    0
 49
-12.7
 74
    0
 49
12.7
 74
    0
 49
-12.7
 74
    0
  0
ENDTAB
  0
TABLE
  2
LAYER
  5
2
330
0
100
AcDbSymbolTable
 70
    1
  0
LAYER
  5
10
330
2
100
AcDbSymbolTableRecord
100
AcDbLayerTableRecord
  2
0
 70
    5
 62
    7
  6
CONTINUOUS
370
    0
390
F
  0
LAYER
  5
4A
330
2
100
AcDbSymbolTableRecord
100
AcDbLayerTableRecord
  2
fuselage-bottom plate
 70
    4
 62
    1
  6
CONTINUOUS
370
    0
390
F
  0
LAYER
  5
4B
330
2
100
AcDbSymbolTableRecord
100
AcDbLayerTableRecord
  2
fuselage-camera plate
 70
    4
 62
    2
  6
CONTINUOUS
370
    0
390
F
  0
LAYER
  5
4C
330
2
100
AcDbSymbolTableRecord
100
AcDbLayerTableRecord
  2
fuselage-top plate
 70
    4
 62
    4
  6
CONTINUOUS
370
    0
390
F
  0
ENDTAB
  0
TABLE
  2
STYLE
  5
3
330
0
100
AcDbSymbolTable
 70
    3
  0
STYLE
  5
4D
330
2
100
AcDbSymbolTableRecord
100
AcDbTextStyleTableRecord
  2
Standard
 70
    0
 40
0
 41
1
 50
0
 71
    0
 42
1
  3
txt
  4

  0
ENDTAB
  0
TABLE
  2
VIEW
  5
6
330
0
100
AcDbSymbolTable
 70
    0
  0
ENDTAB
  0
TABLE
  2
UCS
  5
7
330
0
100
AcDbSymbolTable
 70
    0
  0
ENDTAB
  0
TABLE
  2
APPID
  5
9
330
0
100
AcDbSymbolTable
 70
    1
  0
APPID
  5
12
330
9
100
AcDbSymbolTableRecord
100
AcDbRegAppTableRecord
  2
ACAD
 70
    0
  0
APPID
  5
4E
330
9
100
AcDbSymbolTableRecord
100
AcDbRegAppTableRecord
  2
LibreCad
 70
    0
  0
ENDTAB
  0
TABLE
  2
DIMSTYLE
  5
A
330
0
100
AcDbSymbolTable
 70
    1
100
AcDbDimStyleTable
 71
    1
  0
DIMSTYLE
105
4F
330
A
100
AcDbSymbolTableRecord
100
AcDbDimStyleTableRecord
  2
Standard
 70
    0
 40
2.5
 41
2.5
 42
0.625
 43
0.38
 44
1.25
 45
0
 46
0
 47
0
 48
0
 49
1
140
2.5
141
0.09
142
0
143
25.4
144
1
145
0
146
1
147
0.625
148
0
 71
    0
 72
    0
 73
    0
 74
    1
 75
    0
 76
    0
 77
    0
 78
    8
 79
    0
170
    0
171
    2
172
    0
173
    0
174
    0
175
    0
176
    0
177
    0
178
    0
179
    0
271
    2
272
    4
273
    2
274
    2
275
    0
276
    0
277
    2
278
   44
279
    0
280
    0
281
    0
282
    0
283
    1
284
    0
285
    0
286
    0
288
    0
289
    3
340
STANDARD
341

371
   -2
372
   -2
  0
ENDTAB
  0
TABLE
  2
BLOCK_RECORD
  5
1
330
0
100
AcDbSymbolTable
 70
    2
  0
BLOCK_RECORD
  5
1F
330
1
100
AcDbSymbolTableRecord
100
AcDbBlockTableRecord
  2
*Model_Space
 70
    0
280
    1
281
    0
  0
BLOCK_RECORD
  5
1E
330
1
100
AcDbSymbolTableRecord
100
AcDbBlockTableRecord
  2
*Paper_Space
 70
    0
280
    1
281
    0
  0
ENDTAB
  0
ENDSEC
  0
SECTION
  2
BLOCKS
  0
BLOCK
  5
20
330
1F
100
AcDbEntity
  8
0
100
AcDbBlockBegin
  2
*Model_Space
 70
    0
 10
0
 20
0
 30
0
  3
*Model_Space
  1

  0
ENDBLK
  5
21
330
1F
100
AcDbEntity
  8
0
100
AcDbBlockEnd
  0
BLOCK
  5
1C
330
1B
100
AcDbEntity
  8
0
100
AcDbBlockBegin
  2
*Paper_Space
 70
    0
 10
0
 20
0
 30
0
  3
*Paper_Space
  1

  0
ENDBLK
  5
1D
330
1F
100
AcDbEntity
  8
0
100
AcDbBlockEnd
  0
ENDSEC
  0
SECTION
  2
ENTITIES
  0
LINE
  5
50
100
AcDbEntity
  8
0
  6
ByLayer
 62
    2
370
   -1
100
AcDbLine
 10
27
 20
-420.0000000000001
 11
27
 21
49.99999999999999
  0
LINE
  5
51
100
AcDbEntity
  8
0
  6
ByLayer
 62
    2
370
   -1
100
AcDbLine
 10
260
 20
-420.0000000000001
 11
260
 21
49.99999999999993
  0
LINE
  5
52
100
AcDbEntity
  8
0
  6
ByLayer
 62
    2
370
   -1
100
AcDbLine
 10
380
 20
-420.0000000000002
 11
380
 21
49.9999999999999
  0
LINE
  5
53
100
AcDbEntity
  8
0
  6
ByLayer
 62
    2
370
   -1
100
AcDbLine
 10
500
 20
-420.0000000000002
 11
500
 21
49.99999999999987
  0
LINE
  5
54
100
AcDbEntity
  8
0
  6
ByLayer
 62
    2
370
   -1
100
AcDbLine
 10
140
 20
-420.0000000000001
 11
140
 21
49.99999999999996
  0
LINE
  5
55
100
AcDbEntity
  8
0
  6
ByLayer
 62
    2
370
   -1
100
AcDbLine
 10
-27
 20
-420.0000000000001
 11
-27
 21
49.99999999999999
  0
LINE
  5
56
100
AcDbEntity
  8
0
  6
ByLayer
 62
    2
370
   -1
100
AcDbLine
 10
-260
 20
-420.0000000000001
 11
-260
 21
49.99999999999993
  0
LINE
  5
57
100
AcDbEntity
  8
0
  6
ByLayer
 62
    2
370
   -1
100
AcDbLine
 10
-380
 20
-420.0000000000002
 11
-380
 21
49.9999999999999
  0
LINE
  5
58
100
AcDbEntity
  8
0
  6
ByLayer
 62
    2
370
   -1
100
AcDbLine
 10
-500
 20
-420.0000000000002
 11
-500
 21
49.99999999999987
  0
LINE
  5
59
100
AcDbEntity
  8
0
  6
ByLayer
 62
    2
370
   -1
100
AcDbLine
 10
-140
 20
-420.0000000000001
 11
-140
 21
49.99999999999996
  0
CIRCLE
  5
5A
100
AcDbEntity
  8
fuselage-bottom plate
  6
ByLayer
 62
  256
370
   -1
100
AcDbCircle
 10
-1.179611963664229e-016
 20
192
 40
1.5
  0
CIRCLE
  5
5B
100
AcDbEntity
  8
fuselage-bottom plate
  6
ByLayer
 62
  256
370
   -1
100
AcDbCircle
 10
15.5
 20
192
 40
1.5
  0
CIRCLE
  5
5C
100
AcDbEntity
  8
fuselage-bottom plate
  6
ByLayer
 62
  256
370
   -1
100
AcDbCircle
 10
-15.5
 20
192
 40
1.5
  0
ARC
  5
5D
100
AcDbEntity
  8
fuselage-bottom plate
  6
ByLayer
 62
  256
370
   -1
100
AcDbCircle
 10
-11
 20
142
 40
1.5
100
AcDbArc
 50
180
 51
270
  0
LINE
  5
5E
100
AcDbEntity
  8
fuselage-bottom plate
  6
ByLayer
 62
  256
370
   -1
100
AcDbLine
 10
-11
 20
140.5
 11
-11
 21
140.5
  0
ARC
  5
5F
100
AcDbEntity
  8
fuselage-bottom plate
  6
ByLayer
 62
  256
370
   -1
100
AcDbCircle
 10
-11
 20
142
 40
1.5
100
AcDbArc
 50
270
 51
0
  0
LINE
  5
60
100
AcDbEntity
  8
fuselage-bottom plate
  6
ByLayer
 62
  256
370
   -1
100
AcDbLine
 10
-12.5
 20
182
 11
-12.5
 21
142
  0
ARC
  5
61
100
AcDbEntity
  8
fuselage-bottom plate
  6
ByLayer
 62
  256
370
   -1
100
AcDbCircle
 10
-11
 20
182
 40
1.5
100
AcDbArc
 50
90
 51
179.9999999999997
  0
LINE
  5
62
100
AcDbEntity
  8
fuselage-bottom plate
  6
ByLayer
 62
  256
370
   -1
100
AcDbLine
 10
-11
 20
183.5
 11
-11
 21
183.5
  0
LINE
  5
63
100
AcDbEntity
  8
fuselage-bottom plate
  6
ByLayer
 62
  256
370
   -1
100
AcDbLine
 10
-9.5
 20
182
 11
-9.5
 21
142
  0
ARC
  5
64
100
AcDbEntity
  8
fuselage-bottom plate
  6
ByLayer
 62
  256
370
   -1
100
AcDbCircle
 10
-11
 20
182
 40
1.5
100
AcDbArc
 50
0
 51
90
  0
ARC
  5
65
100
AcDbEntity
  8
fuselage-bottom plate
  6
ByLayer
 62
  256
370
   -1
100
AcDbCircle
 10
11
 20
182
 40
1.5
100
AcDbArc
 50
359.9999999999997
 51
90
  0
LINE
  5
66
100
AcDbEntity
  8
fuselage-bottom plate
  6
ByLayer
 62
  256
370
   -1
100
AcDbLine
 10
11
 20
183.5
 11
11
 21
183.5
  0
ARC
  5
67
100
AcDbEntity
  8
fuselage-bottom plate
  6
ByLayer
 62
  256
370
   -1
100
AcDbCircle
 10
11
 20
182
 40
1.5
100
AcDbArc
 50
90
 51
180
  0
LINE
  5
68
100
AcDbEntity
  8
fuselage-bottom plate
  6
ByLayer
 62
  256
370
   -1
100
AcDbLine
 10
9.5
 20
182
 11
9.5
 21
142
  0
ARC
  5
69
100
AcDbEntity
  8
fuselage-bottom plate
  6
ByLayer
 62
  256
370
   -1
100
AcDbCircle
 10
11
 20
142
 40
1.5
100
AcDbArc
 50
180
 51
270
  0
LINE
  5
6A
100
AcDbEntity
  8
fuselage-bottom plate
  6
ByLayer
 62
  256
370
   -1
100
AcDbLine
 10
12.5
 20
182
 11
12.5
 21
142
  0
LINE
  5
6B
100
AcDbEntity
  8
fuselage-bottom plate
  6
ByLayer
 62
  256
370
   -1
100
AcDbLine
 10
11
 20
140.5
 11
11
 21
140.5
  0
ARC
  5
6C
100
AcDbEntity
  8
fuselage-bottom plate
  6
ByLayer
 62
  256
370
   -1
100
AcDbCircle
 10
11
 20
142
 40
1.5
100
AcDbArc
 50
270
 51
0
  0
ARC
  5
6D
100
AcDbEntity
  8
fuselage-bottom plate
  6
ByLayer
 62
  256
370
   -1
100
AcDbCircle
 10
-11
 20
82
 40
1.5
100
AcDbArc
 50
180
 51
270
  0
LINE
  5
6E
100
AcDbEntity
  8
fuselage-bottom plate
  6
ByLayer
 62
  256
370
   -1
100
AcDbLine
 10
-11
 20
80.5
 11
-11
 21
80.5
  0
ARC
  5
6F
100
AcDbEntity
  8
fuselage-bottom plate
  6
ByLayer
 62
  256
370
   -1
100
AcDbCircle
 10
-11
 20
82
 40
1.5
100
AcDbArc
 50
270
 51
0
  0
LINE
  5
70
100
AcDbEntity
  8
fuselage-bottom plate
  6
ByLayer
 62
  256
370
   -1
100
AcDbLine
 10
-12.5
 20
122
 11
-12.5
 21
82
  0
ARC
  5
71
100
AcDbEntity
  8
fuselage-bottom plate
  6
ByLayer
 62
  256
370
   -1
100
AcDbCircle
 10
-11
 20
122
 40
1.5
100
AcDbArc
 50
90
 51
179.9999999999997
  0
LINE
  5
72
100
AcDbEntity
  8
fuselage-bottom plate
  6
ByLayer
 62
  256
370
   -1
100
AcDbLine
 10
-11
 20
123.5
 11
-11
 21
123.5
  0
LINE
  5
73
100
AcDbEntity
  8
fuselage-bottom plate
  6
ByLayer
 62
  256
370
   -1
100
AcDbLine
 10
-9.5
 20
122
 11
-9.5
 21
82
  0
ARC
  5
74
100
AcDbEntity
  8
fuselage-bottom plate
  6
ByLayer
 62
  256
370
   -1
100
AcDbCircle
 10
-11
 20
122
 40
1.5
100
AcDbArc
 50
0
 51
90
  0
ARC
  5
75
100
AcDbEntity
  8
fuselage-bottom plate
  6
ByLayer
 62
  256
370
   -1
100
AcDbCircle
 10
11
 20
122
 40
1.5
100
AcDbArc
 50
359.9999999999997
 51
90
  0
LINE
  5
76
100
AcDbEntity
  8
fuselage-bottom plate
  6
ByLayer
 62
  256
370
   -1
100
AcDbLine
 10
11
 20
123.5
 11
11
 21
123.5
  0
ARC
  5
77
100
AcDbEntity
  8
fuselage-bottom plate
  6
ByLayer
 62
  256
370
   -1
100
AcDbCircle
 10
11
 20
122
 40
1.5
100
AcDbArc
 50
90
 51
180
  0
LINE
  5
78
100
AcDbEntity
  8
fuselage-bottom plate
  6
ByLayer
 62
  256
370
   -1
100
AcDbLine
 10
9.5
 20
122
 11
9.5
 21
82
  0
ARC
  5
79
100
AcDbEntity
  8
fuselage-bottom plate
  6
ByLayer
 62
  256
370
   -1
100
AcDbCircle
 10
11
 20
82
 40
1.5
100
AcDbArc
 50
180
 51
270
  0
LINE
  5
7A
100
AcDbEntity
  8
fuselage-bottom plate
  6
ByLayer
 62
  256
370
   -1
100
AcDbLine
 10
12.5
 20
122
 11
12.5
 21
82
  0
LINE
  5
7B
100
AcDbEntity
  8
fuselage-bottom plate
  6
ByLayer
 62
  256
370
   -1
100
AcDbLine
 10
11
 20
80.5
 11
11
 21
80.5
  0
ARC
  5
7C
100
AcDbEntity
  8
fuselage-bottom plate
  6
ByLayer
 62
  256
370
   -1
100
AcDbCircle
 10
11
 20
82
 40
1.5
100
AcDbArc
 50
270
 51
0
  0
ARC
  5
7D
100
AcDbEntity
  8
fuselage-bottom plate
  6
ByLayer
 62
  256
370
   -1
100
AcDbCircle
 10
11
 20
62
 40
1.5
100
AcDbArc
 50
359.9999999999997
 51
90
  0
LINE
  5
7E
100
AcDbEntity
  8
fuselage-bottom plate
  6
ByLayer
 62
  256
370
   -1
100
AcDbLine
 10
11
 20
63.5
 11
11
 21
63.5
  0
ARC
  5
7F
100
AcDbEntity
  8
fuselage-bottom plate
  6
ByLayer
 62
  256
370
   -1
100
AcDbCircle
 10
11
 20
62
 40
1.5
100
AcDbArc
 50
90
 51
180
  0
LINE
  5
80
100
AcDbEntity
  8
fuselage-bottom plate
  6
ByLayer
 62
  256
370
   -1
100
AcDbLine
 10
12.5
 20
62
 11
12.5
 21
32
  0
LINE
  5
81
100
AcDbEntity
  8
fuselage-bottom plate
  6
ByLayer
 62
  256
370
   -1
100
AcDbLine
 10
9.5
 20
62
 11
9.5
 21
32
  0
ARC
  5
82
100
AcDbEntity
  8
fuselage-bottom plate
  6
ByLayer
 62
  256
370
   -1
100
AcDbCircle
 10
11
 20
32
 40
1.5
100
AcDbArc
 50
180
 51
270
  0
ARC
  5
83
100
AcDbEntity
  8
fuselage-bottom plate
  6
ByLayer
 62
  256
370
   -1
100
AcDbCircle
 10
11
 20
32
 40
1.5
100
AcDbArc
 50
270
 51
0
  0
ARC
  5
84
100
AcDbEntity
  8
fuselage-bottom plate
  6
ByLayer
 62
  256
370
   -1
100
AcDbCircle
 10
-11
 20
62
 40
1.5
100
AcDbArc
 50
90
 51
180.0000000000003
  0
LINE
  5
85
100
AcDbEntity
  8
fuselage-bottom plate
  6
ByLayer
 62
  256
370
   -1
100
AcDbLine
 10
-11
 20
63.5
 11
-11
 21
63.5
  0
ARC
  5
86
100
AcDbEntity
  8
fuselage-bottom plate
  6
ByLayer
 62
  256
370
   -1
100
AcDbCircle
 10
-11
 20
62
 40
1.5
100
AcDbArc
 50
360
 51
90
  0
LINE
  5
87
100
AcDbEntity
  8
fuselage-bottom plate
  6
ByLayer
 62
  256
370
   -1
100
AcDbLine
 10
-12.5
 20
62
 11
-12.5
 21
32
  0
LINE
  5
88
100
AcDbEntity
  8
fuselage-bottom plate
  6
ByLayer
 62
  256
370
   -1
100
AcDbLine
 10
-9.5
 20
62
 11
-9.5
 21
32
  0
ARC
  5
89
100
AcDbEntity
  8
fuselage-bottom plate
  6
ByLayer
 62
  256
370
   -1
100
AcDbCircle
 10
-11
 20
32
 40
1.5
100
AcDbArc
 50
270
 51
360
  0
ARC
  5
8A
100
AcDbEntity
  8
fuselage-bottom plate
  6
ByLayer
 62
  256
370
   -1
100
AcDbCircle
 10
-11
 20
32
 40
1.5
100
AcDbArc
 50
180
 51
270
  0
CIRCLE
  5
8B
100
AcDbEntity
  8
fuselage-bottom plate
  6
ByLayer
 62
  256
370
   -1
100
AcDbCircle
 10
17.5
 20
182
 40
1.5
  0
CIRCLE
  5
8C
100
AcDbEntity
  8
fuselage-bottom plate
  6
ByLayer
 62
  256
370
   -1
100
AcDbCircle
 10
17.5
 20
142
 40
1.5
  0
CIRCLE
  5
8D
100
AcDbEntity
  8
fuselage-bottom plate
  6
ByLayer
 62
  256
370
   -1
100
AcDbCircle
 10
17.5
 20
162
 40
1.5
  0
CIRCLE
  5
8E
100
AcDbEntity
  8
fuselage-bottom plate
  6
ByLayer
 62
  256
370
   -1
100
AcDbCircle
 10
17.5
 20
172
 40
1.5
  0
CIRCLE
  5
8F
100
AcDbEntity
  8
fuselage-bottom plate
  6
ByLayer
 62
  256
370
   -1
100
AcDbCircle
 10
17.5
 20
152
 40
1.5
  0
CIRCLE
  5
90
100
AcDbEntity
  8
fuselage-bottom plate
  6
ByLayer
 62
  256
370
   -1
100
AcDbCircle
 10
17.5
 20
122
 40
1.5
  0
CIRCLE
  5
91
100
AcDbEntity
  8
fuselage-bottom plate
  6
ByLayer
 62
  256
370
   -1
100
AcDbCircle
 10
17.5
 20
82
 40
1.5
  0
CIRCLE
  5
92
100
AcDbEntity
  8
fuselage-bottom plate
  6
ByLayer
 62
  256
370
   -1
100
AcDbCircle
 10
17.5
 20
102
 40
1.5
  0
CIRCLE
  5
93
100
AcDbEntity
  8
fuselage-bottom plate
  6
ByLayer
 62
  256
370
   -1
100
AcDbCircle
 10
17.5
 20
112
 40
1.5
  0
CIRCLE
  5
94
100
AcDbEntity
  8
fuselage-bottom plate
  6
ByLayer
 62
  256
370
   -1
100
AcDbCircle
 10
17.5
 20
92
 40
1.5
  0
CIRCLE
  5
95
100
AcDbEntity
  8
fuselage-bottom plate
  6
ByLayer
 62
  256
370
   -1
100
AcDbCircle
 10
17.5
 20
132
 40
1.5
  0
CIRCLE
  5
96
100
AcDbEntity
  8
fuselage-bottom plate
  6
ByLayer
 62
  256
370
   -1
100
AcDbCircle
 10
17.5
 20
62
 40
1.5
  0
CIRCLE
  5
97
100
AcDbEntity
  8
fuselage-bottom plate
  6
ByLayer
 62
  256
370
   -1
100
AcDbCircle
 10
17.5
 20
32
 40
1.5
  0
CIRCLE
  5
98
100
AcDbEntity
  8
fuselage-bottom plate
  6
ByLayer
 62
  256
370
   -1
100
AcDbCircle
 10
17.5
 20
52
 40
1.5
  0
CIRCLE
  5
99
100
AcDbEntity
  8
fuselage-bottom plate
  6
ByLayer
 62
  256
370
   -1
100
AcDbCircle
 10
17.5
 20
42
 40
1.5
  0
CIRCLE
  5
9A
100
AcDbEntity
  8
fuselage-bottom plate
  6
ByLayer
 62
  256
370
   -1
100
AcDbCircle
 10
17.5
 20
72
 40
1.5
  0
CIRCLE
  5
9B
100
AcDbEntity
  8
fuselage-bottom plate
  6
ByLayer
 62
  256
370
   -1
100
AcDbCircle
 10
-17.5
 20
182
 40
1.5
  0
CIRCLE
  5
9C
100
AcDbEntity
  8
fuselage-bottom plate
  6
ByLayer
 62
  256
370
   -1
100
AcDbCircle
 10
-17.5
 20
142
 40
1.5
  0
CIRCLE
  5
9D
100
AcDbEntity
  8
fuselage-bottom plate
  6
ByLayer
 62
  256
370
   -1
100
AcDbCircle
 10
-17.5
 20
162
 40
1.5
  0
CIRCLE
  5
9E
100
AcDbEntity
  8
fuselage-bottom plate
  6
ByLayer
 62
  256
370
   -1
100
AcDbCircle
 10
-17.5
 20
172
 40
1.5
  0
CIRCLE
  5
9F
100
AcDbEntity
  8
fuselage-bottom plate
  6
ByLayer
 62
  256
370
   -1
100
AcDbCircle
 10
-17.5
 20
152
 40
1.5
  0
CIRCLE
  5
A0
100
AcDbEntity
  8
fuselage-bottom plate
  6
ByLayer
 62
  256
370
   -1
100
AcDbCircle
 10
-17.5
 20
122
 40
1.5
  0
CIRCLE
  5
A1
100
AcDbEntity
  8
fuselage-bottom plate
  6
ByLayer
 62
  256
370
   -1
100
AcDbCircle
 10
-17.5
 20
82
 40
1.5
  0
CIRCLE
  5
A2
100
AcDbEntity
  8
fuselage-bottom plate
  6
ByLayer
 62
  256
370
   -1
100
AcDbCircle
 10
-17.5
 20
102
 40
1.5
  0
CIRCLE
  5
A3
100
AcDbEntity
  8
fuselage-bottom plate
  6
ByLayer
 62
  256
370
   -1
100
AcDbCircle
 10
-17.5
 20
112
 40
1.5
  0
CIRCLE
  5
A4
100
AcDbEntity
  8
fuselage-bottom plate
  6
ByLayer
 62
  256
370
   -1
100
AcDbCircle
 10
-17.5
 20
92
 40
1.5
  0
CIRCLE
  5
A5
100
AcDbEntity
  8
fuselage-bottom plate
  6
ByLayer
 62
  256
370
   -1
100
AcDbCircle
 10
-17.5
 20
132
 40
1.5
  0
CIRCLE
  5
A6
100
AcDbEntity
  8
fuselage-bottom plate
  6
ByLayer
 62
  256
370
   -1
100
AcDbCircle
 10
-17.5
 20
62
 40
1.5
  0
CIRCLE
  5
A7
100
AcDbEntity
  8
fuselage-bottom plate
  6
ByLayer
 62
  256
370
   -1
100
AcDbCircle
 10
-17.5
 20
32
 40
1.5
  0
CIRCLE
  5
A8
100
AcDbEntity
  8
fuselage-bottom plate
  6
ByLayer
 62
  256
370
   -1
100
AcDbCircle
 10
-17.5
 20
52
 40
1.5
  0
CIRCLE
  5
A9
100
AcDbEntity
  8
fuselage-bottom plate
  6
ByLayer
 62
  256
370
   -1
100
AcDbCircle
 10
-17.5
 20
42
 40
1.5
  0
CIRCLE
  5
AA
100
AcDbEntity
  8
fuselage-bottom plate
  6
ByLayer
 62
  256
370
   -1
100
AcDbCircle
 10
-17.5
 20
72
 40
1.5
  0
CIRCLE
  5
AB
100
AcDbEntity
  8
fuselage-bottom plate
  6
ByLayer
 62
  256
370
   -1
100
AcDbCircle
 10
-7
 20
221
 40
1.5
  0
CIRCLE
  5
AC
100
AcDbEntity
  8
fuselage-bottom plate
  6
ByLayer
 62
  256
370
   -1
100
AcDbCircle
 10
7
 20
221
 40
1.5
  0
CIRCLE
  5
AD
100
AcDbEntity
  8
fuselage-bottom plate
  6
ByLayer
 62
  256
370
   -1
100
AcDbCircle
 10
9
 20
17
 40
1.5
  0
CIRCLE
  5
AE
100
AcDbEntity
  8
fuselage-bottom plate
  6
ByLayer
 62
  256
370
   -1
100
AcDbCircle
 10
-9
 20
17
 40
1.5
  0
CIRCLE
  5
AF
100
AcDbEntity
  8
fuselage-bottom plate
  6
ByLayer
 62
  256
370
   -1
100
AcDbCircle
 10
9
 20
9
 40
1.5
  0
CIRCLE
  5
B0
100
AcDbEntity
  8
fuselage-bottom plate
  6
ByLayer
 62
  256
370
   -1
100
AcDbCircle
 10
-9
 20
9
 40
1.5
  0
ARC
  5
B1
100
AcDbEntity
  8
fuselage-bottom plate
  6
ByLayer
 62
  256
370
   -1
100
AcDbCircle
 10
4.375000000000654
 20
13.875
 40
0.75
100
AcDbArc
 50
359.9999505480478
 51
180
  0
ARC
  5
B2
100
AcDbEntity
  8
fuselage-bottom plate
  6
ByLayer
 62
  256
370
   -1
100
AcDbCircle
 10
-4.375000000000654
 20
13.875
 40
0.75
100
AcDbArc
 50
360
 51
180.0000494519522
  0
LINE
  5
B3
100
AcDbEntity
  8
fuselage-bottom plate
  6
ByLayer
 62
  256
370
   -1
100
AcDbLine
 10
-3.625000000002681
 20
13.87500000000001
 11
3.625000000001307
 21
13.875
  0
ARC
  5
B4
100
AcDbEntity
  8
fuselage-bottom plate
  6
ByLayer
 62
  256
370
   -1
100
AcDbCircle
 10
4.375000000000654
 20
12.125
 40
0.75
100
AcDbArc
 50
180
 51
4.945195220498345e-005
  0
ARC
  5
B5
100
AcDbEntity
  8
fuselage-bottom plate
  6
ByLayer
 62
  256
370
   -1
100
AcDbCircle
 10
-4.375000000000654
 20
12.125
 40
0.75
100
AcDbArc
 50
179.9999505480478
 51
360
  0
LINE
  5
B6
100
AcDbEntity
  8
fuselage-bottom plate
  6
ByLayer
 62
  256
370
   -1
100
AcDbLine
 10
-3.625000000002681
 20
12.12499999999999
 11
3.625000000001305
 21
12.125
  0
LINE
  5
B7
100
AcDbEntity
  8
fuselage-bottom plate
  6
ByLayer
 62
  256
370
   -1
100
AcDbLine
 10
5.125000000000375
 20
12.12500064732454
 11
5.125000000000375
 21
13.87499935267546
  0
LINE
  5
B8
100
AcDbEntity
  8
fuselage-bottom plate
  6
ByLayer
 62
  256
370
   -1
100
AcDbLine
 10
-5.125000000000375
 20
12.12500064732454
 11
-5.125000000000375
 21
13.87499935267546
  0
ARC
  5
B9
100
AcDbEntity
  8
fuselage-bottom plate
  6
ByLayer
 62
  256
370
   -1
100
AcDbCircle
 10
4.375000000000654
 20
21.875
 40
0.75
100
AcDbArc
 50
359.9999505480478
 51
180
  0
ARC
  5
BA
100
AcDbEntity
  8
fuselage-bottom plate
  6
ByLayer
 62
  256
370
   -1
100
AcDbCircle
 10
-4.375000000000654
 20
21.875
 40
0.75
100
AcDbArc
 50
360
 51
180.0000494519522
  0
LINE
  5
BB
100
AcDbEntity
  8
fuselage-bottom plate
  6
ByLayer
 62
  256
370
   -1
100
AcDbLine
 10
-3.625000000002681
 20
21.87500000000001
 11
3.625000000001307
 21
21.875
  0
ARC
  5
BC
100
AcDbEntity
  8
fuselage-bottom plate
  6
ByLayer
 62
  256
370
   -1
100
AcDbCircle
 10
4.375000000000654
 20
20.125
 40
0.75
100
AcDbArc
 50
180
 51
4.945195220498345e-005
  0
ARC
  5
BD
100
AcDbEntity
  8
fuselage-bottom plate
  6
ByLayer
 62
  256
370
   -1
100
AcDbCircle
 10
-4.375000000000654
 20
20.125
 40
0.75
100
AcDbArc
 50
179.9999505480478
 51
360
  0
LINE
  5
BE
100
AcDbEntity
  8
fuselage-bottom plate
  6
ByLayer
 62
  256
370
   -1
100
AcDbLine
 10
-3.625000000002681
 20
20.12499999999999
 11
3.625000000001305
 21
20.125
  0
LINE
  5
BF
100
AcDbEntity
  8
fuselage-bottom plate
  6
ByLayer
 62
  256
370
   -1
100
AcDbLine
 10
5.125000000000375
 20
20.12500064732454
 11
5.125000000000375
 21
21.87499935267546
  0
LINE
  5
C0
100
AcDbEntity
  8
fuselage-bottom plate
  6
ByLayer
 62
  256
370
   -1
100
AcDbLine
 10
-5.125000000000375
 20
20.12500064732454
 11
-5.125000000000375
 21
21.87499935267546
  0
ARC
  5
C1
100
AcDbEntity
  8
fuselage-bottom plate
  6
ByLayer
 62
  256
370
   -1
100
AcDbCircle
 10
4.375000000000654
 20
5.875000000000014
 40
0.75
100
AcDbArc
 50
359.9999505480478
 51
180
  0
ARC
  5
C2
100
AcDbEntity
  8
fuselage-bottom plate
  6
ByLayer
 62
  256
370
   -1
100
AcDbCircle
 10
-4.375000000000654
 20
5.875000000000014
 40
0.75
100
AcDbArc
 50
360
 51
180.0000494519522
  0
LINE
  5
C3
100
AcDbEntity
  8
fuselage-bottom plate
  6
ByLayer
 62
  256
370
   -1
100
AcDbLine
 10
-3.625000000002681
 20
5.875000000000028
 11
3.625000000001307
 21
5.875000000000014
  0
ARC
  5
C4
100
AcDbEntity
  8
fuselage-bottom plate
  6
ByLayer
 62
  256
370
   -1
100
AcDbCircle
 10
4.375000000000654
 20
4.125000000000014
 40
0.75
100
AcDbArc
 50
180
 51
4.945195220498345e-005
  0
ARC
  5
C5
100
AcDbEntity
  8
fuselage-bottom plate
  6
ByLayer
 62
  256
370
   -1
100
AcDbCircle
 10
-4.375000000000654
 20
4.125000000000014
 40
0.75
100
AcDbArc
 50
179.9999505480478
 51
360
  0
LINE
  5
C6
100
AcDbEntity
  8
fuselage-bottom plate
  6
ByLayer
 62
  256
370
   -1
100
AcDbLine
 10
-3.625000000002681
 20
4.125
 11
3.625000000001305
 21
4.125000000000014
  0
LINE
  5
C7
100
AcDbEntity
  8
fuselage-bottom plate
  6
ByLayer
 62
  256
370
   -1
100
AcDbLine
 10
5.125000000000375
 20
4.125000647324555
 11
5.125000000000375
 21
5.874999352675474
  0
LINE
  5
C8
100
AcDbEntity
  8
fuselage-bottom plate
  6
ByLayer
 62
  256
370
   -1
100
AcDbLine
 10
-5.125000000000375
 20
4.125000647324555
 11
-5.125000000000375
 21
5.874999352675474
  0
LINE
  5
C9
100
AcDbEntity
  8
fuselage-bottom plate
  6
ByLayer
 62
  256
370
   -1
100
AcDbLine
 10
8.5
 20
232
 11
8.5
 21
230.25
  0
LINE
  5
CA
100
AcDbEntity
  8
fuselage-bottom plate
  6
ByLayer
 62
  256
370
   -1
100
AcDbLine
 10
14
 20
234.625
 11
15.75
 21
234.625
  0
LINE
  5
CB
100
AcDbEntity
  8
fuselage-bottom plate
  6
ByLayer
 62
  256
370
   -1
100
AcDbLine
 10
14
 20
227.625
 11
15.75
 21
227.625
  0
LINE
  5
CC
100
AcDbEntity
  8
fuselage-bottom plate
  6
ByLayer
 62
  256
370
   -1
100
AcDbLine
 10
10.24999999999956
 20
232
 11
14
 21
232
  0
LINE
  5
CD
100
AcDbEntity
  8
fuselage-bottom plate
  6
ByLayer
 62
  256
370
   -1
100
AcDbLine
 10
13.99999999999999
 20
232.8750000000001
 11
14
 21
232
  0
ARC
  5
CE
100
AcDbEntity
  8
fuselage-bottom plate
  6
ByLayer
 62
  256
370
   -1
100
AcDbCircle
 10
14
 20
233.75
 40
0.8749999999996163
100
AcDbArc
 50
89.99999999999977
 51
269.9999999999998
  0
ARC
  5
CF
100
AcDbEntity
  8
fuselage-bottom plate
  6
ByLayer
 62
  256
370
   -1
100
AcDbCircle
 10
9.37499999999978
 20
232
 40
0.8749999999997797
100
AcDbArc
 50
359.9999999999991
 51
540.0000000000009
  0
ARC
  5
D0
100
AcDbEntity
  8
fuselage-bottom plate
  6
ByLayer
 62
  256
370
   -1
100
AcDbCircle
 10
9.37499999999978
 20
230.25
 40
0.8749999999997797
100
AcDbArc
 50
179.9999999999991
 51
9.159997482614929e-013
  0
ARC
  5
D1
100
AcDbEntity
  8
fuselage-bottom plate
  6
ByLayer
 62
  256
370
   -1
100
AcDbCircle
 10
15.75
 20
233.75
 40
0.8749999999996163
100
AcDbArc
 50
270.0000000000002
 51
90.0000000000002
  0
ARC
  5
D2
100
AcDbEntity
  8
fuselage-bottom plate
  6
ByLayer
 62
  256
370
   -1
100
AcDbCircle
 10
14
 20
228.5
 40
0.8749999999996163
100
AcDbArc
 50
90.00000000000026
 51
270.0000000000002
  0
ARC
  5
D3
100
AcDbEntity
  8
fuselage-bottom plate
  6
ByLayer
 62
  256
370
   -1
100
AcDbCircle
 10
15.75
 20
228.5
 40
0.8749999999996163
100
AcDbArc
 50
269.9999999999998
 51
89.99999999999974
  0
LINE
  5
D4
100
AcDbEntity
  8
fuselage-bottom plate
  6
ByLayer
 62
  256
370
   -1
100
AcDbLine
 10
14
 20
230.25
 11
14
 21
229.374999999999
  0
LINE
  5
D5
100
AcDbEntity
  8
fuselage-bottom plate
  6
ByLayer
 62
  256
370
   -1
100
AcDbLine
 10
15.75
 20
232.8749999999977
 11
15.75
 21
229.3749999999992
  0
LINE
  5
D6
100
AcDbEntity
  8
fuselage-bottom plate
  6
ByLayer
 62
  256
370
   -1
100
AcDbLine
 10
10.25000000000096
 20
230.25
 11
14
 21
230.25
  0
LINE
  5
D7
100
AcDbEntity
  8
fuselage-bottom plate
  6
ByLayer
 62
  256
370
   -1
100
AcDbLine
 10
-8.5
 20
232
 11
-8.5
 21
230.25
  0
LINE
  5
D8
100
AcDbEntity
  8
fuselage-bottom plate
  6
ByLayer
 62
  256
370
   -1
100
AcDbLine
 10
-14
 20
234.625
 11
-15.75
 21
234.625
  0
LINE
  5
D9
100
AcDbEntity
  8
fuselage-bottom plate
  6
ByLayer
 62
  256
370
   -1
100
AcDbLine
 10
-14
 20
227.625
 11
-15.75
 21
227.625
  0
LINE
  5
DA
100
AcDbEntity
  8
fuselage-bottom plate
  6
ByLayer
 62
  256
370
   -1
100
AcDbLine
 10
-10.24999999999956
 20
232
 11
-14
 21
232
  0
LINE
  5
DB
100
AcDbEntity
  8
fuselage-bottom plate
  6
ByLayer
 62
  256
370
   -1
100
AcDbLine
 10
-13.99999999999999
 20
232.8750000000001
 11
-14
 21
232
  0
ARC
  5
DC
100
AcDbEntity
  8
fuselage-bottom plate
  6
ByLayer
 62
  256
370
   -1
100
AcDbCircle
 10
-14
 20
233.75
 40
0.8749999999996163
100
AcDbArc
 50
270.0000000000002
 51
90.0000000000002
  0
ARC
  5
DD
100
AcDbEntity
  8
fuselage-bottom plate
  6
ByLayer
 62
  256
370
   -1
100
AcDbCircle
 10
-9.37499999999978
 20
232
 40
0.8749999999997797
100
AcDbArc
 50
359.9999999999991
 51
180.0000000000009
  0
ARC
  5
DE
100
AcDbEntity
  8
fuselage-bottom plate
  6
ByLayer
 62
  256
370
   -1
100
AcDbCircle
 10
-9.37499999999978
 20
230.25
 40
0.8749999999997797
100
AcDbArc
 50
179.9999999999991
 51
9.159997482614929e-013
  0
ARC
  5
DF
100
AcDbEntity
  8
fuselage-bottom plate
  6
ByLayer
 62
  256
370
   -1
100
AcDbCircle
 10
-15.75
 20
233.75
 40
0.8749999999996163
100
AcDbArc
 50
89.9999999999998
 51
269.9999999999998
  0
ARC
  5
E0
100
AcDbEntity
  8
fuselage-bottom plate
  6
ByLayer
 62
  256
370
   -1
100
AcDbCircle
 10
-14
 20
228.5
 40
0.8749999999996163
100
AcDbArc
 50
269.9999999999998
 51
89.99999999999974
  0
ARC
  5
E1
100
AcDbEntity
  8
fuselage-bottom plate
  6
ByLayer
 62
  256
370
   -1
100
AcDbCircle
 10
-15.75
 20
228.5
 40
0.8749999999996163
100
AcDbArc
 50
90.00000000000026
 51
270.0000000000002
  0
LINE
  5
E2
100
AcDbEntity
  8
fuselage-bottom plate
  6
ByLayer
 62
  256
370
   -1
100
AcDbLine
 10
-14
 20
230.25
 11
-14
 21
229.374999999999
  0
LINE
  5
E3
100
AcDbEntity
  8
fuselage-bottom plate
  6
ByLayer
 62
  256
370
   -1
100
AcDbLine
 10
-15.75
 20
232.8749999999977
 11
-15.75
 21
229.3749999999992
  0
LINE
  5
E4
100
AcDbEntity
  8
fuselage-bottom plate
  6
ByLayer
 62
  256
370
   -1
100
AcDbLine
 10
-10.25000000000096
 20
230.25
 11
-14
 21
230.25
  0
CIRCLE
  5
E5
100
AcDbEntity
  8
fuselage-bottom plate
  6
ByLayer
 62
  256
370
   -1
100
AcDbCircle
 10
17.5
 20
242
 40
1.5
  0
CIRCLE
  5
E6
100
AcDbEntity
  8
fuselage-bottom plate
  6
ByLayer
 62
  256
370
   -1
100
AcDbCircle
 10
-17.5
 20
242
 40
1.5
  0
ARC
  5
E7
100
AcDbEntity
  8
fuselage-bottom plate
  6
ByLayer
 62
  256
370
   -1
100
AcDbCircle
 10
-18.50000000000002
 20
245.6642838216367
 40
3
100
AcDbArc
 50
108.9390048777084
 51
180
  0
ARC
  5
E8
100
AcDbEntity
  8
fuselage-bottom plate
  6
ByLayer
 62
  256
370
   -1
100
AcDbCircle
 10
-15.49999999999999
 20
5.147926201464415
 40
3
100
AcDbArc
 50
180
 51
254.2208650173368
  0
LINE
  5
E9
100
AcDbEntity
  8
fuselage-bottom plate
  6
ByLayer
 62
  256
370
   -1
100
AcDbLine
 10
-18.5
 20
19.75735931288072
 11
-18.5
 21
5.147926201464415
  0
ARC
  5
EA
100
AcDbEntity
  8
fuselage-bottom plate
  6
ByLayer
 62
  256
370
   -1
100
AcDbCircle
 10
-21.5
 20
19.75735931288072
 40
3
100
AcDbArc
 50
0
 51
45.00000000000009
  0
LINE
  5
EB
100
AcDbEntity
  8
fuselage-bottom plate
  6
ByLayer
 62
  256
370
   -1
100
AcDbLine
 10
-20.62132034355964
 20
23.12132034355965
 11
-19.37867965644036
 21
21.87867965644037
  0
LINE
  5
EC
100
AcDbEntity
  8
fuselage-bottom plate
  6
ByLayer
 62
  256
370
   -1
100
AcDbLine
 10
-21.50000000000001
 20
245.6642838216367
 11
-21.5
 21
25.24264068711931
  0
ARC
  5
ED
100
AcDbEntity
  8
fuselage-bottom plate
  6
ByLayer
 62
  256
370
   -1
100
AcDbCircle
 10
-18.5
 20
25.24264068711929
 40
3
100
AcDbArc
 50
179.9999999999997
 51
225.0000000000001
  0
LINE
  5
EE
100
AcDbEntity
  8
fuselage-bottom plate
  6
ByLayer
 62
  256
370
   -1
100
AcDbLine
 10
-4.375
 20
247
 11
-4.375
 21
245.25
  0
LINE
  5
EF
100
AcDbEntity
  8
fuselage-bottom plate
  6
ByLayer
 62
  256
370
   -1
100
AcDbLine
 10
-11.625
 20
247
 11
-11.625
 21
245.25
  0
LINE
  5
F0
100
AcDbEntity
  8
fuselage-bottom plate
  6
ByLayer
 62
  256
370
   -1
100
AcDbLine
 10
-6.125000000001818
 20
247
 11
-9.87499999999778
 21
247
  0
ARC
  5
F1
100
AcDbEntity
  8
fuselage-bottom plate
  6
ByLayer
 62
  256
370
   -1
100
AcDbCircle
 10
-5.250000000000598
 20
247
 40
0.8750000000005977
100
AcDbArc
 50
9.305358770791191e-013
 51
179.9999999999982
  0
ARC
  5
F2
100
AcDbEntity
  8
fuselage-bottom plate
  6
ByLayer
 62
  256
370
   -1
100
AcDbCircle
 10
-10.75000000000011
 20
247
 40
0.8749999999998943
100
AcDbArc
 50
0
 51
180
  0
LINE
  5
F3
100
AcDbEntity
  8
fuselage-bottom plate
  6
ByLayer
 62
  256
370
   -1
100
AcDbLine
 10
-6.125000000001818
 20
245.25
 11
-9.87499999999778
 21
245.25
  0
ARC
  5
F4
100
AcDbEntity
  8
fuselage-bottom plate
  6
ByLayer
 62
  256
370
   -1
100
AcDbCircle
 10
-5.250000000000598
 20
245.25
 40
0.8750000000005977
100
AcDbArc
 50
180.0000000000018
 51
359.9999999999991
  0
ARC
  5
F5
100
AcDbEntity
  8
fuselage-bottom plate
  6
ByLayer
 62
  256
370
   -1
100
AcDbCircle
 10
-10.75000000000011
 20
245.25
 40
0.8749999999998943
100
AcDbArc
 50
180
 51
0
  0
LINE
  5
F6
100
AcDbEntity
  8
fuselage-bottom plate
  6
ByLayer
 62
  256
370
   -1
100
AcDbLine
 10
4.375
 20
247
 11
4.375
 21
245.25
  0
LINE
  5
F7
100
AcDbEntity
  8
fuselage-bottom plate
  6
ByLayer
 62
  256
370
   -1
100
AcDbLine
 10
11.625
 20
247
 11
11.625
 21
245.25
  0
LINE
  5
F8
100
AcDbEntity
  8
fuselage-bottom plate
  6
ByLayer
 62
  256
370
   -1
100
AcDbLine
 10
6.125000000001818
 20
247
 11
9.87499999999778
 21
247
  0
ARC
  5
F9
100
AcDbEntity
  8
fuselage-bottom plate
  6
ByLayer
 62
  256
370
   -1
100
AcDbCircle
 10
5.250000000000598
 20
247
 40
0.8750000000005977
100
AcDbArc
 50
1.831999496522986e-012
 51
179.9999999999991
  0
ARC
  5
FA
100
AcDbEntity
  8
fuselage-bottom plate
  6
ByLayer
 62
  256
370
   -1
100
AcDbCircle
 10
10.75000000000011
 20
247
 40
0.8749999999998943
100
AcDbArc
 50
360
 51
180
  0
LINE
  5
FB
100
AcDbEntity
  8
fuselage-bottom plate
  6
ByLayer
 62
  256
370
   -1
100
AcDbLine
 10
6.125000000001818
 20
245.25
 11
9.87499999999778
 21
245.25
  0
ARC
  5
FC
100
AcDbEntity
  8
fuselage-bottom plate
  6
ByLayer
 62
  256
370
   -1
100
AcDbCircle
 10
5.250000000000598
 20
245.25
 40
0.8750000000005977
100
AcDbArc
 50
180.0000000000009
 51
359.9999999999982
  0
ARC
  5
FD
100
AcDbEntity
  8
fuselage-bottom plate
  6
ByLayer
 62
  256
370
   -1
100
AcDbCircle
 10
10.75000000000011
 20
245.25
 40
0.8749999999998943
100
AcDbArc
 50
180
 51
360
  0
ARC
  5
FE
100
AcDbEntity
  8
fuselage-bottom plate
  6
ByLayer
 62
  256
370
   -1
100
AcDbCircle
 10
-1.179611963664229e-016
 20
191.75
 40
60
100
AcDbArc
 50
71.06099512229154
 51
108.9390048777085
  0
ARC
  5
FF
100
AcDbEntity
  8
fuselage-bottom plate
  6
ByLayer
 62
  256
370
   -1
100
AcDbCircle
 10
18.50000000000001
 20
245.6642838216367
 40
3
100
AcDbArc
 50
0
 51
71.06099512229163
  0
ARC
  5
100
100
AcDbEntity
  8
fuselage-bottom plate
  6
ByLayer
 62
  256
370
   -1
100
AcDbCircle
 10
1.35308431126191e-016
 20
60.00000000000003
 40
60
100
AcDbArc
 50
254.220865017337
 51
285.779134982663
  0
ARC
  5
101
100
AcDbEntity
  8
fuselage-bottom plate
  6
ByLayer
 62
  256
370
   -1
100
AcDbCircle
 10
15.5
 20
5.147926201464391
 40
3
100
AcDbArc
 50
285.7791349826629
 51
359.9999999999999
  0
LINE
  5
102
100
AcDbEntity
  8
fuselage-bottom plate
  6
ByLayer
 62
  256
370
   -1
100
AcDbLine
 10
18.5
 20
19.75735931288072
 11
18.5
 21
5.147926201464388
  0
ARC
  5
103
100
AcDbEntity
  8
fuselage-bottom plate
  6
ByLayer
 62
  256
370
   -1
100
AcDbCircle
 10
21.5
 20
19.75735931288072
 40
3
100
AcDbArc
 50
134.9999999999999
 51
180
  0
LINE
  5
104
100
AcDbEntity
  8
fuselage-bottom plate
  6
ByLayer
 62
  256
370
   -1
100
AcDbLine
 10
20.62132034355964
 20
23.12132034355964
 11
19.37867965644036
 21
21.87867965644036
  0
LINE
  5
105
100
AcDbEntity
  8
fuselage-bottom plate
  6
ByLayer
 62
  256
370
   -1
100
AcDbLine
 10
21.5
 20
25.24264068711928
 11
21.5
 21
245.6642838216367
  0
ARC
  5
106
100
AcDbEntity
  8
fuselage-bottom plate
  6
ByLayer
 62
  256
370
   -1
100
AcDbCircle
 10
18.5
 20
25.24264068711928
 40
3
100
AcDbArc
 50
315
 51
0
  0
CIRCLE
  5
107
100
AcDbEntity
  8
fuselage-top plate
  6
ByLayer
 62
  256
370
   -1
100
AcDbCircle
 10
-1.179611963664229e-016
 20
192
 40
1.5
  0
ARC
  5
108
100
AcDbEntity
  8
fuselage-top plate
  6
ByLayer
 62
  256
370
   -1
100
AcDbCircle
 10
-11
 20
142
 40
1.5
100
AcDbArc
 50
180
 51
270
  0
LINE
  5
109
100
AcDbEntity
  8
fuselage-top plate
  6
ByLayer
 62
  256
370
   -1
100
AcDbLine
 10
-11
 20
140.5
 11
-11
 21
140.5
  0
ARC
  5
10A
100
AcDbEntity
  8
fuselage-top plate
  6
ByLayer
 62
  256
370
   -1
100
AcDbCircle
 10
-11
 20
142
 40
1.5
100
AcDbArc
 50
270
 51
0
  0
LINE
  5
10B
100
AcDbEntity
  8
fuselage-top plate
  6
ByLayer
 62
  256
370
   -1
100
AcDbLine
 10
-12.5
 20
182
 11
-12.5
 21
142
  0
ARC
  5
10C
100
AcDbEntity
  8
fuselage-top plate
  6
ByLayer
 62
  256
370
   -1
100
AcDbCircle
 10
-11
 20
182
 40
1.5
100
AcDbArc
 50
90
 51
179.9999999999997
  0
LINE
  5
10D
100
AcDbEntity
  8
fuselage-top plate
  6
ByLayer
 62
  256
370
   -1
100
AcDbLine
 10
-11
 20
183.5
 11
-11
 21
183.5
  0
LINE
  5
10E
100
AcDbEntity
  8
fuselage-top plate
  6
ByLayer
 62
  256
370
   -1
100
AcDbLine
 10
-9.5
 20
182
 11
-9.5
 21
142
  0
ARC
  5
10F
100
AcDbEntity
  8
fuselage-top plate
  6
ByLayer
 62
  256
370
   -1
100
AcDbCircle
 10
-11
 20
182
 40
1.5
100
AcDbArc
 50
0
 51
90
  0
ARC
  5
110
100
AcDbEntity
  8
fuselage-top plate
  6
ByLayer
 62
  256
370
   -1
100
AcDbCircle
 10
11
 20
182
 40
1.5
100
AcDbArc
 50
359.9999999999997
 51
90
  0
LINE
  5
111
100
AcDbEntity
  8
fuselage-top plate
  6
ByLayer
 62
  256
370
   -1
100
AcDbLine
 10
11
 20
183.5
 11
11
 21
183.5
  0
ARC
  5
112
100
AcDbEntity
  8
fuselage-top plate
  6
ByLayer
 62
  256
370
   -1
100
AcDbCircle
 10
11
 20
182
 40
1.5
100
AcDbArc
 50
90
 51
180
  0
LINE
  5
113
100
AcDbEntity
  8
fuselage-top plate
  6
ByLayer
 62
  256
370
   -1
100
AcDbLine
 10
9.5
 20
182
 11
9.5
 21
142
  0
ARC
  5
114
100
AcDbEntity
  8
fuselage-top plate
  6
ByLayer
 62
  256
370
   -1
100
AcDbCircle
 10
11
 20
142
 40
1.5
100
AcDbArc
 50
180
 51
270
  0
LINE
  5
115
100
AcDbEntity
  8
fuselage-top plate
  6
ByLayer
 62
  256
370
   -1
100
AcDbLine
 10
12.5
 20
182
 11
12.5
 21
142
  0
LINE
  5
116
100
AcDbEntity
  8
fuselage-top plate
  6
ByLayer
 62
  256
370
   -1
100
AcDbLine
 10
11
 20
140.5
 11
11
 21
140.5
  0
ARC
  5
117
100
AcDbEntity
  8
fuselage-top plate
  6
ByLayer
 62
  256
370
   -1
100
AcDbCircle
 10
11
 20
142
 40
1.5
100
AcDbArc
 50
270
 51
0
  0
ARC
  5
118
100
AcDbEntity
  8
fuselage-top plate
  6
ByLayer
 62
  256
370
   -1
100
AcDbCircle
 10
-11
 20
82
 40
1.5
100
AcDbArc
 50
180
 51
270
  0
LINE
  5
119
100
AcDbEntity
  8
fuselage-top plate
  6
ByLayer
 62
  256
370
   -1
100
AcDbLine
 10
-11
 20
80.5
 11
-11
 21
80.5
  0
ARC
  5
11A
100
AcDbEntity
  8
fuselage-top plate
  6
ByLayer
 62
  256
370
   -1
100
AcDbCircle
 10
-11
 20
82
 40
1.5
100
AcDbArc
 50
270
 51
0
  0
LINE
  5
11B
100
AcDbEntity
  8
fuselage-top plate
  6
ByLayer
 62
  256
370
   -1
100
AcDbLine
 10
-12.5
 20
122
 11
-12.5
 21
82
  0
ARC
  5
11C
100
AcDbEntity
  8
fuselage-top plate
  6
ByLayer
 62
  256
370
   -1
100
AcDbCircle
 10
-11
 20
122
 40
1.5
100
AcDbArc
 50
90
 51
179.9999999999997
  0
LINE
  5
11D
100
AcDbEntity
  8
fuselage-top plate
  6
ByLayer
 62
  256
370
   -1
100
AcDbLine
 10
-11
 20
123.5
 11
-11
 21
123.5
  0
LINE
  5
11E
100
AcDbEntity
  8
fuselage-top plate
  6
ByLayer
 62
  256
370
   -1
100
AcDbLine
 10
-9.5
 20
122
 11
-9.5
 21
82
  0
ARC
  5
11F
100
AcDbEntity
  8
fuselage-top plate
  6
ByLayer
 62
  256
370
   -1
100
AcDbCircle
 10
-11
 20
122
 40
1.5
100
AcDbArc
 50
0
 51
90
  0
ARC
  5
120
100
AcDbEntity
  8
fuselage-top plate
  6
ByLayer
 62
  256
370
   -1
100
AcDbCircle
 10
11
 20
122
 40
1.5
100
AcDbArc
 50
359.9999999999997
 51
90
  0
LINE
  5
121
100
AcDbEntity
  8
fuselage-top plate
  6
ByLayer
 62
  256
370
   -1
100
AcDbLine
 10
11
 20
123.5
 11
11
 21
123.5
  0
ARC
  5
122
100
AcDbEntity
  8
fuselage-top plate
  6
ByLayer
 62
  256
370
   -1
100
AcDbCircle
 10
11
 20
122
 40
1.5
100
AcDbArc
 50
90
 51
180
  0
LINE
  5
123
100
AcDbEntity
  8
fuselage-top plate
  6
ByLayer
 62
  256
370
   -1
100
AcDbLine
 10
9.5
 20
122
 11
9.5
 21
82
  0
ARC
  5
124
100
AcDbEntity
  8
fuselage-top plate
  6
ByLayer
 62
  256
370
   -1
100
AcDbCircle
 10
11
 20
82
 40
1.5
100
AcDbArc
 50
180
 51
270
  0
LINE
  5
125
100
AcDbEntity
  8
fuselage-top plate
  6
ByLayer
 62
  256
370
   -1
100
AcDbLine
 10
12.5
 20
122
 11
12.5
 21
82
  0
LINE
  5
126
100
AcDbEntity
  8
fuselage-top plate
  6
ByLayer
 62
  256
370
   -1
100
AcDbLine
 10
11
 20
80.5
 11
11
 21
80.5
  0
ARC
  5
127
100
AcDbEntity
  8
fuselage-top plate
  6
ByLayer
 62
  256
370
   -1
100
AcDbCircle
 10
11
 20
82
 40
1.5
100
AcDbArc
 50
270
 51
0
  0
ARC
  5
128
100
AcDbEntity
  8
fuselage-top plate
  6
ByLayer
 62
  256
370
   -1
100
AcDbCircle
 10
11
 20
62
 40
1.5
100
AcDbArc
 50
359.9999999999997
 51
90
  0
LINE
  5
129
100
AcDbEntity
  8
fuselage-top plate
  6
ByLayer
 62
  256
370
   -1
100
AcDbLine
 10
11
 20
63.5
 11
11
 21
63.5
  0
ARC
  5
12A
100
AcDbEntity
  8
fuselage-top plate
  6
ByLayer
 62
  256
370
   -1
100
AcDbCircle
 10
11
 20
62
 40
1.5
100
AcDbArc
 50
90
 51
180
  0
LINE
  5
12B
100
AcDbEntity
  8
fuselage-top plate
  6
ByLayer
 62
  256
370
   -1
100
AcDbLine
 10
12.5
 20
62
 11
12.5
 21
32
  0
LINE
  5
12C
100
AcDbEntity
  8
fuselage-top plate
  6
ByLayer
 62
  256
370
   -1
100
AcDbLine
 10
9.5
 20
62
 11
9.5
 21
32
  0
ARC
  5
12D
100
AcDbEntity
  8
fuselage-top plate
  6
ByLayer
 62
  256
370
   -1
100
AcDbCircle
 10
11
 20
32
 40
1.5
100
AcDbArc
 50
180
 51
270
  0
ARC
  5
12E
100
AcDbEntity
  8
fuselage-top plate
  6
ByLayer
 62
  256
370
   -1
100
AcDbCircle
 10
11
 20
32
 40
1.5
100
AcDbArc
 50
270
 51
0
  0
ARC
  5
12F
100
AcDbEntity
  8
fuselage-top plate
  6
ByLayer
 62
  256
370
   -1
100
AcDbCircle
 10
-11
 20
62
 40
1.5
100
AcDbArc
 50
90
 51
180.0000000000003
  0
LINE
  5
130
100
AcDbEntity
  8
fuselage-top plate
  6
ByLayer
 62
  256
370
   -1
100
AcDbLine
 10
-11
 20
63.5
 11
-11
 21
63.5
  0
ARC
  5
131
100
AcDbEntity
  8
fuselage-top plate
  6
ByLayer
 62
  256
370
   -1
100
AcDbCircle
 10
-11
 20
62
 40
1.5
100
AcDbArc
 50
360
 51
90
  0
LINE
  5
132
100
AcDbEntity
  8
fuselage-top plate
  6
ByLayer
 62
  256
370
   -1
100
AcDbLine
 10
-12.5
 20
62
 11
-12.5
 21
32
  0
LINE
  5
133
100
AcDbEntity
  8
fuselage-top plate
  6
ByLayer
 62
  256
370
   -1
100
AcDbLine
 10
-9.5
 20
62
 11
-9.5
 21
32
  0
ARC
  5
134
100
AcDbEntity
  8
fuselage-top plate
  6
ByLayer
 62
  256
370
   -1
100
AcDbCircle
 10
-11
 20
32
 40
1.5
100
AcDbArc
 50
270
 51
360
  0
ARC
  5
135
100
AcDbEntity
  8
fuselage-top plate
  6
ByLayer
 62
  256
370
   -1
100
AcDbCircle
 10
-11
 20
32
 40
1.5
100
AcDbArc
 50
180
 51
270
  0
CIRCLE
  5
136
100
AcDbEntity
  8
fuselage-top plate
  6
ByLayer
 62
  256
370
   -1
100
AcDbCircle
 10
17.5
 20
182
 40
1.5
  0
CIRCLE
  5
137
100
AcDbEntity
  8
fuselage-top plate
  6
ByLayer
 62
  256
370
   -1
100
AcDbCircle
 10
17.5
 20
142
 40
1.5
  0
CIRCLE
  5
138
100
AcDbEntity
  8
fuselage-top plate
  6
ByLayer
 62
  256
370
   -1
100
AcDbCircle
 10
17.5
 20
122
 40
1.5
  0
CIRCLE
  5
139
100
AcDbEntity
  8
fuselage-top plate
  6
ByLayer
 62
  256
370
   -1
100
AcDbCircle
 10
17.5
 20
82
 40
1.5
  0
CIRCLE
  5
13A
100
AcDbEntity
  8
fuselage-top plate
  6
ByLayer
 62
  256
370
   -1
100
AcDbCircle
 10
17.5
 20
132
 40
1.5
  0
CIRCLE
  5
13B
100
AcDbEntity
  8
fuselage-top plate
  6
ByLayer
 62
  256
370
   -1
100
AcDbCircle
 10
17.5
 20
62
 40
1.5
  0
CIRCLE
  5
13C
100
AcDbEntity
  8
fuselage-top plate
  6
ByLayer
 62
  256
370
   -1
100
AcDbCircle
 10
17.5
 20
32
 40
1.5
  0
CIRCLE
  5
13D
100
AcDbEntity
  8
fuselage-top plate
  6
ByLayer
 62
  256
370
   -1
100
AcDbCircle
 10
17.5
 20
72
 40
1.5
  0
CIRCLE
  5
13E
100
AcDbEntity
  8
fuselage-top plate
  6
ByLayer
 62
  256
370
   -1
100
AcDbCircle
 10
-17.5
 20
182
 40
1.5
  0
CIRCLE
  5
13F
100
AcDbEntity
  8
fuselage-top plate
  6
ByLayer
 62
  256
370
   -1
100
AcDbCircle
 10
-17.5
 20
142
 40
1.5
  0
CIRCLE
  5
140
100
AcDbEntity
  8
fuselage-top plate
  6
ByLayer
 62
  256
370
   -1
100
AcDbCircle
 10
-17.5
 20
122
 40
1.5
  0
CIRCLE
  5
141
100
AcDbEntity
  8
fuselage-top plate
  6
ByLayer
 62
  256
370
   -1
100
AcDbCircle
 10
-17.5
 20
82
 40
1.5
  0
CIRCLE
  5
142
100
AcDbEntity
  8
fuselage-top plate
  6
ByLayer
 62
  256
370
   -1
100
AcDbCircle
 10
-17.5
 20
132
 40
1.5
  0
CIRCLE
  5
143
100
AcDbEntity
  8
fuselage-top plate
  6
ByLayer
 62
  256
370
   -1
100
AcDbCircle
 10
-17.5
 20
62
 40
1.5
  0
CIRCLE
  5
144
100
AcDbEntity
  8
fuselage-top plate
  6
ByLayer
 62
  256
370
   -1
100
AcDbCircle
 10
-17.5
 20
32
 40
1.5
  0
CIRCLE
  5
145
100
AcDbEntity
  8
fuselage-top plate
  6
ByLayer
 62
  256
370
   -1
100
AcDbCircle
 10
-17.5
 20
72
 40
1.5
  0
CIRCLE
  5
146
100
AcDbEntity
  8
fuselage-top plate
  6
ByLayer
 62
  256
370
   -1
100
AcDbCircle
 10
9
 20
17
 40
1.5
  0
CIRCLE
  5
147
100
AcDbEntity
  8
fuselage-top plate
  6
ByLayer
 62
  256
370
   -1
100
AcDbCircle
 10
-9
 20
17
 40
1.5
  0
CIRCLE
  5
148
100
AcDbEntity
  8
fuselage-top plate
  6
ByLayer
 62
  256
370
   -1
100
AcDbCircle
 10
9
 20
9
 40
1.5
  0
CIRCLE
  5
149
100
AcDbEntity
  8
fuselage-top plate
  6
ByLayer
 62
  256
370
   -1
100
AcDbCircle
 10
-9
 20
9
 40
1.5
  0
ARC
  5
14A
100
AcDbEntity
  8
fuselage-top plate
  6
ByLayer
 62
  256
370
   -1
100
AcDbCircle
 10
4.375000000000654
 20
13.875
 40
0.75
100
AcDbArc
 50
359.9999505480478
 51
180
  0
ARC
  5
14B
100
AcDbEntity
  8
fuselage-top plate
  6
ByLayer
 62
  256
370
   -1
100
AcDbCircle
 10
-4.375000000000654
 20
13.875
 40
0.75
100
AcDbArc
 50
360
 51
180.0000494519522
  0
LINE
  5
14C
100
AcDbEntity
  8
fuselage-top plate
  6
ByLayer
 62
  256
370
   -1
100
AcDbLine
 10
-3.625000000002681
 20
13.87500000000001
 11
3.625000000001307
 21
13.875
  0
ARC
  5
14D
100
AcDbEntity
  8
fuselage-top plate
  6
ByLayer
 62
  256
370
   -1
100
AcDbCircle
 10
4.375000000000654
 20
12.125
 40
0.75
100
AcDbArc
 50
180
 51
4.945195220498345e-005
  0
ARC
  5
14E
100
AcDbEntity
  8
fuselage-top plate
  6
ByLayer
 62
  256
370
   -1
100
AcDbCircle
 10
-4.375000000000654
 20
12.125
 40
0.75
100
AcDbArc
 50
179.9999505480478
 51
360
  0
LINE
  5
14F
100
AcDbEntity
  8
fuselage-top plate
  6
ByLayer
 62
  256
370
   -1
100
AcDbLine
 10
-3.625000000002681
 20
12.12499999999999
 11
3.625000000001305
 21
12.125
  0
LINE
  5
150
100
AcDbEntity
  8
fuselage-top plate
  6
ByLayer
 62
  256
370
   -1
100
AcDbLine
 10
5.125000000000375
 20
12.12500064732454
 11
5.125000000000375
 21
13.87499935267546
  0
LINE
  5
151
100
AcDbEntity
  8
fuselage-top plate
  6
ByLayer
 62
  256
370
   -1
100
AcDbLine
 10
-5.125000000000375
 20
12.12500064732454
 11
-5.125000000000375
 21
13.87499935267546
  0
ARC
  5
152
100
AcDbEntity
  8
fuselage-top plate
  6
ByLayer
 62
  256
370
   -1
100
AcDbCircle
 10
4.375000000000654
 20
21.875
 40
0.75
100
AcDbArc
 50
359.9999505480478
 51
180
  0
ARC
  5
153
100
AcDbEntity
  8
fuselage-top plate
  6
ByLayer
 62
  256
370
   -1
100
AcDbCircle
 10
-4.375000000000654
 20
21.875
 40
0.75
100
AcDbArc
 50
360
 51
180.0000494519522
  0
LINE
  5
154
100
AcDbEntity
  8
fuselage-top plate
  6
ByLayer
 62
  256
370
   -1
100
AcDbLine
 10
-3.625000000002681
 20
21.87500000000001
 11
3.625000000001307
 21
21.875
  0
ARC
  5
155
100
AcDbEntity
  8
fuselage-top plate
  6
ByLayer
 62
  256
370
   -1
100
AcDbCircle
 10
4.375000000000654
 20
20.125
 40
0.75
100
AcDbArc
 50
180
 51
4.945195220498345e-005
  0
ARC
  5
156
100
AcDbEntity
  8
fuselage-top plate
  6
ByLayer
 62
  256
370
   -1
100
AcDbCircle
 10
-4.375000000000654
 20
20.125
 40
0.75
100
AcDbArc
 50
179.9999505480478
 51
360
  0
LINE
  5
157
100
AcDbEntity
  8
fuselage-top plate
  6
ByLayer
 62
  256
370
   -1
100
AcDbLine
 10
-3.625000000002681
 20
20.12499999999999
 11
3.625000000001305
 21
20.125
  0
LINE
  5
158
100
AcDbEntity
  8
fuselage-top plate
  6
ByLayer
 62
  256
370
   -1
100
AcDbLine
 10
5.125000000000375
 20
20.12500064732454
 11
5.125000000000375
 21
21.87499935267546
  0
LINE
  5
159
100
AcDbEntity
  8
fuselage-top plate
  6
ByLayer
 62
  256
370
   -1
100
AcDbLine
 10
-5.125000000000375
 20
20.12500064732454
 11
-5.125000000000375
 21
21.87499935267546
  0
ARC
  5
15A
100
AcDbEntity
  8
fuselage-top plate
  6
ByLayer
 62
  256
370
   -1
100
AcDbCircle
 10
4.375000000000654
 20
5.875000000000014
 40
0.75
100
AcDbArc
 50
359.9999505480478
 51
180
  0
ARC
  5
15B
100
AcDbEntity
  8
fuselage-top plate
  6
ByLayer
 62
  256
370
   -1
100
AcDbCircle
 10
-4.375000000000654
 20
5.875000000000014
 40
0.75
100
AcDbArc
 50
360
 51
180.0000494519522
  0
LINE
  5
15C
100
AcDbEntity
  8
fuselage-top plate
  6
ByLayer
 62
  256
370
   -1
100
AcDbLine
 10
-3.625000000002681
 20
5.875000000000028
 11
3.625000000001307
 21
5.875000000000014
  0
ARC
  5
15D
100
AcDbEntity
  8
fuselage-top plate
  6
ByLayer
 62
  256
370
   -1
100
AcDbCircle
 10
4.375000000000654
 20
4.125000000000014
 40
0.75
100
AcDbArc
 50
180
 51
4.945195220498345e-005
  0
ARC
  5
15E
100
AcDbEntity
  8
fuselage-top plate
  6
ByLayer
 62
  256
370
   -1
100
AcDbCircle
 10
-4.375000000000654
 20
4.125000000000014
 40
0.75
100
AcDbArc
 50
179.9999505480478
 51
360
  0
LINE
  5
15F
100
AcDbEntity
  8
fuselage-top plate
  6
ByLayer
 62
  256
370
   -1
100
AcDbLine
 10
-3.625000000002681
 20
4.125
 11
3.625000000001305
 21
4.125000000000014
  0
LINE
  5
160
100
AcDbEntity
  8
fuselage-top plate
  6
ByLayer
 62
  256
370
   -1
100
AcDbLine
 10
5.125000000000375
 20
4.125000647324555
 11
5.125000000000375
 21
5.874999352675474
  0
LINE
  5
161
100
AcDbEntity
  8
fuselage-top plate
  6
ByLayer
 62
  256
370
   -1
100
AcDbLine
 10
-5.125000000000375
 20
4.125000647324555
 11
-5.125000000000375
 21
5.874999352675474
  0
ARC
  5
162
100
AcDbEntity
  8
fuselage-top plate
  6
ByLayer
 62
  256
370
   -1
100
AcDbCircle
 10
-15.49999999999999
 20
5.147926201464415
 40
3
100
AcDbArc
 50
180
 51
254.2208650173368
  0
LINE
  5
163
100
AcDbEntity
  8
fuselage-top plate
  6
ByLayer
 62
  256
370
   -1
100
AcDbLine
 10
-18.5
 20
19.75735931288072
 11
-18.5
 21
5.147926201464415
  0
ARC
  5
164
100
AcDbEntity
  8
fuselage-top plate
  6
ByLayer
 62
  256
370
   -1
100
AcDbCircle
 10
-21.5
 20
19.75735931288072
 40
3
100
AcDbArc
 50
0
 51
45.00000000000009
  0
LINE
  5
165
100
AcDbEntity
  8
fuselage-top plate
  6
ByLayer
 62
  256
370
   -1
100
AcDbLine
 10
-20.62132034355964
 20
23.12132034355965
 11
-19.37867965644036
 21
21.87867965644037
  0
ARC
  5
166
100
AcDbEntity
  8
fuselage-top plate
  6
ByLayer
 62
  256
370
   -1
100
AcDbCircle
 10
-18.5
 20
25.24264068711929
 40
3
100
AcDbArc
 50
179.9999999999997
 51
225.0000000000001
  0
ARC
  5
167
100
AcDbEntity
  8
fuselage-top plate
  6
ByLayer
 62
  256
370
   -1
100
AcDbCircle
 10
1.35308431126191e-016
 20
60.00000000000003
 40
60
100
AcDbArc
 50
254.220865017337
 51
285.779134982663
  0
ARC
  5
168
100
AcDbEntity
  8
fuselage-top plate
  6
ByLayer
 62
  256
370
   -1
100
AcDbCircle
 10
15.5
 20
5.147926201464391
 40
3
100
AcDbArc
 50
285.7791349826629
 51
359.9999999999999
  0
LINE
  5
169
100
AcDbEntity
  8
fuselage-top plate
  6
ByLayer
 62
  256
370
   -1
100
AcDbLine
 10
18.5
 20
19.75735931288072
 11
18.5
 21
5.147926201464388
  0
ARC
  5
16A
100
AcDbEntity
  8
fuselage-top plate
  6
ByLayer
 62
  256
370
   -1
100
AcDbCircle
 10
21.5
 20
19.75735931288072
 40
3
100
AcDbArc
 50
134.9999999999999
 51
180
  0
LINE
  5
16B
100
AcDbEntity
  8
fuselage-top plate
  6
ByLayer
 62
  256
370
   -1
100
AcDbLine
 10
20.62132034355964
 20
23.12132034355964
 11
19.37867965644036
 21
21.87867965644036
  0
ARC
  5
16C
100
AcDbEntity
  8
fuselage-top plate
  6
ByLayer
 62
  256
370
   -1
100
AcDbCircle
 10
18.5
 20
25.24264068711928
 40
3
100
AcDbArc
 50
315
 51
0
  0
LINE
  5
16D
100
AcDbEntity
  8
fuselage-top plate
  6
ByLayer
 62
  256
370
   -1
100
AcDbLine
 10
-17.24999999999999
 20
195.0310889132455
 11
-13.75
 21
195.0310889132455
  0
LINE
  5
16E
100
AcDbEntity
  8
fuselage-top plate
  6
ByLayer
 62
  256
370
   -1
100
AcDbLine
 10
-13.75
 20
195.0310889132455
 11
-12.00000000000057
 21
192
  0
LINE
  5
16F
100
AcDbEntity
  8
fuselage-top plate
  6
ByLayer
 62
  256
370
   -1
100
AcDbLine
 10
-12.00000000000057
 20
192
 11
-13.75
 21
188.9689110867545
  0
LINE
  5
170
100
AcDbEntity
  8
fuselage-top plate
  6
ByLayer
 62
  256
370
   -1
100
AcDbLine
 10
-13.75
 20
188.9689110867545
 11
-17.25
 21
188.9689110867545
  0
LINE
  5
171
100
AcDbEntity
  8
fuselage-top plate
  6
ByLayer
 62
  256
370
   -1
100
AcDbLine
 10
-17.25
 20
188.9689110867545
 11
-18.99999999999951
 21
192
  0
LINE
  5
172
100
AcDbEntity
  8
fuselage-top plate
  6
ByLayer
 62
  256
370
   -1
100
AcDbLine
 10
-18.99999999999951
 20
192
 11
-17.25000000000037
 21
195.0310889132455
  0
LINE
  5
173
100
AcDbEntity
  8
fuselage-top plate
  6
ByLayer
 62
  256
370
   -1
100
AcDbLine
 10
17.25
 20
195.0310889132456
 11
13.75000000000001
 21
195.0310889132456
  0
LINE
  5
174
100
AcDbEntity
  8
fuselage-top plate
  6
ByLayer
 62
  256
370
   -1
100
AcDbLine
 10
13.75000000000001
 20
195.0310889132456
 11
12.00000000000059
 21
192
  0
LINE
  5
175
100
AcDbEntity
  8
fuselage-top plate
  6
ByLayer
 62
  256
370
   -1
100
AcDbLine
 10
12.00000000000059
 20
192
 11
13.75000000000002
 21
188.9689110867545
  0
LINE
  5
176
100
AcDbEntity
  8
fuselage-top plate
  6
ByLayer
 62
  256
370
   -1
100
AcDbLine
 10
13.75000000000002
 20
188.9689110867545
 11
17.25000000000002
 21
188.9689110867545
  0
LINE
  5
177
100
AcDbEntity
  8
fuselage-top plate
  6
ByLayer
 62
  256
370
   -1
100
AcDbLine
 10
17.25000000000002
 20
188.9689110867545
 11
18.99999999999952
 21
192
  0
LINE
  5
178
100
AcDbEntity
  8
fuselage-top plate
  6
ByLayer
 62
  256
370
   -1
100
AcDbLine
 10
18.99999999999952
 20
192
 11
17.25000000000037
 21
195.0310889132456
  0
LINE
  5
179
100
AcDbEntity
  8
fuselage-top plate
  6
ByLayer
 62
  256
370
   -1
100
AcDbLine
 10
21.5
 20
25.24264068711928
 11
21.5
 21
195
  0
ARC
  5
17A
100
AcDbEntity
  8
fuselage-top plate
  6
ByLayer
 62
  256
370
   -1
100
AcDbCircle
 10
18.5
 20
195
 40
3
100
AcDbArc
 50
0
 51
90
  0
LINE
  5
17B
100
AcDbEntity
  8
fuselage-top plate
  6
ByLayer
 62
  256
370
   -1
100
AcDbLine
 10
-18.50000000000001
 20
198
 11
18.5
 21
198
  0
LINE
  5
17C
100
AcDbEntity
  8
fuselage-top plate
  6
ByLayer
 62
  256
370
   -1
100
AcDbLine
 10
-21.50000000000001
 20
195
 11
-21.5
 21
25.24264068711931
  0
ARC
  5
17D
100
AcDbEntity
  8
fuselage-top plate
  6
ByLayer
 62
  256
370
   -1
100
AcDbCircle
 10
-18.50000000000001
 20
195
 40
3
100
AcDbArc
 50
90.00000000000007
 51
180
  0
ARC
  5
17E
100
AcDbEntity
  8
fuselage-top plate
  6
ByLayer
 62
  256
370
   -1
100
AcDbCircle
 10
-1
 20
162.5
 40
2
100
AcDbArc
 50
90
 51
180
  0
LINE
  5
17F
100
AcDbEntity
  8
fuselage-top plate
  6
ByLayer
 62
  256
370
   -1
100
AcDbLine
 10
-3
 20
162.5
 11
-3
 21
161.5
  0
ARC
  5
180
100
AcDbEntity
  8
fuselage-top plate
  6
ByLayer
 62
  256
370
   -1
100
AcDbCircle
 10
-1
 20
161.5
 40
2
100
AcDbArc
 50
180
 51
270
  0
LINE
  5
181
100
AcDbEntity
  8
fuselage-top plate
  6
ByLayer
 62
  256
370
   -1
100
AcDbLine
 10
-1
 20
164.5
 11
1
 21
164.5
  0
ARC
  5
182
100
AcDbEntity
  8
fuselage-top plate
  6
ByLayer
 62
  256
370
   -1
100
AcDbCircle
 10
1
 20
162.5
 40
2
100
AcDbArc
 50
0
 51
90
  0
LINE
  5
183
100
AcDbEntity
  8
fuselage-top plate
  6
ByLayer
 62
  256
370
   -1
100
AcDbLine
 10
3
 20
162.5
 11
3
 21
161.5
  0
LINE
  5
184
100
AcDbEntity
  8
fuselage-top plate
  6
ByLayer
 62
  256
370
   -1
100
AcDbLine
 10
-1
 20
159.5
 11
1
 21
159.5
  0
ARC
  5
185
100
AcDbEntity
  8
fuselage-top plate
  6
ByLayer
 62
  256
370
   -1
100
AcDbCircle
 10
1
 20
161.5
 40
2
100
AcDbArc
 50
270
 51
0
  0
ARC
  5
186
100
AcDbEntity
  8
fuselage-top plate
  6
ByLayer
 62
  256
370
   -1
100
AcDbCircle
 10
-1
 20
177.5
 40
2
100
AcDbArc
 50
90
 51
180
  0
LINE
  5
187
100
AcDbEntity
  8
fuselage-top plate
  6
ByLayer
 62
  256
370
   -1
100
AcDbLine
 10
-3
 20
177.5
 11
-3
 21
176.5
  0
ARC
  5
188
100
AcDbEntity
  8
fuselage-top plate
  6
ByLayer
 62
  256
370
   -1
100
AcDbCircle
 10
-1
 20
176.5
 40
2
100
AcDbArc
 50
180
 51
270
  0
LINE
  5
189
100
AcDbEntity
  8
fuselage-top plate
  6
ByLayer
 62
  256
370
   -1
100
AcDbLine
 10
-1
 20
179.5
 11
1
 21
179.5
  0
ARC
  5
18A
100
AcDbEntity
  8
fuselage-top plate
  6
ByLayer
 62
  256
370
   -1
100
AcDbCircle
 10
1
 20
177.5
 40
2
100
AcDbArc
 50
0
 51
90
  0
LINE
  5
18B
100
AcDbEntity
  8
fuselage-top plate
  6
ByLayer
 62
  256
370
   -1
100
AcDbLine
 10
3
 20
177.5
 11
3
 21
176.5
  0
LINE
  5
18C
100
AcDbEntity
  8
fuselage-top plate
  6
ByLayer
 62
  256
370
   -1
100
AcDbLine
 10
-1
 20
174.5
 11
1
 21
174.5
  0
ARC
  5
18D
100
AcDbEntity
  8
fuselage-top plate
  6
ByLayer
 62
  256
370
   -1
100
AcDbCircle
 10
1
 20
176.5
 40
2
100
AcDbArc
 50
270
 51
0
  0
ARC
  5
18E
100
AcDbEntity
  8
fuselage-top plate
  6
ByLayer
 62
  256
370
   -1
100
AcDbCircle
 10
-1
 20
147.5
 40
2
100
AcDbArc
 50
90
 51
180
  0
LINE
  5
18F
100
AcDbEntity
  8
fuselage-top plate
  6
ByLayer
 62
  256
370
   -1
100
AcDbLine
 10
-3
 20
147.5
 11
-3
 21
146.5
  0
ARC
  5
190
100
AcDbEntity
  8
fuselage-top plate
  6
ByLayer
 62
  256
370
   -1
100
AcDbCircle
 10
-1
 20
146.5
 40
2
100
AcDbArc
 50
180
 51
270
  0
LINE
  5
191
100
AcDbEntity
  8
fuselage-top plate
  6
ByLayer
 62
  256
370
   -1
100
AcDbLine
 10
-1
 20
149.5
 11
1
 21
149.5
  0
ARC
  5
192
100
AcDbEntity
  8
fuselage-top plate
  6
ByLayer
 62
  256
370
   -1
100
AcDbCircle
 10
1
 20
147.5
 40
2
100
AcDbArc
 50
0
 51
90
  0
LINE
  5
193
100
AcDbEntity
  8
fuselage-top plate
  6
ByLayer
 62
  256
370
   -1
100
AcDbLine
 10
3
 20
147.5
 11
3
 21
146.5
  0
LINE
  5
194
100
AcDbEntity
  8
fuselage-top plate
  6
ByLayer
 62
  256
370
   -1
100
AcDbLine
 10
-1
 20
144.5
 11
1
 21
144.5
  0
ARC
  5
195
100
AcDbEntity
  8
fuselage-top plate
  6
ByLayer
 62
  256
370
   -1
100
AcDbCircle
 10
1
 20
146.5
 40
2
100
AcDbArc
 50
270
 51
0
  0
ARC
  5
196
100
AcDbEntity
  8
fuselage-top plate
  6
ByLayer
 62
  256
370
   -1
100
AcDbCircle
 10
-1
 20
102.5
 40
2
100
AcDbArc
 50
90
 51
180
  0
LINE
  5
197
100
AcDbEntity
  8
fuselage-top plate
  6
ByLayer
 62
  256
370
   -1
100
AcDbLine
 10
-3
 20
102.5
 11
-3
 21
101.5
  0
ARC
  5
198
100
AcDbEntity
  8
fuselage-top plate
  6
ByLayer
 62
  256
370
   -1
100
AcDbCircle
 10
-1
 20
101.5
 40
2
100
AcDbArc
 50
180
 51
270
  0
LINE
  5
199
100
AcDbEntity
  8
fuselage-top plate
  6
ByLayer
 62
  256
370
   -1
100
AcDbLine
 10
-1
 20
104.5
 11
1
 21
104.5
  0
ARC
  5
19A
100
AcDbEntity
  8
fuselage-top plate
  6
ByLayer
 62
  256
370
   -1
100
AcDbCircle
 10
1
 20
102.5
 40
2
100
AcDbArc
 50
0
 51
90
  0
LINE
  5
19B
100
AcDbEntity
  8
fuselage-top plate
  6
ByLayer
 62
  256
370
   -1
100
AcDbLine
 10
3
 20
102.5
 11
3
 21
101.5
  0
LINE
  5
19C
100
AcDbEntity
  8
fuselage-top plate
  6
ByLayer
 62
  256
370
   -1
100
AcDbLine
 10
-1
 20
99.5
 11
1
 21
99.5
  0
ARC
  5
19D
100
AcDbEntity
  8
fuselage-top plate
  6
ByLayer
 62
  256
370
   -1
100
AcDbCircle
 10
1
 20
101.5
 40
2
100
AcDbArc
 50
270
 51
0
  0
ARC
  5
19E
100
AcDbEntity
  8
fuselage-top plate
  6
ByLayer
 62
  256
370
   -1
100
AcDbCircle
 10
-1
 20
117.5
 40
2
100
AcDbArc
 50
90
 51
180
  0
LINE
  5
19F
100
AcDbEntity
  8
fuselage-top plate
  6
ByLayer
 62
  256
370
   -1
100
AcDbLine
 10
-3
 20
117.5
 11
-3
 21
116.5
  0
ARC
  5
1A0
100
AcDbEntity
  8
fuselage-top plate
  6
ByLayer
 62
  256
370
   -1
100
AcDbCircle
 10
-1
 20
116.5
 40
2
100
AcDbArc
 50
180
 51
270
  0
LINE
  5
1A1
100
AcDbEntity
  8
fuselage-top plate
  6
ByLayer
 62
  256
370
   -1
100
AcDbLine
 10
-1
 20
119.5
 11
1
 21
119.5
  0
ARC
  5
1A2
100
AcDbEntity
  8
fuselage-top plate
  6
ByLayer
 62
  256
370
   -1
100
AcDbCircle
 10
1
 20
117.5
 40
2
100
AcDbArc
 50
0
 51
90
  0
LINE
  5
1A3
100
AcDbEntity
  8
fuselage-top plate
  6
ByLayer
 62
  256
370
   -1
100
AcDbLine
 10
3
 20
117.5
 11
3
 21
116.5
  0
LINE
  5
1A4
100
AcDbEntity
  8
fuselage-top plate
  6
ByLayer
 62
  256
370
   -1
100
AcDbLine
 10
-1
 20
114.5
 11
1
 21
114.5
  0
ARC
  5
1A5
100
AcDbEntity
  8
fuselage-top plate
  6
ByLayer
 62
  256
370
   -1
100
AcDbCircle
 10
1
 20
116.5
 40
2
100
AcDbArc
 50
270
 51
0
  0
ARC
  5
1A6
100
AcDbEntity
  8
fuselage-top plate
  6
ByLayer
 62
  256
370
   -1
100
AcDbCircle
 10
-1
 20
87.5
 40
2
100
AcDbArc
 50
90
 51
180
  0
LINE
  5
1A7
100
AcDbEntity
  8
fuselage-top plate
  6
ByLayer
 62
  256
370
   -1
100
AcDbLine
 10
-3
 20
87.5
 11
-3
 21
86.5
  0
ARC
  5
1A8
100
AcDbEntity
  8
fuselage-top plate
  6
ByLayer
 62
  256
370
   -1
100
AcDbCircle
 10
-1
 20
86.5
 40
2
100
AcDbArc
 50
180
 51
270
  0
LINE
  5
1A9
100
AcDbEntity
  8
fuselage-top plate
  6
ByLayer
 62
  256
370
   -1
100
AcDbLine
 10
-1
 20
89.5
 11
1
 21
89.5
  0
ARC
  5
1AA
100
AcDbEntity
  8
fuselage-top plate
  6
ByLayer
 62
  256
370
   -1
100
AcDbCircle
 10
1
 20
87.5
 40
2
100
AcDbArc
 50
0
 51
90
  0
LINE
  5
1AB
100
AcDbEntity
  8
fuselage-top plate
  6
ByLayer
 62
  256
370
   -1
100
AcDbLine
 10
3
 20
87.5
 11
3
 21
86.5
  0
LINE
  5
1AC
100
AcDbEntity
  8
fuselage-top plate
  6
ByLayer
 62
  256
370
   -1
100
AcDbLine
 10
-1
 20
84.5
 11
1
 21
84.5
  0
ARC
  5
1AD
100
AcDbEntity
  8
fuselage-top plate
  6
ByLayer
 62
  256
370
   -1
100
AcDbCircle
 10
1
 20
86.5
 40
2
100
AcDbArc
 50
270
 51
0
  0
ARC
  5
1AE
100
AcDbEntity
  8
fuselage-top plate
  6
ByLayer
 62
  256
370
   -1
100
AcDbCircle
 10
-1
 20
132.5
 40
2
100
AcDbArc
 50
90
 51
180
  0
LINE
  5
1AF
100
AcDbEntity
  8
fuselage-top plate
  6
ByLayer
 62
  256
370
   -1
100
AcDbLine
 10
-3
 20
132.5
 11
-3
 21
131.5
  0
ARC
  5
1B0
100
AcDbEntity
  8
fuselage-top plate
  6
ByLayer
 62
  256
370
   -1
100
AcDbCircle
 10
-1
 20
131.5
 40
2
100
AcDbArc
 50
180
 51
270
  0
LINE
  5
1B1
100
AcDbEntity
  8
fuselage-top plate
  6
ByLayer
 62
  256
370
   -1
100
AcDbLine
 10
-1
 20
134.5
 11
1
 21
134.5
  0
ARC
  5
1B2
100
AcDbEntity
  8
fuselage-top plate
  6
ByLayer
 62
  256
370
   -1
100
AcDbCircle
 10
1
 20
132.5
 40
2
100
AcDbArc
 50
0
 51
90
  0
LINE
  5
1B3
100
AcDbEntity
  8
fuselage-top plate
  6
ByLayer
 62
  256
370
   -1
100
AcDbLine
 10
3
 20
132.5
 11
3
 21
131.5
  0
LINE
  5
1B4
100
AcDbEntity
  8
fuselage-top plate
  6
ByLayer
 62
  256
370
   -1
100
AcDbLine
 10
-1
 20
129.5
 11
1
 21
129.5
  0
ARC
  5
1B5
100
AcDbEntity
  8
fuselage-top plate
  6
ByLayer
 62
  256
370
   -1
100
AcDbCircle
 10
1
 20
131.5
 40
2
100
AcDbArc
 50
270
 51
0
  0
ARC
  5
1B6
100
AcDbEntity
  8
fuselage-top plate
  6
ByLayer
 62
  256
370
   -1
100
AcDbCircle
 10
-1
 20
72.5
 40
2
100
AcDbArc
 50
90
 51
180
  0
LINE
  5
1B7
100
AcDbEntity
  8
fuselage-top plate
  6
ByLayer
 62
  256
370
   -1
100
AcDbLine
 10
-3
 20
72.5
 11
-3
 21
71.5
  0
ARC
  5
1B8
100
AcDbEntity
  8
fuselage-top plate
  6
ByLayer
 62
  256
370
   -1
100
AcDbCircle
 10
-1
 20
71.5
 40
2
100
AcDbArc
 50
180
 51
270
  0
LINE
  5
1B9
100
AcDbEntity
  8
fuselage-top plate
  6
ByLayer
 62
  256
370
   -1
100
AcDbLine
 10
-1
 20
74.5
 11
1
 21
74.5
  0
ARC
  5
1BA
100
AcDbEntity
  8
fuselage-top plate
  6
ByLayer
 62
  256
370
   -1
100
AcDbCircle
 10
1
 20
72.5
 40
2
100
AcDbArc
 50
0
 51
90
  0
LINE
  5
1BB
100
AcDbEntity
  8
fuselage-top plate
  6
ByLayer
 62
  256
370
   -1
100
AcDbLine
 10
3
 20
72.5
 11
3
 21
71.5
  0
LINE
  5
1BC
100
AcDbEntity
  8
fuselage-top plate
  6
ByLayer
 62
  256
370
   -1
100
AcDbLine
 10
-1
 20
69.5
 11
1
 21
69.5
  0
ARC
  5
1BD
100
AcDbEntity
  8
fuselage-top plate
  6
ByLayer
 62
  256
370
   -1
100
AcDbCircle
 10
1
 20
71.5
 40
2
100
AcDbArc
 50
270
 51
0
  0
ARC
  5
1BE
100
AcDbEntity
  8
fuselage-top plate
  6
ByLayer
 62
  256
370
   -1
100
AcDbCircle
 10
-1
 20
57.5
 40
2
100
AcDbArc
 50
90
 51
180
  0
LINE
  5
1BF
100
AcDbEntity
  8
fuselage-top plate
  6
ByLayer
 62
  256
370
   -1
100
AcDbLine
 10
-3
 20
57.5
 11
-3
 21
56.5
  0
ARC
  5
1C0
100
AcDbEntity
  8
fuselage-top plate
  6
ByLayer
 62
  256
370
   -1
100
AcDbCircle
 10
-1
 20
56.5
 40
2
100
AcDbArc
 50
180
 51
270
  0
LINE
  5
1C1
100
AcDbEntity
  8
fuselage-top plate
  6
ByLayer
 62
  256
370
   -1
100
AcDbLine
 10
-1
 20
59.5
 11
1
 21
59.5
  0
ARC
  5
1C2
100
AcDbEntity
  8
fuselage-top plate
  6
ByLayer
 62
  256
370
   -1
100
AcDbCircle
 10
1
 20
57.5
 40
2
100
AcDbArc
 50
0
 51
90
  0
LINE
  5
1C3
100
AcDbEntity
  8
fuselage-top plate
  6
ByLayer
 62
  256
370
   -1
100
AcDbLine
 10
3
 20
57.5
 11
3
 21
56.5
  0
LINE
  5
1C4
100
AcDbEntity
  8
fuselage-top plate
  6
ByLayer
 62
  256
370
   -1
100
AcDbLine
 10
-1
 20
54.5
 11
1
 21
54.5
  0
ARC
  5
1C5
100
AcDbEntity
  8
fuselage-top plate
  6
ByLayer
 62
  256
370
   -1
100
AcDbCircle
 10
1
 20
56.5
 40
2
100
AcDbArc
 50
270
 51
0
  0
ARC
  5
1C6
100
AcDbEntity
  8
fuselage-top plate
  6
ByLayer
 62
  256
370
   -1
100
AcDbCircle
 10
-1
 20
42.5
 40
2
100
AcDbArc
 50
90
 51
180
  0
LINE
  5
1C7
100
AcDbEntity
  8
fuselage-top plate
  6
ByLayer
 62
  256
370
   -1
100
AcDbLine
 10
-3
 20
42.5
 11
-3
 21
41.5
  0
ARC
  5
1C8
100
AcDbEntity
  8
fuselage-top plate
  6
ByLayer
 62
  256
370
   -1
100
AcDbCircle
 10
-1
 20
41.5
 40
2
100
AcDbArc
 50
180
 51
270
  0
LINE
  5
1C9
100
AcDbEntity
  8
fuselage-top plate
  6
ByLayer
 62
  256
370
   -1
100
AcDbLine
 10
-1
 20
44.5
 11
1
 21
44.5
  0
ARC
  5
1CA
100
AcDbEntity
  8
fuselage-top plate
  6
ByLayer
 62
  256
370
   -1
100
AcDbCircle
 10
1
 20
42.5
 40
2
100
AcDbArc
 50
0
 51
90
  0
LINE
  5
1CB
100
AcDbEntity
  8
fuselage-top plate
  6
ByLayer
 62
  256
370
   -1
100
AcDbLine
 10
3
 20
42.5
 11
3
 21
41.5
  0
LINE
  5
1CC
100
AcDbEntity
  8
fuselage-top plate
  6
ByLayer
 62
  256
370
   -1
100
AcDbLine
 10
-1
 20
39.5
 11
1
 21
39.5
  0
ARC
  5
1CD
100
AcDbEntity
  8
fuselage-top plate
  6
ByLayer
 62
  256
370
   -1
100
AcDbCircle
 10
1
 20
41.5
 40
2
100
AcDbArc
 50
270
 51
0
  0
CIRCLE
  5
1CE
100
AcDbEntity
  8
fuselage-camera plate
  6
ByLayer
 62
  256
370
   -1
100
AcDbCircle
 10
-1.179611963664229e-016
 20
192
 40
1.5
  0
CIRCLE
  5
1CF
100
AcDbEntity
  8
fuselage-camera plate
  6
ByLayer
 62
  256
370
   -1
100
AcDbCircle
 10
15.5
 20
192
 40
1.5
  0
CIRCLE
  5
1D0
100
AcDbEntity
  8
fuselage-camera plate
  6
ByLayer
 62
  256
370
   -1
100
AcDbCircle
 10
-15.5
 20
192
 40
1.5
  0
CIRCLE
  5
1D1
100
AcDbEntity
  8
fuselage-camera plate
  6
ByLayer
 62
  256
370
   -1
100
AcDbCircle
 10
-7
 20
221
 40
1.5
  0
CIRCLE
  5
1D2
100
AcDbEntity
  8
fuselage-camera plate
  6
ByLayer
 62
  256
370
   -1
100
AcDbCircle
 10
7
 20
221
 40
1.5
  0
LINE
  5
1D3
100
AcDbEntity
  8
fuselage-camera plate
  6
ByLayer
 62
  256
370
   -1
100
AcDbLine
 10
8.5
 20
232
 11
8.5
 21
230.25
  0
LINE
  5
1D4
100
AcDbEntity
  8
fuselage-camera plate
  6
ByLayer
 62
  256
370
   -1
100
AcDbLine
 10
14
 20
234.625
 11
15.75
 21
234.625
  0
LINE
  5
1D5
100
AcDbEntity
  8
fuselage-camera plate
  6
ByLayer
 62
  256
370
   -1
100
AcDbLine
 10
14
 20
227.625
 11
15.75
 21
227.625
  0
LINE
  5
1D6
100
AcDbEntity
  8
fuselage-camera plate
  6
ByLayer
 62
  256
370
   -1
100
AcDbLine
 10
10.24999999999956
 20
232
 11
14
 21
232
  0
LINE
  5
1D7
100
AcDbEntity
  8
fuselage-camera plate
  6
ByLayer
 62
  256
370
   -1
100
AcDbLine
 10
13.99999999999999
 20
232.8750000000001
 11
14
 21
232
  0
ARC
  5
1D8
100
AcDbEntity
  8
fuselage-camera plate
  6
ByLayer
 62
  256
370
   -1
100
AcDbCircle
 10
14
 20
233.75
 40
0.8749999999996163
100
AcDbArc
 50
89.99999999999977
 51
269.9999999999998
  0
ARC
  5
1D9
100
AcDbEntity
  8
fuselage-camera plate
  6
ByLayer
 62
  256
370
   -1
100
AcDbCircle
 10
9.37499999999978
 20
232
 40
0.8749999999997797
100
AcDbArc
 50
359.9999999999991
 51
540.0000000000009
  0
ARC
  5
1DA
100
AcDbEntity
  8
fuselage-camera plate
  6
ByLayer
 62
  256
370
   -1
100
AcDbCircle
 10
9.37499999999978
 20
230.25
 40
0.8749999999997797
100
AcDbArc
 50
179.9999999999991
 51
9.159997482614929e-013
  0
ARC
  5
1DB
100
AcDbEntity
  8
fuselage-camera plate
  6
ByLayer
 62
  256
370
   -1
100
AcDbCircle
 10
15.75
 20
233.75
 40
0.8749999999996163
100
AcDbArc
 50
270.0000000000002
 51
90.0000000000002
  0
ARC
  5
1DC
100
AcDbEntity
  8
fuselage-camera plate
  6
ByLayer
 62
  256
370
   -1
100
AcDbCircle
 10
14
 20
228.5
 40
0.8749999999996163
100
AcDbArc
 50
90.00000000000026
 51
270.0000000000002
  0
ARC
  5
1DD
100
AcDbEntity
  8
fuselage-camera plate
  6
ByLayer
 62
  256
370
   -1
100
AcDbCircle
 10
15.75
 20
228.5
 40
0.8749999999996163
100
AcDbArc
 50
269.9999999999998
 51
89.99999999999974
  0
LINE
  5
1DE
100
AcDbEntity
  8
fuselage-camera plate
  6
ByLayer
 62
  256
370
   -1
100
AcDbLine
 10
14
 20
230.25
 11
14
 21
229.374999999999
  0
LINE
  5
1DF
100
AcDbEntity
  8
fuselage-camera plate
  6
ByLayer
 62
  256
370
   -1
100
AcDbLine
 10
15.75
 20
232.8749999999977
 11
15.75
 21
229.3749999999992
  0
LINE
  5
1E0
100
AcDbEntity
  8
fuselage-camera plate
  6
ByLayer
 62
  256
370
   -1
100
AcDbLine
 10
10.25000000000096
 20
230.25
 11
14
 21
230.25
  0
LINE
  5
1E1
100
AcDbEntity
  8
fuselage-camera plate
  6
ByLayer
 62
  256
370
   -1
100
AcDbLine
 10
-8.5
 20
232
 11
-8.5
 21
230.25
  0
LINE
  5
1E2
100
AcDbEntity
  8
fuselage-camera plate
  6
ByLayer
 62
  256
370
   -1
100
AcDbLine
 10
-14
 20
234.625
 11
-15.75
 21
234.625
  0
LINE
  5
1E3
100
AcDbEntity
  8
fuselage-camera plate
  6
ByLayer
 62
  256
370
   -1
100
AcDbLine
 10
-14
 20
227.625
 11
-15.75
 21
227.625
  0
LINE
  5
1E4
100
AcDbEntity
  8
fuselage-camera plate
  6
ByLayer
 62
  256
370
   -1
100
AcDbLine
 10
-10.24999999999956
 20
232
 11
-14
 21
232
  0
LINE
  5
1E5
100
AcDbEntity
  8
fuselage-camera plate
  6
ByLayer
 62
  256
370
   -1
100
AcDbLine
 10
-13.99999999999999
 20
232.8750000000001
 11
-14
 21
232
  0
ARC
  5
1E6
100
AcDbEntity
  8
fuselage-camera plate
  6
ByLayer
 62
  256
370
   -1
100
AcDbCircle
 10
-14
 20
233.75
 40
0.8749999999996163
100
AcDbArc
 50
270.0000000000002
 51
90.0000000000002
  0
ARC
  5
1E7
100
AcDbEntity
  8
fuselage-camera plate
  6
ByLayer
 62
  256
370
   -1
100
AcDbCircle
 10
-9.37499999999978
 20
232
 40
0.8749999999997797
100
AcDbArc
 50
359.9999999999991
 51
180.0000000000009
  0
ARC
  5
1E8
100
AcDbEntity
  8
fuselage-camera plate
  6
ByLayer
 62
  256
370
   -1
100
AcDbCircle
 10
-9.37499999999978
 20
230.25
 40
0.8749999999997797
100
AcDbArc
 50
179.9999999999991
 51
9.159997482614929e-013
  0
ARC
  5
1E9
100
AcDbEntity
  8
fuselage-camera plate
  6
ByLayer
 62
  256
370
   -1
100
AcDbCircle
 10
-15.75
 20
233.75
 40
0.8749999999996163
100
AcDbArc
 50
89.9999999999998
 51
269.9999999999998
  0
ARC
  5
1EA
100
AcDbEntity
  8
fuselage-camera plate
  6
ByLayer
 62
  256
370
   -1
100
AcDbCircle
 10
-14
 20
228.5
 40
0.8749999999996163
100
AcDbArc
 50
269.9999999999998
 51
89.99999999999974
  0
ARC
  5
1EB
100
AcDbEntity
  8
fuselage-camera plate
  6
ByLayer
 62
  256
370
   -1
100
AcDbCircle
 10
-15.75
 20
228.5
 40
0.8749999999996163
100
AcDbArc
 50
90.00000000000026
 51
270.0000000000002
  0
LINE
  5
1EC
100
AcDbEntity
  8
fuselage-camera plate
  6
ByLayer
 62
  256
370
   -1
100
AcDbLine
 10
-14
 20
230.25
 11
-14
 21
229.374999999999
  0
LINE
  5
1ED
100
AcDbEntity
  8
fuselage-camera plate
  6
ByLayer
 62
  256
370
   -1
100
AcDbLine
 10
-15.75
 20
232.8749999999977
 11
-15.75
 21
229.3749999999992
  0
LINE
  5
1EE
100
AcDbEntity
  8
fuselage-camera plate
  6
ByLayer
 62
  256
370
   -1
100
AcDbLine
 10
-10.25000000000096
 20
230.25
 11
-14
 21
230.25
  0
CIRCLE
  5
1EF
100
AcDbEntity
  8
fuselage-camera plate
  6
ByLayer
 62
  256
370
   -1
100
AcDbCircle
 10
17.5
 20
242
 40
1.5
  0
CIRCLE
  5
1F0
100
AcDbEntity
  8
fuselage-camera plate
  6
ByLayer
 62
  256
370
   -1
100
AcDbCircle
 10
-17.5
 20
242
 40
1.5
  0
ARC
  5
1F1
100
AcDbEntity
  8
fuselage-camera plate
  6
ByLayer
 62
  256
370
   -1
100
AcDbCircle
 10
-18.50000000000002
 20
245.6642838216367
 40
3
100
AcDbArc
 50
108.9390048777084
 51
180
  0
LINE
  5
1F2
100
AcDbEntity
  8
fuselage-camera plate
  6
ByLayer
 62
  256
370
   -1
100
AcDbLine
 10
-4.375
 20
247
 11
-4.375
 21
245.25
  0
LINE
  5
1F3
100
AcDbEntity
  8
fuselage-camera plate
  6
ByLayer
 62
  256
370
   -1
100
AcDbLine
 10
-11.625
 20
247
 11
-11.625
 21
245.25
  0
LINE
  5
1F4
100
AcDbEntity
  8
fuselage-camera plate
  6
ByLayer
 62
  256
370
   -1
100
AcDbLine
 10
-6.125000000001818
 20
247
 11
-9.87499999999778
 21
247
  0
ARC
  5
1F5
100
AcDbEntity
  8
fuselage-camera plate
  6
ByLayer
 62
  256
370
   -1
100
AcDbCircle
 10
-5.250000000000598
 20
247
 40
0.8750000000005977
100
AcDbArc
 50
9.305358770791191e-013
 51
179.9999999999982
  0
ARC
  5
1F6
100
AcDbEntity
  8
fuselage-camera plate
  6
ByLayer
 62
  256
370
   -1
100
AcDbCircle
 10
-10.75000000000011
 20
247
 40
0.8749999999998943
100
AcDbArc
 50
0
 51
180
  0
LINE
  5
1F7
100
AcDbEntity
  8
fuselage-camera plate
  6
ByLayer
 62
  256
370
   -1
100
AcDbLine
 10
-6.125000000001818
 20
245.25
 11
-9.87499999999778
 21
245.25
  0
ARC
  5
1F8
100
AcDbEntity
  8
fuselage-camera plate
  6
ByLayer
 62
  256
370
   -1
100
AcDbCircle
 10
-5.250000000000598
 20
245.25
 40
0.8750000000005977
100
AcDbArc
 50
180.0000000000018
 51
359.9999999999991
  0
ARC
  5
1F9
100
AcDbEntity
  8
fuselage-camera plate
  6
ByLayer
 62
  256
370
   -1
100
AcDbCircle
 10
-10.75000000000011
 20
245.25
 40
0.8749999999998943
100
AcDbArc
 50
180
 51
0
  0
LINE
  5
1FA
100
AcDbEntity
  8
fuselage-camera plate
  6
ByLayer
 62
  256
370
   -1
100
AcDbLine
 10
4.375
 20
247
 11
4.375
 21
245.25
  0
LINE
  5
1FB
100
AcDbEntity
  8
fuselage-camera plate
  6
ByLayer
 62
  256
370
   -1
100
AcDbLine
 10
11.625
 20
247
 11
11.625
 21
245.25
  0
LINE
  5
1FC
100
AcDbEntity
  8
fuselage-camera plate
  6
ByLayer
 62
  256
370
   -1
100
AcDbLine
 10
6.125000000001818
 20
247
 11
9.87499999999778
 21
247
  0
ARC
  5
1FD
100
AcDbEntity
  8
fuselage-camera plate
  6
ByLayer
 62
  256
370
   -1
100
AcDbCircle
 10
5.250000000000598
 20
247
 40
0.8750000000005977
100
AcDbArc
 50
1.831999496522986e-012
 51
179.9999999999991
  0
ARC
  5
1FE
100
AcDbEntity
  8
fuselage-camera plate
  6
ByLayer
 62
  256
370
   -1
100
AcDbCircle
 10
10.75000000000011
 20
247
 40
0.8749999999998943
100
AcDbArc
 50
360
 51
180
  0
LINE
  5
1FF
100
AcDbEntity
  8
fuselage-camera plate
  6
ByLayer
 62
  256
370
   -1
100
AcDbLine
 10
6.125000000001818
 20
245.25
 11
9.87499999999778
 21
245.25
  0
ARC
  5
200
100
AcDbEntity
  8
fuselage-camera plate
  6
ByLayer
 62
  256
370
   -1
100
AcDbCircle
 10
5.250000000000598
 20
245.25
 40
0.8750000000005977
100
AcDbArc
 50
180.0000000000009
 51
359.9999999999982
  0
ARC
  5
201
100
AcDbEntity
  8
fuselage-camera plate
  6
ByLayer
 62
  256
370
   -1
100
AcDbCircle
 10
10.75000000000011
 20
245.25
 40
0.8749999999998943
100
AcDbArc
 50
180
 51
360
  0
ARC
  5
202
100
AcDbEntity
  8
fuselage-camera plate
  6
ByLayer
 62
  256
370
   -1
100
AcDbCircle
 10
-1.179611963664229e-016
 20
191.75
 40
60
100
AcDbArc
 50
71.06099512229154
 51
108.9390048777085
  0
ARC
  5
203
100
AcDbEntity
  8
fuselage-camera plate
  6
ByLayer
 62
  256
370
   -1
100
AcDbCircle
 10
18.50000000000001
 20
245.6642838216367
 40
3
100
AcDbArc
 50
0
 51
71.06099512229163
  0
LINE
  5
204
100
AcDbEntity
  8
fuselage-camera plate
  6
ByLayer
 62
  256
370
   -1
100
AcDbLine
 10
-21.50000000000001
 20
245.6642838216367
 11
-21.50000000000001
 21
191.75
  0
ARC
  5
205
100
AcDbEntity
  8
fuselage-camera plate
  6
ByLayer
 62
  256
370
   -1
100
AcDbCircle
 10
-18.50000000000001
 20
191.75
 40
3
100
AcDbArc
 50
180
 51
270
  0
LINE
  5
206
100
AcDbEntity
  8
fuselage-camera plate
  6
ByLayer
 62
  256
370
   -1
100
AcDbLine
 10
21.5
 20
191.75
 11
21.5
 21
245.6642838216367
  0
LINE
  5
207
100
AcDbEntity
  8
fuselage-camera plate
  6
ByLayer
 62
  256
370
   -1
100
AcDbLine
 10
-18.50000000000001
 20
188.75
 11
18.5
 21
188.75
  0
ARC
  5
208
100
AcDbEntity
  8
fuselage-camera plate
  6
ByLayer
 62
  256
370
   -1
100
AcDbCircle
 10
18.5
 20
191.75
 40
3
100
AcDbArc
 50
269.9999999999999
 51
0
  0
ENDSEC
  0
SECTION
  2
OBJECTS
  0
DICTIONARY
  5
C
330
0
100
AcDbDictionary
281
    1
  3
ACAD_GROUP
350
D
  0
DICTIONARY
  5
D
330
C
100
AcDbDictionary
281
    1
  0
ENDSEC
  0
EOF
