999
dxfrw 0.6.3
  0
SECTION
  2
HEADER
  9
$ACADVER
  1
AC1021
  9
$DWGCODEPAGE
  3
ANSI_1252
  9
$INSBASE
 10
0
 20
0
 30
0
  9
$EXTMIN
 10
0.002139
 20
-8.362566101792
 30
0
  9
$EXTMAX
 10
385.91
 20
16.740257211464
 30
0
  9
$LIMMIN
 10
0
 20
0
  9
$LIMMAX
 10
420
 20
297
  9
$ORTHOMODE
 70
    0
  9
$REGENMODE
 70
    1
  9
$FILLMODE
 70
    1
  9
$QTEXTMODE
 70
    0
  9
$MIRRTEXT
 70
    0
  9
$LTSCALE
 40
1
  9
$ATTMODE
 70
    0
  9
$TEXTSIZE
 40
2.5
  9
$TRACEWID
 40
15.68
  9
$TEXTSTYLE
  7
STANDARD
  9
$CLAYER
  8
463
  9
$CELTYPE
  6
BYLAYER
  9
$CECOLOR
 62
  256
  9
$CELTSCALE
 40
1
  9
$DISPSILH
 70
    0
  9
$DIMSCALE
 40
2.5
  9
$DIMASZ
 40
2.5
  9
$DIMEXO
 40
0.625
  9
$DIMDLI
 40
3.75
  9
$DIMRND
 40
0
  9
$DIMDLE
 40
0
  9
$DIMEXE
 40
1.25
  9
$DIMTP
 40
0
  9
$DIMTM
 40
0
  9
$DIMTXT
 40
2.5
  9
$DIMCEN
 40
2.5
  9
$DIMTSZ
 40
0
  9
$DIMTOL
 70
    0
  9
$DIMLIM
 70
    0
  9
$DIMTIH
 70
    0
  9
$DIMTOH
 70
    0
  9
$DIMSE1
 70
    0
  9
$DIMSE2
 70
    0
  9
$DIMTAD
 70
    1
  9
$DIMZIN
 70
    8
  9
$DIMBLK
  1

  9
$DIMASO
 70
    1
  9
$DIMSHO
 70
    1
  9
$DIMPOST
  1

  9
$DIMAPOST
  1

  9
$DIMALT
 70
    0
  9
$DIMALTD
 70
    3
  9
$DIMALTF
 40
0.03937
  9
$DIMLFAC
 40
1
  9
$DIMTOFL
 70
    1
  9
$DIMTVP
 40
0
  9
$DIMTIX
 70
    0
  9
$DIMSOXD
 70
    0
  9
$DIMSAH
 70
    0
  9
$DIMBLK1
  1

  9
$DIMBLK2
  1

  9
$DIMSTYLE
  2
Standard
  9
$DIMCLRD
 70
    0
  9
$DIMCLRE
 70
    0
  9
$DIMCLRT
 70
    0
  9
$DIMTFAC
 40
1
  9
$DIMGAP
 40
0.625
  9
$DIMJUST
 70
    0
  9
$DIMSD1
 70
    0
  9
$DIMSD2
 70
    0
  9
$DIMTOLJ
 70
    0
  9
$DIMTZIN
 70
    8
  9
$DIMALTZ
 70
    0
  9
$DIMALTTZ
 70
    0
  9
$DIMUPT
 70
    0
  9
$DIMDEC
 70
    2
  9
$DIMTDEC
 70
    2
  9
$DIMALTU
 70
    2
  9
$DIMALTTD
 70
    3
  9
$DIMTXSTY
  7
STANDARD
  9
$DIMAUNIT
 70
    0
  9
$DIMADEC
 70
    0
  9
$DIMALTRND
 40
0
  9
$DIMAZIN
 70
    0
  9
$DIMDSEP
 70
   44
  9
$DIMATFIT
 70
    3
  9
$DIMFRAC
 70
    0
  9
$DIMLDRBLK
  1
STANDARD
  9
$DIMLUNIT
 70
    2
  9
$DIMLWD
 70
   -2
  9
$DIMLWE
 70
   -2
  9
$DIMTMOVE
 70
    0
  9
$DIMFXL
 40
1
  9
$DIMFXLON
 70
    0
  9
$DIMJOGANG
 40
0.7854
  9
$DIMTFILL
 70
    0
  9
$DIMTFILLCLR
 70
    0
  9
$DIMARCSYM
 70
    0
  9
$DIMLTYPE
  6

  9
$DIMLTEX1
  6

  9
$DIMLTEX2
  6

  9
$LUNITS
 70
    2
  9
$LUPREC
 70
    4
  9
$SKETCHINC
 40
1
  9
$FILLETRAD
 40
0
  9
$AUNITS
 70
    0
  9
$AUPREC
 70
    2
  9
$MENU
  1
.
  9
$ELEVATION
 40
0
  9
$PELEVATION
 40
0
  9
$THICKNESS
 40
0
  9
$LIMCHECK
 70
    0
  9
$CHAMFERA
 40
0
  9
$CHAMFERB
 40
0
  9
$CHAMFERC
 40
0
  9
$CHAMFERD
 40
0
  9
$SKPOLY
 70
    0
  9
$USRTIMER
 70
    1
  9
$ANGBASE
 50
0
  9
$ANGDIR
 70
    0
  9
$PDMODE
 70
   34
  9
$PDSIZE
 40
0
  9
$PLINEWID
 40
0
  9
$SPLFRAME
 70
    0
  9
$SPLINETYPE
 70
    2
  9
$SPLINESEGS
 70
    8
  9
$HANDSEED
  5
20000
  9
$SURFTAB1
 70
    6
  9
$SURFTAB2
 70
    6
  9
$SURFTYPE
 70
    6
  9
$SURFU
 70
    6
  9
$SURFV
 70
    6
  9
$UCSBASE
  2

  9
$UCSNAME
  2

  9
$UCSORG
 10
0
 20
0
 30
0
  9
$UCSXDIR
 10
1
 20
0
 30
0
  9
$UCSYDIR
 10
0
 20
1
 30
0
  9
$UCSORTHOREF
  2

  9
$UCSORTHOVIEW
 70
    0
  9
$UCSORGTOP
 10
0
 20
0
 30
0
  9
$UCSORGBOTTOM
 10
0
 20
0
 30
0
  9
$UCSORGLEFT
 10
0
 20
0
 30
0
  9
$UCSORGRIGHT
 10
0
 20
0
 30
0
  9
$UCSORGFRONT
 10
0
 20
0
 30
0
  9
$UCSORGBACK
 10
0
 20
0
 30
0
  9
$PUCSBASE
  2

  9
$PUCSNAME
  2

  9
$PUCSORG
 10
0
 20
0
 30
0
  9
$PUCSXDIR
 10
1
 20
0
 30
0
  9
$PUCSYDIR
 10
0
 20
1
 30
0
  9
$PUCSORTHOREF
  2

  9
$PUCSORTHOVIEW
 70
    0
  9
$PUCSORGTOP
 10
0
 20
0
 30
0
  9
$PUCSORGBOTTOM
 10
0
 20
0
 30
0
  9
$PUCSORGLEFT
 10
0
 20
0
 30
0
  9
$PUCSORGRIGHT
 10
0
 20
0
 30
0
  9
$PUCSORGFRONT
 10
0
 20
0
 30
0
  9
$PUCSORGBACK
 10
0
 20
0
 30
0
  9
$USERI1
 70
    0
  9
$USERI2
 70
    0
  9
$USERI3
 70
    0
  9
$USERI4
 70
    0
  9
$USERI5
 70
    0
  9
$USERR1
 40
0
  9
$USERR2
 40
0
  9
$USERR3
 40
0
  9
$USERR4
 40
0
  9
$USERR5
 40
0
  9
$WORLDVIEW
 70
    1
  9
$SHADEDGE
 70
    3
  9
$SHADEDIF
 70
   70
  9
$TILEMODE
 70
    1
  9
$MAXACTVP
 70
   64
  9
$PINSBASE
 10
0
 20
0
 30
0
  9
$PLIMCHECK
 70
    0
  9
$PEXTMIN
 10
0
 20
0
 30
0
  9
$PEXTMAX
 10
0
 20
0
 30
0
  9
$SNAPSTYLE
 70
    0
  9
$PLIMMIN
 10
0
 20
0
  9
$PLIMMAX
 10
210
 20
297
  9
$UNITMODE
 70
    0
  9
$VISRETAIN
 70
    1
  9
$PLINEGEN
 70
    0
  9
$PSLTSCALE
 70
    1
  9
$TREEDEPTH
 70
 3020
  9
$CMLSTYLE
  2
Standard
  9
$CMLJUST
 70
    0
  9
$CMLSCALE
 40
20
  9
$PROXYGRAPHICS
 70
    1
  9
$MEASUREMENT
 70
    1
  9
$CELWEIGHT
370
   -1
  9
$ENDCAPS
280
    0
  9
$JOINSTYLE
280
    0
  9
$LWDISPLAY
290
    0
  9
$INSUNITS
 70
    4
  9
$HYPERLINKBASE
  1

  9
$STYLESHEET
  1

  9
$XEDIT
290
    1
  9
$CEPSNTYPE
380
    0
  9
$PSTYLEMODE
290
    1
  9
$EXTNAMES
290
    1
  9
$PSVPSCALE
 40
1
  9
$OLESTARTUP
290
    0
  9
$SORTENTS
280
  127
  9
$INDEXCTL
280
    0
  9
$HIDETEXT
280
    1
  9
$XCLIPFRAME
290
    0
  9
$HALOGAP
280
    0
  9
$OBSCOLOR
 70
  257
  9
$OBSLTYPE
280
    0
  9
$INTERSECTIONDISPLAY
280
    0
  9
$INTERSECTIONCOLOR
 70
  257
  9
$DIMASSOC
280
    1
  9
$PROJECTNAME
  1

  9
$CAMERADISPLAY
290
    0
  9
$LENSLENGTH
 40
50
  9
$CAMERAHEIGHT
 40
0
  9
$STEPSPERSEC
 40
2
  9
$STEPSIZE
 40
50
  9
$3DDWFPREC
 40
2
  9
$PSOLWIDTH
 40
5
  9
$PSOLHEIGHT
 40
80
  9
$LOFTANG1
 40
1.570796326794897
  9
$LOFTANG2
 40
1.570796326794897
  9
$LOFTMAG1
 40
0
  9
$LOFTMAG2
 40
0
  9
$LOFTPARAM
 70
    7
  9
$LOFTNORMALS
280
    1
  9
$LATITUDE
 40
1
  9
$LONGITUDE
 40
1
  9
$NORTHDIRECTION
 40
0
  9
$TIMEZONE
 70
-8000
  9
$LIGHTGLYPHDISPLAY
280
    1
  9
$TILEMODELIGHTSYNCH
280
    1
  9
$SOLIDHIST
280
    1
  9
$SHOWHIST
280
    1
  9
$DWFFRAME
280
    2
  9
$DGNFRAME
280
    0
  9
$REALWORLDSCALE
290
    1
  9
$INTERFERECOLOR
 62
    1
  9
$CSHADOW
280
    0
  9
$SHADOWPLANELOCATION
 40
0
  0
ENDSEC
  0
SECTION
  2
CLASSES
  0
ENDSEC
  0
SECTION
  2
TABLES
  0
TABLE
  2
VPORT
  5
8
330
0
100
AcDbSymbolTable
 70
    1
  0
VPORT
  5
31
330
2
100
AcDbSymbolTableRecord
100
AcDbViewportTableRecord
  2
*ACTIVE
 70
    0
 10
0
 20
0
 11
1
 21
1
 12
257.2666452160681
 22
64.74716104500776
 13
0
 23
0
 14
10
 24
10
 15
10
 25
10
 16
0
 26
0
 36
1
 17
0
 27
0
 37
0
 40
263.1214416935422
 41
2.109947643979058
 42
50
 43
0
 44
0
 50
0
 51
0
 71
    0
 72
  100
 73
    1
 74
    3
 75
    0
 76
    1
 77
    0
 78
    0
281
    0
 65
    1
110
0
120
0
130
0
111
1
121
0
131
0
112
0
122
1
132
0
 79
    0
146
0
348
10020
 60
    7
 61
    5
292
1
282
    1
141
0
142
0
 63
  250
421
3358443
  0
ENDTAB
  0
TABLE
  2
LTYPE
  5
5
330
0
100
AcDbSymbolTable
 70
    4
  0
LTYPE
  5
14
330
5
100
AcDbSymbolTableRecord
100
AcDbLinetypeTableRecord
  2
ByBlock
 70
    0
  3

 72
   65
 73
    0
 40
0
  0
LTYPE
  5
15
330
5
100
AcDbSymbolTableRecord
100
AcDbLinetypeTableRecord
  2
ByLayer
 70
    0
  3

 72
   65
 73
    0
 40
0
  0
LTYPE
  5
16
330
5
100
AcDbSymbolTableRecord
100
AcDbLinetypeTableRecord
  2
Continuous
 70
    0
  3
Solid line
 72
   65
 73
    0
 40
0
  0
LTYPE
  5
32
330
5
100
AcDbSymbolTableRecord
100
AcDbLinetypeTableRecord
  2
DOT
 70
    0
  3
Dot . . . . . . . . . . . . . . . . . . . . . .
 72
   65
 73
    2
 40
6.35
 49
0
 74
    0
 49
-6.35
 74
    0
  0
LTYPE
  5
33
330
5
100
AcDbSymbolTableRecord
100
AcDbLinetypeTableRecord
  2
DOTTINY
 70
    0
  3
Dot (.15x) .....................................
 72
   65
 73
    2
 40
0.9525
 49
0
 74
    0
 49
-0.9525
 74
    0
  0
LTYPE
  5
34
330
5
100
AcDbSymbolTableRecord
100
AcDbLinetypeTableRecord
  2
DOT2
 70
    0
  3
Dot (.5x) .....................................
 72
   65
 73
    2
 40
3.175
 49
0
 74
    0
 49
-3.175
 74
    0
  0
LTYPE
  5
35
330
5
100
AcDbSymbolTableRecord
100
AcDbLinetypeTableRecord
  2
DOTX2
 70
    0
  3
Dot (2x) .  .  .  .  .  .  .  .  .  .  .  .  .
 72
   65
 73
    2
 40
12.7
 49
0
 74
    0
 49
-12.7
 74
    0
  0
LTYPE
  5
36
330
5
100
AcDbSymbolTableRecord
100
AcDbLinetypeTableRecord
  2
DASHED
 70
    0
  3
Dashed _ _ _ _ _ _ _ _ _ _ _ _ _ _ _ _ _
 72
   65
 73
    2
 40
19.05
 49
12.7
 74
    0
 49
-6.35
 74
    0
  0
LTYPE
  5
37
330
5
100
AcDbSymbolTableRecord
100
AcDbLinetypeTableRecord
  2
DASHEDTINY
 70
    0
  3
Dashed (.15x) _ _ _ _ _ _ _ _ _ _ _ _ _ _ _ _ _
 72
   65
 73
    2
 40
2.8575
 49
1.905
 74
    0
 49
-0.9525
 74
    0
  0
LTYPE
  5
38
330
5
100
AcDbSymbolTableRecord
100
AcDbLinetypeTableRecord
  2
DASHED2
 70
    0
  3
Dashed (.5x) _ _ _ _ _ _ _ _ _ _ _ _ _ _ _ _ _
 72
   65
 73
    2
 40
9.524999999999999
 49
6.35
 74
    0
 49
-3.175
 74
    0
  0
LTYPE
  5
39
330
5
100
AcDbSymbolTableRecord
100
AcDbLinetypeTableRecord
  2
DASHEDX2
 70
    0
  3
Dashed (2x) ____  ____  ____  ____  ____  ___
 72
   65
 73
    2
 40
38.09999999999999
 49
25.4
 74
    0
 49
-12.7
 74
    0
  0
LTYPE
  5
3A
330
5
100
AcDbSymbolTableRecord
100
AcDbLinetypeTableRecord
  2
DASHDOT
 70
    0
  3
Dash dot __ . __ . __ . __ . __ . __ . __ . __
 72
   65
 73
    4
 40
25.4
 49
12.7
 74
    0
 49
-6.35
 74
    0
 49
0
 74
    0
 49
-6.35
 74
    0
  0
LTYPE
  5
3B
330
5
100
AcDbSymbolTableRecord
100
AcDbLinetypeTableRecord
  2
DASHDOTTINY
 70
    0
  3
Dash dot (.15x) _._._._._._._._._._._._._._._.
 72
   65
 73
    4
 40
3.81
 49
1.905
 74
    0
 49
-0.9525
 74
    0
 49
0
 74
    0
 49
-0.9525
 74
    0
  0
LTYPE
  5
3C
330
5
100
AcDbSymbolTableRecord
100
AcDbLinetypeTableRecord
  2
DASHDOT2
 70
    0
  3
Dash dot (.5x) _._._._._._._._._._._._._._._.
 72
   65
 73
    4
 40
12.7
 49
6.35
 74
    0
 49
-3.175
 74
    0
 49
0
 74
    0
 49
-3.175
 74
    0
  0
LTYPE
  5
3D
330
5
100
AcDbSymbolTableRecord
100
AcDbLinetypeTableRecord
  2
DASHDOTX2
 70
    0
  3
Dash dot (2x) ____  .  ____  .  ____  .  ___
 72
   65
 73
    4
 40
50.8
 49
25.4
 74
    0
 49
-12.7
 74
    0
 49
0
 74
    0
 49
-12.7
 74
    0
  0
LTYPE
  5
3E
330
5
100
AcDbSymbolTableRecord
100
AcDbLinetypeTableRecord
  2
DIVIDE
 70
    0
  3
Divide ____ . . ____ . . ____ . . ____ . . ____
 72
   65
 73
    6
 40
31.75
 49
12.7
 74
    0
 49
-6.35
 74
    0
 49
0
 74
    0
 49
-6.35
 74
    0
 49
0
 74
    0
 49
-6.35
 74
    0
  0
LTYPE
  5
3F
330
5
100
AcDbSymbolTableRecord
100
AcDbLinetypeTableRecord
  2
DIVIDETINY
 70
    0
  3
Divide (.15x) __..__..__..__..__..__..__..__.._
 72
   65
 73
    6
 40
4.7625
 49
1.905
 74
    0
 49
-0.9525
 74
    0
 49
0
 74
    0
 49
-0.9525
 74
    0
 49
0
 74
    0
 49
-0.9525
 74
    0
  0
LTYPE
  5
40
330
5
100
AcDbSymbolTableRecord
100
AcDbLinetypeTableRecord
  2
DIVIDE2
 70
    0
  3
Divide (.5x) __..__..__..__..__..__..__..__.._
 72
   65
 73
    6
 40
15.875
 49
6.35
 74
    0
 49
-3.175
 74
    0
 49
0
 74
    0
 49
-3.175
 74
    0
 49
0
 74
    0
 49
-3.175
 74
    0
  0
LTYPE
  5
41
330
5
100
AcDbSymbolTableRecord
100
AcDbLinetypeTableRecord
  2
DIVIDEX2
 70
    0
  3
Divide (2x) ________  .  .  ________  .  .  _
 72
   65
 73
    6
 40
63.5
 49
25.4
 74
    0
 49
-12.7
 74
    0
 49
0
 74
    0
 49
-12.7
 74
    0
 49
0
 74
    0
 49
-12.7
 74
    0
  0
LTYPE
  5
42
330
5
100
AcDbSymbolTableRecord
100
AcDbLinetypeTableRecord
  2
BORDER
 70
    0
  3
Border __ __ . __ __ . __ __ . __ __ . __ __ .
 72
   65
 73
    6
 40
44.45
 49
12.7
 74
    0
 49
-6.35
 74
    0
 49
12.7
 74
    0
 49
-6.35
 74
    0
 49
0
 74
    0
 49
-6.35
 74
    0
  0
LTYPE
  5
43
330
5
100
AcDbSymbolTableRecord
100
AcDbLinetypeTableRecord
  2
BORDERTINY
 70
    0
  3
Border (.15x) __.__.__.__.__.__.__.__.__.__.__.
 72
   65
 73
    6
 40
6.6675
 49
1.905
 74
    0
 49
-0.9525
 74
    0
 49
1.905
 74
    0
 49
-0.9525
 74
    0
 49
0
 74
    0
 49
-0.9525
 74
    0
  0
LTYPE
  5
44
330
5
100
AcDbSymbolTableRecord
100
AcDbLinetypeTableRecord
  2
BORDER2
 70
    0
  3
Border (.5x) __.__.__.__.__.__.__.__.__.__.__.
 72
   65
 73
    6
 40
22.225
 49
6.35
 74
    0
 49
-3.175
 74
    0
 49
6.35
 74
    0
 49
-3.175
 74
    0
 49
0
 74
    0
 49
-3.175
 74
    0
  0
LTYPE
  5
45
330
5
100
AcDbSymbolTableRecord
100
AcDbLinetypeTableRecord
  2
BORDERX2
 70
    0
  3
Border (2x) ____  ____  .  ____  ____  .  ___
 72
   65
 73
    6
 40
88.89999999999999
 49
25.4
 74
    0
 49
-12.7
 74
    0
 49
25.4
 74
    0
 49
-12.7
 74
    0
 49
0
 74
    0
 49
-12.7
 74
    0
  0
LTYPE
  5
46
330
5
100
AcDbSymbolTableRecord
100
AcDbLinetypeTableRecord
  2
CENTER
 70
    0
  3
Center ____ _ ____ _ ____ _ ____ _ ____ _ ____
 72
   65
 73
    4
 40
50.8
 49
31.75
 74
    0
 49
-6.35
 74
    0
 49
6.35
 74
    0
 49
-6.35
 74
    0
  0
LTYPE
  5
47
330
5
100
AcDbSymbolTableRecord
100
AcDbLinetypeTableRecord
  2
CENTERTINY
 70
    0
  3
Center (.15x) ___ _ ___ _ ___ _ ___ _ ___ _ ___
 72
   65
 73
    4
 40
7.619999999999999
 49
4.7625
 74
    0
 49
-0.9525
 74
    0
 49
0.9525
 74
    0
 49
-0.9525
 74
    0
  0
LTYPE
  5
48
330
5
100
AcDbSymbolTableRecord
100
AcDbLinetypeTableRecord
  2
CENTER2
 70
    0
  3
Center (.5x) ___ _ ___ _ ___ _ ___ _ ___ _ ___
 72
   65
 73
    4
 40
28.575
 49
19.05
 74
    0
 49
-3.175
 74
    0
 49
3.175
 74
    0
 49
-3.175
 74
    0
  0
LTYPE
  5
49
330
5
100
AcDbSymbolTableRecord
100
AcDbLinetypeTableRecord
  2
CENTERX2
 70
    0
  3
Center (2x) ________  __  ________  __  _____
 72
   65
 73
    4
 40
101.6
 49
63.5
 74
    0
 49
-12.7
 74
    0
 49
12.7
 74
    0
 49
-12.7
 74
    0
  0
ENDTAB
  0
TABLE
  2
LAYER
  5
2
330
0
100
AcDbSymbolTable
 70
    1
  0
LAYER
  5
10
330
2
100
AcDbSymbolTableRecord
100
AcDbLayerTableRecord
  2
0
 70
    4
 62
    7
  6
CONTINUOUS
370
    0
390
F
  0
LAYER
  5
4A
330
2
100
AcDbSymbolTableRecord
100
AcDbLayerTableRecord
  2
113
 70
    4
 62
    7
  6
CONTINUOUS
370
    0
390
F
  0
LAYER
  5
4B
330
2
100
AcDbSymbolTableRecord
100
AcDbLayerTableRecord
  2
233
 70
    4
 62
    7
  6
CONTINUOUS
370
    0
390
F
  0
LAYER
  5
4C
330
2
100
AcDbSymbolTableRecord
100
AcDbLayerTableRecord
  2
353
 70
    4
 62
    7
  6
CONTINUOUS
370
    0
390
F
  0
LAYER
  5
4D
330
2
100
AcDbSymbolTableRecord
100
AcDbLayerTableRecord
  2
463
 70
    4
 62
    7
  6
CONTINUOUS
370
    0
390
F
  0
ENDTAB
  0
TABLE
  2
STYLE
  5
3
330
0
100
AcDbSymbolTable
 70
    3
  0
STYLE
  5
4E
330
2
100
AcDbSymbolTableRecord
100
AcDbTextStyleTableRecord
  2
Standard
 70
    0
 40
0
 41
1
 50
0
 71
    0
 42
1
  3
txt
  4

  0
ENDTAB
  0
TABLE
  2
VIEW
  5
6
330
0
100
AcDbSymbolTable
 70
    0
  0
ENDTAB
  0
TABLE
  2
UCS
  5
7
330
0
100
AcDbSymbolTable
 70
    0
  0
ENDTAB
  0
TABLE
  2
APPID
  5
9
330
0
100
AcDbSymbolTable
 70
    1
  0
APPID
  5
12
330
9
100
AcDbSymbolTableRecord
100
AcDbRegAppTableRecord
  2
ACAD
 70
    0
  0
APPID
  5
4F
330
9
100
AcDbSymbolTableRecord
100
AcDbRegAppTableRecord
  2
LibreCad
 70
    0
  0
ENDTAB
  0
TABLE
  2
DIMSTYLE
  5
A
330
0
100
AcDbSymbolTable
 70
    1
100
AcDbDimStyleTable
 71
    1
  0
DIMSTYLE
105
50
330
A
100
AcDbSymbolTableRecord
100
AcDbDimStyleTableRecord
  2
Standard
 70
    0
 40
1
 41
2.5
 42
0.625
 43
0.38
 44
1.25
 45
0
 46
0
 47
0
 48
0
 49
1
140
2.5
141
0.09
142
2.5
143
25.4
144
1
145
0
146
1
147
0.625
148
0
 71
    0
 72
    0
 73
    0
 74
    1
 75
    0
 76
    0
 77
    0
 78
    1
 79
    0
170
    0
171
    2
172
    0
173
    0
174
    0
175
    0
176
    0
177
    0
178
    0
179
    0
271
    2
272
    4
273
    2
274
    2
275
    0
276
    0
277
    2
278
    0
279
    0
280
    0
281
    0
282
    0
283
    1
284
    0
285
    0
286
    0
288
    0
289
    3
340
standard
341

371
   -2
372
   -2
  0
ENDTAB
  0
TABLE
  2
BLOCK_RECORD
  5
1
330
0
100
AcDbSymbolTable
 70
    2
  0
BLOCK_RECORD
  5
1F
330
1
100
AcDbSymbolTableRecord
100
AcDbBlockTableRecord
  2
*Model_Space
 70
    0
280
    1
281
    0
  0
BLOCK_RECORD
  5
1E
330
1
100
AcDbSymbolTableRecord
100
AcDbBlockTableRecord
  2
*Paper_Space
 70
    0
280
    1
281
    0
  0
ENDTAB
  0
ENDSEC
  0
SECTION
  2
BLOCKS
  0
BLOCK
  5
20
330
1F
100
AcDbEntity
  8
0
100
AcDbBlockBegin
  2
*Model_Space
 70
    0
 10
0
 20
0
 30
0
  3
*Model_Space
  1

  0
ENDBLK
  5
21
330
1F
100
AcDbEntity
  8
0
100
AcDbBlockEnd
  0
BLOCK
  5
1C
330
1B
100
AcDbEntity
  8
0
100
AcDbBlockBegin
  2
*Paper_Space
 70
    0
 10
0
 20
0
 30
0
  3
*Paper_Space
  1

  0
ENDBLK
  5
1D
330
1F
100
AcDbEntity
  8
0
100
AcDbBlockEnd
  0
ENDSEC
  0
SECTION
  2
ENTITIES
  0
LINE
  5
51
100
AcDbEntity
  8
0
  6
ByLayer
 62
  256
370
   -1
100
AcDbLine
 10
253.7753
 20
0
 11
252.936351848989
 21
-0.024677110172
  0
LINE
  5
52
100
AcDbEntity
  8
0
  6
ByLayer
 62
  256
370
   -1
100
AcDbLine
 10
252.936351848989
 20
-0.024677110172
 11
250.399532742093
 21
-0.048458393535
  0
LINE
  5
53
100
AcDbEntity
  8
0
  6
ByLayer
 62
  256
370
   -1
100
AcDbLine
 10
250.399532742093
 20
-0.048458393535
 11
246.198287726099
 21
0.049255247977
  0
LINE
  5
54
100
AcDbEntity
  8
0
  6
ByLayer
 62
  256
370
   -1
100
AcDbLine
 10
246.198287726099
 20
0.049255247977
 11
240.447384142679
 21
0.344746131791
  0
LINE
  5
55
100
AcDbEntity
  8
0
  6
ByLayer
 62
  256
370
   -1
100
AcDbLine
 10
240.447384142679
 20
0.344746131791
 11
233.268502172677
 21
0.864008461886
  0
LINE
  5
56
100
AcDbEntity
  8
0
  6
ByLayer
 62
  256
370
   -1
100
AcDbLine
 10
233.268502172677
 20
0.864008461886
 11
224.788384814172
 21
1.625763242143
  0
LINE
  5
57
100
AcDbEntity
  8
0
  6
ByLayer
 62
  256
370
   -1
100
AcDbLine
 10
224.788384814172
 20
1.625763242143
 11
215.148844242557
 21
2.648056434145
  0
LINE
  5
58
100
AcDbEntity
  8
0
  6
ByLayer
 62
  256
370
   -1
100
AcDbLine
 10
215.148844242557
 20
2.648056434145
 11
204.531418618687
 21
3.948071163455
  0
LINE
  5
59
100
AcDbEntity
  8
0
  6
ByLayer
 62
  256
370
   -1
100
AcDbLine
 10
204.531418618687
 20
3.948071163455
 11
193.158831296854
 21
5.492151749787
  0
LINE
  5
5A
100
AcDbEntity
  8
0
  6
ByLayer
 62
  256
370
   -1
100
AcDbLine
 10
193.158831296854
 20
5.492151749787
 11
181.228306289206
 21
7.188728451642
  0
LINE
  5
5B
100
AcDbEntity
  8
0
  6
ByLayer
 62
  256
370
   -1
100
AcDbLine
 10
181.228306289206
 20
7.188728451642
 11
168.903386550075
 21
8.939379594421
  0
LINE
  5
5C
100
AcDbEntity
  8
0
  6
ByLayer
 62
  256
370
   -1
100
AcDbLine
 10
168.903386550075
 20
8.939379594421
 11
156.320905183468
 21
10.640643526067
  0
LINE
  5
5D
100
AcDbEntity
  8
0
  6
ByLayer
 62
  256
370
   -1
100
AcDbLine
 10
156.320905183468
 20
10.640643526067
 11
143.588917174372
 21
12.211106592587
  0
LINE
  5
5E
100
AcDbEntity
  8
0
  6
ByLayer
 62
  256
370
   -1
100
AcDbLine
 10
143.588917174372
 20
12.211106592587
 11
130.810828344278
 21
13.590999635325
  0
LINE
  5
5F
100
AcDbEntity
  8
0
  6
ByLayer
 62
  256
370
   -1
100
AcDbLine
 10
130.810828344278
 20
13.590999635325
 11
118.084329494921
 21
14.742951703603
  0
LINE
  5
60
100
AcDbEntity
  8
0
  6
ByLayer
 62
  256
370
   -1
100
AcDbLine
 10
118.084329494921
 20
14.742951703603
 11
105.518944970275
 21
15.64999284311
  0
LINE
  5
61
100
AcDbEntity
  8
0
  6
ByLayer
 62
  256
370
   -1
100
AcDbLine
 10
105.518944970275
 20
15.64999284311
 11
93.235256104135
 21
16.296579316721
  0
LINE
  5
62
100
AcDbEntity
  8
0
  6
ByLayer
 62
  256
370
   -1
100
AcDbLine
 10
93.235256104135
 20
16.296579316721
 11
81.35119989167001
 21
16.665340205151
  0
LINE
  5
63
100
AcDbEntity
  8
0
  6
ByLayer
 62
  256
370
   -1
100
AcDbLine
 10
81.35119989167001
 20
16.665340205151
 11
69.98102089743399
 21
16.740257211464
  0
LINE
  5
64
100
AcDbEntity
  8
0
  6
ByLayer
 62
  256
370
   -1
100
AcDbLine
 10
69.98102089743399
 20
16.740257211464
 11
59.22394780148
 21
16.502292112654
  0
LINE
  5
65
100
AcDbEntity
  8
0
  6
ByLayer
 62
  256
370
   -1
100
AcDbLine
 10
59.22394780148
 20
16.502292112654
 11
49.160678611455
 21
15.949198997316
  0
LINE
  5
66
100
AcDbEntity
  8
0
  6
ByLayer
 62
  256
370
   -1
100
AcDbLine
 10
49.160678611455
 20
15.949198997316
 11
39.869670499107
 21
15.093306269524
  0
LINE
  5
67
100
AcDbEntity
  8
0
  6
ByLayer
 62
  256
370
   -1
100
AcDbLine
 10
39.869670499107
 20
15.093306269524
 11
31.424058968143
 21
13.955261087686
  0
LINE
  5
68
100
AcDbEntity
  8
0
  6
ByLayer
 62
  256
370
   -1
100
AcDbLine
 10
31.424058968143
 20
13.955261087686
 11
23.89281760735
 21
12.562351909811
  0
LINE
  5
69
100
AcDbEntity
  8
0
  6
ByLayer
 62
  256
370
   -1
100
AcDbLine
 10
23.89281760735
 20
12.562351909811
 11
17.338507103684
 21
10.944141020596
  0
LINE
  5
6A
100
AcDbEntity
  8
0
  6
ByLayer
 62
  256
370
   -1
100
AcDbLine
 10
17.338507103684
 20
10.944141020596
 11
11.808332200698
 21
9.128155426832
  0
LINE
  5
6B
100
AcDbEntity
  8
0
  6
ByLayer
 62
  256
370
   -1
100
AcDbLine
 10
11.808332200698
 20
9.128155426832
 11
7.325043854037
 21
7.157255238936
  0
LINE
  5
6C
100
AcDbEntity
  8
0
  6
ByLayer
 62
  256
370
   -1
100
AcDbLine
 10
7.325043854037
 20
7.157255238936
 11
3.904406585337
 21
5.091359342991
  0
LINE
  5
6D
100
AcDbEntity
  8
0
  6
ByLayer
 62
  256
370
   -1
100
AcDbLine
 10
3.904406585337
 20
5.091359342991
 11
1.539522781944
 21
3.018461786519
  0
LINE
  5
6E
100
AcDbEntity
  8
0
  6
ByLayer
 62
  256
370
   -1
100
AcDbLine
 10
1.539522781944
 20
3.018461786519
 11
0.317825647967
 21
1.244313588713
  0
LINE
  5
6F
100
AcDbEntity
  8
0
  6
ByLayer
 62
  256
370
   -1
100
AcDbLine
 10
0.317825647967
 20
1.244313588713
 11
0.116165643575
 21
0.704076730073
  0
LINE
  5
70
100
AcDbEntity
  8
0
  6
ByLayer
 62
  256
370
   -1
100
AcDbLine
 10
0.116165643575
 20
0.704076730073
 11
0.013229306389
 21
0.203766339382
  0
LINE
  5
71
100
AcDbEntity
  8
0
  6
ByLayer
 62
  256
370
   -1
100
AcDbLine
 10
0.013229306389
 20
0.203766339382
 11
0.003618835778
 21
-0.100550849366
  0
LINE
  5
72
100
AcDbEntity
  8
0
  6
ByLayer
 62
  256
370
   -1
100
AcDbLine
 10
0.003618835778
 20
-0.100550849366
 11
0.055394072484
 21
-0.369154240145
  0
LINE
  5
73
100
AcDbEntity
  8
0
  6
ByLayer
 62
  256
370
   -1
100
AcDbLine
 10
0.055394072484
 20
-0.369154240145
 11
0.189793471364
 21
-0.618229621589
  0
LINE
  5
74
100
AcDbEntity
  8
0
  6
ByLayer
 62
  256
370
   -1
100
AcDbLine
 10
0.189793471364
 20
-0.618229621589
 11
0.405301993877
 21
-0.871900873716
  0
LINE
  5
75
100
AcDbEntity
  8
0
  6
ByLayer
 62
  256
370
   -1
100
AcDbLine
 10
0.405301993877
 20
-0.871900873716
 11
0.8478429752760001
 21
-1.260192309234
  0
LINE
  5
76
100
AcDbEntity
  8
0
  6
ByLayer
 62
  256
370
   -1
100
AcDbLine
 10
0.8478429752760001
 20
-1.260192309234
 11
1.419832199452
 21
-1.657393795535
  0
LINE
  5
77
100
AcDbEntity
  8
0
  6
ByLayer
 62
  256
370
   -1
100
AcDbLine
 10
1.419832199452
 20
-1.657393795535
 11
4.502648864298
 21
-3.097038232658
  0
LINE
  5
78
100
AcDbEntity
  8
0
  6
ByLayer
 62
  256
370
   -1
100
AcDbLine
 10
4.502648864298
 20
-3.097038232658
 11
8.664266867197
 21
-4.378745611826
  0
LINE
  5
79
100
AcDbEntity
  8
0
  6
ByLayer
 62
  256
370
   -1
100
AcDbLine
 10
8.664266867197
 20
-4.378745611826
 11
14.019539833423
 21
-5.56019144547
  0
LINE
  5
7A
100
AcDbEntity
  8
0
  6
ByLayer
 62
  256
370
   -1
100
AcDbLine
 10
14.019539833423
 20
-5.56019144547
 11
20.499968734
 21
-6.582730799513
  0
LINE
  5
7B
100
AcDbEntity
  8
0
  6
ByLayer
 62
  256
370
   -1
100
AcDbLine
 10
20.499968734
 20
-6.582730799513
 11
28.061087060862
 21
-7.383026434581
  0
LINE
  5
7C
100
AcDbEntity
  8
0
  6
ByLayer
 62
  256
370
   -1
100
AcDbLine
 10
28.061087060862
 20
-7.383026434581
 11
36.679154134694
 21
-7.93768534352
  0
LINE
  5
7D
100
AcDbEntity
  8
0
  6
ByLayer
 62
  256
370
   -1
100
AcDbLine
 10
36.679154134694
 20
-7.93768534352
 11
46.300153882891
 21
-8.258226387197
  0
LINE
  5
7E
100
AcDbEntity
  8
0
  6
ByLayer
 62
  256
370
   -1
100
AcDbLine
 10
46.300153882891
 20
-8.258226387197
 11
56.848316614132
 21
-8.362566101792
  0
LINE
  5
7F
100
AcDbEntity
  8
0
  6
ByLayer
 62
  256
370
   -1
100
AcDbLine
 10
56.848316614132
 20
-8.362566101792
 11
68.22516736100501
 21
-8.27982520298
  0
LINE
  5
80
100
AcDbEntity
  8
0
  6
ByLayer
 62
  256
370
   -1
100
AcDbLine
 10
68.22516736100501
 20
-8.27982520298
 11
80.31259909889
 21
-8.034701102956999
  0
LINE
  5
81
100
AcDbEntity
  8
0
  6
ByLayer
 62
  256
370
   -1
100
AcDbLine
 10
80.31259909889
 20
-8.034701102956999
 11
92.98339680765
 21
-7.652449519579
  0
LINE
  5
82
100
AcDbEntity
  8
0
  6
ByLayer
 62
  256
370
   -1
100
AcDbLine
 10
92.98339680765
 20
-7.652449519579
 11
106.103125559863
 21
-7.16029546703
  0
LINE
  5
83
100
AcDbEntity
  8
0
  6
ByLayer
 62
  256
370
   -1
100
AcDbLine
 10
106.103125559863
 20
-7.16029546703
 11
119.524372359265
 21
-6.592584894412
  0
LINE
  5
84
100
AcDbEntity
  8
0
  6
ByLayer
 62
  256
370
   -1
100
AcDbLine
 10
119.524372359265
 20
-6.592584894412
 11
133.088966674625
 21
-5.977210244948
  0
LINE
  5
85
100
AcDbEntity
  8
0
  6
ByLayer
 62
  256
370
   -1
100
AcDbLine
 10
133.088966674625
 20
-5.977210244948
 11
146.633512741285
 21
-5.34191930994
  0
LINE
  5
86
100
AcDbEntity
  8
0
  6
ByLayer
 62
  256
370
   -1
100
AcDbLine
 10
146.633512741285
 20
-5.34191930994
 11
159.991432452325
 21
-4.706235023217
  0
LINE
  5
87
100
AcDbEntity
  8
0
  6
ByLayer
 62
  256
370
   -1
100
AcDbLine
 10
159.991432452325
 20
-4.706235023217
 11
172.997129811236
 21
-4.088644915384
  0
LINE
  5
88
100
AcDbEntity
  8
0
  6
ByLayer
 62
  256
370
   -1
100
AcDbLine
 10
172.997129811236
 20
-4.088644915384
 11
185.487840953857
 21
-3.497896621032
  0
LINE
  5
89
100
AcDbEntity
  8
0
  6
ByLayer
 62
  256
370
   -1
100
AcDbLine
 10
185.487840953857
 20
-3.497896621032
 11
197.311145897255
 21
-2.940946121134
  0
LINE
  5
8A
100
AcDbEntity
  8
0
  6
ByLayer
 62
  256
370
   -1
100
AcDbLine
 10
197.311145897255
 20
-2.940946121134
 11
208.325724790119
 21
-2.422820704383
  0
LINE
  5
8B
100
AcDbEntity
  8
0
  6
ByLayer
 62
  256
370
   -1
100
AcDbLine
 10
208.325724790119
 20
-2.422820704383
 11
218.396150443604
 21
-1.953298333088
  0
LINE
  5
8C
100
AcDbEntity
  8
0
  6
ByLayer
 62
  256
370
   -1
100
AcDbLine
 10
218.396150443604
 20
-1.953298333088
 11
227.394946449014
 21
-1.533439788003
  0
LINE
  5
8D
100
AcDbEntity
  8
0
  6
ByLayer
 62
  256
370
   -1
100
AcDbLine
 10
227.394946449014
 20
-1.533439788003
 11
235.208690473767
 21
-1.163648571855
  0
LINE
  5
8E
100
AcDbEntity
  8
0
  6
ByLayer
 62
  256
370
   -1
100
AcDbLine
 10
235.208690473767
 20
-1.163648571855
 11
241.738932927981
 21
-0.838108154768
  0
LINE
  5
8F
100
AcDbEntity
  8
0
  6
ByLayer
 62
  256
370
   -1
100
AcDbLine
 10
241.738932927981
 20
-0.838108154768
 11
246.903399859396
 21
-0.551017233384
  0
LINE
  5
90
100
AcDbEntity
  8
0
  6
ByLayer
 62
  256
370
   -1
100
AcDbLine
 10
246.903399859396
 20
-0.551017233384
 11
250.651183942832
 21
-0.28562410015
  0
LINE
  5
91
100
AcDbEntity
  8
0
  6
ByLayer
 62
  256
370
   -1
100
AcDbLine
 10
250.651183942832
 20
-0.28562410015
 11
252.971352538365
 21
-0.077246663567
  0
LINE
  5
92
100
AcDbEntity
  8
0
  6
ByLayer
 62
  256
370
   -1
100
AcDbLine
 10
252.971352538365
 20
-0.077246663567
 11
253.7753
 21
0
  0
LINE
  5
93
100
AcDbEntity
  8
0
  6
ByLayer
 62
  256
370
   -1
100
AcDbLine
 10
253.7753
 20
0
 11
253.7753
 21
0
  0
LINE
  5
94
100
AcDbEntity
  8
113
  6
ByLayer
 62
  256
370
   -1
100
AcDbLine
 10
253.7753
 20
1.525764567859215e-15
 11
253.126691942457
 21
-0.01907838103599847
  0
LINE
  5
95
100
AcDbEntity
  8
113
  6
ByLayer
 62
  256
370
   -1
100
AcDbLine
 10
253.126691942457
 20
-0.01907838103599847
 11
251.165424954409
 21
-0.03746417995499848
  0
LINE
  5
96
100
AcDbEntity
  8
113
  6
ByLayer
 62
  256
370
   -1
100
AcDbLine
 10
251.165424954409
 20
-0.03746417995499848
 11
247.917356088887
 21
0.03808024450100152
  0
LINE
  5
97
100
AcDbEntity
  8
113
  6
ByLayer
 62
  256
370
   -1
100
AcDbLine
 10
247.917356088887
 20
0.03808024450100152
 11
243.471214336427
 21
0.2665303196830015
  0
LINE
  5
98
100
AcDbEntity
  8
113
  6
ByLayer
 62
  256
370
   -1
100
AcDbLine
 10
243.471214336427
 20
0.2665303196830015
 11
237.921073145601
 21
0.6679826989180015
  0
LINE
  5
99
100
AcDbEntity
  8
113
  6
ByLayer
 62
  256
370
   -1
100
AcDbLine
 10
237.921073145601
 20
0.6679826989180015
 11
231.364920133036
 21
1.256910975059002
  0
LINE
  5
9A
100
AcDbEntity
  8
113
  6
ByLayer
 62
  256
370
   -1
100
AcDbLine
 10
231.364920133036
 20
1.256910975059002
 11
223.912393206041
 21
2.047266851885001
  0
LINE
  5
9B
100
AcDbEntity
  8
113
  6
ByLayer
 62
  256
370
   -1
100
AcDbLine
 10
223.912393206041
 20
2.047266851885001
 11
215.703843247731
 21
3.052334956915001
  0
LINE
  5
9C
100
AcDbEntity
  8
113
  6
ByLayer
 62
  256
370
   -1
100
AcDbLine
 10
215.703843247731
 20
3.052334956915001
 11
206.911462260702
 21
4.246095392031002
  0
LINE
  5
9D
100
AcDbEntity
  8
113
  6
ByLayer
 62
  256
370
   -1
100
AcDbLine
 10
206.911462260702
 20
4.246095392031002
 11
197.687728182078
 21
5.557753708146001
  0
LINE
  5
9E
100
AcDbEntity
  8
113
  6
ByLayer
 62
  256
370
   -1
100
AcDbLine
 10
197.687728182078
 20
5.557753708146001
 11
188.159079430975
 21
6.911218085873002
  0
LINE
  5
9F
100
AcDbEntity
  8
113
  6
ByLayer
 62
  256
370
   -1
100
AcDbLine
 10
188.159079430975
 20
6.911218085873002
 11
178.431304492284
 21
8.226500195671003
  0
LINE
  5
A0
100
AcDbEntity
  8
113
  6
ByLayer
 62
  256
370
   -1
100
AcDbLine
 10
178.431304492284
 20
8.226500195671003
 11
168.587942895636
 21
9.440657468431002
  0
LINE
  5
A1
100
AcDbEntity
  8
113
  6
ByLayer
 62
  256
370
   -1
100
AcDbLine
 10
168.587942895636
 20
9.440657468431002
 11
158.708939806814
 21
10.507481139225
  0
LINE
  5
A2
100
AcDbEntity
  8
113
  6
ByLayer
 62
  256
370
   -1
100
AcDbLine
 10
158.708939806814
 20
10.507481139225
 11
148.869821992373
 21
11.398078958039
  0
LINE
  5
A3
100
AcDbEntity
  8
113
  6
ByLayer
 62
  256
370
   -1
100
AcDbLine
 10
148.869821992373
 20
11.398078958039
 11
139.155264973575
 21
12.09933110443
  0
LINE
  5
A4
100
AcDbEntity
  8
113
  6
ByLayer
 62
  256
370
   -1
100
AcDbLine
 10
139.155264973575
 20
12.09933110443
 11
129.658492657755
 21
12.599220395773
  0
LINE
  5
A5
100
AcDbEntity
  8
113
  6
ByLayer
 62
  256
370
   -1
100
AcDbLine
 10
129.658492657755
 20
12.599220395773
 11
120.47068455971
 21
12.884317017363
  0
LINE
  5
A6
100
AcDbEntity
  8
113
  6
ByLayer
 62
  256
370
   -1
100
AcDbLine
 10
120.47068455971
 20
12.884317017363
 11
111.680165500242
 21
12.942236894632
  0
LINE
  5
A7
100
AcDbEntity
  8
113
  6
ByLayer
 62
  256
370
   -1
100
AcDbLine
 10
111.680165500242
 20
12.942236894632
 11
103.36365121124
 21
12.758261186102
  0
LINE
  5
A8
100
AcDbEntity
  8
113
  6
ByLayer
 62
  256
370
   -1
100
AcDbLine
 10
103.36365121124
 20
12.758261186102
 11
95.58353098091501
 21
12.330653531508
  0
LINE
  5
A9
100
AcDbEntity
  8
113
  6
ByLayer
 62
  256
370
   -1
100
AcDbLine
 10
95.58353098091501
 20
12.330653531508
 11
88.400461661191
 21
11.668945273412
  0
LINE
  5
AA
100
AcDbEntity
  8
113
  6
ByLayer
 62
  256
370
   -1
100
AcDbLine
 10
88.400461661191
 20
11.668945273412
 11
81.87098581305901
 21
10.789099154318
  0
LINE
  5
AB
100
AcDbEntity
  8
113
  6
ByLayer
 62
  256
370
   -1
100
AcDbLine
 10
81.87098581305901
 20
10.789099154318
 11
76.04842833555
 21
9.712212441943002
  0
LINE
  5
AC
100
AcDbEntity
  8
113
  6
ByLayer
 62
  256
370
   -1
100
AcDbLine
 10
76.04842833555
 20
9.712212441943002
 11
70.98115618149201
 21
8.461140346148001
  0
LINE
  5
AD
100
AcDbEntity
  8
113
  6
ByLayer
 62
  256
370
   -1
100
AcDbLine
 10
70.98115618149201
 20
8.461140346148001
 11
66.70566430827401
 21
7.057164561616002
  0
LINE
  5
AE
100
AcDbEntity
  8
113
  6
ByLayer
 62
  256
370
   -1
100
AcDbLine
 10
66.70566430827401
 20
7.057164561616002
 11
63.239541947281
 21
5.533421120568002
  0
LINE
  5
AF
100
AcDbEntity
  8
113
  6
ByLayer
 62
  256
370
   -1
100
AcDbLine
 10
63.239541947281
 20
5.533421120568002
 11
60.59497697418101
 21
3.936234545283001
  0
LINE
  5
B0
100
AcDbEntity
  8
113
  6
ByLayer
 62
  256
370
   -1
100
AcDbLine
 10
60.59497697418101
 20
3.936234545283001
 11
58.76663670287201
 21
2.333634842347001
  0
LINE
  5
B1
100
AcDbEntity
  8
113
  6
ByLayer
 62
  256
370
   -1
100
AcDbLine
 10
58.76663670287201
 20
2.333634842347001
 11
57.822117540371
 21
0.9620044084690016
  0
LINE
  5
B2
100
AcDbEntity
  8
113
  6
ByLayer
 62
  256
370
   -1
100
AcDbLine
 10
57.822117540371
 20
0.9620044084690016
 11
57.66621004647501
 21
0.5443361901490016
  0
LINE
  5
B3
100
AcDbEntity
  8
113
  6
ByLayer
 62
  256
370
   -1
100
AcDbLine
 10
57.66621004647501
 20
0.5443361901490016
 11
57.58662784865701
 21
0.1575359447660015
  0
LINE
  5
B4
100
AcDbEntity
  8
113
  6
ByLayer
 62
  256
370
   -1
100
AcDbLine
 10
57.58662784865701
 20
0.1575359447660015
 11
57.57919779631401
 21
-0.07773792815799847
  0
LINE
  5
B5
100
AcDbEntity
  8
113
  6
ByLayer
 62
  256
370
   -1
100
AcDbLine
 10
57.57919779631401
 20
-0.07773792815799847
 11
57.61922629589201
 21
-0.2854007298849985
  0
LINE
  5
B6
100
AcDbEntity
  8
113
  6
ByLayer
 62
  256
370
   -1
100
AcDbLine
 10
57.61922629589201
 20
-0.2854007298849985
 11
57.72313323333201
 21
-0.4779660262569985
  0
LINE
  5
B7
100
AcDbEntity
  8
113
  6
ByLayer
 62
  256
370
   -1
100
AcDbLine
 10
57.72313323333201
 20
-0.4779660262569985
 11
57.88974730120101
 21
-0.6740844847079984
  0
LINE
  5
B8
100
AcDbEntity
  8
113
  6
ByLayer
 62
  256
370
   -1
100
AcDbLine
 10
57.88974730120101
 20
-0.6740844847079984
 11
58.23188482898801
 21
-0.9742805736419985
  0
LINE
  5
B9
100
AcDbEntity
  8
113
  6
ByLayer
 62
  256
370
   -1
100
AcDbLine
 10
58.23188482898801
 20
-0.9742805736419985
 11
58.67410145367601
 21
-1.281365205954998
  0
LINE
  5
BA
100
AcDbEntity
  8
113
  6
ByLayer
 62
  256
370
   -1
100
AcDbLine
 10
58.67410145367601
 20
-1.281365205954998
 11
61.057490375074
 21
-2.394383907753999
  0
LINE
  5
BB
100
AcDbEntity
  8
113
  6
ByLayer
 62
  256
370
   -1
100
AcDbLine
 10
61.057490375074
 20
-2.394383907753999
 11
64.274922782361
 21
-3.385298224137999
  0
LINE
  5
BC
100
AcDbEntity
  8
113
  6
ByLayer
 62
  256
370
   -1
100
AcDbLine
 10
64.274922782361
 20
-3.385298224137999
 11
68.41519437369901
 21
-4.298698279109998
  0
LINE
  5
BD
100
AcDbEntity
  8
113
  6
ByLayer
 62
  256
370
   -1
100
AcDbLine
 10
68.41519437369901
 20
-4.298698279109998
 11
73.42534714200001
 21
-5.089244468868999
  0
LINE
  5
BE
100
AcDbEntity
  8
113
  6
ByLayer
 62
  256
370
   -1
100
AcDbLine
 10
73.42534714200001
 20
-5.089244468868999
 11
79.271003116006
 21
-5.707969471952998
  0
LINE
  5
BF
100
AcDbEntity
  8
113
  6
ByLayer
 62
  256
370
   -1
100
AcDbLine
 10
79.271003116006
 20
-5.707969471952998
 11
85.933807888622
 21
-6.136787673759998
  0
LINE
  5
C0
100
AcDbEntity
  8
113
  6
ByLayer
 62
  256
370
   -1
100
AcDbLine
 10
85.933807888622
 20
-6.136787673759998
 11
93.372000523983
 21
-6.384604542360998
  0
LINE
  5
C1
100
AcDbEntity
  8
113
  6
ByLayer
 62
  256
370
   -1
100
AcDbLine
 10
93.372000523983
 20
-6.384604542360998
 11
101.527001916516
 21
-6.465271720095998
  0
LINE
  5
C2
100
AcDbEntity
  8
113
  6
ByLayer
 62
  256
370
   -1
100
AcDbLine
 10
101.527001916516
 20
-6.465271720095998
 11
110.322679045065
 21
-6.401303030739999
  0
LINE
  5
C3
100
AcDbEntity
  8
113
  6
ByLayer
 62
  256
370
   -1
100
AcDbLine
 10
110.322679045065
 20
-6.401303030739999
 11
119.66772094157
 21
-6.211792551240999
  0
LINE
  5
C4
100
AcDbEntity
  8
113
  6
ByLayer
 62
  256
370
   -1
100
AcDbLine
 10
119.66772094157
 20
-6.211792551240999
 11
129.46377505945
 21
-5.916265996126998
  0
LINE
  5
C5
100
AcDbEntity
  8
113
  6
ByLayer
 62
  256
370
   -1
100
AcDbLine
 10
129.46377505945
 20
-5.916265996126998
 11
139.606906993419
 21
-5.535771583389998
  0
LINE
  5
C6
100
AcDbEntity
  8
113
  6
ByLayer
 62
  256
370
   -1
100
AcDbLine
 10
139.606906993419
 20
-5.535771583389998
 11
149.983148726445
 21
-5.096862872155998
  0
LINE
  5
C7
100
AcDbEntity
  8
113
  6
ByLayer
 62
  256
370
   -1
100
AcDbLine
 10
149.983148726445
 20
-5.096862872155998
 11
160.470215370125
 21
-4.621104083523998
  0
LINE
  5
C8
100
AcDbEntity
  8
113
  6
ByLayer
 62
  256
370
   -1
100
AcDbLine
 10
160.470215370125
 20
-4.621104083523998
 11
170.941782300705
 21
-4.129947605219998
  0
LINE
  5
C9
100
AcDbEntity
  8
113
  6
ByLayer
 62
  256
370
   -1
100
AcDbLine
 10
170.941782300705
 20
-4.129947605219998
 11
181.269064560225
 21
-3.638487018620999
  0
LINE
  5
CA
100
AcDbEntity
  8
113
  6
ByLayer
 62
  256
370
   -1
100
AcDbLine
 10
181.269064560225
 20
-3.638487018620999
 11
191.324036480468
 21
-3.161015413591999
  0
LINE
  5
CB
100
AcDbEntity
  8
113
  6
ByLayer
 62
  256
370
   -1
100
AcDbLine
 10
191.324036480468
 20
-3.161015413591999
 11
200.980861972941
 21
-2.704295766215999
  0
LINE
  5
CC
100
AcDbEntity
  8
113
  6
ByLayer
 62
  256
370
   -1
100
AcDbLine
 10
200.980861972941
 20
-2.704295766215999
 11
210.121702016315
 21
-2.273705888341999
  0
LINE
  5
CD
100
AcDbEntity
  8
113
  6
ByLayer
 62
  256
370
   -1
100
AcDbLine
 10
210.121702016315
 20
-2.273705888341999
 11
218.637299329147
 21
-1.873132480178998
  0
LINE
  5
CE
100
AcDbEntity
  8
113
  6
ByLayer
 62
  256
370
   -1
100
AcDbLine
 10
218.637299329147
 20
-1.873132480178998
 11
226.422952368452
 21
-1.510135085343999
  0
LINE
  5
CF
100
AcDbEntity
  8
113
  6
ByLayer
 62
  256
370
   -1
100
AcDbLine
 10
226.422952368452
 20
-1.510135085343999
 11
233.380106502782
 21
-1.185533815238998
  0
LINE
  5
D0
100
AcDbEntity
  8
113
  6
ByLayer
 62
  256
370
   -1
100
AcDbLine
 10
233.380106502782
 20
-1.185533815238998
 11
239.421072595771
 21
-0.8996406261149984
  0
LINE
  5
D1
100
AcDbEntity
  8
113
  6
ByLayer
 62
  256
370
   -1
100
AcDbLine
 10
239.421072595771
 20
-0.8996406261149984
 11
244.469737246153
 21
-0.6479586391839984
  0
LINE
  5
D2
100
AcDbEntity
  8
113
  6
ByLayer
 62
  256
370
   -1
100
AcDbLine
 10
244.469737246153
 20
-0.6479586391839984
 11
248.462492770548
 21
-0.4260027475919985
  0
LINE
  5
D3
100
AcDbEntity
  8
113
  6
ByLayer
 62
  256
370
   -1
100
AcDbLine
 10
248.462492770548
 20
-0.4260027475919985
 11
251.359981669616
 21
-0.2208218619499985
  0
LINE
  5
D4
100
AcDbEntity
  8
113
  6
ByLayer
 62
  256
370
   -1
100
AcDbLine
 10
251.359981669616
 20
-0.2208218619499985
 11
253.153751694745
 21
-0.05972098317099847
  0
LINE
  5
D5
100
AcDbEntity
  8
113
  6
ByLayer
 62
  256
370
   -1
100
AcDbLine
 10
253.153751694745
 20
-0.05972098317099847
 11
253.7753
 21
1.525764567859215e-15
  0
LINE
  5
D6
100
AcDbEntity
  8
113
  6
ByLayer
 62
  256
370
   -1
100
AcDbLine
 10
253.7753
 20
1.525764567859215e-15
 11
253.7753
 21
1.525764567859215e-15
  0
LINE
  5
D7
100
AcDbEntity
  8
233
  6
ByLayer
 62
  256
370
   -1
100
AcDbLine
 10
299.0783
 20
0
 11
298.482055600909
 21
-0.017538138332
  0
LINE
  5
D8
100
AcDbEntity
  8
233
  6
ByLayer
 62
  256
370
   -1
100
AcDbLine
 10
298.482055600909
 20
-0.017538138332
 11
296.679126323133
 21
-0.034439608335
  0
LINE
  5
D9
100
AcDbEntity
  8
233
  6
ByLayer
 62
  256
370
   -1
100
AcDbLine
 10
296.679126323133
 20
-0.034439608335
 11
293.693281718819
 21
0.035005936537
  0
LINE
  5
DA
100
AcDbEntity
  8
233
  6
ByLayer
 62
  256
370
   -1
100
AcDbLine
 10
293.693281718819
 20
0.035005936537
 11
289.606087477799
 21
0.245012698271
  0
LINE
  5
DB
100
AcDbEntity
  8
233
  6
ByLayer
 62
  256
370
   -1
100
AcDbLine
 10
289.606087477799
 20
0.245012698271
 11
284.504022277237
 21
0.6140548799659999
  0
LINE
  5
DC
100
AcDbEntity
  8
233
  6
ByLayer
 62
  256
370
   -1
100
AcDbLine
 10
284.504022277237
 20
0.6140548799659999
 11
278.477162962332
 21
1.155437587183
  0
LINE
  5
DD
100
AcDbEntity
  8
233
  6
ByLayer
 62
  256
370
   -1
100
AcDbLine
 10
278.477162962332
 20
1.155437587183
 11
271.626296113517
 21
1.881986169745
  0
LINE
  5
DE
100
AcDbEntity
  8
233
  6
ByLayer
 62
  256
370
   -1
100
AcDbLine
 10
271.626296113517
 20
1.881986169745
 11
264.080441756047
 21
2.805912755855
  0
LINE
  5
DF
100
AcDbEntity
  8
233
  6
ByLayer
 62
  256
370
   -1
100
AcDbLine
 10
264.080441756047
 20
2.805912755855
 11
255.997890425974
 21
3.903298095147
  0
LINE
  5
E0
100
AcDbEntity
  8
233
  6
ByLayer
 62
  256
370
   -1
100
AcDbLine
 10
255.997890425974
 20
3.903298095147
 11
247.518810156886
 21
5.109063141402
  0
LINE
  5
E1
100
AcDbEntity
  8
233
  6
ByLayer
 62
  256
370
   -1
100
AcDbLine
 10
247.518810156886
 20
5.109063141402
 11
238.759431696075
 21
6.353259147301
  0
LINE
  5
E2
100
AcDbEntity
  8
233
  6
ByLayer
 62
  256
370
   -1
100
AcDbLine
 10
238.759431696075
 20
6.353259147301
 11
229.817002974508
 21
7.562355429827
  0
LINE
  5
E3
100
AcDbEntity
  8
233
  6
ByLayer
 62
  256
370
   -1
100
AcDbLine
 10
229.817002974508
 20
7.562355429827
 11
220.768319178532
 21
8.678490921947001
  0
LINE
  5
E4
100
AcDbEntity
  8
233
  6
ByLayer
 62
  256
370
   -1
100
AcDbLine
 10
220.768319178532
 20
8.678490921947001
 11
211.686871312118
 21
9.659187401324999
  0
LINE
  5
E5
100
AcDbEntity
  8
233
  6
ByLayer
 62
  256
370
   -1
100
AcDbLine
 10
211.686871312118
 20
9.659187401324999
 11
202.642088687801
 21
10.477885157443
  0
LINE
  5
E6
100
AcDbEntity
  8
233
  6
ByLayer
 62
  256
370
   -1
100
AcDbLine
 10
202.642088687801
 20
10.477885157443
 11
193.711810772275
 21
11.12252356391
  0
LINE
  5
E7
100
AcDbEntity
  8
233
  6
ByLayer
 62
  256
370
   -1
100
AcDbLine
 10
193.711810772275
 20
11.12252356391
 11
184.981735286935
 21
11.582055613601
  0
LINE
  5
E8
100
AcDbEntity
  8
233
  6
ByLayer
 62
  256
370
   -1
100
AcDbLine
 10
184.981735286935
 20
11.582055613601
 11
176.53568060927
 21
11.844135712431
  0
LINE
  5
E9
100
AcDbEntity
  8
233
  6
ByLayer
 62
  256
370
   -1
100
AcDbLine
 10
176.53568060927
 20
11.844135712431
 11
168.454840888954
 21
11.897379581384
  0
LINE
  5
EA
100
AcDbEntity
  8
233
  6
ByLayer
 62
  256
370
   -1
100
AcDbLine
 10
168.454840888954
 20
11.897379581384
 11
160.80973841588
 21
11.728256665774
  0
LINE
  5
EB
100
AcDbEntity
  8
233
  6
ByLayer
 62
  256
370
   -1
100
AcDbLine
 10
160.80973841588
 20
11.728256665774
 11
153.657725643855
 21
11.335170785796
  0
LINE
  5
EC
100
AcDbEntity
  8
233
  6
ByLayer
 62
  256
370
   -1
100
AcDbLine
 10
153.657725643855
 20
11.335170785796
 11
147.054562454067
 21
10.726883796244
  0
LINE
  5
ED
100
AcDbEntity
  8
233
  6
ByLayer
 62
  256
370
   -1
100
AcDbLine
 10
147.054562454067
 20
10.726883796244
 11
141.052226593183
 21
9.918069729766
  0
LINE
  5
EE
100
AcDbEntity
  8
233
  6
ByLayer
 62
  256
370
   -1
100
AcDbLine
 10
141.052226593183
 20
9.918069729766
 11
135.69973791535
 21
8.928122621890999
  0
LINE
  5
EF
100
AcDbEntity
  8
233
  6
ByLayer
 62
  256
370
   -1
100
AcDbLine
 10
135.69973791535
 20
8.928122621890999
 11
131.041558595204
 21
7.778052527476
  0
LINE
  5
F0
100
AcDbEntity
  8
233
  6
ByLayer
 62
  256
370
   -1
100
AcDbLine
 10
131.041558595204
 20
7.778052527476
 11
127.111237266138
 21
6.487423019792
  0
LINE
  5
F1
100
AcDbEntity
  8
233
  6
ByLayer
 62
  256
370
   -1
100
AcDbLine
 10
127.111237266138
 20
6.487423019792
 11
123.924943139397
 21
5.086694981016
  0
LINE
  5
F2
100
AcDbEntity
  8
233
  6
ByLayer
 62
  256
370
   -1
100
AcDbLine
 10
123.924943139397
 20
5.086694981016
 11
121.493880134697
 21
3.618453045471
  0
LINE
  5
F3
100
AcDbEntity
  8
233
  6
ByLayer
 62
  256
370
   -1
100
AcDbLine
 10
121.493880134697
 20
3.618453045471
 11
119.813146086264
 21
2.145234996839
  0
LINE
  5
F4
100
AcDbEntity
  8
233
  6
ByLayer
 62
  256
370
   -1
100
AcDbLine
 10
119.813146086264
 20
2.145234996839
 11
118.944880183727
 21
0.884339523353
  0
LINE
  5
F5
100
AcDbEntity
  8
233
  6
ByLayer
 62
  256
370
   -1
100
AcDbLine
 10
118.944880183727
 20
0.884339523353
 11
118.801559469575
 21
0.5003906455130001
  0
LINE
  5
F6
100
AcDbEntity
  8
233
  6
ByLayer
 62
  256
370
   -1
100
AcDbLine
 10
118.801559469575
 20
0.5003906455130001
 11
118.728402130309
 21
0.144817696342
  0
LINE
  5
F7
100
AcDbEntity
  8
233
  6
ByLayer
 62
  256
370
   -1
100
AcDbLine
 10
118.728402130309
 20
0.144817696342
 11
118.721571923618
 21
-0.071461961846
  0
LINE
  5
F8
100
AcDbEntity
  8
233
  6
ByLayer
 62
  256
370
   -1
100
AcDbLine
 10
118.721571923618
 20
-0.071461961846
 11
118.758368828004
 21
-0.262359655745
  0
LINE
  5
F9
100
AcDbEntity
  8
233
  6
ByLayer
 62
  256
370
   -1
100
AcDbLine
 10
118.758368828004
 20
-0.262359655745
 11
118.853887113284
 21
-0.439378701509
  0
LINE
  5
FA
100
AcDbEntity
  8
233
  6
ByLayer
 62
  256
370
   -1
100
AcDbLine
 10
118.853887113284
 20
-0.439378701509
 11
119.007050034437
 21
-0.619664054196
  0
LINE
  5
FB
100
AcDbEntity
  8
233
  6
ByLayer
 62
  256
370
   -1
100
AcDbLine
 10
119.007050034437
 20
-0.619664054196
 11
119.321565992556
 21
-0.895624604754
  0
LINE
  5
FC
100
AcDbEntity
  8
233
  6
ByLayer
 62
  256
370
   -1
100
AcDbLine
 10
119.321565992556
 20
-0.895624604754
 11
119.728081426012
 21
-1.177917570335
  0
LINE
  5
FD
100
AcDbEntity
  8
233
  6
ByLayer
 62
  256
370
   -1
100
AcDbLine
 10
119.728081426012
 20
-1.177917570335
 11
121.919053737738
 21
-2.201079646898
  0
LINE
  5
FE
100
AcDbEntity
  8
233
  6
ByLayer
 62
  256
370
   -1
100
AcDbLine
 10
121.919053737738
 20
-2.201079646898
 11
124.876735237357
 21
-3.111995113106
  0
LINE
  5
FF
100
AcDbEntity
  8
233
  6
ByLayer
 62
  256
370
   -1
100
AcDbLine
 10
124.876735237357
 20
-3.111995113106
 11
128.682752936863
 21
-3.95165422707
  0
LINE
  5
100
100
AcDbEntity
  8
233
  6
ByLayer
 62
  256
370
   -1
100
AcDbLine
 10
128.682752936863
 20
-3.95165422707
 11
133.288424254
 21
-4.678377758153
  0
LINE
  5
101
100
AcDbEntity
  8
233
  6
ByLayer
 62
  256
370
   -1
100
AcDbLine
 10
133.288424254
 20
-4.678377758153
 11
138.662146632222
 21
-5.247151632261
  0
LINE
  5
102
100
AcDbEntity
  8
233
  6
ByLayer
 62
  256
370
   -1
100
AcDbLine
 10
138.662146632222
 20
-5.247151632261
 11
144.787047459014
 21
-5.64135032912
  0
LINE
  5
103
100
AcDbEntity
  8
233
  6
ByLayer
 62
  256
370
   -1
100
AcDbLine
 10
144.787047459014
 20
-5.64135032912
 11
151.624737257371
 21
-5.869160357357
  0
LINE
  5
104
100
AcDbEntity
  8
233
  6
ByLayer
 62
  256
370
   -1
100
AcDbLine
 10
151.624737257371
 20
-5.869160357357
 11
159.121366151092
 21
-5.943315083552
  0
LINE
  5
105
100
AcDbEntity
  8
233
  6
ByLayer
 62
  256
370
   -1
100
AcDbLine
 10
159.121366151092
 20
-5.943315083552
 11
167.206947517405
 21
-5.88451073738
  0
LINE
  5
106
100
AcDbEntity
  8
233
  6
ByLayer
 62
  256
370
   -1
100
AcDbLine
 10
167.206947517405
 20
-5.88451073738
 11
175.79754213809
 21
-5.710299885917
  0
LINE
  5
107
100
AcDbEntity
  8
233
  6
ByLayer
 62
  256
370
   -1
100
AcDbLine
 10
175.79754213809
 20
-5.710299885917
 11
184.80273769965
 21
-5.438631886699
  0
LINE
  5
108
100
AcDbEntity
  8
233
  6
ByLayer
 62
  256
370
   -1
100
AcDbLine
 10
184.80273769965
 20
-5.438631886699
 11
194.126990666503
 21
-5.08885568543
  0
LINE
  5
109
100
AcDbEntity
  8
233
  6
ByLayer
 62
  256
370
   -1
100
AcDbLine
 10
194.126990666503
 20
-5.08885568543
 11
203.665533928465
 21
-4.685381109772
  0
LINE
  5
10A
100
AcDbEntity
  8
233
  6
ByLayer
 62
  256
370
   -1
100
AcDbLine
 10
203.665533928465
 20
-4.685381109772
 11
213.305954944625
 21
-4.248031450388
  0
LINE
  5
10B
100
AcDbEntity
  8
233
  6
ByLayer
 62
  256
370
   -1
100
AcDbLine
 10
213.305954944625
 20
-4.248031450388
 11
222.932127576085
 21
-3.79652719314
  0
LINE
  5
10C
100
AcDbEntity
  8
233
  6
ByLayer
 62
  256
370
   -1
100
AcDbLine
 10
222.932127576085
 20
-3.79652719314
 11
232.425663978325
 21
-3.344743378977
  0
LINE
  5
10D
100
AcDbEntity
  8
233
  6
ByLayer
 62
  256
370
   -1
100
AcDbLine
 10
232.425663978325
 20
-3.344743378977
 11
241.668874297316
 21
-2.905819182904
  0
LINE
  5
10E
100
AcDbEntity
  8
233
  6
ByLayer
 62
  256
370
   -1
100
AcDbLine
 10
241.668874297316
 20
-2.905819182904
 11
250.546081488817
 21
-2.485971589992
  0
LINE
  5
10F
100
AcDbEntity
  8
233
  6
ByLayer
 62
  256
370
   -1
100
AcDbLine
 10
250.546081488817
 20
-2.485971589992
 11
258.948959953655
 21
-2.090144248654
  0
LINE
  5
110
100
AcDbEntity
  8
233
  6
ByLayer
 62
  256
370
   -1
100
AcDbLine
 10
258.948959953655
 20
-2.090144248654
 11
266.777073008439
 21
-1.721910076623
  0
LINE
  5
111
100
AcDbEntity
  8
233
  6
ByLayer
 62
  256
370
   -1
100
AcDbLine
 10
266.777073008439
 20
-1.721910076623
 11
273.934171912724
 21
-1.388218317728
  0
LINE
  5
112
100
AcDbEntity
  8
233
  6
ByLayer
 62
  256
370
   -1
100
AcDbLine
 10
273.934171912724
 20
-1.388218317728
 11
280.329658582934
 21
-1.089822873843
  0
LINE
  5
113
100
AcDbEntity
  8
233
  6
ByLayer
 62
  256
370
   -1
100
AcDbLine
 10
280.329658582934
 20
-1.089822873843
 11
285.882923233527
 21
-0.827010516255
  0
LINE
  5
114
100
AcDbEntity
  8
233
  6
ByLayer
 62
  256
370
   -1
100
AcDbLine
 10
285.882923233527
 20
-0.827010516255
 11
290.523997277661
 21
-0.595647409808
  0
LINE
  5
115
100
AcDbEntity
  8
233
  6
ByLayer
 62
  256
370
   -1
100
AcDbLine
 10
290.523997277661
 20
-0.595647409808
 11
294.194408230276
 21
-0.391610540904
  0
LINE
  5
116
100
AcDbEntity
  8
233
  6
ByLayer
 62
  256
370
   -1
100
AcDbLine
 10
294.194408230276
 20
-0.391610540904
 11
296.857976015792
 21
-0.20299439215
  0
LINE
  5
117
100
AcDbEntity
  8
233
  6
ByLayer
 62
  256
370
   -1
100
AcDbLine
 10
296.857976015792
 20
-0.20299439215
 11
298.506930755565
 21
-0.054899567327
  0
LINE
  5
118
100
AcDbEntity
  8
233
  6
ByLayer
 62
  256
370
   -1
100
AcDbLine
 10
298.506930755565
 20
-0.054899567327
 11
299.0783
 21
0
  0
LINE
  5
119
100
AcDbEntity
  8
233
  6
ByLayer
 62
  256
370
   -1
100
AcDbLine
 10
299.0783
 20
0
 11
299.0783
 21
0
  0
LINE
  5
11A
100
AcDbEntity
  8
353
  6
ByLayer
 62
  256
370
   -1
100
AcDbLine
 10
344.3817
 20
0
 11
343.837819259361
 21
-0.015997895628
  0
LINE
  5
11B
100
AcDbEntity
  8
353
  6
ByLayer
 62
  256
370
   -1
100
AcDbLine
 10
343.837819259361
 20
-0.015997895628
 11
342.193227691857
 21
-0.031415036715
  0
LINE
  5
11C
100
AcDbEntity
  8
353
  6
ByLayer
 62
  256
370
   -1
100
AcDbLine
 10
342.193227691857
 20
-0.031415036715
 11
339.469607348751
 21
0.031931628573
  0
LINE
  5
11D
100
AcDbEntity
  8
353
  6
ByLayer
 62
  256
370
   -1
100
AcDbLine
 10
339.469607348751
 20
0.031931628573
 11
335.741360619171
 21
0.223495076859
  0
LINE
  5
11E
100
AcDbEntity
  8
353
  6
ByLayer
 62
  256
370
   -1
100
AcDbLine
 10
335.741360619171
 20
0.223495076859
 11
331.087371408873
 21
0.560127061014
  0
LINE
  5
11F
100
AcDbEntity
  8
353
  6
ByLayer
 62
  256
370
   -1
100
AcDbLine
 10
331.087371408873
 20
0.560127061014
 11
325.589805791628
 21
1.053964199307
  0
LINE
  5
120
100
AcDbEntity
  8
353
  6
ByLayer
 62
  256
370
   -1
100
AcDbLine
 10
325.589805791628
 20
1.053964199307
 11
319.340599020993
 21
1.716705487605
  0
LINE
  5
121
100
AcDbEntity
  8
353
  6
ByLayer
 62
  256
370
   -1
100
AcDbLine
 10
319.340599020993
 20
1.716705487605
 11
312.457440264363
 21
2.559490554795
  0
LINE
  5
122
100
AcDbEntity
  8
353
  6
ByLayer
 62
  256
370
   -1
100
AcDbLine
 10
312.457440264363
 20
2.559490554795
 11
305.084718591246
 21
3.560500798263
  0
LINE
  5
123
100
AcDbEntity
  8
353
  6
ByLayer
 62
  256
370
   -1
100
AcDbLine
 10
305.084718591246
 20
3.560500798263
 11
297.350292131694
 21
4.660372574658
  0
LINE
  5
124
100
AcDbEntity
  8
353
  6
ByLayer
 62
  256
370
   -1
100
AcDbLine
 10
297.350292131694
 20
4.660372574658
 11
289.360183961175
 21
5.795300208729
  0
LINE
  5
125
100
AcDbEntity
  8
353
  6
ByLayer
 62
  256
370
   -1
100
AcDbLine
 10
289.360183961175
 20
5.795300208729
 11
281.203101456732
 21
6.898210663983
  0
LINE
  5
126
100
AcDbEntity
  8
353
  6
ByLayer
 62
  256
370
   -1
100
AcDbLine
 10
281.203101456732
 20
6.898210663983
 11
272.949095461428
 21
7.916324375463
  0
LINE
  5
127
100
AcDbEntity
  8
353
  6
ByLayer
 62
  256
370
   -1
100
AcDbLine
 10
272.949095461428
 20
7.916324375463
 11
264.665202817422
 21
8.810893663425
  0
LINE
  5
128
100
AcDbEntity
  8
353
  6
ByLayer
 62
  256
370
   -1
100
AcDbLine
 10
264.665202817422
 20
8.810893663425
 11
256.414755383229
 21
9.557691356847
  0
LINE
  5
129
100
AcDbEntity
  8
353
  6
ByLayer
 62
  256
370
   -1
100
AcDbLine
 10
256.414755383229
 20
9.557691356847
 11
248.268756570975
 21
10.14571602339
  0
LINE
  5
12A
100
AcDbEntity
  8
353
  6
ByLayer
 62
  256
370
   -1
100
AcDbLine
 10
248.268756570975
 20
10.14571602339
 11
240.305377916115
 21
10.564890831429
  0
LINE
  5
12B
100
AcDbEntity
  8
353
  6
ByLayer
 62
  256
370
   -1
100
AcDbLine
 10
240.305377916115
 20
10.564890831429
 11
232.60107665883
 21
10.803954407499
  0
LINE
  5
12C
100
AcDbEntity
  8
353
  6
ByLayer
 62
  256
370
   -1
100
AcDbLine
 10
232.60107665883
 20
10.803954407499
 11
225.229916277666
 21
10.852522268136
  0
LINE
  5
12D
100
AcDbEntity
  8
353
  6
ByLayer
 62
  256
370
   -1
100
AcDbLine
 10
225.229916277666
 20
10.852522268136
 11
218.25622562052
 21
10.698252145446
  0
LINE
  5
12E
100
AcDbEntity
  8
353
  6
ByLayer
 62
  256
370
   -1
100
AcDbLine
 10
218.25622562052
 20
10.698252145446
 11
211.732320306795
 21
10.339688040084
  0
LINE
  5
12F
100
AcDbEntity
  8
353
  6
ByLayer
 62
  256
370
   -1
100
AcDbLine
 10
211.732320306795
 20
10.339688040084
 11
205.709063246943
 21
9.784822319076
  0
LINE
  5
130
100
AcDbEntity
  8
353
  6
ByLayer
 62
  256
370
   -1
100
AcDbLine
 10
205.709063246943
 20
9.784822319076
 11
200.233867373307
 21
9.047040305214001
  0
LINE
  5
131
100
AcDbEntity
  8
353
  6
ByLayer
 62
  256
370
   -1
100
AcDbLine
 10
200.233867373307
 20
9.047040305214001
 11
195.35144749515
 21
8.144032801839
  0
LINE
  5
132
100
AcDbEntity
  8
353
  6
ByLayer
 62
  256
370
   -1
100
AcDbLine
 10
195.35144749515
 20
8.144032801839
 11
191.102361008916
 21
7.094964708804
  0
LINE
  5
133
100
AcDbEntity
  8
353
  6
ByLayer
 62
  256
370
   -1
100
AcDbLine
 10
191.102361008916
 20
7.094964708804
 11
187.517210224002
 21
5.917681477968
  0
LINE
  5
134
100
AcDbEntity
  8
353
  6
ByLayer
 62
  256
370
   -1
100
AcDbLine
 10
187.517210224002
 20
5.917681477968
 11
184.610744331513
 21
4.639968841464
  0
LINE
  5
135
100
AcDbEntity
  8
353
  6
ByLayer
 62
  256
370
   -1
100
AcDbLine
 10
184.610744331513
 20
4.639968841464
 11
182.393183295213
 21
3.300671545659
  0
LINE
  5
136
100
AcDbEntity
  8
353
  6
ByLayer
 62
  256
370
   -1
100
AcDbLine
 10
182.393183295213
 20
3.300671545659
 11
180.860055469656
 21
1.956835151331
  0
LINE
  5
137
100
AcDbEntity
  8
353
  6
ByLayer
 62
  256
370
   -1
100
AcDbLine
 10
180.860055469656
 20
1.956835151331
 11
180.068042827083
 21
0.806674638237
  0
LINE
  5
138
100
AcDbEntity
  8
353
  6
ByLayer
 62
  256
370
   -1
100
AcDbLine
 10
180.068042827083
 20
0.806674638237
 11
179.937308892675
 21
0.456445100877
  0
LINE
  5
139
100
AcDbEntity
  8
353
  6
ByLayer
 62
  256
370
   -1
100
AcDbLine
 10
179.937308892675
 20
0.456445100877
 11
179.870576411961
 21
0.132099447918
  0
LINE
  5
13A
100
AcDbEntity
  8
353
  6
ByLayer
 62
  256
370
   -1
100
AcDbLine
 10
179.870576411961
 20
0.132099447918
 11
179.864346050922
 21
-0.06518599553399999
  0
LINE
  5
13B
100
AcDbEntity
  8
353
  6
ByLayer
 62
  256
370
   -1
100
AcDbLine
 10
179.864346050922
 20
-0.06518599553399999
 11
179.897911360116
 21
-0.239318581605
  0
LINE
  5
13C
100
AcDbEntity
  8
353
  6
ByLayer
 62
  256
370
   -1
100
AcDbLine
 10
179.897911360116
 20
-0.239318581605
 11
179.985040993236
 21
-0.400791376761
  0
LINE
  5
13D
100
AcDbEntity
  8
353
  6
ByLayer
 62
  256
370
   -1
100
AcDbLine
 10
179.985040993236
 20
-0.400791376761
 11
180.124752767673
 21
-0.5652436236840001
  0
LINE
  5
13E
100
AcDbEntity
  8
353
  6
ByLayer
 62
  256
370
   -1
100
AcDbLine
 10
180.124752767673
 20
-0.5652436236840001
 11
180.411647156124
 21
-0.816968635866
  0
LINE
  5
13F
100
AcDbEntity
  8
353
  6
ByLayer
 62
  256
370
   -1
100
AcDbLine
 10
180.411647156124
 20
-0.816968635866
 11
180.782461398348
 21
-1.074469934715
  0
LINE
  5
140
100
AcDbEntity
  8
353
  6
ByLayer
 62
  256
370
   -1
100
AcDbLine
 10
180.782461398348
 20
-1.074469934715
 11
182.781017100402
 21
-2.007775386042
  0
LINE
  5
141
100
AcDbEntity
  8
353
  6
ByLayer
 62
  256
370
   -1
100
AcDbLine
 10
182.781017100402
 20
-2.007775386042
 11
185.478947692353
 21
-2.838692002074
  0
LINE
  5
142
100
AcDbEntity
  8
353
  6
ByLayer
 62
  256
370
   -1
100
AcDbLine
 10
185.478947692353
 20
-2.838692002074
 11
188.950711500027
 21
-3.60461017503
  0
LINE
  5
143
100
AcDbEntity
  8
353
  6
ByLayer
 62
  256
370
   -1
100
AcDbLine
 10
188.950711500027
 20
-3.60461017503
 11
193.151901366
 21
-4.267511047437
  0
LINE
  5
144
100
AcDbEntity
  8
353
  6
ByLayer
 62
  256
370
   -1
100
AcDbLine
 10
193.151901366
 20
-4.267511047437
 11
198.053690148438
 21
-4.786333792569
  0
LINE
  5
145
100
AcDbEntity
  8
353
  6
ByLayer
 62
  256
370
   -1
100
AcDbLine
 10
198.053690148438
 20
-4.786333792569
 11
203.640687029406
 21
-5.14591298448
  0
LINE
  5
146
100
AcDbEntity
  8
353
  6
ByLayer
 62
  256
370
   -1
100
AcDbLine
 10
203.640687029406
 20
-5.14591298448
 11
209.877873990759
 21
-5.353716172353
  0
LINE
  5
147
100
AcDbEntity
  8
353
  6
ByLayer
 62
  256
370
   -1
100
AcDbLine
 10
209.877873990759
 20
-5.353716172353
 11
216.716130385668
 21
-5.421358447008
  0
LINE
  5
148
100
AcDbEntity
  8
353
  6
ByLayer
 62
  256
370
   -1
100
AcDbLine
 10
216.716130385668
 20
-5.421358447008
 11
224.091615989745
 21
-5.36771844402
  0
LINE
  5
149
100
AcDbEntity
  8
353
  6
ByLayer
 62
  256
370
   -1
100
AcDbLine
 10
224.091615989745
 20
-5.36771844402
 11
231.92776333461
 21
-5.208807220593
  0
LINE
  5
14A
100
AcDbEntity
  8
353
  6
ByLayer
 62
  256
370
   -1
100
AcDbLine
 10
231.92776333461
 20
-5.208807220593
 11
240.14210033985
 21
-4.960997777271
  0
LINE
  5
14B
100
AcDbEntity
  8
353
  6
ByLayer
 62
  256
370
   -1
100
AcDbLine
 10
240.14210033985
 20
-4.960997777271
 11
248.647474339587
 21
-4.64193978747
  0
LINE
  5
14C
100
AcDbEntity
  8
353
  6
ByLayer
 62
  256
370
   -1
100
AcDbLine
 10
248.647474339587
 20
-4.64193978747
 11
257.348319130485
 21
-4.273899347388
  0
LINE
  5
14D
100
AcDbEntity
  8
353
  6
ByLayer
 62
  256
370
   -1
100
AcDbLine
 10
257.348319130485
 20
-4.273899347388
 11
266.142094519125
 21
-3.874958817252
  0
LINE
  5
14E
100
AcDbEntity
  8
353
  6
ByLayer
 62
  256
370
   -1
100
AcDbLine
 10
266.142094519125
 20
-3.874958817252
 11
274.922872851465
 21
-3.46310678106
  0
LINE
  5
14F
100
AcDbEntity
  8
353
  6
ByLayer
 62
  256
370
   -1
100
AcDbLine
 10
274.922872851465
 20
-3.46310678106
 11
283.582663396425
 21
-3.050999739333
  0
LINE
  5
150
100
AcDbEntity
  8
353
  6
ByLayer
 62
  256
370
   -1
100
AcDbLine
 10
283.582663396425
 20
-3.050999739333
 11
292.014112114164
 21
-2.650622952216
  0
LINE
  5
151
100
AcDbEntity
  8
353
  6
ByLayer
 62
  256
370
   -1
100
AcDbLine
 10
292.014112114164
 20
-2.650622952216
 11
300.111701004693
 21
-2.267647413768
  0
LINE
  5
152
100
AcDbEntity
  8
353
  6
ByLayer
 62
  256
370
   -1
100
AcDbLine
 10
300.111701004693
 20
-2.267647413768
 11
307.776617890995
 21
-1.906582608966
  0
LINE
  5
153
100
AcDbEntity
  8
353
  6
ByLayer
 62
  256
370
   -1
100
AcDbLine
 10
307.776617890995
 20
-1.906582608966
 11
314.917246687731
 21
-1.570687673067
  0
LINE
  5
154
100
AcDbEntity
  8
353
  6
ByLayer
 62
  256
370
   -1
100
AcDbLine
 10
314.917246687731
 20
-1.570687673067
 11
321.445791456996
 21
-1.266301550112
  0
LINE
  5
155
100
AcDbEntity
  8
353
  6
ByLayer
 62
  256
370
   -1
100
AcDbLine
 10
321.445791456996
 20
-1.266301550112
 11
327.279610663086
 21
-0.994111932447
  0
LINE
  5
156
100
AcDbEntity
  8
353
  6
ByLayer
 62
  256
370
   -1
100
AcDbLine
 10
327.279610663086
 20
-0.994111932447
 11
332.345173871283
 21
-0.754380406395
  0
LINE
  5
157
100
AcDbEntity
  8
353
  6
ByLayer
 62
  256
370
   -1
100
AcDbLine
 10
332.345173871283
 20
-0.754380406395
 11
336.578657309169
 21
-0.543336180432
  0
LINE
  5
158
100
AcDbEntity
  8
353
  6
ByLayer
 62
  256
370
   -1
100
AcDbLine
 10
336.578657309169
 20
-0.543336180432
 11
339.926723690004
 21
-0.357218334216
  0
LINE
  5
159
100
AcDbEntity
  8
353
  6
ByLayer
 62
  256
370
   -1
100
AcDbLine
 10
339.926723690004
 20
-0.357218334216
 11
342.356370361968
 21
-0.18516692235
  0
LINE
  5
15A
100
AcDbEntity
  8
353
  6
ByLayer
 62
  256
370
   -1
100
AcDbLine
 10
342.356370361968
 20
-0.18516692235
 11
343.860509816385
 21
-0.050078151483
  0
LINE
  5
15B
100
AcDbEntity
  8
353
  6
ByLayer
 62
  256
370
   -1
100
AcDbLine
 10
343.860509816385
 20
-0.050078151483
 11
344.3817
 21
0
  0
LINE
  5
15C
100
AcDbEntity
  8
353
  6
ByLayer
 62
  256
370
   -1
100
AcDbLine
 10
344.3817
 20
0
 11
344.3817
 21
0
  0
LINE
  5
15D
100
AcDbEntity
  8
463
  6
ByLayer
 62
  256
370
   -1
100
AcDbLine
 10
385.91
 20
0
 11
385.4141195
 21
-0.014586
  0
LINE
  5
15E
100
AcDbEntity
  8
463
  6
ByLayer
 62
  256
370
   -1
100
AcDbLine
 10
385.4141195
 20
-0.014586
 11
383.9146715
 21
-0.0286425
  0
LINE
  5
15F
100
AcDbEntity
  8
463
  6
ByLayer
 62
  256
370
   -1
100
AcDbLine
 10
383.9146715
 20
-0.0286425
 11
381.4314245
 21
0.0291135
  0
LINE
  5
160
100
AcDbEntity
  8
463
  6
ByLayer
 62
  256
370
   -1
100
AcDbLine
 10
381.4314245
 20
0.0291135
 11
378.0322145
 21
0.2037705
  0
LINE
  5
161
100
AcDbEntity
  8
463
  6
ByLayer
 62
  256
370
   -1
100
AcDbLine
 10
378.0322145
 20
0.2037705
 11
373.7889635
 21
0.510693
  0
LINE
  5
162
100
AcDbEntity
  8
463
  6
ByLayer
 62
  256
370
   -1
100
AcDbLine
 10
373.7889635
 20
0.510693
 11
368.776586
 21
0.9609465
  0
LINE
  5
163
100
AcDbEntity
  8
463
  6
ByLayer
 62
  256
370
   -1
100
AcDbLine
 10
368.776586
 20
0.9609465
 11
363.0789035
 21
1.5651975
  0
LINE
  5
164
100
AcDbEntity
  8
463
  6
ByLayer
 62
  256
370
   -1
100
AcDbLine
 10
363.0789035
 20
1.5651975
 11
356.8032185
 21
2.3336025
  0
LINE
  5
165
100
AcDbEntity
  8
463
  6
ByLayer
 62
  256
370
   -1
100
AcDbLine
 10
356.8032185
 20
2.3336025
 11
350.081177
 21
3.2462685
  0
LINE
  5
166
100
AcDbEntity
  8
463
  6
ByLayer
 62
  256
370
   -1
100
AcDbLine
 10
350.081177
 20
3.2462685
 11
343.029353
 21
4.249071
  0
LINE
  5
167
100
AcDbEntity
  8
463
  6
ByLayer
 62
  256
370
   -1
100
AcDbLine
 10
343.029353
 20
4.249071
 11
335.7444125
 21
5.2838355
  0
LINE
  5
168
100
AcDbEntity
  8
463
  6
ByLayer
 62
  256
370
   -1
100
AcDbLine
 10
335.7444125
 20
5.2838355
 11
328.307234
 21
6.2894085
  0
LINE
  5
169
100
AcDbEntity
  8
463
  6
ByLayer
 62
  256
370
   -1
100
AcDbLine
 10
328.307234
 20
6.2894085
 11
320.781686
 21
7.2176685
  0
LINE
  5
16A
100
AcDbEntity
  8
463
  6
ByLayer
 62
  256
370
   -1
100
AcDbLine
 10
320.781686
 20
7.2176685
 11
313.228889
 21
8.0332875
  0
LINE
  5
16B
100
AcDbEntity
  8
463
  6
ByLayer
 62
  256
370
   -1
100
AcDbLine
 10
313.228889
 20
8.0332875
 11
305.7065855
 21
8.714176500000001
  0
LINE
  5
16C
100
AcDbEntity
  8
463
  6
ByLayer
 62
  256
370
   -1
100
AcDbLine
 10
305.7065855
 20
8.714176500000001
 11
298.2795125
 21
9.250305000000001
  0
LINE
  5
16D
100
AcDbEntity
  8
463
  6
ByLayer
 62
  256
370
   -1
100
AcDbLine
 10
298.2795125
 20
9.250305000000001
 11
291.0189425
 21
9.6324855
  0
LINE
  5
16E
100
AcDbEntity
  8
463
  6
ByLayer
 62
  256
370
   -1
100
AcDbLine
 10
291.0189425
 20
9.6324855
 11
283.994585
 21
9.850450500000001
  0
LINE
  5
16F
100
AcDbEntity
  8
463
  6
ByLayer
 62
  256
370
   -1
100
AcDbLine
 10
283.994585
 20
9.850450500000001
 11
277.273967
 21
9.894731999999999
  0
LINE
  5
170
100
AcDbEntity
  8
463
  6
ByLayer
 62
  256
370
   -1
100
AcDbLine
 10
277.273967
 20
9.894731999999999
 11
270.91574
 21
9.754077000000001
  0
LINE
  5
171
100
AcDbEntity
  8
463
  6
ByLayer
 62
  256
370
   -1
100
AcDbLine
 10
270.91574
 20
9.754077000000001
 11
264.9676025
 21
9.427158
  0
LINE
  5
172
100
AcDbEntity
  8
463
  6
ByLayer
 62
  256
370
   -1
100
AcDbLine
 10
264.9676025
 20
9.427158
 11
259.4759285
 21
8.921262
  0
LINE
  5
173
100
AcDbEntity
  8
463
  6
ByLayer
 62
  256
370
   -1
100
AcDbLine
 10
259.4759285
 20
8.921262
 11
254.4839465
 21
8.248593
  0
LINE
  5
174
100
AcDbEntity
  8
463
  6
ByLayer
 62
  256
370
   -1
100
AcDbLine
 10
254.4839465
 20
8.248593
 11
250.032425
 21
7.4252805
  0
LINE
  5
175
100
AcDbEntity
  8
463
  6
ByLayer
 62
  256
370
   -1
100
AcDbLine
 10
250.032425
 20
7.4252805
 11
246.158342
 21
6.468798
  0
LINE
  5
176
100
AcDbEntity
  8
463
  6
ByLayer
 62
  256
370
   -1
100
AcDbLine
 10
246.158342
 20
6.468798
 11
242.889599
 21
5.395416
  0
LINE
  5
177
100
AcDbEntity
  8
463
  6
ByLayer
 62
  256
370
   -1
100
AcDbLine
 10
242.889599
 20
5.395416
 11
240.2396435
 21
4.230468
  0
LINE
  5
178
100
AcDbEntity
  8
463
  6
ByLayer
 62
  256
370
   -1
100
AcDbLine
 10
240.2396435
 20
4.230468
 11
238.2177935
 21
3.0093705
  0
LINE
  5
179
100
AcDbEntity
  8
463
  6
ByLayer
 62
  256
370
   -1
100
AcDbLine
 10
238.2177935
 20
3.0093705
 11
236.819972
 21
1.7841345
  0
LINE
  5
17A
100
AcDbEntity
  8
463
  6
ByLayer
 62
  256
370
   -1
100
AcDbLine
 10
236.819972
 20
1.7841345
 11
236.0978585
 21
0.7354815
  0
LINE
  5
17B
100
AcDbEntity
  8
463
  6
ByLayer
 62
  256
370
   -1
100
AcDbLine
 10
236.0978585
 20
0.7354815
 11
235.9786625
 21
0.4161615
  0
LINE
  5
17C
100
AcDbEntity
  8
463
  6
ByLayer
 62
  256
370
   -1
100
AcDbLine
 10
235.9786625
 20
0.4161615
 11
235.9178195
 21
0.120441
  0
LINE
  5
17D
100
AcDbEntity
  8
463
  6
ByLayer
 62
  256
370
   -1
100
AcDbLine
 10
235.9178195
 20
0.120441
 11
235.912139
 21
-0.059433
  0
LINE
  5
17E
100
AcDbEntity
  8
463
  6
ByLayer
 62
  256
370
   -1
100
AcDbLine
 10
235.912139
 20
-0.059433
 11
235.942742
 21
-0.2181975
  0
LINE
  5
17F
100
AcDbEntity
  8
463
  6
ByLayer
 62
  256
370
   -1
100
AcDbLine
 10
235.942742
 20
-0.2181975
 11
236.022182
 21
-0.3654195
  0
LINE
  5
180
100
AcDbEntity
  8
463
  6
ByLayer
 62
  256
370
   -1
100
AcDbLine
 10
236.022182
 20
-0.3654195
 11
236.1495635
 21
-0.515358
  0
LINE
  5
181
100
AcDbEntity
  8
463
  6
ByLayer
 62
  256
370
   -1
100
AcDbLine
 10
236.1495635
 20
-0.515358
 11
236.411138
 21
-0.7448669999999999
  0
LINE
  5
182
100
AcDbEntity
  8
463
  6
ByLayer
 62
  256
370
   -1
100
AcDbLine
 10
236.411138
 20
-0.7448669999999999
 11
236.749226
 21
-0.9796425
  0
LINE
  5
183
100
AcDbEntity
  8
463
  6
ByLayer
 62
  256
370
   -1
100
AcDbLine
 10
236.749226
 20
-0.9796425
 11
238.571399
 21
-1.830579
  0
LINE
  5
184
100
AcDbEntity
  8
463
  6
ByLayer
 62
  256
370
   -1
100
AcDbLine
 10
238.571399
 20
-1.830579
 11
241.0312235
 21
-2.588163
  0
LINE
  5
185
100
AcDbEntity
  8
463
  6
ByLayer
 62
  256
370
   -1
100
AcDbLine
 10
241.0312235
 20
-2.588163
 11
244.1965865
 21
-3.286485
  0
LINE
  5
186
100
AcDbEntity
  8
463
  6
ByLayer
 62
  256
370
   -1
100
AcDbLine
 10
244.1965865
 20
-3.286485
 11
248.027
 21
-3.8908815
  0
LINE
  5
187
100
AcDbEntity
  8
463
  6
ByLayer
 62
  256
370
   -1
100
AcDbLine
 10
248.027
 20
-3.8908815
 11
252.496181
 21
-4.3639155
  0
LINE
  5
188
100
AcDbEntity
  8
463
  6
ByLayer
 62
  256
370
   -1
100
AcDbLine
 10
252.496181
 20
-4.3639155
 11
257.590097
 21
-4.69176
  0
LINE
  5
189
100
AcDbEntity
  8
463
  6
ByLayer
 62
  256
370
   -1
100
AcDbLine
 10
257.590097
 20
-4.69176
 11
263.2768205
 21
-4.8812235
  0
LINE
  5
18A
100
AcDbEntity
  8
463
  6
ByLayer
 62
  256
370
   -1
100
AcDbLine
 10
263.2768205
 20
-4.8812235
 11
269.511566
 21
-4.942896
  0
LINE
  5
18B
100
AcDbEntity
  8
463
  6
ByLayer
 62
  256
370
   -1
100
AcDbLine
 10
269.511566
 20
-4.942896
 11
276.2361275
 21
-4.89399
  0
LINE
  5
18C
100
AcDbEntity
  8
463
  6
ByLayer
 62
  256
370
   -1
100
AcDbLine
 10
276.2361275
 20
-4.89399
 11
283.380695
 21
-4.7491035
  0
LINE
  5
18D
100
AcDbEntity
  8
463
  6
ByLayer
 62
  256
370
   -1
100
AcDbLine
 10
283.380695
 20
-4.7491035
 11
290.870075
 21
-4.5231645
  0
LINE
  5
18E
100
AcDbEntity
  8
463
  6
ByLayer
 62
  256
370
   -1
100
AcDbLine
 10
290.870075
 20
-4.5231645
 11
298.6248065
 21
-4.232265
  0
LINE
  5
18F
100
AcDbEntity
  8
463
  6
ByLayer
 62
  256
370
   -1
100
AcDbLine
 10
298.6248065
 20
-4.232265
 11
306.5577575
 21
-3.896706
  0
LINE
  5
190
100
AcDbEntity
  8
463
  6
ByLayer
 62
  256
370
   -1
100
AcDbLine
 10
306.5577575
 20
-3.896706
 11
314.5754375
 21
-3.532974
  0
LINE
  5
191
100
AcDbEntity
  8
463
  6
ByLayer
 62
  256
370
   -1
100
AcDbLine
 10
314.5754375
 20
-3.532974
 11
322.5812675
 21
-3.15747
  0
LINE
  5
192
100
AcDbEntity
  8
463
  6
ByLayer
 62
  256
370
   -1
100
AcDbLine
 10
322.5812675
 20
-3.15747
 11
330.4767875
 21
-2.7817335
  0
LINE
  5
193
100
AcDbEntity
  8
463
  6
ByLayer
 62
  256
370
   -1
100
AcDbLine
 10
330.4767875
 20
-2.7817335
 11
338.164118
 21
-2.416692
  0
LINE
  5
194
100
AcDbEntity
  8
463
  6
ByLayer
 62
  256
370
   -1
100
AcDbLine
 10
338.164118
 20
-2.416692
 11
345.5470535
 21
-2.067516
  0
LINE
  5
195
100
AcDbEntity
  8
463
  6
ByLayer
 62
  256
370
   -1
100
AcDbLine
 10
345.5470535
 20
-2.067516
 11
352.5355025
 21
-1.738317
  0
LINE
  5
196
100
AcDbEntity
  8
463
  6
ByLayer
 62
  256
370
   -1
100
AcDbLine
 10
352.5355025
 20
-1.738317
 11
359.0459345
 21
-1.4320665
  0
LINE
  5
197
100
AcDbEntity
  8
463
  6
ByLayer
 62
  256
370
   -1
100
AcDbLine
 10
359.0459345
 20
-1.4320665
 11
364.998302
 21
-1.154544
  0
LINE
  5
198
100
AcDbEntity
  8
463
  6
ByLayer
 62
  256
370
   -1
100
AcDbLine
 10
364.998302
 20
-1.154544
 11
370.317257
 21
-0.9063765
  0
LINE
  5
199
100
AcDbEntity
  8
463
  6
ByLayer
 62
  256
370
   -1
100
AcDbLine
 10
370.317257
 20
-0.9063765
 11
374.9357585
 21
-0.6878025
  0
LINE
  5
19A
100
AcDbEntity
  8
463
  6
ByLayer
 62
  256
370
   -1
100
AcDbLine
 10
374.9357585
 20
-0.6878025
 11
378.7956155
 21
-0.495384
  0
LINE
  5
19B
100
AcDbEntity
  8
463
  6
ByLayer
 62
  256
370
   -1
100
AcDbLine
 10
378.7956155
 20
-0.495384
 11
381.848198
 21
-0.325692
  0
LINE
  5
19C
100
AcDbEntity
  8
463
  6
ByLayer
 62
  256
370
   -1
100
AcDbLine
 10
381.848198
 20
-0.325692
 11
384.063416
 21
-0.168825
  0
LINE
  5
19D
100
AcDbEntity
  8
463
  6
ByLayer
 62
  256
370
   -1
100
AcDbLine
 10
384.063416
 20
-0.168825
 11
385.4348075
 21
-0.0456585
  0
LINE
  5
19E
100
AcDbEntity
  8
463
  6
ByLayer
 62
  256
370
   -1
100
AcDbLine
 10
385.4348075
 20
-0.0456585
 11
385.91
 21
0
  0
LINE
  5
19F
100
AcDbEntity
  8
463
  6
ByLayer
 62
  256
370
   -1
100
AcDbLine
 10
385.91
 20
0
 11
385.91
 21
0
  0
ENDSEC
  0
SECTION
  2
OBJECTS
  0
DICTIONARY
  5
C
330
0
100
AcDbDictionary
281
    1
  3
ACAD_GROUP
350
D
  0
DICTIONARY
  5
D
330
C
100
AcDbDictionary
281
    1
  0
ENDSEC
  0
EOF
