999
dxfrw 0.6.3
  0
SECTION
  2
HEADER
  9
$ACADVER
  1
AC1021
  9
$DWGCODEPAGE
  3
ANSI_1252
  9
$INSBASE
 10
0
 20
0
 30
0
  9
$EXTMIN
 10
-173.6278579257494
 20
-132.45
 30
0
  9
$EXTMAX
 10
177.529621741481
 20
200
 30
0
  9
$LIMMIN
 10
0
 20
0
  9
$LIMMAX
 10
420
 20
297
  9
$ORTHOMODE
 70
    0
  9
$REGENMODE
 70
    1
  9
$FILLMODE
 70
    1
  9
$QTEXTMODE
 70
    0
  9
$MIRRTEXT
 70
    0
  9
$LTSCALE
 40
1
  9
$ATTMODE
 70
    0
  9
$TEXTSIZE
 40
2.5
  9
$TRACEWID
 40
15.68
  9
$TEXTSTYLE
  7
STANDARD
  9
$CLAYER
  8
9900-225 wheelbase baseline
  9
$CELTYPE
  6
BYLAYER
  9
$CECOLOR
 62
  256
  9
$CELTSCALE
 40
1
  9
$DISPSILH
 70
    0
  9
$DIMSCALE
 40
2.5
  9
$DIMASZ
 40
2.5
  9
$DIMEXO
 40
0.625
  9
$DIMDLI
 40
3.75
  9
$DIMRND
 40
0
  9
$DIMDLE
 40
0
  9
$DIMEXE
 40
1.25
  9
$DIMTP
 40
0
  9
$DIMTM
 40
0
  9
$DIMTXT
 40
2.5
  9
$DIMCEN
 40
2.5
  9
$DIMTSZ
 40
0
  9
$DIMTOL
 70
    0
  9
$DIMLIM
 70
    0
  9
$DIMTIH
 70
    0
  9
$DIMTOH
 70
    0
  9
$DIMSE1
 70
    0
  9
$DIMSE2
 70
    0
  9
$DIMTAD
 70
    1
  9
$DIMZIN
 70
    8
  9
$DIMBLK
  1

  9
$DIMASO
 70
    1
  9
$DIMSHO
 70
    1
  9
$DIMPOST
  1

  9
$DIMAPOST
  1

  9
$DIMALT
 70
    0
  9
$DIMALTD
 70
    3
  9
$DIMALTF
 40
0.03937
  9
$DIMLFAC
 40
1
  9
$DIMTOFL
 70
    1
  9
$DIMTVP
 40
0
  9
$DIMTIX
 70
    0
  9
$DIMSOXD
 70
    0
  9
$DIMSAH
 70
    0
  9
$DIMBLK1
  1

  9
$DIMBLK2
  1

  9
$DIMSTYLE
  2
STANDARD
  9
$DIMCLRD
 70
    0
  9
$DIMCLRE
 70
    0
  9
$DIMCLRT
 70
    0
  9
$DIMTFAC
 40
1
  9
$DIMGAP
 40
0.625
  9
$DIMJUST
 70
    0
  9
$DIMSD1
 70
    0
  9
$DIMSD2
 70
    0
  9
$DIMTOLJ
 70
    0
  9
$DIMTZIN
 70
    8
  9
$DIMALTZ
 70
    0
  9
$DIMALTTZ
 70
    0
  9
$DIMUPT
 70
    0
  9
$DIMDEC
 70
    2
  9
$DIMTDEC
 70
    2
  9
$DIMALTU
 70
    2
  9
$DIMALTTD
 70
    3
  9
$DIMTXSTY
  7
STANDARD
  9
$DIMAUNIT
 70
    0
  9
$DIMADEC
 70
    0
  9
$DIMALTRND
 40
0
  9
$DIMAZIN
 70
    0
  9
$DIMDSEP
 70
   44
  9
$DIMATFIT
 70
    3
  9
$DIMFRAC
 70
    0
  9
$DIMLDRBLK
  1
STANDARD
  9
$DIMLUNIT
 70
    2
  9
$DIMLWD
 70
   -2
  9
$DIMLWE
 70
   -2
  9
$DIMTMOVE
 70
    0
  9
$DIMFXL
 40
1
  9
$DIMFXLON
 70
    0
  9
$DIMJOGANG
 40
0.7854
  9
$DIMTFILL
 70
    0
  9
$DIMTFILLCLR
 70
    0
  9
$DIMARCSYM
 70
    0
  9
$DIMLTYPE
  6

  9
$DIMLTEX1
  6

  9
$DIMLTEX2
  6

  9
$LUNITS
 70
    2
  9
$LUPREC
 70
    4
  9
$SKETCHINC
 40
1
  9
$FILLETRAD
 40
0
  9
$AUNITS
 70
    0
  9
$AUPREC
 70
    2
  9
$MENU
  1
.
  9
$ELEVATION
 40
0
  9
$PELEVATION
 40
0
  9
$THICKNESS
 40
0
  9
$LIMCHECK
 70
    0
  9
$CHAMFERA
 40
0
  9
$CHAMFERB
 40
0
  9
$CHAMFERC
 40
0
  9
$CHAMFERD
 40
0
  9
$SKPOLY
 70
    0
  9
$USRTIMER
 70
    1
  9
$ANGBASE
 50
0
  9
$ANGDIR
 70
    0
  9
$PDMODE
 70
   34
  9
$PDSIZE
 40
0
  9
$PLINEWID
 40
0
  9
$SPLFRAME
 70
    0
  9
$SPLINETYPE
 70
    2
  9
$SPLINESEGS
 70
    8
  9
$HANDSEED
  5
20000
  9
$SURFTAB1
 70
    6
  9
$SURFTAB2
 70
    6
  9
$SURFTYPE
 70
    6
  9
$SURFU
 70
    6
  9
$SURFV
 70
    6
  9
$UCSBASE
  2

  9
$UCSNAME
  2

  9
$UCSORG
 10
0
 20
0
 30
0
  9
$UCSXDIR
 10
1
 20
0
 30
0
  9
$UCSYDIR
 10
0
 20
1
 30
0
  9
$UCSORTHOREF
  2

  9
$UCSORTHOVIEW
 70
    0
  9
$UCSORGTOP
 10
0
 20
0
 30
0
  9
$UCSORGBOTTOM
 10
0
 20
0
 30
0
  9
$UCSORGLEFT
 10
0
 20
0
 30
0
  9
$UCSORGRIGHT
 10
0
 20
0
 30
0
  9
$UCSORGFRONT
 10
0
 20
0
 30
0
  9
$UCSORGBACK
 10
0
 20
0
 30
0
  9
$PUCSBASE
  2

  9
$PUCSNAME
  2

  9
$PUCSORG
 10
0
 20
0
 30
0
  9
$PUCSXDIR
 10
1
 20
0
 30
0
  9
$PUCSYDIR
 10
0
 20
1
 30
0
  9
$PUCSORTHOREF
  2

  9
$PUCSORTHOVIEW
 70
    0
  9
$PUCSORGTOP
 10
0
 20
0
 30
0
  9
$PUCSORGBOTTOM
 10
0
 20
0
 30
0
  9
$PUCSORGLEFT
 10
0
 20
0
 30
0
  9
$PUCSORGRIGHT
 10
0
 20
0
 30
0
  9
$PUCSORGFRONT
 10
0
 20
0
 30
0
  9
$PUCSORGBACK
 10
0
 20
0
 30
0
  9
$USERI1
 70
    0
  9
$USERI2
 70
    0
  9
$USERI3
 70
    0
  9
$USERI4
 70
    0
  9
$USERI5
 70
    0
  9
$USERR1
 40
0
  9
$USERR2
 40
0
  9
$USERR3
 40
0
  9
$USERR4
 40
0
  9
$USERR5
 40
0
  9
$WORLDVIEW
 70
    1
  9
$SHADEDGE
 70
    3
  9
$SHADEDIF
 70
   70
  9
$TILEMODE
 70
    1
  9
$MAXACTVP
 70
   64
  9
$PINSBASE
 10
105
 20
118.5698729810778
 30
0
  9
$PLIMCHECK
 70
    0
  9
$PEXTMIN
 10
0
 20
0
 30
0
  9
$PEXTMAX
 10
0
 20
0
 30
0
  9
$GRIDMODE
 70
    1
  9
$SNAPSTYLE
 70
    0
  9
$PLIMMIN
 10
0
 20
0
  9
$PLIMMAX
 10
210
 20
297
  9
$UNITMODE
 70
    0
  9
$VISRETAIN
 70
    1
  9
$PLINEGEN
 70
    0
  9
$PSLTSCALE
 70
    1
  9
$TREEDEPTH
 70
 3020
  9
$CMLSTYLE
  2
Standard
  9
$CMLJUST
 70
    0
  9
$CMLSCALE
 40
20
  9
$PROXYGRAPHICS
 70
    1
  9
$MEASUREMENT
 70
    1
  9
$CELWEIGHT
370
   -1
  9
$ENDCAPS
280
    0
  9
$JOINSTYLE
280
    0
  9
$LWDISPLAY
290
    0
  9
$INSUNITS
 70
    4
  9
$HYPERLINKBASE
  1

  9
$STYLESHEET
  1

  9
$XEDIT
290
    1
  9
$CEPSNTYPE
380
    0
  9
$PSTYLEMODE
290
    1
  9
$EXTNAMES
290
    1
  9
$PSVPSCALE
 40
1
  9
$OLESTARTUP
290
    0
  9
$SORTENTS
280
  127
  9
$INDEXCTL
280
    0
  9
$HIDETEXT
280
    1
  9
$XCLIPFRAME
290
    0
  9
$HALOGAP
280
    0
  9
$OBSCOLOR
 70
  257
  9
$OBSLTYPE
280
    0
  9
$INTERSECTIONDISPLAY
280
    0
  9
$INTERSECTIONCOLOR
 70
  257
  9
$DIMASSOC
280
    1
  9
$PROJECTNAME
  1

  9
$CAMERADISPLAY
290
    0
  9
$LENSLENGTH
 40
50
  9
$CAMERAHEIGHT
 40
0
  9
$STEPSPERSEC
 40
2
  9
$STEPSIZE
 40
50
  9
$3DDWFPREC
 40
2
  9
$PSOLWIDTH
 40
5
  9
$PSOLHEIGHT
 40
80
  9
$LOFTANG1
 40
1.570796326794897
  9
$LOFTANG2
 40
1.570796326794897
  9
$LOFTMAG1
 40
0
  9
$LOFTMAG2
 40
0
  9
$LOFTPARAM
 70
    7
  9
$LOFTNORMALS
280
    1
  9
$LATITUDE
 40
1
  9
$LONGITUDE
 40
1
  9
$NORTHDIRECTION
 40
0
  9
$TIMEZONE
 70
-8000
  9
$LIGHTGLYPHDISPLAY
280
    1
  9
$TILEMODELIGHTSYNCH
280
    1
  9
$SOLIDHIST
280
    1
  9
$SHOWHIST
280
    1
  9
$DWFFRAME
280
    2
  9
$DGNFRAME
280
    0
  9
$REALWORLDSCALE
290
    1
  9
$INTERFERECOLOR
 62
    1
  9
$CSHADOW
280
    0
  9
$SHADOWPLANELOCATION
 40
0
  0
ENDSEC
  0
SECTION
  2
CLASSES
  0
ENDSEC
  0
SECTION
  2
TABLES
  0
TABLE
  2
VPORT
  5
8
330
0
100
AcDbSymbolTable
 70
    1
  0
VPORT
  5
31
330
2
100
AcDbSymbolTableRecord
100
AcDbViewportTableRecord
  2
*ACTIVE
 70
    0
 10
0
 20
0
 11
1
 21
1
 12
146.7857995226731
 22
102.1549821002387
 13
0
 23
0
 14
10
 24
10
 15
10
 25
10
 16
0
 26
0
 36
1
 17
0
 27
0
 37
0
 40
340.3843675417662
 41
1.712121212121212
 42
50
 43
0
 44
0
 50
0
 51
0
 71
    0
 72
  100
 73
    1
 74
    3
 75
    0
 76
    1
 77
    0
 78
    0
281
    0
 65
    1
110
0
120
0
130
0
111
1
121
0
131
0
112
0
122
1
132
0
 79
    0
146
0
348
10020
 60
    7
 61
    5
292
1
282
    1
141
0
142
0
 63
  250
421
3358443
  0
ENDTAB
  0
TABLE
  2
LTYPE
  5
5
330
0
100
AcDbSymbolTable
 70
    4
  0
LTYPE
  5
14
330
5
100
AcDbSymbolTableRecord
100
AcDbLinetypeTableRecord
  2
ByBlock
 70
    0
  3

 72
   65
 73
    0
 40
0
  0
LTYPE
  5
15
330
5
100
AcDbSymbolTableRecord
100
AcDbLinetypeTableRecord
  2
ByLayer
 70
    0
  3

 72
   65
 73
    0
 40
0
  0
LTYPE
  5
16
330
5
100
AcDbSymbolTableRecord
100
AcDbLinetypeTableRecord
  2
Continuous
 70
    0
  3
Solid line
 72
   65
 73
    0
 40
0
  0
LTYPE
  5
32
330
5
100
AcDbSymbolTableRecord
100
AcDbLinetypeTableRecord
  2
DOT
 70
    0
  3
Dot . . . . . . . . . . . . . . . . . . . . . .
 72
   65
 73
    2
 40
6.35
 49
0
 74
    0
 49
-6.35
 74
    0
  0
LTYPE
  5
33
330
5
100
AcDbSymbolTableRecord
100
AcDbLinetypeTableRecord
  2
DOTTINY
 70
    0
  3
Dot (.15x) .....................................
 72
   65
 73
    2
 40
0.9525
 49
0
 74
    0
 49
-0.9525
 74
    0
  0
LTYPE
  5
34
330
5
100
AcDbSymbolTableRecord
100
AcDbLinetypeTableRecord
  2
DOT2
 70
    0
  3
Dot (.5x) .....................................
 72
   65
 73
    2
 40
3.175
 49
0
 74
    0
 49
-3.175
 74
    0
  0
LTYPE
  5
35
330
5
100
AcDbSymbolTableRecord
100
AcDbLinetypeTableRecord
  2
DOTX2
 70
    0
  3
Dot (2x) .  .  .  .  .  .  .  .  .  .  .  .  .
 72
   65
 73
    2
 40
12.7
 49
0
 74
    0
 49
-12.7
 74
    0
  0
LTYPE
  5
36
330
5
100
AcDbSymbolTableRecord
100
AcDbLinetypeTableRecord
  2
DASHED
 70
    0
  3
Dashed _ _ _ _ _ _ _ _ _ _ _ _ _ _ _ _ _
 72
   65
 73
    2
 40
19.05
 49
12.7
 74
    0
 49
-6.35
 74
    0
  0
LTYPE
  5
37
330
5
100
AcDbSymbolTableRecord
100
AcDbLinetypeTableRecord
  2
DASHEDTINY
 70
    0
  3
Dashed (.15x) _ _ _ _ _ _ _ _ _ _ _ _ _ _ _ _ _
 72
   65
 73
    2
 40
2.8575
 49
1.905
 74
    0
 49
-0.9525
 74
    0
  0
LTYPE
  5
38
330
5
100
AcDbSymbolTableRecord
100
AcDbLinetypeTableRecord
  2
DASHED2
 70
    0
  3
Dashed (.5x) _ _ _ _ _ _ _ _ _ _ _ _ _ _ _ _ _
 72
   65
 73
    2
 40
9.524999999999999
 49
6.35
 74
    0
 49
-3.175
 74
    0
  0
LTYPE
  5
39
330
5
100
AcDbSymbolTableRecord
100
AcDbLinetypeTableRecord
  2
DASHEDX2
 70
    0
  3
Dashed (2x) ____  ____  ____  ____  ____  ___
 72
   65
 73
    2
 40
38.09999999999999
 49
25.4
 74
    0
 49
-12.7
 74
    0
  0
LTYPE
  5
3A
330
5
100
AcDbSymbolTableRecord
100
AcDbLinetypeTableRecord
  2
DASHDOT
 70
    0
  3
Dash dot __ . __ . __ . __ . __ . __ . __ . __
 72
   65
 73
    4
 40
25.4
 49
12.7
 74
    0
 49
-6.35
 74
    0
 49
0
 74
    0
 49
-6.35
 74
    0
  0
LTYPE
  5
3B
330
5
100
AcDbSymbolTableRecord
100
AcDbLinetypeTableRecord
  2
DASHDOTTINY
 70
    0
  3
Dash dot (.15x) _._._._._._._._._._._._._._._.
 72
   65
 73
    4
 40
3.81
 49
1.905
 74
    0
 49
-0.9525
 74
    0
 49
0
 74
    0
 49
-0.9525
 74
    0
  0
LTYPE
  5
3C
330
5
100
AcDbSymbolTableRecord
100
AcDbLinetypeTableRecord
  2
DASHDOT2
 70
    0
  3
Dash dot (.5x) _._._._._._._._._._._._._._._.
 72
   65
 73
    4
 40
12.7
 49
6.35
 74
    0
 49
-3.175
 74
    0
 49
0
 74
    0
 49
-3.175
 74
    0
  0
LTYPE
  5
3D
330
5
100
AcDbSymbolTableRecord
100
AcDbLinetypeTableRecord
  2
DASHDOTX2
 70
    0
  3
Dash dot (2x) ____  .  ____  .  ____  .  ___
 72
   65
 73
    4
 40
50.8
 49
25.4
 74
    0
 49
-12.7
 74
    0
 49
0
 74
    0
 49
-12.7
 74
    0
  0
LTYPE
  5
3E
330
5
100
AcDbSymbolTableRecord
100
AcDbLinetypeTableRecord
  2
DIVIDE
 70
    0
  3
Divide ____ . . ____ . . ____ . . ____ . . ____
 72
   65
 73
    6
 40
31.75
 49
12.7
 74
    0
 49
-6.35
 74
    0
 49
0
 74
    0
 49
-6.35
 74
    0
 49
0
 74
    0
 49
-6.35
 74
    0
  0
LTYPE
  5
3F
330
5
100
AcDbSymbolTableRecord
100
AcDbLinetypeTableRecord
  2
DIVIDETINY
 70
    0
  3
Divide (.15x) __..__..__..__..__..__..__..__.._
 72
   65
 73
    6
 40
4.7625
 49
1.905
 74
    0
 49
-0.9525
 74
    0
 49
0
 74
    0
 49
-0.9525
 74
    0
 49
0
 74
    0
 49
-0.9525
 74
    0
  0
LTYPE
  5
40
330
5
100
AcDbSymbolTableRecord
100
AcDbLinetypeTableRecord
  2
DIVIDE2
 70
    0
  3
Divide (.5x) __..__..__..__..__..__..__..__.._
 72
   65
 73
    6
 40
15.875
 49
6.35
 74
    0
 49
-3.175
 74
    0
 49
0
 74
    0
 49
-3.175
 74
    0
 49
0
 74
    0
 49
-3.175
 74
    0
  0
LTYPE
  5
41
330
5
100
AcDbSymbolTableRecord
100
AcDbLinetypeTableRecord
  2
DIVIDEX2
 70
    0
  3
Divide (2x) ________  .  .  ________  .  .  _
 72
   65
 73
    6
 40
63.5
 49
25.4
 74
    0
 49
-12.7
 74
    0
 49
0
 74
    0
 49
-12.7
 74
    0
 49
0
 74
    0
 49
-12.7
 74
    0
  0
LTYPE
  5
42
330
5
100
AcDbSymbolTableRecord
100
AcDbLinetypeTableRecord
  2
BORDER
 70
    0
  3
Border __ __ . __ __ . __ __ . __ __ . __ __ .
 72
   65
 73
    6
 40
44.45
 49
12.7
 74
    0
 49
-6.35
 74
    0
 49
12.7
 74
    0
 49
-6.35
 74
    0
 49
0
 74
    0
 49
-6.35
 74
    0
  0
LTYPE
  5
43
330
5
100
AcDbSymbolTableRecord
100
AcDbLinetypeTableRecord
  2
BORDERTINY
 70
    0
  3
Border (.15x) __.__.__.__.__.__.__.__.__.__.__.
 72
   65
 73
    6
 40
6.6675
 49
1.905
 74
    0
 49
-0.9525
 74
    0
 49
1.905
 74
    0
 49
-0.9525
 74
    0
 49
0
 74
    0
 49
-0.9525
 74
    0
  0
LTYPE
  5
44
330
5
100
AcDbSymbolTableRecord
100
AcDbLinetypeTableRecord
  2
BORDER2
 70
    0
  3
Border (.5x) __.__.__.__.__.__.__.__.__.__.__.
 72
   65
 73
    6
 40
22.225
 49
6.35
 74
    0
 49
-3.175
 74
    0
 49
6.35
 74
    0
 49
-3.175
 74
    0
 49
0
 74
    0
 49
-3.175
 74
    0
  0
LTYPE
  5
45
330
5
100
AcDbSymbolTableRecord
100
AcDbLinetypeTableRecord
  2
BORDERX2
 70
    0
  3
Border (2x) ____  ____  .  ____  ____  .  ___
 72
   65
 73
    6
 40
88.89999999999999
 49
25.4
 74
    0
 49
-12.7
 74
    0
 49
25.4
 74
    0
 49
-12.7
 74
    0
 49
0
 74
    0
 49
-12.7
 74
    0
  0
LTYPE
  5
46
330
5
100
AcDbSymbolTableRecord
100
AcDbLinetypeTableRecord
  2
CENTER
 70
    0
  3
Center ____ _ ____ _ ____ _ ____ _ ____ _ ____
 72
   65
 73
    4
 40
50.8
 49
31.75
 74
    0
 49
-6.35
 74
    0
 49
6.35
 74
    0
 49
-6.35
 74
    0
  0
LTYPE
  5
47
330
5
100
AcDbSymbolTableRecord
100
AcDbLinetypeTableRecord
  2
CENTERTINY
 70
    0
  3
Center (.15x) ___ _ ___ _ ___ _ ___ _ ___ _ ___
 72
   65
 73
    4
 40
7.62
 49
4.7625
 74
    0
 49
-0.9525
 74
    0
 49
0.9525
 74
    0
 49
-0.9525
 74
    0
  0
LTYPE
  5
48
330
5
100
AcDbSymbolTableRecord
100
AcDbLinetypeTableRecord
  2
CENTER2
 70
    0
  3
Center (.5x) ___ _ ___ _ ___ _ ___ _ ___ _ ___
 72
   65
 73
    4
 40
28.575
 49
19.05
 74
    0
 49
-3.175
 74
    0
 49
3.175
 74
    0
 49
-3.175
 74
    0
  0
LTYPE
  5
49
330
5
100
AcDbSymbolTableRecord
100
AcDbLinetypeTableRecord
  2
CENTERX2
 70
    0
  3
Center (2x) ________  __  ________  __  _____
 72
   65
 73
    4
 40
101.6
 49
63.5
 74
    0
 49
-12.7
 74
    0
 49
12.7
 74
    0
 49
-12.7
 74
    0
  0
ENDTAB
  0
TABLE
  2
LAYER
  5
2
330
0
100
AcDbSymbolTable
 70
    1
  0
LAYER
  5
10
330
2
100
AcDbSymbolTableRecord
100
AcDbLayerTableRecord
  2
0
 70
    5
 62
    7
  6
CONTINUOUS
370
    0
390
F
  0
LAYER
  5
4A
330
2
100
AcDbSymbolTableRecord
100
AcDbLayerTableRecord
  2
0-170 shaft distance
 70
    5
 62
    7
  6
CONTINUOUS
370
    0
390
F
  0
LAYER
  5
4B
330
2
100
AcDbSymbolTableRecord
100
AcDbLayerTableRecord
  2
0-190 wheelbase
 70
    5
 62
    7
  6
CONTINUOUS
370
    0
390
F
  0
LAYER
  5
4C
330
2
100
AcDbSymbolTableRecord
100
AcDbLayerTableRecord
  2
0-225 wheelbase
 70
    4
 62
    7
  6
CONTINUOUS
370
    0
390
F
  0
LAYER
  5
4D
330
2
100
AcDbSymbolTableRecord
100
AcDbLayerTableRecord
  2
0-250 wheelbase
 70
    5
 62
    7
  6
CONTINUOUS
370
    0
390
F
  0
LAYER
  5
4E
330
2
100
AcDbSymbolTableRecord
100
AcDbLayerTableRecord
  2
0-quad 190 wheelbase
 70
    5
 62
    7
  6
CONTINUOUS
370
    0
390
F
  0
LAYER
  5
4F
330
2
100
AcDbSymbolTableRecord
100
AcDbLayerTableRecord
  2
0-quad 225 wheelbase
 70
    5
 62
    7
  6
CONTINUOUS
370
    0
390
F
  0
LAYER
  5
50
330
2
100
AcDbSymbolTableRecord
100
AcDbLayerTableRecord
  2
0100-RCINPOWER GT2205
 70
    5
 62
    7
  6
CONTINUOUS
370
    0
390
F
  0
LAYER
  5
51
330
2
100
AcDbSymbolTableRecord
100
AcDbLayerTableRecord
  2
0200-F3 FC
 70
    4
 62
    7
  6
CONTINUOUS
370
    0
390
F
  0
LAYER
  5
52
330
2
100
AcDbSymbolTableRecord
100
AcDbLayerTableRecord
  2
0201-ESC Little Bee 30A
 70
    5
 62
    7
  6
CONTINUOUS
370
    0
390
F
  0
LAYER
  5
53
330
2
100
AcDbSymbolTableRecord
100
AcDbLayerTableRecord
  2
0300-Battery
 70
    4
 62
    7
  6
CONTINUOUS
370
    0
390
F
  0
LAYER
  5
54
330
2
100
AcDbSymbolTableRecord
100
AcDbLayerTableRecord
  2
0400-Bounding Box
 70
    5
 62
    7
  6
CONTINUOUS
370
    0
390
F
  0
LAYER
  5
55
330
2
100
AcDbSymbolTableRecord
100
AcDbLayerTableRecord
  2
8000-compare
 70
    5
 62
    7
  6
CONTINUOUS
370
    0
390
F
  0
LAYER
  5
56
330
2
100
AcDbSymbolTableRecord
100
AcDbLayerTableRecord
  2
9900-225 wheelbase baseline
 70
    0
 62
    7
  6
CONTINUOUS
370
    0
390
F
  0
LAYER
  5
57
330
2
100
AcDbSymbolTableRecord
100
AcDbLayerTableRecord
  2
9901-225 wheelbase deployed
 70
    4
 62
    7
  6
CONTINUOUS
370
    0
390
F
  0
LAYER
  5
58
330
2
100
AcDbSymbolTableRecord
100
AcDbLayerTableRecord
  2
9902-225 wheelbase folded
 70
    4
 62
    7
  6
CONTINUOUS
370
    0
390
F
  0
ENDTAB
  0
TABLE
  2
STYLE
  5
3
330
0
100
AcDbSymbolTable
 70
    3
  0
STYLE
  5
59
330
2
100
AcDbSymbolTableRecord
100
AcDbTextStyleTableRecord
  2
Standard
 70
    0
 40
0
 41
1
 50
0
 71
    0
 42
1
  3
txt
  4

  0
ENDTAB
  0
TABLE
  2
VIEW
  5
6
330
0
100
AcDbSymbolTable
 70
    0
  0
ENDTAB
  0
TABLE
  2
UCS
  5
7
330
0
100
AcDbSymbolTable
 70
    0
  0
ENDTAB
  0
TABLE
  2
APPID
  5
9
330
0
100
AcDbSymbolTable
 70
    1
  0
APPID
  5
12
330
9
100
AcDbSymbolTableRecord
100
AcDbRegAppTableRecord
  2
ACAD
 70
    0
  0
APPID
  5
5A
330
9
100
AcDbSymbolTableRecord
100
AcDbRegAppTableRecord
  2
LibreCad
 70
    0
  0
ENDTAB
  0
TABLE
  2
DIMSTYLE
  5
A
330
0
100
AcDbSymbolTable
 70
    1
100
AcDbDimStyleTable
 71
    1
  0
DIMSTYLE
105
5B
330
A
100
AcDbSymbolTableRecord
100
AcDbDimStyleTableRecord
  2
Standard
 70
    0
 40
2.5
 41
2.5
 42
0.625
 43
0.38
 44
1.25
 45
0
 46
0
 47
0
 48
0
 49
1
140
2.5
141
0.09
142
0
143
25.4
144
1
145
0
146
1
147
0.625
148
0
 71
    0
 72
    0
 73
    0
 74
    1
 75
    0
 76
    0
 77
    0
 78
    8
 79
    0
170
    0
171
    2
172
    0
173
    0
174
    0
175
    0
176
    0
177
    0
178
    0
179
    0
271
    2
272
    4
273
    2
274
    2
275
    0
276
    0
277
    2
278
   44
279
    0
280
    0
281
    0
282
    0
283
    1
284
    0
285
    0
286
    0
288
    0
289
    3
340
STANDARD
341

371
   -2
372
   -2
  0
ENDTAB
  0
TABLE
  2
BLOCK_RECORD
  5
1
330
0
100
AcDbSymbolTable
 70
    2
  0
BLOCK_RECORD
  5
1F
330
1
100
AcDbSymbolTableRecord
100
AcDbBlockTableRecord
  2
*Model_Space
 70
    0
280
    1
281
    0
  0
BLOCK_RECORD
  5
1E
330
1
100
AcDbSymbolTableRecord
100
AcDbBlockTableRecord
  2
*Paper_Space
 70
    0
280
    1
281
    0
  0
ENDTAB
  0
ENDSEC
  0
SECTION
  2
BLOCKS
  0
BLOCK
  5
20
330
1F
100
AcDbEntity
  8
0
100
AcDbBlockBegin
  2
*Model_Space
 70
    0
 10
0
 20
0
 30
0
  3
*Model_Space
  1

  0
ENDBLK
  5
21
330
1F
100
AcDbEntity
  8
0
100
AcDbBlockEnd
  0
BLOCK
  5
1C
330
1B
100
AcDbEntity
  8
0
100
AcDbBlockBegin
  2
*Paper_Space
 70
    0
 10
0
 20
0
 30
0
  3
*Paper_Space
  1

  0
ENDBLK
  5
1D
330
1F
100
AcDbEntity
  8
0
100
AcDbBlockEnd
  0
ENDSEC
  0
SECTION
  2
ENTITIES
  0
CIRCLE
  5
5C
100
AcDbEntity
  8
0100-RCINPOWER GT2205
  6
ByLayer
 62
  256
370
   -1
100
AcDbCircle
 10
0
 20
0
 40
13.75
  0
CIRCLE
  5
5D
100
AcDbEntity
  8
0100-RCINPOWER GT2205
  6
ByLayer
 62
  256
370
   -1
100
AcDbCircle
 10
0
 20
8
 40
1.5
  0
CIRCLE
  5
5E
100
AcDbEntity
  8
0100-RCINPOWER GT2205
  6
ByLayer
 62
  256
370
   -1
100
AcDbCircle
 10
0
 20
-8
 40
1.5
  0
CIRCLE
  5
5F
100
AcDbEntity
  8
0100-RCINPOWER GT2205
  6
ByLayer
 62
  256
370
   -1
100
AcDbCircle
 10
9.5
 20
0
 40
1.5
  0
CIRCLE
  5
60
100
AcDbEntity
  8
0100-RCINPOWER GT2205
  6
ByLayer
 62
  256
370
   -1
100
AcDbCircle
 10
-9.5
 20
0
 40
1.5
  0
CIRCLE
  5
61
100
AcDbEntity
  8
0-250 wheelbase
  6
ByLayer
 62
  256
370
   -1
100
AcDbCircle
 10
0
 20
0
 40
125
  0
CIRCLE
  5
62
100
AcDbEntity
  8
0-225 wheelbase
  6
ByLayer
 62
  256
370
   -1
100
AcDbCircle
 10
0
 20
0
 40
112.5
  0
CIRCLE
  5
63
100
AcDbEntity
  8
0-190 wheelbase
  6
ByLayer
 62
  256
370
   -1
100
AcDbCircle
 10
0
 20
0
 40
95
  0
LWPOLYLINE
  5
64
100
AcDbEntity
  8
0200-F3 FC
  6
ByLayer
 62
  256
370
   -1
100
AcDbPolyline
 90
    4
 70
    1
 43
0
 10
-18
 20
-18
 10
18
 20
-18
 10
18
 20
18
 10
-18
 20
18
  0
CIRCLE
  5
65
100
AcDbEntity
  8
0200-F3 FC
  6
ByLayer
 62
  256
370
   -1
100
AcDbCircle
 10
15.25
 20
15.25
 40
1.5
  0
CIRCLE
  5
66
100
AcDbEntity
  8
0200-F3 FC
  6
ByLayer
 62
  256
370
   -1
100
AcDbCircle
 10
-15.25
 20
15.25
 40
1.5
  0
CIRCLE
  5
67
100
AcDbEntity
  8
0200-F3 FC
  6
ByLayer
 62
  256
370
   -1
100
AcDbCircle
 10
-15.25
 20
-15.25
 40
1.5
  0
CIRCLE
  5
68
100
AcDbEntity
  8
0200-F3 FC
  6
ByLayer
 62
  256
370
   -1
100
AcDbCircle
 10
15.25
 20
-15.25
 40
1.5
  0
LWPOLYLINE
  5
69
100
AcDbEntity
  8
0300-Battery
  6
ByLayer
 62
  256
370
   -1
100
AcDbPolyline
 90
    4
 70
    1
 43
0
 10
-16
 20
-35
 10
16
 20
-35
 10
16
 20
35
 10
-16
 20
35
  0
CIRCLE
  5
6A
100
AcDbEntity
  8
0-225 wheelbase
  6
ByLayer
 62
    1
370
   -1
100
AcDbCircle
 10
1.217775880135719e-015
 20
112.5
 40
63.5
  0
CIRCLE
  5
6B
100
AcDbEntity
  8
0-225 wheelbase
  6
ByLayer
 62
    1
370
   -1
100
AcDbCircle
 10
97.42785792574931
 20
-56.25000000000006
 40
63.5
  0
CIRCLE
  5
6C
100
AcDbEntity
  8
0-225 wheelbase
  6
ByLayer
 62
    1
370
   -1
100
AcDbCircle
 10
-97.42785792574936
 20
-56.24999999999999
 40
63.5
  0
CIRCLE
  5
6D
100
AcDbEntity
  8
0-225 wheelbase
  6
ByLayer
 62
   96
420
32768
370
   -1
100
AcDbCircle
 10
1.217775880135719e-015
 20
112.5
 40
76.19999999999999
  0
CIRCLE
  5
6E
100
AcDbEntity
  8
0-225 wheelbase
  6
ByLayer
 62
   96
420
32768
370
   -1
100
AcDbCircle
 10
97.42785792574931
 20
-56.25000000000006
 40
76.19999999999999
  0
CIRCLE
  5
6F
100
AcDbEntity
  8
0-225 wheelbase
  6
ByLayer
 62
   96
420
32768
370
   -1
100
AcDbCircle
 10
-97.42785792574936
 20
-56.24999999999999
 40
76.19999999999999
  0
CIRCLE
  5
70
100
AcDbEntity
  8
0-170 shaft distance
  6
ByLayer
 62
  256
370
   -1
100
AcDbCircle
 10
0
 20
0
 40
98
  0
CIRCLE
  5
71
100
AcDbEntity
  8
0-170 shaft distance
  6
ByLayer
 62
    1
370
   -1
100
AcDbCircle
 10
84.87048957087497
 20
-49.00000000000006
 40
63.5
  0
CIRCLE
  5
72
100
AcDbEntity
  8
0-170 shaft distance
  6
ByLayer
 62
    1
370
   -1
100
AcDbCircle
 10
-84.87048957087499
 20
-48.99999999999999
 40
63.5
  0
CIRCLE
  5
73
100
AcDbEntity
  8
0-170 shaft distance
  6
ByLayer
 62
    1
370
   -1
100
AcDbCircle
 10
2.355754480376504e-015
 20
98
 40
63.5
  0
CIRCLE
  5
74
100
AcDbEntity
  8
0-190 wheelbase
  6
ByLayer
 62
    1
370
   -1
100
AcDbCircle
 10
2.588207426157396e-015
 20
94.99999999999999
 40
63.5
  0
CIRCLE
  5
75
100
AcDbEntity
  8
0-190 wheelbase
  6
ByLayer
 62
    1
370
   -1
100
AcDbCircle
 10
-82.27241335952168
 20
-47.49999999999999
 40
63.5
  0
CIRCLE
  5
76
100
AcDbEntity
  8
0-250 wheelbase
  6
ByLayer
 62
   96
420
32768
370
   -1
100
AcDbCircle
 10
2.359223927328458e-016
 20
125
 40
76.19999999999999
  0
CIRCLE
  5
77
100
AcDbEntity
  8
0-250 wheelbase
  6
ByLayer
 62
   96
420
32768
370
   -1
100
AcDbCircle
 10
108.2531754730548
 20
-62.50000000000005
 40
76.19999999999999
  0
CIRCLE
  5
78
100
AcDbEntity
  8
0-250 wheelbase
  6
ByLayer
 62
   96
420
32768
370
   -1
100
AcDbCircle
 10
-108.2531754730548
 20
-62.49999999999996
 40
76.19999999999999
  0
CIRCLE
  5
79
100
AcDbEntity
  8
0-250 wheelbase
  6
ByLayer
 62
    1
370
   -1
100
AcDbCircle
 10
2.359223927328458e-016
 20
125
 40
63.5
  0
CIRCLE
  5
7A
100
AcDbEntity
  8
0-250 wheelbase
  6
ByLayer
 62
    1
370
   -1
100
AcDbCircle
 10
108.2531754730548
 20
-62.50000000000006
 40
63.5
  0
CIRCLE
  5
7B
100
AcDbEntity
  8
0-250 wheelbase
  6
ByLayer
 62
    1
370
   -1
100
AcDbCircle
 10
-108.2531754730548
 20
-62.49999999999998
 40
63.5
  0
LWPOLYLINE
  5
7C
100
AcDbEntity
  8
0201-ESC Little Bee 30A
  6
ByLayer
 62
  256
370
   -1
100
AcDbPolyline
 90
    4
 70
    1
 43
0
 10
-8
 20
-17.5
 10
8
 20
-17.5
 10
8
 20
17.5
 10
-8
 20
17.5
  0
CIRCLE
  5
7D
100
AcDbEntity
  8
0-225 wheelbase
  6
ByLayer
 62
  256
370
   -1
100
AcDbCircle
 10
1.217775880135719e-015
 20
112.5
 40
13.75
  0
CIRCLE
  5
7E
100
AcDbEntity
  8
0-225 wheelbase
  6
ByLayer
 62
  256
370
   -1
100
AcDbCircle
 10
97.42785792574931
 20
-56.25000000000004
 40
13.75
  0
CIRCLE
  5
7F
100
AcDbEntity
  8
0-225 wheelbase
  6
ByLayer
 62
  256
370
   -1
100
AcDbCircle
 10
-97.42785792574936
 20
-56.24999999999996
 40
13.75
  0
CIRCLE
  5
80
100
AcDbEntity
  8
0-250 wheelbase
  6
ByLayer
 62
  256
370
   -1
100
AcDbCircle
 10
2.359223927328458e-016
 20
125
 40
13.75
  0
CIRCLE
  5
81
100
AcDbEntity
  8
0-250 wheelbase
  6
ByLayer
 62
  256
370
   -1
100
AcDbCircle
 10
108.2531754730548
 20
-62.50000000000005
 40
13.75
  0
CIRCLE
  5
82
100
AcDbEntity
  8
0-250 wheelbase
  6
ByLayer
 62
  256
370
   -1
100
AcDbCircle
 10
-108.2531754730548
 20
-62.49999999999996
 40
13.75
  0
LINE
  5
83
100
AcDbEntity
  8
0400-Bounding Box
  6
ByLayer
 62
  256
370
   -1
100
AcDbLine
 10
-40
 20
-200
 11
-40
 21
200
  0
LINE
  5
84
100
AcDbEntity
  8
0400-Bounding Box
  6
ByLayer
 62
  256
370
   -1
100
AcDbLine
 10
40
 20
-200
 11
40
 21
200
  0
LINE
  5
85
100
AcDbEntity
  8
0400-Bounding Box
  6
ByLayer
 62
  256
370
   -1
100
AcDbLine
 10
-200
 20
-100
 11
200
 21
-100
  0
LINE
  5
86
100
AcDbEntity
  8
0400-Bounding Box
  6
ByLayer
 62
  256
370
   -1
100
AcDbLine
 10
200
 20
100
 11
-200
 21
100
  0
LINE
  5
87
100
AcDbEntity
  8
0
  6
ByLayer
 62
  256
370
   -1
100
AcDbLine
 10
-15
 20
8.660254037844389
 11
-15
 21
199.4367067517913
  0
LINE
  5
88
100
AcDbEntity
  8
0
  6
ByLayer
 62
  256
370
   -1
100
AcDbLine
 10
-9
 20
5.196152422706634
 11
-9.000000000000007
 21
199.7973973804464
  0
LINE
  5
89
100
AcDbEntity
  8
0
  6
ByLayer
 62
  256
370
   -1
100
AcDbLine
 10
9
 20
5.196152422706628
 11
8.999999999999996
 21
199.7973973804463
  0
LINE
  5
8A
100
AcDbEntity
  8
0
  6
ByLayer
 62
  256
370
   -1
100
AcDbLine
 10
15
 20
8.660254037844384
 11
15.00000000000001
 21
199.4367067517913
  0
LINE
  5
8B
100
AcDbEntity
  8
0
  6
ByLayer
 62
  256
370
   -1
100
AcDbLine
 10
-15
 20
8.660254037844389
 11
-180.2172544941588
 21
-86.72797231912901
  0
LINE
  5
8C
100
AcDbEntity
  8
0
  6
ByLayer
 62
  256
370
   -1
100
AcDbLine
 10
-9
 20
5.196152422706634
 11
-177.5296217414811
 21
-92.10447005616319
  0
LINE
  5
8D
100
AcDbEntity
  8
0
  6
ByLayer
 62
  256
370
   -1
100
AcDbLine
 10
-3.550978955324524e-015
 20
-10.39230484541326
 11
-168.5296217414811
 21
-107.6929273242831
  0
LINE
  5
8E
100
AcDbEntity
  8
0
  6
ByLayer
 62
  256
370
   -1
100
AcDbLine
 10
-9.141992718397773e-016
 20
-17.32050807568877
 11
-165.2172544941588
 21
-112.7087344326622
  0
LINE
  5
8F
100
AcDbEntity
  8
0
  6
ByLayer
 62
  256
370
   -1
100
AcDbLine
 10
-9.141992718397773e-016
 20
-17.32050807568877
 11
165.2172544941587
 21
-112.7087344326623
  0
LINE
  5
90
100
AcDbEntity
  8
0
  6
ByLayer
 62
  256
370
   -1
100
AcDbLine
 10
-3.550978955324524e-015
 20
-10.39230484541326
 11
168.529621741481
 21
-107.6929273242832
  0
LINE
  5
91
100
AcDbEntity
  8
0
  6
ByLayer
 62
  256
370
   -1
100
AcDbLine
 10
9
 20
5.196152422706628
 11
177.529621741481
 21
-92.10447005616334
  0
LINE
  5
92
100
AcDbEntity
  8
0
  6
ByLayer
 62
  256
370
   -1
100
AcDbLine
 10
15
 20
8.660254037844384
 11
180.2172544941587
 21
-86.72797231912917
  0
LINE
  5
93
100
AcDbEntity
  8
0
  6
ByLayer
 62
  256
370
   -1
100
AcDbLine
 10
-45
 20
-141.3397459621556
 11
-45.00000000000001
 21
194.8717526990508
  0
LINE
  5
94
100
AcDbEntity
  8
0
  6
ByLayer
 62
  256
370
   -1
100
AcDbLine
 10
45
 20
-141.3397459621556
 11
44.99999999999999
 21
194.8717526990507
  0
LINE
  5
95
100
AcDbEntity
  8
0
  6
ByLayer
 62
    5
370
   -1
100
AcDbLine
 10
0
 20
0
 11
4.399258735077183e-015
 21
200
  0
LINE
  5
96
100
AcDbEntity
  8
0
  6
ByLayer
 62
    5
370
   -1
100
AcDbLine
 10
0
 20
0
 11
-173.2050807568878
 21
-99.99999999999996
  0
LINE
  5
97
100
AcDbEntity
  8
0
  6
ByLayer
 62
    5
370
   -1
100
AcDbLine
 10
0
 20
0
 11
173.2050807568877
 21
-100.0000000000001
  0
LINE
  5
98
100
AcDbEntity
  8
0
  6
ByLayer
 62
    5
370
   -1
100
AcDbLine
 10
30
 20
-17.32050807568879
 11
30
 21
200
  0
LINE
  5
99
100
AcDbEntity
  8
0
  6
ByLayer
 62
    5
370
   -1
100
AcDbLine
 10
-30
 20
-17.32050807568876
 11
-30
 21
200
  0
LINE
  5
9A
100
AcDbEntity
  8
0-250 wheelbase
  6
ByLayer
 62
  256
370
   -1
100
AcDbLine
 10
2.359223927328458e-016
 20
125
 11
-108.2531754730548
 21
-62.49999999999998
  0
LINE
  5
9B
100
AcDbEntity
  8
0-250 wheelbase
  6
ByLayer
 62
  256
370
   -1
100
AcDbLine
 10
2.359223927328458e-016
 20
125
 11
108.2531754730548
 21
-62.50000000000005
  0
CIRCLE
  5
9C
100
AcDbEntity
  8
0-250 wheelbase
  6
ByLayer
 62
  256
370
   -1
100
AcDbCircle
 10
30
 20
73.03847577293365
 40
13.75
  0
CIRCLE
  5
9D
100
AcDbEntity
  8
0-250 wheelbase
  6
ByLayer
 62
  256
370
   -1
100
AcDbCircle
 10
-30
 20
73.03847577293365
 40
13.75
  0
CIRCLE
  5
9E
100
AcDbEntity
  8
0-225 wheelbase
  6
ByLayer
 62
  256
370
   -1
100
AcDbCircle
 10
29.99999999999999
 20
91.71539030917347
 40
13.75
  0
CIRCLE
  5
9F
100
AcDbEntity
  8
9900-225 wheelbase baseline
  6
ByLayer
 62
  256
370
   -1
100
AcDbCircle
 10
1.217775880135719e-015
 20
112.5
 40
13.75
  0
CIRCLE
  5
A0
100
AcDbEntity
  8
9900-225 wheelbase baseline
  6
ByLayer
 62
  256
370
   -1
100
AcDbCircle
 10
-97.42785792574936
 20
-56.24999999999996
 40
13.75
  0
LINE
  5
A1
100
AcDbEntity
  8
9900-225 wheelbase baseline
  6
ByLayer
 62
    1
370
   -1
100
AcDbLine
 10
0
 20
0
 11
4.399258735077183e-015
 21
200
  0
LINE
  5
A2
100
AcDbEntity
  8
9900-225 wheelbase baseline
  6
ByLayer
 62
    1
370
   -1
100
AcDbLine
 10
0
 20
0
 11
-173.2050807568878
 21
-99.99999999999996
  0
LINE
  5
A3
100
AcDbEntity
  8
9900-225 wheelbase baseline
  6
ByLayer
 62
    1
370
   -1
100
AcDbLine
 10
0
 20
0
 11
173.2050807568877
 21
-100.0000000000001
  0
LINE
  5
A4
100
AcDbEntity
  8
9900-225 wheelbase baseline
  6
ByLayer
 62
    1
370
   -1
100
AcDbLine
 10
30
 20
-17.32050807568879
 11
30
 21
200
  0
LINE
  5
A5
100
AcDbEntity
  8
9900-225 wheelbase baseline
  6
ByLayer
 62
    5
370
   -1
100
AcDbLine
 10
21
 20
-1.732050807568885
 11
177.529621741481
 21
-92.10447005616334
  0
LINE
  5
A6
100
AcDbEntity
  8
9900-225 wheelbase baseline
  6
ByLayer
 62
    5
370
   -1
100
AcDbLine
 10
21
 20
-1.732050807568885
 11
21
 21
200
  0
CIRCLE
  5
A7
100
AcDbEntity
  8
0200-F3 FC
  6
ByLayer
 62
  256
370
   -1
100
AcDbCircle
 10
15.25
 20
15.25
 40
2.5
  0
CIRCLE
  5
A8
100
AcDbEntity
  8
0200-F3 FC
  6
ByLayer
 62
  256
370
   -1
100
AcDbCircle
 10
-15.25
 20
15.25
 40
2.5
  0
CIRCLE
  5
A9
100
AcDbEntity
  8
0200-F3 FC
  6
ByLayer
 62
  256
370
   -1
100
AcDbCircle
 10
-15.25
 20
-15.25
 40
2.5
  0
CIRCLE
  5
AA
100
AcDbEntity
  8
0200-F3 FC
  6
ByLayer
 62
  256
370
   -1
100
AcDbCircle
 10
15.25
 20
-15.25
 40
2.5
  0
CIRCLE
  5
AB
100
AcDbEntity
  8
9900-225 wheelbase baseline
  6
ByLayer
 62
  256
370
   -1
100
AcDbCircle
 10
30.00000000000007
 20
91.71539030917344
 40
13.75
  0
CIRCLE
  5
AC
100
AcDbEntity
  8
9900-225 wheelbase baseline
  6
ByLayer
 62
  256
370
   -1
100
AcDbCircle
 10
97.42785792574936
 20
-56.24999999999996
 40
13.75
  0
LINE
  5
AD
100
AcDbEntity
  8
9900-225 wheelbase baseline
  6
ByLayer
 62
    1
370
   -1
100
AcDbLine
 10
-30
 20
-17.32050807568879
 11
-30
 21
200
  0
CIRCLE
  5
AE
100
AcDbEntity
  8
0-quad 225 wheelbase
  6
ByLayer
 62
  256
370
   -1
100
AcDbCircle
 10
0
 20
0
 40
112.5
  0
LINE
  5
AF
100
AcDbEntity
  8
0-quad 225 wheelbase
  6
ByLayer
 62
  256
370
   -1
100
AcDbLine
 10
-100
 20
100
 11
100
 21
-100
  0
LINE
  5
B0
100
AcDbEntity
  8
0-quad 225 wheelbase
  6
ByLayer
 62
  256
370
   -1
100
AcDbLine
 10
100
 20
100
 11
-100
 21
-100
  0
CIRCLE
  5
B1
100
AcDbEntity
  8
0-quad 225 wheelbase
  6
ByLayer
 62
    1
370
   -1
100
AcDbCircle
 10
79.5495128834866
 20
79.5495128834866
 40
63.5
  0
CIRCLE
  5
B2
100
AcDbEntity
  8
0-quad 225 wheelbase
  6
ByLayer
 62
    1
370
   -1
100
AcDbCircle
 10
-79.5495128834866
 20
79.5495128834866
 40
63.5
  0
CIRCLE
  5
B3
100
AcDbEntity
  8
0-quad 225 wheelbase
  6
ByLayer
 62
    1
370
   -1
100
AcDbCircle
 10
79.5495128834866
 20
-79.5495128834866
 40
63.5
  0
CIRCLE
  5
B4
100
AcDbEntity
  8
0-quad 225 wheelbase
  6
ByLayer
 62
    1
370
   -1
100
AcDbCircle
 10
-79.5495128834866
 20
-79.5495128834866
 40
63.5
  0
CIRCLE
  5
B5
100
AcDbEntity
  8
0-quad 225 wheelbase
  6
ByLayer
 62
   96
420
32768
370
   -1
100
AcDbCircle
 10
79.5495128834866
 20
79.5495128834866
 40
76.19999999999999
  0
CIRCLE
  5
B6
100
AcDbEntity
  8
0-quad 225 wheelbase
  6
ByLayer
 62
   96
420
32768
370
   -1
100
AcDbCircle
 10
79.5495128834866
 20
-79.5495128834866
 40
76.19999999999999
  0
CIRCLE
  5
B7
100
AcDbEntity
  8
0-quad 225 wheelbase
  6
ByLayer
 62
   96
420
32768
370
   -1
100
AcDbCircle
 10
-79.5495128834866
 20
79.5495128834866
 40
76.19999999999999
  0
CIRCLE
  5
B8
100
AcDbEntity
  8
0-quad 225 wheelbase
  6
ByLayer
 62
   96
420
32768
370
   -1
100
AcDbCircle
 10
-79.5495128834866
 20
-79.5495128834866
 40
76.19999999999999
  0
CIRCLE
  5
B9
100
AcDbEntity
  8
0-quad 225 wheelbase
  6
ByLayer
 62
  256
370
   -1
100
AcDbCircle
 10
79.5495128834866
 20
79.5495128834866
 40
13.75
  0
CIRCLE
  5
BA
100
AcDbEntity
  8
0-quad 225 wheelbase
  6
ByLayer
 62
  256
370
   -1
100
AcDbCircle
 10
-79.5495128834866
 20
79.5495128834866
 40
13.75
  0
CIRCLE
  5
BB
100
AcDbEntity
  8
0-quad 225 wheelbase
  6
ByLayer
 62
  256
370
   -1
100
AcDbCircle
 10
-79.5495128834866
 20
-79.5495128834866
 40
13.75
  0
CIRCLE
  5
BC
100
AcDbEntity
  8
0-quad 225 wheelbase
  6
ByLayer
 62
  256
370
   -1
100
AcDbCircle
 10
79.5495128834866
 20
-79.5495128834866
 40
13.75
  0
CIRCLE
  5
BD
100
AcDbEntity
  8
8000-compare
  6
ByLayer
 62
  256
370
   -1
100
AcDbCircle
 10
0
 20
0
 40
112.5
  0
CIRCLE
  5
BE
100
AcDbEntity
  8
8000-compare
  6
ByLayer
 62
    2
370
   -1
100
AcDbCircle
 10
79.5495128834866
 20
79.5495128834866
 40
76.19999999999999
  0
CIRCLE
  5
BF
100
AcDbEntity
  8
8000-compare
  6
ByLayer
 62
    2
370
   -1
100
AcDbCircle
 10
79.5495128834866
 20
-79.5495128834866
 40
76.19999999999999
  0
CIRCLE
  5
C0
100
AcDbEntity
  8
8000-compare
  6
ByLayer
 62
    2
370
   -1
100
AcDbCircle
 10
-79.5495128834866
 20
79.5495128834866
 40
76.19999999999999
  0
CIRCLE
  5
C1
100
AcDbEntity
  8
8000-compare
  6
ByLayer
 62
    2
370
   -1
100
AcDbCircle
 10
-79.5495128834866
 20
-79.5495128834866
 40
76.19999999999999
  0
CIRCLE
  5
C2
100
AcDbEntity
  8
8000-compare
  6
ByLayer
 62
   96
420
32768
370
   -1
100
AcDbCircle
 10
1.217775880135719e-015
 20
79.5495128834866
 40
76.19999999999999
  0
CIRCLE
  5
C3
100
AcDbEntity
  8
8000-compare
  6
ByLayer
 62
   96
420
32768
370
   -1
100
AcDbCircle
 10
97.42785792574931
 20
-89.20048711651346
 40
76.19999999999999
  0
CIRCLE
  5
C4
100
AcDbEntity
  8
8000-compare
  6
ByLayer
 62
   96
420
32768
370
   -1
100
AcDbCircle
 10
-97.42785792574936
 20
-89.2004871165134
 40
76.19999999999999
  0
LINE
  5
C5
100
AcDbEntity
  8
0-250 wheelbase
  6
ByLayer
 62
  256
370
   -1
100
AcDbLine
 10
-30
 20
73.03847577293365
 11
30
 21
73.03847577293365
  0
LINE
  5
C6
100
AcDbEntity
  8
0-250 wheelbase
  6
ByLayer
 62
  256
370
   -1
100
AcDbLine
 10
-108.2531754730548
 20
-62.49999999999996
 11
108.2531754730548
 21
-62.50000000000006
  0
CIRCLE
  5
C7
100
AcDbEntity
  8
0-190 wheelbase
  6
ByLayer
 62
  256
370
   -1
100
AcDbCircle
 10
2.588207426157396e-015
 20
94.99999999999999
 40
13.75
  0
CIRCLE
  5
C8
100
AcDbEntity
  8
0-190 wheelbase
  6
ByLayer
 62
  256
370
   -1
100
AcDbCircle
 10
82.27241335952165
 20
-47.50000000000005
 40
13.75
  0
CIRCLE
  5
C9
100
AcDbEntity
  8
0-190 wheelbase
  6
ByLayer
 62
  256
370
   -1
100
AcDbCircle
 10
-82.2724
 20
-47.5
 40
13.75
  0
LINE
  5
CA
100
AcDbEntity
  8
0-190 wheelbase
  6
ByLayer
 62
  256
370
   -1
100
AcDbLine
 10
2.588207426157396e-015
 20
94.99999999999999
 11
0
 21
0
  0
LINE
  5
CB
100
AcDbEntity
  8
0-190 wheelbase
  6
ByLayer
 62
  256
370
   -1
100
AcDbLine
 10
0
 20
0
 11
-82.2724
 21
-47.5
  0
LINE
  5
CC
100
AcDbEntity
  8
0-190 wheelbase
  6
ByLayer
 62
  256
370
   -1
100
AcDbLine
 10
0
 20
0
 11
82.27241335952165
 21
-47.50000000000005
  0
CIRCLE
  5
CD
100
AcDbEntity
  8
9902-225 wheelbase folded
  6
ByLayer
 62
  256
370
   -1
100
AcDbCircle
 10
30.00000000000007
 20
91.71539030917344
 40
13.75
  0
CIRCLE
  5
CE
100
AcDbEntity
  8
9902-225 wheelbase folded
  6
ByLayer
 62
  256
370
   -1
100
AcDbCircle
 10
21
 20
-1.732050807568881
 40
2.5
  0
LINE
  5
CF
100
AcDbEntity
  8
9902-225 wheelbase folded
  6
ByLayer
 62
  256
370
   -1
100
AcDbLine
 10
21.85523835298197
 20
80.63724255274488
 11
19.02341854736987
 21
70.06874716032073
  0
LINE
  5
D0
100
AcDbEntity
  8
9902-225 wheelbase folded
  6
ByLayer
 62
  256
370
   -1
100
AcDbLine
 10
31.51449661587265
 20
78.04905210171967
 11
28.68267681026056
 21
67.48055670929551
  0
LINE
  5
D1
100
AcDbEntity
  8
9902-225 wheelbase folded
  6
ByLayer
 62
  256
370
   -1
100
AcDbLine
 10
28.68267681026056
 20
67.48055670929551
 11
19.02341854736987
 21
70.06874716032073
  0
ARC
  5
D2
100
AcDbEntity
  8
9902-225 wheelbase folded
  6
ByLayer
 62
  256
370
   -1
100
AcDbCircle
 10
34.87500000000007
 20
83.27164262227517
 40
1.5
100
AcDbArc
 50
210
 51
299.9999999999999
  0
LINE
  5
D3
100
AcDbEntity
  8
9902-225 wheelbase folded
  6
ByLayer
 62
  256
370
   -1
100
AcDbLine
 10
35.62500000000007
 20
81.97260451659851
 11
35.62500000000007
 21
81.97260451659851
  0
ARC
  5
D4
100
AcDbEntity
  8
9902-225 wheelbase folded
  6
ByLayer
 62
  256
370
   -1
100
AcDbCircle
 10
34.87500000000007
 20
83.27164262227517
 40
1.5
100
AcDbArc
 50
299.9999999999999
 51
29.99999999999996
  0
ARC
  5
D5
100
AcDbEntity
  8
9902-225 wheelbase folded
  6
ByLayer
 62
  256
370
   -1
100
AcDbCircle
 10
25.12500000000007
 20
100.1591379960717
 40
1.5
100
AcDbArc
 50
120
 51
210
  0
LINE
  5
D6
100
AcDbEntity
  8
9902-225 wheelbase folded
  6
ByLayer
 62
  256
370
   -1
100
AcDbLine
 10
24.37500000000007
 20
101.4581761017484
 11
24.37500000000007
 21
101.4581761017484
  0
ARC
  5
D7
100
AcDbEntity
  8
9902-225 wheelbase folded
  6
ByLayer
 62
  256
370
   -1
100
AcDbCircle
 10
25.12500000000007
 20
100.1591379960717
 40
1.5
100
AcDbArc
 50
29.99999999999996
 51
120
  0
ARC
  5
D8
100
AcDbEntity
  8
9902-225 wheelbase folded
  6
ByLayer
 62
  256
370
   -1
100
AcDbCircle
 10
21.55625231310179
 20
86.84039030917344
 40
1.5
100
AcDbArc
 50
120
 51
210
  0
LINE
  5
D9
100
AcDbEntity
  8
9902-225 wheelbase folded
  6
ByLayer
 62
  256
370
   -1
100
AcDbLine
 10
20.25721420742514
 20
86.09039030917344
 11
20.25721420742514
 21
86.09039030917344
  0
ARC
  5
DA
100
AcDbEntity
  8
9902-225 wheelbase folded
  6
ByLayer
 62
  256
370
   -1
100
AcDbCircle
 10
21.55625231310179
 20
86.84039030917344
 40
1.5
100
AcDbArc
 50
210
 51
299.9999999999999
  0
ARC
  5
DB
100
AcDbEntity
  8
9902-225 wheelbase folded
  6
ByLayer
 62
  256
370
   -1
100
AcDbCircle
 10
38.44374768689835
 20
96.59039030917344
 40
1.5
100
AcDbArc
 50
29.99999999999996
 51
120
  0
LINE
  5
DC
100
AcDbEntity
  8
9902-225 wheelbase folded
  6
ByLayer
 62
  256
370
   -1
100
AcDbLine
 10
39.74278579257501
 20
97.34039030917344
 11
39.74278579257501
 21
97.34039030917344
  0
ARC
  5
DD
100
AcDbEntity
  8
9902-225 wheelbase folded
  6
ByLayer
 62
  256
370
   -1
100
AcDbCircle
 10
38.44374768689835
 20
96.59039030917344
 40
1.5
100
AcDbArc
 50
299.9999999999999
 51
29.99999999999996
  0
LINE
  5
DE
100
AcDbEntity
  8
9902-225 wheelbase folded
  6
ByLayer
 62
  256
370
   -1
100
AcDbLine
 10
33.57596189432341
 20
82.52164262227517
 11
30.86602540378452
 21
87.21539030917344
  0
ARC
  5
DF
100
AcDbEntity
  8
9902-225 wheelbase folded
  6
ByLayer
 62
  256
370
   -1
100
AcDbCircle
 10
30.00000000000007
 20
86.71539030917344
 40
1
100
AcDbArc
 50
29.99999999999996
 51
90.0000000000003
  0
LINE
  5
E0
100
AcDbEntity
  8
9902-225 wheelbase folded
  6
ByLayer
 62
  256
370
   -1
100
AcDbLine
 10
22.3062523131018
 20
85.54135220349679
 11
27.00000000000016
 21
88.25128869403574
  0
ARC
  5
E1
100
AcDbEntity
  8
9902-225 wheelbase folded
  6
ByLayer
 62
  256
370
   -1
100
AcDbCircle
 10
30.00000000000007
 20
91.71539030917344
 40
4
100
AcDbArc
 50
240.0000000000005
 51
270
  0
ARC
  5
E2
100
AcDbEntity
  8
9902-225 wheelbase folded
  6
ByLayer
 62
  256
370
   -1
100
AcDbCircle
 10
27.50000000000016
 20
87.3852632902513
 40
1
100
AcDbArc
 50
60.00000000000095
 51
120
  0
LINE
  5
E3
100
AcDbEntity
  8
9902-225 wheelbase folded
  6
ByLayer
 62
  256
370
   -1
100
AcDbLine
 10
20.8062523131018
 20
88.1394284148501
 11
25.50000000000017
 21
90.84936490538907
  0
ARC
  5
E4
100
AcDbEntity
  8
9902-225 wheelbase folded
  6
ByLayer
 62
  256
370
   -1
100
AcDbCircle
 10
25.00000000000017
 20
91.7153903091735
 40
1
100
AcDbArc
 50
299.9999999999999
 51
359.9999999999995
  0
LINE
  5
E5
100
AcDbEntity
  8
9902-225 wheelbase folded
  6
ByLayer
 62
  256
370
   -1
100
AcDbLine
 10
26.53589838486231
 20
94.71539030917347
 11
23.82596189432342
 21
99.40913799607172
  0
ARC
  5
E6
100
AcDbEntity
  8
9902-225 wheelbase folded
  6
ByLayer
 62
  256
370
   -1
100
AcDbCircle
 10
30.00000000000007
 20
91.71539030917344
 40
4
100
AcDbArc
 50
149.9999999999997
 51
179.9999999999993
  0
ARC
  5
E7
100
AcDbEntity
  8
9902-225 wheelbase folded
  6
ByLayer
 62
  256
370
   -1
100
AcDbCircle
 10
25.66987298107787
 20
94.21539030917347
 40
1
100
AcDbArc
 50
329.9999999999996
 51
29.99999999999996
  0
LINE
  5
E8
100
AcDbEntity
  8
9902-225 wheelbase folded
  6
ByLayer
 62
  256
370
   -1
100
AcDbLine
 10
29.13397459621565
 20
96.21539030917344
 11
26.42403810567673
 21
100.9091379960717
  0
ARC
  5
E9
100
AcDbEntity
  8
9902-225 wheelbase folded
  6
ByLayer
 62
  256
370
   -1
100
AcDbCircle
 10
30.00000000000009
 20
96.71539030917344
 40
1
100
AcDbArc
 50
210
 51
269.9999999999999
  0
LINE
  5
EA
100
AcDbEntity
  8
9902-225 wheelbase folded
  6
ByLayer
 62
  256
370
   -1
100
AcDbLine
 10
32.99999999999998
 20
95.17949192431115
 11
37.69374768689835
 21
97.8894284148501
  0
ARC
  5
EB
100
AcDbEntity
  8
9902-225 wheelbase folded
  6
ByLayer
 62
  256
370
   -1
100
AcDbCircle
 10
30.00000000000007
 20
91.71539030917344
 40
4
100
AcDbArc
 50
60.00000000000065
 51
89.9999999999999
  0
ARC
  5
EC
100
AcDbEntity
  8
9902-225 wheelbase folded
  6
ByLayer
 62
  256
370
   -1
100
AcDbCircle
 10
32.49999999999998
 20
96.04551732809558
 40
1
100
AcDbArc
 50
240.0000000000004
 51
299.9999999999999
  0
LINE
  5
ED
100
AcDbEntity
  8
9902-225 wheelbase folded
  6
ByLayer
 62
  256
370
   -1
100
AcDbLine
 10
36.17403810567673
 20
84.02164262227517
 11
33.46410161513783
 21
88.71539030917346
  0
ARC
  5
EE
100
AcDbEntity
  8
9902-225 wheelbase folded
  6
ByLayer
 62
  256
370
   -1
100
AcDbCircle
 10
34.33012701892227
 20
89.21539030917346
 40
1
100
AcDbArc
 50
150.0000000000001
 51
210
  0
LINE
  5
EF
100
AcDbEntity
  8
9902-225 wheelbase folded
  6
ByLayer
 62
  256
370
   -1
100
AcDbLine
 10
34.49999999999998
 20
92.58141571295783
 11
39.19374768689835
 21
95.29135220349679
  0
ARC
  5
F0
100
AcDbEntity
  8
9902-225 wheelbase folded
  6
ByLayer
 62
  256
370
   -1
100
AcDbCircle
 10
30.00000000000007
 20
91.71539030917344
 40
4
100
AcDbArc
 50
330.0000000000001
 51
359.9999999999993
  0
ARC
  5
F1
100
AcDbEntity
  8
9902-225 wheelbase folded
  6
ByLayer
 62
  256
370
   -1
100
AcDbCircle
 10
34.99999999999998
 20
91.71539030917339
 40
1
100
AcDbArc
 50
120
 51
179.9999999999995
  0
CIRCLE
  5
F2
100
AcDbEntity
  8
9902-225 wheelbase folded
  6
ByLayer
 62
  256
370
   -1
100
AcDbCircle
 10
25.00000000000002
 20
17.86386713469653
 40
1.5
  0
ARC
  5
F3
100
AcDbEntity
  8
9902-225 wheelbase folded
  6
ByLayer
 62
  256
370
   -1
100
AcDbCircle
 10
17.00000000000009
 20
99.22094380863861
 40
2
100
AcDbArc
 50
120
 51
180.0000000000001
  0
LINE
  5
F4
100
AcDbEntity
  8
9902-225 wheelbase folded
  6
ByLayer
 62
  256
370
   -1
100
AcDbLine
 10
16.00000000000009
 20
100.9529946162075
 11
29.0000000000001
 21
108.4585481156726
  0
ARC
  5
F5
100
AcDbEntity
  8
9902-225 wheelbase folded
  6
ByLayer
 62
  256
370
   -1
100
AcDbCircle
 10
30.0000000000001
 20
106.7264973081037
 40
2
100
AcDbArc
 50
59.99999999999983
 51
120
  0
LINE
  5
F6
100
AcDbEntity
  8
9902-225 wheelbase folded
  6
ByLayer
 62
  256
370
   -1
100
AcDbLine
 10
31.00000000000011
 20
108.4585481156726
 11
44.00000000000009
 21
100.9529946162075
  0
ARC
  5
F7
100
AcDbEntity
  8
9902-225 wheelbase folded
  6
ByLayer
 62
  256
370
   -1
100
AcDbCircle
 10
43.00000000000009
 20
99.22094380863858
 40
2
100
AcDbArc
 50
360
 51
59.99999999999993
  0
LINE
  5
F8
100
AcDbEntity
  8
9902-225 wheelbase folded
  6
ByLayer
 62
  256
370
   -1
100
AcDbLine
 10
45.00000000000009
 20
84.20983680970829
 11
45.00000000000009
 21
99.22094380863859
  0
ARC
  5
F9
100
AcDbEntity
  8
9902-225 wheelbase folded
  6
ByLayer
 62
  256
370
   -1
100
AcDbCircle
 10
43.00000000000009
 20
84.20983680970829
 40
2
100
AcDbArc
 50
299.9999999999999
 51
359.9999999999999
  0
LINE
  5
FA
100
AcDbEntity
  8
9902-225 wheelbase folded
  6
ByLayer
 62
  256
370
   -1
100
AcDbLine
 10
16.00000000000003
 20
32.21222132418594
 11
16.00000000000006
 21
67.21222132418593
  0
LINE
  5
FB
100
AcDbEntity
  8
9902-225 wheelbase folded
  6
ByLayer
 62
  256
370
   -1
100
AcDbLine
 10
32.00000000000003
 20
32.2122213241859
 11
32.00000000000006
 21
67.21222132418589
  0
LINE
  5
FC
100
AcDbEntity
  8
9902-225 wheelbase folded
  6
ByLayer
 62
  256
370
   -1
100
AcDbLine
 10
32.00000000000003
 20
32.2122213241859
 11
16.00000000000003
 21
32.21222132418594
  0
LINE
  5
FD
100
AcDbEntity
  8
9902-225 wheelbase folded
  6
ByLayer
 62
  256
370
   -1
100
AcDbLine
 10
16.00000000000006
 20
67.21222132418593
 11
32.00000000000006
 21
67.21222132418589
  0
LINE
  5
FE
100
AcDbEntity
  8
9902-225 wheelbase folded
  6
ByLayer
 62
  256
370
   -1
100
AcDbLine
 10
34.00000000000006
 20
76.70428331024316
 11
44.00000000000009
 21
82.47778600213942
  0
ARC
  5
FF
100
AcDbEntity
  8
9902-225 wheelbase folded
  6
ByLayer
 62
  256
370
   -1
100
AcDbCircle
 10
35.00000000000006
 20
74.97223250267429
 40
2
100
AcDbArc
 50
120
 51
179.9999999999999
  0
CIRCLE
  5
100
100
AcDbEntity
  8
9902-225 wheelbase folded
  6
ByLayer
 62
  256
370
   -1
100
AcDbCircle
 10
21
 20
-1.732050807568881
 40
1
  0
LINE
  5
101
100
AcDbEntity
  8
9902-225 wheelbase folded
  6
ByLayer
 62
  256
370
   -1
100
AcDbLine
 10
26
 20
-10.39230484541326
 11
27.49999999999998
 21
-9.526279441628834
  0
LINE
  5
102
100
AcDbEntity
  8
9902-225 wheelbase folded
  6
ByLayer
 62
  256
370
   -1
100
AcDbLine
 10
32.99999999999999
 20
-1.895467290069508e-014
 11
33.00000000000006
 21
74.97223250267429
  0
ARC
  5
103
100
AcDbEntity
  8
9902-225 wheelbase folded
  6
ByLayer
 62
  256
370
   -1
100
AcDbCircle
 10
21.99999999999999
 20
-8.43769498715119e-015
 40
11
100
AcDbArc
 50
299.9999999999999
 51
359.9999999999999
  0
LINE
  5
104
100
AcDbEntity
  8
9902-225 wheelbase folded
  6
ByLayer
 62
  256
370
   -1
100
AcDbLine
 10
15.00000000000002
 20
19.9337484987988
 11
15.00000000000008
 21
99.22094380863861
  0
ARC
  5
105
100
AcDbEntity
  8
9902-225 wheelbase folded
  6
ByLayer
 62
  256
370
   -1
100
AcDbCircle
 10
17.00000000000001
 20
19.9337484987988
 40
2
100
AcDbArc
 50
179.9999999999999
 51
249.5126848852771
  0
ARC
  5
106
100
AcDbEntity
  8
9902-225 wheelbase folded
  6
ByLayer
 62
  256
370
   -1
100
AcDbCircle
 10
20.99999930062483
 20
-1.732051211353322
 40
10
100
AcDbArc
 50
162.1511719979875
 51
299.9999999999999
  0
ARC
  5
107
100
AcDbEntity
  8
9902-225 wheelbase folded
  6
ByLayer
 62
  256
370
   -1
100
AcDbCircle
 10
15.25
 20
15.25
 40
3
100
AcDbArc
 50
284.5405915180141
 51
69.51268488527717
  0
LINE
  5
108
100
AcDbEntity
  8
9902-225 wheelbase folded
  6
ByLayer
 62
  256
370
   -1
100
AcDbLine
 10
11.48131401054902
 20
1.333014913299526
 11
14.60159209606988
 21
11.023163153399
  0
ARC
  5
109
100
AcDbEntity
  8
9902-225 wheelbase folded
  6
ByLayer
 62
  256
370
   -1
100
AcDbCircle
 10
16.50532915408505
 20
10.41014992846843
 40
2
100
AcDbArc
 50
104.540591518014
 51
162.1511716978073
  0
CIRCLE
  5
10A
100
AcDbEntity
  8
9901-225 wheelbase deployed
  6
ByLayer
 62
  256
370
   -1
100
AcDbCircle
 10
97.42785792574927
 20
-56.25000000000009
 40
13.75
  0
CIRCLE
  5
10B
100
AcDbEntity
  8
9901-225 wheelbase deployed
  6
ByLayer
 62
  256
370
   -1
100
AcDbCircle
 10
21
 20
-1.732050807568881
 40
2.5
  0
LINE
  5
10C
100
AcDbEntity
  8
9901-225 wheelbase deployed
  6
ByLayer
 62
  256
370
   -1
100
AcDbLine
 10
91.9062813653136
 20
-43.65735562769895
 11
84.16960577850155
 21
-35.92068004088688
  0
LINE
  5
10D
100
AcDbEntity
  8
9901-225 wheelbase deployed
  6
ByLayer
 62
  256
370
   -1
100
AcDbLine
 10
84.83521355344811
 20
-50.72842343956441
 11
77.09853796663606
 21
-42.99174785275235
  0
LINE
  5
10E
100
AcDbEntity
  8
9901-225 wheelbase deployed
  6
ByLayer
 62
  256
370
   -1
100
AcDbLine
 10
77.09853796663606
 20
-42.99174785275235
 11
84.16960577850155
 21
-35.92068004088688
  0
ARC
  5
10F
100
AcDbEntity
  8
9901-225 wheelbase deployed
  6
ByLayer
 62
  256
370
   -1
100
AcDbCircle
 10
87.67785792574927
 20
-56.25000000000009
 40
1.5
100
AcDbArc
 50
90
 51
180
  0
LINE
  5
110
100
AcDbEntity
  8
9901-225 wheelbase deployed
  6
ByLayer
 62
  256
370
   -1
100
AcDbLine
 10
86.17785792574927
 20
-56.25000000000009
 11
86.17785792574927
 21
-56.25000000000009
  0
ARC
  5
111
100
AcDbEntity
  8
9901-225 wheelbase deployed
  6
ByLayer
 62
  256
370
   -1
100
AcDbCircle
 10
87.67785792574927
 20
-56.25000000000009
 40
1.5
100
AcDbArc
 50
180
 51
269.9999999999999
  0
ARC
  5
112
100
AcDbEntity
  8
9901-225 wheelbase deployed
  6
ByLayer
 62
  256
370
   -1
100
AcDbCircle
 10
107.1778579257493
 20
-56.2500000000001
 40
1.5
100
AcDbArc
 50
360
 51
90
  0
LINE
  5
113
100
AcDbEntity
  8
9901-225 wheelbase deployed
  6
ByLayer
 62
  256
370
   -1
100
AcDbLine
 10
108.6778579257493
 20
-56.2500000000001
 11
108.6778579257493
 21
-56.2500000000001
  0
ARC
  5
114
100
AcDbEntity
  8
9901-225 wheelbase deployed
  6
ByLayer
 62
  256
370
   -1
100
AcDbCircle
 10
107.1778579257493
 20
-56.2500000000001
 40
1.5
100
AcDbArc
 50
269.9999999999999
 51
360
  0
ARC
  5
115
100
AcDbEntity
  8
9901-225 wheelbase deployed
  6
ByLayer
 62
  256
370
   -1
100
AcDbCircle
 10
97.42785792574927
 20
-46.50000000000009
 40
1.5
100
AcDbArc
 50
359.9999999999999
 51
90
  0
LINE
  5
116
100
AcDbEntity
  8
9901-225 wheelbase deployed
  6
ByLayer
 62
  256
370
   -1
100
AcDbLine
 10
97.42785792574927
 20
-45.00000000000009
 11
97.42785792574927
 21
-45.00000000000009
  0
ARC
  5
117
100
AcDbEntity
  8
9901-225 wheelbase deployed
  6
ByLayer
 62
  256
370
   -1
100
AcDbCircle
 10
97.42785792574927
 20
-46.50000000000009
 40
1.5
100
AcDbArc
 50
90
 51
180
  0
ARC
  5
118
100
AcDbEntity
  8
9901-225 wheelbase deployed
  6
ByLayer
 62
  256
370
   -1
100
AcDbCircle
 10
97.42785792574925
 20
-66.0000000000001
 40
1.5
100
AcDbArc
 50
269.9999999999999
 51
359.9999999999999
  0
LINE
  5
119
100
AcDbEntity
  8
9901-225 wheelbase deployed
  6
ByLayer
 62
  256
370
   -1
100
AcDbLine
 10
97.42785792574925
 20
-67.50000000000009
 11
97.42785792574925
 21
-67.50000000000009
  0
ARC
  5
11A
100
AcDbEntity
  8
9901-225 wheelbase deployed
  6
ByLayer
 62
  256
370
   -1
100
AcDbCircle
 10
97.42785792574925
 20
-66.0000000000001
 40
1.5
100
AcDbArc
 50
180
 51
269.9999999999999
  0
LINE
  5
11B
100
AcDbEntity
  8
9901-225 wheelbase deployed
  6
ByLayer
 62
  256
370
   -1
100
AcDbLine
 10
87.67785792574927
 20
-54.75000000000009
 11
93.09773090682707
 21
-54.7500000000001
  0
ARC
  5
11C
100
AcDbEntity
  8
9901-225 wheelbase deployed
  6
ByLayer
 62
  256
370
   -1
100
AcDbCircle
 10
93.09773090682707
 20
-53.75000000000009
 40
1
100
AcDbArc
 50
269.9999999999999
 51
330.0000000000003
  0
LINE
  5
11D
100
AcDbEntity
  8
9901-225 wheelbase deployed
  6
ByLayer
 62
  256
370
   -1
100
AcDbLine
 10
95.92785792574927
 20
-46.50000000000009
 11
95.92785792574927
 21
-51.919872981078
  0
ARC
  5
11E
100
AcDbEntity
  8
9901-225 wheelbase deployed
  6
ByLayer
 62
  256
370
   -1
100
AcDbCircle
 10
97.42785792574927
 20
-56.25000000000009
 40
4
100
AcDbArc
 50
120.0000000000005
 51
150
  0
ARC
  5
11F
100
AcDbEntity
  8
9901-225 wheelbase deployed
  6
ByLayer
 62
  256
370
   -1
100
AcDbCircle
 10
94.92785792574927
 20
-51.919872981078
 40
1
100
AcDbArc
 50
300.0000000000009
 51
360
  0
LINE
  5
120
100
AcDbEntity
  8
9901-225 wheelbase deployed
  6
ByLayer
 62
  256
370
   -1
100
AcDbLine
 10
98.92785792574927
 20
-46.5000000000001
 11
98.92785792574927
 21
-51.91987298107802
  0
ARC
  5
121
100
AcDbEntity
  8
9901-225 wheelbase deployed
  6
ByLayer
 62
  256
370
   -1
100
AcDbCircle
 10
99.92785792574927
 20
-51.91987298107802
 40
1
100
AcDbArc
 50
180
 51
239.9999999999995
  0
LINE
  5
122
100
AcDbEntity
  8
9901-225 wheelbase deployed
  6
ByLayer
 62
  256
370
   -1
100
AcDbLine
 10
101.7579849446715
 20
-54.75000000000011
 11
107.1778579257493
 21
-54.7500000000001
  0
ARC
  5
123
100
AcDbEntity
  8
9901-225 wheelbase deployed
  6
ByLayer
 62
  256
370
   -1
100
AcDbCircle
 10
97.42785792574927
 20
-56.25000000000009
 40
4
100
AcDbArc
 50
29.99999999999975
 51
59.99999999999932
  0
ARC
  5
124
100
AcDbEntity
  8
9901-225 wheelbase deployed
  6
ByLayer
 62
  256
370
   -1
100
AcDbCircle
 10
101.7579849446715
 20
-53.7500000000001
 40
1
100
AcDbArc
 50
209.9999999999995
 51
269.9999999999999
  0
LINE
  5
125
100
AcDbEntity
  8
9901-225 wheelbase deployed
  6
ByLayer
 62
  256
370
   -1
100
AcDbLine
 10
101.7579849446714
 20
-57.75000000000011
 11
107.1778579257493
 21
-57.7500000000001
  0
ARC
  5
126
100
AcDbEntity
  8
9901-225 wheelbase deployed
  6
ByLayer
 62
  256
370
   -1
100
AcDbCircle
 10
101.7579849446714
 20
-58.75000000000011
 40
1
100
AcDbArc
 50
90
 51
149.9999999999998
  0
LINE
  5
127
100
AcDbEntity
  8
9901-225 wheelbase deployed
  6
ByLayer
 62
  256
370
   -1
100
AcDbLine
 10
98.92785792574927
 20
-60.58012701892218
 11
98.92785792574925
 21
-66.0000000000001
  0
ARC
  5
128
100
AcDbEntity
  8
9901-225 wheelbase deployed
  6
ByLayer
 62
  256
370
   -1
100
AcDbCircle
 10
97.42785792574927
 20
-56.25000000000009
 40
4
100
AcDbArc
 50
300.0000000000006
 51
329.9999999999999
  0
ARC
  5
129
100
AcDbEntity
  8
9901-225 wheelbase deployed
  6
ByLayer
 62
  256
370
   -1
100
AcDbCircle
 10
99.92785792574927
 20
-60.58012701892218
 40
1
100
AcDbArc
 50
120.0000000000005
 51
180
  0
LINE
  5
12A
100
AcDbEntity
  8
9901-225 wheelbase deployed
  6
ByLayer
 62
  256
370
   -1
100
AcDbLine
 10
87.67785792574927
 20
-57.75000000000009
 11
93.09773090682708
 21
-57.7500000000001
  0
ARC
  5
12B
100
AcDbEntity
  8
9901-225 wheelbase deployed
  6
ByLayer
 62
  256
370
   -1
100
AcDbCircle
 10
93.09773090682708
 20
-58.7500000000001
 40
1
100
AcDbArc
 50
30.00000000000012
 51
90
  0
LINE
  5
12C
100
AcDbEntity
  8
9901-225 wheelbase deployed
  6
ByLayer
 62
  256
370
   -1
100
AcDbLine
 10
95.92785792574927
 20
-60.58012701892218
 11
95.92785792574925
 21
-66.00000000000009
  0
ARC
  5
12D
100
AcDbEntity
  8
9901-225 wheelbase deployed
  6
ByLayer
 62
  256
370
   -1
100
AcDbCircle
 10
97.42785792574927
 20
-56.25000000000009
 40
4
100
AcDbArc
 50
210.0000000000002
 51
239.9999999999993
  0
ARC
  5
12E
100
AcDbEntity
  8
9901-225 wheelbase deployed
  6
ByLayer
 62
  256
370
   -1
100
AcDbCircle
 10
94.92785792574925
 20
-60.58012701892218
 40
1
100
AcDbArc
 50
360
 51
59.99999999999951
  0
CIRCLE
  5
12F
100
AcDbEntity
  8
9901-225 wheelbase deployed
  6
ByLayer
 62
  256
370
   -1
100
AcDbCircle
 10
35.97056274847712
 20
-14.99411139383937
 40
1.5
  0
ARC
  5
130
100
AcDbEntity
  8
9901-225 wheelbase deployed
  6
ByLayer
 62
  256
370
   -1
100
AcDbCircle
 10
110.4278579257493
 20
-48.74444650053499
 40
2
100
AcDbArc
 50
360
 51
60.00000000000005
  0
LINE
  5
131
100
AcDbEntity
  8
9901-225 wheelbase deployed
  6
ByLayer
 62
  256
370
   -1
100
AcDbLine
 10
112.4278579257493
 20
-48.74444650053499
 11
112.4278579257493
 21
-63.75555349946528
  0
ARC
  5
132
100
AcDbEntity
  8
9901-225 wheelbase deployed
  6
ByLayer
 62
  256
370
   -1
100
AcDbCircle
 10
110.4278579257493
 20
-63.75555349946528
 40
2
100
AcDbArc
 50
299.9999999999998
 51
360
  0
LINE
  5
133
100
AcDbEntity
  8
9901-225 wheelbase deployed
  6
ByLayer
 62
  256
370
   -1
100
AcDbLine
 10
111.4278579257493
 20
-65.48760430703416
 11
98.42785792574925
 21
-72.99315780649926
  0
ARC
  5
134
100
AcDbEntity
  8
9901-225 wheelbase deployed
  6
ByLayer
 62
  256
370
   -1
100
AcDbCircle
 10
97.42785792574925
 20
-71.26110699893037
 40
2
100
AcDbArc
 50
239.9999999999999
 51
299.9999999999999
  0
LINE
  5
135
100
AcDbEntity
  8
9901-225 wheelbase deployed
  6
ByLayer
 62
  256
370
   -1
100
AcDbLine
 10
83.42785792574924
 20
-65.4876043070341
 11
96.42785792574925
 21
-72.99315780649927
  0
ARC
  5
136
100
AcDbEntity
  8
9901-225 wheelbase deployed
  6
ByLayer
 62
  256
370
   -1
100
AcDbCircle
 10
84.42785792574924
 20
-63.75555349946523
 40
2
100
AcDbArc
 50
180
 51
239.9999999999999
  0
LINE
  5
137
100
AcDbEntity
  8
9901-225 wheelbase deployed
  6
ByLayer
 62
  256
370
   -1
100
AcDbLine
 10
52.89660197907182
 20
-14.37405985452414
 11
83.20749111152713
 21
-31.87405985452418
  0
LINE
  5
138
100
AcDbEntity
  8
9901-225 wheelbase deployed
  6
ByLayer
 62
  256
370
   -1
100
AcDbLine
 10
44.89660197907178
 20
-28.23046631507514
 11
75.20749111152709
 21
-45.73046631507518
  0
LINE
  5
139
100
AcDbEntity
  8
9901-225 wheelbase deployed
  6
ByLayer
 62
  256
370
   -1
100
AcDbLine
 10
44.89660197907178
 20
-28.23046631507514
 11
52.89660197907182
 21
-14.37405985452414
  0
LINE
  5
13A
100
AcDbEntity
  8
9901-225 wheelbase deployed
  6
ByLayer
 62
  256
370
   -1
100
AcDbLine
 10
83.20749111152713
 20
-31.87405985452418
 11
75.20749111152709
 21
-45.73046631507518
  0
LINE
  5
13B
100
AcDbEntity
  8
9901-225 wheelbase deployed
  6
ByLayer
 62
  256
370
   -1
100
AcDbLine
 10
82.42785792574925
 20
-52.20854811567269
 11
82.42785792574925
 21
-63.75555349946523
  0
ARC
  5
13C
100
AcDbEntity
  8
9901-225 wheelbase deployed
  6
ByLayer
 62
  256
370
   -1
100
AcDbCircle
 10
80.42785792574927
 20
-52.20854811567268
 40
2
100
AcDbArc
 50
360
 51
59.99999999999993
  0
CIRCLE
  5
13D
100
AcDbEntity
  8
9901-225 wheelbase deployed
  6
ByLayer
 62
  256
370
   -1
100
AcDbCircle
 10
21
 20
-1.732050807568881
 40
1
  0
LINE
  5
13E
100
AcDbEntity
  8
9901-225 wheelbase deployed
  6
ByLayer
 62
  256
370
   -1
100
AcDbLine
 10
11
 20
-1.732050807568882
 11
11
 21
-3.464101615137736
  0
LINE
  5
13F
100
AcDbEntity
  8
9901-225 wheelbase deployed
  6
ByLayer
 62
  256
370
   -1
100
AcDbLine
 10
16.49999999999999
 20
-12.99038105676656
 11
81.42785792574927
 21
-50.47649730810381
  0
ARC
  5
140
100
AcDbEntity
  8
9901-225 wheelbase deployed
  6
ByLayer
 62
  256
370
   -1
100
AcDbCircle
 10
22
 20
-3.464101615137745
 40
11
100
AcDbArc
 50
180
 51
239.9999999999999
  0
LINE
  5
141
100
AcDbEntity
  8
9901-225 wheelbase deployed
  6
ByLayer
 62
  256
370
   -1
100
AcDbLine
 10
42.76313259260967
 20
-7.368798038046116
 11
111.4278579257493
 21
-47.01239569296611
  0
ARC
  5
142
100
AcDbEntity
  8
9901-225 wheelbase deployed
  6
ByLayer
 62
  256
370
   -1
100
AcDbCircle
 10
41.76313259260967
 20
-9.100848845614989
 40
2
100
AcDbArc
 50
59.99999999999988
 51
129.5126848852771
  0
ARC
  5
143
100
AcDbEntity
  8
9901-225 wheelbase deployed
  6
ByLayer
 62
  256
370
   -1
100
AcDbCircle
 10
21
 20
-1.732049999999999
 40
10
100
AcDbArc
 50
42.15117199798748
 51
180
  0
ARC
  5
144
100
AcDbEntity
  8
9901-225 wheelbase deployed
  6
ByLayer
 62
  256
370
   -1
100
AcDbCircle
 10
38.58188740771269
 20
-5.243430139592809
 40
3
100
AcDbArc
 50
164.5405915180141
 51
309.5126848852772
  0
LINE
  5
145
100
AcDbEntity
  8
9901-225 wheelbase deployed
  6
ByLayer
 62
  256
370
   -1
100
AcDbLine
 10
28.4137677732664
 20
4.978840209508471
 11
35.24554327286918
 21
-2.568473999474208
  0
ARC
  5
146
100
AcDbEntity
  8
9901-225 wheelbase deployed
  6
ByLayer
 62
  256
370
   -1
100
AcDbCircle
 10
33.7627897182159
 20
-3.910652041375903
 40
2
100
AcDbArc
 50
344.540591518014
 51
42.15117169780724
  0
LINE
  5
147
100
AcDbEntity
  8
9900-225 wheelbase baseline
  6
ByLayer
 62
  256
370
   -1
100
AcDbLine
 10
-8
 20
25.00000000000002
 11
-7.999999999999964
 21
60.00000000000001
  0
LINE
  5
148
100
AcDbEntity
  8
9900-225 wheelbase baseline
  6
ByLayer
 62
  256
370
   -1
100
AcDbLine
 10
8
 20
24.99999999999999
 11
8.000000000000036
 21
59.99999999999997
  0
LINE
  5
149
100
AcDbEntity
  8
9900-225 wheelbase baseline
  6
ByLayer
 62
  256
370
   -1
100
AcDbLine
 10
8
 20
24.99999999999999
 11
-8
 21
25.00000000000002
  0
LINE
  5
14A
100
AcDbEntity
  8
9900-225 wheelbase baseline
  6
ByLayer
 62
  256
370
   -1
100
AcDbLine
 10
-7.999999999999964
 20
60.00000000000001
 11
8.000000000000036
 21
59.99999999999997
  0
LWPOLYLINE
  5
14B
100
AcDbEntity
  8
9900-225 wheelbase baseline
  6
ByLayer
 62
  256
370
   -1
100
AcDbPolyline
 90
    4
 70
    1
 43
0
 10
-6
 20
70
 10
6
 20
70
 10
6
 20
93
 10
-6
 20
93
  0
CIRCLE
  5
14C
100
AcDbEntity
  8
0-quad 190 wheelbase
  6
ByLayer
 62
  256
370
   -1
100
AcDbCircle
 10
0
 20
0
 40
95
  0
LINE
  5
14D
100
AcDbEntity
  8
0-quad 190 wheelbase
  6
ByLayer
 62
  256
370
   -1
100
AcDbLine
 10
-100
 20
100
 11
100
 21
-100
  0
LINE
  5
14E
100
AcDbEntity
  8
0-quad 190 wheelbase
  6
ByLayer
 62
  256
370
   -1
100
AcDbLine
 10
100
 20
100
 11
-100
 21
-100
  0
CIRCLE
  5
14F
100
AcDbEntity
  8
0-quad 190 wheelbase
  6
ByLayer
 62
    1
370
   -1
100
AcDbCircle
 10
67.17514421272202
 20
67.17514421272202
 40
63.5
  0
CIRCLE
  5
150
100
AcDbEntity
  8
0-quad 190 wheelbase
  6
ByLayer
 62
    1
370
   -1
100
AcDbCircle
 10
-67.17514421272202
 20
67.17514421272202
 40
63.5
  0
CIRCLE
  5
151
100
AcDbEntity
  8
0-quad 190 wheelbase
  6
ByLayer
 62
    1
370
   -1
100
AcDbCircle
 10
-67.17514421272202
 20
-67.17514421272202
 40
63.5
  0
CIRCLE
  5
152
100
AcDbEntity
  8
0-quad 190 wheelbase
  6
ByLayer
 62
    1
370
   -1
100
AcDbCircle
 10
67.17514421272202
 20
-67.17514421272202
 40
63.5
  0
LINE
  5
153
100
AcDbEntity
  8
0-quad 190 wheelbase
  6
ByLayer
 62
  256
370
   -1
100
AcDbLine
 10
-22.27386360737625
 20
22.27386360737625
 11
22.27386360737625
 21
22.27386360737625
  0
LINE
  5
154
100
AcDbEntity
  8
0-quad 190 wheelbase
  6
ByLayer
 62
  256
370
   -1
100
AcDbLine
 10
22.27386360737625
 20
22.27386360737625
 11
22.27386360737625
 21
-22.27386360737625
  0
LINE
  5
155
100
AcDbEntity
  8
0-quad 190 wheelbase
  6
ByLayer
 62
  256
370
   -1
100
AcDbLine
 10
22.27386360737625
 20
-22.27386360737625
 11
-22.27386360737625
 21
-22.27386360737625
  0
LINE
  5
156
100
AcDbEntity
  8
0-quad 190 wheelbase
  6
ByLayer
 62
  256
370
   -1
100
AcDbLine
 10
-22.27386360737625
 20
-22.27386360737625
 11
-22.27386360737625
 21
22.27386360737625
  0
CIRCLE
  5
157
100
AcDbEntity
  8
0-190 wheelbase
  6
ByLayer
 62
    1
370
   -1
100
AcDbCircle
 10
82.27241335952165
 20
-47.50000000000005
 40
63.5
  0
LINE
  5
158
100
AcDbEntity
  8
0-190 wheelbase
  6
ByLayer
 62
  256
370
   -1
100
AcDbLine
 10
-18.00000000000002
 20
31.49999999999998
 11
18.00000000000002
 21
31.49999999999996
  0
LINE
  5
159
100
AcDbEntity
  8
0-190 wheelbase
  6
ByLayer
 62
  256
370
   -1
100
AcDbLine
 10
-18.00000000000002
 20
31.49999999999998
 11
-18
 21
-59.60769515458673
  0
LINE
  5
15A
100
AcDbEntity
  8
0-190 wheelbase
  6
ByLayer
 62
  256
370
   -1
100
AcDbLine
 10
18.00000000000002
 20
31.49999999999996
 11
18
 21
-59.60769346706793
  0
LINE
  5
15B
100
AcDbEntity
  8
0-190 wheelbase
  6
ByLayer
 62
  256
370
   -1
100
AcDbLine
 10
18
 20
-59.60769346706793
 11
1.332267629550188e-015
 21
-70
  0
LINE
  5
15C
100
AcDbEntity
  8
0-190 wheelbase
  6
ByLayer
 62
  256
370
   -1
100
AcDbLine
 10
-18
 20
-59.60769515458673
 11
1.332267629550188e-015
 21
-70
  0
LINE
  5
15D
100
AcDbEntity
  8
9900-225 wheelbase baseline
  6
ByLayer
 62
  256
370
   -1
100
AcDbLine
 10
33
 20
-80.94744111674234
 11
-3.083644450896372e-014
 21
-99.99999999999999
  0
LINE
  5
15E
100
AcDbEntity
  8
9900-225 wheelbase baseline
  6
ByLayer
 62
  256
370
   -1
100
AcDbLine
 10
-33.00000000000001
 20
30.94744111674235
 11
-33
 21
-80.9474411167423
  0
LINE
  5
15F
100
AcDbEntity
  8
9900-225 wheelbase baseline
  6
ByLayer
 62
  256
370
   -1
100
AcDbLine
 10
-33
 20
-80.9474411167423
 11
-3.083644450896372e-014
 21
-99.99999999999999
  0
LINE
  5
160
100
AcDbEntity
  8
9900-225 wheelbase baseline
  6
ByLayer
 62
  256
370
   -1
100
AcDbLine
 10
-15
 20
41.33974596215562
 11
-33.00000000000001
 21
30.94744111674235
  0
LINE
  5
161
100
AcDbEntity
  8
9900-225 wheelbase baseline
  6
ByLayer
 62
  256
370
   -1
100
AcDbLine
 10
-15
 20
41.33974596215562
 11
-15
 21
200
  0
LINE
  5
162
100
AcDbEntity
  8
9900-225 wheelbase baseline
  6
ByLayer
 62
  256
370
   -1
100
AcDbLine
 10
33.00000000000001
 20
23.38119784648298
 11
33
 21
-80.94744111674234
  0
LINE
  5
163
100
AcDbEntity
  8
9900-225 wheelbase baseline
  6
ByLayer
 62
  256
370
   -1
100
AcDbLine
 10
15
 20
33.77350269189625
 11
15
 21
200
  0
LINE
  5
164
100
AcDbEntity
  8
9900-225 wheelbase baseline
  6
ByLayer
 62
  256
370
   -1
100
AcDbLine
 10
15
 20
33.77350269189625
 11
33.00000000000001
 21
23.38119784648298
  0
ENDSEC
  0
SECTION
  2
OBJECTS
  0
DICTIONARY
  5
C
330
0
100
AcDbDictionary
281
    1
  3
ACAD_GROUP
350
D
  0
DICTIONARY
  5
D
330
C
100
AcDbDictionary
281
    1
  0
ENDSEC
  0
EOF
