999
dxfrw 0.6.3
  0
SECTION
  2
HEADER
  9
$ACADVER
  1
AC1021
  9
$DWGCODEPAGE
  3
ANSI_1252
  9
$INSBASE
 10
0
 20
0
 30
0
  9
$EXTMIN
 10
-112.4278595061655
 20
-149.8729833462074
 30
0
  9
$EXTMAX
 10
112.4278595061655
 20
85
 30
0
  9
$LIMMIN
 10
0
 20
0
  9
$LIMMAX
 10
420
 20
297
  9
$ORTHOMODE
 70
    0
  9
$REGENMODE
 70
    1
  9
$FILLMODE
 70
    1
  9
$QTEXTMODE
 70
    0
  9
$MIRRTEXT
 70
    0
  9
$LTSCALE
 40
1
  9
$ATTMODE
 70
    0
  9
$TEXTSIZE
 40
2.5
  9
$TRACEWID
 40
15.68
  9
$TEXTSTYLE
  7
STANDARD
  9
$CLAYER
  8
schema e-main body top v3
  9
$CELTYPE
  6
BYLAYER
  9
$CECOLOR
 62
  256
  9
$CELTSCALE
 40
1
  9
$DISPSILH
 70
    0
  9
$DIMSCALE
 40
2.5
  9
$DIMASZ
 40
2.5
  9
$DIMEXO
 40
0.625
  9
$DIMDLI
 40
3.75
  9
$DIMRND
 40
0
  9
$DIMDLE
 40
0
  9
$DIMEXE
 40
1.25
  9
$DIMTP
 40
0
  9
$DIMTM
 40
0
  9
$DIMTXT
 40
2.5
  9
$DIMCEN
 40
2.5
  9
$DIMTSZ
 40
0
  9
$DIMTOL
 70
    0
  9
$DIMLIM
 70
    0
  9
$DIMTIH
 70
    0
  9
$DIMTOH
 70
    0
  9
$DIMSE1
 70
    0
  9
$DIMSE2
 70
    0
  9
$DIMTAD
 70
    1
  9
$DIMZIN
 70
    8
  9
$DIMBLK
  1

  9
$DIMASO
 70
    1
  9
$DIMSHO
 70
    1
  9
$DIMPOST
  1

  9
$DIMAPOST
  1

  9
$DIMALT
 70
    0
  9
$DIMALTD
 70
    3
  9
$DIMALTF
 40
0.03937
  9
$DIMLFAC
 40
1
  9
$DIMTOFL
 70
    1
  9
$DIMTVP
 40
0
  9
$DIMTIX
 70
    0
  9
$DIMSOXD
 70
    0
  9
$DIMSAH
 70
    0
  9
$DIMBLK1
  1

  9
$DIMBLK2
  1

  9
$DIMSTYLE
  2
STANDARD
  9
$DIMCLRD
 70
    0
  9
$DIMCLRE
 70
    0
  9
$DIMCLRT
 70
    0
  9
$DIMTFAC
 40
1
  9
$DIMGAP
 40
0.625
  9
$DIMJUST
 70
    0
  9
$DIMSD1
 70
    0
  9
$DIMSD2
 70
    0
  9
$DIMTOLJ
 70
    0
  9
$DIMTZIN
 70
    8
  9
$DIMALTZ
 70
    0
  9
$DIMALTTZ
 70
    0
  9
$DIMUPT
 70
    0
  9
$DIMDEC
 70
    2
  9
$DIMTDEC
 70
    2
  9
$DIMALTU
 70
    2
  9
$DIMALTTD
 70
    3
  9
$DIMTXSTY
  7
STANDARD
  9
$DIMAUNIT
 70
    0
  9
$DIMADEC
 70
    0
  9
$DIMALTRND
 40
0
  9
$DIMAZIN
 70
    0
  9
$DIMDSEP
 70
   44
  9
$DIMATFIT
 70
    3
  9
$DIMFRAC
 70
    0
  9
$DIMLDRBLK
  1
STANDARD
  9
$DIMLUNIT
 70
    2
  9
$DIMLWD
 70
   -2
  9
$DIMLWE
 70
   -2
  9
$DIMTMOVE
 70
    0
  9
$DIMFXL
 40
1
  9
$DIMFXLON
 70
    0
  9
$DIMJOGANG
 40
0.7854
  9
$DIMTFILL
 70
    0
  9
$DIMTFILLCLR
 70
    0
  9
$DIMARCSYM
 70
    0
  9
$DIMLTYPE
  6

  9
$DIMLTEX1
  6

  9
$DIMLTEX2
  6

  9
$LUNITS
 70
    2
  9
$LUPREC
 70
    4
  9
$SKETCHINC
 40
1
  9
$FILLETRAD
 40
0
  9
$AUNITS
 70
    0
  9
$AUPREC
 70
    2
  9
$MENU
  1
.
  9
$ELEVATION
 40
0
  9
$PELEVATION
 40
0
  9
$THICKNESS
 40
0
  9
$LIMCHECK
 70
    0
  9
$CHAMFERA
 40
0
  9
$CHAMFERB
 40
0
  9
$CHAMFERC
 40
0
  9
$CHAMFERD
 40
0
  9
$SKPOLY
 70
    0
  9
$USRTIMER
 70
    1
  9
$ANGBASE
 50
0
  9
$ANGDIR
 70
    0
  9
$PDMODE
 70
   34
  9
$PDSIZE
 40
0
  9
$PLINEWID
 40
0
  9
$SPLFRAME
 70
    0
  9
$SPLINETYPE
 70
    2
  9
$SPLINESEGS
 70
    8
  9
$HANDSEED
  5
20000
  9
$SURFTAB1
 70
    6
  9
$SURFTAB2
 70
    6
  9
$SURFTYPE
 70
    6
  9
$SURFU
 70
    6
  9
$SURFV
 70
    6
  9
$UCSBASE
  2

  9
$UCSNAME
  2

  9
$UCSORG
 10
0
 20
0
 30
0
  9
$UCSXDIR
 10
1
 20
0
 30
0
  9
$UCSYDIR
 10
0
 20
1
 30
0
  9
$UCSORTHOREF
  2

  9
$UCSORTHOVIEW
 70
    0
  9
$UCSORGTOP
 10
0
 20
0
 30
0
  9
$UCSORGBOTTOM
 10
0
 20
0
 30
0
  9
$UCSORGLEFT
 10
0
 20
0
 30
0
  9
$UCSORGRIGHT
 10
0
 20
0
 30
0
  9
$UCSORGFRONT
 10
0
 20
0
 30
0
  9
$UCSORGBACK
 10
0
 20
0
 30
0
  9
$PUCSBASE
  2

  9
$PUCSNAME
  2

  9
$PUCSORG
 10
0
 20
0
 30
0
  9
$PUCSXDIR
 10
1
 20
0
 30
0
  9
$PUCSYDIR
 10
0
 20
1
 30
0
  9
$PUCSORTHOREF
  2

  9
$PUCSORTHOVIEW
 70
    0
  9
$PUCSORGTOP
 10
0
 20
0
 30
0
  9
$PUCSORGBOTTOM
 10
0
 20
0
 30
0
  9
$PUCSORGLEFT
 10
0
 20
0
 30
0
  9
$PUCSORGRIGHT
 10
0
 20
0
 30
0
  9
$PUCSORGFRONT
 10
0
 20
0
 30
0
  9
$PUCSORGBACK
 10
0
 20
0
 30
0
  9
$USERI1
 70
    0
  9
$USERI2
 70
    0
  9
$USERI3
 70
    0
  9
$USERI4
 70
    0
  9
$USERI5
 70
    0
  9
$USERR1
 40
0
  9
$USERR2
 40
0
  9
$USERR3
 40
0
  9
$USERR4
 40
0
  9
$USERR5
 40
0
  9
$WORLDVIEW
 70
    1
  9
$SHADEDGE
 70
    3
  9
$SHADEDIF
 70
   70
  9
$TILEMODE
 70
    1
  9
$MAXACTVP
 70
   64
  9
$PINSBASE
 10
105
 20
163.4835546615598
 30
0
  9
$PLIMCHECK
 70
    0
  9
$PEXTMIN
 10
0
 20
0
 30
0
  9
$PEXTMAX
 10
0
 20
0
 30
0
  9
$GRIDMODE
 70
    1
  9
$SNAPSTYLE
 70
    0
  9
$PLIMMIN
 10
0
 20
0
  9
$PLIMMAX
 10
210
 20
297
  9
$UNITMODE
 70
    0
  9
$VISRETAIN
 70
    1
  9
$PLINEGEN
 70
    0
  9
$PSLTSCALE
 70
    1
  9
$TREEDEPTH
 70
 3020
  9
$CMLSTYLE
  2
Standard
  9
$CMLJUST
 70
    0
  9
$CMLSCALE
 40
20
  9
$PROXYGRAPHICS
 70
    1
  9
$MEASUREMENT
 70
    1
  9
$CELWEIGHT
370
   -1
  9
$ENDCAPS
280
    0
  9
$JOINSTYLE
280
    0
  9
$LWDISPLAY
290
    0
  9
$INSUNITS
 70
    4
  9
$HYPERLINKBASE
  1

  9
$STYLESHEET
  1

  9
$XEDIT
290
    1
  9
$CEPSNTYPE
380
    0
  9
$PSTYLEMODE
290
    1
  9
$EXTNAMES
290
    1
  9
$PSVPSCALE
 40
0.5
  9
$OLESTARTUP
290
    0
  9
$SORTENTS
280
  127
  9
$INDEXCTL
280
    0
  9
$HIDETEXT
280
    1
  9
$XCLIPFRAME
290
    0
  9
$HALOGAP
280
    0
  9
$OBSCOLOR
 70
  257
  9
$OBSLTYPE
280
    0
  9
$INTERSECTIONDISPLAY
280
    0
  9
$INTERSECTIONCOLOR
 70
  257
  9
$DIMASSOC
280
    1
  9
$PROJECTNAME
  1

  9
$CAMERADISPLAY
290
    0
  9
$LENSLENGTH
 40
50
  9
$CAMERAHEIGHT
 40
0
  9
$STEPSPERSEC
 40
2
  9
$STEPSIZE
 40
50
  9
$3DDWFPREC
 40
2
  9
$PSOLWIDTH
 40
5
  9
$PSOLHEIGHT
 40
80
  9
$LOFTANG1
 40
1.570796326794897
  9
$LOFTANG2
 40
1.570796326794897
  9
$LOFTMAG1
 40
0
  9
$LOFTMAG2
 40
0
  9
$LOFTPARAM
 70
    7
  9
$LOFTNORMALS
280
    1
  9
$LATITUDE
 40
1
  9
$LONGITUDE
 40
1
  9
$NORTHDIRECTION
 40
0
  9
$TIMEZONE
 70
-8000
  9
$LIGHTGLYPHDISPLAY
280
    1
  9
$TILEMODELIGHTSYNCH
280
    1
  9
$SOLIDHIST
280
    1
  9
$SHOWHIST
280
    1
  9
$DWFFRAME
280
    2
  9
$DGNFRAME
280
    0
  9
$REALWORLDSCALE
290
    1
  9
$INTERFERECOLOR
 62
    1
  9
$CSHADOW
280
    0
  9
$SHADOWPLANELOCATION
 40
0
  0
ENDSEC
  0
SECTION
  2
CLASSES
  0
ENDSEC
  0
SECTION
  2
TABLES
  0
TABLE
  2
VPORT
  5
8
330
0
100
AcDbSymbolTable
 70
    1
  0
VPORT
  5
31
330
2
100
AcDbSymbolTableRecord
100
AcDbViewportTableRecord
  2
*ACTIVE
 70
    0
 10
0
 20
0
 11
1
 21
1
 12
113.0436054509178
 22
44.07529176259878
 13
0
 23
0
 14
10
 24
10
 15
10
 25
10
 16
0
 26
0
 36
1
 17
0
 27
0
 37
0
 40
240.7301649757887
 41
1.878345498783455
 42
50
 43
0
 44
0
 50
0
 51
0
 71
    0
 72
  100
 73
    1
 74
    3
 75
    0
 76
    1
 77
    0
 78
    0
281
    0
 65
    1
110
0
120
0
130
0
111
1
121
0
131
0
112
0
122
1
132
0
 79
    0
146
0
348
10020
 60
    7
 61
    5
292
1
282
    1
141
0
142
0
 63
  250
421
3358443
  0
ENDTAB
  0
TABLE
  2
LTYPE
  5
5
330
0
100
AcDbSymbolTable
 70
    4
  0
LTYPE
  5
14
330
5
100
AcDbSymbolTableRecord
100
AcDbLinetypeTableRecord
  2
ByBlock
 70
    0
  3

 72
   65
 73
    0
 40
0
  0
LTYPE
  5
15
330
5
100
AcDbSymbolTableRecord
100
AcDbLinetypeTableRecord
  2
ByLayer
 70
    0
  3

 72
   65
 73
    0
 40
0
  0
LTYPE
  5
16
330
5
100
AcDbSymbolTableRecord
100
AcDbLinetypeTableRecord
  2
Continuous
 70
    0
  3
Solid line
 72
   65
 73
    0
 40
0
  0
LTYPE
  5
32
330
5
100
AcDbSymbolTableRecord
100
AcDbLinetypeTableRecord
  2
DOT
 70
    0
  3
Dot . . . . . . . . . . . . . . . . . . . . . .
 72
   65
 73
    2
 40
6.35
 49
0
 74
    0
 49
-6.35
 74
    0
  0
LTYPE
  5
33
330
5
100
AcDbSymbolTableRecord
100
AcDbLinetypeTableRecord
  2
DOTTINY
 70
    0
  3
Dot (.15x) .....................................
 72
   65
 73
    2
 40
0.9525
 49
0
 74
    0
 49
-0.9525
 74
    0
  0
LTYPE
  5
34
330
5
100
AcDbSymbolTableRecord
100
AcDbLinetypeTableRecord
  2
DOT2
 70
    0
  3
Dot (.5x) .....................................
 72
   65
 73
    2
 40
3.175
 49
0
 74
    0
 49
-3.175
 74
    0
  0
LTYPE
  5
35
330
5
100
AcDbSymbolTableRecord
100
AcDbLinetypeTableRecord
  2
DOTX2
 70
    0
  3
Dot (2x) .  .  .  .  .  .  .  .  .  .  .  .  .
 72
   65
 73
    2
 40
12.7
 49
0
 74
    0
 49
-12.7
 74
    0
  0
LTYPE
  5
36
330
5
100
AcDbSymbolTableRecord
100
AcDbLinetypeTableRecord
  2
DASHED
 70
    0
  3
Dashed _ _ _ _ _ _ _ _ _ _ _ _ _ _ _ _ _
 72
   65
 73
    2
 40
19.05
 49
12.7
 74
    0
 49
-6.35
 74
    0
  0
LTYPE
  5
37
330
5
100
AcDbSymbolTableRecord
100
AcDbLinetypeTableRecord
  2
DASHEDTINY
 70
    0
  3
Dashed (.15x) _ _ _ _ _ _ _ _ _ _ _ _ _ _ _ _ _
 72
   65
 73
    2
 40
2.8575
 49
1.905
 74
    0
 49
-0.9525
 74
    0
  0
LTYPE
  5
38
330
5
100
AcDbSymbolTableRecord
100
AcDbLinetypeTableRecord
  2
DASHED2
 70
    0
  3
Dashed (.5x) _ _ _ _ _ _ _ _ _ _ _ _ _ _ _ _ _
 72
   65
 73
    2
 40
9.524999999999999
 49
6.35
 74
    0
 49
-3.175
 74
    0
  0
LTYPE
  5
39
330
5
100
AcDbSymbolTableRecord
100
AcDbLinetypeTableRecord
  2
DASHEDX2
 70
    0
  3
Dashed (2x) ____  ____  ____  ____  ____  ___
 72
   65
 73
    2
 40
38.09999999999999
 49
25.4
 74
    0
 49
-12.7
 74
    0
  0
LTYPE
  5
3A
330
5
100
AcDbSymbolTableRecord
100
AcDbLinetypeTableRecord
  2
DASHDOT
 70
    0
  3
Dash dot __ . __ . __ . __ . __ . __ . __ . __
 72
   65
 73
    4
 40
25.4
 49
12.7
 74
    0
 49
-6.35
 74
    0
 49
0
 74
    0
 49
-6.35
 74
    0
  0
LTYPE
  5
3B
330
5
100
AcDbSymbolTableRecord
100
AcDbLinetypeTableRecord
  2
DASHDOTTINY
 70
    0
  3
Dash dot (.15x) _._._._._._._._._._._._._._._.
 72
   65
 73
    4
 40
3.81
 49
1.905
 74
    0
 49
-0.9525
 74
    0
 49
0
 74
    0
 49
-0.9525
 74
    0
  0
LTYPE
  5
3C
330
5
100
AcDbSymbolTableRecord
100
AcDbLinetypeTableRecord
  2
DASHDOT2
 70
    0
  3
Dash dot (.5x) _._._._._._._._._._._._._._._.
 72
   65
 73
    4
 40
12.7
 49
6.35
 74
    0
 49
-3.175
 74
    0
 49
0
 74
    0
 49
-3.175
 74
    0
  0
LTYPE
  5
3D
330
5
100
AcDbSymbolTableRecord
100
AcDbLinetypeTableRecord
  2
DASHDOTX2
 70
    0
  3
Dash dot (2x) ____  .  ____  .  ____  .  ___
 72
   65
 73
    4
 40
50.8
 49
25.4
 74
    0
 49
-12.7
 74
    0
 49
0
 74
    0
 49
-12.7
 74
    0
  0
LTYPE
  5
3E
330
5
100
AcDbSymbolTableRecord
100
AcDbLinetypeTableRecord
  2
DIVIDE
 70
    0
  3
Divide ____ . . ____ . . ____ . . ____ . . ____
 72
   65
 73
    6
 40
31.75
 49
12.7
 74
    0
 49
-6.35
 74
    0
 49
0
 74
    0
 49
-6.35
 74
    0
 49
0
 74
    0
 49
-6.35
 74
    0
  0
LTYPE
  5
3F
330
5
100
AcDbSymbolTableRecord
100
AcDbLinetypeTableRecord
  2
DIVIDETINY
 70
    0
  3
Divide (.15x) __..__..__..__..__..__..__..__.._
 72
   65
 73
    6
 40
4.7625
 49
1.905
 74
    0
 49
-0.9525
 74
    0
 49
0
 74
    0
 49
-0.9525
 74
    0
 49
0
 74
    0
 49
-0.9525
 74
    0
  0
LTYPE
  5
40
330
5
100
AcDbSymbolTableRecord
100
AcDbLinetypeTableRecord
  2
DIVIDE2
 70
    0
  3
Divide (.5x) __..__..__..__..__..__..__..__.._
 72
   65
 73
    6
 40
15.875
 49
6.35
 74
    0
 49
-3.175
 74
    0
 49
0
 74
    0
 49
-3.175
 74
    0
 49
0
 74
    0
 49
-3.175
 74
    0
  0
LTYPE
  5
41
330
5
100
AcDbSymbolTableRecord
100
AcDbLinetypeTableRecord
  2
DIVIDEX2
 70
    0
  3
Divide (2x) ________  .  .  ________  .  .  _
 72
   65
 73
    6
 40
63.5
 49
25.4
 74
    0
 49
-12.7
 74
    0
 49
0
 74
    0
 49
-12.7
 74
    0
 49
0
 74
    0
 49
-12.7
 74
    0
  0
LTYPE
  5
42
330
5
100
AcDbSymbolTableRecord
100
AcDbLinetypeTableRecord
  2
BORDER
 70
    0
  3
Border __ __ . __ __ . __ __ . __ __ . __ __ .
 72
   65
 73
    6
 40
44.45
 49
12.7
 74
    0
 49
-6.35
 74
    0
 49
12.7
 74
    0
 49
-6.35
 74
    0
 49
0
 74
    0
 49
-6.35
 74
    0
  0
LTYPE
  5
43
330
5
100
AcDbSymbolTableRecord
100
AcDbLinetypeTableRecord
  2
BORDERTINY
 70
    0
  3
Border (.15x) __.__.__.__.__.__.__.__.__.__.__.
 72
   65
 73
    6
 40
6.6675
 49
1.905
 74
    0
 49
-0.9525
 74
    0
 49
1.905
 74
    0
 49
-0.9525
 74
    0
 49
0
 74
    0
 49
-0.9525
 74
    0
  0
LTYPE
  5
44
330
5
100
AcDbSymbolTableRecord
100
AcDbLinetypeTableRecord
  2
BORDER2
 70
    0
  3
Border (.5x) __.__.__.__.__.__.__.__.__.__.__.
 72
   65
 73
    6
 40
22.225
 49
6.35
 74
    0
 49
-3.175
 74
    0
 49
6.35
 74
    0
 49
-3.175
 74
    0
 49
0
 74
    0
 49
-3.175
 74
    0
  0
LTYPE
  5
45
330
5
100
AcDbSymbolTableRecord
100
AcDbLinetypeTableRecord
  2
BORDERX2
 70
    0
  3
Border (2x) ____  ____  .  ____  ____  .  ___
 72
   65
 73
    6
 40
88.89999999999999
 49
25.4
 74
    0
 49
-12.7
 74
    0
 49
25.4
 74
    0
 49
-12.7
 74
    0
 49
0
 74
    0
 49
-12.7
 74
    0
  0
LTYPE
  5
46
330
5
100
AcDbSymbolTableRecord
100
AcDbLinetypeTableRecord
  2
CENTER
 70
    0
  3
Center ____ _ ____ _ ____ _ ____ _ ____ _ ____
 72
   65
 73
    4
 40
50.8
 49
31.75
 74
    0
 49
-6.35
 74
    0
 49
6.35
 74
    0
 49
-6.35
 74
    0
  0
LTYPE
  5
47
330
5
100
AcDbSymbolTableRecord
100
AcDbLinetypeTableRecord
  2
CENTERTINY
 70
    0
  3
Center (.15x) ___ _ ___ _ ___ _ ___ _ ___ _ ___
 72
   65
 73
    4
 40
7.62
 49
4.7625
 74
    0
 49
-0.9525
 74
    0
 49
0.9525
 74
    0
 49
-0.9525
 74
    0
  0
LTYPE
  5
48
330
5
100
AcDbSymbolTableRecord
100
AcDbLinetypeTableRecord
  2
CENTER2
 70
    0
  3
Center (.5x) ___ _ ___ _ ___ _ ___ _ ___ _ ___
 72
   65
 73
    4
 40
28.575
 49
19.05
 74
    0
 49
-3.175
 74
    0
 49
3.175
 74
    0
 49
-3.175
 74
    0
  0
LTYPE
  5
49
330
5
100
AcDbSymbolTableRecord
100
AcDbLinetypeTableRecord
  2
CENTERX2
 70
    0
  3
Center (2x) ________  __  ________  __  _____
 72
   65
 73
    4
 40
101.6
 49
63.5
 74
    0
 49
-12.7
 74
    0
 49
12.7
 74
    0
 49
-12.7
 74
    0
  0
ENDTAB
  0
TABLE
  2
LAYER
  5
2
330
0
100
AcDbSymbolTable
 70
    1
  0
LAYER
  5
10
330
2
100
AcDbSymbolTableRecord
100
AcDbLayerTableRecord
  2
0
 70
    5
 62
    7
  6
CONTINUOUS
370
    0
390
F
  0
LAYER
  5
4A
330
2
100
AcDbSymbolTableRecord
100
AcDbLayerTableRecord
  2
2
 70
    5
 62
    7
  6
CONTINUOUS
370
    0
390
F
  0
LAYER
  5
4B
330
2
100
AcDbSymbolTableRecord
100
AcDbLayerTableRecord
  2
FC
 70
    4
 62
    7
  6
CONTINUOUS
370
    0
390
F
  0
LAYER
  5
4C
330
2
100
AcDbSymbolTableRecord
100
AcDbLayerTableRecord
  2
battery
 70
    5
 62
    7
  6
CONTINUOUS
370
    0
390
F
  0
LAYER
  5
4D
330
2
100
AcDbSymbolTableRecord
100
AcDbLayerTableRecord
  2
bounding box
 70
    5
 62
    7
  6
CONTINUOUS
370
    0
390
F
  0
LAYER
  5
4E
330
2
100
AcDbSymbolTableRecord
100
AcDbLayerTableRecord
  2
camera 5inch
 70
    5
 62
    7
  6
CONTINUOUS
370
    0
390
F
  0
LAYER
  5
4F
330
2
100
AcDbSymbolTableRecord
100
AcDbLayerTableRecord
  2
camera 6inch
 70
    5
 62
    7
  6
CONTINUOUS
370
    0
390
F
  0
LAYER
  5
50
330
2
100
AcDbSymbolTableRecord
100
AcDbLayerTableRecord
  2
esc-tail
 70
    4
 62
    7
  6
CONTINUOUS
370
    0
390
F
  0
LAYER
  5
51
330
2
100
AcDbSymbolTableRecord
100
AcDbLayerTableRecord
  2
motor-deployed
 70
    4
 62
    7
  6
CONTINUOUS
370
    0
390
F
  0
LAYER
  5
52
330
2
100
AcDbSymbolTableRecord
100
AcDbLayerTableRecord
  2
motor-tail
 70
    4
 62
    7
  6
CONTINUOUS
370
    0
390
F
  0
LAYER
  5
53
330
2
100
AcDbSymbolTableRecord
100
AcDbLayerTableRecord
  2
schema d-motor folded
 70
    5
 62
    7
  6
CONTINUOUS
370
    0
390
F
  0
LAYER
  5
54
330
2
100
AcDbSymbolTableRecord
100
AcDbLayerTableRecord
  2
schema e-arm deployed v1
 70
    5
 62
    7
  6
CONTINUOUS
370
    0
390
F
  0
LAYER
  5
55
330
2
100
AcDbSymbolTableRecord
100
AcDbLayerTableRecord
  2
schema e-arm deployed v2
 70
    5
 62
    7
  6
CONTINUOUS
370
    0
390
F
  0
LAYER
  5
56
330
2
100
AcDbSymbolTableRecord
100
AcDbLayerTableRecord
  2
schema e-arm deployed v3
 70
    4
 62
    7
  6
CONTINUOUS
370
    0
390
F
  0
LAYER
  5
57
330
2
100
AcDbSymbolTableRecord
100
AcDbLayerTableRecord
  2
schema e-arm folded v1
 70
    5
 62
    7
  6
CONTINUOUS
370
    0
390
F
  0
LAYER
  5
58
330
2
100
AcDbSymbolTableRecord
100
AcDbLayerTableRecord
  2
schema e-arm folded v2
 70
    5
 62
    7
  6
CONTINUOUS
370
    0
390
F
  0
LAYER
  5
59
330
2
100
AcDbSymbolTableRecord
100
AcDbLayerTableRecord
  2
schema e-arm folded v3
 70
    5
 62
    7
  6
CONTINUOUS
370
    0
390
F
  0
LAYER
  5
5A
330
2
100
AcDbSymbolTableRecord
100
AcDbLayerTableRecord
  2
schema e-arm led deployed v1
 70
    5
 62
    7
  6
CONTINUOUS
370
    0
390
F
  0
LAYER
  5
5B
330
2
100
AcDbSymbolTableRecord
100
AcDbLayerTableRecord
  2
schema e-esc deployed
 70
    5
 62
    7
  6
CONTINUOUS
370
    0
390
F
  0
LAYER
  5
5C
330
2
100
AcDbSymbolTableRecord
100
AcDbLayerTableRecord
  2
schema e-esc folded
 70
    5
 62
    7
  6
CONTINUOUS
370
    0
390
F
  0
LAYER
  5
5D
330
2
100
AcDbSymbolTableRecord
100
AcDbLayerTableRecord
  2
schema e-main body base
 70
    4
 62
    7
  6
CONTINUOUS
370
    0
390
F
  0
LAYER
  5
5E
330
2
100
AcDbSymbolTableRecord
100
AcDbLayerTableRecord
  2
schema e-main body middle
 70
    5
 62
    7
  6
CONTINUOUS
370
    0
390
F
  0
LAYER
  5
5F
330
2
100
AcDbSymbolTableRecord
100
AcDbLayerTableRecord
  2
schema e-main body top v3
 70
    5
 62
    7
  6
CONTINUOUS
370
    0
390
F
  0
LAYER
  5
60
330
2
100
AcDbSymbolTableRecord
100
AcDbLayerTableRecord
  2
servo
 70
    5
 62
    7
  6
CONTINUOUS
370
    0
390
F
  0
LAYER
  5
61
330
2
100
AcDbSymbolTableRecord
100
AcDbLayerTableRecord
  2
servo arm
 70
    5
 62
    7
  6
CONTINUOUS
370
    0
390
F
  0
LAYER
  5
62
330
2
100
AcDbSymbolTableRecord
100
AcDbLayerTableRecord
  2
servo arm demo 0deg
 70
    5
 62
    7
  6
CONTINUOUS
370
    0
390
F
  0
LAYER
  5
63
330
2
100
AcDbSymbolTableRecord
100
AcDbLayerTableRecord
  2
servo arm demo 45deg
 70
    5
 62
    7
  6
CONTINUOUS
370
    0
390
F
  0
LAYER
  5
64
330
2
100
AcDbSymbolTableRecord
100
AcDbLayerTableRecord
  2
tail back
 70
    5
 62
    7
  6
CONTINUOUS
370
    0
390
F
  0
LAYER
  5
65
330
2
100
AcDbSymbolTableRecord
100
AcDbLayerTableRecord
  2
tail back 2
 70
    5
 62
    7
  6
CONTINUOUS
370
    0
390
F
  0
LAYER
  5
66
330
2
100
AcDbSymbolTableRecord
100
AcDbLayerTableRecord
  2
tail mount bottom
 70
    5
 62
    7
  6
CONTINUOUS
370
    0
390
F
  0
LAYER
  5
67
330
2
100
AcDbSymbolTableRecord
100
AcDbLayerTableRecord
  2
tail side
 70
    5
 62
    7
  6
CONTINUOUS
370
    0
390
F
  0
LAYER
  5
68
330
2
100
AcDbSymbolTableRecord
100
AcDbLayerTableRecord
  2
tail top
 70
    5
 62
    7
  6
CONTINUOUS
370
    0
390
F
  0
LAYER
  5
69
330
2
100
AcDbSymbolTableRecord
100
AcDbLayerTableRecord
  2
tail top 2
 70
    5
 62
    7
  6
CONTINUOUS
370
    0
390
F
  0
LAYER
  5
6A
330
2
100
AcDbSymbolTableRecord
100
AcDbLayerTableRecord
  2
vtx
 70
    5
 62
    7
  6
CONTINUOUS
370
    0
390
F
  0
ENDTAB
  0
TABLE
  2
STYLE
  5
3
330
0
100
AcDbSymbolTable
 70
    3
  0
STYLE
  5
6B
330
2
100
AcDbSymbolTableRecord
100
AcDbTextStyleTableRecord
  2
standard
 70
    0
 40
0
 41
1
 50
0
 71
    0
 42
1
  3
standard
  4

  0
ENDTAB
  0
TABLE
  2
VIEW
  5
6
330
0
100
AcDbSymbolTable
 70
    0
  0
ENDTAB
  0
TABLE
  2
UCS
  5
7
330
0
100
AcDbSymbolTable
 70
    0
  0
ENDTAB
  0
TABLE
  2
APPID
  5
9
330
0
100
AcDbSymbolTable
 70
    1
  0
APPID
  5
12
330
9
100
AcDbSymbolTableRecord
100
AcDbRegAppTableRecord
  2
ACAD
 70
    0
  0
APPID
  5
6C
330
9
100
AcDbSymbolTableRecord
100
AcDbRegAppTableRecord
  2
LibreCad
 70
    0
  0
ENDTAB
  0
TABLE
  2
DIMSTYLE
  5
A
330
0
100
AcDbSymbolTable
 70
    1
100
AcDbDimStyleTable
 71
    1
  0
DIMSTYLE
105
6D
330
A
100
AcDbSymbolTableRecord
100
AcDbDimStyleTableRecord
  2
Standard
 70
    0
 40
2.5
 41
2.5
 42
0.625
 43
0.38
 44
1.25
 45
0
 46
0
 47
0
 48
0
 49
1
140
2.5
141
0.09
142
0
143
25.4
144
1
145
0
146
1
147
0.625
148
0
 71
    0
 72
    0
 73
    0
 74
    1
 75
    0
 76
    0
 77
    0
 78
    8
 79
    0
170
    0
171
    2
172
    0
173
    0
174
    0
175
    0
176
    0
177
    0
178
    0
179
    0
271
    2
272
    4
273
    2
274
    2
275
    0
276
    0
277
    2
278
   44
279
    0
280
    0
281
    0
282
    0
283
    1
284
    0
285
    0
286
    0
288
    0
289
    3
340
STANDARD
341

371
   -2
372
   -2
  0
ENDTAB
  0
TABLE
  2
BLOCK_RECORD
  5
1
330
0
100
AcDbSymbolTable
 70
    2
  0
BLOCK_RECORD
  5
1F
330
1
100
AcDbSymbolTableRecord
100
AcDbBlockTableRecord
  2
*Model_Space
 70
    0
280
    1
281
    0
  0
BLOCK_RECORD
  5
1E
330
1
100
AcDbSymbolTableRecord
100
AcDbBlockTableRecord
  2
*Paper_Space
 70
    0
280
    1
281
    0
  0
ENDTAB
  0
ENDSEC
  0
SECTION
  2
BLOCKS
  0
BLOCK
  5
20
330
1F
100
AcDbEntity
  8
0
100
AcDbBlockBegin
  2
*Model_Space
 70
    0
 10
0
 20
0
 30
0
  3
*Model_Space
  1

  0
ENDBLK
  5
21
330
1F
100
AcDbEntity
  8
0
100
AcDbBlockEnd
  0
BLOCK
  5
1C
330
1B
100
AcDbEntity
  8
0
100
AcDbBlockBegin
  2
*Paper_Space
 70
    0
 10
0
 20
0
 30
0
  3
*Paper_Space
  1

  0
ENDBLK
  5
1D
330
1F
100
AcDbEntity
  8
0
100
AcDbBlockEnd
  0
ENDSEC
  0
SECTION
  2
ENTITIES
  0
LWPOLYLINE
  5
6E
100
AcDbEntity
  8
FC
  6
ByLayer
 62
  256
370
   -1
100
AcDbPolyline
 90
    4
 70
    1
 43
0
 10
-18
 20
-18
 10
18
 20
-18
 10
18
 20
18
 10
-18
 20
18
  0
CIRCLE
  5
6F
100
AcDbEntity
  8
FC
  6
ByLayer
 62
  256
370
   -1
100
AcDbCircle
 10
-15.25
 20
-15.25
 40
2.5
  0
CIRCLE
  5
70
100
AcDbEntity
  8
FC
  6
ByLayer
 62
  256
370
   -1
100
AcDbCircle
 10
15.25
 20
-15.25
 40
2.5
  0
CIRCLE
  5
71
100
AcDbEntity
  8
FC
  6
ByLayer
 62
  256
370
   -1
100
AcDbCircle
 10
-15.25
 20
15.25
 40
2.5
  0
CIRCLE
  5
72
100
AcDbEntity
  8
FC
  6
ByLayer
 62
  256
370
   -1
100
AcDbCircle
 10
15.25
 20
15.25
 40
2.5
  0
LINE
  5
73
100
AcDbEntity
  8
2
  6
ByLayer
 62
  256
370
   -1
100
AcDbLine
 10
-97.42785792574934
 20
56.25000000000001
 11
0
 21
0
  0
LINE
  5
74
100
AcDbEntity
  8
2
  6
ByLayer
 62
  256
370
   -1
100
AcDbLine
 10
0
 20
0
 11
97.42785792574935
 21
56.24999999999998
  0
LINE
  5
75
100
AcDbEntity
  8
2
  6
ByLayer
 62
  256
370
   -1
100
AcDbLine
 10
-1.217775880135719e-015
 20
-112.5
 11
0
 21
0
  0
CIRCLE
  5
76
100
AcDbEntity
  8
tail back
  6
ByLayer
 62
  256
370
   -1
100
AcDbCircle
 10
0
 20
10.5
 40
1.5
  0
LWPOLYLINE
  5
77
100
AcDbEntity
  8
tail back
  6
ByLayer
 62
  256
370
   -1
100
AcDbPolyline
 90
    4
 70
    1
 43
0
 10
-10
 20
-4
 10
10
 20
-4
 10
10
 20
0
 10
-10
 20
0
  0
LINE
  5
78
100
AcDbEntity
  8
tail back
  6
ByLayer
 62
    1
370
   -1
100
AcDbLine
 10
-5
 20
10.5
 11
5
 21
10.5
  0
LINE
  5
79
100
AcDbEntity
  8
tail back
  6
ByLayer
 62
    1
370
   -1
100
AcDbLine
 10
0
 20
5.5
 11
0
 21
15.5
  0
CIRCLE
  5
7A
100
AcDbEntity
  8
tail back
  6
ByLayer
 62
    2
370
   -1
100
AcDbCircle
 10
0
 20
10.5
 40
3
  0
LWPOLYLINE
  5
7B
100
AcDbEntity
  8
tail back
  6
ByLayer
 62
  256
370
   -1
100
AcDbPolyline
 90
    4
 70
    1
 43
0
 10
-13.75
 20
22
 10
13.75
 20
22
 10
13.75
 20
38.7
 10
-13.75
 20
38.7
  0
LINE
  5
7C
100
AcDbEntity
  8
tail back
  6
ByLayer
 62
    5
370
   -1
100
AcDbLine
 10
-3.018659330568421
 20
7.162681338863156
 11
-15
 21
18
  0
LINE
  5
7D
100
AcDbEntity
  8
tail back
  6
ByLayer
 62
    5
370
   -1
100
AcDbLine
 10
3.018659330568421
 20
7.162681338863156
 11
15
 21
18
  0
ARC
  5
7E
100
AcDbEntity
  8
tail back
  6
ByLayer
 62
    5
370
   -1
100
AcDbCircle
 10
0
 20
10.5
 40
4.5
100
AcDbArc
 50
227.8701421615336
 51
312.1298578384664
  0
LWPOLYLINE
  5
7F
100
AcDbEntity
  8
battery
  6
ByLayer
 62
  256
370
   -1
100
AcDbPolyline
 90
    4
 70
    1
 43
0
 10
-16
 20
-35
 10
16
 20
-35
 10
16
 20
35
 10
-16
 20
35
  0
MTEXT
  5
80
100
AcDbEntity
  8
camera 5inch
  6
ByLayer
 62
    1
370
   -1
100
AcDbMText
 10
-9.542554596324186e-015
 20
101.5625
 30
0
 40
6.25
 41
15.27777777777778
 71
    8
 72
    1
  1
100%%D
  7
standard
210
0
220
0
230
1
 50
360
 73
    2
 44
1
  0
LINE
  5
81
100
AcDbEntity
  8
camera 5inch
  6
DASHEDTINY
 62
    1
370
   -1
100
AcDbLine
 10
-86.53122237393615
 20
130
 11
1.350308753700347e-014
 21
57.39168322071096
  0
SOLID
  5
82
100
AcDbEntity
  8
camera 5inch
  6
ByLayer
 62
    1
370
   -1
100
AcDbTrace
 10
32.63986429942748
 20
84.77978131603702
 30
0
 11
27.5363400180061
 21
88.53472747221542
 31
0
 12
29.0284783518853
 22
89.98588084108948
 32
0
 13
29.0284783518853
 23
89.98588084108948
 33
0
  0
SOLID
  5
83
100
AcDbEntity
  8
camera 5inch
  6
ByLayer
 62
    1
370
   -1
100
AcDbTrace
 10
-32.6398642994275
 20
84.77978131603703
 30
0
 11
-29.0284783518853
 21
89.98588084108948
 31
0
 12
-27.53634001800611
 22
88.53472747221542
 32
0
 13
-27.53634001800611
 23
88.53472747221542
 33
0
  0
ARC
  5
84
100
AcDbEntity
  8
camera 5inch
  6
ByLayer
 62
    1
370
   -1
100
AcDbCircle
 10
-1.224714774039626e-014
 20
57.39168322071095
 40
42.60831677928905
100
AcDbArc
 50
40
 51
140
  0
LINE
  5
85
100
AcDbEntity
  8
camera 5inch
  6
DASHEDTINY
 62
    1
370
   -1
100
AcDbLine
 10
86.53122237393617
 20
130
 11
1.496719415072789e-014
 21
57.39168322071096
  0
CIRCLE
  5
86
100
AcDbEntity
  8
0
  6
ByLayer
 62
    3
370
   -1
100
AcDbCircle
 10
97.42785792574935
 20
56.24999999999998
 40
63.5
  0
CIRCLE
  5
87
100
AcDbEntity
  8
0
  6
ByLayer
 62
    3
370
   -1
100
AcDbCircle
 10
-97.42785792574934
 20
56.25000000000001
 40
63.5
  0
CIRCLE
  5
88
100
AcDbEntity
  8
0
  6
ByLayer
 62
    3
370
   -1
100
AcDbCircle
 10
-1.217775880135719e-015
 20
-112.5
 40
63.5
  0
CIRCLE
  5
89
100
AcDbEntity
  8
0
  6
ByLayer
 62
    4
370
   -1
100
AcDbCircle
 10
97.42785792574935
 20
56.24999999999998
 40
76.19999999999999
  0
CIRCLE
  5
8A
100
AcDbEntity
  8
0
  6
ByLayer
 62
    4
370
   -1
100
AcDbCircle
 10
-97.42785792574934
 20
56.25000000000001
 40
76.19999999999999
  0
CIRCLE
  5
8B
100
AcDbEntity
  8
0
  6
ByLayer
 62
    4
370
   -1
100
AcDbCircle
 10
-1.217775880135719e-015
 20
-112.5
 40
76.19999999999999
  0
CIRCLE
  5
8C
100
AcDbEntity
  8
motor-deployed
  6
ByLayer
 62
  256
370
   -1
100
AcDbCircle
 10
97.42785792574935
 20
56.24999999999999
 40
13.75
  0
CIRCLE
  5
8D
100
AcDbEntity
  8
motor-deployed
  6
ByLayer
 62
  256
370
   -1
100
AcDbCircle
 10
-97.42785792574935
 20
56.24999999999999
 40
13.75
  0
CIRCLE
  5
8E
100
AcDbEntity
  8
motor-tail
  6
ByLayer
 62
  256
370
   -1
100
AcDbCircle
 10
-2.066523222075262e-014
 20
-112.5
 40
13.75
  0
CIRCLE
  5
8F
100
AcDbEntity
  8
schema d-motor folded
  6
ByLayer
 62
  256
370
   -1
100
AcDbCircle
 10
17
 20
-167.542750153021
 40
13.75
  0
CIRCLE
  5
90
100
AcDbEntity
  8
schema d-motor folded
  6
ByLayer
 62
  256
370
   -1
100
AcDbCircle
 10
-17
 20
-167.542750153021
 40
13.75
  0
ARC
  5
91
100
AcDbEntity
  8
schema d-motor folded
  6
ByLayer
 62
  256
370
   -1
100
AcDbCircle
 10
22.65597717035278
 20
-161.8858959004845
 40
1.5
100
AcDbArc
 50
134.9999999999999
 51
224.9999999999998
  0
LINE
  5
92
100
AcDbEntity
  8
schema d-motor folded
  6
ByLayer
 62
  256
370
   -1
100
AcDbLine
 10
21.59531699857295
 20
-162.9465560722643
 11
21.59531699857294
 21
-162.9465560722642
  0
ARC
  5
93
100
AcDbEntity
  8
schema d-motor folded
  6
ByLayer
 62
  256
370
   -1
100
AcDbCircle
 10
22.65597717035278
 20
-161.8858959004844
 40
1.5
100
AcDbArc
 50
224.9999999999999
 51
314.9999999999999
  0
LINE
  5
94
100
AcDbEntity
  8
schema d-motor folded
  6
ByLayer
 62
  256
370
   -1
100
AcDbLine
 10
23.7166373421326
 20
-162.9465560722642
 11
24.95407420920906
 21
-161.7091192051878
  0
ARC
  5
95
100
AcDbEntity
  8
schema d-motor folded
  6
ByLayer
 62
  256
370
   -1
100
AcDbCircle
 10
23.89341403742926
 20
-160.648459033408
 40
1.5
100
AcDbArc
 50
315
 51
44.99999999999964
  0
LINE
  5
96
100
AcDbEntity
  8
schema d-motor folded
  6
ByLayer
 62
  256
370
   -1
100
AcDbLine
 10
21.59531699857293
 20
-160.8252357287046
 11
22.83275386564938
 21
-159.5877988616282
  0
LINE
  5
97
100
AcDbEntity
  8
schema d-motor folded
  6
ByLayer
 62
  256
370
   -1
100
AcDbLine
 10
24.95407420920908
 20
-159.5877988616281
 11
24.95407420920906
 21
-159.5877988616281
  0
ARC
  5
98
100
AcDbEntity
  8
schema d-motor folded
  6
ByLayer
 62
  256
370
   -1
100
AcDbCircle
 10
23.8934140374292
 20
-160.648459033408
 40
1.5
100
AcDbArc
 50
45.00000000000005
 51
134.9999999999999
  0
ARC
  5
99
100
AcDbEntity
  8
schema d-motor folded
  6
ByLayer
 62
  256
370
   -1
100
AcDbCircle
 10
11.3430476013103
 20
-161.8866748358339
 40
1.5
100
AcDbArc
 50
224.9999999999999
 51
314.9999999999998
  0
LINE
  5
9A
100
AcDbEntity
  8
schema d-motor folded
  6
ByLayer
 62
  256
370
   -1
100
AcDbLine
 10
12.4037077730901
 20
-162.9473350076137
 11
12.4037077730901
 21
-162.9473350076137
  0
ARC
  5
9B
100
AcDbEntity
  8
schema d-motor folded
  6
ByLayer
 62
  256
370
   -1
100
AcDbCircle
 10
11.34304760131028
 20
-161.8866748358339
 40
1.5
100
AcDbArc
 50
314.9999999999999
 51
44.9999999999999
  0
LINE
  5
9C
100
AcDbEntity
  8
schema d-motor folded
  6
ByLayer
 62
  256
370
   -1
100
AcDbLine
 10
12.40370777309009
 20
-160.826014664054
 11
11.16627090601362
 21
-159.5885777969775
  0
ARC
  5
9D
100
AcDbEntity
  8
schema d-motor folded
  6
ByLayer
 62
  256
370
   -1
100
AcDbCircle
 10
10.10561073423379
 20
-160.6492379687574
 40
1.5
100
AcDbArc
 50
45.00000000000005
 51
134.9999999999995
  0
LINE
  5
9E
100
AcDbEntity
  8
schema d-motor folded
  6
ByLayer
 62
  256
370
   -1
100
AcDbLine
 10
10.28238742953046
 20
-162.9473350076137
 11
9.044950562454023
 21
-161.7098981405373
  0
LINE
  5
9F
100
AcDbEntity
  8
schema d-motor folded
  6
ByLayer
 62
  256
370
   -1
100
AcDbLine
 10
9.044950562453995
 20
-159.5885777969776
 11
9.044950562453995
 21
-159.5885777969776
  0
ARC
  5
A0
100
AcDbEntity
  8
schema d-motor folded
  6
ByLayer
 62
  256
370
   -1
100
AcDbCircle
 10
10.10561073423386
 20
-160.6492379687575
 40
1.5
100
AcDbArc
 50
134.9999999999999
 51
225
  0
ARC
  5
A1
100
AcDbEntity
  8
schema d-motor folded
  6
ByLayer
 62
  256
370
   -1
100
AcDbCircle
 10
11.34382653665977
 20
-173.1996044048763
 40
1.5
100
AcDbArc
 50
314.9999999999999
 51
44.99999999999984
  0
LINE
  5
A2
100
AcDbEntity
  8
schema d-motor folded
  6
ByLayer
 62
  256
370
   -1
100
AcDbLine
 10
12.40448670843953
 20
-172.1389442330966
 11
12.40448670843954
 21
-172.1389442330966
  0
ARC
  5
A3
100
AcDbEntity
  8
schema d-motor folded
  6
ByLayer
 62
  256
370
   -1
100
AcDbCircle
 10
11.3438265366597
 20
-173.1996044048764
 40
1.5
100
AcDbArc
 50
44.9999999999999
 51
134.9999999999999
  0
LINE
  5
A4
100
AcDbEntity
  8
schema d-motor folded
  6
ByLayer
 62
  256
370
   -1
100
AcDbLine
 10
10.28316636487991
 20
-172.1389442330965
 11
9.045729497803434
 21
-173.376381100173
  0
ARC
  5
A5
100
AcDbEntity
  8
schema d-motor folded
  6
ByLayer
 62
  256
370
   -1
100
AcDbCircle
 10
10.10638966958323
 20
-174.4370412719529
 40
1.5
100
AcDbArc
 50
134.9999999999999
 51
224.9999999999996
  0
LINE
  5
A6
100
AcDbEntity
  8
schema d-motor folded
  6
ByLayer
 62
  256
370
   -1
100
AcDbLine
 10
12.40448670843956
 20
-174.2602645766562
 11
11.16704984136308
 21
-175.4977014437326
  0
LINE
  5
A7
100
AcDbEntity
  8
schema d-motor folded
  6
ByLayer
 62
  256
370
   -1
100
AcDbLine
 10
9.045729497803464
 20
-175.4977014437326
 11
9.045729497803464
 21
-175.4977014437326
  0
ARC
  5
A8
100
AcDbEntity
  8
schema d-motor folded
  6
ByLayer
 62
  256
370
   -1
100
AcDbCircle
 10
10.10638966958329
 20
-174.4370412719528
 40
1.5
100
AcDbArc
 50
225
 51
315
  0
ARC
  5
A9
100
AcDbEntity
  8
schema d-motor folded
  6
ByLayer
 62
  256
370
   -1
100
AcDbCircle
 10
22.65675610570221
 20
-173.1988254695269
 40
1.5
100
AcDbArc
 50
44.9999999999999
 51
134.9999999999997
  0
LINE
  5
AA
100
AcDbEntity
  8
schema d-motor folded
  6
ByLayer
 62
  256
370
   -1
100
AcDbLine
 10
21.5960959339224
 20
-172.1381652977471
 11
21.5960959339224
 21
-172.1381652977471
  0
ARC
  5
AB
100
AcDbEntity
  8
schema d-motor folded
  6
ByLayer
 62
  256
370
   -1
100
AcDbCircle
 10
22.65675610570224
 20
-173.1988254695269
 40
1.5
100
AcDbArc
 50
134.9999999999999
 51
224.9999999999999
  0
LINE
  5
AC
100
AcDbEntity
  8
schema d-motor folded
  6
ByLayer
 62
  256
370
   -1
100
AcDbLine
 10
21.5960959339224
 20
-174.2594856413068
 11
22.83353280099887
 21
-175.4969225083832
  0
ARC
  5
AD
100
AcDbEntity
  8
schema d-motor folded
  6
ByLayer
 62
  256
370
   -1
100
AcDbCircle
 10
23.89419297277871
 20
-174.4362623366034
 40
1.5
100
AcDbArc
 50
225.0000000000001
 51
314.9999999999997
  0
LINE
  5
AE
100
AcDbEntity
  8
schema d-motor folded
  6
ByLayer
 62
  256
370
   -1
100
AcDbLine
 10
23.71741627748203
 20
-172.1381652977471
 11
24.95485314455848
 21
-173.3756021648235
  0
LINE
  5
AF
100
AcDbEntity
  8
schema d-motor folded
  6
ByLayer
 62
  256
370
   -1
100
AcDbLine
 10
24.95485314455851
 20
-175.4969225083832
 11
24.95485314455851
 21
-175.4969225083832
  0
ARC
  5
B0
100
AcDbEntity
  8
schema d-motor folded
  6
ByLayer
 62
  256
370
   -1
100
AcDbCircle
 10
23.89419297277865
 20
-174.4362623366034
 40
1.5
100
AcDbArc
 50
315
 51
45.00000000000005
  0
CIRCLE
  5
B1
100
AcDbEntity
  8
schema d-motor folded
  6
ByLayer
 62
  256
370
   -1
100
AcDbCircle
 10
16.9991229208604
 20
-167.5427501499768
 40
4.5
  0
ARC
  5
B2
100
AcDbEntity
  8
schema d-motor folded
  6
ByLayer
 62
  256
370
   -1
100
AcDbCircle
 10
-22.65597717035278
 20
-161.8858959004845
 40
1.5
100
AcDbArc
 50
315.0000000000002
 51
45.00000000000005
  0
LINE
  5
B3
100
AcDbEntity
  8
schema d-motor folded
  6
ByLayer
 62
  256
370
   -1
100
AcDbLine
 10
-21.59531699857295
 20
-162.9465560722643
 11
-21.59531699857294
 21
-162.9465560722642
  0
ARC
  5
B4
100
AcDbEntity
  8
schema d-motor folded
  6
ByLayer
 62
  256
370
   -1
100
AcDbCircle
 10
-22.65597717035278
 20
-161.8858959004844
 40
1.5
100
AcDbArc
 50
225.0000000000001
 51
315.0000000000001
  0
LINE
  5
B5
100
AcDbEntity
  8
schema d-motor folded
  6
ByLayer
 62
  256
370
   -1
100
AcDbLine
 10
-23.7166373421326
 20
-162.9465560722642
 11
-24.95407420920906
 21
-161.7091192051878
  0
ARC
  5
B6
100
AcDbEntity
  8
schema d-motor folded
  6
ByLayer
 62
  256
370
   -1
100
AcDbCircle
 10
-23.89341403742926
 20
-160.648459033408
 40
1.5
100
AcDbArc
 50
135.0000000000004
 51
225
  0
LINE
  5
B7
100
AcDbEntity
  8
schema d-motor folded
  6
ByLayer
 62
  256
370
   -1
100
AcDbLine
 10
-21.59531699857293
 20
-160.8252357287046
 11
-22.83275386564938
 21
-159.5877988616282
  0
LINE
  5
B8
100
AcDbEntity
  8
schema d-motor folded
  6
ByLayer
 62
  256
370
   -1
100
AcDbLine
 10
-24.95407420920908
 20
-159.5877988616281
 11
-24.95407420920906
 21
-159.5877988616281
  0
ARC
  5
B9
100
AcDbEntity
  8
schema d-motor folded
  6
ByLayer
 62
  256
370
   -1
100
AcDbCircle
 10
-23.8934140374292
 20
-160.648459033408
 40
1.5
100
AcDbArc
 50
45.00000000000005
 51
134.9999999999999
  0
ARC
  5
BA
100
AcDbEntity
  8
schema d-motor folded
  6
ByLayer
 62
  256
370
   -1
100
AcDbCircle
 10
-11.3430476013103
 20
-161.8866748358339
 40
1.5
100
AcDbArc
 50
225.0000000000002
 51
315.0000000000001
  0
LINE
  5
BB
100
AcDbEntity
  8
schema d-motor folded
  6
ByLayer
 62
  256
370
   -1
100
AcDbLine
 10
-12.4037077730901
 20
-162.9473350076137
 11
-12.4037077730901
 21
-162.9473350076137
  0
ARC
  5
BC
100
AcDbEntity
  8
schema d-motor folded
  6
ByLayer
 62
  256
370
   -1
100
AcDbCircle
 10
-11.34304760131028
 20
-161.8866748358339
 40
1.5
100
AcDbArc
 50
135.0000000000001
 51
225.0000000000001
  0
LINE
  5
BD
100
AcDbEntity
  8
schema d-motor folded
  6
ByLayer
 62
  256
370
   -1
100
AcDbLine
 10
-12.40370777309009
 20
-160.826014664054
 11
-11.16627090601362
 21
-159.5885777969775
  0
ARC
  5
BE
100
AcDbEntity
  8
schema d-motor folded
  6
ByLayer
 62
  256
370
   -1
100
AcDbCircle
 10
-10.10561073423379
 20
-160.6492379687574
 40
1.5
100
AcDbArc
 50
45.00000000000045
 51
134.9999999999999
  0
LINE
  5
BF
100
AcDbEntity
  8
schema d-motor folded
  6
ByLayer
 62
  256
370
   -1
100
AcDbLine
 10
-10.28238742953046
 20
-162.9473350076137
 11
-9.044950562454023
 21
-161.7098981405373
  0
LINE
  5
C0
100
AcDbEntity
  8
schema d-motor folded
  6
ByLayer
 62
  256
370
   -1
100
AcDbLine
 10
-9.044950562453995
 20
-159.5885777969776
 11
-9.044950562453995
 21
-159.5885777969776
  0
ARC
  5
C1
100
AcDbEntity
  8
schema d-motor folded
  6
ByLayer
 62
  256
370
   -1
100
AcDbCircle
 10
-10.10561073423386
 20
-160.6492379687575
 40
1.5
100
AcDbArc
 50
315
 51
45.00000000000005
  0
ARC
  5
C2
100
AcDbEntity
  8
schema d-motor folded
  6
ByLayer
 62
  256
370
   -1
100
AcDbCircle
 10
-11.34382653665977
 20
-173.1996044048763
 40
1.5
100
AcDbArc
 50
135.0000000000001
 51
225.0000000000001
  0
LINE
  5
C3
100
AcDbEntity
  8
schema d-motor folded
  6
ByLayer
 62
  256
370
   -1
100
AcDbLine
 10
-12.40448670843953
 20
-172.1389442330966
 11
-12.40448670843954
 21
-172.1389442330966
  0
ARC
  5
C4
100
AcDbEntity
  8
schema d-motor folded
  6
ByLayer
 62
  256
370
   -1
100
AcDbCircle
 10
-11.3438265366597
 20
-173.1996044048764
 40
1.5
100
AcDbArc
 50
45.00000000000005
 51
135.0000000000001
  0
LINE
  5
C5
100
AcDbEntity
  8
schema d-motor folded
  6
ByLayer
 62
  256
370
   -1
100
AcDbLine
 10
-10.28316636487991
 20
-172.1389442330965
 11
-9.045729497803434
 21
-173.376381100173
  0
ARC
  5
C6
100
AcDbEntity
  8
schema d-motor folded
  6
ByLayer
 62
  256
370
   -1
100
AcDbCircle
 10
-10.10638966958323
 20
-174.4370412719529
 40
1.5
100
AcDbArc
 50
315.0000000000003
 51
45.00000000000005
  0
LINE
  5
C7
100
AcDbEntity
  8
schema d-motor folded
  6
ByLayer
 62
  256
370
   -1
100
AcDbLine
 10
-12.40448670843956
 20
-174.2602645766562
 11
-11.16704984136308
 21
-175.4977014437326
  0
LINE
  5
C8
100
AcDbEntity
  8
schema d-motor folded
  6
ByLayer
 62
  256
370
   -1
100
AcDbLine
 10
-9.045729497803464
 20
-175.4977014437326
 11
-9.045729497803464
 21
-175.4977014437326
  0
ARC
  5
C9
100
AcDbEntity
  8
schema d-motor folded
  6
ByLayer
 62
  256
370
   -1
100
AcDbCircle
 10
-10.10638966958329
 20
-174.4370412719528
 40
1.5
100
AcDbArc
 50
225
 51
315
  0
ARC
  5
CA
100
AcDbEntity
  8
schema d-motor folded
  6
ByLayer
 62
  256
370
   -1
100
AcDbCircle
 10
-22.65675610570221
 20
-173.1988254695269
 40
1.5
100
AcDbArc
 50
45.00000000000026
 51
135.0000000000001
  0
LINE
  5
CB
100
AcDbEntity
  8
schema d-motor folded
  6
ByLayer
 62
  256
370
   -1
100
AcDbLine
 10
-21.5960959339224
 20
-172.1381652977471
 11
-21.5960959339224
 21
-172.1381652977471
  0
ARC
  5
CC
100
AcDbEntity
  8
schema d-motor folded
  6
ByLayer
 62
  256
370
   -1
100
AcDbCircle
 10
-22.65675610570224
 20
-173.1988254695269
 40
1.5
100
AcDbArc
 50
315.0000000000001
 51
45.00000000000005
  0
LINE
  5
CD
100
AcDbEntity
  8
schema d-motor folded
  6
ByLayer
 62
  256
370
   -1
100
AcDbLine
 10
-21.5960959339224
 20
-174.2594856413068
 11
-22.83353280099887
 21
-175.4969225083832
  0
ARC
  5
CE
100
AcDbEntity
  8
schema d-motor folded
  6
ByLayer
 62
  256
370
   -1
100
AcDbCircle
 10
-23.89419297277871
 20
-174.4362623366034
 40
1.5
100
AcDbArc
 50
225.0000000000003
 51
314.9999999999999
  0
LINE
  5
CF
100
AcDbEntity
  8
schema d-motor folded
  6
ByLayer
 62
  256
370
   -1
100
AcDbLine
 10
-23.71741627748203
 20
-172.1381652977471
 11
-24.95485314455848
 21
-173.3756021648235
  0
LINE
  5
D0
100
AcDbEntity
  8
schema d-motor folded
  6
ByLayer
 62
  256
370
   -1
100
AcDbLine
 10
-24.95485314455851
 20
-175.4969225083832
 11
-24.95485314455851
 21
-175.4969225083832
  0
ARC
  5
D1
100
AcDbEntity
  8
schema d-motor folded
  6
ByLayer
 62
  256
370
   -1
100
AcDbCircle
 10
-23.89419297277865
 20
-174.4362623366034
 40
1.5
100
AcDbArc
 50
134.9999999999999
 51
225
  0
CIRCLE
  5
D2
100
AcDbEntity
  8
schema d-motor folded
  6
ByLayer
 62
  256
370
   -1
100
AcDbCircle
 10
-16.9991229208604
 20
-167.5427501499768
 40
4.5
  0
LINE
  5
D3
100
AcDbEntity
  8
schema e-main body base
  6
ByLayer
 62
  256
370
   -1
100
AcDbLine
 10
-7.991819813332877
 20
85
 11
7.991819813332879
 21
85
  0
LINE
  5
D4
100
AcDbEntity
  8
schema e-main body base
  6
ByLayer
 62
  256
370
   -1
100
AcDbLine
 10
7.991819813332881
 20
85
 11
-7.991819813332879
 21
85
  0
ARC
  5
D5
100
AcDbEntity
  8
schema e-main body base
  6
ByLayer
 62
  256
370
   -1
100
AcDbCircle
 10
7.991819813332881
 20
75
 40
10
100
AcDbArc
 50
12.59758640553419
 51
90
  0
LINE
  5
D6
100
AcDbEntity
  8
schema e-main body base
  6
ByLayer
 62
  256
370
   -1
100
AcDbLine
 10
7.991819813332877
 20
85
 11
-7.991819813332879
 21
85
  0
LINE
  5
D7
100
AcDbEntity
  8
schema e-main body base
  6
ByLayer
 62
  256
370
   -1
100
AcDbLine
 10
-7.991819813332881
 20
85
 11
7.991819813332879
 21
85
  0
ARC
  5
D8
100
AcDbEntity
  8
schema e-main body base
  6
ByLayer
 62
  256
370
   -1
100
AcDbCircle
 10
-7.991819813332881
 20
75
 40
10
100
AcDbArc
 50
90
 51
167.4024135944658
  0
CIRCLE
  5
D9
100
AcDbEntity
  8
schema e-arm deployed v1
  6
ByLayer
 62
  256
370
   -1
100
AcDbCircle
 10
97.42785792574935
 20
56.24999999999999
 40
15
  0
LINE
  5
DA
100
AcDbEntity
  8
schema e-arm deployed v1
  6
ByLayer
 62
  256
370
   -1
100
AcDbLine
 10
94.96476187509543
 20
41.45360997252199
 11
43.73936691408244
 21
29.01608732226967
  0
ARC
  5
DB
100
AcDbEntity
  8
schema e-arm deployed v1
  6
ByLayer
 62
  256
370
   -1
100
AcDbCircle
 10
44.91909035528055
 20
24.15725489026624
 40
5
100
AcDbArc
 50
103.6473324908534
 51
135.6725371142907
  0
LINE
  5
DC
100
AcDbEntity
  8
schema e-arm deployed v1
  6
ByLayer
 62
  256
370
   -1
100
AcDbLine
 10
41.34230091207851
 20
27.65104613746439
 11
22.40357888640409
 21
8.262417505603697
  0
ARC
  5
DD
100
AcDbEntity
  8
schema e-arm deployed v1
  6
ByLayer
 62
  256
370
   -1
100
AcDbCircle
 10
15.25
 20
15.25
 40
10
100
AcDbArc
 50
129.3744901996846
 51
315.6725371142907
  0
LINE
  5
DE
100
AcDbEntity
  8
schema e-arm deployed v1
  6
ByLayer
 62
  256
370
   -1
100
AcDbLine
 10
82.43183672817987
 20
55.90453185089233
 11
36.09855088860229
 21
44.65481298529932
  0
LINE
  5
DF
100
AcDbEntity
  8
schema e-arm deployed v1
  6
ByLayer
 62
  256
370
   -1
100
AcDbLine
 10
8.906135938719643
 20
22.98016097969476
 11
34.1063430219277
 21
43.66106121863118
  0
ARC
  5
E0
100
AcDbEntity
  8
schema e-arm deployed v1
  6
ByLayer
 62
  256
370
   -1
100
AcDbCircle
 10
37.27827505256788
 20
39.7959807287838
 40
5
100
AcDbArc
 50
103.6473239679155
 51
129.3744901996846
  0
CIRCLE
  5
E1
100
AcDbEntity
  8
schema e-arm deployed v1
  6
ByLayer
 62
  256
370
   -1
100
AcDbCircle
 10
24.09400022524779
 20
23.36071267003196
 40
1.5
  0
CIRCLE
  5
E2
100
AcDbEntity
  8
schema e-arm deployed v1
  6
ByLayer
 62
  256
370
   -1
100
AcDbCircle
 10
-97.42785792574935
 20
56.24999999999999
 40
15
  0
LINE
  5
E3
100
AcDbEntity
  8
schema e-arm deployed v1
  6
ByLayer
 62
  256
370
   -1
100
AcDbLine
 10
-94.96476187509543
 20
41.45360997252199
 11
-43.73936691408244
 21
29.01608732226967
  0
ARC
  5
E4
100
AcDbEntity
  8
schema e-arm deployed v1
  6
ByLayer
 62
  256
370
   -1
100
AcDbCircle
 10
-44.91909035528055
 20
24.15725489026624
 40
5
100
AcDbArc
 50
44.32746288570929
 51
76.35266750914663
  0
LINE
  5
E5
100
AcDbEntity
  8
schema e-arm deployed v1
  6
ByLayer
 62
  256
370
   -1
100
AcDbLine
 10
-41.34230091207851
 20
27.65104613746439
 11
-22.40357888640409
 21
8.26241750560369
  0
ARC
  5
E6
100
AcDbEntity
  8
schema e-arm deployed v1
  6
ByLayer
 62
  256
370
   -1
100
AcDbCircle
 10
-15.25
 20
15.25
 40
10
100
AcDbArc
 50
224.3274628857093
 51
50.62550980031543
  0
LINE
  5
E7
100
AcDbEntity
  8
schema e-arm deployed v1
  6
ByLayer
 62
  256
370
   -1
100
AcDbLine
 10
-82.43183672817987
 20
55.90453185089233
 11
-36.09855088860229
 21
44.65481298529932
  0
LINE
  5
E8
100
AcDbEntity
  8
schema e-arm deployed v1
  6
ByLayer
 62
  256
370
   -1
100
AcDbLine
 10
-8.906135938719643
 20
22.98016097969476
 11
-34.1063430219277
 21
43.66106121863118
  0
ARC
  5
E9
100
AcDbEntity
  8
schema e-arm deployed v1
  6
ByLayer
 62
  256
370
   -1
100
AcDbCircle
 10
-37.27827505256788
 20
39.79598072878382
 40
5
100
AcDbArc
 50
50.62550980031538
 51
76.3526760320845
  0
CIRCLE
  5
EA
100
AcDbEntity
  8
schema e-arm deployed v1
  6
ByLayer
 62
  256
370
   -1
100
AcDbCircle
 10
-24.09400022524779
 20
23.36071267003196
 40
1.5
  0
ARC
  5
EB
100
AcDbEntity
  8
schema e-arm folded v1
  6
ByLayer
 62
  256
370
   -1
100
AcDbCircle
 10
12.67556151935259
 20
-15.62015352568457
 40
5
100
AcDbArc
 50
352.1693239679154
 51
24.19453711429074
  0
LINE
  5
EC
100
AcDbEntity
  8
schema e-arm folded v1
  6
ByLayer
 62
  256
370
   -1
100
AcDbLine
 10
10.44690741555777
 20
-68.52352050630616
 11
17.62893660132709
 21
-16.30138424818212
  0
ARC
  5
ED
100
AcDbEntity
  8
schema e-arm folded v1
  6
ByLayer
 62
  256
370
   -1
100
AcDbCircle
 10
12.67556151935257
 20
-15.62015352568456
 40
5
100
AcDbArc
 50
352.1693324908534
 51
24.19453711429069
  0
LINE
  5
EE
100
AcDbEntity
  8
schema e-arm folded v1
  6
ByLayer
 62
  256
370
   -1
100
AcDbLine
 10
17.2363575007439
 20
-13.57097319781572
 11
6.128408037217334
 21
11.15163934426231
  0
ARC
  5
EF
100
AcDbEntity
  8
schema e-arm folded v1
  6
ByLayer
 62
  256
370
   -1
100
AcDbCircle
 10
15.25
 20
15.25
 40
10
100
AcDbArc
 50
17.89649019968456
 51
204.1945371142907
  0
LINE
  5
F0
100
AcDbEntity
  8
schema e-arm folded v1
  6
ByLayer
 62
  256
370
   -1
100
AcDbLine
 10
28.48318629516086
 20
-62.15202146368404
 11
34.97931993016169
 21
-14.91718475344346
  0
LINE
  5
F1
100
AcDbEntity
  8
schema e-arm folded v1
  6
ByLayer
 62
  256
370
   -1
100
AcDbLine
 10
24.76613230014021
 20
18.32298324860844
 11
34.78401089692206
 21
-12.69946314347273
  0
ARC
  5
F2
100
AcDbEntity
  8
schema e-arm folded v1
  6
ByLayer
 62
  256
370
   -1
100
AcDbCircle
 10
30.02594474685196
 20
-14.23595476777696
 40
5
100
AcDbArc
 50
352.1693239679155
 51
17.89649019968461
  0
CIRCLE
  5
F3
100
AcDbEntity
  8
schema e-arm folded v1
  6
ByLayer
 62
  256
370
   -1
100
AcDbCircle
 10
23.31396216222915
 20
-76.23318341373337
 40
15
  0
ARC
  5
F4
100
AcDbEntity
  8
schema e-arm folded v1
  6
ByLayer
 62
  256
370
   -1
100
AcDbCircle
 10
-12.67556151935259
 20
-15.62015352568455
 40
5
100
AcDbArc
 50
155.8054628857092
 51
187.8306760320846
  0
LINE
  5
F5
100
AcDbEntity
  8
schema e-arm folded v1
  6
ByLayer
 62
  256
370
   -1
100
AcDbLine
 10
-10.44690741555777
 20
-68.52352050630613
 11
-17.62893660132709
 21
-16.30138424818214
  0
ARC
  5
F6
100
AcDbEntity
  8
schema e-arm folded v1
  6
ByLayer
 62
  256
370
   -1
100
AcDbCircle
 10
-12.67556151935257
 20
-15.62015352568455
 40
5
100
AcDbArc
 50
155.8054628857093
 51
187.8306675091467
  0
LINE
  5
F7
100
AcDbEntity
  8
schema e-arm folded v1
  6
ByLayer
 62
  256
370
   -1
100
AcDbLine
 10
-17.2363575007439
 20
-13.57097319781569
 11
-6.128408037217334
 21
11.15163934426231
  0
ARC
  5
F8
100
AcDbEntity
  8
schema e-arm folded v1
  6
ByLayer
 62
  256
370
   -1
100
AcDbCircle
 10
-15.25
 20
15.25
 40
10
100
AcDbArc
 50
335.8054628857093
 51
162.1035098003154
  0
LINE
  5
F9
100
AcDbEntity
  8
schema e-arm folded v1
  6
ByLayer
 62
  256
370
   -1
100
AcDbLine
 10
-28.48318629516086
 20
-62.15202146368404
 11
-34.97931993016169
 21
-14.91718475344347
  0
LINE
  5
FA
100
AcDbEntity
  8
schema e-arm folded v1
  6
ByLayer
 62
  256
370
   -1
100
AcDbLine
 10
-24.76613230014021
 20
18.32298324860843
 11
-34.78401089692206
 21
-12.69946314347272
  0
ARC
  5
FB
100
AcDbEntity
  8
schema e-arm folded v1
  6
ByLayer
 62
  256
370
   -1
100
AcDbCircle
 10
-30.02594474685196
 20
-14.23595476777696
 40
5
100
AcDbArc
 50
162.1035098003154
 51
187.8306760320845
  0
CIRCLE
  5
FC
100
AcDbEntity
  8
schema e-arm folded v1
  6
ByLayer
 62
  256
370
   -1
100
AcDbCircle
 10
-23.31396216222915
 20
-76.23318341373337
 40
15
  0
CIRCLE
  5
FD
100
AcDbEntity
  8
schema e-main body base
  6
ByLayer
 62
  256
370
   -1
100
AcDbCircle
 10
-15.25
 20
15.25
 40
1.5
  0
CIRCLE
  5
FE
100
AcDbEntity
  8
schema e-main body base
  6
ByLayer
 62
  256
370
   -1
100
AcDbCircle
 10
15.25
 20
15.25
 40
1.5
  0
CIRCLE
  5
FF
100
AcDbEntity
  8
schema e-arm deployed v1
  6
ByLayer
 62
  256
370
   -1
100
AcDbCircle
 10
15.25
 20
15.25
 40
2.5
  0
CIRCLE
  5
100
100
AcDbEntity
  8
schema e-arm deployed v1
  6
ByLayer
 62
  256
370
   -1
100
AcDbCircle
 10
-15.25
 20
15.25
 40
2.5
  0
CIRCLE
  5
101
100
AcDbEntity
  8
schema e-arm folded v1
  6
ByLayer
 62
  256
370
   -1
100
AcDbCircle
 10
15.25
 20
15.25
 40
2.5
  0
CIRCLE
  5
102
100
AcDbEntity
  8
schema e-arm folded v1
  6
ByLayer
 62
  256
370
   -1
100
AcDbCircle
 10
-15.25
 20
15.25
 40
2.5
  0
MTEXT
  5
103
100
AcDbEntity
  8
camera 6inch
  6
ByLayer
 62
    1
370
   -1
100
AcDbMText
 10
-9.542554596324186e-015
 20
118.5625
 30
0
 40
6.25
 41
15.27777777777778
 71
    8
 72
    1
  1
100%%D
  7
standard
210
0
220
0
230
1
 50
360
 73
    2
 44
1
  0
LINE
  5
104
100
AcDbEntity
  8
camera 6inch
  6
DASHEDTINY
 62
    1
370
   -1
100
AcDbLine
 10
-86.53122237393615
 20
147
 11
1.350308753700347e-014
 21
74.39168322071096
  0
SOLID
  5
105
100
AcDbEntity
  8
camera 6inch
  6
ByLayer
 62
    1
370
   -1
100
AcDbTrace
 10
32.63986429942748
 20
101.779781316037
 30
0
 11
27.5363400180061
 21
105.5347274722154
 31
0
 12
29.0284783518853
 22
106.9858808410895
 32
0
 13
29.0284783518853
 23
106.9858808410895
 33
0
  0
SOLID
  5
106
100
AcDbEntity
  8
camera 6inch
  6
ByLayer
 62
    1
370
   -1
100
AcDbTrace
 10
-32.6398642994275
 20
101.779781316037
 30
0
 11
-29.0284783518853
 21
106.9858808410895
 31
0
 12
-27.53634001800611
 22
105.5347274722154
 32
0
 13
-27.53634001800611
 23
105.5347274722154
 33
0
  0
ARC
  5
107
100
AcDbEntity
  8
camera 6inch
  6
ByLayer
 62
    1
370
   -1
100
AcDbCircle
 10
-1.224714774039626e-014
 20
74.39168322071095
 40
42.60831677928905
100
AcDbArc
 50
40
 51
140
  0
LINE
  5
108
100
AcDbEntity
  8
camera 6inch
  6
DASHEDTINY
 62
    1
370
   -1
100
AcDbLine
 10
86.53122237393617
 20
147
 11
1.496719415072789e-014
 21
74.39168322071096
  0
CIRCLE
  5
109
100
AcDbEntity
  8
schema e-main body base
  6
ByLayer
 62
  256
370
   -1
100
AcDbCircle
 10
12
 20
79
 40
1.5
  0
CIRCLE
  5
10A
100
AcDbEntity
  8
schema e-main body base
  6
ByLayer
 62
  256
370
   -1
100
AcDbCircle
 10
-12
 20
79
 40
1.5
  0
CIRCLE
  5
10B
100
AcDbEntity
  8
schema e-main body base
  6
ByLayer
 62
  256
370
   -1
100
AcDbCircle
 10
24.09400022524779
 20
23.36071267003196
 40
1.5
  0
CIRCLE
  5
10C
100
AcDbEntity
  8
schema e-main body base
  6
ByLayer
 62
  256
370
   -1
100
AcDbCircle
 10
-24.09400022524779
 20
23.36071267003196
 40
1.5
  0
CIRCLE
  5
10D
100
AcDbEntity
  8
schema e-arm folded v1
  6
ByLayer
 62
  256
370
   -1
100
AcDbCircle
 10
19.55931325967303
 20
4.050454507882646
 40
1.5
  0
CIRCLE
  5
10E
100
AcDbEntity
  8
schema e-arm folded v1
  6
ByLayer
 62
  256
370
   -1
100
AcDbCircle
 10
-19.55931325967303
 20
4.05045450788265
 40
1.5
  0
CIRCLE
  5
10F
100
AcDbEntity
  8
schema e-main body top v3
  6
ByLayer
 62
  256
370
   -1
100
AcDbCircle
 10
12
 20
79
 40
1.5
  0
CIRCLE
  5
110
100
AcDbEntity
  8
schema e-main body top v3
  6
ByLayer
 62
  256
370
   -1
100
AcDbCircle
 10
-12
 20
79
 40
1.5
  0
CIRCLE
  5
111
100
AcDbEntity
  8
schema e-main body top v3
  6
ByLayer
 62
  256
370
   -1
100
AcDbCircle
 10
12
 20
-32
 40
1.5
  0
CIRCLE
  5
112
100
AcDbEntity
  8
schema e-main body top v3
  6
ByLayer
 62
  256
370
   -1
100
AcDbCircle
 10
-12
 20
-32
 40
1.5
  0
CIRCLE
  5
113
100
AcDbEntity
  8
schema e-main body base
  6
ByLayer
 62
  256
370
   -1
100
AcDbCircle
 10
12
 20
-32
 40
1.5
  0
CIRCLE
  5
114
100
AcDbEntity
  8
schema e-main body base
  6
ByLayer
 62
  256
370
   -1
100
AcDbCircle
 10
-12
 20
-32
 40
1.5
  0
ARC
  5
115
100
AcDbEntity
  8
schema e-main body top v3
  6
ByLayer
 62
  256
370
   -1
100
AcDbCircle
 10
13.21136419039284
 20
-30
 40
5
100
AcDbArc
 50
270
 51
347.4711922908485
  0
LINE
  5
116
100
AcDbEntity
  8
schema e-main body top v3
  6
ByLayer
 62
  256
370
   -1
100
AcDbLine
 10
-13.21136419039284
 20
-35
 11
13.21136419039284
 21
-35
  0
ARC
  5
117
100
AcDbEntity
  8
schema e-main body top v3
  6
ByLayer
 62
  256
370
   -1
100
AcDbCircle
 10
-13.21136419039284
 20
-30
 40
5
100
AcDbArc
 50
192.5288077091515
 51
270
  0
ARC
  5
118
100
AcDbEntity
  8
schema e-main body top v3
  6
ByLayer
 62
  256
370
   -1
100
AcDbCircle
 10
-7.991819813332881
 20
75
 40
10
100
AcDbArc
 50
124.9315335823229
 51
167.4024135944658
  0
ARC
  5
119
100
AcDbEntity
  8
schema e-main body top v3
  6
ByLayer
 62
  256
370
   -1
100
AcDbCircle
 10
-12
 20
80.73885803894889
 40
3
100
AcDbArc
 50
0
 51
124.9315335823229
  0
ARC
  5
11A
100
AcDbEntity
  8
schema e-main body top v3
  6
ByLayer
 62
  256
370
   -1
100
AcDbCircle
 10
7.991819813332881
 20
75
 40
10
100
AcDbArc
 50
12.59758640553419
 51
55.06846641767613
  0
ARC
  5
11B
100
AcDbEntity
  8
schema e-main body top v3
  6
ByLayer
 62
  256
370
   -1
100
AcDbCircle
 10
12
 20
80.73885803894868
 40
3
100
AcDbArc
 50
55.06846641767611
 51
180
  0
LINE
  5
11C
100
AcDbEntity
  8
schema e-main body top v3
  6
ByLayer
 62
  256
370
   -1
100
AcDbLine
 10
-8.999999999999998
 20
80.73885803894889
 11
-9
 21
68
  0
ARC
  5
11D
100
AcDbEntity
  8
schema e-main body top v3
  6
ByLayer
 62
  256
370
   -1
100
AcDbCircle
 10
-5.999999999999999
 20
68
 40
3
100
AcDbArc
 50
180
 51
270
  0
LINE
  5
11E
100
AcDbEntity
  8
schema e-main body top v3
  6
ByLayer
 62
  256
370
   -1
100
AcDbLine
 10
-5.999999999999999
 20
65
 11
6.000000000000001
 21
65
  0
LINE
  5
11F
100
AcDbEntity
  8
schema e-main body top v3
  6
ByLayer
 62
  256
370
   -1
100
AcDbLine
 10
9
 20
68
 11
9
 21
80.73885803894868
  0
ARC
  5
120
100
AcDbEntity
  8
schema e-main body top v3
  6
ByLayer
 62
  256
370
   -1
100
AcDbCircle
 10
6
 20
68
 40
3
100
AcDbArc
 50
270
 51
0
  0
CIRCLE
  5
121
100
AcDbEntity
  8
schema e-main body top v3
  6
ByLayer
 62
  256
370
   -1
100
AcDbCircle
 10
19.56514091453516
 20
39.42678803195898
 40
1.5
  0
CIRCLE
  5
122
100
AcDbEntity
  8
schema e-main body top v3
  6
ByLayer
 62
  256
370
   -1
100
AcDbCircle
 10
-19.56514091453516
 20
39.42678803195898
 40
1.5
  0
LINE
  5
123
100
AcDbEntity
  8
schema e-main body top v3
  6
ByLayer
 62
  256
370
   -1
100
AcDbLine
 10
23.51851900788055
 20
51.37387284990875
 11
17.75107931727316
 21
77.18102130543271
  0
ARC
  5
124
100
AcDbEntity
  8
schema e-main body top v3
  6
ByLayer
 62
  256
370
   -1
100
AcDbCircle
 10
4
 20
47.01183023904333
 40
20
100
AcDbArc
 50
0
 51
12.59758640553419
  0
LINE
  5
125
100
AcDbEntity
  8
schema e-main body top v3
  6
ByLayer
 62
  256
370
   -1
100
AcDbLine
 10
24
 20
47.01183023904333
 11
24
 21
-2.85341657030331
  0
LINE
  5
126
100
AcDbEntity
  8
schema e-main body top v3
  6
ByLayer
 62
  256
370
   -1
100
AcDbLine
 10
18.09229949131261
 20
-31.08465228909328
 11
23.64280590275929
 21
-6.107373437583146
  0
ARC
  5
127
100
AcDbEntity
  8
schema e-main body top v3
  6
ByLayer
 62
  256
370
   -1
100
AcDbCircle
 10
9
 20
-2.853416570303308
 40
15
100
AcDbArc
 50
347.4711922908485
 51
360
  0
LINE
  5
128
100
AcDbEntity
  8
schema e-main body top v3
  6
ByLayer
 62
  256
370
   -1
100
AcDbLine
 10
-23.51851900788055
 20
51.37387284990875
 11
-17.75107931727316
 21
77.18102130543271
  0
ARC
  5
129
100
AcDbEntity
  8
schema e-main body top v3
  6
ByLayer
 62
  256
370
   -1
100
AcDbCircle
 10
-4
 20
47.01183023904333
 40
20
100
AcDbArc
 50
167.4024135944658
 51
180
  0
LINE
  5
12A
100
AcDbEntity
  8
schema e-main body top v3
  6
ByLayer
 62
  256
370
   -1
100
AcDbLine
 10
-24
 20
47.01183023904333
 11
-24
 21
-2.85341657030331
  0
LINE
  5
12B
100
AcDbEntity
  8
schema e-main body top v3
  6
ByLayer
 62
  256
370
   -1
100
AcDbLine
 10
-18.09229949131261
 20
-31.08465228909329
 11
-23.64280590275929
 21
-6.107373437583153
  0
ARC
  5
12C
100
AcDbEntity
  8
schema e-main body top v3
  6
ByLayer
 62
  256
370
   -1
100
AcDbCircle
 10
-9
 20
-2.853416570303311
 40
15
100
AcDbArc
 50
180
 51
192.5288077091515
  0
CIRCLE
  5
12D
100
AcDbEntity
  8
schema e-arm led deployed v1
  6
ByLayer
 62
  256
370
   -1
100
AcDbCircle
 10
97.42785792574935
 20
56.24999999999998
 40
14.99999999999996
  0
LWPOLYLINE
  5
12E
100
AcDbEntity
  8
schema e-arm led deployed v1
  6
ByLayer
 62
  256
370
   -1
100
AcDbPolyline
 90
    8
 70
    1
 43
0
 10
105.4278579257494
 20
54.74999999999998
 10
106.9278579257494
 20
54.74999999999998
 42
0.414213562373095
 10
108.4278579257494
 20
56.24999999999998
 10
108.4278579257494
 20
56.24999999999998
 42
0.414213562373095
 10
106.9278579257494
 20
57.74999999999998
 10
105.4278579257494
 20
57.74999999999998
 42
0.414213562373095
 10
103.9278579257494
 20
56.24999999999998
 10
103.9278579257494
 20
56.24999999999998
 42
0.414213562373095
  0
LWPOLYLINE
  5
12F
100
AcDbEntity
  8
schema e-arm led deployed v1
  6
ByLayer
 62
  256
370
   -1
100
AcDbPolyline
 90
    8
 70
    1
 43
0
 10
98.92785792574935
 20
64.24999999999999
 10
98.92785792574935
 20
65.75
 42
0.414213562373095
 10
97.42785792574935
 20
67.24999999999997
 10
97.42785792574935
 20
67.25
 42
0.414213562373095
 10
95.92785792574935
 20
65.75
 10
95.92785792574935
 20
64.25
 42
0.4142135623730949
 10
97.42785792574935
 20
62.74999999999997
 10
97.42785792574935
 20
62.75000000000001
 42
0.4142135623730896
  0
LWPOLYLINE
  5
130
100
AcDbEntity
  8
schema e-arm led deployed v1
  6
ByLayer
 62
  256
370
   -1
100
AcDbPolyline
 90
    8
 70
    1
 43
0
 10
89.42785792574934
 20
57.74999999999998
 10
87.92785792574934
 20
57.74999999999998
 42
0.4142135623730923
 10
86.42785792574935
 20
56.24999999999998
 10
86.42785792574934
 20
56.24999999999998
 42
0.414213562373095
 10
87.92785792574934
 20
54.74999999999998
 10
89.42785792574934
 20
54.74999999999998
 42
0.4142135623730966
 10
90.92785792574936
 20
56.24999999999998
 10
90.92785792574934
 20
56.24999999999998
 42
0.414213562373095
  0
LWPOLYLINE
  5
131
100
AcDbEntity
  8
schema e-arm led deployed v1
  6
ByLayer
 62
  256
370
   -1
100
AcDbPolyline
 90
    8
 70
    1
 43
0
 10
95.92785792574935
 20
48.24999999999996
 10
95.92785792574935
 20
46.74999999999996
 42
0.4142135623730949
 10
97.42785792574935
 20
45.24999999999999
 10
97.42785792574935
 20
45.24999999999996
 42
0.414213562373095
 10
98.92785792574935
 20
46.74999999999996
 10
98.92785792574935
 20
48.24999999999996
 42
0.414213562373095
 10
97.42785792574935
 20
49.74999999999999
 10
97.42785792574935
 20
49.74999999999996
 42
0.414213562373095
  0
LINE
  5
132
100
AcDbEntity
  8
schema e-arm led deployed v1
  6
ByLayer
 62
  256
370
   -1
100
AcDbLine
 10
92.932299311579
 20
74.76547849494246
 11
89.07851774841706
 21
68.71148139681567
  0
LINE
  5
133
100
AcDbEntity
  8
schema e-arm led deployed v1
  6
ByLayer
 62
  256
370
   -1
100
AcDbLine
 10
92.932299311579
 20
74.76547849494246
 11
112.4278579257493
 21
79.4989988909806
  0
LINE
  5
134
100
AcDbEntity
  8
schema e-arm led deployed v1
  6
ByLayer
 62
  256
370
   -1
100
AcDbLine
 10
112.4278579257493
 20
56.2499984538057
 11
112.4278579257493
 21
79.4989988909806
  0
LINE
  5
135
100
AcDbEntity
  8
schema e-arm led deployed v1
  6
ByLayer
 62
   16
420
8388608
370
   -1
100
AcDbLine
 10
109.9278579257493
 20
71.24999999999946
 11
109.9278579257493
 21
78.89199904941187
  0
LINE
  5
136
100
AcDbEntity
  8
schema e-arm led deployed v1
  6
ByLayer
 62
   16
420
8388608
370
   -1
100
AcDbLine
 10
94.92785792574932
 20
71.24999999999946
 11
94.92785792574932
 21
75.24999999999946
  0
LINE
  5
137
100
AcDbEntity
  8
schema e-arm led deployed v1
  6
ByLayer
 62
  256
370
   -1
100
AcDbLine
 10
109.9278579257493
 20
71.24999999999946
 11
94.92785792574932
 21
71.24999999999947
  0
LINE
  5
138
100
AcDbEntity
  8
schema e-arm led deployed v1
  6
ByLayer
 62
  256
370
   -1
100
AcDbLine
 10
106.9278579257493
 20
56.2499984538057
 11
106.9278579257493
 21
68.74999999999946
  0
LINE
  5
139
100
AcDbEntity
  8
schema e-arm led deployed v1
  6
ByLayer
 62
  256
370
   -1
100
AcDbLine
 10
106.9278579257493
 20
68.74999999999946
 11
94.42785792574935
 21
68.74999999999947
  0
LINE
  5
13A
100
AcDbEntity
  8
schema e-arm led deployed v1
  6
ByLayer
 62
  256
370
   -1
100
AcDbLine
 10
109.4278579257493
 20
59.24999999999998
 11
77.92785792574934
 21
59.24999999999998
  0
LINE
  5
13B
100
AcDbEntity
  8
schema e-arm led deployed v1
  6
ByLayer
 62
   16
420
8388608
370
   -1
100
AcDbLine
 10
94.42785792574935
 20
68.74999999999947
 11
94.42785792574935
 21
54.25
  0
LWPOLYLINE
  5
13C
100
AcDbEntity
  8
schema e-arm deployed v1
  6
ByLayer
 62
  256
370
   -1
100
AcDbPolyline
 90
    8
 70
    1
 43
0
 10
105.4278579257494
 20
54.74999999999998
 10
106.9278579257494
 20
54.74999999999998
 42
0.414213562373095
 10
108.4278579257494
 20
56.24999999999998
 10
108.4278579257494
 20
56.24999999999998
 42
0.414213562373095
 10
106.9278579257494
 20
57.74999999999998
 10
105.4278579257494
 20
57.74999999999998
 42
0.414213562373095
 10
103.9278579257494
 20
56.24999999999998
 10
103.9278579257494
 20
56.24999999999998
 42
0.414213562373095
  0
LWPOLYLINE
  5
13D
100
AcDbEntity
  8
schema e-arm deployed v1
  6
ByLayer
 62
  256
370
   -1
100
AcDbPolyline
 90
    8
 70
    1
 43
0
 10
98.92785792574935
 20
64.24999999999999
 10
98.92785792574935
 20
65.75
 42
0.414213562373095
 10
97.42785792574935
 20
67.24999999999997
 10
97.42785792574935
 20
67.25
 42
0.414213562373095
 10
95.92785792574935
 20
65.75
 10
95.92785792574935
 20
64.25
 42
0.4142135623730949
 10
97.42785792574935
 20
62.74999999999997
 10
97.42785792574935
 20
62.75000000000001
 42
0.4142135623730896
  0
LWPOLYLINE
  5
13E
100
AcDbEntity
  8
schema e-arm deployed v1
  6
ByLayer
 62
  256
370
   -1
100
AcDbPolyline
 90
    8
 70
    1
 43
0
 10
89.42785792574934
 20
57.74999999999998
 10
87.92785792574934
 20
57.74999999999998
 42
0.4142135623730923
 10
86.42785792574935
 20
56.24999999999998
 10
86.42785792574934
 20
56.24999999999998
 42
0.414213562373095
 10
87.92785792574934
 20
54.74999999999998
 10
89.42785792574934
 20
54.74999999999998
 42
0.4142135623730966
 10
90.92785792574936
 20
56.24999999999998
 10
90.92785792574934
 20
56.24999999999998
 42
0.414213562373095
  0
LWPOLYLINE
  5
13F
100
AcDbEntity
  8
schema e-arm deployed v1
  6
ByLayer
 62
  256
370
   -1
100
AcDbPolyline
 90
    8
 70
    1
 43
0
 10
95.92785792574935
 20
48.24999999999996
 10
95.92785792574935
 20
46.74999999999996
 42
0.4142135623730949
 10
97.42785792574935
 20
45.24999999999999
 10
97.42785792574935
 20
45.24999999999996
 42
0.414213562373095
 10
98.92785792574935
 20
46.74999999999996
 10
98.92785792574935
 20
48.24999999999996
 42
0.414213562373095
 10
97.42785792574935
 20
49.74999999999999
 10
97.42785792574935
 20
49.74999999999996
 42
0.414213562373095
  0
LWPOLYLINE
  5
140
100
AcDbEntity
  8
schema e-arm folded v1
  6
ByLayer
 62
  256
370
   -1
100
AcDbPolyline
 90
    8
 70
    1
 43
0
 10
18.98897326346232
 20
-83.12843330228303
 10
18.43975734593833
 20
-84.52427064092184
 42
0.4142135623730944
 10
19.28637876705313
 20
-86.46932389708464
 10
19.28637876705313
 20
-86.46932389708465
 42
0.414213562373094
 10
21.23143202321593
 20
-85.62270247596983
 10
21.78064794073993
 20
-84.22686513733102
 42
0.4142135623730976
 10
20.93402651962514
 20
-82.2818118811682
 10
20.93402651962513
 20
-82.28181188116822
 42
0.4142135623730939
  0
LWPOLYLINE
  5
141
100
AcDbEntity
  8
schema e-arm folded v1
  6
ByLayer
 62
  256
370
   -1
100
AcDbPolyline
 90
    8
 70
    1
 43
0
 10
30.20921205077878
 20
-80.55817231250019
 10
31.6050493894176
 20
-81.1073882300242
 42
0.4142135623730981
 10
33.5501026455804
 20
-80.26076680890938
 10
33.55010264558041
 20
-80.26076680890938
 42
0.4142135623730919
 10
32.70348122446561
 20
-78.31571355274659
 10
31.3076438858268
 20
-77.76649763522258
 42
0.4142135623730963
 10
29.36259062966397
 20
-78.61311905633738
 10
29.36259062966399
 20
-78.6131190563374
 42
0.4142135623730925
  0
LWPOLYLINE
  5
142
100
AcDbEntity
  8
schema e-arm folded v1
  6
ByLayer
 62
  256
370
   -1
100
AcDbPolyline
 90
    8
 70
    1
 43
0
 10
27.63895106099595
 20
-69.33793352518371
 10
28.18816697851994
 20
-67.9420961865449
 42
0.4142135623730955
 10
27.34154555740514
 20
-65.99704293038211
 10
27.34154555740515
 20
-65.99704293038211
 42
0.4142135623730939
 10
25.39649230124234
 20
-66.84366435149691
 10
24.84727638371836
 20
-68.23950169013573
 42
0.4142135623730975
 10
25.69389780483314
 20
-70.18455494629855
 10
25.69389780483314
 20
-70.18455494629852
 42
0.4142135623730935
  0
LWPOLYLINE
  5
143
100
AcDbEntity
  8
schema e-arm folded v1
  6
ByLayer
 62
  256
370
   -1
100
AcDbPolyline
 90
    8
 70
    1
 43
0
 10
16.41871227367948
 20
-71.90819451496655
 10
15.02287493504067
 20
-71.35897859744254
 42
0.4142135623730966
 10
13.07782167887788
 20
-72.20560001855736
 10
13.07782167887786
 20
-72.20560001855736
 42
0.4142135623730896
 10
13.92444309999268
 20
-74.15065327472016
 10
15.32028043863148
 20
-74.69986919224418
 42
0.4142135623730948
 10
17.2653336947943
 20
-73.85324777112938
 10
17.26533369479429
 20
-73.85324777112936
 42
0.4142135623730948
  0
LWPOLYLINE
  5
144
100
AcDbEntity
  8
schema e-arm folded v1
  6
ByLayer
 62
  256
370
   -1
100
AcDbPolyline
 90
    8
 70
    1
 43
0
 10
-18.98897326346232
 20
-83.12843330228303
 10
-18.43975734593833
 20
-84.52427064092184
 42
-0.4142135623730955
 10
-19.28637876705313
 20
-86.46932389708464
 10
-19.28637876705313
 20
-86.46932389708465
 42
-0.4142135623730941
 10
-21.23143202321593
 20
-85.62270247596983
 10
-21.78064794073994
 20
-84.22686513733102
 42
-0.4142135623730951
 10
-20.93402651962514
 20
-82.28181188116821
 10
-20.93402651962513
 20
-82.28181188116822
 42
-0.4142135623730935
  0
LWPOLYLINE
  5
145
100
AcDbEntity
  8
schema e-arm folded v1
  6
ByLayer
 62
  256
370
   -1
100
AcDbPolyline
 90
    8
 70
    1
 43
0
 10
-30.20921205077878
 20
-80.55817231250019
 10
-31.6050493894176
 20
-81.1073882300242
 42
-0.414213562373098
 10
-33.5501026455804
 20
-80.26076680890938
 10
-33.55010264558041
 20
-80.26076680890938
 42
-0.4142135623730919
 10
-32.70348122446561
 20
-78.31571355274659
 10
-31.3076438858268
 20
-77.76649763522258
 42
-0.4142135623730959
 10
-29.36259062966397
 20
-78.61311905633738
 10
-29.36259062966399
 20
-78.6131190563374
 42
-0.4142135623730935
  0
LWPOLYLINE
  5
146
100
AcDbEntity
  8
schema e-arm folded v1
  6
ByLayer
 62
  256
370
   -1
100
AcDbPolyline
 90
    8
 70
    1
 43
0
 10
-27.63895106099595
 20
-69.33793352518371
 10
-28.18816697851996
 20
-67.9420961865449
 42
-0.4142135623730924
 10
-27.34154555740514
 20
-65.99704293038211
 10
-27.34154555740515
 20
-65.99704293038211
 42
-0.4142135623730935
 10
-25.39649230124234
 20
-66.84366435149691
 10
-24.84727638371836
 20
-68.23950169013573
 42
-0.4142135623730963
 10
-25.69389780483314
 20
-70.18455494629855
 10
-25.69389780483314
 20
-70.18455494629852
 42
-0.4142135623730936
  0
LWPOLYLINE
  5
147
100
AcDbEntity
  8
schema e-arm folded v1
  6
ByLayer
 62
  256
370
   -1
100
AcDbPolyline
 90
    8
 70
    1
 43
0
 10
-16.41871227367948
 20
-71.90819451496655
 10
-15.02287493504067
 20
-71.35897859744254
 42
-0.4142135623730966
 10
-13.07782167887788
 20
-72.20560001855736
 10
-13.07782167887786
 20
-72.20560001855736
 42
-0.4142135623730927
 10
-13.92444309999267
 20
-74.15065327472017
 10
-15.32028043863148
 20
-74.69986919224418
 42
-0.4142135623730946
 10
-17.2653336947943
 20
-73.85324777112938
 10
-17.26533369479429
 20
-73.85324777112936
 42
-0.4142135623730932
  0
LWPOLYLINE
  5
148
100
AcDbEntity
  8
schema e-arm deployed v1
  6
ByLayer
 62
  256
370
   -1
100
AcDbPolyline
 90
    8
 70
    1
 43
0
 10
-105.4278579257494
 20
54.74999999999996
 10
-106.9278579257494
 20
54.74999999999996
 42
-0.414213562373095
 10
-108.4278579257494
 20
56.24999999999996
 10
-108.4278579257494
 20
56.24999999999996
 42
-0.414213562373095
 10
-106.9278579257494
 20
57.74999999999996
 10
-105.4278579257494
 20
57.74999999999996
 42
-0.414213562373095
 10
-103.9278579257494
 20
56.24999999999996
 10
-103.9278579257494
 20
56.24999999999996
 42
-0.414213562373095
  0
LWPOLYLINE
  5
149
100
AcDbEntity
  8
schema e-arm deployed v1
  6
ByLayer
 62
  256
370
   -1
100
AcDbPolyline
 90
    8
 70
    1
 43
0
 10
-98.92785792574935
 20
64.24999999999996
 10
-98.92785792574935
 20
65.75
 42
-0.414213562373095
 10
-97.42785792574935
 20
67.24999999999997
 10
-97.42785792574935
 20
67.25
 42
-0.414213562373095
 10
-95.92785792574935
 20
65.75
 10
-95.92785792574935
 20
64.25
 42
-0.4142135623730924
 10
-97.42785792574935
 20
62.74999999999996
 10
-97.42785792574935
 20
62.75000000000001
 42
-0.4142135623730893
  0
LWPOLYLINE
  5
14A
100
AcDbEntity
  8
schema e-arm deployed v1
  6
ByLayer
 62
  256
370
   -1
100
AcDbPolyline
 90
    8
 70
    1
 43
0
 10
-89.42785792574934
 20
57.74999999999996
 10
-87.92785792574934
 20
57.74999999999996
 42
-0.4142135623730923
 10
-86.42785792574935
 20
56.24999999999996
 10
-86.42785792574934
 20
56.24999999999996
 42
-0.414213562373095
 10
-87.92785792574934
 20
54.74999999999996
 10
-89.42785792574934
 20
54.74999999999996
 42
-0.4142135623730949
 10
-90.92785792574936
 20
56.24999999999996
 10
-90.92785792574934
 20
56.24999999999996
 42
-0.414213562373095
  0
LWPOLYLINE
  5
14B
100
AcDbEntity
  8
schema e-arm deployed v1
  6
ByLayer
 62
  256
370
   -1
100
AcDbPolyline
 90
    8
 70
    1
 43
0
 10
-95.92785792574935
 20
48.24999999999992
 10
-95.92785792574935
 20
46.74999999999992
 42
-0.4142135623730938
 10
-97.42785792574935
 20
45.24999999999996
 10
-97.42785792574935
 20
45.24999999999992
 42
-0.414213562373095
 10
-98.92785792574935
 20
46.74999999999992
 10
-98.92785792574935
 20
48.24999999999992
 42
-0.4142135623730964
 10
-97.42785792574935
 20
49.74999999999996
 10
-97.42785792574935
 20
49.74999999999992
 42
-0.414213562373095
  0
LINE
  5
14C
100
AcDbEntity
  8
schema e-arm deployed v1
  6
ByLayer
 62
  256
370
   -1
100
AcDbLine
 10
112.4278579257493
 20
56.2499984538057
 11
112.4278579257493
 21
72.78409911894448
  0
LINE
  5
14D
100
AcDbEntity
  8
schema e-arm deployed v1
  6
ByLayer
 62
  256
370
   -1
100
AcDbLine
 10
93.88868391445334
 20
70.82649640063644
 11
109.9559682601631
 21
74.72763202155069
  0
ARC
  5
14E
100
AcDbEntity
  8
schema e-arm deployed v1
  6
ByLayer
 62
  256
370
   -1
100
AcDbCircle
 10
110.4278579257493
 20
72.78409911894448
 40
2
100
AcDbArc
 50
0
 51
103.6473239679153
  0
LINE
  5
14F
100
AcDbEntity
  8
schema e-arm deployed v1
  6
ByLayer
 62
  256
370
   -1
100
AcDbLine
 10
-93.88868391445334
 20
70.82649640063644
 11
-109.9559682601631
 21
74.72763202155068
  0
LINE
  5
150
100
AcDbEntity
  8
schema e-arm deployed v1
  6
ByLayer
 62
  256
370
   -1
100
AcDbLine
 10
-112.4278579257493
 20
56.24999845380567
 11
-112.4278579257493
 21
72.78409911894447
  0
ARC
  5
151
100
AcDbEntity
  8
schema e-arm deployed v1
  6
ByLayer
 62
  256
370
   -1
100
AcDbCircle
 10
-110.4278579257493
 20
72.78409911894447
 40
2
100
AcDbArc
 50
76.35267603208467
 51
180
  0
LINE
  5
152
100
AcDbEntity
  8
schema e-arm folded v1
  6
ByLayer
 62
  256
370
   -1
100
AcDbLine
 10
38.17408792518487
 20
-78.27687182176923
 11
35.92138289099688
 21
-94.65679262156556
  0
LINE
  5
153
100
AcDbEntity
  8
schema e-arm folded v1
  6
ByLayer
 62
  256
370
   -1
100
AcDbLine
 10
17.82180154816533
 20
-90.19155623399176
 11
33.20774492764099
 21
-96.24541707881737
  0
ARC
  5
154
100
AcDbEntity
  8
schema e-arm folded v1
  6
ByLayer
 62
  256
370
   -1
100
AcDbCircle
 10
33.94003281767299
 20
-94.38430062729896
 40
2
100
AcDbArc
 50
248.5220000000001
 51
352.1693239679154
  0
LINE
  5
155
100
AcDbEntity
  8
schema e-arm folded v1
  6
ByLayer
 62
  256
370
   -1
100
AcDbLine
 10
-17.82180154816533
 20
-90.19155623399176
 11
-33.20774492764099
 21
-96.24541707881737
  0
LINE
  5
156
100
AcDbEntity
  8
schema e-arm folded v1
  6
ByLayer
 62
  256
370
   -1
100
AcDbLine
 10
-38.17408792518487
 20
-78.27687182176923
 11
-35.92138289099688
 21
-94.65679262156556
  0
ARC
  5
157
100
AcDbEntity
  8
schema e-arm folded v1
  6
ByLayer
 62
  256
370
   -1
100
AcDbCircle
 10
-33.94003281767299
 20
-94.38430062729896
 40
2
100
AcDbArc
 50
187.8306760320846
 51
291.4779999999999
  0
LINE
  5
158
100
AcDbEntity
  8
tail top
  6
ByLayer
 62
  256
370
   -1
100
AcDbLine
 10
-20.00000000000002
 20
-112.5
 11
19.99999999999998
 21
-112.5
  0
LWPOLYLINE
  5
159
100
AcDbEntity
  8
tail top
  6
ByLayer
 62
  256
370
   -1
100
AcDbPolyline
 90
    8
 70
    1
 43
0
 10
8
 20
-114
 10
9.499999999999996
 20
-114
 42
0.4142135623730938
 10
10.99999999999999
 20
-112.5
 10
11
 20
-112.5
 42
0.414213562373095
 10
9.5
 20
-111
 10
8
 20
-111
 42
0.4142135623730923
 10
6.499999999999986
 20
-112.5
 10
6.5
 20
-112.5
 42
0.414213562373095
  0
LWPOLYLINE
  5
15A
100
AcDbEntity
  8
tail top
  6
ByLayer
 62
  256
370
   -1
100
AcDbPolyline
 90
    8
 70
    1
 43
0
 10
-8.000000000000028
 20
-111
 10
-9.500000000000028
 20
-111
 42
0.4142135623730967
 10
-11.00000000000001
 20
-112.5
 10
-11.00000000000003
 20
-112.5
 42
0.414213562373095
 10
-9.500000000000028
 20
-114
 10
-8.000000000000032
 20
-114
 42
0.4142135623730929
 10
-6.500000000000014
 20
-112.5
 10
-6.500000000000028
 20
-112.5
 42
0.414213562373095
  0
CIRCLE
  5
15B
100
AcDbEntity
  8
servo arm
  6
ByLayer
 62
  256
370
   -1
100
AcDbCircle
 10
0
 20
-100
 40
1.25
  0
CIRCLE
  5
15C
100
AcDbEntity
  8
servo arm
  6
ByLayer
 62
  256
370
   -1
100
AcDbCircle
 10
0
 20
-93
 40
0.5
  0
CIRCLE
  5
15D
100
AcDbEntity
  8
servo arm
  6
ByLayer
 62
  256
370
   -1
100
AcDbCircle
 10
9.5
 20
-100
 40
0.5
  0
CIRCLE
  5
15E
100
AcDbEntity
  8
servo arm
  6
ByLayer
 62
  256
370
   -1
100
AcDbCircle
 10
-7
 20
-100
 40
0.5
  0
CIRCLE
  5
15F
100
AcDbEntity
  8
servo arm
  6
ByLayer
 62
  256
370
   -1
100
AcDbCircle
 10
5.816880180656292e-016
 20
-90.5
 40
0.5
  0
CIRCLE
  5
160
100
AcDbEntity
  8
servo arm
  6
ByLayer
 62
  256
370
   -1
100
AcDbCircle
 10
-8.572244476756641e-016
 20
-107
 40
0.5
  0
CIRCLE
  5
161
100
AcDbEntity
  8
servo arm
  6
ByLayer
 62
  256
370
   -1
100
AcDbCircle
 10
-9.5
 20
-100
 40
0.5
  0
CIRCLE
  5
162
100
AcDbEntity
  8
servo arm
  6
ByLayer
 62
  256
370
   -1
100
AcDbCircle
 10
7
 20
-100
 40
0.5
  0
CIRCLE
  5
163
100
AcDbEntity
  8
servo arm
  6
ByLayer
 62
  256
370
   -1
100
AcDbCircle
 10
-1.745064054196888e-015
 20
-109.5
 40
0.5
  0
CIRCLE
  5
164
100
AcDbEntity
  8
servo arm
  6
ByLayer
 62
  256
370
   -1
100
AcDbCircle
 10
0
 20
-100
 40
4
  0
LINE
  5
165
100
AcDbEntity
  8
servo arm
  6
ByLayer
 62
  256
370
   -1
100
AcDbLine
 10
0
 20
-112
 11
0
 21
-112
  0
ARC
  5
166
100
AcDbEntity
  8
servo arm
  6
ByLayer
 62
  256
370
   -1
100
AcDbCircle
 10
0
 20
-109.5
 40
2.5
100
AcDbArc
 50
270
 51
0
  0
ARC
  5
167
100
AcDbEntity
  8
servo arm
  6
ByLayer
 62
  256
370
   -1
100
AcDbCircle
 10
0
 20
-90.5
 40
2.5
100
AcDbArc
 50
0
 51
90
  0
LINE
  5
168
100
AcDbEntity
  8
servo arm
  6
ByLayer
 62
  256
370
   -1
100
AcDbLine
 10
0
 20
-88
 11
0
 21
-88
  0
ARC
  5
169
100
AcDbEntity
  8
servo arm
  6
ByLayer
 62
  256
370
   -1
100
AcDbCircle
 10
0
 20
-90.5
 40
2.5
100
AcDbArc
 50
90
 51
180
  0
ARC
  5
16A
100
AcDbEntity
  8
servo arm
  6
ByLayer
 62
  256
370
   -1
100
AcDbCircle
 10
0
 20
-109.5
 40
2.5
100
AcDbArc
 50
180
 51
270
  0
LINE
  5
16B
100
AcDbEntity
  8
servo arm
  6
ByLayer
 62
  256
370
   -1
100
AcDbLine
 10
12
 20
-100
 11
12
 21
-100
  0
ARC
  5
16C
100
AcDbEntity
  8
servo arm
  6
ByLayer
 62
  256
370
   -1
100
AcDbCircle
 10
9.5
 20
-100
 40
2.5
100
AcDbArc
 50
360
 51
90
  0
ARC
  5
16D
100
AcDbEntity
  8
servo arm
  6
ByLayer
 62
  256
370
   -1
100
AcDbCircle
 10
-9.5
 20
-100
 40
2.5
100
AcDbArc
 50
90
 51
180
  0
LINE
  5
16E
100
AcDbEntity
  8
servo arm
  6
ByLayer
 62
  256
370
   -1
100
AcDbLine
 10
-12
 20
-100
 11
-12
 21
-100
  0
ARC
  5
16F
100
AcDbEntity
  8
servo arm
  6
ByLayer
 62
  256
370
   -1
100
AcDbCircle
 10
-9.5
 20
-100
 40
2.5
100
AcDbArc
 50
180
 51
270
  0
ARC
  5
170
100
AcDbEntity
  8
servo arm
  6
ByLayer
 62
  256
370
   -1
100
AcDbCircle
 10
9.5
 20
-100
 40
2.5
100
AcDbArc
 50
270
 51
360
  0
LINE
  5
171
100
AcDbEntity
  8
servo arm
  6
ByLayer
 62
  256
370
   -1
100
AcDbLine
 10
9.5
 20
-97.5
 11
3.122498999199199
 21
-97.5
  0
LINE
  5
172
100
AcDbEntity
  8
servo arm
  6
ByLayer
 62
  256
370
   -1
100
AcDbLine
 10
-3.122498999199199
 20
-97.5
 11
-9.5
 21
-97.5
  0
LINE
  5
173
100
AcDbEntity
  8
servo arm
  6
ByLayer
 62
  256
370
   -1
100
AcDbLine
 10
-2.5
 20
-90.5
 11
-2.5
 21
-96.87750100080081
  0
LINE
  5
174
100
AcDbEntity
  8
servo arm
  6
ByLayer
 62
  256
370
   -1
100
AcDbLine
 10
2.5
 20
-96.87750100080081
 11
2.5
 21
-90.5
  0
LINE
  5
175
100
AcDbEntity
  8
servo arm
  6
ByLayer
 62
  256
370
   -1
100
AcDbLine
 10
2.5
 20
-109.5
 11
2.5
 21
-103.1224989991992
  0
LINE
  5
176
100
AcDbEntity
  8
servo arm
  6
ByLayer
 62
  256
370
   -1
100
AcDbLine
 10
-2.5
 20
-103.1224989991992
 11
-2.5
 21
-109.5
  0
LINE
  5
177
100
AcDbEntity
  8
servo arm
  6
ByLayer
 62
  256
370
   -1
100
AcDbLine
 10
-9.5
 20
-102.5
 11
-3.122498999199199
 21
-102.5
  0
LINE
  5
178
100
AcDbEntity
  8
servo arm
  6
ByLayer
 62
  256
370
   -1
100
AcDbLine
 10
3.122498999199199
 20
-102.5
 11
9.5
 21
-102.5
  0
CIRCLE
  5
179
100
AcDbEntity
  8
servo arm
  6
ByLayer
 62
  256
370
   -1
100
AcDbCircle
 10
0
 20
0
 40
1.25
  0
CIRCLE
  5
17A
100
AcDbEntity
  8
servo arm
  6
ByLayer
 62
  256
370
   -1
100
AcDbCircle
 10
4.949747468305832
 20
4.949747468305833
 40
0.5
  0
CIRCLE
  5
17B
100
AcDbEntity
  8
servo arm
  6
ByLayer
 62
  256
370
   -1
100
AcDbCircle
 10
-4.949747468305833
 20
4.949747468305833
 40
0.5
  0
CIRCLE
  5
17C
100
AcDbEntity
  8
servo arm
  6
ByLayer
 62
  256
370
   -1
100
AcDbCircle
 10
6.717514421272202
 20
6.717514421272202
 40
0.5
  0
CIRCLE
  5
17D
100
AcDbEntity
  8
servo arm
  6
ByLayer
 62
  256
370
   -1
100
AcDbCircle
 10
-6.717514421272202
 20
6.717514421272202
 40
0.5
  0
CIRCLE
  5
17E
100
AcDbEntity
  8
servo arm
  6
ByLayer
 62
  256
370
   -1
100
AcDbCircle
 10
0
 20
0
 40
4
  0
ARC
  5
17F
100
AcDbEntity
  8
servo arm
  6
ByLayer
 62
  256
370
   -1
100
AcDbCircle
 10
6.717514421272201
 20
6.717514421272202
 40
2.5
100
AcDbArc
 50
315
 51
45
  0
LINE
  5
180
100
AcDbEntity
  8
servo arm
  6
ByLayer
 62
  256
370
   -1
100
AcDbLine
 10
8.48528137423857
 20
8.485281374238571
 11
8.48528137423857
 21
8.485281374238571
  0
ARC
  5
181
100
AcDbEntity
  8
servo arm
  6
ByLayer
 62
  256
370
   -1
100
AcDbCircle
 10
6.717514421272201
 20
6.717514421272202
 40
2.5
100
AcDbArc
 50
45
 51
135
  0
ARC
  5
182
100
AcDbEntity
  8
servo arm
  6
ByLayer
 62
  256
370
   -1
100
AcDbCircle
 10
-6.717514421272202
 20
6.717514421272202
 40
2.5
100
AcDbArc
 50
45
 51
135
  0
LINE
  5
183
100
AcDbEntity
  8
servo arm
  6
ByLayer
 62
  256
370
   -1
100
AcDbLine
 10
-8.48528137423857
 20
8.48528137423857
 11
-8.48528137423857
 21
8.48528137423857
  0
ARC
  5
184
100
AcDbEntity
  8
servo arm
  6
ByLayer
 62
  256
370
   -1
100
AcDbCircle
 10
-6.717514421272202
 20
6.717514421272202
 40
2.5
100
AcDbArc
 50
135
 51
225
  0
LINE
  5
185
100
AcDbEntity
  8
servo arm
  6
ByLayer
 62
  256
370
   -1
100
AcDbLine
 10
-0.4401732636155929
 20
3.975707169548331
 11
-4.949747468305833
 21
8.48528137423857
  0
LINE
  5
186
100
AcDbEntity
  8
servo arm
  6
ByLayer
 62
  256
370
   -1
100
AcDbLine
 10
4.949747468305832
 20
8.485281374238571
 11
0.4401732636155923
 21
3.975707169548331
  0
LINE
  5
187
100
AcDbEntity
  8
servo arm
  6
ByLayer
 62
  256
370
   -1
100
AcDbLine
 10
3.97570716954833
 20
0.4401732636155929
 11
8.48528137423857
 21
4.949747468305834
  0
LINE
  5
188
100
AcDbEntity
  8
servo arm
  6
ByLayer
 62
  256
370
   -1
100
AcDbLine
 10
-8.48528137423857
 20
4.949747468305833
 11
-3.97570716954833
 21
0.4401732636155929
  0
LINE
  5
189
100
AcDbEntity
  8
servo arm
  6
ByLayer
 62
  256
370
   -1
100
AcDbLine
 10
4.596194077712559
 20
-1.060660171779821
 11
3.97570716954833
 21
-0.4401732636155929
  0
LINE
  5
18A
100
AcDbEntity
  8
servo arm
  6
ByLayer
 62
  256
370
   -1
100
AcDbLine
 10
0.4401732636155929
 20
-3.975707169548331
 11
1.060660171779821
 21
-4.596194077712559
  0
LINE
  5
18B
100
AcDbEntity
  8
servo arm
  6
ByLayer
 62
  256
370
   -1
100
AcDbLine
 10
4.596194077712559
 20
-1.060660171779821
 11
1.060660171779821
 21
-4.596194077712559
  0
LINE
  5
18C
100
AcDbEntity
  8
servo arm
  6
ByLayer
 62
  256
370
   -1
100
AcDbLine
 10
-1.060660171779821
 20
-4.596194077712559
 11
-0.4401732636155923
 21
-3.975707169548331
  0
LINE
  5
18D
100
AcDbEntity
  8
servo arm
  6
ByLayer
 62
  256
370
   -1
100
AcDbLine
 10
-3.97570716954833
 20
-0.4401732636155932
 11
-4.596194077712559
 21
-1.060660171779822
  0
LINE
  5
18E
100
AcDbEntity
  8
servo arm
  6
ByLayer
 62
  256
370
   -1
100
AcDbLine
 10
-4.596194077712559
 20
-1.060660171779822
 11
-1.060660171779821
 21
-4.596194077712559
  0
CIRCLE
  5
18F
100
AcDbEntity
  8
servo arm demo 45deg
  6
ByLayer
 62
  256
370
   -1
100
AcDbCircle
 10
0
 20
10.5
 40
1.25
  0
CIRCLE
  5
190
100
AcDbEntity
  8
servo arm demo 45deg
  6
ByLayer
 62
  256
370
   -1
100
AcDbCircle
 10
4.949747468305832
 20
15.44974746830583
 40
0.5
  0
CIRCLE
  5
191
100
AcDbEntity
  8
servo arm demo 45deg
  6
ByLayer
 62
  256
370
   -1
100
AcDbCircle
 10
-4.949747468305833
 20
15.44974746830583
 40
0.5
  0
CIRCLE
  5
192
100
AcDbEntity
  8
servo arm demo 45deg
  6
ByLayer
 62
  256
370
   -1
100
AcDbCircle
 10
6.717514421272202
 20
17.2175144212722
 40
0.5
  0
CIRCLE
  5
193
100
AcDbEntity
  8
servo arm demo 45deg
  6
ByLayer
 62
  256
370
   -1
100
AcDbCircle
 10
-6.717514421272202
 20
17.2175144212722
 40
0.5
  0
CIRCLE
  5
194
100
AcDbEntity
  8
servo arm demo 45deg
  6
ByLayer
 62
  256
370
   -1
100
AcDbCircle
 10
0
 20
10.5
 40
4
  0
ARC
  5
195
100
AcDbEntity
  8
servo arm demo 45deg
  6
ByLayer
 62
  256
370
   -1
100
AcDbCircle
 10
6.717514421272201
 20
17.2175144212722
 40
2.5
100
AcDbArc
 50
315
 51
45
  0
LINE
  5
196
100
AcDbEntity
  8
servo arm demo 45deg
  6
ByLayer
 62
  256
370
   -1
100
AcDbLine
 10
8.48528137423857
 20
18.98528137423857
 11
8.48528137423857
 21
18.98528137423857
  0
ARC
  5
197
100
AcDbEntity
  8
servo arm demo 45deg
  6
ByLayer
 62
  256
370
   -1
100
AcDbCircle
 10
6.717514421272201
 20
17.2175144212722
 40
2.5
100
AcDbArc
 50
45
 51
135
  0
ARC
  5
198
100
AcDbEntity
  8
servo arm demo 45deg
  6
ByLayer
 62
  256
370
   -1
100
AcDbCircle
 10
-6.717514421272202
 20
17.2175144212722
 40
2.5
100
AcDbArc
 50
45
 51
135
  0
LINE
  5
199
100
AcDbEntity
  8
servo arm demo 45deg
  6
ByLayer
 62
  256
370
   -1
100
AcDbLine
 10
-8.48528137423857
 20
18.98528137423857
 11
-8.48528137423857
 21
18.98528137423857
  0
ARC
  5
19A
100
AcDbEntity
  8
servo arm demo 45deg
  6
ByLayer
 62
  256
370
   -1
100
AcDbCircle
 10
-6.717514421272202
 20
17.2175144212722
 40
2.5
100
AcDbArc
 50
135
 51
225
  0
LINE
  5
19B
100
AcDbEntity
  8
servo arm demo 45deg
  6
ByLayer
 62
  256
370
   -1
100
AcDbLine
 10
-0.4401732636155929
 20
14.47570716954833
 11
-4.949747468305833
 21
18.98528137423857
  0
LINE
  5
19C
100
AcDbEntity
  8
servo arm demo 45deg
  6
ByLayer
 62
  256
370
   -1
100
AcDbLine
 10
4.949747468305832
 20
18.98528137423857
 11
0.4401732636155923
 21
14.47570716954833
  0
LINE
  5
19D
100
AcDbEntity
  8
servo arm demo 45deg
  6
ByLayer
 62
  256
370
   -1
100
AcDbLine
 10
3.97570716954833
 20
10.94017326361559
 11
8.48528137423857
 21
15.44974746830583
  0
LINE
  5
19E
100
AcDbEntity
  8
servo arm demo 45deg
  6
ByLayer
 62
  256
370
   -1
100
AcDbLine
 10
-8.48528137423857
 20
15.44974746830583
 11
-3.97570716954833
 21
10.94017326361559
  0
LINE
  5
19F
100
AcDbEntity
  8
servo arm demo 45deg
  6
ByLayer
 62
  256
370
   -1
100
AcDbLine
 10
4.596194077712559
 20
9.439339828220179
 11
3.97570716954833
 21
10.05982673638441
  0
LINE
  5
1A0
100
AcDbEntity
  8
servo arm demo 45deg
  6
ByLayer
 62
  256
370
   -1
100
AcDbLine
 10
0.4401732636155929
 20
6.524292830451669
 11
1.060660171779821
 21
5.903805922287441
  0
LINE
  5
1A1
100
AcDbEntity
  8
servo arm demo 45deg
  6
ByLayer
 62
  256
370
   -1
100
AcDbLine
 10
4.596194077712559
 20
9.439339828220179
 11
1.060660171779821
 21
5.903805922287441
  0
LINE
  5
1A2
100
AcDbEntity
  8
servo arm demo 45deg
  6
ByLayer
 62
  256
370
   -1
100
AcDbLine
 10
-1.060660171779821
 20
5.903805922287441
 11
-0.4401732636155923
 21
6.524292830451669
  0
LINE
  5
1A3
100
AcDbEntity
  8
servo arm demo 45deg
  6
ByLayer
 62
  256
370
   -1
100
AcDbLine
 10
-3.97570716954833
 20
10.05982673638441
 11
-4.596194077712559
 21
9.439339828220179
  0
LINE
  5
1A4
100
AcDbEntity
  8
servo arm demo 45deg
  6
ByLayer
 62
  256
370
   -1
100
AcDbLine
 10
-4.596194077712559
 20
9.439339828220179
 11
-1.060660171779821
 21
5.903805922287441
  0
ARC
  5
1A5
100
AcDbEntity
  8
schema e-arm deployed v2
  6
ByLayer
 62
  256
370
   -1
100
AcDbCircle
 10
44.91909035528055
 20
24.15725489026624
 40
5
100
AcDbArc
 50
103.6473324908534
 51
135.6725371142907
  0
LINE
  5
1A6
100
AcDbEntity
  8
schema e-arm deployed v2
  6
ByLayer
 62
  256
370
   -1
100
AcDbLine
 10
41.34230091207851
 20
27.65104613746439
 11
22.40357888640409
 21
8.262417505603697
  0
ARC
  5
1A7
100
AcDbEntity
  8
schema e-arm deployed v2
  6
ByLayer
 62
  256
370
   -1
100
AcDbCircle
 10
15.25
 20
15.25
 40
10
100
AcDbArc
 50
129.3744901996846
 51
315.6725371142907
  0
LINE
  5
1A8
100
AcDbEntity
  8
schema e-arm deployed v2
  6
ByLayer
 62
  256
370
   -1
100
AcDbLine
 10
8.906135938719643
 20
22.98016097969476
 11
34.1063430219277
 21
43.66106121863118
  0
ARC
  5
1A9
100
AcDbEntity
  8
schema e-arm deployed v2
  6
ByLayer
 62
  256
370
   -1
100
AcDbCircle
 10
37.27827505256788
 20
39.7959807287838
 40
5
100
AcDbArc
 50
103.6473239679155
 51
129.3744901996846
  0
CIRCLE
  5
1AA
100
AcDbEntity
  8
schema e-arm deployed v2
  6
ByLayer
 62
  256
370
   -1
100
AcDbCircle
 10
24.09400022524779
 20
23.36071267003196
 40
1.5
  0
CIRCLE
  5
1AB
100
AcDbEntity
  8
schema e-arm deployed v2
  6
ByLayer
 62
  256
370
   -1
100
AcDbCircle
 10
15.25
 20
15.25
 40
2.5
  0
LWPOLYLINE
  5
1AC
100
AcDbEntity
  8
schema e-arm deployed v2
  6
ByLayer
 62
  256
370
   -1
100
AcDbPolyline
 90
    8
 70
    1
 43
0
 10
105.4278579257494
 20
54.74999999999998
 10
106.9278579257494
 20
54.74999999999998
 42
0.414213562373095
 10
108.4278579257494
 20
56.24999999999998
 10
108.4278579257494
 20
56.24999999999998
 42
0.414213562373095
 10
106.9278579257494
 20
57.74999999999998
 10
105.4278579257494
 20
57.74999999999998
 42
0.414213562373095
 10
103.9278579257494
 20
56.24999999999998
 10
103.9278579257494
 20
56.24999999999998
 42
0.414213562373095
  0
LWPOLYLINE
  5
1AD
100
AcDbEntity
  8
schema e-arm deployed v2
  6
ByLayer
 62
  256
370
   -1
100
AcDbPolyline
 90
    8
 70
    1
 43
0
 10
98.92785792574935
 20
64.24999999999999
 10
98.92785792574935
 20
65.75
 42
0.414213562373095
 10
97.42785792574935
 20
67.24999999999997
 10
97.42785792574935
 20
67.25
 42
0.414213562373095
 10
95.92785792574935
 20
65.75
 10
95.92785792574935
 20
64.25
 42
0.4142135623730949
 10
97.42785792574935
 20
62.74999999999997
 10
97.42785792574935
 20
62.75000000000001
 42
0.4142135623730896
  0
LWPOLYLINE
  5
1AE
100
AcDbEntity
  8
schema e-arm deployed v2
  6
ByLayer
 62
  256
370
   -1
100
AcDbPolyline
 90
    8
 70
    1
 43
0
 10
89.42785792574934
 20
57.74999999999998
 10
87.92785792574934
 20
57.74999999999998
 42
0.4142135623730923
 10
86.42785792574935
 20
56.24999999999998
 10
86.42785792574934
 20
56.24999999999998
 42
0.414213562373095
 10
87.92785792574934
 20
54.74999999999998
 10
89.42785792574934
 20
54.74999999999998
 42
0.4142135623730966
 10
90.92785792574936
 20
56.24999999999998
 10
90.92785792574934
 20
56.24999999999998
 42
0.414213562373095
  0
LWPOLYLINE
  5
1AF
100
AcDbEntity
  8
schema e-arm deployed v2
  6
ByLayer
 62
  256
370
   -1
100
AcDbPolyline
 90
    8
 70
    1
 43
0
 10
95.92785792574935
 20
48.24999999999996
 10
95.92785792574935
 20
46.74999999999996
 42
0.4142135623730949
 10
97.42785792574935
 20
45.24999999999999
 10
97.42785792574935
 20
45.24999999999996
 42
0.414213562373095
 10
98.92785792574935
 20
46.74999999999996
 10
98.92785792574935
 20
48.24999999999996
 42
0.414213562373095
 10
97.42785792574935
 20
49.74999999999999
 10
97.42785792574935
 20
49.74999999999996
 42
0.414213562373095
  0
LINE
  5
1B0
100
AcDbEntity
  8
schema e-arm deployed v2
  6
ByLayer
 62
  256
370
   -1
100
AcDbLine
 10
78.94665853379448
 20
55.05833080616004
 11
36.09855088860229
 21
44.65481298529932
  0
ARC
  5
1B1
100
AcDbEntity
  8
schema e-arm deployed v2
  6
ByLayer
 62
  256
370
   -1
100
AcDbCircle
 10
77.76693436982889
 20
59.91716306267555
 40
5
100
AcDbArc
 50
283.6473239679154
 51
349.4345758192169
  0
LINE
  5
1B2
100
AcDbEntity
  8
schema e-arm deployed v2
  6
ByLayer
 62
  256
370
   -1
100
AcDbLine
 10
94.04572320307499
 20
41.23046744119721
 11
43.73936691408244
 21
29.01608732226967
  0
ARC
  5
1B3
100
AcDbEntity
  8
schema e-arm deployed v2
  6
ByLayer
 62
  256
370
   -1
100
AcDbCircle
 10
95.22544736704057
 20
36.37163518468169
 40
5
100
AcDbArc
 50
83.67773647923457
 51
103.6473239679154
  0
LINE
  5
1B4
100
AcDbEntity
  8
schema e-main body middle
  6
ByLayer
 62
  256
370
   -1
100
AcDbLine
 10
-7.991819813332877
 20
85
 11
7.991819813332879
 21
85
  0
LINE
  5
1B5
100
AcDbEntity
  8
schema e-main body middle
  6
ByLayer
 62
  256
370
   -1
100
AcDbLine
 10
7.991819813332881
 20
85
 11
-7.991819813332879
 21
85
  0
ARC
  5
1B6
100
AcDbEntity
  8
schema e-main body middle
  6
ByLayer
 62
  256
370
   -1
100
AcDbCircle
 10
7.991819813332881
 20
75
 40
10
100
AcDbArc
 50
12.59758640553419
 51
90
  0
LINE
  5
1B7
100
AcDbEntity
  8
schema e-main body middle
  6
ByLayer
 62
  256
370
   -1
100
AcDbLine
 10
29.74267648489348
 20
23.52308209410362
 11
17.75107931727316
 21
77.18102130543271
  0
ARC
  5
1B8
100
AcDbEntity
  8
schema e-main body middle
  6
ByLayer
 62
  256
370
   -1
100
AcDbCircle
 10
24.86304673292334
 20
22.43257144138727
 40
5
100
AcDbArc
 50
347.4711922908485
 51
12.59758640553419
  0
LINE
  5
1B9
100
AcDbEntity
  8
schema e-main body middle
  6
ByLayer
 62
  256
370
   -1
100
AcDbLine
 10
7.991819813332877
 20
85
 11
-7.991819813332879
 21
85
  0
LINE
  5
1BA
100
AcDbEntity
  8
schema e-main body middle
  6
ByLayer
 62
  256
370
   -1
100
AcDbLine
 10
-7.991819813332881
 20
85
 11
7.991819813332879
 21
85
  0
ARC
  5
1BB
100
AcDbEntity
  8
schema e-main body middle
  6
ByLayer
 62
  256
370
   -1
100
AcDbCircle
 10
-7.991819813332881
 20
75
 40
10
100
AcDbArc
 50
90
 51
167.4024135944658
  0
LINE
  5
1BC
100
AcDbEntity
  8
schema e-main body middle
  6
ByLayer
 62
  256
370
   -1
100
AcDbLine
 10
-29.74267648489348
 20
23.52308209410362
 11
-17.75107931727316
 21
77.18102130543271
  0
ARC
  5
1BD
100
AcDbEntity
  8
schema e-main body middle
  6
ByLayer
 62
  256
370
   -1
100
AcDbCircle
 10
-24.86304673292334
 20
22.43257144138727
 40
5
100
AcDbArc
 50
167.4024135944658
 51
192.5288077091515
  0
CIRCLE
  5
1BE
100
AcDbEntity
  8
schema e-main body middle
  6
ByLayer
 62
  256
370
   -1
100
AcDbCircle
 10
-15.25
 20
15.25
 40
1.5
  0
CIRCLE
  5
1BF
100
AcDbEntity
  8
schema e-main body middle
  6
ByLayer
 62
  256
370
   -1
100
AcDbCircle
 10
15.25
 20
15.25
 40
1.5
  0
CIRCLE
  5
1C0
100
AcDbEntity
  8
schema e-main body middle
  6
ByLayer
 62
  256
370
   -1
100
AcDbCircle
 10
12
 20
79
 40
1.5
  0
CIRCLE
  5
1C1
100
AcDbEntity
  8
schema e-main body middle
  6
ByLayer
 62
  256
370
   -1
100
AcDbCircle
 10
-12
 20
79
 40
1.5
  0
CIRCLE
  5
1C2
100
AcDbEntity
  8
schema e-main body middle
  6
ByLayer
 62
  256
370
   -1
100
AcDbCircle
 10
24.09400022524779
 20
23.36071267003196
 40
1.5
  0
CIRCLE
  5
1C3
100
AcDbEntity
  8
schema e-main body middle
  6
ByLayer
 62
  256
370
   -1
100
AcDbCircle
 10
-24.09400022524779
 20
23.36071267003196
 40
1.5
  0
CIRCLE
  5
1C4
100
AcDbEntity
  8
schema e-main body middle
  6
ByLayer
 62
  256
370
   -1
100
AcDbCircle
 10
12
 20
-32
 40
1.5
  0
CIRCLE
  5
1C5
100
AcDbEntity
  8
schema e-main body middle
  6
ByLayer
 62
  256
370
   -1
100
AcDbCircle
 10
-12
 20
-32
 40
1.5
  0
CIRCLE
  5
1C6
100
AcDbEntity
  8
schema e-main body middle
  6
ByLayer
 62
  256
370
   -1
100
AcDbCircle
 10
19.56514091453516
 20
39.42678803195898
 40
1.5
  0
CIRCLE
  5
1C7
100
AcDbEntity
  8
schema e-main body middle
  6
ByLayer
 62
  256
370
   -1
100
AcDbCircle
 10
-19.56514091453516
 20
39.42678803195898
 40
1.5
  0
LINE
  5
1C8
100
AcDbEntity
  8
servo
  6
ByLayer
 62
    5
370
   -1
100
AcDbLine
 10
5.999999999999985
 20
-63
 11
-6.000000000000015
 21
-63
  0
LINE
  5
1C9
100
AcDbEntity
  8
servo
  6
ByLayer
 62
    5
370
   -1
100
AcDbLine
 10
5.99999999999998
 20
-89.5
 11
-6.00000000000002
 21
-89.5
  0
LINE
  5
1CA
100
AcDbEntity
  8
servo
  6
ByLayer
 62
    5
370
   -1
100
AcDbLine
 10
5.999999999999979
 20
-95.5
 11
-6.000000000000021
 21
-95.5
  0
LINE
  5
1CB
100
AcDbEntity
  8
servo
  6
ByLayer
 62
    5
370
   -1
100
AcDbLine
 10
-6.000000000000015
 20
-63
 11
-6.00000000000002
 21
-89.5
  0
LINE
  5
1CC
100
AcDbEntity
  8
servo
  6
ByLayer
 62
    5
370
   -1
100
AcDbLine
 10
5.999999999999985
 20
-63
 11
5.99999999999998
 21
-89.5
  0
LINE
  5
1CD
100
AcDbEntity
  8
servo
  6
ByLayer
 62
    5
370
   -1
100
AcDbLine
 10
5.99999999999998
 20
-93.5
 11
-6.00000000000002
 21
-93.5
  0
LINE
  5
1CE
100
AcDbEntity
  8
servo
  6
ByLayer
 62
    5
370
   -1
100
AcDbLine
 10
-6.000000000000021
 20
-95.5
 11
-6.00000000000002
 21
-93.5
  0
LINE
  5
1CF
100
AcDbEntity
  8
servo
  6
ByLayer
 62
    5
370
   -1
100
AcDbLine
 10
5.999999999999979
 20
-95.5
 11
5.99999999999998
 21
-93.5
  0
LINE
  5
1D0
100
AcDbEntity
  8
schema e-esc deployed
  6
ByLayer
 62
    1
370
   -1
100
AcDbLine
 10
74.08782627727895
 20
53.87860664219445
 11
78.09888843476195
 21
37.35857697004167
  0
LINE
  5
1D1
100
AcDbEntity
  8
schema e-esc deployed
  6
ByLayer
 62
    1
370
   -1
100
AcDbLine
 10
78.09888843476195
 20
37.35857697004167
 11
44.08706263915333
 21
29.10050782228253
  0
LINE
  5
1D2
100
AcDbEntity
  8
schema e-esc deployed
  6
ByLayer
 62
    1
370
   -1
100
AcDbLine
 10
74.08782627727895
 20
53.87860664219445
 11
40.07600048167032
 21
45.6205374944353
  0
LINE
  5
1D3
100
AcDbEntity
  8
schema e-esc deployed
  6
ByLayer
 62
    1
370
   -1
100
AcDbLine
 10
40.07600048167032
 20
45.6205374944353
 11
44.08706263915333
 21
29.10050782228253
  0
LINE
  5
1D4
100
AcDbEntity
  8
schema e-esc deployed
  6
ByLayer
 62
    1
370
   -1
100
AcDbLine
 10
-74.08782627727895
 20
53.87860664219443
 11
-78.09888843476195
 21
37.35857697004166
  0
LINE
  5
1D5
100
AcDbEntity
  8
schema e-esc deployed
  6
ByLayer
 62
    1
370
   -1
100
AcDbLine
 10
-78.09888843476195
 20
37.35857697004166
 11
-44.08706263915333
 21
29.10050782228252
  0
LINE
  5
1D6
100
AcDbEntity
  8
schema e-esc deployed
  6
ByLayer
 62
    1
370
   -1
100
AcDbLine
 10
-74.08782627727895
 20
53.87860664219443
 11
-40.07600048167032
 21
45.62053749443529
  0
LINE
  5
1D7
100
AcDbEntity
  8
schema e-esc deployed
  6
ByLayer
 62
    1
370
   -1
100
AcDbLine
 10
-40.07600048167032
 20
45.62053749443529
 11
-44.08706263915333
 21
29.10050782228252
  0
LINE
  5
1D8
100
AcDbEntity
  8
esc-tail
  6
ByLayer
 62
    1
370
   -1
100
AcDbLine
 10
-8.5
 20
-58
 11
-8.5
 21
-23
  0
LINE
  5
1D9
100
AcDbEntity
  8
esc-tail
  6
ByLayer
 62
    1
370
   -1
100
AcDbLine
 10
8.5
 20
-23
 11
8.5
 21
-58
  0
LINE
  5
1DA
100
AcDbEntity
  8
esc-tail
  6
ByLayer
 62
    1
370
   -1
100
AcDbLine
 10
-8.5
 20
-23
 11
8.5
 21
-23
  0
LINE
  5
1DB
100
AcDbEntity
  8
esc-tail
  6
ByLayer
 62
    1
370
   -1
100
AcDbLine
 10
-8.5
 20
-58
 11
8.5
 21
-58
  0
ARC
  5
1DC
100
AcDbEntity
  8
schema e-arm deployed v2
  6
ByLayer
 62
  256
370
   -1
100
AcDbCircle
 10
94.42785792574935
 20
56.24999999999999
 40
18
100
AcDbArc
 50
0
 51
63.86754175696608
  0
LINE
  5
1DD
100
AcDbEntity
  8
schema e-arm deployed v2
  6
ByLayer
 62
  256
370
   -1
100
AcDbLine
 10
102.3559202168286
 20
72.41000706400733
 11
94.89949349684416
 21
76.06811286004809
  0
ARC
  5
1DE
100
AcDbEntity
  8
schema e-arm deployed v2
  6
ByLayer
 62
  256
370
   -1
100
AcDbCircle
 10
94.4590455917842
 20
75.17033468982545
 40
1
100
AcDbArc
 50
63.86753726914335
 51
193.272877229973
  0
ARC
  5
1DF
100
AcDbEntity
  8
schema e-arm deployed v2
  6
ByLayer
 62
  256
370
   -1
100
AcDbCircle
 10
97.42785792574935
 20
56.24999999999999
 40
15
100
AcDbArc
 50
263.6777364792345
 51
0
  0
ARC
  5
1E0
100
AcDbEntity
  8
schema e-arm deployed v2
  6
ByLayer
 62
  256
370
   -1
100
AcDbCircle
 10
-44.91909035528055
 20
24.15725489026625
 40
5
100
AcDbArc
 50
44.32746288570929
 51
76.35266750914663
  0
LINE
  5
1E1
100
AcDbEntity
  8
schema e-arm deployed v2
  6
ByLayer
 62
  256
370
   -1
100
AcDbLine
 10
-41.34230091207851
 20
27.65104613746442
 11
-22.40357888640409
 21
8.26241750560369
  0
ARC
  5
1E2
100
AcDbEntity
  8
schema e-arm deployed v2
  6
ByLayer
 62
  256
370
   -1
100
AcDbCircle
 10
-15.25
 20
15.25
 40
10
100
AcDbArc
 50
224.3274628857093
 51
50.62550980031538
  0
LINE
  5
1E3
100
AcDbEntity
  8
schema e-arm deployed v2
  6
ByLayer
 62
  256
370
   -1
100
AcDbLine
 10
-8.906135938719643
 20
22.98016097969476
 11
-34.1063430219277
 21
43.6610612186312
  0
ARC
  5
1E4
100
AcDbEntity
  8
schema e-arm deployed v2
  6
ByLayer
 62
  256
370
   -1
100
AcDbCircle
 10
-37.27827505256788
 20
39.7959807287838
 40
5
100
AcDbArc
 50
50.62550980031538
 51
76.3526760320845
  0
CIRCLE
  5
1E5
100
AcDbEntity
  8
schema e-arm deployed v2
  6
ByLayer
 62
  256
370
   -1
100
AcDbCircle
 10
-24.09400022524779
 20
23.36071267003196
 40
1.5
  0
CIRCLE
  5
1E6
100
AcDbEntity
  8
schema e-arm deployed v2
  6
ByLayer
 62
  256
370
   -1
100
AcDbCircle
 10
-15.25
 20
15.25
 40
2.5
  0
LWPOLYLINE
  5
1E7
100
AcDbEntity
  8
schema e-arm deployed v2
  6
ByLayer
 62
  256
370
   -1
100
AcDbPolyline
 90
    8
 70
    1
 43
0
 10
-105.4278579257494
 20
54.74999999999998
 10
-106.9278579257494
 20
54.74999999999998
 42
-0.414213562373095
 10
-108.4278579257494
 20
56.24999999999998
 10
-108.4278579257494
 20
56.24999999999998
 42
-0.414213562373095
 10
-106.9278579257494
 20
57.74999999999998
 10
-105.4278579257494
 20
57.74999999999998
 42
-0.414213562373095
 10
-103.9278579257494
 20
56.24999999999998
 10
-103.9278579257494
 20
56.24999999999998
 42
-0.414213562373095
  0
LWPOLYLINE
  5
1E8
100
AcDbEntity
  8
schema e-arm deployed v2
  6
ByLayer
 62
  256
370
   -1
100
AcDbPolyline
 90
    8
 70
    1
 43
0
 10
-98.92785792574935
 20
64.24999999999997
 10
-98.92785792574935
 20
65.74999999999999
 42
-0.414213562373095
 10
-97.42785792574935
 20
67.24999999999996
 10
-97.42785792574935
 20
67.25
 42
-0.414213562373095
 10
-95.92785792574935
 20
65.75
 10
-95.92785792574935
 20
64.24999999999999
 42
-0.4142135623730924
 10
-97.42785792574935
 20
62.74999999999998
 10
-97.42785792574935
 20
62.75000000000001
 42
-0.4142135623730921
  0
LWPOLYLINE
  5
1E9
100
AcDbEntity
  8
schema e-arm deployed v2
  6
ByLayer
 62
  256
370
   -1
100
AcDbPolyline
 90
    8
 70
    1
 43
0
 10
-89.42785792574934
 20
57.74999999999998
 10
-87.92785792574934
 20
57.74999999999996
 42
-0.4142135623730923
 10
-86.42785792574936
 20
56.24999999999998
 10
-86.42785792574934
 20
56.24999999999998
 42
-0.414213562373095
 10
-87.92785792574934
 20
54.74999999999998
 10
-89.42785792574934
 20
54.74999999999996
 42
-0.4142135623730976
 10
-90.92785792574936
 20
56.24999999999998
 10
-90.92785792574934
 20
56.24999999999998
 42
-0.414213562373095
  0
LWPOLYLINE
  5
1EA
100
AcDbEntity
  8
schema e-arm deployed v2
  6
ByLayer
 62
  256
370
   -1
100
AcDbPolyline
 90
    8
 70
    1
 43
0
 10
-95.92785792574935
 20
48.24999999999996
 10
-95.92785792574935
 20
46.74999999999996
 42
-0.414213562373095
 10
-97.42785792574935
 20
45.24999999999999
 10
-97.42785792574935
 20
45.24999999999996
 42
-0.414213562373095
 10
-98.92785792574935
 20
46.74999999999996
 10
-98.92785792574935
 20
48.24999999999996
 42
-0.4142135623730963
 10
-97.42785792574935
 20
49.74999999999997
 10
-97.42785792574935
 20
49.74999999999996
 42
-0.414213562373095
  0
LINE
  5
1EB
100
AcDbEntity
  8
schema e-arm deployed v2
  6
ByLayer
 62
  256
370
   -1
100
AcDbLine
 10
-78.94665853379448
 20
55.05833080616004
 11
-36.09855088860229
 21
44.65481298529931
  0
ARC
  5
1EC
100
AcDbEntity
  8
schema e-arm deployed v2
  6
ByLayer
 62
  256
370
   -1
100
AcDbCircle
 10
-77.76693436982889
 20
59.91716306267553
 40
5
100
AcDbArc
 50
190.5654241807831
 51
256.3526760320846
  0
LINE
  5
1ED
100
AcDbEntity
  8
schema e-arm deployed v2
  6
ByLayer
 62
  256
370
   -1
100
AcDbLine
 10
-94.04572320307499
 20
41.23046744119721
 11
-43.73936691408244
 21
29.01608732226967
  0
ARC
  5
1EE
100
AcDbEntity
  8
schema e-arm deployed v2
  6
ByLayer
 62
  256
370
   -1
100
AcDbCircle
 10
-95.22544736704057
 20
36.3716351846817
 40
5
100
AcDbArc
 50
76.3526760320846
 51
96.32226352076543
  0
ARC
  5
1EF
100
AcDbEntity
  8
schema e-arm deployed v2
  6
ByLayer
 62
  256
370
   -1
100
AcDbCircle
 10
-94.42785792574935
 20
56.24999999999999
 40
18
100
AcDbArc
 50
116.1324582430339
 51
180
  0
LINE
  5
1F0
100
AcDbEntity
  8
schema e-arm deployed v2
  6
ByLayer
 62
  256
370
   -1
100
AcDbLine
 10
-102.3559202168286
 20
72.41000706400733
 11
-94.89949349684416
 21
76.06811286004809
  0
ARC
  5
1F1
100
AcDbEntity
  8
schema e-arm deployed v2
  6
ByLayer
 62
  256
370
   -1
100
AcDbCircle
 10
-94.4590455917842
 20
75.17033468982545
 40
1
100
AcDbArc
 50
346.727122770027
 51
116.1324627308566
  0
ARC
  5
1F2
100
AcDbEntity
  8
schema e-arm deployed v2
  6
ByLayer
 62
  256
370
   -1
100
AcDbCircle
 10
-97.42785792574935
 20
56.24999999999999
 40
15
100
AcDbArc
 50
180
 51
276.3222635207655
  0
ARC
  5
1F3
100
AcDbEntity
  8
schema e-arm folded v2
  6
ByLayer
 62
  256
370
   -1
100
AcDbCircle
 10
12.67556151935257
 20
-15.62015352568456
 40
5
100
AcDbArc
 50
352.1693324908534
 51
24.19453711429069
  0
LINE
  5
1F4
100
AcDbEntity
  8
schema e-arm folded v2
  6
ByLayer
 62
  256
370
   -1
100
AcDbLine
 10
17.2363575007439
 20
-13.57097319781572
 11
6.128408037217333
 21
11.1516393442623
  0
ARC
  5
1F5
100
AcDbEntity
  8
schema e-arm folded v2
  6
ByLayer
 62
  256
370
   -1
100
AcDbCircle
 10
15.25
 20
15.25
 40
10
100
AcDbArc
 50
17.89649019968461
 51
204.1945371142907
  0
LINE
  5
1F6
100
AcDbEntity
  8
schema e-arm folded v2
  6
ByLayer
 62
  256
370
   -1
100
AcDbLine
 10
24.76613230014021
 20
18.32298324860844
 11
34.78401089692206
 21
-12.69946314347273
  0
ARC
  5
1F7
100
AcDbEntity
  8
schema e-arm folded v2
  6
ByLayer
 62
  256
370
   -1
100
AcDbCircle
 10
30.02594474685196
 20
-14.23595476777695
 40
5
100
AcDbArc
 50
352.1693239679155
 51
17.89649019968461
  0
CIRCLE
  5
1F8
100
AcDbEntity
  8
schema e-arm folded v2
  6
ByLayer
 62
  256
370
   -1
100
AcDbCircle
 10
19.55931325967303
 20
4.050454507882646
 40
1.5
  0
CIRCLE
  5
1F9
100
AcDbEntity
  8
schema e-arm folded v2
  6
ByLayer
 62
  256
370
   -1
100
AcDbCircle
 10
15.25
 20
15.25
 40
2.5
  0
LWPOLYLINE
  5
1FA
100
AcDbEntity
  8
schema e-arm folded v2
  6
ByLayer
 62
  256
370
   -1
100
AcDbPolyline
 90
    8
 70
    1
 43
0
 10
18.98897326346231
 20
-83.12843330228306
 10
18.43975734593831
 20
-84.52427064092187
 42
0.4142135623730965
 10
19.28637876705312
 20
-86.46932389708469
 10
19.28637876705312
 20
-86.46932389708468
 42
0.414213562373094
 10
21.23143202321592
 20
-85.62270247596986
 10
21.78064794073993
 20
-84.22686513733105
 42
0.414213562373095
 10
20.93402651962512
 20
-82.28181188116825
 10
20.93402651962512
 20
-82.28181188116825
 42
0.4142135623730931
  0
LWPOLYLINE
  5
1FB
100
AcDbEntity
  8
schema e-arm folded v2
  6
ByLayer
 62
  256
370
   -1
100
AcDbPolyline
 90
    8
 70
    1
 43
0
 10
30.20921205077878
 20
-80.55817231250019
 10
31.6050493894176
 20
-81.10738823002418
 42
0.4142135623730945
 10
33.55010264558039
 20
-80.26076680890938
 10
33.55010264558041
 20
-80.26076680890938
 42
0.4142135623730919
 10
32.70348122446561
 20
-78.31571355274659
 10
31.3076438858268
 20
-77.76649763522258
 42
0.4142135623730953
 10
29.36259062966396
 20
-78.61311905633737
 10
29.36259062966399
 20
-78.6131190563374
 42
0.4142135623730915
  0
LWPOLYLINE
  5
1FC
100
AcDbEntity
  8
schema e-arm folded v2
  6
ByLayer
 62
  256
370
   -1
100
AcDbPolyline
 90
    8
 70
    1
 43
0
 10
27.63895106099595
 20
-69.33793352518371
 10
28.18816697851994
 20
-67.9420961865449
 42
0.4142135623730955
 10
27.34154555740514
 20
-65.99704293038211
 10
27.34154555740515
 20
-65.99704293038211
 42
0.4142135623730939
 10
25.39649230124234
 20
-66.84366435149691
 10
24.84727638371834
 20
-68.23950169013571
 42
0.4142135623730973
 10
25.69389780483314
 20
-70.18455494629855
 10
25.69389780483314
 20
-70.18455494629852
 42
0.4142135623730935
  0
LWPOLYLINE
  5
1FD
100
AcDbEntity
  8
schema e-arm folded v2
  6
ByLayer
 62
  256
370
   -1
100
AcDbPolyline
 90
    8
 70
    1
 43
0
 10
16.41871227367947
 20
-71.90819451496655
 10
15.02287493504067
 20
-71.35897859744257
 42
0.4142135623730946
 10
13.07782167887788
 20
-72.20560001855738
 10
13.07782167887786
 20
-72.20560001855736
 42
0.4142135623730941
 10
13.92444309999266
 20
-74.15065327472016
 10
15.32028043863147
 20
-74.69986919224417
 42
0.4142135623730955
 10
17.26533369479431
 20
-73.85324777112938
 10
17.26533369479428
 20
-73.85324777112936
 42
0.414213562373095
  0
LINE
  5
1FE
100
AcDbEntity
  8
schema e-arm folded v2
  6
ByLayer
 62
  256
370
   -1
100
AcDbLine
 10
28.9718238455152
 20
-58.59902883786715
 11
34.97931993016169
 21
-14.91718475344346
  0
ARC
  5
1FF
100
AcDbEntity
  8
schema e-arm folded v2
  6
ByLayer
 62
  256
370
   -1
100
AcDbCircle
 10
33.92519902882493
 20
-59.28025882353366
 40
5
100
AcDbArc
 50
172.1693239679154
 51
237.9565758192169
  0
LINE
  5
200
100
AcDbEntity
  8
schema e-arm folded v2
  6
ByLayer
 62
  256
370
   -1
100
AcDbLine
 10
10.5757607425126
 20
-67.5865992235466
 11
17.62893660132709
 21
-16.30138424818213
  0
ARC
  5
201
100
AcDbEntity
  8
schema e-arm folded v2
  6
ByLayer
 62
  256
370
   -1
100
AcDbCircle
 10
5.622385559202858
 20
-66.90536923788009
 40
5
100
AcDbArc
 50
332.1997364792346
 51
352.1693239679154
  0
ARC
  5
202
100
AcDbEntity
  8
schema e-arm folded v2
  6
ByLayer
 62
  256
370
   -1
100
AcDbCircle
 10
24.41239399727715
 20
-73.44150873645576
 40
18
100
AcDbArc
 50
248.522
 51
312.3895417569661
  0
LINE
  5
203
100
AcDbEntity
  8
schema e-arm folded v2
  6
ByLayer
 62
  256
370
   -1
100
AcDbLine
 10
36.54740949542769
 20
-86.73592105365304
 11
42.68161542960867
 21
-81.13667512204901
  0
ARC
  5
204
100
AcDbEntity
  8
schema e-arm folded v2
  6
ByLayer
 62
  256
370
   -1
100
AcDbCircle
 10
42.00744790193363
 20
-80.3980966599825
 40
1
100
AcDbArc
 50
312.3895372691434
 51
81.79487722997301
  0
ARC
  5
205
100
AcDbEntity
  8
schema e-arm folded v2
  6
ByLayer
 62
  256
370
   -1
100
AcDbCircle
 10
23.31396216222915
 20
-76.23318341373337
 40
15
100
AcDbArc
 50
152.1997364792344
 51
248.522
  0
ARC
  5
206
100
AcDbEntity
  8
schema e-arm folded v2
  6
ByLayer
 62
  256
370
   -1
100
AcDbCircle
 10
-12.67556151935257
 20
-15.62015352568458
 40
5
100
AcDbArc
 50
155.8054628857093
 51
187.8306675091467
  0
LINE
  5
207
100
AcDbEntity
  8
schema e-arm folded v2
  6
ByLayer
 62
  256
370
   -1
100
AcDbLine
 10
-17.2363575007439
 20
-13.57097319781575
 11
-6.128408037217333
 21
11.15163934426228
  0
ARC
  5
208
100
AcDbEntity
  8
schema e-arm folded v2
  6
ByLayer
 62
  256
370
   -1
100
AcDbCircle
 10
-15.25
 20
15.25
 40
10
100
AcDbArc
 50
335.8054628857093
 51
162.1035098003154
  0
LINE
  5
209
100
AcDbEntity
  8
schema e-arm folded v2
  6
ByLayer
 62
  256
370
   -1
100
AcDbLine
 10
-24.76613230014021
 20
18.32298324860843
 11
-34.78401089692206
 21
-12.6994631434727
  0
ARC
  5
20A
100
AcDbEntity
  8
schema e-arm folded v2
  6
ByLayer
 62
  256
370
   -1
100
AcDbCircle
 10
-30.02594474685196
 20
-14.235954767777
 40
5
100
AcDbArc
 50
162.1035098003154
 51
187.8306760320845
  0
CIRCLE
  5
20B
100
AcDbEntity
  8
schema e-arm folded v2
  6
ByLayer
 62
  256
370
   -1
100
AcDbCircle
 10
-19.55931325967303
 20
4.05045450788265
 40
1.5
  0
CIRCLE
  5
20C
100
AcDbEntity
  8
schema e-arm folded v2
  6
ByLayer
 62
  256
370
   -1
100
AcDbCircle
 10
-15.25
 20
15.25
 40
2.5
  0
LWPOLYLINE
  5
20D
100
AcDbEntity
  8
schema e-arm folded v2
  6
ByLayer
 62
  256
370
   -1
100
AcDbPolyline
 90
    8
 70
    1
 43
0
 10
-18.98897326346231
 20
-83.12843330228309
 10
-18.43975734593831
 20
-84.52427064092184
 42
-0.4142135623730966
 10
-19.28637876705312
 20
-86.46932389708472
 10
-19.28637876705312
 20
-86.46932389708466
 42
-0.4142135623730965
 10
-21.23143202321592
 20
-85.62270247596986
 10
-21.78064794073993
 20
-84.22686513733105
 42
-0.4142135623730947
 10
-20.93402651962512
 20
-82.28181188116825
 10
-20.93402651962512
 20
-82.28181188116824
 42
-0.4142135623730953
  0
LWPOLYLINE
  5
20E
100
AcDbEntity
  8
schema e-arm folded v2
  6
ByLayer
 62
  256
370
   -1
100
AcDbPolyline
 90
    8
 70
    1
 43
0
 10
-30.20921205077878
 20
-80.55817231250019
 10
-31.6050493894176
 20
-81.10738823002416
 42
-0.4142135623730944
 10
-33.55010264558039
 20
-80.26076680890938
 10
-33.55010264558041
 20
-80.26076680890935
 42
-0.4142135623730919
 10
-32.70348122446561
 20
-78.31571355274656
 10
-31.3076438858268
 20
-77.76649763522258
 42
-0.4142135623730954
 10
-29.36259062966396
 20
-78.61311905633737
 10
-29.36259062966399
 20
-78.6131190563374
 42
-0.4142135623730916
  0
LWPOLYLINE
  5
20F
100
AcDbEntity
  8
schema e-arm folded v2
  6
ByLayer
 62
  256
370
   -1
100
AcDbPolyline
 90
    8
 70
    1
 43
0
 10
-27.63895106099595
 20
-69.33793352518369
 10
-28.18816697851994
 20
-67.94209618654487
 42
-0.4142135623730943
 10
-27.34154555740514
 20
-65.99704293038208
 10
-27.34154555740515
 20
-65.99704293038208
 42
-0.4142135623730995
 10
-25.39649230124233
 20
-66.84366435149694
 10
-24.84727638371834
 20
-68.23950169013568
 42
-0.4142135623730974
 10
-25.69389780483314
 20
-70.18455494629852
 10
-25.69389780483314
 20
-70.18455494629855
 42
-0.4142135623730979
  0
LWPOLYLINE
  5
210
100
AcDbEntity
  8
schema e-arm folded v2
  6
ByLayer
 62
  256
370
   -1
100
AcDbPolyline
 90
    8
 70
    1
 43
0
 10
-16.41871227367947
 20
-71.90819451496652
 10
-15.02287493504067
 20
-71.35897859744257
 42
-0.4142135623730944
 10
-13.07782167887788
 20
-72.20560001855738
 10
-13.07782167887786
 20
-72.20560001855736
 42
-0.4142135623730945
 10
-13.92444309999266
 20
-74.15065327472016
 10
-15.32028043863147
 20
-74.69986919224417
 42
-0.4142135623730958
 10
-17.26533369479431
 20
-73.85324777112938
 10
-17.26533369479428
 20
-73.85324777112939
 42
-0.4142135623730948
  0
LINE
  5
211
100
AcDbEntity
  8
schema e-arm folded v2
  6
ByLayer
 62
  256
370
   -1
100
AcDbLine
 10
-28.9718238455152
 20
-58.59902883786719
 11
-34.97931993016169
 21
-14.9171847534435
  0
ARC
  5
212
100
AcDbEntity
  8
schema e-arm folded v2
  6
ByLayer
 62
  256
370
   -1
100
AcDbCircle
 10
-33.92519902882493
 20
-59.28025882353369
 40
5
100
AcDbArc
 50
302.0434241807831
 51
7.830676032084619
  0
LINE
  5
213
100
AcDbEntity
  8
schema e-arm folded v2
  6
ByLayer
 62
  256
370
   -1
100
AcDbLine
 10
-10.5757607425126
 20
-67.58659922354663
 11
-17.62893660132709
 21
-16.30138424818208
  0
ARC
  5
214
100
AcDbEntity
  8
schema e-arm folded v2
  6
ByLayer
 62
  256
370
   -1
100
AcDbCircle
 10
-5.622385559202858
 20
-66.90536923788012
 40
5
100
AcDbArc
 50
187.8306760320846
 51
207.8002635207654
  0
ARC
  5
215
100
AcDbEntity
  8
schema e-arm folded v2
  6
ByLayer
 62
  256
370
   -1
100
AcDbCircle
 10
-24.41239399727715
 20
-73.44150873645576
 40
18
100
AcDbArc
 50
227.6104582430339
 51
291.478
  0
LINE
  5
216
100
AcDbEntity
  8
schema e-arm folded v2
  6
ByLayer
 62
  256
370
   -1
100
AcDbLine
 10
-36.54740949542769
 20
-86.73592105365304
 11
-42.68161542960867
 21
-81.13667512204901
  0
ARC
  5
217
100
AcDbEntity
  8
schema e-arm folded v2
  6
ByLayer
 62
  256
370
   -1
100
AcDbCircle
 10
-42.00744790193363
 20
-80.3980966599825
 40
1
100
AcDbArc
 50
98.20512277002699
 51
227.6104627308567
  0
ARC
  5
218
100
AcDbEntity
  8
schema e-arm folded v2
  6
ByLayer
 62
  256
370
   -1
100
AcDbCircle
 10
-23.31396216222915
 20
-76.23318341373337
 40
15
100
AcDbArc
 50
291.478
 51
27.80026352076555
  0
LINE
  5
219
100
AcDbEntity
  8
schema e-main body middle
  6
ByLayer
 62
  256
370
   -1
100
AcDbLine
 10
-12.68029111193196
 20
-55.43868999630624
 11
-29.7439820338431
 21
21.34791915229399
  0
ARC
  5
21A
100
AcDbEntity
  8
schema e-main body middle
  6
ByLayer
 62
  256
370
   -1
100
AcDbCircle
 10
-7.799355811012191
 20
-54.35403770721297
 40
5
100
AcDbArc
 50
192.5288077091515
 51
270
  0
LINE
  5
21B
100
AcDbEntity
  8
schema e-main body middle
  6
ByLayer
 62
  256
370
   -1
100
AcDbLine
 10
12.68029111193196
 20
-55.43868999630624
 11
29.7439820338431
 21
21.34791915229399
  0
LINE
  5
21C
100
AcDbEntity
  8
schema e-main body middle
  6
ByLayer
 62
  256
370
   -1
100
AcDbLine
 10
-7.799355811012191
 20
-59.35403770721297
 11
7.799355811012191
 21
-59.35403770721297
  0
ARC
  5
21D
100
AcDbEntity
  8
schema e-main body middle
  6
ByLayer
 62
  256
370
   -1
100
AcDbCircle
 10
7.79935581101219
 20
-54.35403770721297
 40
5
100
AcDbArc
 50
270
 51
347.4711922908485
  0
ARC
  5
21E
100
AcDbEntity
  8
schema e-main body middle
  6
ByLayer
 62
  256
370
   -1
100
AcDbCircle
 10
9.5
 20
-24
 40
1
100
AcDbArc
 50
0
 51
90
  0
LINE
  5
21F
100
AcDbEntity
  8
schema e-main body middle
  6
ByLayer
 62
  256
370
   -1
100
AcDbLine
 10
9.5
 20
-23
 11
9.5
 21
-23
  0
ARC
  5
220
100
AcDbEntity
  8
schema e-main body middle
  6
ByLayer
 62
  256
370
   -1
100
AcDbCircle
 10
9.5
 20
-24
 40
1
100
AcDbArc
 50
90
 51
180
  0
LINE
  5
221
100
AcDbEntity
  8
schema e-main body middle
  6
ByLayer
 62
  256
370
   -1
100
AcDbLine
 10
10.5
 20
-24
 11
10.5
 21
-27
  0
ARC
  5
222
100
AcDbEntity
  8
schema e-main body middle
  6
ByLayer
 62
  256
370
   -1
100
AcDbCircle
 10
9.5
 20
-27
 40
1
100
AcDbArc
 50
270
 51
0
  0
LINE
  5
223
100
AcDbEntity
  8
schema e-main body middle
  6
ByLayer
 62
  256
370
   -1
100
AcDbLine
 10
8.5
 20
-27
 11
8.5
 21
-24
  0
LINE
  5
224
100
AcDbEntity
  8
schema e-main body middle
  6
ByLayer
 62
  256
370
   -1
100
AcDbLine
 10
9.5
 20
-28
 11
9.5
 21
-28
  0
ARC
  5
225
100
AcDbEntity
  8
schema e-main body middle
  6
ByLayer
 62
  256
370
   -1
100
AcDbCircle
 10
9.5
 20
-27
 40
1
100
AcDbArc
 50
180
 51
270
  0
ARC
  5
226
100
AcDbEntity
  8
schema e-main body middle
  6
ByLayer
 62
  256
370
   -1
100
AcDbCircle
 10
-9.5
 20
-24
 40
1
100
AcDbArc
 50
90
 51
180
  0
LINE
  5
227
100
AcDbEntity
  8
schema e-main body middle
  6
ByLayer
 62
  256
370
   -1
100
AcDbLine
 10
-10.5
 20
-27
 11
-10.5
 21
-24
  0
ARC
  5
228
100
AcDbEntity
  8
schema e-main body middle
  6
ByLayer
 62
  256
370
   -1
100
AcDbCircle
 10
-9.5
 20
-27
 40
1
100
AcDbArc
 50
180
 51
270
  0
LINE
  5
229
100
AcDbEntity
  8
schema e-main body middle
  6
ByLayer
 62
  256
370
   -1
100
AcDbLine
 10
-9.5
 20
-28
 11
-9.5
 21
-28
  0
ARC
  5
22A
100
AcDbEntity
  8
schema e-main body middle
  6
ByLayer
 62
  256
370
   -1
100
AcDbCircle
 10
-9.5
 20
-27
 40
1
100
AcDbArc
 50
270
 51
0
  0
LINE
  5
22B
100
AcDbEntity
  8
schema e-main body middle
  6
ByLayer
 62
  256
370
   -1
100
AcDbLine
 10
-8.5
 20
-24
 11
-8.5
 21
-27
  0
LINE
  5
22C
100
AcDbEntity
  8
schema e-main body middle
  6
ByLayer
 62
  256
370
   -1
100
AcDbLine
 10
-9.5
 20
-23
 11
-9.5
 21
-23
  0
ARC
  5
22D
100
AcDbEntity
  8
schema e-main body middle
  6
ByLayer
 62
  256
370
   -1
100
AcDbCircle
 10
-9.5
 20
-24
 40
1
100
AcDbArc
 50
0
 51
90
  0
ARC
  5
22E
100
AcDbEntity
  8
schema e-main body middle
  6
ByLayer
 62
  256
370
   -1
100
AcDbCircle
 10
9.5
 20
-47
 40
1
100
AcDbArc
 50
90
 51
180
  0
LINE
  5
22F
100
AcDbEntity
  8
schema e-main body middle
  6
ByLayer
 62
  256
370
   -1
100
AcDbLine
 10
9.5
 20
-46
 11
9.5
 21
-46
  0
ARC
  5
230
100
AcDbEntity
  8
schema e-main body middle
  6
ByLayer
 62
  256
370
   -1
100
AcDbCircle
 10
9.5
 20
-47
 40
1
100
AcDbArc
 50
0
 51
90
  0
LINE
  5
231
100
AcDbEntity
  8
schema e-main body middle
  6
ByLayer
 62
  256
370
   -1
100
AcDbLine
 10
10.5
 20
-47
 11
10.5
 21
-50
  0
ARC
  5
232
100
AcDbEntity
  8
schema e-main body middle
  6
ByLayer
 62
  256
370
   -1
100
AcDbCircle
 10
9.5
 20
-50
 40
1
100
AcDbArc
 50
270
 51
0
  0
LINE
  5
233
100
AcDbEntity
  8
schema e-main body middle
  6
ByLayer
 62
  256
370
   -1
100
AcDbLine
 10
8.5
 20
-47
 11
8.5
 21
-50
  0
LINE
  5
234
100
AcDbEntity
  8
schema e-main body middle
  6
ByLayer
 62
  256
370
   -1
100
AcDbLine
 10
9.5
 20
-51
 11
9.5
 21
-51
  0
ARC
  5
235
100
AcDbEntity
  8
schema e-main body middle
  6
ByLayer
 62
  256
370
   -1
100
AcDbCircle
 10
9.5
 20
-50
 40
1
100
AcDbArc
 50
180
 51
270
  0
ARC
  5
236
100
AcDbEntity
  8
schema e-main body middle
  6
ByLayer
 62
  256
370
   -1
100
AcDbCircle
 10
-9.5
 20
-47
 40
1
100
AcDbArc
 50
90
 51
180
  0
LINE
  5
237
100
AcDbEntity
  8
schema e-main body middle
  6
ByLayer
 62
  256
370
   -1
100
AcDbLine
 10
-10.5
 20
-50
 11
-10.5
 21
-47
  0
ARC
  5
238
100
AcDbEntity
  8
schema e-main body middle
  6
ByLayer
 62
  256
370
   -1
100
AcDbCircle
 10
-9.5
 20
-50
 40
1
100
AcDbArc
 50
180
 51
270
  0
LINE
  5
239
100
AcDbEntity
  8
schema e-main body middle
  6
ByLayer
 62
  256
370
   -1
100
AcDbLine
 10
-9.5
 20
-51
 11
-9.5
 21
-51
  0
ARC
  5
23A
100
AcDbEntity
  8
schema e-main body middle
  6
ByLayer
 62
  256
370
   -1
100
AcDbCircle
 10
-9.5
 20
-50
 40
1
100
AcDbArc
 50
270
 51
0
  0
LINE
  5
23B
100
AcDbEntity
  8
schema e-main body middle
  6
ByLayer
 62
  256
370
   -1
100
AcDbLine
 10
-8.5
 20
-47
 11
-8.5
 21
-50
  0
LINE
  5
23C
100
AcDbEntity
  8
schema e-main body middle
  6
ByLayer
 62
  256
370
   -1
100
AcDbLine
 10
-9.5
 20
-46
 11
-9.5
 21
-46
  0
ARC
  5
23D
100
AcDbEntity
  8
schema e-main body middle
  6
ByLayer
 62
  256
370
   -1
100
AcDbCircle
 10
-9.5
 20
-47
 40
1
100
AcDbArc
 50
0
 51
90
  0
ARC
  5
23E
100
AcDbEntity
  8
schema e-main body middle
  6
ByLayer
 62
  256
370
   -1
100
AcDbCircle
 10
-3
 20
-14
 40
2
100
AcDbArc
 50
90
 51
180
  0
LINE
  5
23F
100
AcDbEntity
  8
schema e-main body middle
  6
ByLayer
 62
  256
370
   -1
100
AcDbLine
 10
-5
 20
-14
 11
-5
 21
-20
  0
ARC
  5
240
100
AcDbEntity
  8
schema e-main body middle
  6
ByLayer
 62
  256
370
   -1
100
AcDbCircle
 10
-3
 20
-20
 40
2
100
AcDbArc
 50
180
 51
270
  0
LINE
  5
241
100
AcDbEntity
  8
schema e-main body middle
  6
ByLayer
 62
  256
370
   -1
100
AcDbLine
 10
-3
 20
-22
 11
3
 21
-22
  0
ARC
  5
242
100
AcDbEntity
  8
schema e-main body middle
  6
ByLayer
 62
  256
370
   -1
100
AcDbCircle
 10
3
 20
-20
 40
2
100
AcDbArc
 50
270
 51
0
  0
LINE
  5
243
100
AcDbEntity
  8
schema e-main body middle
  6
ByLayer
 62
  256
370
   -1
100
AcDbLine
 10
5
 20
-20
 11
5
 21
-14
  0
LINE
  5
244
100
AcDbEntity
  8
schema e-main body middle
  6
ByLayer
 62
  256
370
   -1
100
AcDbLine
 10
3
 20
-12
 11
-3
 21
-12
  0
ARC
  5
245
100
AcDbEntity
  8
schema e-main body middle
  6
ByLayer
 62
  256
370
   -1
100
AcDbCircle
 10
3
 20
-14
 40
2
100
AcDbArc
 50
0
 51
90
  0
ARC
  5
246
100
AcDbEntity
  8
schema e-arm deployed v2
  6
ByLayer
 62
  256
370
   -1
100
AcDbCircle
 10
97.42785792574935
 20
56.24999999999999
 40
15
100
AcDbArc
 50
105.2270679674493
 51
169.434575819217
  0
LINE
  5
247
100
AcDbEntity
  8
schema e-arm deployed v2
  6
ByLayer
 62
  256
370
   -1
100
AcDbLine
 10
94.19882483190298
 20
71.91786937881957
 11
93.48575792672941
 21
74.94074566340615
  0
ARC
  5
248
100
AcDbEntity
  8
schema e-arm deployed v2
  6
ByLayer
 62
  256
370
   -1
100
AcDbCircle
 10
93.22553716684816
 20
71.68828035240027
 40
1
100
AcDbArc
 50
285.2270679674489
 51
13.27287722997265
  0
LINE
  5
249
100
AcDbEntity
  8
schema e-arm deployed v2
  6
ByLayer
 62
  256
370
   -1
100
AcDbLine
 10
-94.19882483190298
 20
71.91786937881957
 11
-93.48575792672941
 21
74.94074566340615
  0
ARC
  5
24A
100
AcDbEntity
  8
schema e-arm deployed v2
  6
ByLayer
 62
  256
370
   -1
100
AcDbCircle
 10
-97.42785792574935
 20
56.24999999999999
 40
15
100
AcDbArc
 50
10.56542418078306
 51
74.77293203255077
  0
ARC
  5
24B
100
AcDbEntity
  8
schema e-arm deployed v2
  6
ByLayer
 62
  256
370
   -1
100
AcDbCircle
 10
-93.22553716684816
 20
71.68828035240027
 40
1
100
AcDbArc
 50
166.7271227700274
 51
254.7729320325503
  0
LINE
  5
24C
100
AcDbEntity
  8
schema e-arm folded v2
  6
ByLayer
 62
  256
370
   -1
100
AcDbLine
 10
39.0761178083786
 20
-78.96507561136232
 11
42.15016533017368
 21
-79.40833318537024
  0
ARC
  5
24D
100
AcDbEntity
  8
schema e-arm folded v2
  6
ByLayer
 62
  256
370
   -1
100
AcDbCircle
 10
23.31396216222915
 20
-76.23318341373337
 40
15
100
AcDbArc
 50
353.7490679674492
 51
57.95657581921692
  0
ARC
  5
24E
100
AcDbEntity
  8
schema e-arm folded v2
  6
ByLayer
 62
  256
370
   -1
100
AcDbCircle
 10
39.21883523661864
 20
-77.97531213675006
 40
1
100
AcDbArc
 50
173.7490679674496
 51
261.7948772299732
  0
LINE
  5
24F
100
AcDbEntity
  8
schema e-arm folded v2
  6
ByLayer
 62
  256
370
   -1
100
AcDbLine
 10
-39.07611780837859
 20
-78.96507561136234
 11
-42.15016533017368
 21
-79.40833318537027
  0
ARC
  5
250
100
AcDbEntity
  8
schema e-arm folded v2
  6
ByLayer
 62
  256
370
   -1
100
AcDbCircle
 10
-23.31396216222915
 20
-76.23318341373337
 40
15
100
AcDbArc
 50
122.0434241807831
 51
186.2509320325508
  0
ARC
  5
251
100
AcDbEntity
  8
schema e-arm folded v2
  6
ByLayer
 62
  256
370
   -1
100
AcDbCircle
 10
-39.21883523661864
 20
-77.97531213675008
 40
1
100
AcDbArc
 50
278.2051227700272
 51
6.250932032551249
  0
ARC
  5
252
100
AcDbEntity
  8
schema e-main body middle
  6
ByLayer
 62
  256
370
   -1
100
AcDbCircle
 10
-3
 20
14
 40
2
100
AcDbArc
 50
180
 51
270
  0
LINE
  5
253
100
AcDbEntity
  8
schema e-main body middle
  6
ByLayer
 62
  256
370
   -1
100
AcDbLine
 10
-5
 20
14
 11
-5
 21
20
  0
ARC
  5
254
100
AcDbEntity
  8
schema e-main body middle
  6
ByLayer
 62
  256
370
   -1
100
AcDbCircle
 10
-3
 20
20
 40
2
100
AcDbArc
 50
90
 51
180
  0
LINE
  5
255
100
AcDbEntity
  8
schema e-main body middle
  6
ByLayer
 62
  256
370
   -1
100
AcDbLine
 10
-3
 20
22
 11
3
 21
22
  0
ARC
  5
256
100
AcDbEntity
  8
schema e-main body middle
  6
ByLayer
 62
  256
370
   -1
100
AcDbCircle
 10
3
 20
20
 40
2
100
AcDbArc
 50
0
 51
90
  0
LINE
  5
257
100
AcDbEntity
  8
schema e-main body middle
  6
ByLayer
 62
  256
370
   -1
100
AcDbLine
 10
5
 20
20
 11
5
 21
14
  0
LINE
  5
258
100
AcDbEntity
  8
schema e-main body middle
  6
ByLayer
 62
  256
370
   -1
100
AcDbLine
 10
3
 20
12
 11
-3
 21
12
  0
ARC
  5
259
100
AcDbEntity
  8
schema e-main body middle
  6
ByLayer
 62
  256
370
   -1
100
AcDbCircle
 10
3
 20
14
 40
2
100
AcDbArc
 50
270
 51
0
  0
LWPOLYLINE
  5
25A
100
AcDbEntity
  8
vtx
  6
ByLayer
 62
  256
370
   -1
100
AcDbPolyline
 90
    4
 70
    1
 43
0
 10
-13
 20
40
 10
13
 20
40
 10
13
 20
72
 10
-13
 20
72
  0
LWPOLYLINE
  5
25B
100
AcDbEntity
  8
vtx
  6
ByLayer
 62
  256
370
   -1
100
AcDbPolyline
 90
    4
 70
    1
 43
0
 10
13
 20
40
 10
4
 20
40
 10
4
 20
31
 10
13
 20
31
  0
LINE
  5
25C
100
AcDbEntity
  8
schema e-esc folded
  6
ByLayer
 62
    1
370
   -1
100
AcDbLine
 10
29.65305383118171
 20
-53.6456536545574
 11
12.81157820792858
 21
-51.32947170329126
  0
LINE
  5
25D
100
AcDbEntity
  8
schema e-esc folded
  6
ByLayer
 62
    1
370
   -1
100
AcDbLine
 10
12.81157820792858
 20
-51.32947170329126
 11
17.58018810759411
 21
-16.65584542012309
  0
LINE
  5
25E
100
AcDbEntity
  8
schema e-esc folded
  6
ByLayer
 62
    1
370
   -1
100
AcDbLine
 10
29.65305383118171
 20
-53.6456536545574
 11
34.42166373084724
 21
-18.97202737138921
  0
LINE
  5
25F
100
AcDbEntity
  8
schema e-esc folded
  6
ByLayer
 62
    1
370
   -1
100
AcDbLine
 10
34.42166373084724
 20
-18.97202737138921
 11
17.58018810759411
 21
-16.65584542012309
  0
LINE
  5
260
100
AcDbEntity
  8
schema e-esc folded
  6
ByLayer
 62
    1
370
   -1
100
AcDbLine
 10
-29.65305383118171
 20
-53.64565365455739
 11
-12.81157820792858
 21
-51.32947170329126
  0
LINE
  5
261
100
AcDbEntity
  8
schema e-esc folded
  6
ByLayer
 62
    1
370
   -1
100
AcDbLine
 10
-12.81157820792858
 20
-51.32947170329126
 11
-17.58018810759411
 21
-16.65584542012311
  0
LINE
  5
262
100
AcDbEntity
  8
schema e-esc folded
  6
ByLayer
 62
    1
370
   -1
100
AcDbLine
 10
-29.65305383118171
 20
-53.64565365455739
 11
-34.42166373084724
 21
-18.97202737138923
  0
LINE
  5
263
100
AcDbEntity
  8
schema e-esc folded
  6
ByLayer
 62
    1
370
   -1
100
AcDbLine
 10
-34.42166373084724
 20
-18.97202737138923
 11
-17.58018810759411
 21
-16.65584542012311
  0
LINE
  5
264
100
AcDbEntity
  8
tail top
  6
ByLayer
 62
  256
370
   -1
100
AcDbLine
 10
-8.999999999999996
 20
-95.5
 11
-14
 21
-107.1148351928653
  0
LINE
  5
265
100
AcDbEntity
  8
tail top
  6
ByLayer
 62
  256
370
   -1
100
AcDbLine
 10
13.77190977727576
 20
-106.5557169409107
 11
8.999999999999991
 21
-95.5
  0
LINE
  5
266
100
AcDbEntity
  8
tail top
  6
ByLayer
 62
  256
370
   -1
100
AcDbLine
 10
-8.999999999999996
 20
-95.5
 11
8.999999999999991
 21
-95.5
  0
LINE
  5
267
100
AcDbEntity
  8
tail top
  6
ByLayer
 62
  256
370
   -1
100
AcDbLine
 10
-13.77190977727578
 20
-118.4442830590893
 11
-8.999999999999996
 21
-129.5
  0
LINE
  5
268
100
AcDbEntity
  8
tail top
  6
ByLayer
 62
  256
370
   -1
100
AcDbLine
 10
13.77190977727576
 20
-118.4442830590893
 11
8.999999999999996
 21
-129.5
  0
LINE
  5
269
100
AcDbEntity
  8
tail top
  6
ByLayer
 62
  256
370
   -1
100
AcDbLine
 10
-8.999999999999996
 20
-129.5
 11
8.999999999999996
 21
-129.5
  0
ARC
  5
26A
100
AcDbEntity
  8
tail top
  6
ByLayer
 62
  256
370
   -1
100
AcDbCircle
 10
-2.066523222075262e-014
 20
-112.5
 40
15
100
AcDbArc
 50
154.4572667288449
 51
203.3461738761322
  0
ARC
  5
26B
100
AcDbEntity
  8
tail top
  6
ByLayer
 62
  256
370
   -1
100
AcDbCircle
 10
-2.066523222075262e-014
 20
-112.5
 40
15
100
AcDbArc
 50
336.653826123868
 51
383.3461771089396
  0
LINE
  5
26C
100
AcDbEntity
  8
tail top
  6
ByLayer
 62
  136
420
32896
370
   -1
100
AcDbLine
 10
-6.717514421272213
 20
-182.7824855787278
 11
-6.717514421272202
 21
27.2175144212722
  0
LINE
  5
26D
100
AcDbEntity
  8
tail top
  6
ByLayer
 62
  136
420
32896
370
   -1
100
AcDbLine
 10
6.717514421272213
 20
-182.7824855787278
 11
6.717514421272202
 21
27.2175144212722
  0
LINE
  5
26E
100
AcDbEntity
  8
tail top
  6
ByLayer
 62
  136
420
32896
370
   -1
100
AcDbLine
 10
-15
 20
22
 11
-15.00000000000004
 21
-182
  0
LINE
  5
26F
100
AcDbEntity
  8
tail top
  6
ByLayer
 62
  136
420
32896
370
   -1
100
AcDbLine
 10
15
 20
22
 11
15.00000000000004
 21
-182
  0
LINE
  5
270
100
AcDbEntity
  8
tail top
  6
ByLayer
 62
  136
420
32896
370
   -1
100
AcDbLine
 10
-9.217514421272213
 20
-182.7824855787278
 11
-9.217514421272202
 21
27.2175144212722
  0
LINE
  5
271
100
AcDbEntity
  8
tail top
  6
ByLayer
 62
  136
420
32896
370
   -1
100
AcDbLine
 10
9.217514421272213
 20
-182.7824855787278
 11
9.217514421272202
 21
27.2175144212722
  0
LINE
  5
272
100
AcDbEntity
  8
tail side
  6
ByLayer
 62
    2
370
   -1
100
AcDbLine
 10
-20.00000000000002
 20
-109.5
 11
29.99999999999998
 21
-109.5
  0
LINE
  5
273
100
AcDbEntity
  8
tail side
  6
ByLayer
 62
    2
370
   -1
100
AcDbLine
 10
-20.00000000000002
 20
-115.5
 11
29.99999999999998
 21
-115.5
  0
LINE
  5
274
100
AcDbEntity
  8
tail side
  6
ByLayer
 62
    2
370
   -1
100
AcDbLine
 10
-3.499999999999997
 20
-95.5
 11
-3.5
 21
-115.5
  0
LINE
  5
275
100
AcDbEntity
  8
tail side
  6
ByLayer
 62
    2
370
   -1
100
AcDbLine
 10
3.499999999999997
 20
-95.5
 11
3.5
 21
-115.5
  0
LINE
  5
276
100
AcDbEntity
  8
tail side
  6
ByLayer
 62
   56
420
8421376
370
   -1
100
AcDbLine
 10
30
 20
-40
 11
30
 21
-180
  0
LINE
  5
277
100
AcDbEntity
  8
tail side
  6
ByLayer
 62
    1
370
   -1
100
AcDbLine
 10
40.5
 20
-40
 11
40.5
 21
-180
  0
LINE
  5
278
100
AcDbEntity
  8
tail side
  6
ByLayer
 62
    5
370
   -1
100
AcDbLine
 10
49.7
 20
-93.5
 11
49.7
 21
-95.5
  0
LINE
  5
279
100
AcDbEntity
  8
servo
  6
ByLayer
 62
    5
370
   -1
100
AcDbLine
 10
4
 20
-93.5
 11
4
 21
-89.5
  0
LINE
  5
27A
100
AcDbEntity
  8
servo
  6
ByLayer
 62
    5
370
   -1
100
AcDbLine
 10
-4
 20
-89.5
 11
-4
 21
-93.5
  0
LINE
  5
27B
100
AcDbEntity
  8
tail side
  6
ByLayer
 62
    5
370
   -1
100
AcDbLine
 10
36
 20
-93.5
 11
36
 21
-95.5
  0
LINE
  5
27C
100
AcDbEntity
  8
tail side
  6
ByLayer
 62
    5
370
   -1
100
AcDbLine
 10
36
 20
-93.5
 11
49.7
 21
-93.5
  0
LINE
  5
27D
100
AcDbEntity
  8
tail side
  6
ByLayer
 62
    5
370
   -1
100
AcDbLine
 10
36
 20
-95.5
 11
49.7
 21
-95.5
  0
LINE
  5
27E
100
AcDbEntity
  8
tail side
  6
ByLayer
 62
    5
370
   -1
100
AcDbLine
 10
44.5
 20
-89.5
 11
44.5
 21
-93.5
  0
LINE
  5
27F
100
AcDbEntity
  8
tail side
  6
ByLayer
 62
    5
370
   -1
100
AcDbLine
 10
36.5
 20
-89.5
 11
36.5
 21
-93.5
  0
LINE
  5
280
100
AcDbEntity
  8
tail side
  6
ByLayer
 62
    5
370
   -1
100
AcDbLine
 10
34.5
 20
-63
 11
57.5
 21
-63
  0
LINE
  5
281
100
AcDbEntity
  8
tail side
  6
ByLayer
 62
    5
370
   -1
100
AcDbLine
 10
34.5
 20
-89.5
 11
57.5
 21
-89.5
  0
LINE
  5
282
100
AcDbEntity
  8
tail side
  6
ByLayer
 62
    5
370
   -1
100
AcDbLine
 10
34.5
 20
-84
 11
34.5
 21
-89.5
  0
LINE
  5
283
100
AcDbEntity
  8
tail side
  6
ByLayer
 62
    5
370
   -1
100
AcDbLine
 10
34.5
 20
-63
 11
34.5
 21
-82.5
  0
LINE
  5
284
100
AcDbEntity
  8
tail side
  6
ByLayer
 62
    5
370
   -1
100
AcDbLine
 10
30
 20
-82.5
 11
30
 21
-84
  0
LINE
  5
285
100
AcDbEntity
  8
tail side
  6
ByLayer
 62
    5
370
   -1
100
AcDbLine
 10
30
 20
-82.5
 11
34.5
 21
-82.5
  0
LINE
  5
286
100
AcDbEntity
  8
tail side
  6
ByLayer
 62
    5
370
   -1
100
AcDbLine
 10
30
 20
-84
 11
34.5
 21
-84
  0
LINE
  5
287
100
AcDbEntity
  8
tail side
  6
ByLayer
 62
    5
370
   -1
100
AcDbLine
 10
57.5
 20
-63
 11
57.5
 21
-82.5
  0
LINE
  5
288
100
AcDbEntity
  8
tail side
  6
ByLayer
 62
    5
370
   -1
100
AcDbLine
 10
57.5
 20
-84
 11
57.5
 21
-89.5
  0
LINE
  5
289
100
AcDbEntity
  8
tail side
  6
ByLayer
 62
    5
370
   -1
100
AcDbLine
 10
57.5
 20
-82.5
 11
62
 21
-82.5
  0
LINE
  5
28A
100
AcDbEntity
  8
tail side
  6
ByLayer
 62
    5
370
   -1
100
AcDbLine
 10
62
 20
-82.5
 11
62
 21
-84
  0
LINE
  5
28B
100
AcDbEntity
  8
tail side
  6
ByLayer
 62
    5
370
   -1
100
AcDbLine
 10
57.5
 20
-84
 11
62
 21
-84
  0
LINE
  5
28C
100
AcDbEntity
  8
tail side
  6
ByLayer
 62
  256
370
   -1
100
AcDbLine
 10
39
 20
-40
 11
39
 21
-180
  0
LINE
  5
28D
100
AcDbEntity
  8
tail side
  6
ByLayer
 62
  256
370
   -1
100
AcDbLine
 10
42
 20
-40
 11
42
 21
-180
  0
LINE
  5
28E
100
AcDbEntity
  8
tail side
  6
ByLayer
 62
    2
370
   -1
100
AcDbLine
 10
5.999999999999979
 20
-95.5
 11
36
 21
-95.5
  0
LINE
  5
28F
100
AcDbEntity
  8
tail side
  6
ByLayer
 62
  216
420
8388736
370
   -1
100
AcDbLine
 10
52
 20
-95.5
 11
52
 21
-129.5
  0
LINE
  5
290
100
AcDbEntity
  8
tail side
  6
ByLayer
 62
  216
420
8388736
370
   -1
100
AcDbLine
 10
52
 20
-95.5
 11
36
 21
-95.5
  0
LINE
  5
291
100
AcDbEntity
  8
tail side
  6
ByLayer
 62
    1
370
   -1
100
AcDbLine
 10
47.2175
 20
-40.00000000000001
 11
47.2175
 21
-180
  0
LINE
  5
292
100
AcDbEntity
  8
tail side
  6
ByLayer
 62
    2
370
   -1
100
AcDbLine
 10
8.999999999999996
 20
-129.5
 11
36
 21
-129.5
  0
LINE
  5
293
100
AcDbEntity
  8
tail side
  6
ByLayer
 62
  216
420
8388736
370
   -1
100
AcDbLine
 10
36
 20
-129.5
 11
52
 21
-129.5
  0
CIRCLE
  5
294
100
AcDbEntity
  8
servo arm demo 0deg
  6
ByLayer
 62
  256
370
   -1
100
AcDbCircle
 10
0
 20
10.5
 40
1.25
  0
CIRCLE
  5
295
100
AcDbEntity
  8
servo arm demo 0deg
  6
ByLayer
 62
  256
370
   -1
100
AcDbCircle
 10
0
 20
17.5
 40
0.5
  0
CIRCLE
  5
296
100
AcDbEntity
  8
servo arm demo 0deg
  6
ByLayer
 62
  256
370
   -1
100
AcDbCircle
 10
5.816880180656292e-016
 20
20
 40
0.5
  0
CIRCLE
  5
297
100
AcDbEntity
  8
servo arm demo 0deg
  6
ByLayer
 62
  256
370
   -1
100
AcDbCircle
 10
0
 20
10.5
 40
4
  0
ARC
  5
298
100
AcDbEntity
  8
servo arm demo 0deg
  6
ByLayer
 62
  256
370
   -1
100
AcDbCircle
 10
0
 20
20
 40
2.5
100
AcDbArc
 50
0
 51
90
  0
LINE
  5
299
100
AcDbEntity
  8
servo arm demo 0deg
  6
ByLayer
 62
  256
370
   -1
100
AcDbLine
 10
0
 20
22.5
 11
0
 21
22.5
  0
ARC
  5
29A
100
AcDbEntity
  8
servo arm demo 0deg
  6
ByLayer
 62
  256
370
   -1
100
AcDbCircle
 10
0
 20
20
 40
2.5
100
AcDbArc
 50
90
 51
180
  0
LINE
  5
29B
100
AcDbEntity
  8
servo arm demo 0deg
  6
ByLayer
 62
  256
370
   -1
100
AcDbLine
 10
-2.5
 20
20
 11
-2.5
 21
13.62249899919919
  0
LINE
  5
29C
100
AcDbEntity
  8
servo arm demo 0deg
  6
ByLayer
 62
  256
370
   -1
100
AcDbLine
 10
2.5
 20
13.62249899919919
 11
2.5
 21
20
  0
LINE
  5
29D
100
AcDbEntity
  8
servo arm demo 0deg
  6
ByLayer
 62
  256
370
   -1
100
AcDbLine
 10
4
 20
13
 11
3.122498999199199
 21
13
  0
LINE
  5
29E
100
AcDbEntity
  8
servo arm demo 0deg
  6
ByLayer
 62
  256
370
   -1
100
AcDbLine
 10
4
 20
13
 11
4
 21
8
  0
LINE
  5
29F
100
AcDbEntity
  8
servo arm demo 0deg
  6
ByLayer
 62
  256
370
   -1
100
AcDbLine
 10
3.122498999199199
 20
8
 11
4
 21
8
  0
LINE
  5
2A0
100
AcDbEntity
  8
servo arm demo 0deg
  6
ByLayer
 62
  256
370
   -1
100
AcDbLine
 10
-4
 20
8
 11
-3.122498999199199
 21
8
  0
LINE
  5
2A1
100
AcDbEntity
  8
servo arm demo 0deg
  6
ByLayer
 62
  256
370
   -1
100
AcDbLine
 10
-4
 20
13
 11
-4
 21
8
  0
LINE
  5
2A2
100
AcDbEntity
  8
servo arm demo 0deg
  6
ByLayer
 62
  256
370
   -1
100
AcDbLine
 10
-3.122498999199199
 20
13
 11
-4
 21
13
  0
LINE
  5
2A3
100
AcDbEntity
  8
servo arm demo 0deg
  6
ByLayer
 62
  256
370
   -1
100
AcDbLine
 10
-2.5
 20
7.377501000800805
 11
-2.5
 21
6.5
  0
LINE
  5
2A4
100
AcDbEntity
  8
servo arm demo 0deg
  6
ByLayer
 62
  256
370
   -1
100
AcDbLine
 10
-2.5
 20
6.5
 11
2.5
 21
6.5
  0
LINE
  5
2A5
100
AcDbEntity
  8
servo arm demo 0deg
  6
ByLayer
 62
  256
370
   -1
100
AcDbLine
 10
2.5
 20
6.5
 11
2.5
 21
7.377501000800805
  0
LINE
  5
2A6
100
AcDbEntity
  8
tail back
  6
ByLayer
 62
    1
370
   -1
100
AcDbLine
 10
-10
 20
4
 11
10
 21
4
  0
LINE
  5
2A7
100
AcDbEntity
  8
tail back
  6
ByLayer
 62
    1
370
   -1
100
AcDbLine
 10
-10
 20
4
 11
-10
 21
0
  0
LINE
  5
2A8
100
AcDbEntity
  8
tail back
  6
ByLayer
 62
    1
370
   -1
100
AcDbLine
 10
10
 20
4
 11
10
 21
0
  0
ARC
  5
2A9
100
AcDbEntity
  8
tail back
  6
ByLayer
 62
    1
370
   -1
100
AcDbCircle
 10
0
 20
10.5
 40
6
100
AcDbArc
 50
26.77306632172342
 51
153.2269336782766
  0
LINE
  5
2AA
100
AcDbEntity
  8
tail back
  6
ByLayer
 62
    1
370
   -1
100
AcDbLine
 10
-5.356785929685215
 20
13.2027475841311
 11
-10
 21
4
  0
LINE
  5
2AB
100
AcDbEntity
  8
tail back
  6
ByLayer
 62
    1
370
   -1
100
AcDbLine
 10
5.356785929685215
 20
13.2027475841311
 11
10
 21
4
  0
LINE
  5
2AC
100
AcDbEntity
  8
tail side
  6
ByLayer
 62
    5
370
   -1
100
AcDbLine
 10
31
 20
-68.5
 11
31
 21
-72
  0
LINE
  5
2AD
100
AcDbEntity
  8
tail side
  6
ByLayer
 62
    5
370
   -1
100
AcDbLine
 10
31
 20
-68.5
 11
34.5
 21
-68.5
  0
LINE
  5
2AE
100
AcDbEntity
  8
tail side
  6
ByLayer
 62
    5
370
   -1
100
AcDbLine
 10
31
 20
-72
 11
34.5
 21
-72
  0
LINE
  5
2AF
100
AcDbEntity
  8
tail side
  6
ByLayer
 62
  216
420
8388736
370
   -1
100
AcDbLine
 10
36
 20
-95.5
 11
36
 21
-103.5
  0
LINE
  5
2B0
100
AcDbEntity
  8
tail side
  6
ByLayer
 62
  216
420
8388736
370
   -1
100
AcDbLine
 10
36
 20
-121.5
 11
36
 21
-129.5
  0
LINE
  5
2B1
100
AcDbEntity
  8
tail side
  6
ByLayer
 62
  216
420
8388736
370
   -1
100
AcDbLine
 10
48
 20
-103.5
 11
48
 21
-121.5
  0
LINE
  5
2B2
100
AcDbEntity
  8
tail side
  6
ByLayer
 62
  216
420
8388736
370
   -1
100
AcDbLine
 10
36
 20
-103.5
 11
48
 21
-103.5
  0
LINE
  5
2B3
100
AcDbEntity
  8
tail side
  6
ByLayer
 62
  216
420
8388736
370
   -1
100
AcDbLine
 10
36
 20
-121.5
 11
48
 21
-121.5
  0
LINE
  5
2B4
100
AcDbEntity
  8
tail mount bottom
  6
ByLayer
 62
  256
370
   -1
100
AcDbLine
 10
0
 20
-100
 11
0
 21
-130
  0
LINE
  5
2B5
100
AcDbEntity
  8
tail mount bottom
  6
ByLayer
 62
  256
370
   -1
100
AcDbLine
 10
-6
 20
-104
 11
-6
 21
-121
  0
LINE
  5
2B6
100
AcDbEntity
  8
tail mount bottom
  6
ByLayer
 62
  256
370
   -1
100
AcDbLine
 10
-6
 20
-121
 11
6
 21
-121
  0
LINE
  5
2B7
100
AcDbEntity
  8
tail mount bottom
  6
ByLayer
 62
  256
370
   -1
100
AcDbLine
 10
-6
 20
-104
 11
6
 21
-104
  0
LINE
  5
2B8
100
AcDbEntity
  8
tail mount bottom
  6
ByLayer
 62
  256
370
   -1
100
AcDbLine
 10
6
 20
-104
 11
6
 21
-121
  0
LINE
  5
2B9
100
AcDbEntity
  8
tail mount bottom
  6
ByLayer
 62
  256
370
   -1
100
AcDbLine
 10
30
 20
-104
 11
30
 21
-121
  0
LINE
  5
2BA
100
AcDbEntity
  8
tail mount bottom
  6
ByLayer
 62
  256
370
   -1
100
AcDbLine
 10
30
 20
-104
 11
46.5
 21
-104
  0
LINE
  5
2BB
100
AcDbEntity
  8
tail mount bottom
  6
ByLayer
 62
  256
370
   -1
100
AcDbLine
 10
46.5
 20
-121
 11
30
 21
-121
  0
LINE
  5
2BC
100
AcDbEntity
  8
tail mount bottom
  6
ByLayer
 62
  256
370
   -1
100
AcDbLine
 10
46.5
 20
-104
 11
46.5
 21
-121
  0
CIRCLE
  5
2BD
100
AcDbEntity
  8
tail mount bottom
  6
ByLayer
 62
  256
370
   -1
100
AcDbCircle
 10
8.999999999999995
 20
-112.5
 40
1.5
  0
CIRCLE
  5
2BE
100
AcDbEntity
  8
tail mount bottom
  6
ByLayer
 62
  256
370
   -1
100
AcDbCircle
 10
-8.999999999999996
 20
-112.5
 40
1.5
  0
LINE
  5
2BF
100
AcDbEntity
  8
tail top 2
  6
ByLayer
 62
  256
370
   -1
100
AcDbLine
 10
-8.999999999999996
 20
-93
 11
8.999999999999991
 21
-93
  0
LINE
  5
2C0
100
AcDbEntity
  8
tail top 2
  6
ByLayer
 62
  256
370
   -1
100
AcDbLine
 10
-8.999999999999998
 20
-134.5
 11
8.999999999999995
 21
-134.5
  0
LINE
  5
2C1
100
AcDbEntity
  8
tail top 2
  6
ByLayer
 62
  256
370
   -1
100
AcDbLine
 10
-14
 20
-107.0991802859059
 11
-8.999999999999996
 21
-93
  0
LINE
  5
2C2
100
AcDbEntity
  8
tail top 2
  6
ByLayer
 62
  256
370
   -1
100
AcDbLine
 10
-14
 20
-107.0991802859059
 11
-14
 21
-118.0213078569866
  0
LINE
  5
2C3
100
AcDbEntity
  8
tail top 2
  6
ByLayer
 62
  256
370
   -1
100
AcDbLine
 10
-14
 20
-118.0213078569866
 11
-8.999999999999998
 21
-134.5
  0
LINE
  5
2C4
100
AcDbEntity
  8
tail top 2
  6
ByLayer
 62
  256
370
   -1
100
AcDbLine
 10
14
 20
-118.0213078569865
 11
8.999999999999995
 21
-134.5
  0
LINE
  5
2C5
100
AcDbEntity
  8
tail top 2
  6
ByLayer
 62
  256
370
   -1
100
AcDbLine
 10
14
 20
-107.099180285906
 11
8.999999999999991
 21
-93
  0
LINE
  5
2C6
100
AcDbEntity
  8
tail top 2
  6
ByLayer
 62
  256
370
   -1
100
AcDbLine
 10
14
 20
-107.099180285906
 11
14
 21
-118.0213078569865
  0
LINE
  5
2C7
100
AcDbEntity
  8
tail top 2
  6
ByLayer
 62
  256
370
   -1
100
AcDbLine
 10
-8.999999999999975
 20
19.5
 11
9.000000000000012
 21
19.5
  0
LINE
  5
2C8
100
AcDbEntity
  8
tail top 2
  6
ByLayer
 62
  256
370
   -1
100
AcDbLine
 10
-8.999999999999977
 20
-22
 11
9.000000000000016
 21
-22
  0
LINE
  5
2C9
100
AcDbEntity
  8
tail top 2
  6
ByLayer
 62
  256
370
   -1
100
AcDbLine
 10
-13.99999999999998
 20
5.400819714094126
 11
-8.999999999999975
 21
19.5
  0
LINE
  5
2CA
100
AcDbEntity
  8
tail top 2
  6
ByLayer
 62
  256
370
   -1
100
AcDbLine
 10
-13.99999999999998
 20
5.400819714094126
 11
-13.99999999999998
 21
-5.52130785698661
  0
LINE
  5
2CB
100
AcDbEntity
  8
tail top 2
  6
ByLayer
 62
  256
370
   -1
100
AcDbLine
 10
-13.99999999999998
 20
-5.52130785698661
 11
-8.999999999999977
 21
-22
  0
LINE
  5
2CC
100
AcDbEntity
  8
tail top 2
  6
ByLayer
 62
  256
370
   -1
100
AcDbLine
 10
14.00000000000002
 20
-5.52130785698651
 11
9.000000000000016
 21
-22
  0
LINE
  5
2CD
100
AcDbEntity
  8
tail top 2
  6
ByLayer
 62
  256
370
   -1
100
AcDbLine
 10
14.00000000000002
 20
5.400819714093998
 11
9.000000000000012
 21
19.5
  0
LINE
  5
2CE
100
AcDbEntity
  8
tail top 2
  6
ByLayer
 62
  256
370
   -1
100
AcDbLine
 10
14.00000000000002
 20
5.400819714093998
 11
14.00000000000002
 21
-5.52130785698651
  0
LINE
  5
2CF
100
AcDbEntity
  8
tail back
  6
ByLayer
 62
    5
370
   -1
100
AcDbLine
 10
-15
 20
22.5
 11
15
 21
22.5
  0
LINE
  5
2D0
100
AcDbEntity
  8
tail back
  6
ByLayer
 62
    5
370
   -1
100
AcDbLine
 10
15
 20
22.5
 11
15
 21
18
  0
LINE
  5
2D1
100
AcDbEntity
  8
tail back
  6
ByLayer
 62
    5
370
   -1
100
AcDbLine
 10
-15
 20
22.5
 11
-15
 21
18
  0
LWPOLYLINE
  5
2D2
100
AcDbEntity
  8
tail top 2
  6
ByLayer
 62
  256
370
   -1
100
AcDbPolyline
 90
    8
 70
    1
 43
0
 10
8.000000000000021
 20
-1.5
 10
9.500000000000018
 20
-1.5
 42
0.4142135623730938
 10
11.00000000000001
 20
1.084202172483532e-019
 10
11.00000000000002
 20
6.318188160159279e-016
 42
0.414213562373095
 10
9.500000000000021
 20
1.5
 10
8.000000000000021
 20
1.5
 42
0.414213562373092
 10
6.500000000000006
 20
4.057355579985425e-016
 10
6.500000000000021
 20
5.167578604609036e-016
 42
0.414213562373095
  0
LWPOLYLINE
  5
2D3
100
AcDbEntity
  8
tail top 2
  6
ByLayer
 62
  256
370
   -1
100
AcDbPolyline
 90
    8
 70
    1
 43
0
 10
-8.000000000000007
 20
1.5
 10
-9.500000000000007
 20
1.500000000000001
 42
0.4142135623730965
 10
-10.99999999999999
 20
1.293913977698619e-015
 10
-11.00000000000001
 20
9.608470703109644e-016
 42
0.4142135623730948
 10
-9.500000000000007
 20
-1.5
 10
-8.000000000000011
 20
-1.5
 42
0.4142135623730935
 10
-6.499999999999992
 20
-3.673819061468347e-016
 10
-6.500000000000007
 20
1.084202172485997e-019
 42
0.414213562373095
  0
LINE
  5
2D4
100
AcDbEntity
  8
tail back 2
  6
ByLayer
 62
  256
370
   -1
100
AcDbLine
 10
-5.764466094067259
 20
19.8
 11
-0.5644660940672609
 21
14.6
  0
LINE
  5
2D5
100
AcDbEntity
  8
tail back 2
  6
ByLayer
 62
  256
370
   -1
100
AcDbLine
 10
-0.5644660940672609
 20
14.6
 11
0.5644660940672609
 21
14.6
  0
LINE
  5
2D6
100
AcDbEntity
  8
tail back 2
  6
ByLayer
 62
  256
370
   -1
100
AcDbLine
 10
5.764466094067259
 20
19.8
 11
0.5644660940672609
 21
14.6
  0
LINE
  5
2D7
100
AcDbEntity
  8
tail back 2
  6
ByLayer
 62
  256
370
   -1
100
AcDbLine
 10
5.764466094067259
 20
19.8
 11
20
 21
19.8
  0
LINE
  5
2D8
100
AcDbEntity
  8
tail back 2
  6
ByLayer
 62
  256
370
   -1
100
AcDbLine
 10
-5.764466094067259
 20
19.8
 11
-20
 21
19.8
  0
LINE
  5
2D9
100
AcDbEntity
  8
tail back 2
  6
ByLayer
 62
  256
370
   -1
100
AcDbLine
 10
-20
 20
0
 11
20
 21
0
  0
LINE
  5
2DA
100
AcDbEntity
  8
tail back 2
  6
ByLayer
 62
  256
370
   -1
100
AcDbLine
 10
20
 20
0
 11
20
 21
19.8
  0
LINE
  5
2DB
100
AcDbEntity
  8
tail back 2
  6
ByLayer
 62
  256
370
   -1
100
AcDbLine
 10
-20
 20
0
 11
-20
 21
19.8
  0
LINE
  5
2DC
100
AcDbEntity
  8
bounding box
  6
ByLayer
 62
   16
420
8388608
370
   -1
100
AcDbLine
 10
30
 20
26.95666296786937
 11
30
 21
-66.95666296786949
  0
LINE
  5
2DD
100
AcDbEntity
  8
bounding box
  6
ByLayer
 62
   16
420
8388608
370
   -1
100
AcDbLine
 10
-30
 20
26.95666296786938
 11
-30
 21
-66.95666296786941
  0
LINE
  5
2DE
100
AcDbEntity
  8
bounding box
  6
ByLayer
 62
   16
420
8388608
370
   -1
100
AcDbLine
 10
-30
 20
26.95666296786938
 11
-16.80486199194432
 21
86
  0
LINE
  5
2DF
100
AcDbEntity
  8
bounding box
  6
ByLayer
 62
   16
420
8388608
370
   -1
100
AcDbLine
 10
30
 20
-66.95666296786949
 11
8.536018616232381
 21
-163
  0
LINE
  5
2E0
100
AcDbEntity
  8
bounding box
  6
ByLayer
 62
   16
420
8388608
370
   -1
100
AcDbLine
 10
-8.536018616232411
 20
-163
 11
8.536018616232381
 21
-163
  0
LINE
  5
2E1
100
AcDbEntity
  8
bounding box
  6
ByLayer
 62
   16
420
8388608
370
   -1
100
AcDbLine
 10
-30
 20
-66.95666296786941
 11
-8.536018616232411
 21
-163
  0
LINE
  5
2E2
100
AcDbEntity
  8
bounding box
  6
ByLayer
 62
   16
420
8388608
370
   -1
100
AcDbLine
 10
-16.80486199194432
 20
86
 11
16.80486199194432
 21
86
  0
LINE
  5
2E3
100
AcDbEntity
  8
bounding box
  6
ByLayer
 62
   16
420
8388608
370
   -1
100
AcDbLine
 10
40
 20
-17.78961933405462
 11
16.80486199194432
 21
86
  0
LINE
  5
2E4
100
AcDbEntity
  8
schema e-arm folded v3
  6
ByLayer
 62
  256
370
   -1
100
AcDbLine
 10
38.99999999999998
 20
-17.899999042616
 11
38.99999999999994
 21
-82.100000957384
  0
LINE
  5
2E5
100
AcDbEntity
  8
schema e-arm folded v3
  6
ByLayer
 62
    1
370
   -1
100
AcDbLine
 10
21.49999999999998
 20
-19.88683379672002
 11
38.49999999999998
 21
-19.88683379672002
  0
LINE
  5
2E6
100
AcDbEntity
  8
schema e-arm folded v3
  6
ByLayer
 62
    1
370
   -1
100
AcDbLine
 10
21.49999999999998
 20
-19.88683379672002
 11
21.49999999999995
 21
-54.88683379672003
  0
LINE
  5
2E7
100
AcDbEntity
  8
schema e-arm folded v3
  6
ByLayer
 62
    1
370
   -1
100
AcDbLine
 10
38.49999999999998
 20
-19.88683379672002
 11
38.49999999999996
 21
-54.88683379672003
  0
LINE
  5
2E8
100
AcDbEntity
  8
schema e-arm folded v3
  6
ByLayer
 62
    1
370
   -1
100
AcDbLine
 10
21.49999999999995
 20
-54.88683379672003
 11
38.49999999999996
 21
-54.88683379672003
  0
LINE
  5
2E9
100
AcDbEntity
  8
schema e-arm folded v3
  6
ByLayer
 62
  256
370
   -1
100
AcDbLine
 10
17.82824892240681
 20
-90.19409306293427
 11
32.36436551358173
 21
-95.91357511851771
  0
LINE
  5
2EA
100
AcDbEntity
  8
schema e-arm folded v3
  6
ByLayer
 62
  256
370
   -1
100
AcDbLine
 10
38.99999999999994
 20
-82.100000957384
 11
36.39057519981182
 21
-93.7762068328699
  0
ARC
  5
2EB
100
AcDbEntity
  8
schema e-arm folded v3
  6
ByLayer
 62
  256
370
   -1
100
AcDbCircle
 10
33.46279734862974
 20
-93.12190044124009
 40
3
100
AcDbArc
 50
248.5219999999999
 51
347.4024135944657
  0
ARC
  5
2EC
100
AcDbEntity
  8
schema e-arm folded v3
  6
ByLayer
 62
  256
370
   -1
100
AcDbCircle
 10
23.314
 20
-76.2332
 40
15
100
AcDbArc
 50
111.4506682445947
 51
248.5483013316735
  0
ARC
  5
2ED
100
AcDbEntity
  8
schema e-arm folded v3
  6
ByLayer
 62
  256
370
   -1
100
AcDbCircle
 10
15.99999999999995
 20
-57.61854437600314
 40
5
100
AcDbArc
 50
291.4506682445947
 51
359.9999999999999
  0
CIRCLE
  5
2EE
100
AcDbEntity
  8
schema e-arm folded v3
  6
ByLayer
 62
  256
370
   -1
100
AcDbCircle
 10
25.19315252239029
 20
2.615439001873511
 40
1.5
  0
ARC
  5
2EF
100
AcDbEntity
  8
schema e-main body base
  6
ByLayer
 62
  256
370
   -1
100
AcDbCircle
 10
15
 20
4.880584006849137
 40
15
100
AcDbArc
 50
334.942384581697
 51
0
  0
LINE
  5
2F0
100
AcDbEntity
  8
schema e-main body base
  6
ByLayer
 62
  256
370
   -1
100
AcDbLine
 10
29.63888925591041
 20
23.98749135884469
 11
17.75107931727316
 21
77.18102130543271
  0
LINE
  5
2F1
100
AcDbEntity
  8
schema e-main body base
  6
ByLayer
 62
  256
370
   -1
100
AcDbLine
 10
30
 20
20.71595940069563
 11
30
 21
4.880584006849137
  0
ARC
  5
2F2
100
AcDbEntity
  8
schema e-main body base
  6
ByLayer
 62
  256
370
   -1
100
AcDbCircle
 10
15
 20
20.71595940069563
 40
15
100
AcDbArc
 50
0
 51
12.59758640553419
  0
LINE
  5
2F3
100
AcDbEntity
  8
schema e-main body base
  6
ByLayer
 62
  256
370
   -1
100
AcDbLine
 10
21.82327091430177
 20
-15.94186431533874
 11
28.58823529411764
 21
-1.472357169621459
  0
ARC
  5
2F4
100
AcDbEntity
  8
schema e-main body base
  6
ByLayer
 62
  256
370
   -1
100
AcDbCircle
 10
35.4115062084194
 20
-22.29480549180933
 40
15
100
AcDbArc
 50
154.942384581697
 51
167.4711922908485
  0
CIRCLE
  5
2F5
100
AcDbEntity
  8
schema e-main body base
  6
ByLayer
 62
  256
370
   -1
100
AcDbCircle
 10
20.7119
 20
41.0073
 40
1.5
  0
ARC
  5
2F6
100
AcDbEntity
  8
schema e-arm folded v3
  6
ByLayer
 62
  256
370
   -1
100
AcDbCircle
 10
15.25
 20
15.25
 40
10
100
AcDbArc
 50
83.76646138248418
 51
248.522
  0
LINE
  5
2F7
100
AcDbEntity
  8
schema e-arm deployed v3
  6
ByLayer
 62
  256
370
   -1
100
AcDbLine
 10
37.40208559888612
 20
49.48842928852115
 11
97.14392547443025
 21
72.99487125962901
  0
LINE
  5
2F8
100
AcDbEntity
  8
schema e-arm deployed v3
  6
ByLayer
 62
    1
370
   -1
100
AcDbLine
 10
45.65847006032188
 20
33.93112785269759
 11
39.43402299504989
 21
49.75061769060409
  0
LINE
  5
2F9
100
AcDbEntity
  8
schema e-arm deployed v3
  6
ByLayer
 62
    1
370
   -1
100
AcDbLine
 10
45.65847006032188
 20
33.93112785269759
 11
78.22800796189409
 21
46.74616592825755
  0
LINE
  5
2FA
100
AcDbEntity
  8
schema e-arm deployed v3
  6
ByLayer
 62
    1
370
   -1
100
AcDbLine
 10
39.43402299504989
 20
49.75061769060409
 11
72.00356089662209
 21
62.56565576616406
  0
LINE
  5
2FB
100
AcDbEntity
  8
schema e-arm deployed v3
  6
ByLayer
 62
    1
370
   -1
100
AcDbLine
 10
78.22800796189409
 20
46.74616592825755
 11
72.00356089662209
 21
62.56565576616406
  0
LINE
  5
2FC
100
AcDbEntity
  8
schema e-arm deployed v3
  6
ByLayer
 62
  256
370
   -1
100
AcDbLine
 10
112.4278579257494
 20
56.25692695549743
 11
112.4278579257494
 21
71.87778354328965
  0
LINE
  5
2FD
100
AcDbEntity
  8
schema e-arm deployed v3
  6
ByLayer
 62
  256
370
   -1
100
AcDbLine
 10
97.14392547443025
 20
72.99487125962901
 11
108.9647399880851
 21
74.84182162938328
  0
ARC
  5
2FE
100
AcDbEntity
  8
schema e-arm deployed v3
  6
ByLayer
 62
  256
370
   -1
100
AcDbCircle
 10
109.4278579257494
 20
71.87778354328967
 40
3
100
AcDbArc
 50
359.9999999999999
 51
98.88041359446565
  0
ARC
  5
2FF
100
AcDbEntity
  8
schema e-arm deployed v3
  6
ByLayer
 62
  256
370
   -1
100
AcDbCircle
 10
97.42785950616553
 20
56.25004128320994
 40
15
100
AcDbArc
 50
222.9286682445947
 51
0.02630133167348657
  0
ARC
  5
300
100
AcDbEntity
  8
schema e-arm deployed v3
  6
ByLayer
 62
  256
370
   -1
100
AcDbCircle
 10
82.78381540942743
 20
42.62829497472259
 40
5
100
AcDbArc
 50
42.92866824459468
 51
111.4779999999999
  0
CIRCLE
  5
301
100
AcDbEntity
  8
schema e-arm deployed v3
  6
ByLayer
 62
  256
370
   -1
100
AcDbCircle
 10
23.36656957521927
 20
29.12875037708799
 40
1.5
  0
ARC
  5
302
100
AcDbEntity
  8
schema e-arm deployed v3
  6
ByLayer
 62
  256
370
   -1
100
AcDbCircle
 10
15.25
 20
15.25
 40
10
100
AcDbArc
 50
195.2444613824842
 51
360
  0
ARC
  5
303
100
AcDbEntity
  8
schema e-main body base
  6
ByLayer
 62
  256
370
   -1
100
AcDbCircle
 10
-15
 20
4.88058400684913
 40
15
100
AcDbArc
 50
180
 51
205.0576154183031
  0
LINE
  5
304
100
AcDbEntity
  8
schema e-main body base
  6
ByLayer
 62
  256
370
   -1
100
AcDbLine
 10
-29.63888925591041
 20
23.98749135884469
 11
-17.75107931727316
 21
77.18102130543271
  0
LINE
  5
305
100
AcDbEntity
  8
schema e-main body base
  6
ByLayer
 62
  256
370
   -1
100
AcDbLine
 10
-30
 20
20.71595940069563
 11
-30
 21
4.88058400684913
  0
ARC
  5
306
100
AcDbEntity
  8
schema e-main body base
  6
ByLayer
 62
  256
370
   -1
100
AcDbCircle
 10
-15
 20
20.71595940069563
 40
15
100
AcDbArc
 50
167.4024135944658
 51
180
  0
LINE
  5
307
100
AcDbEntity
  8
schema e-main body base
  6
ByLayer
 62
  256
370
   -1
100
AcDbLine
 10
-21.82327091430177
 20
-15.94186431533873
 11
-28.58823529411764
 21
-1.472357169621448
  0
ARC
  5
308
100
AcDbEntity
  8
schema e-main body base
  6
ByLayer
 62
  256
370
   -1
100
AcDbCircle
 10
-35.4115062084194
 20
-22.29480549180932
 40
15
100
AcDbArc
 50
12.52880770915151
 51
25.05761541830302
  0
CIRCLE
  5
309
100
AcDbEntity
  8
schema e-main body base
  6
ByLayer
 62
  256
370
   -1
100
AcDbCircle
 10
-20.7119
 20
41.0073
 40
1.5
  0
LINE
  5
30A
100
AcDbEntity
  8
schema e-arm folded v3
  6
ByLayer
 62
  256
370
   -1
100
AcDbLine
 10
27.56221712396998
 20
23.96464849877566
 11
16.33581272684614
 21
25.19087575227751
  0
LINE
  5
30B
100
AcDbEntity
  8
schema e-arm folded v3
  6
ByLayer
 62
  256
370
   -1
100
AcDbLine
 10
38.99999999999998
 20
-17.899999042616
 11
30.16425115709822
 21
21.63669216472222
  0
ARC
  5
30C
100
AcDbEntity
  8
schema e-arm folded v3
  6
ByLayer
 62
  256
370
   -1
100
AcDbCircle
 10
27.23647330591614
 20
20.9823857730924
 40
3
100
AcDbArc
 50
12.59758640553421
 51
83.76646138248418
  0
LINE
  5
30D
100
AcDbEntity
  8
schema e-arm deployed v3
  6
ByLayer
 62
  256
370
   -1
100
AcDbLine
 10
37.40208559888612
 20
49.48842928852115
 11
3.846048315106493
 21
26.79013043048233
  0
LINE
  5
30E
100
AcDbEntity
  8
schema e-arm deployed v3
  6
ByLayer
 62
  256
370
   -1
100
AcDbLine
 10
2.63246840520029
 20
23.51641914127413
 11
5.601872542111908
 21
12.62062049974792
  0
ARC
  5
30F
100
AcDbEntity
  8
schema e-arm deployed v3
  6
ByLayer
 62
  256
370
   -1
100
AcDbCircle
 10
5.526906642566714
 20
24.30523299134975
 40
3
100
AcDbArc
 50
124.0755864055342
 51
195.2444613824842
  0
LINE
  5
310
100
AcDbEntity
  8
schema e-arm folded v3
  6
ByLayer
 62
  256
370
   -1
100
AcDbLine
 10
12.23041195367736
 20
5.691870401887329
 11
11.58856054984
 21
5.944417742407943
  0
ARC
  5
311
100
AcDbEntity
  8
schema e-arm folded v3
  6
ByLayer
 62
  256
370
   -1
100
AcDbCircle
 10
11.49812406364537
 20
3.830753950368916
 40
2
100
AcDbArc
 50
12.59758640553411
 51
68.52200000000008
  0
LINE
  5
312
100
AcDbEntity
  8
schema e-arm deployed v3
  6
ByLayer
 62
  256
370
   -1
100
AcDbLine
 10
25.25
 20
15.93974878311747
 11
25.25
 21
15.25
  0
ARC
  5
313
100
AcDbEntity
  8
schema e-arm deployed v3
  6
ByLayer
 62
  256
370
   -1
100
AcDbCircle
 10
27.25
 20
15.93974878311748
 40
2
100
AcDbArc
 50
124.0755864055341
 51
180.0000000000001
  0
LINE
  5
314
100
AcDbEntity
  8
schema e-arm deployed v3
  6
ByLayer
 62
  256
370
   -1
100
AcDbLine
 10
26.12942778169319
 20
17.59634707587253
 11
44.12057221830682
 21
29.7660907725693
  0
ARC
  5
315
100
AcDbEntity
  8
schema e-arm deployed v3
  6
ByLayer
 62
  256
370
   -1
100
AcDbCircle
 10
43.00000000000001
 20
31.42268906532435
 40
2
100
AcDbArc
 50
304.0755864055341
 51
0
  0
LINE
  5
316
100
AcDbEntity
  8
schema e-arm deployed v3
  6
ByLayer
 62
  256
370
   -1
100
AcDbLine
 10
46.26771210996801
 20
33.63353259771287
 11
80.95309568434745
 21
47.28108610351861
  0
LINE
  5
317
100
AcDbEntity
  8
schema e-arm deployed v3
  6
ByLayer
 62
  256
370
   -1
100
AcDbLine
 10
45
 20
31.77241614619446
 11
45
 21
31.42268906532435
  0
ARC
  5
318
100
AcDbEntity
  8
schema e-arm deployed v3
  6
ByLayer
 62
  256
370
   -1
100
AcDbCircle
 10
47.00000000000001
 20
31.77241614619446
 40
2
100
AcDbArc
 50
111.4779999999999
 51
180
  0
LINE
  5
319
100
AcDbEntity
  8
schema e-arm folded v3
  6
ByLayer
 62
  256
370
   -1
100
AcDbLine
 10
13.44997596443342
 20
4.266958211455455
 11
18.18728246740145
 21
-16.93072720179947
  0
ARC
  5
31A
100
AcDbEntity
  8
schema e-arm folded v3
  6
ByLayer
 62
  256
370
   -1
100
AcDbCircle
 10
20.13913436818951
 20
-16.49452294071293
 40
2
100
AcDbArc
 50
192.5975864055341
 51
248.522
  0
LINE
  5
31B
100
AcDbEntity
  8
schema e-arm folded v3
  6
ByLayer
 62
  256
370
   -1
100
AcDbLine
 10
19.73228789003197
 20
-18.48368984530007
 11
19.40684647815751
 21
-18.35563939223135
  0
LINE
  5
31C
100
AcDbEntity
  8
schema e-arm folded v3
  6
ByLayer
 62
  256
370
   -1
100
AcDbLine
 10
20.99999999999998
 20
-20.34480629681848
 11
20.99999999999995
 21
-57.61854437600314
  0
ARC
  5
31D
100
AcDbEntity
  8
schema e-arm folded v3
  6
ByLayer
 62
  256
370
   -1
100
AcDbCircle
 10
18.99999999999998
 20
-20.34480629681848
 40
2
100
AcDbArc
 50
0
 51
68.52200000000005
  0
ARC
  5
31E
100
AcDbEntity
  8
schema e-arm deployed v3
  6
ByLayer
 62
  256
370
   -1
100
AcDbCircle
 10
32.46870384454792
 20
35.28570395727389
 40
1
100
AcDbArc
 50
124.0755864055342
 51
214.0755864055339
  0
LINE
  5
31F
100
AcDbEntity
  8
schema e-arm deployed v3
  6
ByLayer
 62
  256
370
   -1
100
AcDbLine
 10
31.6404046981704
 20
34.72541784812049
 11
31.64040469817039
 21
34.7254178481205
  0
ARC
  5
320
100
AcDbEntity
  8
schema e-arm deployed v3
  6
ByLayer
 62
  256
370
   -1
100
AcDbCircle
 10
32.46870384454792
 20
35.2857039572739
 40
1
100
AcDbArc
 50
214.075586405534
 51
304.0755864055344
  0
LINE
  5
321
100
AcDbEntity
  8
schema e-arm deployed v3
  6
ByLayer
 62
  256
370
   -1
100
AcDbLine
 10
34.68558824645636
 20
35.57797702920318
 11
33.02898995370133
 21
34.45740481089638
  0
ARC
  5
322
100
AcDbEntity
  8
schema e-arm deployed v3
  6
ByLayer
 62
  256
370
   -1
100
AcDbCircle
 10
34.12530213730296
 20
36.40627617558071
 40
1
100
AcDbArc
 50
304.075586405534
 51
34.0755864055341
  0
LINE
  5
323
100
AcDbEntity
  8
schema e-arm deployed v3
  6
ByLayer
 62
  256
370
   -1
100
AcDbLine
 10
34.9536012836805
 20
36.96656228473411
 11
34.95360128368049
 21
36.96656228473412
  0
LINE
  5
324
100
AcDbEntity
  8
schema e-arm deployed v3
  6
ByLayer
 62
  256
370
   -1
100
AcDbLine
 10
33.56501602814955
 20
37.23457532195822
 11
31.90841773539451
 21
36.11400310365141
  0
ARC
  5
325
100
AcDbEntity
  8
schema e-arm deployed v3
  6
ByLayer
 62
  256
370
   -1
100
AcDbCircle
 10
34.12530213730296
 20
36.40627617558069
 40
1
100
AcDbArc
 50
34.0755864055342
 51
124.0755864055343
  0
ARC
  5
326
100
AcDbEntity
  8
schema e-arm folded v3
  6
ByLayer
 62
  256
370
   -1
100
AcDbCircle
 10
27.58986497261253
 20
-8.108958187544669
 40
1
100
AcDbArc
 50
12.59758640553416
 51
102.5975864055338
  0
LINE
  5
327
100
AcDbEntity
  8
schema e-arm folded v3
  6
ByLayer
 62
  256
370
   -1
100
AcDbLine
 10
27.37176284206927
 20
-7.133032237150653
 11
27.37176284206928
 21
-7.133032237150649
  0
ARC
  5
328
100
AcDbEntity
  8
schema e-arm folded v3
  6
ByLayer
 62
  256
370
   -1
100
AcDbCircle
 10
27.58986497261255
 20
-8.108958187544676
 40
1
100
AcDbArc
 50
102.597586405534
 51
192.5975864055343
  0
LINE
  5
329
100
AcDbEntity
  8
schema e-arm folded v3
  6
ByLayer
 62
  256
370
   -1
100
AcDbLine
 10
27.05014328330505
 20
-10.27891221887599
 11
26.61393902221852
 21
-8.327060318087948
  0
ARC
  5
32A
100
AcDbEntity
  8
schema e-arm folded v3
  6
ByLayer
 62
  256
370
   -1
100
AcDbCircle
 10
28.02606923369908
 20
-10.06081008833272
 40
1
100
AcDbArc
 50
192.5975864055339
 51
282.5975864055341
  0
LINE
  5
32B
100
AcDbEntity
  8
schema e-arm folded v3
  6
ByLayer
 62
  256
370
   -1
100
AcDbLine
 10
28.24417136424234
 20
-11.03673603872676
 11
28.24417136424235
 21
-11.03673603872675
  0
LINE
  5
32C
100
AcDbEntity
  8
schema e-arm folded v3
  6
ByLayer
 62
  256
370
   -1
100
AcDbLine
 10
29.00199518409309
 20
-9.842707957789441
 11
28.56579092300656
 21
-7.8908560570014
  0
ARC
  5
32D
100
AcDbEntity
  8
schema e-arm folded v3
  6
ByLayer
 62
  256
370
   -1
100
AcDbCircle
 10
28.02606923369907
 20
-10.06081008833272
 40
1
100
AcDbArc
 50
282.5975864055342
 51
12.59758640553431
  0
LINE
  5
32E
100
AcDbEntity
  8
schema e-arm deployed v3
  6
ByLayer
 62
  256
370
   -1
100
AcDbLine
 10
-37.40208559888612
 20
49.48842928852115
 11
-97.14392547443025
 21
72.99487125962901
  0
LINE
  5
32F
100
AcDbEntity
  8
schema e-arm deployed v3
  6
ByLayer
 62
    1
370
   -1
100
AcDbLine
 10
-45.65847006032188
 20
33.93112785269759
 11
-39.43402299504989
 21
49.75061769060409
  0
LINE
  5
330
100
AcDbEntity
  8
schema e-arm deployed v3
  6
ByLayer
 62
    1
370
   -1
100
AcDbLine
 10
-45.65847006032188
 20
33.93112785269759
 11
-78.22800796189409
 21
46.74616592825754
  0
LINE
  5
331
100
AcDbEntity
  8
schema e-arm deployed v3
  6
ByLayer
 62
    1
370
   -1
100
AcDbLine
 10
-39.43402299504989
 20
49.75061769060409
 11
-72.00356089662209
 21
62.56565576616406
  0
LINE
  5
332
100
AcDbEntity
  8
schema e-arm deployed v3
  6
ByLayer
 62
    1
370
   -1
100
AcDbLine
 10
-78.22800796189409
 20
46.74616592825754
 11
-72.00356089662209
 21
62.56565576616406
  0
LINE
  5
333
100
AcDbEntity
  8
schema e-arm deployed v3
  6
ByLayer
 62
  256
370
   -1
100
AcDbLine
 10
-112.4278579257494
 20
56.25692695549743
 11
-112.4278579257494
 21
71.87778354328965
  0
LINE
  5
334
100
AcDbEntity
  8
schema e-arm deployed v3
  6
ByLayer
 62
  256
370
   -1
100
AcDbLine
 10
-97.14392547443025
 20
72.99487125962901
 11
-108.9647399880851
 21
74.84182162938328
  0
ARC
  5
335
100
AcDbEntity
  8
schema e-arm deployed v3
  6
ByLayer
 62
  256
370
   -1
100
AcDbCircle
 10
-109.4278579257494
 20
71.87778354328967
 40
3
100
AcDbArc
 50
81.11958640553435
 51
180.0000000000001
  0
ARC
  5
336
100
AcDbEntity
  8
schema e-arm deployed v3
  6
ByLayer
 62
  256
370
   -1
100
AcDbCircle
 10
-97.42785950616553
 20
56.25004128320994
 40
15
100
AcDbArc
 50
179.9736986683265
 51
317.0713317554053
  0
ARC
  5
337
100
AcDbEntity
  8
schema e-arm deployed v3
  6
ByLayer
 62
  256
370
   -1
100
AcDbCircle
 10
-82.78381540942743
 20
42.62829497472259
 40
5
100
AcDbArc
 50
68.52200000000008
 51
137.0713317554053
  0
CIRCLE
  5
338
100
AcDbEntity
  8
schema e-arm deployed v3
  6
ByLayer
 62
  256
370
   -1
100
AcDbCircle
 10
-23.36656957521927
 20
29.128750377088
 40
1.5
  0
ARC
  5
339
100
AcDbEntity
  8
schema e-arm deployed v3
  6
ByLayer
 62
  256
370
   -1
100
AcDbCircle
 10
-15.25
 20
15.25
 40
10
100
AcDbArc
 50
180
 51
344.7555386175158
  0
LINE
  5
33A
100
AcDbEntity
  8
schema e-arm deployed v3
  6
ByLayer
 62
  256
370
   -1
100
AcDbLine
 10
-37.40208559888612
 20
49.48842928852115
 11
-3.846048315106493
 21
26.79013043048231
  0
LINE
  5
33B
100
AcDbEntity
  8
schema e-arm deployed v3
  6
ByLayer
 62
  256
370
   -1
100
AcDbLine
 10
-2.63246840520029
 20
23.51641914127413
 11
-5.601872542111908
 21
12.62062049974793
  0
ARC
  5
33C
100
AcDbEntity
  8
schema e-arm deployed v3
  6
ByLayer
 62
  256
370
   -1
100
AcDbCircle
 10
-5.526906642566714
 20
24.30523299134976
 40
3
100
AcDbArc
 50
344.7555386175158
 51
55.92441359446583
  0
LINE
  5
33D
100
AcDbEntity
  8
schema e-arm deployed v3
  6
ByLayer
 62
  256
370
   -1
100
AcDbLine
 10
-25.25
 20
15.93974878311749
 11
-25.25
 21
15.25
  0
ARC
  5
33E
100
AcDbEntity
  8
schema e-arm deployed v3
  6
ByLayer
 62
  256
370
   -1
100
AcDbCircle
 10
-27.25
 20
15.93974878311748
 40
2
100
AcDbArc
 50
359.9999999999999
 51
55.92441359446592
  0
LINE
  5
33F
100
AcDbEntity
  8
schema e-arm deployed v3
  6
ByLayer
 62
  256
370
   -1
100
AcDbLine
 10
-26.12942778169319
 20
17.59634707587256
 11
-44.12057221830682
 21
29.7660907725693
  0
ARC
  5
340
100
AcDbEntity
  8
schema e-arm deployed v3
  6
ByLayer
 62
  256
370
   -1
100
AcDbCircle
 10
-43.00000000000001
 20
31.42268906532435
 40
2
100
AcDbArc
 50
180
 51
235.9244135944659
  0
LINE
  5
341
100
AcDbEntity
  8
schema e-arm deployed v3
  6
ByLayer
 62
  256
370
   -1
100
AcDbLine
 10
-46.26771210996801
 20
33.63353259771287
 11
-80.95309568434745
 21
47.28108610351861
  0
LINE
  5
342
100
AcDbEntity
  8
schema e-arm deployed v3
  6
ByLayer
 62
  256
370
   -1
100
AcDbLine
 10
-45
 20
31.77241614619446
 11
-45
 21
31.42268906532435
  0
ARC
  5
343
100
AcDbEntity
  8
schema e-arm deployed v3
  6
ByLayer
 62
  256
370
   -1
100
AcDbCircle
 10
-47.00000000000001
 20
31.77241614619446
 40
2
100
AcDbArc
 50
360
 51
68.52200000000008
  0
ARC
  5
344
100
AcDbEntity
  8
schema e-arm deployed v3
  6
ByLayer
 62
  256
370
   -1
100
AcDbCircle
 10
-32.46870384454792
 20
35.28570395727387
 40
1
100
AcDbArc
 50
325.9244135944661
 51
55.92441359446583
  0
LINE
  5
345
100
AcDbEntity
  8
schema e-arm deployed v3
  6
ByLayer
 62
  256
370
   -1
100
AcDbLine
 10
-31.6404046981704
 20
34.72541784812051
 11
-31.64040469817039
 21
34.7254178481205
  0
ARC
  5
346
100
AcDbEntity
  8
schema e-arm deployed v3
  6
ByLayer
 62
  256
370
   -1
100
AcDbCircle
 10
-32.46870384454792
 20
35.28570395727392
 40
1
100
AcDbArc
 50
235.9244135944657
 51
325.924413594466
  0
LINE
  5
347
100
AcDbEntity
  8
schema e-arm deployed v3
  6
ByLayer
 62
  256
370
   -1
100
AcDbLine
 10
-34.68558824645636
 20
35.57797702920318
 11
-33.02898995370133
 21
34.45740481089638
  0
ARC
  5
348
100
AcDbEntity
  8
schema e-arm deployed v3
  6
ByLayer
 62
  256
370
   -1
100
AcDbCircle
 10
-34.12530213730296
 20
36.40627617558071
 40
1
100
AcDbArc
 50
145.9244135944659
 51
235.924413594466
  0
LINE
  5
349
100
AcDbEntity
  8
schema e-arm deployed v3
  6
ByLayer
 62
  256
370
   -1
100
AcDbLine
 10
-34.9536012836805
 20
36.96656228473411
 11
-34.95360128368049
 21
36.96656228473412
  0
LINE
  5
34A
100
AcDbEntity
  8
schema e-arm deployed v3
  6
ByLayer
 62
  256
370
   -1
100
AcDbLine
 10
-33.56501602814955
 20
37.23457532195822
 11
-31.90841773539451
 21
36.11400310365141
  0
ARC
  5
34B
100
AcDbEntity
  8
schema e-arm deployed v3
  6
ByLayer
 62
  256
370
   -1
100
AcDbCircle
 10
-34.12530213730296
 20
36.40627617558069
 40
1
100
AcDbArc
 50
55.92441359446567
 51
145.9244135944658
  0
LINE
  5
34C
100
AcDbEntity
  8
schema e-arm folded v3
  6
ByLayer
 62
  256
370
   -1
100
AcDbLine
 10
-38.99999999999998
 20
-17.89999904261601
 11
-38.99999999999994
 21
-82.100000957384
  0
LINE
  5
34D
100
AcDbEntity
  8
schema e-arm folded v3
  6
ByLayer
 62
    1
370
   -1
100
AcDbLine
 10
-21.49999999999998
 20
-19.88683379672002
 11
-38.49999999999998
 21
-19.88683379672002
  0
LINE
  5
34E
100
AcDbEntity
  8
schema e-arm folded v3
  6
ByLayer
 62
    1
370
   -1
100
AcDbLine
 10
-21.49999999999998
 20
-19.88683379672002
 11
-21.49999999999995
 21
-54.88683379672003
  0
LINE
  5
34F
100
AcDbEntity
  8
schema e-arm folded v3
  6
ByLayer
 62
    1
370
   -1
100
AcDbLine
 10
-38.49999999999998
 20
-19.88683379672002
 11
-38.49999999999996
 21
-54.88683379672003
  0
LINE
  5
350
100
AcDbEntity
  8
schema e-arm folded v3
  6
ByLayer
 62
    1
370
   -1
100
AcDbLine
 10
-21.49999999999995
 20
-54.88683379672003
 11
-38.49999999999996
 21
-54.88683379672003
  0
LINE
  5
351
100
AcDbEntity
  8
schema e-arm folded v3
  6
ByLayer
 62
  256
370
   -1
100
AcDbLine
 10
-17.82824892240681
 20
-90.1940930629343
 11
-32.36436551358173
 21
-95.91357511851771
  0
LINE
  5
352
100
AcDbEntity
  8
schema e-arm folded v3
  6
ByLayer
 62
  256
370
   -1
100
AcDbLine
 10
-38.99999999999994
 20
-82.100000957384
 11
-36.39057519981182
 21
-93.77620683286987
  0
ARC
  5
353
100
AcDbEntity
  8
schema e-arm folded v3
  6
ByLayer
 62
  256
370
   -1
100
AcDbCircle
 10
-33.46279734862974
 20
-93.12190044124009
 40
3
100
AcDbArc
 50
192.5975864055343
 51
291.4780000000001
  0
ARC
  5
354
100
AcDbEntity
  8
schema e-arm folded v3
  6
ByLayer
 62
  256
370
   -1
100
AcDbCircle
 10
-23.314
 20
-76.2332
 40
15
100
AcDbArc
 50
291.4516986683265
 51
68.54933175540529
  0
ARC
  5
355
100
AcDbEntity
  8
schema e-arm folded v3
  6
ByLayer
 62
  256
370
   -1
100
AcDbCircle
 10
-15.99999999999995
 20
-57.61854437600315
 40
5
100
AcDbArc
 50
180.0000000000001
 51
248.5493317554053
  0
CIRCLE
  5
356
100
AcDbEntity
  8
schema e-arm folded v3
  6
ByLayer
 62
  256
370
   -1
100
AcDbCircle
 10
-25.19315252239029
 20
2.615439001873511
 40
1.5
  0
ARC
  5
357
100
AcDbEntity
  8
schema e-arm folded v3
  6
ByLayer
 62
  256
370
   -1
100
AcDbCircle
 10
-15.25
 20
15.25
 40
10
100
AcDbArc
 50
291.478
 51
96.2335386175158
  0
LINE
  5
358
100
AcDbEntity
  8
schema e-arm folded v3
  6
ByLayer
 62
  256
370
   -1
100
AcDbLine
 10
-27.56221712396998
 20
23.96464849877566
 11
-16.33581272684614
 21
25.19087575227751
  0
LINE
  5
359
100
AcDbEntity
  8
schema e-arm folded v3
  6
ByLayer
 62
  256
370
   -1
100
AcDbLine
 10
-38.99999999999998
 20
-17.89999904261601
 11
-30.16425115709822
 21
21.63669216472222
  0
ARC
  5
35A
100
AcDbEntity
  8
schema e-arm folded v3
  6
ByLayer
 62
  256
370
   -1
100
AcDbCircle
 10
-27.23647330591614
 20
20.9823857730924
 40
3
100
AcDbArc
 50
96.2335386175158
 51
167.4024135944657
  0
LINE
  5
35B
100
AcDbEntity
  8
schema e-arm folded v3
  6
ByLayer
 62
  256
370
   -1
100
AcDbLine
 10
-12.23041195367736
 20
5.691870401887329
 11
-11.58856054984
 21
5.944417742407943
  0
ARC
  5
35C
100
AcDbEntity
  8
schema e-arm folded v3
  6
ByLayer
 62
  256
370
   -1
100
AcDbCircle
 10
-11.49812406364537
 20
3.830753950368915
 40
2
100
AcDbArc
 50
111.4779999999999
 51
167.4024135944658
  0
LINE
  5
35D
100
AcDbEntity
  8
schema e-arm folded v3
  6
ByLayer
 62
  256
370
   -1
100
AcDbLine
 10
-13.44997596443342
 20
4.266958211455451
 11
-18.18728246740145
 21
-16.93072720179947
  0
ARC
  5
35E
100
AcDbEntity
  8
schema e-arm folded v3
  6
ByLayer
 62
  256
370
   -1
100
AcDbCircle
 10
-20.13913436818951
 20
-16.49452294071293
 40
2
100
AcDbArc
 50
291.478
 51
347.4024135944659
  0
LINE
  5
35F
100
AcDbEntity
  8
schema e-arm folded v3
  6
ByLayer
 62
  256
370
   -1
100
AcDbLine
 10
-19.73228789003197
 20
-18.48368984530007
 11
-19.40684647815751
 21
-18.35563939223133
  0
LINE
  5
360
100
AcDbEntity
  8
schema e-arm folded v3
  6
ByLayer
 62
  256
370
   -1
100
AcDbLine
 10
-20.99999999999998
 20
-20.34480629681847
 11
-20.99999999999995
 21
-57.61854437600314
  0
ARC
  5
361
100
AcDbEntity
  8
schema e-arm folded v3
  6
ByLayer
 62
  256
370
   -1
100
AcDbCircle
 10
-18.99999999999998
 20
-20.34480629681847
 40
2
100
AcDbArc
 50
111.4779999999999
 51
180
  0
ARC
  5
362
100
AcDbEntity
  8
schema e-arm folded v3
  6
ByLayer
 62
  256
370
   -1
100
AcDbCircle
 10
-27.58986497261253
 20
-8.108958187544662
 40
1
100
AcDbArc
 50
77.40241359446614
 51
167.4024135944658
  0
LINE
  5
363
100
AcDbEntity
  8
schema e-arm folded v3
  6
ByLayer
 62
  256
370
   -1
100
AcDbLine
 10
-27.37176284206927
 20
-7.133032237150664
 11
-27.37176284206928
 21
-7.133032237150639
  0
ARC
  5
364
100
AcDbEntity
  8
schema e-arm folded v3
  6
ByLayer
 62
  256
370
   -1
100
AcDbCircle
 10
-27.58986497261255
 20
-8.108958187544683
 40
1
100
AcDbArc
 50
347.4024135944657
 51
77.40241359446604
  0
LINE
  5
365
100
AcDbEntity
  8
schema e-arm folded v3
  6
ByLayer
 62
  256
370
   -1
100
AcDbLine
 10
-27.05014328330505
 20
-10.27891221887599
 11
-26.61393902221852
 21
-8.327060318087955
  0
ARC
  5
366
100
AcDbEntity
  8
schema e-arm folded v3
  6
ByLayer
 62
  256
370
   -1
100
AcDbCircle
 10
-28.02606923369908
 20
-10.06081008833271
 40
1
100
AcDbArc
 50
257.4024135944659
 51
347.4024135944661
  0
LINE
  5
367
100
AcDbEntity
  8
schema e-arm folded v3
  6
ByLayer
 62
  256
370
   -1
100
AcDbLine
 10
-28.24417136424234
 20
-11.03673603872676
 11
-28.24417136424235
 21
-11.03673603872676
  0
LINE
  5
368
100
AcDbEntity
  8
schema e-arm folded v3
  6
ByLayer
 62
  256
370
   -1
100
AcDbLine
 10
-29.00199518409309
 20
-9.842707957789445
 11
-28.56579092300656
 21
-7.8908560570014
  0
ARC
  5
369
100
AcDbEntity
  8
schema e-arm folded v3
  6
ByLayer
 62
  256
370
   -1
100
AcDbCircle
 10
-28.02606923369907
 20
-10.06081008833272
 40
1
100
AcDbArc
 50
167.4024135944657
 51
257.4024135944658
  0
LINE
  5
36A
100
AcDbEntity
  8
bounding box
  6
ByLayer
 62
   16
420
8388608
370
   -1
100
AcDbLine
 10
-40
 20
-17.78961933405462
 11
-16.80486199194432
 21
86
  0
LINE
  5
36B
100
AcDbEntity
  8
bounding box
  6
ByLayer
 62
   16
420
8388608
370
   -1
100
AcDbLine
 10
-40
 20
-17.78961933405462
 11
-40
 21
-90.0107348706299
  0
LINE
  5
36C
100
AcDbEntity
  8
bounding box
  6
ByLayer
 62
   16
420
8388608
370
   -1
100
AcDbLine
 10
-40
 20
-90.0107348706299
 11
-16.77312716043503
 21
-126.1420015729519
  0
LINE
  5
36D
100
AcDbEntity
  8
bounding box
  6
ByLayer
 62
   16
420
8388608
370
   -1
100
AcDbLine
 10
40
 20
-17.78961933405462
 11
40
 21
-90.0107348706299
  0
LINE
  5
36E
100
AcDbEntity
  8
bounding box
  6
ByLayer
 62
   16
420
8388608
370
   -1
100
AcDbLine
 10
40
 20
-90.0107348706299
 11
16.77312716043503
 21
-126.1420015729519
  0
CIRCLE
  5
36F
100
AcDbEntity
  8
schema e-main body base
  6
ByLayer
 62
  256
370
   -1
100
AcDbCircle
 10
8.999999999999995
 20
-114.9
 40
1.5
  0
CIRCLE
  5
370
100
AcDbEntity
  8
schema e-main body base
  6
ByLayer
 62
  256
370
   -1
100
AcDbCircle
 10
-8.999999999999996
 20
-114.9
 40
1.5
  0
LINE
  5
371
100
AcDbEntity
  8
schema e-main body base
  6
ByLayer
 62
  256
370
   -1
100
AcDbLine
 10
12.19064699080236
 20
-57.64208854138948
 11
20.76870030566011
 21
-19.0408486245295
  0
LINE
  5
372
100
AcDbEntity
  8
schema e-main body base
  6
ByLayer
 62
  256
370
   -1
100
AcDbLine
 10
11.00000000000001
 20
-68.48861143232224
 11
11
 21
-127.9085231427946
  0
ARC
  5
373
100
AcDbEntity
  8
schema e-main body base
  6
ByLayer
 62
  256
370
   -1
100
AcDbCircle
 10
61.00000000000001
 20
-68.48861143232226
 40
50
100
AcDbArc
 50
167.4711922908485
 51
180
  0
LINE
  5
374
100
AcDbEntity
  8
schema e-main body base
  6
ByLayer
 62
  256
370
   -1
100
AcDbLine
 10
-12.19064699080234
 20
-57.64208854138953
 11
-20.76870030566011
 21
-19.04084862452951
  0
ARC
  5
375
100
AcDbEntity
  8
schema e-main body base
  6
ByLayer
 62
  256
370
   -1
100
AcDbCircle
 10
-61
 20
-68.48861143232232
 40
50
100
AcDbArc
 50
360
 51
12.52880770915148
  0
LINE
  5
376
100
AcDbEntity
  8
schema e-main body base
  6
ByLayer
 62
  256
370
   -1
100
AcDbLine
 10
11
 20
-127.9085231427946
 11
9.482303931155176
 21
-145.4314449677955
  0
LINE
  5
377
100
AcDbEntity
  8
schema e-main body base
  6
ByLayer
 62
  256
370
   -1
100
AcDbLine
 10
-11.00000000000001
 20
-68.48861143232224
 11
-11
 21
-127.9085231427946
  0
LINE
  5
378
100
AcDbEntity
  8
schema e-main body base
  6
ByLayer
 62
  256
370
   -1
100
AcDbLine
 10
-11
 20
-127.9085231427946
 11
-9.482303931155176
 21
-145.4314449677955
  0
ARC
  5
379
100
AcDbEntity
  8
schema e-main body base
  6
ByLayer
 62
  256
370
   -1
100
AcDbCircle
 10
-2.500953186651834
 20
-147
 40
2
100
AcDbArc
 50
90
 51
180
  0
LINE
  5
37A
100
AcDbEntity
  8
schema e-main body base
  6
ByLayer
 62
  256
370
   -1
100
AcDbLine
 10
-4.500953186651834
 20
-148.8729833462074
 11
-4.500953186651834
 21
-147
  0
ARC
  5
37B
100
AcDbEntity
  8
schema e-main body base
  6
ByLayer
 62
  256
370
   -1
100
AcDbCircle
 10
-4.500953186651834
 20
-145
 40
5
100
AcDbArc
 50
184.9501511232747
 51
255.52248781407
  0
ARC
  5
37C
100
AcDbEntity
  8
schema e-main body base
  6
ByLayer
 62
  256
370
   -1
100
AcDbCircle
 10
-5.500953186651838
 20
-148.8729833462074
 40
1
100
AcDbArc
 50
255.5224878140698
 51
0
  0
ARC
  5
37D
100
AcDbEntity
  8
schema e-main body base
  6
ByLayer
 62
  256
370
   -1
100
AcDbCircle
 10
2.500953186651834
 20
-147
 40
2
100
AcDbArc
 50
360
 51
90
  0
LINE
  5
37E
100
AcDbEntity
  8
schema e-main body base
  6
ByLayer
 62
  256
370
   -1
100
AcDbLine
 10
4.500953186651834
 20
-148.8729833462074
 11
4.500953186651834
 21
-147
  0
ARC
  5
37F
100
AcDbEntity
  8
schema e-main body base
  6
ByLayer
 62
  256
370
   -1
100
AcDbCircle
 10
5.500953186651838
 20
-148.8729833462074
 40
1
100
AcDbArc
 50
180
 51
284.4775121859302
  0
ARC
  5
380
100
AcDbEntity
  8
schema e-main body base
  6
ByLayer
 62
  256
370
   -1
100
AcDbCircle
 10
4.500953186651834
 20
-145
 40
5
100
AcDbArc
 50
284.47751218593
 51
355.0498488767253
  0
LINE
  5
381
100
AcDbEntity
  8
schema e-main body base
  6
ByLayer
 62
  256
370
   -1
100
AcDbLine
 10
-2.500953186651834
 20
-145
 11
2.500953186651834
 21
-145
  0
ENDSEC
  0
SECTION
  2
OBJECTS
  0
DICTIONARY
  5
C
330
0
100
AcDbDictionary
281
    1
  3
ACAD_GROUP
350
D
  0
DICTIONARY
  5
D
330
C
100
AcDbDictionary
281
    1
  0
ENDSEC
  0
EOF
