999
dxfrw 0.6.3
  0
SECTION
  2
HEADER
  9
$ACADVER
  1
AC1021
  9
$DWGCODEPAGE
  3
ANSI_1252
  9
$INSBASE
 10
0
 20
0
 30
0
  9
$EXTMIN
 10
-41.82642463503537
 20
-188.4634122456331
 30
0
  9
$EXTMAX
 10
41.82642463503537
 20
86
 30
0
  9
$LIMMIN
 10
0
 20
0
  9
$LIMMAX
 10
420
 20
297
  9
$ORTHOMODE
 70
    0
  9
$REGENMODE
 70
    1
  9
$FILLMODE
 70
    1
  9
$QTEXTMODE
 70
    0
  9
$MIRRTEXT
 70
    0
  9
$LTSCALE
 40
1
  9
$ATTMODE
 70
    0
  9
$TEXTSIZE
 40
2.5
  9
$TRACEWID
 40
15.68
  9
$TEXTSTYLE
  7
STANDARD
  9
$CLAYER
  8
2
  9
$CELTYPE
  6
BYLAYER
  9
$CECOLOR
 62
  256
  9
$CELTSCALE
 40
1
  9
$DISPSILH
 70
    0
  9
$DIMSCALE
 40
2.5
  9
$DIMASZ
 40
2.5
  9
$DIMEXO
 40
0.625
  9
$DIMDLI
 40
3.75
  9
$DIMRND
 40
0
  9
$DIMDLE
 40
0
  9
$DIMEXE
 40
1.25
  9
$DIMTP
 40
0
  9
$DIMTM
 40
0
  9
$DIMTXT
 40
2.5
  9
$DIMCEN
 40
2.5
  9
$DIMTSZ
 40
0
  9
$DIMTOL
 70
    0
  9
$DIMLIM
 70
    0
  9
$DIMTIH
 70
    0
  9
$DIMTOH
 70
    0
  9
$DIMSE1
 70
    0
  9
$DIMSE2
 70
    0
  9
$DIMTAD
 70
    1
  9
$DIMZIN
 70
    8
  9
$DIMBLK
  1

  9
$DIMASO
 70
    1
  9
$DIMSHO
 70
    1
  9
$DIMPOST
  1

  9
$DIMAPOST
  1

  9
$DIMALT
 70
    0
  9
$DIMALTD
 70
    3
  9
$DIMALTF
 40
0.03937
  9
$DIMLFAC
 40
1
  9
$DIMTOFL
 70
    1
  9
$DIMTVP
 40
0
  9
$DIMTIX
 70
    0
  9
$DIMSOXD
 70
    0
  9
$DIMSAH
 70
    0
  9
$DIMBLK1
  1

  9
$DIMBLK2
  1

  9
$DIMSTYLE
  2
STANDARD
  9
$DIMCLRD
 70
    0
  9
$DIMCLRE
 70
    0
  9
$DIMCLRT
 70
    0
  9
$DIMTFAC
 40
1
  9
$DIMGAP
 40
0.625
  9
$DIMJUST
 70
    0
  9
$DIMSD1
 70
    0
  9
$DIMSD2
 70
    0
  9
$DIMTOLJ
 70
    0
  9
$DIMTZIN
 70
    8
  9
$DIMALTZ
 70
    0
  9
$DIMALTTZ
 70
    0
  9
$DIMUPT
 70
    0
  9
$DIMDEC
 70
    2
  9
$DIMTDEC
 70
    2
  9
$DIMALTU
 70
    2
  9
$DIMALTTD
 70
    3
  9
$DIMTXSTY
  7
STANDARD
  9
$DIMAUNIT
 70
    0
  9
$DIMADEC
 70
    0
  9
$DIMALTRND
 40
0
  9
$DIMAZIN
 70
    0
  9
$DIMDSEP
 70
   44
  9
$DIMATFIT
 70
    3
  9
$DIMFRAC
 70
    0
  9
$DIMLDRBLK
  1
STANDARD
  9
$DIMLUNIT
 70
    2
  9
$DIMLWD
 70
   -2
  9
$DIMLWE
 70
   -2
  9
$DIMTMOVE
 70
    0
  9
$DIMFXL
 40
1
  9
$DIMFXLON
 70
    0
  9
$DIMJOGANG
 40
0.7854
  9
$DIMTFILL
 70
    0
  9
$DIMTFILLCLR
 70
    0
  9
$DIMARCSYM
 70
    0
  9
$DIMLTYPE
  6

  9
$DIMLTEX1
  6

  9
$DIMLTEX2
  6

  9
$LUNITS
 70
    2
  9
$LUPREC
 70
    4
  9
$SKETCHINC
 40
1
  9
$FILLETRAD
 40
0
  9
$AUNITS
 70
    0
  9
$AUPREC
 70
    2
  9
$MENU
  1
.
  9
$ELEVATION
 40
0
  9
$PELEVATION
 40
0
  9
$THICKNESS
 40
0
  9
$LIMCHECK
 70
    0
  9
$CHAMFERA
 40
0
  9
$CHAMFERB
 40
0
  9
$CHAMFERC
 40
0
  9
$CHAMFERD
 40
0
  9
$SKPOLY
 70
    0
  9
$USRTIMER
 70
    1
  9
$ANGBASE
 50
0
  9
$ANGDIR
 70
    0
  9
$PDMODE
 70
   34
  9
$PDSIZE
 40
0
  9
$PLINEWID
 40
0
  9
$SPLFRAME
 70
    0
  9
$SPLINETYPE
 70
    2
  9
$SPLINESEGS
 70
    8
  9
$HANDSEED
  5
20000
  9
$SURFTAB1
 70
    6
  9
$SURFTAB2
 70
    6
  9
$SURFTYPE
 70
    6
  9
$SURFU
 70
    6
  9
$SURFV
 70
    6
  9
$UCSBASE
  2

  9
$UCSNAME
  2

  9
$UCSORG
 10
0
 20
0
 30
0
  9
$UCSXDIR
 10
1
 20
0
 30
0
  9
$UCSYDIR
 10
0
 20
1
 30
0
  9
$UCSORTHOREF
  2

  9
$UCSORTHOVIEW
 70
    0
  9
$UCSORGTOP
 10
0
 20
0
 30
0
  9
$UCSORGBOTTOM
 10
0
 20
0
 30
0
  9
$UCSORGLEFT
 10
0
 20
0
 30
0
  9
$UCSORGRIGHT
 10
0
 20
0
 30
0
  9
$UCSORGFRONT
 10
0
 20
0
 30
0
  9
$UCSORGBACK
 10
0
 20
0
 30
0
  9
$PUCSBASE
  2

  9
$PUCSNAME
  2

  9
$PUCSORG
 10
0
 20
0
 30
0
  9
$PUCSXDIR
 10
1
 20
0
 30
0
  9
$PUCSYDIR
 10
0
 20
1
 30
0
  9
$PUCSORTHOREF
  2

  9
$PUCSORTHOVIEW
 70
    0
  9
$PUCSORGTOP
 10
0
 20
0
 30
0
  9
$PUCSORGBOTTOM
 10
0
 20
0
 30
0
  9
$PUCSORGLEFT
 10
0
 20
0
 30
0
  9
$PUCSORGRIGHT
 10
0
 20
0
 30
0
  9
$PUCSORGFRONT
 10
0
 20
0
 30
0
  9
$PUCSORGBACK
 10
0
 20
0
 30
0
  9
$USERI1
 70
    0
  9
$USERI2
 70
    0
  9
$USERI3
 70
    0
  9
$USERI4
 70
    0
  9
$USERI5
 70
    0
  9
$USERR1
 40
0
  9
$USERR2
 40
0
  9
$USERR3
 40
0
  9
$USERR4
 40
0
  9
$USERR5
 40
0
  9
$WORLDVIEW
 70
    1
  9
$SHADEDGE
 70
    3
  9
$SHADEDIF
 70
   70
  9
$TILEMODE
 70
    1
  9
$MAXACTVP
 70
   64
  9
$PINSBASE
 10
105
 20
175.187117347436
 30
0
  9
$PLIMCHECK
 70
    0
  9
$PEXTMIN
 10
0
 20
0
 30
0
  9
$PEXTMAX
 10
0
 20
0
 30
0
  9
$GRIDMODE
 70
    1
  9
$SNAPSTYLE
 70
    0
  9
$PLIMMIN
 10
0
 20
0
  9
$PLIMMAX
 10
210
 20
297
  9
$UNITMODE
 70
    0
  9
$VISRETAIN
 70
    1
  9
$PLINEGEN
 70
    0
  9
$PSLTSCALE
 70
    1
  9
$TREEDEPTH
 70
 3020
  9
$CMLSTYLE
  2
Standard
  9
$CMLJUST
 70
    0
  9
$CMLSCALE
 40
20
  9
$PROXYGRAPHICS
 70
    1
  9
$MEASUREMENT
 70
    1
  9
$CELWEIGHT
370
   -1
  9
$ENDCAPS
280
    0
  9
$JOINSTYLE
280
    0
  9
$LWDISPLAY
290
    0
  9
$INSUNITS
 70
    4
  9
$HYPERLINKBASE
  1

  9
$STYLESHEET
  1

  9
$XEDIT
290
    1
  9
$CEPSNTYPE
380
    0
  9
$PSTYLEMODE
290
    1
  9
$EXTNAMES
290
    1
  9
$PSVPSCALE
 40
0.8227473178437438
  9
$OLESTARTUP
290
    0
  9
$SORTENTS
280
  127
  9
$INDEXCTL
280
    0
  9
$HIDETEXT
280
    1
  9
$XCLIPFRAME
290
    0
  9
$HALOGAP
280
    0
  9
$OBSCOLOR
 70
  257
  9
$OBSLTYPE
280
    0
  9
$INTERSECTIONDISPLAY
280
    0
  9
$INTERSECTIONCOLOR
 70
  257
  9
$DIMASSOC
280
    1
  9
$PROJECTNAME
  1

  9
$CAMERADISPLAY
290
    0
  9
$LENSLENGTH
 40
50
  9
$CAMERAHEIGHT
 40
0
  9
$STEPSPERSEC
 40
2
  9
$STEPSIZE
 40
50
  9
$3DDWFPREC
 40
2
  9
$PSOLWIDTH
 40
5
  9
$PSOLHEIGHT
 40
80
  9
$LOFTANG1
 40
1.570796326794897
  9
$LOFTANG2
 40
1.570796326794897
  9
$LOFTMAG1
 40
0
  9
$LOFTMAG2
 40
0
  9
$LOFTPARAM
 70
    7
  9
$LOFTNORMALS
280
    1
  9
$LATITUDE
 40
1
  9
$LONGITUDE
 40
1
  9
$NORTHDIRECTION
 40
0
  9
$TIMEZONE
 70
-8000
  9
$LIGHTGLYPHDISPLAY
280
    1
  9
$TILEMODELIGHTSYNCH
280
    1
  9
$SOLIDHIST
280
    1
  9
$SHOWHIST
280
    1
  9
$DWFFRAME
280
    2
  9
$DGNFRAME
280
    0
  9
$REALWORLDSCALE
290
    1
  9
$INTERFERECOLOR
 62
    1
  9
$CSHADOW
280
    0
  9
$SHADOWPLANELOCATION
 40
0
  0
ENDSEC
  0
SECTION
  2
CLASSES
  0
ENDSEC
  0
SECTION
  2
TABLES
  0
TABLE
  2
VPORT
  5
8
330
0
100
AcDbSymbolTable
 70
    1
  0
VPORT
  5
31
330
2
100
AcDbSymbolTableRecord
100
AcDbViewportTableRecord
  2
*ACTIVE
 70
    0
 10
0
 20
0
 11
1
 21
1
 12
115.8966055661731
 22
44.83987235633531
 13
0
 23
0
 14
10
 24
10
 15
10
 25
10
 16
0
 26
0
 36
1
 17
0
 27
0
 37
0
 40
281.6956497224614
 41
1.645699614890886
 42
50
 43
0
 44
0
 50
0
 51
0
 71
    0
 72
  100
 73
    1
 74
    3
 75
    0
 76
    1
 77
    0
 78
    0
281
    0
 65
    1
110
0
120
0
130
0
111
1
121
0
131
0
112
0
122
1
132
0
 79
    0
146
0
348
10020
 60
    7
 61
    5
292
1
282
    1
141
0
142
0
 63
  250
421
3358443
  0
ENDTAB
  0
TABLE
  2
LTYPE
  5
5
330
0
100
AcDbSymbolTable
 70
    4
  0
LTYPE
  5
14
330
5
100
AcDbSymbolTableRecord
100
AcDbLinetypeTableRecord
  2
ByBlock
 70
    0
  3

 72
   65
 73
    0
 40
0
  0
LTYPE
  5
15
330
5
100
AcDbSymbolTableRecord
100
AcDbLinetypeTableRecord
  2
ByLayer
 70
    0
  3

 72
   65
 73
    0
 40
0
  0
LTYPE
  5
16
330
5
100
AcDbSymbolTableRecord
100
AcDbLinetypeTableRecord
  2
Continuous
 70
    0
  3
Solid line
 72
   65
 73
    0
 40
0
  0
LTYPE
  5
32
330
5
100
AcDbSymbolTableRecord
100
AcDbLinetypeTableRecord
  2
DOT
 70
    0
  3
Dot . . . . . . . . . . . . . . . . . . . . . .
 72
   65
 73
    2
 40
6.35
 49
0
 74
    0
 49
-6.35
 74
    0
  0
LTYPE
  5
33
330
5
100
AcDbSymbolTableRecord
100
AcDbLinetypeTableRecord
  2
DOTTINY
 70
    0
  3
Dot (.15x) .....................................
 72
   65
 73
    2
 40
0.9525
 49
0
 74
    0
 49
-0.9525
 74
    0
  0
LTYPE
  5
34
330
5
100
AcDbSymbolTableRecord
100
AcDbLinetypeTableRecord
  2
DOT2
 70
    0
  3
Dot (.5x) .....................................
 72
   65
 73
    2
 40
3.175
 49
0
 74
    0
 49
-3.175
 74
    0
  0
LTYPE
  5
35
330
5
100
AcDbSymbolTableRecord
100
AcDbLinetypeTableRecord
  2
DOTX2
 70
    0
  3
Dot (2x) .  .  .  .  .  .  .  .  .  .  .  .  .
 72
   65
 73
    2
 40
12.7
 49
0
 74
    0
 49
-12.7
 74
    0
  0
LTYPE
  5
36
330
5
100
AcDbSymbolTableRecord
100
AcDbLinetypeTableRecord
  2
DASHED
 70
    0
  3
Dashed _ _ _ _ _ _ _ _ _ _ _ _ _ _ _ _ _
 72
   65
 73
    2
 40
19.05
 49
12.7
 74
    0
 49
-6.35
 74
    0
  0
LTYPE
  5
37
330
5
100
AcDbSymbolTableRecord
100
AcDbLinetypeTableRecord
  2
DASHEDTINY
 70
    0
  3
Dashed (.15x) _ _ _ _ _ _ _ _ _ _ _ _ _ _ _ _ _
 72
   65
 73
    2
 40
2.8575
 49
1.905
 74
    0
 49
-0.9525
 74
    0
  0
LTYPE
  5
38
330
5
100
AcDbSymbolTableRecord
100
AcDbLinetypeTableRecord
  2
DASHED2
 70
    0
  3
Dashed (.5x) _ _ _ _ _ _ _ _ _ _ _ _ _ _ _ _ _
 72
   65
 73
    2
 40
9.524999999999999
 49
6.35
 74
    0
 49
-3.175
 74
    0
  0
LTYPE
  5
39
330
5
100
AcDbSymbolTableRecord
100
AcDbLinetypeTableRecord
  2
DASHEDX2
 70
    0
  3
Dashed (2x) ____  ____  ____  ____  ____  ___
 72
   65
 73
    2
 40
38.09999999999999
 49
25.4
 74
    0
 49
-12.7
 74
    0
  0
LTYPE
  5
3A
330
5
100
AcDbSymbolTableRecord
100
AcDbLinetypeTableRecord
  2
DASHDOT
 70
    0
  3
Dash dot __ . __ . __ . __ . __ . __ . __ . __
 72
   65
 73
    4
 40
25.4
 49
12.7
 74
    0
 49
-6.35
 74
    0
 49
0
 74
    0
 49
-6.35
 74
    0
  0
LTYPE
  5
3B
330
5
100
AcDbSymbolTableRecord
100
AcDbLinetypeTableRecord
  2
DASHDOTTINY
 70
    0
  3
Dash dot (.15x) _._._._._._._._._._._._._._._.
 72
   65
 73
    4
 40
3.81
 49
1.905
 74
    0
 49
-0.9525
 74
    0
 49
0
 74
    0
 49
-0.9525
 74
    0
  0
LTYPE
  5
3C
330
5
100
AcDbSymbolTableRecord
100
AcDbLinetypeTableRecord
  2
DASHDOT2
 70
    0
  3
Dash dot (.5x) _._._._._._._._._._._._._._._.
 72
   65
 73
    4
 40
12.7
 49
6.35
 74
    0
 49
-3.175
 74
    0
 49
0
 74
    0
 49
-3.175
 74
    0
  0
LTYPE
  5
3D
330
5
100
AcDbSymbolTableRecord
100
AcDbLinetypeTableRecord
  2
DASHDOTX2
 70
    0
  3
Dash dot (2x) ____  .  ____  .  ____  .  ___
 72
   65
 73
    4
 40
50.8
 49
25.4
 74
    0
 49
-12.7
 74
    0
 49
0
 74
    0
 49
-12.7
 74
    0
  0
LTYPE
  5
3E
330
5
100
AcDbSymbolTableRecord
100
AcDbLinetypeTableRecord
  2
DIVIDE
 70
    0
  3
Divide ____ . . ____ . . ____ . . ____ . . ____
 72
   65
 73
    6
 40
31.75
 49
12.7
 74
    0
 49
-6.35
 74
    0
 49
0
 74
    0
 49
-6.35
 74
    0
 49
0
 74
    0
 49
-6.35
 74
    0
  0
LTYPE
  5
3F
330
5
100
AcDbSymbolTableRecord
100
AcDbLinetypeTableRecord
  2
DIVIDETINY
 70
    0
  3
Divide (.15x) __..__..__..__..__..__..__..__.._
 72
   65
 73
    6
 40
4.7625
 49
1.905
 74
    0
 49
-0.9525
 74
    0
 49
0
 74
    0
 49
-0.9525
 74
    0
 49
0
 74
    0
 49
-0.9525
 74
    0
  0
LTYPE
  5
40
330
5
100
AcDbSymbolTableRecord
100
AcDbLinetypeTableRecord
  2
DIVIDE2
 70
    0
  3
Divide (.5x) __..__..__..__..__..__..__..__.._
 72
   65
 73
    6
 40
15.875
 49
6.35
 74
    0
 49
-3.175
 74
    0
 49
0
 74
    0
 49
-3.175
 74
    0
 49
0
 74
    0
 49
-3.175
 74
    0
  0
LTYPE
  5
41
330
5
100
AcDbSymbolTableRecord
100
AcDbLinetypeTableRecord
  2
DIVIDEX2
 70
    0
  3
Divide (2x) ________  .  .  ________  .  .  _
 72
   65
 73
    6
 40
63.5
 49
25.4
 74
    0
 49
-12.7
 74
    0
 49
0
 74
    0
 49
-12.7
 74
    0
 49
0
 74
    0
 49
-12.7
 74
    0
  0
LTYPE
  5
42
330
5
100
AcDbSymbolTableRecord
100
AcDbLinetypeTableRecord
  2
BORDER
 70
    0
  3
Border __ __ . __ __ . __ __ . __ __ . __ __ .
 72
   65
 73
    6
 40
44.45
 49
12.7
 74
    0
 49
-6.35
 74
    0
 49
12.7
 74
    0
 49
-6.35
 74
    0
 49
0
 74
    0
 49
-6.35
 74
    0
  0
LTYPE
  5
43
330
5
100
AcDbSymbolTableRecord
100
AcDbLinetypeTableRecord
  2
BORDERTINY
 70
    0
  3
Border (.15x) __.__.__.__.__.__.__.__.__.__.__.
 72
   65
 73
    6
 40
6.6675
 49
1.905
 74
    0
 49
-0.9525
 74
    0
 49
1.905
 74
    0
 49
-0.9525
 74
    0
 49
0
 74
    0
 49
-0.9525
 74
    0
  0
LTYPE
  5
44
330
5
100
AcDbSymbolTableRecord
100
AcDbLinetypeTableRecord
  2
BORDER2
 70
    0
  3
Border (.5x) __.__.__.__.__.__.__.__.__.__.__.
 72
   65
 73
    6
 40
22.225
 49
6.35
 74
    0
 49
-3.175
 74
    0
 49
6.35
 74
    0
 49
-3.175
 74
    0
 49
0
 74
    0
 49
-3.175
 74
    0
  0
LTYPE
  5
45
330
5
100
AcDbSymbolTableRecord
100
AcDbLinetypeTableRecord
  2
BORDERX2
 70
    0
  3
Border (2x) ____  ____  .  ____  ____  .  ___
 72
   65
 73
    6
 40
88.89999999999999
 49
25.4
 74
    0
 49
-12.7
 74
    0
 49
25.4
 74
    0
 49
-12.7
 74
    0
 49
0
 74
    0
 49
-12.7
 74
    0
  0
LTYPE
  5
46
330
5
100
AcDbSymbolTableRecord
100
AcDbLinetypeTableRecord
  2
CENTER
 70
    0
  3
Center ____ _ ____ _ ____ _ ____ _ ____ _ ____
 72
   65
 73
    4
 40
50.8
 49
31.75
 74
    0
 49
-6.35
 74
    0
 49
6.35
 74
    0
 49
-6.35
 74
    0
  0
LTYPE
  5
47
330
5
100
AcDbSymbolTableRecord
100
AcDbLinetypeTableRecord
  2
CENTERTINY
 70
    0
  3
Center (.15x) ___ _ ___ _ ___ _ ___ _ ___ _ ___
 72
   65
 73
    4
 40
7.62
 49
4.7625
 74
    0
 49
-0.9525
 74
    0
 49
0.9525
 74
    0
 49
-0.9525
 74
    0
  0
LTYPE
  5
48
330
5
100
AcDbSymbolTableRecord
100
AcDbLinetypeTableRecord
  2
CENTER2
 70
    0
  3
Center (.5x) ___ _ ___ _ ___ _ ___ _ ___ _ ___
 72
   65
 73
    4
 40
28.575
 49
19.05
 74
    0
 49
-3.175
 74
    0
 49
3.175
 74
    0
 49
-3.175
 74
    0
  0
LTYPE
  5
49
330
5
100
AcDbSymbolTableRecord
100
AcDbLinetypeTableRecord
  2
CENTERX2
 70
    0
  3
Center (2x) ________  __  ________  __  _____
 72
   65
 73
    4
 40
101.6
 49
63.5
 74
    0
 49
-12.7
 74
    0
 49
12.7
 74
    0
 49
-12.7
 74
    0
  0
ENDTAB
  0
TABLE
  2
LAYER
  5
2
330
0
100
AcDbSymbolTable
 70
    1
  0
LAYER
  5
10
330
2
100
AcDbSymbolTableRecord
100
AcDbLayerTableRecord
  2
0
 70
    5
 62
    7
  6
CONTINUOUS
370
    0
390
F
  0
LAYER
  5
4A
330
2
100
AcDbSymbolTableRecord
100
AcDbLayerTableRecord
  2
1
 70
    5
 62
    7
  6
CONTINUOUS
370
    0
390
F
  0
LAYER
  5
4B
330
2
100
AcDbSymbolTableRecord
100
AcDbLayerTableRecord
  2
2
 70
    4
 62
    7
  6
CONTINUOUS
370
    0
390
F
  0
LAYER
  5
4C
330
2
100
AcDbSymbolTableRecord
100
AcDbLayerTableRecord
  2
FC
 70
    4
 62
    7
  6
CONTINUOUS
370
    0
390
F
  0
LAYER
  5
4D
330
2
100
AcDbSymbolTableRecord
100
AcDbLayerTableRecord
  2
RS2205S
 70
    5
 62
    7
  6
CONTINUOUS
370
    0
390
F
  0
LAYER
  5
4E
330
2
100
AcDbSymbolTableRecord
100
AcDbLayerTableRecord
  2
Servo Mount Bottom
 70
    4
 62
    7
  6
CONTINUOUS
370
    0
390
F
  0
LAYER
  5
4F
330
2
100
AcDbSymbolTableRecord
100
AcDbLayerTableRecord
  2
Servo Mount Top
 70
    5
 62
    7
  6
CONTINUOUS
370
    0
390
F
  0
LAYER
  5
50
330
2
100
AcDbSymbolTableRecord
100
AcDbLayerTableRecord
  2
battery
 70
    5
 62
    7
  6
CONTINUOUS
370
    0
390
F
  0
LAYER
  5
51
330
2
100
AcDbSymbolTableRecord
100
AcDbLayerTableRecord
  2
bounding box
 70
    4
 62
    7
  6
CONTINUOUS
370
    0
390
F
  0
LAYER
  5
52
330
2
100
AcDbSymbolTableRecord
100
AcDbLayerTableRecord
  2
camera 5inch
 70
    5
 62
    7
  6
CONTINUOUS
370
    0
390
F
  0
LAYER
  5
53
330
2
100
AcDbSymbolTableRecord
100
AcDbLayerTableRecord
  2
camera 6inch
 70
    5
 62
    7
  6
CONTINUOUS
370
    0
390
F
  0
LAYER
  5
54
330
2
100
AcDbSymbolTableRecord
100
AcDbLayerTableRecord
  2
esc-tail
 70
    4
 62
    7
  6
CONTINUOUS
370
    0
390
F
  0
LAYER
  5
55
330
2
100
AcDbSymbolTableRecord
100
AcDbLayerTableRecord
  2
motor-deployed
 70
    5
 62
    7
  6
CONTINUOUS
370
    0
390
F
  0
LAYER
  5
56
330
2
100
AcDbSymbolTableRecord
100
AcDbLayerTableRecord
  2
motor-folded
 70
    4
 62
    7
  6
CONTINUOUS
370
    0
390
F
  0
LAYER
  5
57
330
2
100
AcDbSymbolTableRecord
100
AcDbLayerTableRecord
  2
motor-tail
 70
    4
 62
    7
  6
CONTINUOUS
370
    0
390
F
  0
LAYER
  5
58
330
2
100
AcDbSymbolTableRecord
100
AcDbLayerTableRecord
  2
schema e-arm deployed v3
 70
    5
 62
    7
  6
CONTINUOUS
370
    0
390
F
  0
LAYER
  5
59
330
2
100
AcDbSymbolTableRecord
100
AcDbLayerTableRecord
  2
schema e-arm folded v3
 70
    4
 62
    7
  6
CONTINUOUS
370
    0
390
F
  0
LAYER
  5
5A
330
2
100
AcDbSymbolTableRecord
100
AcDbLayerTableRecord
  2
schema e-main body base
 70
    4
 62
    7
  6
CONTINUOUS
370
    0
390
F
  0
LAYER
  5
5B
330
2
100
AcDbSymbolTableRecord
100
AcDbLayerTableRecord
  2
schema e-main body middle
 70
    5
 62
    7
  6
CONTINUOUS
370
    0
390
F
  0
LAYER
  5
5C
330
2
100
AcDbSymbolTableRecord
100
AcDbLayerTableRecord
  2
schema e-main body top v3
 70
    5
 62
    7
  6
CONTINUOUS
370
    0
390
F
  0
LAYER
  5
5D
330
2
100
AcDbSymbolTableRecord
100
AcDbLayerTableRecord
  2
servo
 70
    4
 62
    7
  6
CONTINUOUS
370
    0
390
F
  0
LAYER
  5
5E
330
2
100
AcDbSymbolTableRecord
100
AcDbLayerTableRecord
  2
servo arm
 70
    5
 62
    7
  6
CONTINUOUS
370
    0
390
F
  0
LAYER
  5
5F
330
2
100
AcDbSymbolTableRecord
100
AcDbLayerTableRecord
  2
servo arm demo 0deg
 70
    5
 62
    7
  6
CONTINUOUS
370
    0
390
F
  0
LAYER
  5
60
330
2
100
AcDbSymbolTableRecord
100
AcDbLayerTableRecord
  2
servo arm demo 45deg
 70
    5
 62
    7
  6
CONTINUOUS
370
    0
390
F
  0
LAYER
  5
61
330
2
100
AcDbSymbolTableRecord
100
AcDbLayerTableRecord
  2
side view v1
 70
    5
 62
    7
  6
CONTINUOUS
370
    0
390
F
  0
LAYER
  5
62
330
2
100
AcDbSymbolTableRecord
100
AcDbLayerTableRecord
  2
tail back
 70
    5
 62
    7
  6
CONTINUOUS
370
    0
390
F
  0
LAYER
  5
63
330
2
100
AcDbSymbolTableRecord
100
AcDbLayerTableRecord
  2
tail side
 70
    5
 62
    7
  6
CONTINUOUS
370
    0
390
F
  0
LAYER
  5
64
330
2
100
AcDbSymbolTableRecord
100
AcDbLayerTableRecord
  2
tail top
 70
    5
 62
    7
  6
CONTINUOUS
370
    0
390
F
  0
LAYER
  5
65
330
2
100
AcDbSymbolTableRecord
100
AcDbLayerTableRecord
  2
tail top 2
 70
    5
 62
    7
  6
CONTINUOUS
370
    0
390
F
  0
LAYER
  5
66
330
2
100
AcDbSymbolTableRecord
100
AcDbLayerTableRecord
  2
vtx
 70
    5
 62
    7
  6
CONTINUOUS
370
    0
390
F
  0
ENDTAB
  0
TABLE
  2
STYLE
  5
3
330
0
100
AcDbSymbolTable
 70
    3
  0
STYLE
  5
67
330
2
100
AcDbSymbolTableRecord
100
AcDbTextStyleTableRecord
  2
standard
 70
    0
 40
0
 41
1
 50
0
 71
    0
 42
1
  3
standard
  4

  0
ENDTAB
  0
TABLE
  2
VIEW
  5
6
330
0
100
AcDbSymbolTable
 70
    0
  0
ENDTAB
  0
TABLE
  2
UCS
  5
7
330
0
100
AcDbSymbolTable
 70
    0
  0
ENDTAB
  0
TABLE
  2
APPID
  5
9
330
0
100
AcDbSymbolTable
 70
    1
  0
APPID
  5
12
330
9
100
AcDbSymbolTableRecord
100
AcDbRegAppTableRecord
  2
ACAD
 70
    0
  0
APPID
  5
68
330
9
100
AcDbSymbolTableRecord
100
AcDbRegAppTableRecord
  2
LibreCad
 70
    0
  0
ENDTAB
  0
TABLE
  2
DIMSTYLE
  5
A
330
0
100
AcDbSymbolTable
 70
    1
100
AcDbDimStyleTable
 71
    1
  0
DIMSTYLE
105
69
330
A
100
AcDbSymbolTableRecord
100
AcDbDimStyleTableRecord
  2
Standard
 70
    0
 40
2.5
 41
2.5
 42
0.625
 43
0.38
 44
1.25
 45
0
 46
0
 47
0
 48
0
 49
1
140
2.5
141
0.09
142
0
143
25.4
144
1
145
0
146
1
147
0.625
148
0
 71
    0
 72
    0
 73
    0
 74
    1
 75
    0
 76
    0
 77
    0
 78
    8
 79
    0
170
    0
171
    2
172
    0
173
    0
174
    0
175
    0
176
    0
177
    0
178
    0
179
    0
271
    2
272
    4
273
    2
274
    2
275
    0
276
    0
277
    2
278
   44
279
    0
280
    0
281
    0
282
    0
283
    1
284
    0
285
    0
286
    0
288
    0
289
    3
340
STANDARD
341

371
   -2
372
   -2
  0
ENDTAB
  0
TABLE
  2
BLOCK_RECORD
  5
1
330
0
100
AcDbSymbolTable
 70
    2
  0
BLOCK_RECORD
  5
1F
330
1
100
AcDbSymbolTableRecord
100
AcDbBlockTableRecord
  2
*Model_Space
 70
    0
280
    1
281
    0
  0
BLOCK_RECORD
  5
1E
330
1
100
AcDbSymbolTableRecord
100
AcDbBlockTableRecord
  2
*Paper_Space
 70
    0
280
    1
281
    0
  0
ENDTAB
  0
ENDSEC
  0
SECTION
  2
BLOCKS
  0
BLOCK
  5
20
330
1F
100
AcDbEntity
  8
0
100
AcDbBlockBegin
  2
*Model_Space
 70
    0
 10
0
 20
0
 30
0
  3
*Model_Space
  1

  0
ENDBLK
  5
21
330
1F
100
AcDbEntity
  8
0
100
AcDbBlockEnd
  0
BLOCK
  5
1C
330
1B
100
AcDbEntity
  8
0
100
AcDbBlockBegin
  2
*Paper_Space
 70
    0
 10
0
 20
0
 30
0
  3
*Paper_Space
  1

  0
ENDBLK
  5
1D
330
1F
100
AcDbEntity
  8
0
100
AcDbBlockEnd
  0
ENDSEC
  0
SECTION
  2
ENTITIES
  0
LWPOLYLINE
  5
6A
100
AcDbEntity
  8
FC
  6
ByLayer
 62
  256
370
   -1
100
AcDbPolyline
 90
    4
 70
    1
 43
0
 10
-18
 20
-18
 10
18
 20
-18
 10
18
 20
18
 10
-18
 20
18
  0
CIRCLE
  5
6B
100
AcDbEntity
  8
FC
  6
ByLayer
 62
  256
370
   -1
100
AcDbCircle
 10
-15.25
 20
-15.25
 40
2.5
  0
CIRCLE
  5
6C
100
AcDbEntity
  8
FC
  6
ByLayer
 62
  256
370
   -1
100
AcDbCircle
 10
15.25
 20
-15.25
 40
2.5
  0
CIRCLE
  5
6D
100
AcDbEntity
  8
FC
  6
ByLayer
 62
  256
370
   -1
100
AcDbCircle
 10
-15.25
 20
15.25
 40
2.5
  0
CIRCLE
  5
6E
100
AcDbEntity
  8
FC
  6
ByLayer
 62
  256
370
   -1
100
AcDbCircle
 10
15.25
 20
15.25
 40
2.5
  0
LINE
  5
6F
100
AcDbEntity
  8
1
  6
ByLayer
 62
  256
370
   -1
100
AcDbLine
 10
-97.42785792574934
 20
56.25000000000001
 11
0
 21
0
  0
LINE
  5
70
100
AcDbEntity
  8
1
  6
ByLayer
 62
  256
370
   -1
100
AcDbLine
 10
0
 20
0
 11
97.42785792574935
 21
56.24999999999998
  0
LINE
  5
71
100
AcDbEntity
  8
1
  6
ByLayer
 62
  256
370
   -1
100
AcDbLine
 10
-1.217775880135719e-015
 20
-112.5
 11
0
 21
0
  0
CIRCLE
  5
72
100
AcDbEntity
  8
tail back
  6
ByLayer
 62
  256
370
   -1
100
AcDbCircle
 10
0
 20
10.5
 40
1.5
  0
LWPOLYLINE
  5
73
100
AcDbEntity
  8
tail back
  6
ByLayer
 62
  256
370
   -1
100
AcDbPolyline
 90
    4
 70
    1
 43
0
 10
-10
 20
-4
 10
10
 20
-4
 10
10
 20
0
 10
-10
 20
0
  0
LINE
  5
74
100
AcDbEntity
  8
tail back
  6
ByLayer
 62
    1
370
   -1
100
AcDbLine
 10
-5
 20
10.5
 11
5
 21
10.5
  0
LINE
  5
75
100
AcDbEntity
  8
tail back
  6
ByLayer
 62
    1
370
   -1
100
AcDbLine
 10
0
 20
5.5
 11
0
 21
15.5
  0
CIRCLE
  5
76
100
AcDbEntity
  8
tail back
  6
ByLayer
 62
    2
370
   -1
100
AcDbCircle
 10
0
 20
10.5
 40
3
  0
LWPOLYLINE
  5
77
100
AcDbEntity
  8
tail back
  6
ByLayer
 62
  256
370
   -1
100
AcDbPolyline
 90
    4
 70
    1
 43
0
 10
-13.75
 20
22
 10
13.75
 20
22
 10
13.75
 20
38.7
 10
-13.75
 20
38.7
  0
LINE
  5
78
100
AcDbEntity
  8
tail back
  6
ByLayer
 62
    5
370
   -1
100
AcDbLine
 10
-3.018659330568421
 20
7.162681338863156
 11
-15
 21
18
  0
LINE
  5
79
100
AcDbEntity
  8
tail back
  6
ByLayer
 62
    5
370
   -1
100
AcDbLine
 10
3.018659330568421
 20
7.162681338863156
 11
15
 21
18
  0
ARC
  5
7A
100
AcDbEntity
  8
tail back
  6
ByLayer
 62
    5
370
   -1
100
AcDbCircle
 10
0
 20
10.5
 40
4.5
100
AcDbArc
 50
227.8701421615336
 51
312.1298578384664
  0
LWPOLYLINE
  5
7B
100
AcDbEntity
  8
battery
  6
ByLayer
 62
  256
370
   -1
100
AcDbPolyline
 90
    4
 70
    1
 43
0
 10
-16
 20
-35
 10
16
 20
-35
 10
16
 20
35
 10
-16
 20
35
  0
MTEXT
  5
7C
100
AcDbEntity
  8
camera 5inch
  6
ByLayer
 62
    1
370
   -1
100
AcDbMText
 10
-9.542554596324186e-015
 20
101.5625
 30
0
 40
6.25
 41
15.27777777777778
 71
    8
 72
    1
  1
100%%D
  7
standard
210
0
220
0
230
1
 50
360
 73
    2
 44
1
  0
LINE
  5
7D
100
AcDbEntity
  8
camera 5inch
  6
DASHEDTINY
 62
    1
370
   -1
100
AcDbLine
 10
-86.53122237393615
 20
130
 11
1.350308753700347e-014
 21
57.39168322071096
  0
SOLID
  5
7E
100
AcDbEntity
  8
camera 5inch
  6
ByLayer
 62
    1
370
   -1
100
AcDbTrace
 10
32.63986429942748
 20
84.77978131603702
 30
0
 11
27.5363400180061
 21
88.53472747221542
 31
0
 12
29.0284783518853
 22
89.98588084108948
 32
0
 13
29.0284783518853
 23
89.98588084108948
 33
0
  0
SOLID
  5
7F
100
AcDbEntity
  8
camera 5inch
  6
ByLayer
 62
    1
370
   -1
100
AcDbTrace
 10
-32.6398642994275
 20
84.77978131603703
 30
0
 11
-29.0284783518853
 21
89.98588084108948
 31
0
 12
-27.53634001800611
 22
88.53472747221542
 32
0
 13
-27.53634001800611
 23
88.53472747221542
 33
0
  0
ARC
  5
80
100
AcDbEntity
  8
camera 5inch
  6
ByLayer
 62
    1
370
   -1
100
AcDbCircle
 10
-1.224714774039626e-014
 20
57.39168322071095
 40
42.60831677928905
100
AcDbArc
 50
40
 51
140
  0
LINE
  5
81
100
AcDbEntity
  8
camera 5inch
  6
DASHEDTINY
 62
    1
370
   -1
100
AcDbLine
 10
86.53122237393617
 20
130
 11
1.496719415072789e-014
 21
57.39168322071096
  0
CIRCLE
  5
82
100
AcDbEntity
  8
0
  6
ByLayer
 62
    3
370
   -1
100
AcDbCircle
 10
97.42785792574935
 20
56.24999999999998
 40
63.5
  0
CIRCLE
  5
83
100
AcDbEntity
  8
0
  6
ByLayer
 62
    3
370
   -1
100
AcDbCircle
 10
-97.42785792574934
 20
56.25000000000001
 40
63.5
  0
CIRCLE
  5
84
100
AcDbEntity
  8
0
  6
ByLayer
 62
    3
370
   -1
100
AcDbCircle
 10
-1.217775880135719e-015
 20
-112.5
 40
63.5
  0
CIRCLE
  5
85
100
AcDbEntity
  8
0
  6
ByLayer
 62
    4
370
   -1
100
AcDbCircle
 10
97.42785792574935
 20
56.24999999999998
 40
76.19999999999999
  0
CIRCLE
  5
86
100
AcDbEntity
  8
0
  6
ByLayer
 62
    4
370
   -1
100
AcDbCircle
 10
-97.42785792574934
 20
56.25000000000001
 40
76.19999999999999
  0
CIRCLE
  5
87
100
AcDbEntity
  8
0
  6
ByLayer
 62
    4
370
   -1
100
AcDbCircle
 10
-1.217775880135719e-015
 20
-112.5
 40
76.19999999999999
  0
CIRCLE
  5
88
100
AcDbEntity
  8
motor-deployed
  6
ByLayer
 62
  256
370
   -1
100
AcDbCircle
 10
97.42785792574935
 20
56.24999999999999
 40
13.75
  0
CIRCLE
  5
89
100
AcDbEntity
  8
motor-deployed
  6
ByLayer
 62
  256
370
   -1
100
AcDbCircle
 10
-97.42785792574935
 20
56.24999999999999
 40
13.75
  0
CIRCLE
  5
8A
100
AcDbEntity
  8
motor-tail
  6
ByLayer
 62
  256
370
   -1
100
AcDbCircle
 10
-2.066523222075262e-014
 20
-112.5
 40
13.75
  0
LINE
  5
8B
100
AcDbEntity
  8
schema e-main body base
  6
ByLayer
 62
  256
370
   -1
100
AcDbLine
 10
-7.991819813332877
 20
85
 11
7.991819813332879
 21
85
  0
ARC
  5
8C
100
AcDbEntity
  8
schema e-main body base
  6
ByLayer
 62
  256
370
   -1
100
AcDbCircle
 10
7.991819813332881
 20
75
 40
10
100
AcDbArc
 50
12.59758640553419
 51
90
  0
ARC
  5
8D
100
AcDbEntity
  8
schema e-main body base
  6
ByLayer
 62
  256
370
   -1
100
AcDbCircle
 10
-7.991819813332881
 20
75
 40
10
100
AcDbArc
 50
90
 51
167.4024135944658
  0
CIRCLE
  5
8E
100
AcDbEntity
  8
schema e-main body base
  6
ByLayer
 62
  256
370
   -1
100
AcDbCircle
 10
-15.25
 20
15.25
 40
1.5
  0
CIRCLE
  5
8F
100
AcDbEntity
  8
schema e-main body base
  6
ByLayer
 62
  256
370
   -1
100
AcDbCircle
 10
15.25
 20
15.25
 40
1.5
  0
MTEXT
  5
90
100
AcDbEntity
  8
camera 6inch
  6
ByLayer
 62
    1
370
   -1
100
AcDbMText
 10
-9.542554596324186e-015
 20
118.5625
 30
0
 40
6.25
 41
15.27777777777778
 71
    8
 72
    1
  1
100%%D
  7
standard
210
0
220
0
230
1
 50
360
 73
    2
 44
1
  0
LINE
  5
91
100
AcDbEntity
  8
camera 6inch
  6
DASHEDTINY
 62
    1
370
   -1
100
AcDbLine
 10
-86.53122237393615
 20
147
 11
1.350308753700347e-014
 21
74.39168322071096
  0
SOLID
  5
92
100
AcDbEntity
  8
camera 6inch
  6
ByLayer
 62
    1
370
   -1
100
AcDbTrace
 10
32.63986429942748
 20
101.779781316037
 30
0
 11
27.5363400180061
 21
105.5347274722154
 31
0
 12
29.0284783518853
 22
106.9858808410895
 32
0
 13
29.0284783518853
 23
106.9858808410895
 33
0
  0
SOLID
  5
93
100
AcDbEntity
  8
camera 6inch
  6
ByLayer
 62
    1
370
   -1
100
AcDbTrace
 10
-32.6398642994275
 20
101.779781316037
 30
0
 11
-29.0284783518853
 21
106.9858808410895
 31
0
 12
-27.53634001800611
 22
105.5347274722154
 32
0
 13
-27.53634001800611
 23
105.5347274722154
 33
0
  0
ARC
  5
94
100
AcDbEntity
  8
camera 6inch
  6
ByLayer
 62
    1
370
   -1
100
AcDbCircle
 10
-1.224714774039626e-014
 20
74.39168322071095
 40
42.60831677928905
100
AcDbArc
 50
40
 51
140
  0
LINE
  5
95
100
AcDbEntity
  8
camera 6inch
  6
DASHEDTINY
 62
    1
370
   -1
100
AcDbLine
 10
86.53122237393617
 20
147
 11
1.496719415072789e-014
 21
74.39168322071096
  0
CIRCLE
  5
96
100
AcDbEntity
  8
schema e-main body base
  6
ByLayer
 62
  256
370
   -1
100
AcDbCircle
 10
12
 20
79
 40
1.5
  0
CIRCLE
  5
97
100
AcDbEntity
  8
schema e-main body base
  6
ByLayer
 62
  256
370
   -1
100
AcDbCircle
 10
-12
 20
79
 40
1.5
  0
CIRCLE
  5
98
100
AcDbEntity
  8
schema e-main body base
  6
ByLayer
 62
  256
370
   -1
100
AcDbCircle
 10
24.09400022524779
 20
23.36071267003196
 40
1.5
  0
CIRCLE
  5
99
100
AcDbEntity
  8
schema e-main body base
  6
ByLayer
 62
  256
370
   -1
100
AcDbCircle
 10
-24.09400022524779
 20
23.36071267003196
 40
1.5
  0
CIRCLE
  5
9A
100
AcDbEntity
  8
schema e-main body top v3
  6
ByLayer
 62
  256
370
   -1
100
AcDbCircle
 10
12
 20
79
 40
1.5
  0
CIRCLE
  5
9B
100
AcDbEntity
  8
schema e-main body top v3
  6
ByLayer
 62
  256
370
   -1
100
AcDbCircle
 10
-12
 20
79
 40
1.5
  0
CIRCLE
  5
9C
100
AcDbEntity
  8
schema e-main body top v3
  6
ByLayer
 62
  256
370
   -1
100
AcDbCircle
 10
12
 20
-32
 40
1.5
  0
CIRCLE
  5
9D
100
AcDbEntity
  8
schema e-main body top v3
  6
ByLayer
 62
  256
370
   -1
100
AcDbCircle
 10
-12
 20
-32
 40
1.5
  0
CIRCLE
  5
9E
100
AcDbEntity
  8
schema e-main body base
  6
ByLayer
 62
  256
370
   -1
100
AcDbCircle
 10
12
 20
-32
 40
1.5
  0
CIRCLE
  5
9F
100
AcDbEntity
  8
schema e-main body base
  6
ByLayer
 62
  256
370
   -1
100
AcDbCircle
 10
-12
 20
-32
 40
1.5
  0
ARC
  5
A0
100
AcDbEntity
  8
schema e-main body top v3
  6
ByLayer
 62
  256
370
   -1
100
AcDbCircle
 10
13.21136419039284
 20
-30
 40
5
100
AcDbArc
 50
270
 51
347.4711922908485
  0
LINE
  5
A1
100
AcDbEntity
  8
schema e-main body top v3
  6
ByLayer
 62
  256
370
   -1
100
AcDbLine
 10
-13.21136419039284
 20
-35
 11
13.21136419039284
 21
-35
  0
ARC
  5
A2
100
AcDbEntity
  8
schema e-main body top v3
  6
ByLayer
 62
  256
370
   -1
100
AcDbCircle
 10
-13.21136419039284
 20
-30
 40
5
100
AcDbArc
 50
192.5288077091515
 51
270
  0
ARC
  5
A3
100
AcDbEntity
  8
schema e-main body top v3
  6
ByLayer
 62
  256
370
   -1
100
AcDbCircle
 10
-7.991819813332881
 20
75
 40
10
100
AcDbArc
 50
124.9315335823229
 51
167.4024135944658
  0
ARC
  5
A4
100
AcDbEntity
  8
schema e-main body top v3
  6
ByLayer
 62
  256
370
   -1
100
AcDbCircle
 10
-12
 20
80.73885803894889
 40
3
100
AcDbArc
 50
0
 51
124.9315335823229
  0
ARC
  5
A5
100
AcDbEntity
  8
schema e-main body top v3
  6
ByLayer
 62
  256
370
   -1
100
AcDbCircle
 10
7.991819813332881
 20
75
 40
10
100
AcDbArc
 50
12.59758640553419
 51
55.06846641767613
  0
ARC
  5
A6
100
AcDbEntity
  8
schema e-main body top v3
  6
ByLayer
 62
  256
370
   -1
100
AcDbCircle
 10
12
 20
80.73885803894868
 40
3
100
AcDbArc
 50
55.06846641767611
 51
180
  0
LINE
  5
A7
100
AcDbEntity
  8
schema e-main body top v3
  6
ByLayer
 62
  256
370
   -1
100
AcDbLine
 10
-8.999999999999998
 20
80.73885803894889
 11
-9
 21
68
  0
ARC
  5
A8
100
AcDbEntity
  8
schema e-main body top v3
  6
ByLayer
 62
  256
370
   -1
100
AcDbCircle
 10
-5.999999999999999
 20
68
 40
3
100
AcDbArc
 50
180
 51
270
  0
LINE
  5
A9
100
AcDbEntity
  8
schema e-main body top v3
  6
ByLayer
 62
  256
370
   -1
100
AcDbLine
 10
-5.999999999999999
 20
65
 11
6.000000000000001
 21
65
  0
LINE
  5
AA
100
AcDbEntity
  8
schema e-main body top v3
  6
ByLayer
 62
  256
370
   -1
100
AcDbLine
 10
9
 20
68
 11
9
 21
80.73885803894868
  0
ARC
  5
AB
100
AcDbEntity
  8
schema e-main body top v3
  6
ByLayer
 62
  256
370
   -1
100
AcDbCircle
 10
6
 20
68
 40
3
100
AcDbArc
 50
270
 51
0
  0
CIRCLE
  5
AC
100
AcDbEntity
  8
schema e-main body top v3
  6
ByLayer
 62
  256
370
   -1
100
AcDbCircle
 10
19.56514091453516
 20
39.42678803195898
 40
1.5
  0
CIRCLE
  5
AD
100
AcDbEntity
  8
schema e-main body top v3
  6
ByLayer
 62
  256
370
   -1
100
AcDbCircle
 10
-19.56514091453516
 20
39.42678803195898
 40
1.5
  0
LINE
  5
AE
100
AcDbEntity
  8
schema e-main body top v3
  6
ByLayer
 62
  256
370
   -1
100
AcDbLine
 10
23.51851900788055
 20
51.37387284990875
 11
17.75107931727316
 21
77.18102130543271
  0
ARC
  5
AF
100
AcDbEntity
  8
schema e-main body top v3
  6
ByLayer
 62
  256
370
   -1
100
AcDbCircle
 10
4
 20
47.01183023904333
 40
20
100
AcDbArc
 50
0
 51
12.59758640553419
  0
LINE
  5
B0
100
AcDbEntity
  8
schema e-main body top v3
  6
ByLayer
 62
  256
370
   -1
100
AcDbLine
 10
24
 20
47.01183023904333
 11
24
 21
-2.85341657030331
  0
LINE
  5
B1
100
AcDbEntity
  8
schema e-main body top v3
  6
ByLayer
 62
  256
370
   -1
100
AcDbLine
 10
18.09229949131261
 20
-31.08465228909328
 11
23.64280590275929
 21
-6.107373437583146
  0
ARC
  5
B2
100
AcDbEntity
  8
schema e-main body top v3
  6
ByLayer
 62
  256
370
   -1
100
AcDbCircle
 10
9
 20
-2.853416570303308
 40
15
100
AcDbArc
 50
347.4711922908485
 51
360
  0
LINE
  5
B3
100
AcDbEntity
  8
schema e-main body top v3
  6
ByLayer
 62
  256
370
   -1
100
AcDbLine
 10
-23.51851900788055
 20
51.37387284990875
 11
-17.75107931727316
 21
77.18102130543271
  0
ARC
  5
B4
100
AcDbEntity
  8
schema e-main body top v3
  6
ByLayer
 62
  256
370
   -1
100
AcDbCircle
 10
-4
 20
47.01183023904333
 40
20
100
AcDbArc
 50
167.4024135944658
 51
180
  0
LINE
  5
B5
100
AcDbEntity
  8
schema e-main body top v3
  6
ByLayer
 62
  256
370
   -1
100
AcDbLine
 10
-24
 20
47.01183023904333
 11
-24
 21
-2.85341657030331
  0
LINE
  5
B6
100
AcDbEntity
  8
schema e-main body top v3
  6
ByLayer
 62
  256
370
   -1
100
AcDbLine
 10
-18.09229949131261
 20
-31.08465228909329
 11
-23.64280590275929
 21
-6.107373437583153
  0
ARC
  5
B7
100
AcDbEntity
  8
schema e-main body top v3
  6
ByLayer
 62
  256
370
   -1
100
AcDbCircle
 10
-9
 20
-2.853416570303311
 40
15
100
AcDbArc
 50
180
 51
192.5288077091515
  0
LINE
  5
B8
100
AcDbEntity
  8
tail top
  6
ByLayer
 62
  256
370
   -1
100
AcDbLine
 10
-20.00000000000002
 20
-112.5
 11
19.99999999999998
 21
-112.5
  0
LWPOLYLINE
  5
B9
100
AcDbEntity
  8
tail top
  6
ByLayer
 62
  256
370
   -1
100
AcDbPolyline
 90
    8
 70
    1
 43
0
 10
8
 20
-114
 10
9.499999999999996
 20
-114
 42
0.4142135623730938
 10
10.99999999999999
 20
-112.5
 10
11
 20
-112.5
 42
0.414213562373095
 10
9.5
 20
-111
 10
8
 20
-111
 42
0.4142135623730923
 10
6.499999999999986
 20
-112.5
 10
6.5
 20
-112.5
 42
0.414213562373095
  0
LWPOLYLINE
  5
BA
100
AcDbEntity
  8
tail top
  6
ByLayer
 62
  256
370
   -1
100
AcDbPolyline
 90
    8
 70
    1
 43
0
 10
-8.000000000000028
 20
-111
 10
-9.500000000000028
 20
-111
 42
0.4142135623730967
 10
-11.00000000000001
 20
-112.5
 10
-11.00000000000003
 20
-112.5
 42
0.414213562373095
 10
-9.500000000000028
 20
-114
 10
-8.000000000000032
 20
-114
 42
0.4142135623730929
 10
-6.500000000000014
 20
-112.5
 10
-6.500000000000028
 20
-112.5
 42
0.414213562373095
  0
CIRCLE
  5
BB
100
AcDbEntity
  8
servo arm
  6
ByLayer
 62
  256
370
   -1
100
AcDbCircle
 10
0
 20
-100
 40
1.25
  0
CIRCLE
  5
BC
100
AcDbEntity
  8
servo arm
  6
ByLayer
 62
  256
370
   -1
100
AcDbCircle
 10
0
 20
-93
 40
0.5
  0
CIRCLE
  5
BD
100
AcDbEntity
  8
servo arm
  6
ByLayer
 62
  256
370
   -1
100
AcDbCircle
 10
9.5
 20
-100
 40
0.5
  0
CIRCLE
  5
BE
100
AcDbEntity
  8
servo arm
  6
ByLayer
 62
  256
370
   -1
100
AcDbCircle
 10
-7
 20
-100
 40
0.5
  0
CIRCLE
  5
BF
100
AcDbEntity
  8
servo arm
  6
ByLayer
 62
  256
370
   -1
100
AcDbCircle
 10
5.816880180656292e-016
 20
-90.5
 40
0.5
  0
CIRCLE
  5
C0
100
AcDbEntity
  8
servo arm
  6
ByLayer
 62
  256
370
   -1
100
AcDbCircle
 10
-8.572244476756641e-016
 20
-107
 40
0.5
  0
CIRCLE
  5
C1
100
AcDbEntity
  8
servo arm
  6
ByLayer
 62
  256
370
   -1
100
AcDbCircle
 10
-9.5
 20
-100
 40
0.5
  0
CIRCLE
  5
C2
100
AcDbEntity
  8
servo arm
  6
ByLayer
 62
  256
370
   -1
100
AcDbCircle
 10
7
 20
-100
 40
0.5
  0
CIRCLE
  5
C3
100
AcDbEntity
  8
servo arm
  6
ByLayer
 62
  256
370
   -1
100
AcDbCircle
 10
-1.745064054196888e-015
 20
-109.5
 40
0.5
  0
CIRCLE
  5
C4
100
AcDbEntity
  8
servo arm
  6
ByLayer
 62
  256
370
   -1
100
AcDbCircle
 10
0
 20
-100
 40
4
  0
LINE
  5
C5
100
AcDbEntity
  8
servo arm
  6
ByLayer
 62
  256
370
   -1
100
AcDbLine
 10
0
 20
-112
 11
0
 21
-112
  0
ARC
  5
C6
100
AcDbEntity
  8
servo arm
  6
ByLayer
 62
  256
370
   -1
100
AcDbCircle
 10
0
 20
-109.5
 40
2.5
100
AcDbArc
 50
270
 51
0
  0
ARC
  5
C7
100
AcDbEntity
  8
servo arm
  6
ByLayer
 62
  256
370
   -1
100
AcDbCircle
 10
0
 20
-90.5
 40
2.5
100
AcDbArc
 50
0
 51
90
  0
LINE
  5
C8
100
AcDbEntity
  8
servo arm
  6
ByLayer
 62
  256
370
   -1
100
AcDbLine
 10
0
 20
-88
 11
0
 21
-88
  0
ARC
  5
C9
100
AcDbEntity
  8
servo arm
  6
ByLayer
 62
  256
370
   -1
100
AcDbCircle
 10
0
 20
-90.5
 40
2.5
100
AcDbArc
 50
90
 51
180
  0
ARC
  5
CA
100
AcDbEntity
  8
servo arm
  6
ByLayer
 62
  256
370
   -1
100
AcDbCircle
 10
0
 20
-109.5
 40
2.5
100
AcDbArc
 50
180
 51
270
  0
LINE
  5
CB
100
AcDbEntity
  8
servo arm
  6
ByLayer
 62
  256
370
   -1
100
AcDbLine
 10
12
 20
-100
 11
12
 21
-100
  0
ARC
  5
CC
100
AcDbEntity
  8
servo arm
  6
ByLayer
 62
  256
370
   -1
100
AcDbCircle
 10
9.5
 20
-100
 40
2.5
100
AcDbArc
 50
360
 51
90
  0
ARC
  5
CD
100
AcDbEntity
  8
servo arm
  6
ByLayer
 62
  256
370
   -1
100
AcDbCircle
 10
-9.5
 20
-100
 40
2.5
100
AcDbArc
 50
90
 51
180
  0
LINE
  5
CE
100
AcDbEntity
  8
servo arm
  6
ByLayer
 62
  256
370
   -1
100
AcDbLine
 10
-12
 20
-100
 11
-12
 21
-100
  0
ARC
  5
CF
100
AcDbEntity
  8
servo arm
  6
ByLayer
 62
  256
370
   -1
100
AcDbCircle
 10
-9.5
 20
-100
 40
2.5
100
AcDbArc
 50
180
 51
270
  0
ARC
  5
D0
100
AcDbEntity
  8
servo arm
  6
ByLayer
 62
  256
370
   -1
100
AcDbCircle
 10
9.5
 20
-100
 40
2.5
100
AcDbArc
 50
270
 51
360
  0
LINE
  5
D1
100
AcDbEntity
  8
servo arm
  6
ByLayer
 62
  256
370
   -1
100
AcDbLine
 10
9.5
 20
-97.5
 11
3.122498999199199
 21
-97.5
  0
LINE
  5
D2
100
AcDbEntity
  8
servo arm
  6
ByLayer
 62
  256
370
   -1
100
AcDbLine
 10
-3.122498999199199
 20
-97.5
 11
-9.5
 21
-97.5
  0
LINE
  5
D3
100
AcDbEntity
  8
servo arm
  6
ByLayer
 62
  256
370
   -1
100
AcDbLine
 10
-2.5
 20
-90.5
 11
-2.5
 21
-96.87750100080081
  0
LINE
  5
D4
100
AcDbEntity
  8
servo arm
  6
ByLayer
 62
  256
370
   -1
100
AcDbLine
 10
2.5
 20
-96.87750100080081
 11
2.5
 21
-90.5
  0
LINE
  5
D5
100
AcDbEntity
  8
servo arm
  6
ByLayer
 62
  256
370
   -1
100
AcDbLine
 10
2.5
 20
-109.5
 11
2.5
 21
-103.1224989991992
  0
LINE
  5
D6
100
AcDbEntity
  8
servo arm
  6
ByLayer
 62
  256
370
   -1
100
AcDbLine
 10
-2.5
 20
-103.1224989991992
 11
-2.5
 21
-109.5
  0
LINE
  5
D7
100
AcDbEntity
  8
servo arm
  6
ByLayer
 62
  256
370
   -1
100
AcDbLine
 10
-9.5
 20
-102.5
 11
-3.122498999199199
 21
-102.5
  0
LINE
  5
D8
100
AcDbEntity
  8
servo arm
  6
ByLayer
 62
  256
370
   -1
100
AcDbLine
 10
3.122498999199199
 20
-102.5
 11
9.5
 21
-102.5
  0
CIRCLE
  5
D9
100
AcDbEntity
  8
servo arm
  6
ByLayer
 62
  256
370
   -1
100
AcDbCircle
 10
0
 20
0
 40
1.25
  0
CIRCLE
  5
DA
100
AcDbEntity
  8
servo arm
  6
ByLayer
 62
  256
370
   -1
100
AcDbCircle
 10
4.949747468305832
 20
4.949747468305833
 40
0.5
  0
CIRCLE
  5
DB
100
AcDbEntity
  8
servo arm
  6
ByLayer
 62
  256
370
   -1
100
AcDbCircle
 10
-4.949747468305833
 20
4.949747468305833
 40
0.5
  0
CIRCLE
  5
DC
100
AcDbEntity
  8
servo arm
  6
ByLayer
 62
  256
370
   -1
100
AcDbCircle
 10
6.717514421272202
 20
6.717514421272202
 40
0.5
  0
CIRCLE
  5
DD
100
AcDbEntity
  8
servo arm
  6
ByLayer
 62
  256
370
   -1
100
AcDbCircle
 10
-6.717514421272202
 20
6.717514421272202
 40
0.5
  0
CIRCLE
  5
DE
100
AcDbEntity
  8
servo arm
  6
ByLayer
 62
  256
370
   -1
100
AcDbCircle
 10
0
 20
0
 40
4
  0
ARC
  5
DF
100
AcDbEntity
  8
servo arm
  6
ByLayer
 62
  256
370
   -1
100
AcDbCircle
 10
6.717514421272201
 20
6.717514421272202
 40
2.5
100
AcDbArc
 50
315
 51
45
  0
LINE
  5
E0
100
AcDbEntity
  8
servo arm
  6
ByLayer
 62
  256
370
   -1
100
AcDbLine
 10
8.48528137423857
 20
8.485281374238571
 11
8.48528137423857
 21
8.485281374238571
  0
ARC
  5
E1
100
AcDbEntity
  8
servo arm
  6
ByLayer
 62
  256
370
   -1
100
AcDbCircle
 10
6.717514421272201
 20
6.717514421272202
 40
2.5
100
AcDbArc
 50
45
 51
135
  0
ARC
  5
E2
100
AcDbEntity
  8
servo arm
  6
ByLayer
 62
  256
370
   -1
100
AcDbCircle
 10
-6.717514421272202
 20
6.717514421272202
 40
2.5
100
AcDbArc
 50
45
 51
135
  0
LINE
  5
E3
100
AcDbEntity
  8
servo arm
  6
ByLayer
 62
  256
370
   -1
100
AcDbLine
 10
-8.48528137423857
 20
8.48528137423857
 11
-8.48528137423857
 21
8.48528137423857
  0
ARC
  5
E4
100
AcDbEntity
  8
servo arm
  6
ByLayer
 62
  256
370
   -1
100
AcDbCircle
 10
-6.717514421272202
 20
6.717514421272202
 40
2.5
100
AcDbArc
 50
135
 51
225
  0
LINE
  5
E5
100
AcDbEntity
  8
servo arm
  6
ByLayer
 62
  256
370
   -1
100
AcDbLine
 10
-0.4401732636155929
 20
3.975707169548331
 11
-4.949747468305833
 21
8.48528137423857
  0
LINE
  5
E6
100
AcDbEntity
  8
servo arm
  6
ByLayer
 62
  256
370
   -1
100
AcDbLine
 10
4.949747468305832
 20
8.485281374238571
 11
0.4401732636155923
 21
3.975707169548331
  0
LINE
  5
E7
100
AcDbEntity
  8
servo arm
  6
ByLayer
 62
  256
370
   -1
100
AcDbLine
 10
3.97570716954833
 20
0.4401732636155929
 11
8.48528137423857
 21
4.949747468305834
  0
LINE
  5
E8
100
AcDbEntity
  8
servo arm
  6
ByLayer
 62
  256
370
   -1
100
AcDbLine
 10
-8.48528137423857
 20
4.949747468305833
 11
-3.97570716954833
 21
0.4401732636155929
  0
LINE
  5
E9
100
AcDbEntity
  8
servo arm
  6
ByLayer
 62
  256
370
   -1
100
AcDbLine
 10
4.596194077712559
 20
-1.060660171779821
 11
3.97570716954833
 21
-0.4401732636155929
  0
LINE
  5
EA
100
AcDbEntity
  8
servo arm
  6
ByLayer
 62
  256
370
   -1
100
AcDbLine
 10
0.4401732636155929
 20
-3.975707169548331
 11
1.060660171779821
 21
-4.596194077712559
  0
LINE
  5
EB
100
AcDbEntity
  8
servo arm
  6
ByLayer
 62
  256
370
   -1
100
AcDbLine
 10
4.596194077712559
 20
-1.060660171779821
 11
1.060660171779821
 21
-4.596194077712559
  0
LINE
  5
EC
100
AcDbEntity
  8
servo arm
  6
ByLayer
 62
  256
370
   -1
100
AcDbLine
 10
-1.060660171779821
 20
-4.596194077712559
 11
-0.4401732636155923
 21
-3.975707169548331
  0
LINE
  5
ED
100
AcDbEntity
  8
servo arm
  6
ByLayer
 62
  256
370
   -1
100
AcDbLine
 10
-3.97570716954833
 20
-0.4401732636155932
 11
-4.596194077712559
 21
-1.060660171779822
  0
LINE
  5
EE
100
AcDbEntity
  8
servo arm
  6
ByLayer
 62
  256
370
   -1
100
AcDbLine
 10
-4.596194077712559
 20
-1.060660171779822
 11
-1.060660171779821
 21
-4.596194077712559
  0
CIRCLE
  5
EF
100
AcDbEntity
  8
servo arm demo 45deg
  6
ByLayer
 62
  256
370
   -1
100
AcDbCircle
 10
0
 20
10.5
 40
1.25
  0
CIRCLE
  5
F0
100
AcDbEntity
  8
servo arm demo 45deg
  6
ByLayer
 62
  256
370
   -1
100
AcDbCircle
 10
4.949747468305832
 20
15.44974746830583
 40
0.5
  0
CIRCLE
  5
F1
100
AcDbEntity
  8
servo arm demo 45deg
  6
ByLayer
 62
  256
370
   -1
100
AcDbCircle
 10
-4.949747468305833
 20
15.44974746830583
 40
0.5
  0
CIRCLE
  5
F2
100
AcDbEntity
  8
servo arm demo 45deg
  6
ByLayer
 62
  256
370
   -1
100
AcDbCircle
 10
6.717514421272202
 20
17.2175144212722
 40
0.5
  0
CIRCLE
  5
F3
100
AcDbEntity
  8
servo arm demo 45deg
  6
ByLayer
 62
  256
370
   -1
100
AcDbCircle
 10
-6.717514421272202
 20
17.2175144212722
 40
0.5
  0
CIRCLE
  5
F4
100
AcDbEntity
  8
servo arm demo 45deg
  6
ByLayer
 62
  256
370
   -1
100
AcDbCircle
 10
0
 20
10.5
 40
4
  0
ARC
  5
F5
100
AcDbEntity
  8
servo arm demo 45deg
  6
ByLayer
 62
  256
370
   -1
100
AcDbCircle
 10
6.717514421272201
 20
17.2175144212722
 40
2.5
100
AcDbArc
 50
315
 51
45
  0
LINE
  5
F6
100
AcDbEntity
  8
servo arm demo 45deg
  6
ByLayer
 62
  256
370
   -1
100
AcDbLine
 10
8.48528137423857
 20
18.98528137423857
 11
8.48528137423857
 21
18.98528137423857
  0
ARC
  5
F7
100
AcDbEntity
  8
servo arm demo 45deg
  6
ByLayer
 62
  256
370
   -1
100
AcDbCircle
 10
6.717514421272201
 20
17.2175144212722
 40
2.5
100
AcDbArc
 50
45
 51
135
  0
ARC
  5
F8
100
AcDbEntity
  8
servo arm demo 45deg
  6
ByLayer
 62
  256
370
   -1
100
AcDbCircle
 10
-6.717514421272202
 20
17.2175144212722
 40
2.5
100
AcDbArc
 50
45
 51
135
  0
LINE
  5
F9
100
AcDbEntity
  8
servo arm demo 45deg
  6
ByLayer
 62
  256
370
   -1
100
AcDbLine
 10
-8.48528137423857
 20
18.98528137423857
 11
-8.48528137423857
 21
18.98528137423857
  0
ARC
  5
FA
100
AcDbEntity
  8
servo arm demo 45deg
  6
ByLayer
 62
  256
370
   -1
100
AcDbCircle
 10
-6.717514421272202
 20
17.2175144212722
 40
2.5
100
AcDbArc
 50
135
 51
225
  0
LINE
  5
FB
100
AcDbEntity
  8
servo arm demo 45deg
  6
ByLayer
 62
  256
370
   -1
100
AcDbLine
 10
-0.4401732636155929
 20
14.47570716954833
 11
-4.949747468305833
 21
18.98528137423857
  0
LINE
  5
FC
100
AcDbEntity
  8
servo arm demo 45deg
  6
ByLayer
 62
  256
370
   -1
100
AcDbLine
 10
4.949747468305832
 20
18.98528137423857
 11
0.4401732636155923
 21
14.47570716954833
  0
LINE
  5
FD
100
AcDbEntity
  8
servo arm demo 45deg
  6
ByLayer
 62
  256
370
   -1
100
AcDbLine
 10
3.97570716954833
 20
10.94017326361559
 11
8.48528137423857
 21
15.44974746830583
  0
LINE
  5
FE
100
AcDbEntity
  8
servo arm demo 45deg
  6
ByLayer
 62
  256
370
   -1
100
AcDbLine
 10
-8.48528137423857
 20
15.44974746830583
 11
-3.97570716954833
 21
10.94017326361559
  0
LINE
  5
FF
100
AcDbEntity
  8
servo arm demo 45deg
  6
ByLayer
 62
  256
370
   -1
100
AcDbLine
 10
4.596194077712559
 20
9.439339828220179
 11
3.97570716954833
 21
10.05982673638441
  0
LINE
  5
100
100
AcDbEntity
  8
servo arm demo 45deg
  6
ByLayer
 62
  256
370
   -1
100
AcDbLine
 10
0.4401732636155929
 20
6.524292830451669
 11
1.060660171779821
 21
5.903805922287441
  0
LINE
  5
101
100
AcDbEntity
  8
servo arm demo 45deg
  6
ByLayer
 62
  256
370
   -1
100
AcDbLine
 10
4.596194077712559
 20
9.439339828220179
 11
1.060660171779821
 21
5.903805922287441
  0
LINE
  5
102
100
AcDbEntity
  8
servo arm demo 45deg
  6
ByLayer
 62
  256
370
   -1
100
AcDbLine
 10
-1.060660171779821
 20
5.903805922287441
 11
-0.4401732636155923
 21
6.524292830451669
  0
LINE
  5
103
100
AcDbEntity
  8
servo arm demo 45deg
  6
ByLayer
 62
  256
370
   -1
100
AcDbLine
 10
-3.97570716954833
 20
10.05982673638441
 11
-4.596194077712559
 21
9.439339828220179
  0
LINE
  5
104
100
AcDbEntity
  8
servo arm demo 45deg
  6
ByLayer
 62
  256
370
   -1
100
AcDbLine
 10
-4.596194077712559
 20
9.439339828220179
 11
-1.060660171779821
 21
5.903805922287441
  0
LINE
  5
105
100
AcDbEntity
  8
schema e-main body middle
  6
ByLayer
 62
  256
370
   -1
100
AcDbLine
 10
-7.991819813332877
 20
85
 11
7.991819813332879
 21
85
  0
LINE
  5
106
100
AcDbEntity
  8
schema e-main body middle
  6
ByLayer
 62
  256
370
   -1
100
AcDbLine
 10
7.991819813332881
 20
85
 11
-7.991819813332879
 21
85
  0
ARC
  5
107
100
AcDbEntity
  8
schema e-main body middle
  6
ByLayer
 62
  256
370
   -1
100
AcDbCircle
 10
7.991819813332881
 20
75
 40
10
100
AcDbArc
 50
12.59758640553419
 51
90
  0
LINE
  5
108
100
AcDbEntity
  8
schema e-main body middle
  6
ByLayer
 62
  256
370
   -1
100
AcDbLine
 10
29.74267648489348
 20
23.52308209410362
 11
17.75107931727316
 21
77.18102130543271
  0
ARC
  5
109
100
AcDbEntity
  8
schema e-main body middle
  6
ByLayer
 62
  256
370
   -1
100
AcDbCircle
 10
24.86304673292334
 20
22.43257144138727
 40
5
100
AcDbArc
 50
347.4711922908485
 51
12.59758640553419
  0
LINE
  5
10A
100
AcDbEntity
  8
schema e-main body middle
  6
ByLayer
 62
  256
370
   -1
100
AcDbLine
 10
7.991819813332877
 20
85
 11
-7.991819813332879
 21
85
  0
LINE
  5
10B
100
AcDbEntity
  8
schema e-main body middle
  6
ByLayer
 62
  256
370
   -1
100
AcDbLine
 10
-7.991819813332881
 20
85
 11
7.991819813332879
 21
85
  0
ARC
  5
10C
100
AcDbEntity
  8
schema e-main body middle
  6
ByLayer
 62
  256
370
   -1
100
AcDbCircle
 10
-7.991819813332881
 20
75
 40
10
100
AcDbArc
 50
90
 51
167.4024135944658
  0
LINE
  5
10D
100
AcDbEntity
  8
schema e-main body middle
  6
ByLayer
 62
  256
370
   -1
100
AcDbLine
 10
-29.74267648489348
 20
23.52308209410362
 11
-17.75107931727316
 21
77.18102130543271
  0
ARC
  5
10E
100
AcDbEntity
  8
schema e-main body middle
  6
ByLayer
 62
  256
370
   -1
100
AcDbCircle
 10
-24.86304673292334
 20
22.43257144138727
 40
5
100
AcDbArc
 50
167.4024135944658
 51
192.5288077091515
  0
CIRCLE
  5
10F
100
AcDbEntity
  8
schema e-main body middle
  6
ByLayer
 62
  256
370
   -1
100
AcDbCircle
 10
-15.25
 20
15.25
 40
1.5
  0
CIRCLE
  5
110
100
AcDbEntity
  8
schema e-main body middle
  6
ByLayer
 62
  256
370
   -1
100
AcDbCircle
 10
15.25
 20
15.25
 40
1.5
  0
CIRCLE
  5
111
100
AcDbEntity
  8
schema e-main body middle
  6
ByLayer
 62
  256
370
   -1
100
AcDbCircle
 10
12
 20
79
 40
1.5
  0
CIRCLE
  5
112
100
AcDbEntity
  8
schema e-main body middle
  6
ByLayer
 62
  256
370
   -1
100
AcDbCircle
 10
-12
 20
79
 40
1.5
  0
CIRCLE
  5
113
100
AcDbEntity
  8
schema e-main body middle
  6
ByLayer
 62
  256
370
   -1
100
AcDbCircle
 10
24.09400022524779
 20
23.36071267003196
 40
1.5
  0
CIRCLE
  5
114
100
AcDbEntity
  8
schema e-main body middle
  6
ByLayer
 62
  256
370
   -1
100
AcDbCircle
 10
-24.09400022524779
 20
23.36071267003196
 40
1.5
  0
CIRCLE
  5
115
100
AcDbEntity
  8
schema e-main body middle
  6
ByLayer
 62
  256
370
   -1
100
AcDbCircle
 10
12
 20
-32
 40
1.5
  0
CIRCLE
  5
116
100
AcDbEntity
  8
schema e-main body middle
  6
ByLayer
 62
  256
370
   -1
100
AcDbCircle
 10
-12
 20
-32
 40
1.5
  0
CIRCLE
  5
117
100
AcDbEntity
  8
schema e-main body middle
  6
ByLayer
 62
  256
370
   -1
100
AcDbCircle
 10
19.56514091453516
 20
39.42678803195898
 40
1.5
  0
CIRCLE
  5
118
100
AcDbEntity
  8
schema e-main body middle
  6
ByLayer
 62
  256
370
   -1
100
AcDbCircle
 10
-19.56514091453516
 20
39.42678803195898
 40
1.5
  0
LINE
  5
119
100
AcDbEntity
  8
servo
  6
ByLayer
 62
    5
370
   -1
100
AcDbLine
 10
5.999999999999985
 20
-63
 11
-6.000000000000015
 21
-63
  0
LINE
  5
11A
100
AcDbEntity
  8
servo
  6
ByLayer
 62
    5
370
   -1
100
AcDbLine
 10
5.99999999999998
 20
-89.5
 11
-6.00000000000002
 21
-89.5
  0
LINE
  5
11B
100
AcDbEntity
  8
servo
  6
ByLayer
 62
    5
370
   -1
100
AcDbLine
 10
5.999999999999979
 20
-95.5
 11
-6.000000000000021
 21
-95.5
  0
LINE
  5
11C
100
AcDbEntity
  8
servo
  6
ByLayer
 62
    5
370
   -1
100
AcDbLine
 10
-6.000000000000015
 20
-63
 11
-6.00000000000002
 21
-89.5
  0
LINE
  5
11D
100
AcDbEntity
  8
servo
  6
ByLayer
 62
    5
370
   -1
100
AcDbLine
 10
5.999999999999985
 20
-63
 11
5.99999999999998
 21
-89.5
  0
LINE
  5
11E
100
AcDbEntity
  8
servo
  6
ByLayer
 62
    5
370
   -1
100
AcDbLine
 10
5.99999999999998
 20
-93.5
 11
-6.00000000000002
 21
-93.5
  0
LINE
  5
11F
100
AcDbEntity
  8
servo
  6
ByLayer
 62
    5
370
   -1
100
AcDbLine
 10
-6.000000000000021
 20
-95.5
 11
-6.00000000000002
 21
-93.5
  0
LINE
  5
120
100
AcDbEntity
  8
servo
  6
ByLayer
 62
    5
370
   -1
100
AcDbLine
 10
5.999999999999979
 20
-95.5
 11
5.99999999999998
 21
-93.5
  0
LINE
  5
121
100
AcDbEntity
  8
esc-tail
  6
ByLayer
 62
    1
370
   -1
100
AcDbLine
 10
-8.5
 20
-58
 11
-8.5
 21
-23
  0
LINE
  5
122
100
AcDbEntity
  8
esc-tail
  6
ByLayer
 62
    1
370
   -1
100
AcDbLine
 10
8.5
 20
-23
 11
8.5
 21
-58
  0
LINE
  5
123
100
AcDbEntity
  8
esc-tail
  6
ByLayer
 62
    1
370
   -1
100
AcDbLine
 10
-8.5
 20
-23
 11
8.5
 21
-23
  0
LINE
  5
124
100
AcDbEntity
  8
esc-tail
  6
ByLayer
 62
    1
370
   -1
100
AcDbLine
 10
-8.5
 20
-58
 11
8.5
 21
-58
  0
LINE
  5
125
100
AcDbEntity
  8
schema e-main body middle
  6
ByLayer
 62
  256
370
   -1
100
AcDbLine
 10
-12.68029111193196
 20
-55.43868999630624
 11
-29.7439820338431
 21
21.34791915229399
  0
ARC
  5
126
100
AcDbEntity
  8
schema e-main body middle
  6
ByLayer
 62
  256
370
   -1
100
AcDbCircle
 10
-7.799355811012191
 20
-54.35403770721297
 40
5
100
AcDbArc
 50
192.5288077091515
 51
270
  0
LINE
  5
127
100
AcDbEntity
  8
schema e-main body middle
  6
ByLayer
 62
  256
370
   -1
100
AcDbLine
 10
12.68029111193196
 20
-55.43868999630624
 11
29.7439820338431
 21
21.34791915229399
  0
LINE
  5
128
100
AcDbEntity
  8
schema e-main body middle
  6
ByLayer
 62
  256
370
   -1
100
AcDbLine
 10
-7.799355811012191
 20
-59.35403770721297
 11
7.799355811012191
 21
-59.35403770721297
  0
ARC
  5
129
100
AcDbEntity
  8
schema e-main body middle
  6
ByLayer
 62
  256
370
   -1
100
AcDbCircle
 10
7.79935581101219
 20
-54.35403770721297
 40
5
100
AcDbArc
 50
270
 51
347.4711922908485
  0
ARC
  5
12A
100
AcDbEntity
  8
schema e-main body middle
  6
ByLayer
 62
  256
370
   -1
100
AcDbCircle
 10
9.5
 20
-24
 40
1
100
AcDbArc
 50
0
 51
90
  0
LINE
  5
12B
100
AcDbEntity
  8
schema e-main body middle
  6
ByLayer
 62
  256
370
   -1
100
AcDbLine
 10
9.5
 20
-23
 11
9.5
 21
-23
  0
ARC
  5
12C
100
AcDbEntity
  8
schema e-main body middle
  6
ByLayer
 62
  256
370
   -1
100
AcDbCircle
 10
9.5
 20
-24
 40
1
100
AcDbArc
 50
90
 51
180
  0
LINE
  5
12D
100
AcDbEntity
  8
schema e-main body middle
  6
ByLayer
 62
  256
370
   -1
100
AcDbLine
 10
10.5
 20
-24
 11
10.5
 21
-27
  0
ARC
  5
12E
100
AcDbEntity
  8
schema e-main body middle
  6
ByLayer
 62
  256
370
   -1
100
AcDbCircle
 10
9.5
 20
-27
 40
1
100
AcDbArc
 50
270
 51
0
  0
LINE
  5
12F
100
AcDbEntity
  8
schema e-main body middle
  6
ByLayer
 62
  256
370
   -1
100
AcDbLine
 10
8.5
 20
-27
 11
8.5
 21
-24
  0
LINE
  5
130
100
AcDbEntity
  8
schema e-main body middle
  6
ByLayer
 62
  256
370
   -1
100
AcDbLine
 10
9.5
 20
-28
 11
9.5
 21
-28
  0
ARC
  5
131
100
AcDbEntity
  8
schema e-main body middle
  6
ByLayer
 62
  256
370
   -1
100
AcDbCircle
 10
9.5
 20
-27
 40
1
100
AcDbArc
 50
180
 51
270
  0
ARC
  5
132
100
AcDbEntity
  8
schema e-main body middle
  6
ByLayer
 62
  256
370
   -1
100
AcDbCircle
 10
-9.5
 20
-24
 40
1
100
AcDbArc
 50
90
 51
180
  0
LINE
  5
133
100
AcDbEntity
  8
schema e-main body middle
  6
ByLayer
 62
  256
370
   -1
100
AcDbLine
 10
-10.5
 20
-27
 11
-10.5
 21
-24
  0
ARC
  5
134
100
AcDbEntity
  8
schema e-main body middle
  6
ByLayer
 62
  256
370
   -1
100
AcDbCircle
 10
-9.5
 20
-27
 40
1
100
AcDbArc
 50
180
 51
270
  0
LINE
  5
135
100
AcDbEntity
  8
schema e-main body middle
  6
ByLayer
 62
  256
370
   -1
100
AcDbLine
 10
-9.5
 20
-28
 11
-9.5
 21
-28
  0
ARC
  5
136
100
AcDbEntity
  8
schema e-main body middle
  6
ByLayer
 62
  256
370
   -1
100
AcDbCircle
 10
-9.5
 20
-27
 40
1
100
AcDbArc
 50
270
 51
0
  0
LINE
  5
137
100
AcDbEntity
  8
schema e-main body middle
  6
ByLayer
 62
  256
370
   -1
100
AcDbLine
 10
-8.5
 20
-24
 11
-8.5
 21
-27
  0
LINE
  5
138
100
AcDbEntity
  8
schema e-main body middle
  6
ByLayer
 62
  256
370
   -1
100
AcDbLine
 10
-9.5
 20
-23
 11
-9.5
 21
-23
  0
ARC
  5
139
100
AcDbEntity
  8
schema e-main body middle
  6
ByLayer
 62
  256
370
   -1
100
AcDbCircle
 10
-9.5
 20
-24
 40
1
100
AcDbArc
 50
0
 51
90
  0
ARC
  5
13A
100
AcDbEntity
  8
schema e-main body middle
  6
ByLayer
 62
  256
370
   -1
100
AcDbCircle
 10
9.5
 20
-47
 40
1
100
AcDbArc
 50
90
 51
180
  0
LINE
  5
13B
100
AcDbEntity
  8
schema e-main body middle
  6
ByLayer
 62
  256
370
   -1
100
AcDbLine
 10
9.5
 20
-46
 11
9.5
 21
-46
  0
ARC
  5
13C
100
AcDbEntity
  8
schema e-main body middle
  6
ByLayer
 62
  256
370
   -1
100
AcDbCircle
 10
9.5
 20
-47
 40
1
100
AcDbArc
 50
0
 51
90
  0
LINE
  5
13D
100
AcDbEntity
  8
schema e-main body middle
  6
ByLayer
 62
  256
370
   -1
100
AcDbLine
 10
10.5
 20
-47
 11
10.5
 21
-50
  0
ARC
  5
13E
100
AcDbEntity
  8
schema e-main body middle
  6
ByLayer
 62
  256
370
   -1
100
AcDbCircle
 10
9.5
 20
-50
 40
1
100
AcDbArc
 50
270
 51
0
  0
LINE
  5
13F
100
AcDbEntity
  8
schema e-main body middle
  6
ByLayer
 62
  256
370
   -1
100
AcDbLine
 10
8.5
 20
-47
 11
8.5
 21
-50
  0
LINE
  5
140
100
AcDbEntity
  8
schema e-main body middle
  6
ByLayer
 62
  256
370
   -1
100
AcDbLine
 10
9.5
 20
-51
 11
9.5
 21
-51
  0
ARC
  5
141
100
AcDbEntity
  8
schema e-main body middle
  6
ByLayer
 62
  256
370
   -1
100
AcDbCircle
 10
9.5
 20
-50
 40
1
100
AcDbArc
 50
180
 51
270
  0
ARC
  5
142
100
AcDbEntity
  8
schema e-main body middle
  6
ByLayer
 62
  256
370
   -1
100
AcDbCircle
 10
-9.5
 20
-47
 40
1
100
AcDbArc
 50
90
 51
180
  0
LINE
  5
143
100
AcDbEntity
  8
schema e-main body middle
  6
ByLayer
 62
  256
370
   -1
100
AcDbLine
 10
-10.5
 20
-50
 11
-10.5
 21
-47
  0
ARC
  5
144
100
AcDbEntity
  8
schema e-main body middle
  6
ByLayer
 62
  256
370
   -1
100
AcDbCircle
 10
-9.5
 20
-50
 40
1
100
AcDbArc
 50
180
 51
270
  0
LINE
  5
145
100
AcDbEntity
  8
schema e-main body middle
  6
ByLayer
 62
  256
370
   -1
100
AcDbLine
 10
-9.5
 20
-51
 11
-9.5
 21
-51
  0
ARC
  5
146
100
AcDbEntity
  8
schema e-main body middle
  6
ByLayer
 62
  256
370
   -1
100
AcDbCircle
 10
-9.5
 20
-50
 40
1
100
AcDbArc
 50
270
 51
0
  0
LINE
  5
147
100
AcDbEntity
  8
schema e-main body middle
  6
ByLayer
 62
  256
370
   -1
100
AcDbLine
 10
-8.5
 20
-47
 11
-8.5
 21
-50
  0
LINE
  5
148
100
AcDbEntity
  8
schema e-main body middle
  6
ByLayer
 62
  256
370
   -1
100
AcDbLine
 10
-9.5
 20
-46
 11
-9.5
 21
-46
  0
ARC
  5
149
100
AcDbEntity
  8
schema e-main body middle
  6
ByLayer
 62
  256
370
   -1
100
AcDbCircle
 10
-9.5
 20
-47
 40
1
100
AcDbArc
 50
0
 51
90
  0
ARC
  5
14A
100
AcDbEntity
  8
schema e-main body middle
  6
ByLayer
 62
  256
370
   -1
100
AcDbCircle
 10
-3
 20
-14
 40
2
100
AcDbArc
 50
90
 51
180
  0
LINE
  5
14B
100
AcDbEntity
  8
schema e-main body middle
  6
ByLayer
 62
  256
370
   -1
100
AcDbLine
 10
-5
 20
-14
 11
-5
 21
-20
  0
ARC
  5
14C
100
AcDbEntity
  8
schema e-main body middle
  6
ByLayer
 62
  256
370
   -1
100
AcDbCircle
 10
-3
 20
-20
 40
2
100
AcDbArc
 50
180
 51
270
  0
LINE
  5
14D
100
AcDbEntity
  8
schema e-main body middle
  6
ByLayer
 62
  256
370
   -1
100
AcDbLine
 10
-3
 20
-22
 11
3
 21
-22
  0
ARC
  5
14E
100
AcDbEntity
  8
schema e-main body middle
  6
ByLayer
 62
  256
370
   -1
100
AcDbCircle
 10
3
 20
-20
 40
2
100
AcDbArc
 50
270
 51
0
  0
LINE
  5
14F
100
AcDbEntity
  8
schema e-main body middle
  6
ByLayer
 62
  256
370
   -1
100
AcDbLine
 10
5
 20
-20
 11
5
 21
-14
  0
LINE
  5
150
100
AcDbEntity
  8
schema e-main body middle
  6
ByLayer
 62
  256
370
   -1
100
AcDbLine
 10
3
 20
-12
 11
-3
 21
-12
  0
ARC
  5
151
100
AcDbEntity
  8
schema e-main body middle
  6
ByLayer
 62
  256
370
   -1
100
AcDbCircle
 10
3
 20
-14
 40
2
100
AcDbArc
 50
0
 51
90
  0
ARC
  5
152
100
AcDbEntity
  8
schema e-main body middle
  6
ByLayer
 62
  256
370
   -1
100
AcDbCircle
 10
-3
 20
14
 40
2
100
AcDbArc
 50
180
 51
270
  0
LINE
  5
153
100
AcDbEntity
  8
schema e-main body middle
  6
ByLayer
 62
  256
370
   -1
100
AcDbLine
 10
-5
 20
14
 11
-5
 21
20
  0
ARC
  5
154
100
AcDbEntity
  8
schema e-main body middle
  6
ByLayer
 62
  256
370
   -1
100
AcDbCircle
 10
-3
 20
20
 40
2
100
AcDbArc
 50
90
 51
180
  0
LINE
  5
155
100
AcDbEntity
  8
schema e-main body middle
  6
ByLayer
 62
  256
370
   -1
100
AcDbLine
 10
-3
 20
22
 11
3
 21
22
  0
ARC
  5
156
100
AcDbEntity
  8
schema e-main body middle
  6
ByLayer
 62
  256
370
   -1
100
AcDbCircle
 10
3
 20
20
 40
2
100
AcDbArc
 50
0
 51
90
  0
LINE
  5
157
100
AcDbEntity
  8
schema e-main body middle
  6
ByLayer
 62
  256
370
   -1
100
AcDbLine
 10
5
 20
20
 11
5
 21
14
  0
LINE
  5
158
100
AcDbEntity
  8
schema e-main body middle
  6
ByLayer
 62
  256
370
   -1
100
AcDbLine
 10
3
 20
12
 11
-3
 21
12
  0
ARC
  5
159
100
AcDbEntity
  8
schema e-main body middle
  6
ByLayer
 62
  256
370
   -1
100
AcDbCircle
 10
3
 20
14
 40
2
100
AcDbArc
 50
270
 51
0
  0
LWPOLYLINE
  5
15A
100
AcDbEntity
  8
vtx
  6
ByLayer
 62
  256
370
   -1
100
AcDbPolyline
 90
    4
 70
    1
 43
0
 10
-13
 20
40
 10
13
 20
40
 10
13
 20
72
 10
-13
 20
72
  0
LWPOLYLINE
  5
15B
100
AcDbEntity
  8
vtx
  6
ByLayer
 62
  256
370
   -1
100
AcDbPolyline
 90
    4
 70
    1
 43
0
 10
13
 20
40
 10
4
 20
40
 10
4
 20
31
 10
13
 20
31
  0
LINE
  5
15C
100
AcDbEntity
  8
tail top
  6
ByLayer
 62
  256
370
   -1
100
AcDbLine
 10
-8.999999999999996
 20
-95.5
 11
-14
 21
-107.1148351928653
  0
LINE
  5
15D
100
AcDbEntity
  8
tail top
  6
ByLayer
 62
  256
370
   -1
100
AcDbLine
 10
13.77190977727576
 20
-106.5557169409107
 11
8.999999999999991
 21
-95.5
  0
LINE
  5
15E
100
AcDbEntity
  8
tail top
  6
ByLayer
 62
  256
370
   -1
100
AcDbLine
 10
-8.999999999999996
 20
-95.5
 11
8.999999999999991
 21
-95.5
  0
LINE
  5
15F
100
AcDbEntity
  8
tail top
  6
ByLayer
 62
  256
370
   -1
100
AcDbLine
 10
-13.77190977727578
 20
-118.4442830590893
 11
-8.999999999999996
 21
-129.5
  0
LINE
  5
160
100
AcDbEntity
  8
tail top
  6
ByLayer
 62
  256
370
   -1
100
AcDbLine
 10
13.77190977727576
 20
-118.4442830590893
 11
8.999999999999996
 21
-129.5
  0
LINE
  5
161
100
AcDbEntity
  8
tail top
  6
ByLayer
 62
  256
370
   -1
100
AcDbLine
 10
-8.999999999999996
 20
-129.5
 11
8.999999999999996
 21
-129.5
  0
ARC
  5
162
100
AcDbEntity
  8
tail top
  6
ByLayer
 62
  256
370
   -1
100
AcDbCircle
 10
-2.066523222075262e-014
 20
-112.5
 40
15
100
AcDbArc
 50
154.4572667288449
 51
203.3461738761322
  0
ARC
  5
163
100
AcDbEntity
  8
tail top
  6
ByLayer
 62
  256
370
   -1
100
AcDbCircle
 10
-2.066523222075262e-014
 20
-112.5
 40
15
100
AcDbArc
 50
336.653826123868
 51
383.3461771089396
  0
LINE
  5
164
100
AcDbEntity
  8
tail top
  6
ByLayer
 62
  136
420
32896
370
   -1
100
AcDbLine
 10
-6.717514421272213
 20
-182.7824855787278
 11
-6.717514421272202
 21
27.2175144212722
  0
LINE
  5
165
100
AcDbEntity
  8
tail top
  6
ByLayer
 62
  136
420
32896
370
   -1
100
AcDbLine
 10
6.717514421272213
 20
-182.7824855787278
 11
6.717514421272202
 21
27.2175144212722
  0
LINE
  5
166
100
AcDbEntity
  8
tail top
  6
ByLayer
 62
  136
420
32896
370
   -1
100
AcDbLine
 10
-15
 20
22
 11
-15.00000000000004
 21
-182
  0
LINE
  5
167
100
AcDbEntity
  8
tail top
  6
ByLayer
 62
  136
420
32896
370
   -1
100
AcDbLine
 10
15
 20
22
 11
15.00000000000004
 21
-182
  0
LINE
  5
168
100
AcDbEntity
  8
tail top
  6
ByLayer
 62
  136
420
32896
370
   -1
100
AcDbLine
 10
-9.217514421272213
 20
-182.7824855787278
 11
-9.217514421272202
 21
27.2175144212722
  0
LINE
  5
169
100
AcDbEntity
  8
tail top
  6
ByLayer
 62
  136
420
32896
370
   -1
100
AcDbLine
 10
9.217514421272213
 20
-182.7824855787278
 11
9.217514421272202
 21
27.2175144212722
  0
LINE
  5
16A
100
AcDbEntity
  8
tail side
  6
ByLayer
 62
    2
370
   -1
100
AcDbLine
 10
-20.00000000000002
 20
-109.5
 11
29.99999999999998
 21
-109.5
  0
LINE
  5
16B
100
AcDbEntity
  8
tail side
  6
ByLayer
 62
    2
370
   -1
100
AcDbLine
 10
-20.00000000000002
 20
-115.5
 11
29.99999999999998
 21
-115.5
  0
LINE
  5
16C
100
AcDbEntity
  8
tail side
  6
ByLayer
 62
    2
370
   -1
100
AcDbLine
 10
-3.499999999999997
 20
-95.5
 11
-3.5
 21
-115.5
  0
LINE
  5
16D
100
AcDbEntity
  8
tail side
  6
ByLayer
 62
    2
370
   -1
100
AcDbLine
 10
3.499999999999997
 20
-95.5
 11
3.5
 21
-115.5
  0
LINE
  5
16E
100
AcDbEntity
  8
tail side
  6
ByLayer
 62
   56
420
8421376
370
   -1
100
AcDbLine
 10
30
 20
-40
 11
30
 21
-180
  0
LINE
  5
16F
100
AcDbEntity
  8
tail side
  6
ByLayer
 62
    1
370
   -1
100
AcDbLine
 10
40.5
 20
-40
 11
40.5
 21
-180
  0
LINE
  5
170
100
AcDbEntity
  8
tail side
  6
ByLayer
 62
    5
370
   -1
100
AcDbLine
 10
49.7
 20
-93.5
 11
49.7
 21
-95.5
  0
LINE
  5
171
100
AcDbEntity
  8
servo
  6
ByLayer
 62
    5
370
   -1
100
AcDbLine
 10
4
 20
-93.5
 11
4
 21
-89.5
  0
LINE
  5
172
100
AcDbEntity
  8
servo
  6
ByLayer
 62
    5
370
   -1
100
AcDbLine
 10
-4
 20
-89.5
 11
-4
 21
-93.5
  0
LINE
  5
173
100
AcDbEntity
  8
tail side
  6
ByLayer
 62
    5
370
   -1
100
AcDbLine
 10
36
 20
-93.5
 11
36
 21
-95.5
  0
LINE
  5
174
100
AcDbEntity
  8
tail side
  6
ByLayer
 62
    5
370
   -1
100
AcDbLine
 10
36
 20
-93.5
 11
49.7
 21
-93.5
  0
LINE
  5
175
100
AcDbEntity
  8
tail side
  6
ByLayer
 62
    5
370
   -1
100
AcDbLine
 10
36
 20
-95.5
 11
49.7
 21
-95.5
  0
LINE
  5
176
100
AcDbEntity
  8
tail side
  6
ByLayer
 62
    5
370
   -1
100
AcDbLine
 10
44.5
 20
-89.5
 11
44.5
 21
-93.5
  0
LINE
  5
177
100
AcDbEntity
  8
tail side
  6
ByLayer
 62
    5
370
   -1
100
AcDbLine
 10
36.5
 20
-89.5
 11
36.5
 21
-93.5
  0
LINE
  5
178
100
AcDbEntity
  8
tail side
  6
ByLayer
 62
    5
370
   -1
100
AcDbLine
 10
34.5
 20
-63
 11
57.5
 21
-63
  0
LINE
  5
179
100
AcDbEntity
  8
tail side
  6
ByLayer
 62
    5
370
   -1
100
AcDbLine
 10
34.5
 20
-89.5
 11
57.5
 21
-89.5
  0
LINE
  5
17A
100
AcDbEntity
  8
tail side
  6
ByLayer
 62
    5
370
   -1
100
AcDbLine
 10
34.5
 20
-84
 11
34.5
 21
-89.5
  0
LINE
  5
17B
100
AcDbEntity
  8
tail side
  6
ByLayer
 62
    5
370
   -1
100
AcDbLine
 10
34.5
 20
-63
 11
34.5
 21
-82.5
  0
LINE
  5
17C
100
AcDbEntity
  8
tail side
  6
ByLayer
 62
    5
370
   -1
100
AcDbLine
 10
30
 20
-82.5
 11
30
 21
-84
  0
LINE
  5
17D
100
AcDbEntity
  8
tail side
  6
ByLayer
 62
    5
370
   -1
100
AcDbLine
 10
30
 20
-82.5
 11
34.5
 21
-82.5
  0
LINE
  5
17E
100
AcDbEntity
  8
tail side
  6
ByLayer
 62
    5
370
   -1
100
AcDbLine
 10
30
 20
-84
 11
34.5
 21
-84
  0
LINE
  5
17F
100
AcDbEntity
  8
tail side
  6
ByLayer
 62
    5
370
   -1
100
AcDbLine
 10
57.5
 20
-63
 11
57.5
 21
-82.5
  0
LINE
  5
180
100
AcDbEntity
  8
tail side
  6
ByLayer
 62
    5
370
   -1
100
AcDbLine
 10
57.5
 20
-84
 11
57.5
 21
-89.5
  0
LINE
  5
181
100
AcDbEntity
  8
tail side
  6
ByLayer
 62
    5
370
   -1
100
AcDbLine
 10
57.5
 20
-82.5
 11
62
 21
-82.5
  0
LINE
  5
182
100
AcDbEntity
  8
tail side
  6
ByLayer
 62
    5
370
   -1
100
AcDbLine
 10
62
 20
-82.5
 11
62
 21
-84
  0
LINE
  5
183
100
AcDbEntity
  8
tail side
  6
ByLayer
 62
    5
370
   -1
100
AcDbLine
 10
57.5
 20
-84
 11
62
 21
-84
  0
LINE
  5
184
100
AcDbEntity
  8
tail side
  6
ByLayer
 62
  256
370
   -1
100
AcDbLine
 10
39
 20
-40
 11
39
 21
-180
  0
LINE
  5
185
100
AcDbEntity
  8
tail side
  6
ByLayer
 62
  256
370
   -1
100
AcDbLine
 10
42
 20
-40
 11
42
 21
-180
  0
LINE
  5
186
100
AcDbEntity
  8
tail side
  6
ByLayer
 62
    2
370
   -1
100
AcDbLine
 10
5.999999999999979
 20
-95.5
 11
36
 21
-95.5
  0
LINE
  5
187
100
AcDbEntity
  8
tail side
  6
ByLayer
 62
  216
420
8388736
370
   -1
100
AcDbLine
 10
52
 20
-95.5
 11
52
 21
-129.5
  0
LINE
  5
188
100
AcDbEntity
  8
tail side
  6
ByLayer
 62
  216
420
8388736
370
   -1
100
AcDbLine
 10
52
 20
-95.5
 11
36
 21
-95.5
  0
LINE
  5
189
100
AcDbEntity
  8
tail side
  6
ByLayer
 62
    1
370
   -1
100
AcDbLine
 10
47.2175
 20
-40.00000000000001
 11
47.2175
 21
-180
  0
LINE
  5
18A
100
AcDbEntity
  8
tail side
  6
ByLayer
 62
    2
370
   -1
100
AcDbLine
 10
8.999999999999996
 20
-129.5
 11
36
 21
-129.5
  0
LINE
  5
18B
100
AcDbEntity
  8
tail side
  6
ByLayer
 62
  216
420
8388736
370
   -1
100
AcDbLine
 10
36
 20
-129.5
 11
52
 21
-129.5
  0
CIRCLE
  5
18C
100
AcDbEntity
  8
servo arm demo 0deg
  6
ByLayer
 62
  256
370
   -1
100
AcDbCircle
 10
0
 20
10.5
 40
1.25
  0
CIRCLE
  5
18D
100
AcDbEntity
  8
servo arm demo 0deg
  6
ByLayer
 62
  256
370
   -1
100
AcDbCircle
 10
0
 20
17.5
 40
0.5
  0
CIRCLE
  5
18E
100
AcDbEntity
  8
servo arm demo 0deg
  6
ByLayer
 62
  256
370
   -1
100
AcDbCircle
 10
5.816880180656292e-016
 20
20
 40
0.5
  0
CIRCLE
  5
18F
100
AcDbEntity
  8
servo arm demo 0deg
  6
ByLayer
 62
  256
370
   -1
100
AcDbCircle
 10
0
 20
10.5
 40
4
  0
ARC
  5
190
100
AcDbEntity
  8
servo arm demo 0deg
  6
ByLayer
 62
  256
370
   -1
100
AcDbCircle
 10
0
 20
20
 40
2.5
100
AcDbArc
 50
0
 51
90
  0
LINE
  5
191
100
AcDbEntity
  8
servo arm demo 0deg
  6
ByLayer
 62
  256
370
   -1
100
AcDbLine
 10
0
 20
22.5
 11
0
 21
22.5
  0
ARC
  5
192
100
AcDbEntity
  8
servo arm demo 0deg
  6
ByLayer
 62
  256
370
   -1
100
AcDbCircle
 10
0
 20
20
 40
2.5
100
AcDbArc
 50
90
 51
180
  0
LINE
  5
193
100
AcDbEntity
  8
servo arm demo 0deg
  6
ByLayer
 62
  256
370
   -1
100
AcDbLine
 10
-2.5
 20
20
 11
-2.5
 21
13.62249899919919
  0
LINE
  5
194
100
AcDbEntity
  8
servo arm demo 0deg
  6
ByLayer
 62
  256
370
   -1
100
AcDbLine
 10
2.5
 20
13.62249899919919
 11
2.5
 21
20
  0
LINE
  5
195
100
AcDbEntity
  8
servo arm demo 0deg
  6
ByLayer
 62
  256
370
   -1
100
AcDbLine
 10
4
 20
13
 11
3.122498999199199
 21
13
  0
LINE
  5
196
100
AcDbEntity
  8
servo arm demo 0deg
  6
ByLayer
 62
  256
370
   -1
100
AcDbLine
 10
4
 20
13
 11
4
 21
8
  0
LINE
  5
197
100
AcDbEntity
  8
servo arm demo 0deg
  6
ByLayer
 62
  256
370
   -1
100
AcDbLine
 10
3.122498999199199
 20
8
 11
4
 21
8
  0
LINE
  5
198
100
AcDbEntity
  8
servo arm demo 0deg
  6
ByLayer
 62
  256
370
   -1
100
AcDbLine
 10
-4
 20
8
 11
-3.122498999199199
 21
8
  0
LINE
  5
199
100
AcDbEntity
  8
servo arm demo 0deg
  6
ByLayer
 62
  256
370
   -1
100
AcDbLine
 10
-4
 20
13
 11
-4
 21
8
  0
LINE
  5
19A
100
AcDbEntity
  8
servo arm demo 0deg
  6
ByLayer
 62
  256
370
   -1
100
AcDbLine
 10
-3.122498999199199
 20
13
 11
-4
 21
13
  0
LINE
  5
19B
100
AcDbEntity
  8
servo arm demo 0deg
  6
ByLayer
 62
  256
370
   -1
100
AcDbLine
 10
-2.5
 20
7.377501000800805
 11
-2.5
 21
6.5
  0
LINE
  5
19C
100
AcDbEntity
  8
servo arm demo 0deg
  6
ByLayer
 62
  256
370
   -1
100
AcDbLine
 10
-2.5
 20
6.5
 11
2.5
 21
6.5
  0
LINE
  5
19D
100
AcDbEntity
  8
servo arm demo 0deg
  6
ByLayer
 62
  256
370
   -1
100
AcDbLine
 10
2.5
 20
6.5
 11
2.5
 21
7.377501000800805
  0
LINE
  5
19E
100
AcDbEntity
  8
tail back
  6
ByLayer
 62
    1
370
   -1
100
AcDbLine
 10
-10
 20
4
 11
10
 21
4
  0
LINE
  5
19F
100
AcDbEntity
  8
tail back
  6
ByLayer
 62
    1
370
   -1
100
AcDbLine
 10
-10
 20
4
 11
-10
 21
0
  0
LINE
  5
1A0
100
AcDbEntity
  8
tail back
  6
ByLayer
 62
    1
370
   -1
100
AcDbLine
 10
10
 20
4
 11
10
 21
0
  0
ARC
  5
1A1
100
AcDbEntity
  8
tail back
  6
ByLayer
 62
    1
370
   -1
100
AcDbCircle
 10
0
 20
10.5
 40
6
100
AcDbArc
 50
26.77306632172342
 51
153.2269336782766
  0
LINE
  5
1A2
100
AcDbEntity
  8
tail back
  6
ByLayer
 62
    1
370
   -1
100
AcDbLine
 10
-5.356785929685215
 20
13.2027475841311
 11
-10
 21
4
  0
LINE
  5
1A3
100
AcDbEntity
  8
tail back
  6
ByLayer
 62
    1
370
   -1
100
AcDbLine
 10
5.356785929685215
 20
13.2027475841311
 11
10
 21
4
  0
LINE
  5
1A4
100
AcDbEntity
  8
tail side
  6
ByLayer
 62
    5
370
   -1
100
AcDbLine
 10
31
 20
-68.5
 11
31
 21
-72
  0
LINE
  5
1A5
100
AcDbEntity
  8
tail side
  6
ByLayer
 62
    5
370
   -1
100
AcDbLine
 10
31
 20
-68.5
 11
34.5
 21
-68.5
  0
LINE
  5
1A6
100
AcDbEntity
  8
tail side
  6
ByLayer
 62
    5
370
   -1
100
AcDbLine
 10
31
 20
-72
 11
34.5
 21
-72
  0
LINE
  5
1A7
100
AcDbEntity
  8
tail side
  6
ByLayer
 62
  216
420
8388736
370
   -1
100
AcDbLine
 10
36
 20
-95.5
 11
36
 21
-103.5
  0
LINE
  5
1A8
100
AcDbEntity
  8
tail side
  6
ByLayer
 62
  216
420
8388736
370
   -1
100
AcDbLine
 10
36
 20
-121.5
 11
36
 21
-129.5
  0
LINE
  5
1A9
100
AcDbEntity
  8
tail side
  6
ByLayer
 62
  216
420
8388736
370
   -1
100
AcDbLine
 10
48
 20
-103.5
 11
48
 21
-121.5
  0
LINE
  5
1AA
100
AcDbEntity
  8
tail side
  6
ByLayer
 62
  216
420
8388736
370
   -1
100
AcDbLine
 10
36
 20
-103.5
 11
48
 21
-103.5
  0
LINE
  5
1AB
100
AcDbEntity
  8
tail side
  6
ByLayer
 62
  216
420
8388736
370
   -1
100
AcDbLine
 10
36
 20
-121.5
 11
48
 21
-121.5
  0
LINE
  5
1AC
100
AcDbEntity
  8
tail top 2
  6
ByLayer
 62
  256
370
   -1
100
AcDbLine
 10
-8.999999999999996
 20
-93
 11
8.999999999999991
 21
-93
  0
LINE
  5
1AD
100
AcDbEntity
  8
tail top 2
  6
ByLayer
 62
  256
370
   -1
100
AcDbLine
 10
-8.999999999999998
 20
-134.5
 11
8.999999999999995
 21
-134.5
  0
LINE
  5
1AE
100
AcDbEntity
  8
tail top 2
  6
ByLayer
 62
  256
370
   -1
100
AcDbLine
 10
-14
 20
-107.0991802859059
 11
-8.999999999999996
 21
-93
  0
LINE
  5
1AF
100
AcDbEntity
  8
tail top 2
  6
ByLayer
 62
  256
370
   -1
100
AcDbLine
 10
-14
 20
-107.0991802859059
 11
-14
 21
-118.0213078569866
  0
LINE
  5
1B0
100
AcDbEntity
  8
tail top 2
  6
ByLayer
 62
  256
370
   -1
100
AcDbLine
 10
-14
 20
-118.0213078569866
 11
-8.999999999999998
 21
-134.5
  0
LINE
  5
1B1
100
AcDbEntity
  8
tail top 2
  6
ByLayer
 62
  256
370
   -1
100
AcDbLine
 10
14
 20
-118.0213078569865
 11
8.999999999999995
 21
-134.5
  0
LINE
  5
1B2
100
AcDbEntity
  8
tail top 2
  6
ByLayer
 62
  256
370
   -1
100
AcDbLine
 10
14
 20
-107.099180285906
 11
8.999999999999991
 21
-93
  0
LINE
  5
1B3
100
AcDbEntity
  8
tail top 2
  6
ByLayer
 62
  256
370
   -1
100
AcDbLine
 10
14
 20
-107.099180285906
 11
14
 21
-118.0213078569865
  0
LINE
  5
1B4
100
AcDbEntity
  8
tail top 2
  6
ByLayer
 62
  256
370
   -1
100
AcDbLine
 10
-8.999999999999975
 20
19.5
 11
9.000000000000012
 21
19.5
  0
LINE
  5
1B5
100
AcDbEntity
  8
tail top 2
  6
ByLayer
 62
  256
370
   -1
100
AcDbLine
 10
-8.999999999999977
 20
-22
 11
9.000000000000016
 21
-22
  0
LINE
  5
1B6
100
AcDbEntity
  8
tail top 2
  6
ByLayer
 62
  256
370
   -1
100
AcDbLine
 10
-13.99999999999998
 20
5.400819714094126
 11
-8.999999999999975
 21
19.5
  0
LINE
  5
1B7
100
AcDbEntity
  8
tail top 2
  6
ByLayer
 62
  256
370
   -1
100
AcDbLine
 10
-13.99999999999998
 20
5.400819714094126
 11
-13.99999999999998
 21
-5.52130785698661
  0
LINE
  5
1B8
100
AcDbEntity
  8
tail top 2
  6
ByLayer
 62
  256
370
   -1
100
AcDbLine
 10
-13.99999999999998
 20
-5.52130785698661
 11
-8.999999999999977
 21
-22
  0
LINE
  5
1B9
100
AcDbEntity
  8
tail top 2
  6
ByLayer
 62
  256
370
   -1
100
AcDbLine
 10
14.00000000000002
 20
-5.52130785698651
 11
9.000000000000016
 21
-22
  0
LINE
  5
1BA
100
AcDbEntity
  8
tail top 2
  6
ByLayer
 62
  256
370
   -1
100
AcDbLine
 10
14.00000000000002
 20
5.400819714093998
 11
9.000000000000012
 21
19.5
  0
LINE
  5
1BB
100
AcDbEntity
  8
tail top 2
  6
ByLayer
 62
  256
370
   -1
100
AcDbLine
 10
14.00000000000002
 20
5.400819714093998
 11
14.00000000000002
 21
-5.52130785698651
  0
LINE
  5
1BC
100
AcDbEntity
  8
tail back
  6
ByLayer
 62
    5
370
   -1
100
AcDbLine
 10
-15
 20
22.5
 11
15
 21
22.5
  0
LINE
  5
1BD
100
AcDbEntity
  8
tail back
  6
ByLayer
 62
    5
370
   -1
100
AcDbLine
 10
15
 20
22.5
 11
15
 21
18
  0
LINE
  5
1BE
100
AcDbEntity
  8
tail back
  6
ByLayer
 62
    5
370
   -1
100
AcDbLine
 10
-15
 20
22.5
 11
-15
 21
18
  0
LWPOLYLINE
  5
1BF
100
AcDbEntity
  8
tail top 2
  6
ByLayer
 62
  256
370
   -1
100
AcDbPolyline
 90
    8
 70
    1
 43
0
 10
8.000000000000021
 20
-1.5
 10
9.500000000000018
 20
-1.5
 42
0.4142135623730938
 10
11.00000000000001
 20
1.084202172483532e-019
 10
11.00000000000002
 20
-3.673819061467116e-016
 42
0.4142135623730953
 10
9.500000000000021
 20
1.5
 10
8.000000000000021
 20
1.5
 42
0.4142135623730919
 10
6.500000000000006
 20
6.277801629235833e-016
 10
6.500000000000021
 20
5.167578604609036e-016
 42
0.414213562373095
  0
LWPOLYLINE
  5
1C0
100
AcDbEntity
  8
tail top 2
  6
ByLayer
 62
  256
370
   -1
100
AcDbPolyline
 90
    8
 70
    1
 43
0
 10
-8.000000000000007
 20
1.5
 10
-9.500000000000007
 20
1.500000000000001
 42
0.4142135623730965
 10
-10.99999999999999
 20
1.404936280161134e-015
 10
-11.00000000000001
 20
1.515958582623542e-015
 42
0.4142135623730948
 10
-9.500000000000007
 20
-1.5
 10
-8.000000000000011
 20
-1.5
 42
0.4142135623730935
 10
-6.499999999999992
 20
-5.894265110718644e-016
 10
-6.500000000000007
 20
1.084202172485997e-019
 42
0.414213562373095
  0
LINE
  5
1C1
100
AcDbEntity
  8
bounding box
  6
ByLayer
 62
   16
420
8388608
370
   -1
100
AcDbLine
 10
30
 20
26.95666296786937
 11
30
 21
-66.95666296786949
  0
LINE
  5
1C2
100
AcDbEntity
  8
bounding box
  6
ByLayer
 62
   16
420
8388608
370
   -1
100
AcDbLine
 10
-30
 20
26.95666296786938
 11
-30
 21
-66.95666296786941
  0
LINE
  5
1C3
100
AcDbEntity
  8
bounding box
  6
ByLayer
 62
   16
420
8388608
370
   -1
100
AcDbLine
 10
-30
 20
26.95666296786938
 11
-16.80486199194432
 21
86
  0
LINE
  5
1C4
100
AcDbEntity
  8
bounding box
  6
ByLayer
 62
   16
420
8388608
370
   -1
100
AcDbLine
 10
30
 20
-66.95666296786949
 11
8.536018616232381
 21
-163
  0
LINE
  5
1C5
100
AcDbEntity
  8
bounding box
  6
ByLayer
 62
   16
420
8388608
370
   -1
100
AcDbLine
 10
-8.536018616232411
 20
-163
 11
8.536018616232381
 21
-163
  0
LINE
  5
1C6
100
AcDbEntity
  8
bounding box
  6
ByLayer
 62
   16
420
8388608
370
   -1
100
AcDbLine
 10
-30
 20
-66.95666296786941
 11
-8.536018616232411
 21
-163
  0
LINE
  5
1C7
100
AcDbEntity
  8
bounding box
  6
ByLayer
 62
   16
420
8388608
370
   -1
100
AcDbLine
 10
-16.80486199194432
 20
86
 11
16.80486199194432
 21
86
  0
LINE
  5
1C8
100
AcDbEntity
  8
bounding box
  6
ByLayer
 62
   16
420
8388608
370
   -1
100
AcDbLine
 10
40
 20
-17.78961933405462
 11
16.80486199194432
 21
86
  0
LINE
  5
1C9
100
AcDbEntity
  8
schema e-arm folded v3
  6
ByLayer
 62
  256
370
   -1
100
AcDbLine
 10
38.99999999999998
 20
-17.899999042616
 11
38.99999999999994
 21
-82.100000957384
  0
LINE
  5
1CA
100
AcDbEntity
  8
schema e-arm folded v3
  6
ByLayer
 62
    1
370
   -1
100
AcDbLine
 10
21.49999999999998
 20
-19.88683379672002
 11
38.49999999999998
 21
-19.88683379672002
  0
LINE
  5
1CB
100
AcDbEntity
  8
schema e-arm folded v3
  6
ByLayer
 62
    1
370
   -1
100
AcDbLine
 10
21.49999999999998
 20
-19.88683379672002
 11
21.49999999999995
 21
-54.88683379672003
  0
LINE
  5
1CC
100
AcDbEntity
  8
schema e-arm folded v3
  6
ByLayer
 62
    1
370
   -1
100
AcDbLine
 10
38.49999999999998
 20
-19.88683379672002
 11
38.49999999999996
 21
-54.88683379672003
  0
LINE
  5
1CD
100
AcDbEntity
  8
schema e-arm folded v3
  6
ByLayer
 62
    1
370
   -1
100
AcDbLine
 10
21.49999999999995
 20
-54.88683379672003
 11
38.49999999999996
 21
-54.88683379672003
  0
LINE
  5
1CE
100
AcDbEntity
  8
schema e-arm folded v3
  6
ByLayer
 62
  256
370
   -1
100
AcDbLine
 10
17.82824892240681
 20
-90.19409306293427
 11
32.36436551358173
 21
-95.91357511851771
  0
LINE
  5
1CF
100
AcDbEntity
  8
schema e-arm folded v3
  6
ByLayer
 62
  256
370
   -1
100
AcDbLine
 10
38.99999999999994
 20
-82.100000957384
 11
36.39057519981182
 21
-93.7762068328699
  0
ARC
  5
1D0
100
AcDbEntity
  8
schema e-arm folded v3
  6
ByLayer
 62
  256
370
   -1
100
AcDbCircle
 10
33.46279734862974
 20
-93.12190044124009
 40
3
100
AcDbArc
 50
248.5219999999999
 51
347.4024135944657
  0
ARC
  5
1D1
100
AcDbEntity
  8
schema e-arm folded v3
  6
ByLayer
 62
  256
370
   -1
100
AcDbCircle
 10
23.314
 20
-76.2332
 40
15
100
AcDbArc
 50
111.4506682445947
 51
248.5483013316735
  0
ARC
  5
1D2
100
AcDbEntity
  8
schema e-arm folded v3
  6
ByLayer
 62
  256
370
   -1
100
AcDbCircle
 10
15.99999999999995
 20
-57.61854437600314
 40
5
100
AcDbArc
 50
291.4506682445947
 51
359.9999999999999
  0
CIRCLE
  5
1D3
100
AcDbEntity
  8
schema e-arm folded v3
  6
ByLayer
 62
  256
370
   -1
100
AcDbCircle
 10
25.19315252239029
 20
2.615439001873511
 40
1.5
  0
ARC
  5
1D4
100
AcDbEntity
  8
schema e-main body base
  6
ByLayer
 62
  256
370
   -1
100
AcDbCircle
 10
15
 20
4.880584006849137
 40
15
100
AcDbArc
 50
334.942384581697
 51
0
  0
LINE
  5
1D5
100
AcDbEntity
  8
schema e-main body base
  6
ByLayer
 62
  256
370
   -1
100
AcDbLine
 10
29.63888925591041
 20
23.98749135884469
 11
17.75107931727316
 21
77.18102130543271
  0
LINE
  5
1D6
100
AcDbEntity
  8
schema e-main body base
  6
ByLayer
 62
  256
370
   -1
100
AcDbLine
 10
30
 20
20.71595940069563
 11
30
 21
4.880584006849137
  0
ARC
  5
1D7
100
AcDbEntity
  8
schema e-main body base
  6
ByLayer
 62
  256
370
   -1
100
AcDbCircle
 10
15
 20
20.71595940069563
 40
15
100
AcDbArc
 50
0
 51
12.59758640553419
  0
LINE
  5
1D8
100
AcDbEntity
  8
schema e-main body base
  6
ByLayer
 62
  256
370
   -1
100
AcDbLine
 10
21.82327091430177
 20
-15.94186431533874
 11
28.58823529411764
 21
-1.472357169621459
  0
ARC
  5
1D9
100
AcDbEntity
  8
schema e-main body base
  6
ByLayer
 62
  256
370
   -1
100
AcDbCircle
 10
35.4115062084194
 20
-22.29480549180933
 40
15
100
AcDbArc
 50
154.942384581697
 51
167.4711922908485
  0
CIRCLE
  5
1DA
100
AcDbEntity
  8
schema e-main body base
  6
ByLayer
 62
  256
370
   -1
100
AcDbCircle
 10
20.7119
 20
41.0073
 40
1.5
  0
ARC
  5
1DB
100
AcDbEntity
  8
schema e-arm folded v3
  6
ByLayer
 62
  256
370
   -1
100
AcDbCircle
 10
15.25
 20
15.25
 40
10
100
AcDbArc
 50
83.76646138248418
 51
248.522
  0
LINE
  5
1DC
100
AcDbEntity
  8
schema e-arm deployed v3
  6
ByLayer
 62
  256
370
   -1
100
AcDbLine
 10
37.40208559888612
 20
49.48842928852115
 11
97.14392547443025
 21
72.99487125962901
  0
LINE
  5
1DD
100
AcDbEntity
  8
schema e-arm deployed v3
  6
ByLayer
 62
    1
370
   -1
100
AcDbLine
 10
45.65847006032188
 20
33.93112785269759
 11
39.43402299504989
 21
49.75061769060409
  0
LINE
  5
1DE
100
AcDbEntity
  8
schema e-arm deployed v3
  6
ByLayer
 62
    1
370
   -1
100
AcDbLine
 10
45.65847006032188
 20
33.93112785269759
 11
78.22800796189409
 21
46.74616592825755
  0
LINE
  5
1DF
100
AcDbEntity
  8
schema e-arm deployed v3
  6
ByLayer
 62
    1
370
   -1
100
AcDbLine
 10
39.43402299504989
 20
49.75061769060409
 11
72.00356089662209
 21
62.56565576616406
  0
LINE
  5
1E0
100
AcDbEntity
  8
schema e-arm deployed v3
  6
ByLayer
 62
    1
370
   -1
100
AcDbLine
 10
78.22800796189409
 20
46.74616592825755
 11
72.00356089662209
 21
62.56565576616406
  0
LINE
  5
1E1
100
AcDbEntity
  8
schema e-arm deployed v3
  6
ByLayer
 62
  256
370
   -1
100
AcDbLine
 10
112.4278579257494
 20
56.25692695549743
 11
112.4278579257494
 21
71.87778354328965
  0
LINE
  5
1E2
100
AcDbEntity
  8
schema e-arm deployed v3
  6
ByLayer
 62
  256
370
   -1
100
AcDbLine
 10
97.14392547443025
 20
72.99487125962901
 11
108.9647399880851
 21
74.84182162938328
  0
ARC
  5
1E3
100
AcDbEntity
  8
schema e-arm deployed v3
  6
ByLayer
 62
  256
370
   -1
100
AcDbCircle
 10
109.4278579257494
 20
71.87778354328967
 40
3
100
AcDbArc
 50
359.9999999999999
 51
98.88041359446565
  0
ARC
  5
1E4
100
AcDbEntity
  8
schema e-arm deployed v3
  6
ByLayer
 62
  256
370
   -1
100
AcDbCircle
 10
97.42785950616553
 20
56.25004128320994
 40
15
100
AcDbArc
 50
222.9286682445947
 51
0.02630133167348657
  0
ARC
  5
1E5
100
AcDbEntity
  8
schema e-arm deployed v3
  6
ByLayer
 62
  256
370
   -1
100
AcDbCircle
 10
82.78381540942743
 20
42.62829497472259
 40
5
100
AcDbArc
 50
42.92866824459468
 51
111.4779999999999
  0
CIRCLE
  5
1E6
100
AcDbEntity
  8
schema e-arm deployed v3
  6
ByLayer
 62
  256
370
   -1
100
AcDbCircle
 10
23.36656957521927
 20
29.12875037708799
 40
1.5
  0
ARC
  5
1E7
100
AcDbEntity
  8
schema e-arm deployed v3
  6
ByLayer
 62
  256
370
   -1
100
AcDbCircle
 10
15.25
 20
15.25
 40
10
100
AcDbArc
 50
195.2444613824842
 51
360
  0
ARC
  5
1E8
100
AcDbEntity
  8
schema e-main body base
  6
ByLayer
 62
  256
370
   -1
100
AcDbCircle
 10
-15
 20
4.88058400684913
 40
15
100
AcDbArc
 50
180
 51
205.0576154183031
  0
LINE
  5
1E9
100
AcDbEntity
  8
schema e-main body base
  6
ByLayer
 62
  256
370
   -1
100
AcDbLine
 10
-29.63888925591041
 20
23.98749135884469
 11
-17.75107931727316
 21
77.18102130543271
  0
LINE
  5
1EA
100
AcDbEntity
  8
schema e-main body base
  6
ByLayer
 62
  256
370
   -1
100
AcDbLine
 10
-30
 20
20.71595940069563
 11
-30
 21
4.88058400684913
  0
ARC
  5
1EB
100
AcDbEntity
  8
schema e-main body base
  6
ByLayer
 62
  256
370
   -1
100
AcDbCircle
 10
-15
 20
20.71595940069563
 40
15
100
AcDbArc
 50
167.4024135944658
 51
180
  0
LINE
  5
1EC
100
AcDbEntity
  8
schema e-main body base
  6
ByLayer
 62
  256
370
   -1
100
AcDbLine
 10
-21.82327091430177
 20
-15.94186431533873
 11
-28.58823529411764
 21
-1.472357169621448
  0
ARC
  5
1ED
100
AcDbEntity
  8
schema e-main body base
  6
ByLayer
 62
  256
370
   -1
100
AcDbCircle
 10
-35.4115062084194
 20
-22.29480549180932
 40
15
100
AcDbArc
 50
12.52880770915151
 51
25.05761541830302
  0
CIRCLE
  5
1EE
100
AcDbEntity
  8
schema e-main body base
  6
ByLayer
 62
  256
370
   -1
100
AcDbCircle
 10
-20.7119
 20
41.0073
 40
1.5
  0
LINE
  5
1EF
100
AcDbEntity
  8
schema e-arm folded v3
  6
ByLayer
 62
  256
370
   -1
100
AcDbLine
 10
27.56221712396998
 20
23.96464849877566
 11
16.33581272684614
 21
25.19087575227751
  0
LINE
  5
1F0
100
AcDbEntity
  8
schema e-arm folded v3
  6
ByLayer
 62
  256
370
   -1
100
AcDbLine
 10
38.99999999999998
 20
-17.899999042616
 11
30.16425115709822
 21
21.63669216472222
  0
ARC
  5
1F1
100
AcDbEntity
  8
schema e-arm folded v3
  6
ByLayer
 62
  256
370
   -1
100
AcDbCircle
 10
27.23647330591614
 20
20.9823857730924
 40
3
100
AcDbArc
 50
12.59758640553421
 51
83.76646138248418
  0
LINE
  5
1F2
100
AcDbEntity
  8
schema e-arm deployed v3
  6
ByLayer
 62
  256
370
   -1
100
AcDbLine
 10
37.40208559888612
 20
49.48842928852115
 11
3.846048315106493
 21
26.79013043048233
  0
LINE
  5
1F3
100
AcDbEntity
  8
schema e-arm deployed v3
  6
ByLayer
 62
  256
370
   -1
100
AcDbLine
 10
2.63246840520029
 20
23.51641914127413
 11
5.601872542111908
 21
12.62062049974792
  0
ARC
  5
1F4
100
AcDbEntity
  8
schema e-arm deployed v3
  6
ByLayer
 62
  256
370
   -1
100
AcDbCircle
 10
5.526906642566714
 20
24.30523299134975
 40
3
100
AcDbArc
 50
124.0755864055342
 51
195.2444613824842
  0
LINE
  5
1F5
100
AcDbEntity
  8
schema e-arm folded v3
  6
ByLayer
 62
  256
370
   -1
100
AcDbLine
 10
12.23041195367736
 20
5.691870401887329
 11
11.58856054984
 21
5.944417742407943
  0
ARC
  5
1F6
100
AcDbEntity
  8
schema e-arm folded v3
  6
ByLayer
 62
  256
370
   -1
100
AcDbCircle
 10
11.49812406364537
 20
3.830753950368916
 40
2
100
AcDbArc
 50
12.59758640553411
 51
68.52200000000008
  0
LINE
  5
1F7
100
AcDbEntity
  8
schema e-arm deployed v3
  6
ByLayer
 62
  256
370
   -1
100
AcDbLine
 10
25.25
 20
15.93974878311747
 11
25.25
 21
15.25
  0
ARC
  5
1F8
100
AcDbEntity
  8
schema e-arm deployed v3
  6
ByLayer
 62
  256
370
   -1
100
AcDbCircle
 10
27.25
 20
15.93974878311748
 40
2
100
AcDbArc
 50
124.0755864055341
 51
180.0000000000001
  0
LINE
  5
1F9
100
AcDbEntity
  8
schema e-arm deployed v3
  6
ByLayer
 62
  256
370
   -1
100
AcDbLine
 10
26.12942778169319
 20
17.59634707587253
 11
44.12057221830682
 21
29.7660907725693
  0
ARC
  5
1FA
100
AcDbEntity
  8
schema e-arm deployed v3
  6
ByLayer
 62
  256
370
   -1
100
AcDbCircle
 10
43.00000000000001
 20
31.42268906532435
 40
2
100
AcDbArc
 50
304.0755864055341
 51
0
  0
LINE
  5
1FB
100
AcDbEntity
  8
schema e-arm deployed v3
  6
ByLayer
 62
  256
370
   -1
100
AcDbLine
 10
46.26771210996801
 20
33.63353259771287
 11
80.95309568434745
 21
47.28108610351861
  0
LINE
  5
1FC
100
AcDbEntity
  8
schema e-arm deployed v3
  6
ByLayer
 62
  256
370
   -1
100
AcDbLine
 10
45
 20
31.77241614619446
 11
45
 21
31.42268906532435
  0
ARC
  5
1FD
100
AcDbEntity
  8
schema e-arm deployed v3
  6
ByLayer
 62
  256
370
   -1
100
AcDbCircle
 10
47.00000000000001
 20
31.77241614619446
 40
2
100
AcDbArc
 50
111.4779999999999
 51
180
  0
LINE
  5
1FE
100
AcDbEntity
  8
schema e-arm folded v3
  6
ByLayer
 62
  256
370
   -1
100
AcDbLine
 10
13.44997596443342
 20
4.266958211455455
 11
18.18728246740145
 21
-16.93072720179947
  0
ARC
  5
1FF
100
AcDbEntity
  8
schema e-arm folded v3
  6
ByLayer
 62
  256
370
   -1
100
AcDbCircle
 10
20.13913436818951
 20
-16.49452294071293
 40
2
100
AcDbArc
 50
192.5975864055341
 51
248.522
  0
LINE
  5
200
100
AcDbEntity
  8
schema e-arm folded v3
  6
ByLayer
 62
  256
370
   -1
100
AcDbLine
 10
19.73228789003197
 20
-18.48368984530007
 11
19.40684647815751
 21
-18.35563939223135
  0
LINE
  5
201
100
AcDbEntity
  8
schema e-arm folded v3
  6
ByLayer
 62
  256
370
   -1
100
AcDbLine
 10
20.99999999999998
 20
-20.34480629681848
 11
20.99999999999995
 21
-57.61854437600314
  0
ARC
  5
202
100
AcDbEntity
  8
schema e-arm folded v3
  6
ByLayer
 62
  256
370
   -1
100
AcDbCircle
 10
18.99999999999998
 20
-20.34480629681848
 40
2
100
AcDbArc
 50
0
 51
68.52200000000005
  0
ARC
  5
203
100
AcDbEntity
  8
schema e-arm deployed v3
  6
ByLayer
 62
  256
370
   -1
100
AcDbCircle
 10
32.46870384454792
 20
35.28570395727389
 40
1
100
AcDbArc
 50
124.0755864055342
 51
214.0755864055339
  0
LINE
  5
204
100
AcDbEntity
  8
schema e-arm deployed v3
  6
ByLayer
 62
  256
370
   -1
100
AcDbLine
 10
31.6404046981704
 20
34.72541784812049
 11
31.64040469817039
 21
34.7254178481205
  0
ARC
  5
205
100
AcDbEntity
  8
schema e-arm deployed v3
  6
ByLayer
 62
  256
370
   -1
100
AcDbCircle
 10
32.46870384454792
 20
35.2857039572739
 40
1
100
AcDbArc
 50
214.075586405534
 51
304.0755864055344
  0
LINE
  5
206
100
AcDbEntity
  8
schema e-arm deployed v3
  6
ByLayer
 62
  256
370
   -1
100
AcDbLine
 10
34.68558824645636
 20
35.57797702920318
 11
33.02898995370133
 21
34.45740481089638
  0
ARC
  5
207
100
AcDbEntity
  8
schema e-arm deployed v3
  6
ByLayer
 62
  256
370
   -1
100
AcDbCircle
 10
34.12530213730296
 20
36.40627617558071
 40
1
100
AcDbArc
 50
304.075586405534
 51
34.0755864055341
  0
LINE
  5
208
100
AcDbEntity
  8
schema e-arm deployed v3
  6
ByLayer
 62
  256
370
   -1
100
AcDbLine
 10
34.9536012836805
 20
36.96656228473411
 11
34.95360128368049
 21
36.96656228473412
  0
LINE
  5
209
100
AcDbEntity
  8
schema e-arm deployed v3
  6
ByLayer
 62
  256
370
   -1
100
AcDbLine
 10
33.56501602814955
 20
37.23457532195822
 11
31.90841773539451
 21
36.11400310365141
  0
ARC
  5
20A
100
AcDbEntity
  8
schema e-arm deployed v3
  6
ByLayer
 62
  256
370
   -1
100
AcDbCircle
 10
34.12530213730296
 20
36.40627617558069
 40
1
100
AcDbArc
 50
34.0755864055342
 51
124.0755864055343
  0
ARC
  5
20B
100
AcDbEntity
  8
schema e-arm folded v3
  6
ByLayer
 62
  256
370
   -1
100
AcDbCircle
 10
27.58986497261253
 20
-8.108958187544669
 40
1
100
AcDbArc
 50
12.59758640553416
 51
102.5975864055338
  0
LINE
  5
20C
100
AcDbEntity
  8
schema e-arm folded v3
  6
ByLayer
 62
  256
370
   -1
100
AcDbLine
 10
27.37176284206927
 20
-7.133032237150653
 11
27.37176284206928
 21
-7.133032237150649
  0
ARC
  5
20D
100
AcDbEntity
  8
schema e-arm folded v3
  6
ByLayer
 62
  256
370
   -1
100
AcDbCircle
 10
27.58986497261255
 20
-8.108958187544676
 40
1
100
AcDbArc
 50
102.597586405534
 51
192.5975864055343
  0
LINE
  5
20E
100
AcDbEntity
  8
schema e-arm folded v3
  6
ByLayer
 62
  256
370
   -1
100
AcDbLine
 10
27.05014328330505
 20
-10.27891221887599
 11
26.61393902221852
 21
-8.327060318087948
  0
ARC
  5
20F
100
AcDbEntity
  8
schema e-arm folded v3
  6
ByLayer
 62
  256
370
   -1
100
AcDbCircle
 10
28.02606923369908
 20
-10.06081008833272
 40
1
100
AcDbArc
 50
192.5975864055339
 51
282.5975864055341
  0
LINE
  5
210
100
AcDbEntity
  8
schema e-arm folded v3
  6
ByLayer
 62
  256
370
   -1
100
AcDbLine
 10
28.24417136424234
 20
-11.03673603872676
 11
28.24417136424235
 21
-11.03673603872675
  0
LINE
  5
211
100
AcDbEntity
  8
schema e-arm folded v3
  6
ByLayer
 62
  256
370
   -1
100
AcDbLine
 10
29.00199518409309
 20
-9.842707957789441
 11
28.56579092300656
 21
-7.8908560570014
  0
ARC
  5
212
100
AcDbEntity
  8
schema e-arm folded v3
  6
ByLayer
 62
  256
370
   -1
100
AcDbCircle
 10
28.02606923369907
 20
-10.06081008833272
 40
1
100
AcDbArc
 50
282.5975864055342
 51
12.59758640553431
  0
LINE
  5
213
100
AcDbEntity
  8
schema e-arm deployed v3
  6
ByLayer
 62
  256
370
   -1
100
AcDbLine
 10
-37.40208559888612
 20
49.48842928852115
 11
-97.14392547443025
 21
72.99487125962901
  0
LINE
  5
214
100
AcDbEntity
  8
schema e-arm deployed v3
  6
ByLayer
 62
    1
370
   -1
100
AcDbLine
 10
-45.65847006032188
 20
33.93112785269759
 11
-39.43402299504989
 21
49.75061769060409
  0
LINE
  5
215
100
AcDbEntity
  8
schema e-arm deployed v3
  6
ByLayer
 62
    1
370
   -1
100
AcDbLine
 10
-45.65847006032188
 20
33.93112785269759
 11
-78.22800796189409
 21
46.74616592825754
  0
LINE
  5
216
100
AcDbEntity
  8
schema e-arm deployed v3
  6
ByLayer
 62
    1
370
   -1
100
AcDbLine
 10
-39.43402299504989
 20
49.75061769060409
 11
-72.00356089662209
 21
62.56565576616406
  0
LINE
  5
217
100
AcDbEntity
  8
schema e-arm deployed v3
  6
ByLayer
 62
    1
370
   -1
100
AcDbLine
 10
-78.22800796189409
 20
46.74616592825754
 11
-72.00356089662209
 21
62.56565576616406
  0
LINE
  5
218
100
AcDbEntity
  8
schema e-arm deployed v3
  6
ByLayer
 62
  256
370
   -1
100
AcDbLine
 10
-112.4278579257494
 20
56.25692695549743
 11
-112.4278579257494
 21
71.87778354328965
  0
LINE
  5
219
100
AcDbEntity
  8
schema e-arm deployed v3
  6
ByLayer
 62
  256
370
   -1
100
AcDbLine
 10
-97.14392547443025
 20
72.99487125962901
 11
-108.9647399880851
 21
74.84182162938328
  0
ARC
  5
21A
100
AcDbEntity
  8
schema e-arm deployed v3
  6
ByLayer
 62
  256
370
   -1
100
AcDbCircle
 10
-109.4278579257494
 20
71.87778354328967
 40
3
100
AcDbArc
 50
81.11958640553435
 51
180.0000000000001
  0
ARC
  5
21B
100
AcDbEntity
  8
schema e-arm deployed v3
  6
ByLayer
 62
  256
370
   -1
100
AcDbCircle
 10
-97.42785950616553
 20
56.25004128320994
 40
15
100
AcDbArc
 50
179.9736986683265
 51
317.0713317554053
  0
ARC
  5
21C
100
AcDbEntity
  8
schema e-arm deployed v3
  6
ByLayer
 62
  256
370
   -1
100
AcDbCircle
 10
-82.78381540942743
 20
42.62829497472259
 40
5
100
AcDbArc
 50
68.52200000000008
 51
137.0713317554053
  0
CIRCLE
  5
21D
100
AcDbEntity
  8
schema e-arm deployed v3
  6
ByLayer
 62
  256
370
   -1
100
AcDbCircle
 10
-23.36656957521927
 20
29.128750377088
 40
1.5
  0
ARC
  5
21E
100
AcDbEntity
  8
schema e-arm deployed v3
  6
ByLayer
 62
  256
370
   -1
100
AcDbCircle
 10
-15.25
 20
15.25
 40
10
100
AcDbArc
 50
180
 51
344.7555386175158
  0
LINE
  5
21F
100
AcDbEntity
  8
schema e-arm deployed v3
  6
ByLayer
 62
  256
370
   -1
100
AcDbLine
 10
-37.40208559888612
 20
49.48842928852115
 11
-3.846048315106493
 21
26.79013043048231
  0
LINE
  5
220
100
AcDbEntity
  8
schema e-arm deployed v3
  6
ByLayer
 62
  256
370
   -1
100
AcDbLine
 10
-2.63246840520029
 20
23.51641914127413
 11
-5.601872542111908
 21
12.62062049974793
  0
ARC
  5
221
100
AcDbEntity
  8
schema e-arm deployed v3
  6
ByLayer
 62
  256
370
   -1
100
AcDbCircle
 10
-5.526906642566714
 20
24.30523299134976
 40
3
100
AcDbArc
 50
344.7555386175158
 51
55.92441359446583
  0
LINE
  5
222
100
AcDbEntity
  8
schema e-arm deployed v3
  6
ByLayer
 62
  256
370
   -1
100
AcDbLine
 10
-25.25
 20
15.93974878311749
 11
-25.25
 21
15.25
  0
ARC
  5
223
100
AcDbEntity
  8
schema e-arm deployed v3
  6
ByLayer
 62
  256
370
   -1
100
AcDbCircle
 10
-27.25
 20
15.93974878311748
 40
2
100
AcDbArc
 50
359.9999999999999
 51
55.92441359446592
  0
LINE
  5
224
100
AcDbEntity
  8
schema e-arm deployed v3
  6
ByLayer
 62
  256
370
   -1
100
AcDbLine
 10
-26.12942778169319
 20
17.59634707587256
 11
-44.12057221830682
 21
29.7660907725693
  0
ARC
  5
225
100
AcDbEntity
  8
schema e-arm deployed v3
  6
ByLayer
 62
  256
370
   -1
100
AcDbCircle
 10
-43.00000000000001
 20
31.42268906532435
 40
2
100
AcDbArc
 50
180
 51
235.9244135944659
  0
LINE
  5
226
100
AcDbEntity
  8
schema e-arm deployed v3
  6
ByLayer
 62
  256
370
   -1
100
AcDbLine
 10
-46.26771210996801
 20
33.63353259771287
 11
-80.95309568434745
 21
47.28108610351861
  0
LINE
  5
227
100
AcDbEntity
  8
schema e-arm deployed v3
  6
ByLayer
 62
  256
370
   -1
100
AcDbLine
 10
-45
 20
31.77241614619446
 11
-45
 21
31.42268906532435
  0
ARC
  5
228
100
AcDbEntity
  8
schema e-arm deployed v3
  6
ByLayer
 62
  256
370
   -1
100
AcDbCircle
 10
-47.00000000000001
 20
31.77241614619446
 40
2
100
AcDbArc
 50
360
 51
68.52200000000008
  0
ARC
  5
229
100
AcDbEntity
  8
schema e-arm deployed v3
  6
ByLayer
 62
  256
370
   -1
100
AcDbCircle
 10
-32.46870384454792
 20
35.28570395727387
 40
1
100
AcDbArc
 50
325.9244135944661
 51
55.92441359446583
  0
LINE
  5
22A
100
AcDbEntity
  8
schema e-arm deployed v3
  6
ByLayer
 62
  256
370
   -1
100
AcDbLine
 10
-31.6404046981704
 20
34.72541784812051
 11
-31.64040469817039
 21
34.7254178481205
  0
ARC
  5
22B
100
AcDbEntity
  8
schema e-arm deployed v3
  6
ByLayer
 62
  256
370
   -1
100
AcDbCircle
 10
-32.46870384454792
 20
35.28570395727392
 40
1
100
AcDbArc
 50
235.9244135944657
 51
325.924413594466
  0
LINE
  5
22C
100
AcDbEntity
  8
schema e-arm deployed v3
  6
ByLayer
 62
  256
370
   -1
100
AcDbLine
 10
-34.68558824645636
 20
35.57797702920318
 11
-33.02898995370133
 21
34.45740481089638
  0
ARC
  5
22D
100
AcDbEntity
  8
schema e-arm deployed v3
  6
ByLayer
 62
  256
370
   -1
100
AcDbCircle
 10
-34.12530213730296
 20
36.40627617558071
 40
1
100
AcDbArc
 50
145.9244135944659
 51
235.924413594466
  0
LINE
  5
22E
100
AcDbEntity
  8
schema e-arm deployed v3
  6
ByLayer
 62
  256
370
   -1
100
AcDbLine
 10
-34.9536012836805
 20
36.96656228473411
 11
-34.95360128368049
 21
36.96656228473412
  0
LINE
  5
22F
100
AcDbEntity
  8
schema e-arm deployed v3
  6
ByLayer
 62
  256
370
   -1
100
AcDbLine
 10
-33.56501602814955
 20
37.23457532195822
 11
-31.90841773539451
 21
36.11400310365141
  0
ARC
  5
230
100
AcDbEntity
  8
schema e-arm deployed v3
  6
ByLayer
 62
  256
370
   -1
100
AcDbCircle
 10
-34.12530213730296
 20
36.40627617558069
 40
1
100
AcDbArc
 50
55.92441359446567
 51
145.9244135944658
  0
LINE
  5
231
100
AcDbEntity
  8
schema e-arm folded v3
  6
ByLayer
 62
  256
370
   -1
100
AcDbLine
 10
-38.99999999999998
 20
-17.89999904261601
 11
-38.99999999999994
 21
-82.100000957384
  0
LINE
  5
232
100
AcDbEntity
  8
schema e-arm folded v3
  6
ByLayer
 62
    1
370
   -1
100
AcDbLine
 10
-21.49999999999998
 20
-19.88683379672002
 11
-38.49999999999998
 21
-19.88683379672002
  0
LINE
  5
233
100
AcDbEntity
  8
schema e-arm folded v3
  6
ByLayer
 62
    1
370
   -1
100
AcDbLine
 10
-21.49999999999998
 20
-19.88683379672002
 11
-21.49999999999995
 21
-54.88683379672003
  0
LINE
  5
234
100
AcDbEntity
  8
schema e-arm folded v3
  6
ByLayer
 62
    1
370
   -1
100
AcDbLine
 10
-38.49999999999998
 20
-19.88683379672002
 11
-38.49999999999996
 21
-54.88683379672003
  0
LINE
  5
235
100
AcDbEntity
  8
schema e-arm folded v3
  6
ByLayer
 62
    1
370
   -1
100
AcDbLine
 10
-21.49999999999995
 20
-54.88683379672003
 11
-38.49999999999996
 21
-54.88683379672003
  0
LINE
  5
236
100
AcDbEntity
  8
schema e-arm folded v3
  6
ByLayer
 62
  256
370
   -1
100
AcDbLine
 10
-17.82824892240681
 20
-90.1940930629343
 11
-32.36436551358173
 21
-95.91357511851771
  0
LINE
  5
237
100
AcDbEntity
  8
schema e-arm folded v3
  6
ByLayer
 62
  256
370
   -1
100
AcDbLine
 10
-38.99999999999994
 20
-82.100000957384
 11
-36.39057519981182
 21
-93.77620683286987
  0
ARC
  5
238
100
AcDbEntity
  8
schema e-arm folded v3
  6
ByLayer
 62
  256
370
   -1
100
AcDbCircle
 10
-33.46279734862974
 20
-93.12190044124009
 40
3
100
AcDbArc
 50
192.5975864055343
 51
291.4780000000001
  0
ARC
  5
239
100
AcDbEntity
  8
schema e-arm folded v3
  6
ByLayer
 62
  256
370
   -1
100
AcDbCircle
 10
-23.314
 20
-76.2332
 40
15
100
AcDbArc
 50
291.4516986683265
 51
68.54933175540529
  0
ARC
  5
23A
100
AcDbEntity
  8
schema e-arm folded v3
  6
ByLayer
 62
  256
370
   -1
100
AcDbCircle
 10
-15.99999999999995
 20
-57.61854437600315
 40
5
100
AcDbArc
 50
180.0000000000001
 51
248.5493317554053
  0
CIRCLE
  5
23B
100
AcDbEntity
  8
schema e-arm folded v3
  6
ByLayer
 62
  256
370
   -1
100
AcDbCircle
 10
-25.19315252239029
 20
2.615439001873511
 40
1.5
  0
ARC
  5
23C
100
AcDbEntity
  8
schema e-arm folded v3
  6
ByLayer
 62
  256
370
   -1
100
AcDbCircle
 10
-15.25
 20
15.25
 40
10
100
AcDbArc
 50
291.478
 51
96.2335386175158
  0
LINE
  5
23D
100
AcDbEntity
  8
schema e-arm folded v3
  6
ByLayer
 62
  256
370
   -1
100
AcDbLine
 10
-27.56221712396998
 20
23.96464849877566
 11
-16.33581272684614
 21
25.19087575227751
  0
LINE
  5
23E
100
AcDbEntity
  8
schema e-arm folded v3
  6
ByLayer
 62
  256
370
   -1
100
AcDbLine
 10
-38.99999999999998
 20
-17.89999904261601
 11
-30.16425115709822
 21
21.63669216472222
  0
ARC
  5
23F
100
AcDbEntity
  8
schema e-arm folded v3
  6
ByLayer
 62
  256
370
   -1
100
AcDbCircle
 10
-27.23647330591614
 20
20.9823857730924
 40
3
100
AcDbArc
 50
96.2335386175158
 51
167.4024135944657
  0
LINE
  5
240
100
AcDbEntity
  8
schema e-arm folded v3
  6
ByLayer
 62
  256
370
   -1
100
AcDbLine
 10
-12.23041195367736
 20
5.691870401887329
 11
-11.58856054984
 21
5.944417742407943
  0
ARC
  5
241
100
AcDbEntity
  8
schema e-arm folded v3
  6
ByLayer
 62
  256
370
   -1
100
AcDbCircle
 10
-11.49812406364537
 20
3.830753950368915
 40
2
100
AcDbArc
 50
111.4779999999999
 51
167.4024135944658
  0
LINE
  5
242
100
AcDbEntity
  8
schema e-arm folded v3
  6
ByLayer
 62
  256
370
   -1
100
AcDbLine
 10
-13.44997596443342
 20
4.266958211455451
 11
-18.18728246740145
 21
-16.93072720179947
  0
ARC
  5
243
100
AcDbEntity
  8
schema e-arm folded v3
  6
ByLayer
 62
  256
370
   -1
100
AcDbCircle
 10
-20.13913436818951
 20
-16.49452294071293
 40
2
100
AcDbArc
 50
291.478
 51
347.4024135944659
  0
LINE
  5
244
100
AcDbEntity
  8
schema e-arm folded v3
  6
ByLayer
 62
  256
370
   -1
100
AcDbLine
 10
-19.73228789003197
 20
-18.48368984530007
 11
-19.40684647815751
 21
-18.35563939223133
  0
LINE
  5
245
100
AcDbEntity
  8
schema e-arm folded v3
  6
ByLayer
 62
  256
370
   -1
100
AcDbLine
 10
-20.99999999999998
 20
-20.34480629681847
 11
-20.99999999999995
 21
-57.61854437600314
  0
ARC
  5
246
100
AcDbEntity
  8
schema e-arm folded v3
  6
ByLayer
 62
  256
370
   -1
100
AcDbCircle
 10
-18.99999999999998
 20
-20.34480629681847
 40
2
100
AcDbArc
 50
111.4779999999999
 51
180
  0
ARC
  5
247
100
AcDbEntity
  8
schema e-arm folded v3
  6
ByLayer
 62
  256
370
   -1
100
AcDbCircle
 10
-27.58986497261253
 20
-8.108958187544662
 40
1
100
AcDbArc
 50
77.40241359446614
 51
167.4024135944658
  0
LINE
  5
248
100
AcDbEntity
  8
schema e-arm folded v3
  6
ByLayer
 62
  256
370
   -1
100
AcDbLine
 10
-27.37176284206927
 20
-7.133032237150664
 11
-27.37176284206928
 21
-7.133032237150639
  0
ARC
  5
249
100
AcDbEntity
  8
schema e-arm folded v3
  6
ByLayer
 62
  256
370
   -1
100
AcDbCircle
 10
-27.58986497261255
 20
-8.108958187544683
 40
1
100
AcDbArc
 50
347.4024135944657
 51
77.40241359446604
  0
LINE
  5
24A
100
AcDbEntity
  8
schema e-arm folded v3
  6
ByLayer
 62
  256
370
   -1
100
AcDbLine
 10
-27.05014328330505
 20
-10.27891221887599
 11
-26.61393902221852
 21
-8.327060318087955
  0
ARC
  5
24B
100
AcDbEntity
  8
schema e-arm folded v3
  6
ByLayer
 62
  256
370
   -1
100
AcDbCircle
 10
-28.02606923369908
 20
-10.06081008833271
 40
1
100
AcDbArc
 50
257.4024135944659
 51
347.4024135944661
  0
LINE
  5
24C
100
AcDbEntity
  8
schema e-arm folded v3
  6
ByLayer
 62
  256
370
   -1
100
AcDbLine
 10
-28.24417136424234
 20
-11.03673603872676
 11
-28.24417136424235
 21
-11.03673603872676
  0
LINE
  5
24D
100
AcDbEntity
  8
schema e-arm folded v3
  6
ByLayer
 62
  256
370
   -1
100
AcDbLine
 10
-29.00199518409309
 20
-9.842707957789445
 11
-28.56579092300656
 21
-7.8908560570014
  0
ARC
  5
24E
100
AcDbEntity
  8
schema e-arm folded v3
  6
ByLayer
 62
  256
370
   -1
100
AcDbCircle
 10
-28.02606923369907
 20
-10.06081008833272
 40
1
100
AcDbArc
 50
167.4024135944657
 51
257.4024135944658
  0
LINE
  5
24F
100
AcDbEntity
  8
bounding box
  6
ByLayer
 62
   16
420
8388608
370
   -1
100
AcDbLine
 10
-40
 20
-17.78961933405462
 11
-16.80486199194432
 21
86
  0
LINE
  5
250
100
AcDbEntity
  8
bounding box
  6
ByLayer
 62
   16
420
8388608
370
   -1
100
AcDbLine
 10
-40
 20
-17.78961933405462
 11
-40
 21
-90.0107348706299
  0
LINE
  5
251
100
AcDbEntity
  8
bounding box
  6
ByLayer
 62
   16
420
8388608
370
   -1
100
AcDbLine
 10
-40
 20
-90.0107348706299
 11
-16.77312716043503
 21
-126.1420015729519
  0
LINE
  5
252
100
AcDbEntity
  8
bounding box
  6
ByLayer
 62
   16
420
8388608
370
   -1
100
AcDbLine
 10
40
 20
-17.78961933405462
 11
40
 21
-90.0107348706299
  0
LINE
  5
253
100
AcDbEntity
  8
bounding box
  6
ByLayer
 62
   16
420
8388608
370
   -1
100
AcDbLine
 10
40
 20
-90.0107348706299
 11
16.77312716043503
 21
-126.1420015729519
  0
CIRCLE
  5
254
100
AcDbEntity
  8
schema e-main body base
  6
ByLayer
 62
  256
370
   -1
100
AcDbCircle
 10
8.999999999999995
 20
-114.9
 40
1.5
  0
CIRCLE
  5
255
100
AcDbEntity
  8
schema e-main body base
  6
ByLayer
 62
  256
370
   -1
100
AcDbCircle
 10
-8.999999999999996
 20
-114.9
 40
1.5
  0
ARC
  5
256
100
AcDbEntity
  8
schema e-main body base
  6
ByLayer
 62
  256
370
   -1
100
AcDbCircle
 10
-2.500953186651834
 20
-147
 40
2
100
AcDbArc
 50
90
 51
180
  0
LINE
  5
257
100
AcDbEntity
  8
schema e-main body base
  6
ByLayer
 62
  256
370
   -1
100
AcDbLine
 10
-4.500953186651834
 20
-148.8729833462074
 11
-4.500953186651834
 21
-147
  0
ARC
  5
258
100
AcDbEntity
  8
schema e-main body base
  6
ByLayer
 62
  256
370
   -1
100
AcDbCircle
 10
-4.500953186651834
 20
-145
 40
5
100
AcDbArc
 50
184.9501511232747
 51
255.52248781407
  0
ARC
  5
259
100
AcDbEntity
  8
schema e-main body base
  6
ByLayer
 62
  256
370
   -1
100
AcDbCircle
 10
-5.500953186651838
 20
-148.8729833462074
 40
1
100
AcDbArc
 50
255.5224878140698
 51
0
  0
ARC
  5
25A
100
AcDbEntity
  8
schema e-main body base
  6
ByLayer
 62
  256
370
   -1
100
AcDbCircle
 10
2.500953186651834
 20
-147
 40
2
100
AcDbArc
 50
360
 51
90
  0
LINE
  5
25B
100
AcDbEntity
  8
schema e-main body base
  6
ByLayer
 62
  256
370
   -1
100
AcDbLine
 10
4.500953186651834
 20
-148.8729833462074
 11
4.500953186651834
 21
-147
  0
ARC
  5
25C
100
AcDbEntity
  8
schema e-main body base
  6
ByLayer
 62
  256
370
   -1
100
AcDbCircle
 10
5.500953186651838
 20
-148.8729833462074
 40
1
100
AcDbArc
 50
180
 51
284.4775121859302
  0
ARC
  5
25D
100
AcDbEntity
  8
schema e-main body base
  6
ByLayer
 62
  256
370
   -1
100
AcDbCircle
 10
4.500953186651834
 20
-145
 40
5
100
AcDbArc
 50
284.47751218593
 51
355.0498488767253
  0
LINE
  5
25E
100
AcDbEntity
  8
schema e-main body base
  6
ByLayer
 62
  256
370
   -1
100
AcDbLine
 10
-2.500953186651834
 20
-145
 11
2.500953186651834
 21
-145
  0
LWPOLYLINE
  5
25F
100
AcDbEntity
  8
RS2205S
  6
ByLayer
 62
  256
370
   -1
100
AcDbPolyline
 90
    4
 70
    1
 43
0
 10
-14
 20
0
 10
14
 20
0
 10
14
 20
15.5
 10
-14
 20
15.5
  0
LWPOLYLINE
  5
260
100
AcDbEntity
  8
RS2205S
  6
ByLayer
 62
  256
370
   -1
100
AcDbPolyline
 90
    4
 70
    1
 43
0
 10
-2.5
 20
15.5
 10
2.5
 20
15.5
 10
2.5
 20
28.6
 10
-2.5
 20
28.6
  0
LINE
  5
261
100
AcDbEntity
  8
RS2205S
  6
ByLayer
 62
  256
370
   -1
100
AcDbLine
 10
2.499999999999998
 20
19.6
 11
-2.500000000000002
 21
19.6
  0
LINE
  5
262
100
AcDbEntity
  8
RS2205S
  6
ByLayer
 62
  256
370
   -1
100
AcDbLine
 10
0
 20
28.6
 11
0
 21
0
  0
LWPOLYLINE
  5
263
100
AcDbEntity
  8
side view v1
  6
ByLayer
 62
  256
370
   -1
100
AcDbPolyline
 90
    4
 70
    1
 43
0
 10
-70.24999999999997
 20
4
 10
-42.24999999999997
 20
4
 10
-42.24999999999997
 20
19.5
 10
-70.24999999999997
 20
19.5
  0
LWPOLYLINE
  5
264
100
AcDbEntity
  8
side view v1
  6
ByLayer
 62
  256
370
   -1
100
AcDbPolyline
 90
    4
 70
    1
 43
0
 10
-58.74999999999997
 20
19.5
 10
-53.74999999999997
 20
19.5
 10
-53.74999999999997
 20
32.6
 10
-58.74999999999997
 20
32.6
  0
LINE
  5
265
100
AcDbEntity
  8
side view v1
  6
ByLayer
 62
  256
370
   -1
100
AcDbLine
 10
-53.74999999999997
 20
23.6
 11
-58.74999999999997
 21
23.6
  0
LINE
  5
266
100
AcDbEntity
  8
side view v1
  6
ByLayer
 62
  256
370
   -1
100
AcDbLine
 10
-56.24999999999997
 20
32.6
 11
-56.24999999999997
 21
4
  0
LWPOLYLINE
  5
267
100
AcDbEntity
  8
side view v1
  6
ByLayer
 62
  256
370
   -1
100
AcDbPolyline
 90
    4
 70
    1
 43
0
 10
98.50000000000003
 20
22
 10
126.5
 20
22
 10
126.5
 20
37.5
 10
98.50000000000003
 20
37.5
  0
LWPOLYLINE
  5
268
100
AcDbEntity
  8
side view v1
  6
ByLayer
 62
  256
370
   -1
100
AcDbPolyline
 90
    4
 70
    1
 43
0
 10
110
 20
37.5
 10
115
 20
37.5
 10
115
 20
50.6
 10
110
 20
50.6
  0
LINE
  5
269
100
AcDbEntity
  8
side view v1
  6
ByLayer
 62
  256
370
   -1
100
AcDbLine
 10
115
 20
41.6
 11
110
 21
41.6
  0
LINE
  5
26A
100
AcDbEntity
  8
side view v1
  6
ByLayer
 62
  256
370
   -1
100
AcDbLine
 10
112.5
 20
50.6
 11
112.5
 21
22
  0
LINE
  5
26B
100
AcDbEntity
  8
side view v1
  6
ByLayer
 62
    5
370
   -1
100
AcDbLine
 10
93.5
 20
19.7
 11
95.5
 21
19.7
  0
LINE
  5
26C
100
AcDbEntity
  8
side view v1
  6
ByLayer
 62
    5
370
   -1
100
AcDbLine
 10
93.5
 20
5.999999999999995
 11
95.5
 21
5.999999999999994
  0
LINE
  5
26D
100
AcDbEntity
  8
side view v1
  6
ByLayer
 62
    5
370
   -1
100
AcDbLine
 10
93.5
 20
5.999999999999995
 11
93.5
 21
19.7
  0
LINE
  5
26E
100
AcDbEntity
  8
side view v1
  6
ByLayer
 62
    5
370
   -1
100
AcDbLine
 10
95.5
 20
5.999999999999994
 11
95.5
 21
19.7
  0
LINE
  5
26F
100
AcDbEntity
  8
side view v1
  6
ByLayer
 62
    5
370
   -1
100
AcDbLine
 10
89.5
 20
14.49999999999999
 11
93.5
 21
14.49999999999999
  0
LINE
  5
270
100
AcDbEntity
  8
side view v1
  6
ByLayer
 62
    5
370
   -1
100
AcDbLine
 10
89.5
 20
6.499999999999995
 11
93.5
 21
6.499999999999995
  0
LINE
  5
271
100
AcDbEntity
  8
side view v1
  6
ByLayer
 62
    5
370
   -1
100
AcDbLine
 10
63
 20
4.499999999999996
 11
63
 21
27.5
  0
LINE
  5
272
100
AcDbEntity
  8
side view v1
  6
ByLayer
 62
    5
370
   -1
100
AcDbLine
 10
89.5
 20
4.499999999999995
 11
89.5
 21
27.49999999999999
  0
LINE
  5
273
100
AcDbEntity
  8
side view v1
  6
ByLayer
 62
    5
370
   -1
100
AcDbLine
 10
84
 20
4.499999999999995
 11
89.5
 21
4.499999999999995
  0
LINE
  5
274
100
AcDbEntity
  8
side view v1
  6
ByLayer
 62
    5
370
   -1
100
AcDbLine
 10
63
 20
4.499999999999996
 11
82.5
 21
4.499999999999995
  0
LINE
  5
275
100
AcDbEntity
  8
side view v1
  6
ByLayer
 62
    5
370
   -1
100
AcDbLine
 10
82.5
 20
-5.051501209517306e-015
 11
84
 21
-5.143346686053984e-015
  0
LINE
  5
276
100
AcDbEntity
  8
side view v1
  6
ByLayer
 62
    5
370
   -1
100
AcDbLine
 10
82.5
 20
-5.051501209517306e-015
 11
82.5
 21
4.499999999999995
  0
LINE
  5
277
100
AcDbEntity
  8
side view v1
  6
ByLayer
 62
    5
370
   -1
100
AcDbLine
 10
84
 20
-5.143346686053984e-015
 11
84
 21
4.499999999999995
  0
LINE
  5
278
100
AcDbEntity
  8
side view v1
  6
ByLayer
 62
    5
370
   -1
100
AcDbLine
 10
63
 20
27.5
 11
82.5
 21
27.5
  0
LINE
  5
279
100
AcDbEntity
  8
side view v1
  6
ByLayer
 62
    5
370
   -1
100
AcDbLine
 10
84
 20
27.5
 11
89.5
 21
27.49999999999999
  0
LINE
  5
27A
100
AcDbEntity
  8
side view v1
  6
ByLayer
 62
    5
370
   -1
100
AcDbLine
 10
82.5
 20
27.5
 11
82.5
 21
32
  0
LINE
  5
27B
100
AcDbEntity
  8
side view v1
  6
ByLayer
 62
    5
370
   -1
100
AcDbLine
 10
82.5
 20
32
 11
84
 21
32
  0
LINE
  5
27C
100
AcDbEntity
  8
side view v1
  6
ByLayer
 62
    5
370
   -1
100
AcDbLine
 10
84
 20
27.5
 11
84
 21
32
  0
LINE
  5
27D
100
AcDbEntity
  8
side view v1
  6
ByLayer
 62
    5
370
   -1
100
AcDbLine
 10
68.5
 20
0.9999999999999958
 11
72
 21
0.9999999999999956
  0
LINE
  5
27E
100
AcDbEntity
  8
side view v1
  6
ByLayer
 62
    5
370
   -1
100
AcDbLine
 10
68.5
 20
0.9999999999999958
 11
68.5
 21
4.499999999999996
  0
LINE
  5
27F
100
AcDbEntity
  8
side view v1
  6
ByLayer
 62
    5
370
   -1
100
AcDbLine
 10
72
 20
0.9999999999999956
 11
72
 21
4.499999999999996
  0
LINE
  5
280
100
AcDbEntity
  8
side view v1
  6
ByLayer
 62
  256
370
   -1
100
AcDbLine
 10
19.95000000000003
 20
24.49999999999999
 11
-132.45
 21
24.50000000000001
  0
LINE
  5
281
100
AcDbEntity
  8
side view v1
  6
ByLayer
 62
  256
370
   -1
100
AcDbLine
 10
188.7
 20
42.49999999999999
 11
36.30000000000003
 21
42.50000000000001
  0
LWPOLYLINE
  5
282
100
AcDbEntity
  8
side view v1
  6
ByLayer
 62
  256
370
   -1
100
AcDbPolyline
 90
    4
 70
    1
 43
0
 10
-85
 20
0
 10
150
 20
0
 10
150
 20
-4
 10
-85
 20
-4
  0
LWPOLYLINE
  5
283
100
AcDbEntity
  8
side view v1
  6
ByLayer
 62
    5
370
   -1
100
AcDbPolyline
 90
    4
 70
    1
 43
0
 10
-35
 20
-4
 10
35
 20
-4
 10
35
 20
-36
 10
-35
 20
-36
  0
CIRCLE
  5
284
100
AcDbEntity
  8
schema e-arm deployed v3
  6
ByLayer
 62
  256
370
   -1
100
AcDbCircle
 10
15.25
 20
15.25
 40
1.5
  0
CIRCLE
  5
285
100
AcDbEntity
  8
schema e-arm deployed v3
  6
ByLayer
 62
  256
370
   -1
100
AcDbCircle
 10
-15.25
 20
15.25
 40
1.5
  0
CIRCLE
  5
286
100
AcDbEntity
  8
schema e-arm folded v3
  6
ByLayer
 62
  256
370
   -1
100
AcDbCircle
 10
15.25
 20
15.25
 40
1.5
  0
CIRCLE
  5
287
100
AcDbEntity
  8
schema e-arm folded v3
  6
ByLayer
 62
  256
370
   -1
100
AcDbCircle
 10
-15.25
 20
15.25
 40
1.5
  0
CIRCLE
  5
288
100
AcDbEntity
  8
motor-folded
  6
ByLayer
 62
  256
370
   -1
100
AcDbCircle
 10
23.31396216222915
 20
-76.23318341373337
 40
13.75
  0
CIRCLE
  5
289
100
AcDbEntity
  8
motor-folded
  6
ByLayer
 62
  256
370
   -1
100
AcDbCircle
 10
-23.31396216222915
 20
-76.23318341373343
 40
13.75
  0
LINE
  5
28A
100
AcDbEntity
  8
Servo Mount Top
  6
ByLayer
 62
  256
370
   -1
100
AcDbLine
 10
4
 20
-91
 11
4
 21
-89.5
  0
LINE
  5
28B
100
AcDbEntity
  8
Servo Mount Top
  6
ByLayer
 62
  256
370
   -1
100
AcDbLine
 10
4
 20
-89.5
 11
5.99999999999998
 21
-89.5
  0
LINE
  5
28C
100
AcDbEntity
  8
Servo Mount Top
  6
ByLayer
 62
  256
370
   -1
100
AcDbLine
 10
5.99999999999998
 20
-89.5
 11
5.999999999999985
 21
-63
  0
LINE
  5
28D
100
AcDbEntity
  8
Servo Mount Top
  6
ByLayer
 62
  256
370
   -1
100
AcDbLine
 10
5.999999999999985
 20
-63
 11
-6.000000000000015
 21
-63
  0
LINE
  5
28E
100
AcDbEntity
  8
Servo Mount Top
  6
ByLayer
 62
  256
370
   -1
100
AcDbLine
 10
-4
 20
-91
 11
-4
 21
-89.5
  0
LINE
  5
28F
100
AcDbEntity
  8
Servo Mount Top
  6
ByLayer
 62
  256
370
   -1
100
AcDbLine
 10
-4
 20
-89.5
 11
-5.99999999999998
 21
-89.5
  0
LINE
  5
290
100
AcDbEntity
  8
Servo Mount Top
  6
ByLayer
 62
  256
370
   -1
100
AcDbLine
 10
-6.000000000000015
 20
-63
 11
-5.99999999999998
 21
-89.5
  0
CIRCLE
  5
291
100
AcDbEntity
  8
Servo Mount Top
  6
ByLayer
 62
  256
370
   -1
100
AcDbCircle
 10
9
 20
-88
 40
1.5
  0
CIRCLE
  5
292
100
AcDbEntity
  8
Servo Mount Top
  6
ByLayer
 62
  256
370
   -1
100
AcDbCircle
 10
9
 20
-88
 40
2.5
  0
LINE
  5
293
100
AcDbEntity
  8
schema e-main body base
  6
ByLayer
 62
  256
370
   -1
100
AcDbLine
 10
12.71438819448142
 20
-55.28525312483369
 11
20.76870030566011
 21
-19.0408486245295
  0
ARC
  5
294
100
AcDbEntity
  8
schema e-main body base
  6
ByLayer
 62
  256
370
   -1
100
AcDbCircle
 10
42.00000000000001
 20
-61.79316685939337
 40
30
100
AcDbArc
 50
167.4711922908485
 51
180
  0
LINE
  5
295
100
AcDbEntity
  8
schema e-main body base
  6
ByLayer
 62
  256
370
   -1
100
AcDbLine
 10
-12.71438819448142
 20
-55.28525312483369
 11
-20.76870030566011
 21
-19.04084862452951
  0
ARC
  5
296
100
AcDbEntity
  8
schema e-main body base
  6
ByLayer
 62
  256
370
   -1
100
AcDbCircle
 10
-42
 20
-61.79316685939336
 40
30
100
AcDbArc
 50
0
 51
12.52880770915149
  0
LINE
  5
297
100
AcDbEntity
  8
schema e-main body base
  6
ByLayer
 62
  256
370
   -1
100
AcDbLine
 10
11.88810446702004
 20
-117.6547012693077
 11
9.482303931155176
 21
-145.4314449677955
  0
LINE
  5
298
100
AcDbEntity
  8
schema e-main body base
  6
ByLayer
 62
  256
370
   -1
100
AcDbLine
 10
12.00000000000001
 20
-61.79316685939336
 11
12
 21
-115.0660314625349
  0
ARC
  5
299
100
AcDbEntity
  8
schema e-main body base
  6
ByLayer
 62
  256
370
   -1
100
AcDbCircle
 10
-18
 20
-115.0660314625349
 40
30
100
AcDbArc
 50
355.0498488767253
 51
0
  0
LINE
  5
29A
100
AcDbEntity
  8
schema e-main body base
  6
ByLayer
 62
  256
370
   -1
100
AcDbLine
 10
-11.88810446702004
 20
-117.6547012693077
 11
-9.482303931155176
 21
-145.4314449677955
  0
LINE
  5
29B
100
AcDbEntity
  8
schema e-main body base
  6
ByLayer
 62
  256
370
   -1
100
AcDbLine
 10
-12.00000000000001
 20
-61.79316685939336
 11
-12
 21
-115.0660314625349
  0
ARC
  5
29C
100
AcDbEntity
  8
schema e-main body base
  6
ByLayer
 62
  256
370
   -1
100
AcDbCircle
 10
18
 20
-115.0660314625349
 40
30
100
AcDbArc
 50
180
 51
184.9501511232747
  0
CIRCLE
  5
29D
100
AcDbEntity
  8
Servo Mount Top
  6
ByLayer
 62
  256
370
   -1
100
AcDbCircle
 10
9
 20
-63
 40
1.5
  0
CIRCLE
  5
29E
100
AcDbEntity
  8
Servo Mount Top
  6
ByLayer
 62
  256
370
   -1
100
AcDbCircle
 10
9
 20
-63
 40
2.5
  0
ARC
  5
29F
100
AcDbEntity
  8
Servo Mount Top
  6
ByLayer
 62
  256
370
   -1
100
AcDbCircle
 10
9.000000000000002
 20
-63
 40
3
100
AcDbArc
 50
0
 51
90.00000000000004
  0
LINE
  5
2A0
100
AcDbEntity
  8
Servo Mount Top
  6
ByLayer
 62
  256
370
   -1
100
AcDbLine
 10
4
 20
-91
 11
9
 21
-90.99999999999999
  0
ARC
  5
2A1
100
AcDbEntity
  8
Servo Mount Top
  6
ByLayer
 62
  256
370
   -1
100
AcDbCircle
 10
8.999999999999993
 20
-88
 40
3
100
AcDbArc
 50
270.0000000000001
 51
2.714031914709786e-013
  0
ARC
  5
2A2
100
AcDbEntity
  8
Servo Mount Top
  6
ByLayer
 62
  256
370
   -1
100
AcDbCircle
 10
-9.000000000000002
 20
-63
 40
3
100
AcDbArc
 50
89.99999999999994
 51
180
  0
LINE
  5
2A3
100
AcDbEntity
  8
Servo Mount Top
  6
ByLayer
 62
  256
370
   -1
100
AcDbLine
 10
-4
 20
-91
 11
-9
 21
-90.99999999999999
  0
ARC
  5
2A4
100
AcDbEntity
  8
Servo Mount Top
  6
ByLayer
 62
  256
370
   -1
100
AcDbCircle
 10
-8.999999999999993
 20
-88
 40
3
100
AcDbArc
 50
179.9999999999997
 51
269.9999999999999
  0
LINE
  5
2A5
100
AcDbEntity
  8
Servo Mount Top
  6
ByLayer
 62
  256
370
   -1
100
AcDbLine
 10
-8.999999999999998
 20
-60
 11
9
 21
-60
  0
LINE
  5
2A6
100
AcDbEntity
  8
Servo Mount Top
  6
ByLayer
 62
  256
370
   -1
100
AcDbLine
 10
11.99999999999999
 20
-87.14695852678534
 11
11.99999999999999
 21
-87.99999999999999
  0
ARC
  5
2A7
100
AcDbEntity
  8
Servo Mount Top
  6
ByLayer
 62
  256
370
   -1
100
AcDbCircle
 10
8.999999999999995
 20
-87.14695852678535
 40
3
100
AcDbArc
 50
2.714031914709786e-013
 51
37.32394851065221
  0
LINE
  5
2A8
100
AcDbEntity
  8
Servo Mount Top
  6
ByLayer
 62
  256
370
   -1
100
AcDbLine
 10
12
 20
-63
 11
12
 21
-65.31940830068143
  0
ARC
  5
2A9
100
AcDbEntity
  8
Servo Mount Top
  6
ByLayer
 62
  256
370
   -1
100
AcDbCircle
 10
23.31396216222915
 20
-76.23318341373337
 40
15
100
AcDbArc
 50
142.676051489348
 51
217.3239485106521
  0
ARC
  5
2AA
100
AcDbEntity
  8
Servo Mount Top
  6
ByLayer
 62
  256
370
   -1
100
AcDbCircle
 10
9.000000000000002
 20
-65.31940830068143
 40
3
100
AcDbArc
 50
322.676051489348
 51
0
  0
LINE
  5
2AB
100
AcDbEntity
  8
Servo Mount Top
  6
ByLayer
 62
  256
370
   -1
100
AcDbLine
 10
-12
 20
-63
 11
-12
 21
-65.31940830068143
  0
ARC
  5
2AC
100
AcDbEntity
  8
Servo Mount Top
  6
ByLayer
 62
  256
370
   -1
100
AcDbCircle
 10
-9.000000000000002
 20
-65.31940830068143
 40
3
100
AcDbArc
 50
180
 51
217.323948510652
  0
ARC
  5
2AD
100
AcDbEntity
  8
Servo Mount Top
  6
ByLayer
 62
  256
370
   -1
100
AcDbCircle
 10
-23.31396216222915
 20
-76.23318341373337
 40
15
100
AcDbArc
 50
322.6760514893481
 51
37.323948510652
  0
LINE
  5
2AE
100
AcDbEntity
  8
Servo Mount Top
  6
ByLayer
 62
  256
370
   -1
100
AcDbLine
 10
-11.99999999999999
 20
-87.14695852678524
 11
-11.99999999999999
 21
-87.99999999999999
  0
ARC
  5
2AF
100
AcDbEntity
  8
Servo Mount Top
  6
ByLayer
 62
  256
370
   -1
100
AcDbCircle
 10
-8.999999999999991
 20
-87.14695852678526
 40
3
100
AcDbArc
 50
142.6760514893483
 51
179.9999999999997
  0
CIRCLE
  5
2B0
100
AcDbEntity
  8
Servo Mount Top
  6
ByLayer
 62
  256
370
   -1
100
AcDbCircle
 10
-9
 20
-88
 40
1.5
  0
CIRCLE
  5
2B1
100
AcDbEntity
  8
Servo Mount Top
  6
ByLayer
 62
  256
370
   -1
100
AcDbCircle
 10
-9
 20
-88
 40
2.5
  0
CIRCLE
  5
2B2
100
AcDbEntity
  8
Servo Mount Top
  6
ByLayer
 62
  256
370
   -1
100
AcDbCircle
 10
-9
 20
-63
 40
1.5
  0
CIRCLE
  5
2B3
100
AcDbEntity
  8
Servo Mount Top
  6
ByLayer
 62
  256
370
   -1
100
AcDbCircle
 10
-9
 20
-63
 40
2.5
  0
LINE
  5
2B4
100
AcDbEntity
  8
Servo Mount Bottom
  6
ByLayer
 62
  256
370
   -1
100
AcDbLine
 10
4
 20
-91
 11
4
 21
-89.5
  0
LINE
  5
2B5
100
AcDbEntity
  8
Servo Mount Bottom
  6
ByLayer
 62
  256
370
   -1
100
AcDbLine
 10
-4
 20
-91
 11
-4
 21
-89.5
  0
CIRCLE
  5
2B6
100
AcDbEntity
  8
Servo Mount Bottom
  6
ByLayer
 62
  256
370
   -1
100
AcDbCircle
 10
9
 20
-88
 40
1.5
  0
CIRCLE
  5
2B7
100
AcDbEntity
  8
Servo Mount Bottom
  6
ByLayer
 62
  256
370
   -1
100
AcDbCircle
 10
9
 20
-63
 40
1.5
  0
ARC
  5
2B8
100
AcDbEntity
  8
Servo Mount Bottom
  6
ByLayer
 62
  256
370
   -1
100
AcDbCircle
 10
9.000000000000002
 20
-63
 40
3
100
AcDbArc
 50
0
 51
90.00000000000004
  0
LINE
  5
2B9
100
AcDbEntity
  8
Servo Mount Bottom
  6
ByLayer
 62
  256
370
   -1
100
AcDbLine
 10
4
 20
-91
 11
9
 21
-90.99999999999999
  0
ARC
  5
2BA
100
AcDbEntity
  8
Servo Mount Bottom
  6
ByLayer
 62
  256
370
   -1
100
AcDbCircle
 10
8.999999999999993
 20
-88
 40
3
100
AcDbArc
 50
270.0000000000001
 51
2.714031914709786e-013
  0
ARC
  5
2BB
100
AcDbEntity
  8
Servo Mount Bottom
  6
ByLayer
 62
  256
370
   -1
100
AcDbCircle
 10
-9.000000000000002
 20
-63
 40
3
100
AcDbArc
 50
89.99999999999994
 51
180
  0
LINE
  5
2BC
100
AcDbEntity
  8
Servo Mount Bottom
  6
ByLayer
 62
  256
370
   -1
100
AcDbLine
 10
-4
 20
-91
 11
-9
 21
-90.99999999999999
  0
ARC
  5
2BD
100
AcDbEntity
  8
Servo Mount Bottom
  6
ByLayer
 62
  256
370
   -1
100
AcDbCircle
 10
-8.999999999999993
 20
-88
 40
3
100
AcDbArc
 50
179.9999999999997
 51
269.9999999999999
  0
LINE
  5
2BE
100
AcDbEntity
  8
Servo Mount Bottom
  6
ByLayer
 62
  256
370
   -1
100
AcDbLine
 10
-8.999999999999998
 20
-60
 11
9
 21
-60
  0
LINE
  5
2BF
100
AcDbEntity
  8
Servo Mount Bottom
  6
ByLayer
 62
  256
370
   -1
100
AcDbLine
 10
11.99999999999999
 20
-87.14695852678534
 11
11.99999999999999
 21
-87.99999999999999
  0
ARC
  5
2C0
100
AcDbEntity
  8
Servo Mount Bottom
  6
ByLayer
 62
  256
370
   -1
100
AcDbCircle
 10
8.999999999999995
 20
-87.14695852678535
 40
3
100
AcDbArc
 50
2.714031914709786e-013
 51
37.32394851065221
  0
LINE
  5
2C1
100
AcDbEntity
  8
Servo Mount Bottom
  6
ByLayer
 62
  256
370
   -1
100
AcDbLine
 10
12
 20
-63
 11
12
 21
-65.31940830068143
  0
ARC
  5
2C2
100
AcDbEntity
  8
Servo Mount Bottom
  6
ByLayer
 62
  256
370
   -1
100
AcDbCircle
 10
23.31396216222915
 20
-76.23318341373337
 40
15
100
AcDbArc
 50
142.676051489348
 51
217.3239485106521
  0
ARC
  5
2C3
100
AcDbEntity
  8
Servo Mount Bottom
  6
ByLayer
 62
  256
370
   -1
100
AcDbCircle
 10
9.000000000000002
 20
-65.31940830068143
 40
3
100
AcDbArc
 50
322.676051489348
 51
0
  0
LINE
  5
2C4
100
AcDbEntity
  8
Servo Mount Bottom
  6
ByLayer
 62
  256
370
   -1
100
AcDbLine
 10
-12
 20
-63
 11
-12
 21
-65.31940830068143
  0
ARC
  5
2C5
100
AcDbEntity
  8
Servo Mount Bottom
  6
ByLayer
 62
  256
370
   -1
100
AcDbCircle
 10
-9.000000000000002
 20
-65.31940830068143
 40
3
100
AcDbArc
 50
180
 51
217.323948510652
  0
ARC
  5
2C6
100
AcDbEntity
  8
Servo Mount Bottom
  6
ByLayer
 62
  256
370
   -1
100
AcDbCircle
 10
-23.31396216222915
 20
-76.23318341373337
 40
15
100
AcDbArc
 50
322.6760514893481
 51
37.323948510652
  0
LINE
  5
2C7
100
AcDbEntity
  8
Servo Mount Bottom
  6
ByLayer
 62
  256
370
   -1
100
AcDbLine
 10
-11.99999999999999
 20
-87.14695852678524
 11
-11.99999999999999
 21
-87.99999999999999
  0
ARC
  5
2C8
100
AcDbEntity
  8
Servo Mount Bottom
  6
ByLayer
 62
  256
370
   -1
100
AcDbCircle
 10
-8.999999999999991
 20
-87.14695852678526
 40
3
100
AcDbArc
 50
142.6760514893483
 51
179.9999999999997
  0
CIRCLE
  5
2C9
100
AcDbEntity
  8
Servo Mount Bottom
  6
ByLayer
 62
  256
370
   -1
100
AcDbCircle
 10
-9
 20
-88
 40
1.5
  0
CIRCLE
  5
2CA
100
AcDbEntity
  8
Servo Mount Bottom
  6
ByLayer
 62
  256
370
   -1
100
AcDbCircle
 10
-9
 20
-63
 40
1.5
  0
LINE
  5
2CB
100
AcDbEntity
  8
Servo Mount Bottom
  6
ByLayer
 62
  256
370
   -1
100
AcDbLine
 10
-4
 20
-89.5
 11
4
 21
-89.5
  0
LWPOLYLINE
  5
2CC
100
AcDbEntity
  8
Servo Mount Bottom
  6
ByLayer
 62
  256
370
   -1
100
AcDbPolyline
 90
    4
 70
    1
 43
0
 10
-6
 20
-87
 10
-7.5
 20
-87
 10
-7.5
 20
-84
 10
-6
 20
-84
  0
LWPOLYLINE
  5
2CD
100
AcDbEntity
  8
Servo Mount Bottom
  6
ByLayer
 62
  256
370
   -1
100
AcDbPolyline
 90
    4
 70
    1
 43
0
 10
-6
 20
-67
 10
-7.5
 20
-67
 10
-7.5
 20
-70
 10
-6
 20
-70
  0
LWPOLYLINE
  5
2CE
100
AcDbEntity
  8
Servo Mount Bottom
  6
ByLayer
 62
  256
370
   -1
100
AcDbPolyline
 90
    4
 70
    1
 43
0
 10
6
 20
-87
 10
7.5
 20
-87
 10
7.5
 20
-84
 10
6
 20
-84
  0
LWPOLYLINE
  5
2CF
100
AcDbEntity
  8
Servo Mount Bottom
  6
ByLayer
 62
  256
370
   -1
100
AcDbPolyline
 90
    4
 70
    1
 43
0
 10
6
 20
-67
 10
7.5
 20
-67
 10
7.5
 20
-70
 10
6
 20
-70
  0
LWPOLYLINE
  5
2D0
100
AcDbEntity
  8
schema e-main body base
  6
ByLayer
 62
  256
370
   -1
100
AcDbPolyline
 90
    4
 70
    1
 43
0
 10
-6
 20
-87
 10
-7.5
 20
-87
 10
-7.5
 20
-84
 10
-6
 20
-84
  0
LWPOLYLINE
  5
2D1
100
AcDbEntity
  8
schema e-main body base
  6
ByLayer
 62
  256
370
   -1
100
AcDbPolyline
 90
    4
 70
    1
 43
0
 10
-6
 20
-67
 10
-7.5
 20
-67
 10
-7.5
 20
-70
 10
-6
 20
-70
  0
LWPOLYLINE
  5
2D2
100
AcDbEntity
  8
schema e-main body base
  6
ByLayer
 62
  256
370
   -1
100
AcDbPolyline
 90
    4
 70
    1
 43
0
 10
6
 20
-87
 10
7.5
 20
-87
 10
7.5
 20
-84
 10
6
 20
-84
  0
LWPOLYLINE
  5
2D3
100
AcDbEntity
  8
schema e-main body base
  6
ByLayer
 62
  256
370
   -1
100
AcDbPolyline
 90
    4
 70
    1
 43
0
 10
6
 20
-67
 10
7.5
 20
-67
 10
7.5
 20
-70
 10
6
 20
-70
  0
LINE
  5
2D4
100
AcDbEntity
  8
2
  6
ByLayer
 62
    4
370
   -1
100
AcDbLine
 10
-6
 20
-36.53658775436691
 11
-5.999999999999994
 21
-188.463412245633
  0
LINE
  5
2D5
100
AcDbEntity
  8
2
  6
ByLayer
 62
    4
370
   -1
100
AcDbLine
 10
6.000000000000001
 20
-36.53658775436692
 11
6.000000000000003
 21
-188.4634122456331
  0
LINE
  5
2D6
100
AcDbEntity
  8
2
  6
ByLayer
 62
    4
370
   -1
100
AcDbLine
 10
4.801499689422925
 20
-150.3933393816987
 11
29.99148171475728
 21
-0.08956429416693451
  0
LINE
  5
2D7
100
AcDbEntity
  8
2
  6
ByLayer
 62
    4
370
   -1
100
AcDbLine
 10
16.63644260970102
 20
-152.3768025332998
 11
41.82642463503537
 21
-2.073027445768067
  0
LINE
  5
2D8
100
AcDbEntity
  8
2
  6
ByLayer
 62
    4
370
   -1
100
AcDbLine
 10
41.82642463503537
 20
-2.073027445768067
 11
29.99148171475728
 21
-0.08956429416693451
  0
LINE
  5
2D9
100
AcDbEntity
  8
2
  6
ByLayer
 62
    4
370
   -1
100
AcDbLine
 10
16.63644260970102
 20
-152.3768025332998
 11
4.801499689422925
 21
-150.3933393816987
  0
LINE
  5
2DA
100
AcDbEntity
  8
2
  6
ByLayer
 62
    4
370
   -1
100
AcDbLine
 10
-4.801499689422925
 20
-150.3933393816987
 11
-29.99148171475728
 21
-0.08956429416693285
  0
LINE
  5
2DB
100
AcDbEntity
  8
2
  6
ByLayer
 62
    4
370
   -1
100
AcDbLine
 10
-16.63644260970102
 20
-152.3768025332998
 11
-41.82642463503537
 21
-2.073027445768072
  0
LINE
  5
2DC
100
AcDbEntity
  8
2
  6
ByLayer
 62
    4
370
   -1
100
AcDbLine
 10
-41.82642463503537
 20
-2.073027445768072
 11
-29.99148171475728
 21
-0.08956429416693285
  0
LINE
  5
2DD
100
AcDbEntity
  8
2
  6
ByLayer
 62
    4
370
   -1
100
AcDbLine
 10
-16.63644260970102
 20
-152.3768025332998
 11
-4.801499689422925
 21
-150.3933393816987
  0
LINE
  5
2DE
100
AcDbEntity
  8
2
  6
ByLayer
 62
    4
370
   -1
100
AcDbLine
 10
-6
 20
-36.53658775436691
 11
6.000000000000001
 21
-36.53658775436692
  0
LINE
  5
2DF
100
AcDbEntity
  8
2
  6
ByLayer
 62
    4
370
   -1
100
AcDbLine
 10
-5.999999999999994
 20
-188.463412245633
 11
6.000000000000003
 21
-188.4634122456331
  0
ENDSEC
  0
SECTION
  2
OBJECTS
  0
DICTIONARY
  5
C
330
0
100
AcDbDictionary
281
    1
  3
ACAD_GROUP
350
D
  0
DICTIONARY
  5
D
330
C
100
AcDbDictionary
281
    1
  0
ENDSEC
  0
EOF
