999
dxfrw 0.6.3
  0
SECTION
  2
HEADER
  9
$ACADVER
  1
AC1021
  9
$DWGCODEPAGE
  3
ANSI_1252
  9
$INSBASE
 10
0
 20
0
 30
0
  9
$EXTMIN
 10
-12.75
 20
-12.75
 30
0
  9
$EXTMAX
 10
137.5
 20
129
 30
0
  9
$LIMMIN
 10
0
 20
0
  9
$LIMMAX
 10
420
 20
297
  9
$ORTHOMODE
 70
    0
  9
$REGENMODE
 70
    1
  9
$FILLMODE
 70
    1
  9
$QTEXTMODE
 70
    0
  9
$MIRRTEXT
 70
    0
  9
$LTSCALE
 40
1
  9
$ATTMODE
 70
    0
  9
$TEXTSIZE
 40
2.5
  9
$TRACEWID
 40
15.68
  9
$TEXTSTYLE
  7
STANDARD
  9
$CLAYER
  8
0002-Outline2
  9
$CELTYPE
  6
BYLAYER
  9
$CECOLOR
 62
  256
  9
$CELTSCALE
 40
1
  9
$DISPSILH
 70
    0
  9
$DIMSCALE
 40
2.5
  9
$DIMASZ
 40
2.5
  9
$DIMEXO
 40
0.625
  9
$DIMDLI
 40
3.75
  9
$DIMRND
 40
0
  9
$DIMDLE
 40
0
  9
$DIMEXE
 40
1.25
  9
$DIMTP
 40
0
  9
$DIMTM
 40
0
  9
$DIMTXT
 40
2.5
  9
$DIMCEN
 40
2.5
  9
$DIMTSZ
 40
0
  9
$DIMTOL
 70
    0
  9
$DIMLIM
 70
    0
  9
$DIMTIH
 70
    0
  9
$DIMTOH
 70
    0
  9
$DIMSE1
 70
    0
  9
$DIMSE2
 70
    0
  9
$DIMTAD
 70
    1
  9
$DIMZIN
 70
    8
  9
$DIMBLK
  1

  9
$DIMASO
 70
    1
  9
$DIMSHO
 70
    1
  9
$DIMPOST
  1

  9
$DIMAPOST
  1

  9
$DIMALT
 70
    0
  9
$DIMALTD
 70
    3
  9
$DIMALTF
 40
0.03937
  9
$DIMLFAC
 40
1
  9
$DIMTOFL
 70
    1
  9
$DIMTVP
 40
0
  9
$DIMTIX
 70
    0
  9
$DIMSOXD
 70
    0
  9
$DIMSAH
 70
    0
  9
$DIMBLK1
  1

  9
$DIMBLK2
  1

  9
$DIMSTYLE
  2
STANDARD
  9
$DIMCLRD
 70
    0
  9
$DIMCLRE
 70
    0
  9
$DIMCLRT
 70
    0
  9
$DIMTFAC
 40
1
  9
$DIMGAP
 40
0.625
  9
$DIMJUST
 70
    0
  9
$DIMSD1
 70
    0
  9
$DIMSD2
 70
    0
  9
$DIMTOLJ
 70
    0
  9
$DIMTZIN
 70
    8
  9
$DIMALTZ
 70
    0
  9
$DIMALTTZ
 70
    0
  9
$DIMUPT
 70
    0
  9
$DIMDEC
 70
    2
  9
$DIMTDEC
 70
    2
  9
$DIMALTU
 70
    2
  9
$DIMALTTD
 70
    3
  9
$DIMTXSTY
  7
STANDARD
  9
$DIMAUNIT
 70
    0
  9
$DIMADEC
 70
    0
  9
$DIMALTRND
 40
0
  9
$DIMAZIN
 70
    0
  9
$DIMDSEP
 70
   44
  9
$DIMATFIT
 70
    3
  9
$DIMFRAC
 70
    0
  9
$DIMLDRBLK
  1
STANDARD
  9
$DIMLUNIT
 70
    2
  9
$DIMLWD
 70
   -2
  9
$DIMLWE
 70
   -2
  9
$DIMTMOVE
 70
    0
  9
$DIMFXL
 40
1
  9
$DIMFXLON
 70
    0
  9
$DIMJOGANG
 40
0.7854
  9
$DIMTFILL
 70
    0
  9
$DIMTFILLCLR
 70
    0
  9
$DIMARCSYM
 70
    0
  9
$DIMLTYPE
  6

  9
$DIMLTEX1
  6

  9
$DIMLTEX2
  6

  9
$LUNITS
 70
    2
  9
$LUPREC
 70
    4
  9
$SKETCHINC
 40
1
  9
$FILLETRAD
 40
0
  9
$AUNITS
 70
    0
  9
$AUPREC
 70
    2
  9
$MENU
  1
.
  9
$ELEVATION
 40
0
  9
$PELEVATION
 40
0
  9
$THICKNESS
 40
0
  9
$LIMCHECK
 70
    0
  9
$CHAMFERA
 40
0
  9
$CHAMFERB
 40
0
  9
$CHAMFERC
 40
0
  9
$CHAMFERD
 40
0
  9
$SKPOLY
 70
    0
  9
$USRTIMER
 70
    1
  9
$ANGBASE
 50
0
  9
$ANGDIR
 70
    0
  9
$PDMODE
 70
   34
  9
$PDSIZE
 40
0
  9
$PLINEWID
 40
0
  9
$SPLFRAME
 70
    0
  9
$SPLINETYPE
 70
    2
  9
$SPLINESEGS
 70
    8
  9
$HANDSEED
  5
20000
  9
$SURFTAB1
 70
    6
  9
$SURFTAB2
 70
    6
  9
$SURFTYPE
 70
    6
  9
$SURFU
 70
    6
  9
$SURFV
 70
    6
  9
$UCSBASE
  2

  9
$UCSNAME
  2

  9
$UCSORG
 10
0
 20
0
 30
0
  9
$UCSXDIR
 10
1
 20
0
 30
0
  9
$UCSYDIR
 10
0
 20
1
 30
0
  9
$UCSORTHOREF
  2

  9
$UCSORTHOVIEW
 70
    0
  9
$UCSORGTOP
 10
0
 20
0
 30
0
  9
$UCSORGBOTTOM
 10
0
 20
0
 30
0
  9
$UCSORGLEFT
 10
0
 20
0
 30
0
  9
$UCSORGRIGHT
 10
0
 20
0
 30
0
  9
$UCSORGFRONT
 10
0
 20
0
 30
0
  9
$UCSORGBACK
 10
0
 20
0
 30
0
  9
$PUCSBASE
  2

  9
$PUCSNAME
  2

  9
$PUCSORG
 10
0
 20
0
 30
0
  9
$PUCSXDIR
 10
1
 20
0
 30
0
  9
$PUCSYDIR
 10
0
 20
1
 30
0
  9
$PUCSORTHOREF
  2

  9
$PUCSORTHOVIEW
 70
    0
  9
$PUCSORGTOP
 10
0
 20
0
 30
0
  9
$PUCSORGBOTTOM
 10
0
 20
0
 30
0
  9
$PUCSORGLEFT
 10
0
 20
0
 30
0
  9
$PUCSORGRIGHT
 10
0
 20
0
 30
0
  9
$PUCSORGFRONT
 10
0
 20
0
 30
0
  9
$PUCSORGBACK
 10
0
 20
0
 30
0
  9
$USERI1
 70
    0
  9
$USERI2
 70
    0
  9
$USERI3
 70
    0
  9
$USERI4
 70
    0
  9
$USERI5
 70
    0
  9
$USERR1
 40
0
  9
$USERR2
 40
0
  9
$USERR3
 40
0
  9
$USERR4
 40
0
  9
$USERR5
 40
0
  9
$WORLDVIEW
 70
    1
  9
$SHADEDGE
 70
    3
  9
$SHADEDIF
 70
   70
  9
$TILEMODE
 70
    1
  9
$MAXACTVP
 70
   64
  9
$PINSBASE
 10
0
 20
0
 30
0
  9
$PLIMCHECK
 70
    0
  9
$PEXTMIN
 10
0
 20
0
 30
0
  9
$PEXTMAX
 10
0
 20
0
 30
0
  9
$GRIDMODE
 70
    1
  9
$SNAPSTYLE
 70
    0
  9
$PLIMMIN
 10
0
 20
0
  9
$PLIMMAX
 10
210
 20
297
  9
$UNITMODE
 70
    0
  9
$VISRETAIN
 70
    1
  9
$PLINEGEN
 70
    0
  9
$PSLTSCALE
 70
    1
  9
$TREEDEPTH
 70
 3020
  9
$CMLSTYLE
  2
Standard
  9
$CMLJUST
 70
    0
  9
$CMLSCALE
 40
20
  9
$PROXYGRAPHICS
 70
    1
  9
$MEASUREMENT
 70
    1
  9
$CELWEIGHT
370
   -1
  9
$ENDCAPS
280
    0
  9
$JOINSTYLE
280
    0
  9
$LWDISPLAY
290
    0
  9
$INSUNITS
 70
    4
  9
$HYPERLINKBASE
  1

  9
$STYLESHEET
  1

  9
$XEDIT
290
    1
  9
$CEPSNTYPE
380
    0
  9
$PSTYLEMODE
290
    1
  9
$EXTNAMES
290
    1
  9
$PSVPSCALE
 40
1
  9
$OLESTARTUP
290
    0
  9
$SORTENTS
280
  127
  9
$INDEXCTL
280
    0
  9
$HIDETEXT
280
    1
  9
$XCLIPFRAME
290
    0
  9
$HALOGAP
280
    0
  9
$OBSCOLOR
 70
  257
  9
$OBSLTYPE
280
    0
  9
$INTERSECTIONDISPLAY
280
    0
  9
$INTERSECTIONCOLOR
 70
  257
  9
$DIMASSOC
280
    1
  9
$PROJECTNAME
  1

  9
$CAMERADISPLAY
290
    0
  9
$LENSLENGTH
 40
50
  9
$CAMERAHEIGHT
 40
0
  9
$STEPSPERSEC
 40
2
  9
$STEPSIZE
 40
50
  9
$3DDWFPREC
 40
2
  9
$PSOLWIDTH
 40
5
  9
$PSOLHEIGHT
 40
80
  9
$LOFTANG1
 40
1.570796326794897
  9
$LOFTANG2
 40
1.570796326794897
  9
$LOFTMAG1
 40
0
  9
$LOFTMAG2
 40
0
  9
$LOFTPARAM
 70
    7
  9
$LOFTNORMALS
280
    1
  9
$LATITUDE
 40
1
  9
$LONGITUDE
 40
1
  9
$NORTHDIRECTION
 40
0
  9
$TIMEZONE
 70
-8000
  9
$LIGHTGLYPHDISPLAY
280
    1
  9
$TILEMODELIGHTSYNCH
280
    1
  9
$SOLIDHIST
280
    1
  9
$SHOWHIST
280
    1
  9
$DWFFRAME
280
    2
  9
$DGNFRAME
280
    0
  9
$REALWORLDSCALE
290
    1
  9
$INTERFERECOLOR
 62
    1
  9
$CSHADOW
280
    0
  9
$SHADOWPLANELOCATION
 40
0
  0
ENDSEC
  0
SECTION
  2
CLASSES
  0
ENDSEC
  0
SECTION
  2
TABLES
  0
TABLE
  2
VPORT
  5
8
330
0
100
AcDbSymbolTable
 70
    1
  0
VPORT
  5
31
330
2
100
AcDbSymbolTableRecord
100
AcDbViewportTableRecord
  2
*ACTIVE
 70
    0
 10
0
 20
0
 11
1
 21
1
 12
82.03352076124567
 22
65.84753460207612
 13
0
 23
0
 14
10
 24
10
 15
10
 25
10
 16
0
 26
0
 36
1
 17
0
 27
0
 37
0
 40
146.6548442906574
 41
1.38628762541806
 42
50
 43
0
 44
0
 50
0
 51
0
 71
    0
 72
  100
 73
    1
 74
    3
 75
    0
 76
    1
 77
    0
 78
    0
281
    0
 65
    1
110
0
120
0
130
0
111
1
121
0
131
0
112
0
122
1
132
0
 79
    0
146
0
348
10020
 60
    7
 61
    5
292
1
282
    1
141
0
142
0
 63
  250
421
3358443
  0
ENDTAB
  0
TABLE
  2
LTYPE
  5
5
330
0
100
AcDbSymbolTable
 70
    4
  0
LTYPE
  5
14
330
5
100
AcDbSymbolTableRecord
100
AcDbLinetypeTableRecord
  2
ByBlock
 70
    0
  3

 72
   65
 73
    0
 40
0
  0
LTYPE
  5
15
330
5
100
AcDbSymbolTableRecord
100
AcDbLinetypeTableRecord
  2
ByLayer
 70
    0
  3

 72
   65
 73
    0
 40
0
  0
LTYPE
  5
16
330
5
100
AcDbSymbolTableRecord
100
AcDbLinetypeTableRecord
  2
Continuous
 70
    0
  3
Solid line
 72
   65
 73
    0
 40
0
  0
LTYPE
  5
32
330
5
100
AcDbSymbolTableRecord
100
AcDbLinetypeTableRecord
  2
DOT
 70
    0
  3
Dot . . . . . . . . . . . . . . . . . . . . . .
 72
   65
 73
    2
 40
6.35
 49
0
 74
    0
 49
-6.35
 74
    0
  0
LTYPE
  5
33
330
5
100
AcDbSymbolTableRecord
100
AcDbLinetypeTableRecord
  2
DOTTINY
 70
    0
  3
Dot (.15x) .....................................
 72
   65
 73
    2
 40
0.9525
 49
0
 74
    0
 49
-0.9525
 74
    0
  0
LTYPE
  5
34
330
5
100
AcDbSymbolTableRecord
100
AcDbLinetypeTableRecord
  2
DOT2
 70
    0
  3
Dot (.5x) .....................................
 72
   65
 73
    2
 40
3.175
 49
0
 74
    0
 49
-3.175
 74
    0
  0
LTYPE
  5
35
330
5
100
AcDbSymbolTableRecord
100
AcDbLinetypeTableRecord
  2
DOTX2
 70
    0
  3
Dot (2x) .  .  .  .  .  .  .  .  .  .  .  .  .
 72
   65
 73
    2
 40
12.7
 49
0
 74
    0
 49
-12.7
 74
    0
  0
LTYPE
  5
36
330
5
100
AcDbSymbolTableRecord
100
AcDbLinetypeTableRecord
  2
DASHED
 70
    0
  3
Dashed _ _ _ _ _ _ _ _ _ _ _ _ _ _ _ _ _
 72
   65
 73
    2
 40
19.05
 49
12.7
 74
    0
 49
-6.35
 74
    0
  0
LTYPE
  5
37
330
5
100
AcDbSymbolTableRecord
100
AcDbLinetypeTableRecord
  2
DASHEDTINY
 70
    0
  3
Dashed (.15x) _ _ _ _ _ _ _ _ _ _ _ _ _ _ _ _ _
 72
   65
 73
    2
 40
2.8575
 49
1.905
 74
    0
 49
-0.9525
 74
    0
  0
LTYPE
  5
38
330
5
100
AcDbSymbolTableRecord
100
AcDbLinetypeTableRecord
  2
DASHED2
 70
    0
  3
Dashed (.5x) _ _ _ _ _ _ _ _ _ _ _ _ _ _ _ _ _
 72
   65
 73
    2
 40
9.524999999999999
 49
6.35
 74
    0
 49
-3.175
 74
    0
  0
LTYPE
  5
39
330
5
100
AcDbSymbolTableRecord
100
AcDbLinetypeTableRecord
  2
DASHEDX2
 70
    0
  3
Dashed (2x) ____  ____  ____  ____  ____  ___
 72
   65
 73
    2
 40
38.09999999999999
 49
25.4
 74
    0
 49
-12.7
 74
    0
  0
LTYPE
  5
3A
330
5
100
AcDbSymbolTableRecord
100
AcDbLinetypeTableRecord
  2
DASHDOT
 70
    0
  3
Dash dot __ . __ . __ . __ . __ . __ . __ . __
 72
   65
 73
    4
 40
25.4
 49
12.7
 74
    0
 49
-6.35
 74
    0
 49
0
 74
    0
 49
-6.35
 74
    0
  0
LTYPE
  5
3B
330
5
100
AcDbSymbolTableRecord
100
AcDbLinetypeTableRecord
  2
DASHDOTTINY
 70
    0
  3
Dash dot (.15x) _._._._._._._._._._._._._._._.
 72
   65
 73
    4
 40
3.81
 49
1.905
 74
    0
 49
-0.9525
 74
    0
 49
0
 74
    0
 49
-0.9525
 74
    0
  0
LTYPE
  5
3C
330
5
100
AcDbSymbolTableRecord
100
AcDbLinetypeTableRecord
  2
DASHDOT2
 70
    0
  3
Dash dot (.5x) _._._._._._._._._._._._._._._.
 72
   65
 73
    4
 40
12.7
 49
6.35
 74
    0
 49
-3.175
 74
    0
 49
0
 74
    0
 49
-3.175
 74
    0
  0
LTYPE
  5
3D
330
5
100
AcDbSymbolTableRecord
100
AcDbLinetypeTableRecord
  2
DASHDOTX2
 70
    0
  3
Dash dot (2x) ____  .  ____  .  ____  .  ___
 72
   65
 73
    4
 40
50.8
 49
25.4
 74
    0
 49
-12.7
 74
    0
 49
0
 74
    0
 49
-12.7
 74
    0
  0
LTYPE
  5
3E
330
5
100
AcDbSymbolTableRecord
100
AcDbLinetypeTableRecord
  2
DIVIDE
 70
    0
  3
Divide ____ . . ____ . . ____ . . ____ . . ____
 72
   65
 73
    6
 40
31.75
 49
12.7
 74
    0
 49
-6.35
 74
    0
 49
0
 74
    0
 49
-6.35
 74
    0
 49
0
 74
    0
 49
-6.35
 74
    0
  0
LTYPE
  5
3F
330
5
100
AcDbSymbolTableRecord
100
AcDbLinetypeTableRecord
  2
DIVIDETINY
 70
    0
  3
Divide (.15x) __..__..__..__..__..__..__..__.._
 72
   65
 73
    6
 40
4.7625
 49
1.905
 74
    0
 49
-0.9525
 74
    0
 49
0
 74
    0
 49
-0.9525
 74
    0
 49
0
 74
    0
 49
-0.9525
 74
    0
  0
LTYPE
  5
40
330
5
100
AcDbSymbolTableRecord
100
AcDbLinetypeTableRecord
  2
DIVIDE2
 70
    0
  3
Divide (.5x) __..__..__..__..__..__..__..__.._
 72
   65
 73
    6
 40
15.875
 49
6.35
 74
    0
 49
-3.175
 74
    0
 49
0
 74
    0
 49
-3.175
 74
    0
 49
0
 74
    0
 49
-3.175
 74
    0
  0
LTYPE
  5
41
330
5
100
AcDbSymbolTableRecord
100
AcDbLinetypeTableRecord
  2
DIVIDEX2
 70
    0
  3
Divide (2x) ________  .  .  ________  .  .  _
 72
   65
 73
    6
 40
63.5
 49
25.4
 74
    0
 49
-12.7
 74
    0
 49
0
 74
    0
 49
-12.7
 74
    0
 49
0
 74
    0
 49
-12.7
 74
    0
  0
LTYPE
  5
42
330
5
100
AcDbSymbolTableRecord
100
AcDbLinetypeTableRecord
  2
BORDER
 70
    0
  3
Border __ __ . __ __ . __ __ . __ __ . __ __ .
 72
   65
 73
    6
 40
44.45
 49
12.7
 74
    0
 49
-6.35
 74
    0
 49
12.7
 74
    0
 49
-6.35
 74
    0
 49
0
 74
    0
 49
-6.35
 74
    0
  0
LTYPE
  5
43
330
5
100
AcDbSymbolTableRecord
100
AcDbLinetypeTableRecord
  2
BORDERTINY
 70
    0
  3
Border (.15x) __.__.__.__.__.__.__.__.__.__.__.
 72
   65
 73
    6
 40
6.6675
 49
1.905
 74
    0
 49
-0.9525
 74
    0
 49
1.905
 74
    0
 49
-0.9525
 74
    0
 49
0
 74
    0
 49
-0.9525
 74
    0
  0
LTYPE
  5
44
330
5
100
AcDbSymbolTableRecord
100
AcDbLinetypeTableRecord
  2
BORDER2
 70
    0
  3
Border (.5x) __.__.__.__.__.__.__.__.__.__.__.
 72
   65
 73
    6
 40
22.225
 49
6.35
 74
    0
 49
-3.175
 74
    0
 49
6.35
 74
    0
 49
-3.175
 74
    0
 49
0
 74
    0
 49
-3.175
 74
    0
  0
LTYPE
  5
45
330
5
100
AcDbSymbolTableRecord
100
AcDbLinetypeTableRecord
  2
BORDERX2
 70
    0
  3
Border (2x) ____  ____  .  ____  ____  .  ___
 72
   65
 73
    6
 40
88.89999999999999
 49
25.4
 74
    0
 49
-12.7
 74
    0
 49
25.4
 74
    0
 49
-12.7
 74
    0
 49
0
 74
    0
 49
-12.7
 74
    0
  0
LTYPE
  5
46
330
5
100
AcDbSymbolTableRecord
100
AcDbLinetypeTableRecord
  2
CENTER
 70
    0
  3
Center ____ _ ____ _ ____ _ ____ _ ____ _ ____
 72
   65
 73
    4
 40
50.8
 49
31.75
 74
    0
 49
-6.35
 74
    0
 49
6.35
 74
    0
 49
-6.35
 74
    0
  0
LTYPE
  5
47
330
5
100
AcDbSymbolTableRecord
100
AcDbLinetypeTableRecord
  2
CENTERTINY
 70
    0
  3
Center (.15x) ___ _ ___ _ ___ _ ___ _ ___ _ ___
 72
   65
 73
    4
 40
7.62
 49
4.7625
 74
    0
 49
-0.9525
 74
    0
 49
0.9525
 74
    0
 49
-0.9525
 74
    0
  0
LTYPE
  5
48
330
5
100
AcDbSymbolTableRecord
100
AcDbLinetypeTableRecord
  2
CENTER2
 70
    0
  3
Center (.5x) ___ _ ___ _ ___ _ ___ _ ___ _ ___
 72
   65
 73
    4
 40
28.575
 49
19.05
 74
    0
 49
-3.175
 74
    0
 49
3.175
 74
    0
 49
-3.175
 74
    0
  0
LTYPE
  5
49
330
5
100
AcDbSymbolTableRecord
100
AcDbLinetypeTableRecord
  2
CENTERX2
 70
    0
  3
Center (2x) ________  __  ________  __  _____
 72
   65
 73
    4
 40
101.6
 49
63.5
 74
    0
 49
-12.7
 74
    0
 49
12.7
 74
    0
 49
-12.7
 74
    0
  0
ENDTAB
  0
TABLE
  2
LAYER
  5
2
330
0
100
AcDbSymbolTable
 70
    1
  0
LAYER
  5
10
330
2
100
AcDbSymbolTableRecord
100
AcDbLayerTableRecord
  2
0
 70
    5
 62
    7
  6
CONTINUOUS
370
    0
390
F
  0
LAYER
  5
4A
330
2
100
AcDbSymbolTableRecord
100
AcDbLayerTableRecord
  2
0001-Outline
 70
    5
 62
    7
  6
CONTINUOUS
370
    0
390
F
  0
LAYER
  5
4B
330
2
100
AcDbSymbolTableRecord
100
AcDbLayerTableRecord
  2
0002-Outline2
 70
    5
 62
    7
  6
CONTINUOUS
370
    0
390
F
  0
LAYER
  5
4C
330
2
100
AcDbSymbolTableRecord
100
AcDbLayerTableRecord
  2
0003-Outline3
 70
    5
 62
    7
  6
CONTINUOUS
370
    0
390
F
  0
LAYER
  5
4D
330
2
100
AcDbSymbolTableRecord
100
AcDbLayerTableRecord
  2
0100-PDB Standard
 70
    5
 62
    7
  6
CONTINUOUS
370
    0
390
F
  0
LAYER
  5
4E
330
2
100
AcDbSymbolTableRecord
100
AcDbLayerTableRecord
  2
0101-PDB HUBOSD H
 70
    5
 62
    7
  6
CONTINUOUS
370
    0
390
F
  0
LAYER
  5
4F
330
2
100
AcDbSymbolTableRecord
100
AcDbLayerTableRecord
  2
0102-PDB HUBOSD XT60
 70
    5
 62
    7
  6
CONTINUOUS
370
    0
390
F
  0
LAYER
  5
50
330
2
100
AcDbSymbolTableRecord
100
AcDbLayerTableRecord
  2
0200-Rotors
 70
    5
 62
    7
  6
CONTINUOUS
370
    0
390
F
  0
LAYER
  5
51
330
2
100
AcDbSymbolTableRecord
100
AcDbLayerTableRecord
  2
0201-Rotors Folded
 70
    5
 62
    7
  6
CONTINUOUS
370
    0
390
F
  0
LAYER
  5
52
330
2
100
AcDbSymbolTableRecord
100
AcDbLayerTableRecord
  2
0300-Tail Servo
 70
    5
 62
    7
  6
CONTINUOUS
370
    0
390
F
  0
LAYER
  5
53
330
2
100
AcDbSymbolTableRecord
100
AcDbLayerTableRecord
  2
0400-Little Bee 30A
 70
    5
 62
    7
  6
CONTINUOUS
370
    0
390
F
  0
LAYER
  5
54
330
2
100
AcDbSymbolTableRecord
100
AcDbLayerTableRecord
  2
0500-tail
 70
    4
 62
    7
  6
CONTINUOUS
370
    0
390
F
  0
LAYER
  5
55
330
2
100
AcDbSymbolTableRecord
100
AcDbLayerTableRecord
  2
0600-EMAX RS2205
 70
    5
 62
    7
  6
CONTINUOUS
370
    0
390
F
  0
ENDTAB
  0
TABLE
  2
STYLE
  5
3
330
0
100
AcDbSymbolTable
 70
    3
  0
STYLE
  5
56
330
2
100
AcDbSymbolTableRecord
100
AcDbTextStyleTableRecord
  2
Standard
 70
    0
 40
0
 41
1
 50
0
 71
    0
 42
1
  3
txt
  4

  0
ENDTAB
  0
TABLE
  2
VIEW
  5
6
330
0
100
AcDbSymbolTable
 70
    0
  0
ENDTAB
  0
TABLE
  2
UCS
  5
7
330
0
100
AcDbSymbolTable
 70
    0
  0
ENDTAB
  0
TABLE
  2
APPID
  5
9
330
0
100
AcDbSymbolTable
 70
    1
  0
APPID
  5
12
330
9
100
AcDbSymbolTableRecord
100
AcDbRegAppTableRecord
  2
ACAD
 70
    0
  0
APPID
  5
57
330
9
100
AcDbSymbolTableRecord
100
AcDbRegAppTableRecord
  2
LibreCad
 70
    0
  0
ENDTAB
  0
TABLE
  2
DIMSTYLE
  5
A
330
0
100
AcDbSymbolTable
 70
    1
100
AcDbDimStyleTable
 71
    1
  0
DIMSTYLE
105
58
330
A
100
AcDbSymbolTableRecord
100
AcDbDimStyleTableRecord
  2
Standard
 70
    0
 40
2.5
 41
2.5
 42
0.625
 43
0.38
 44
1.25
 45
0
 46
0
 47
0
 48
0
 49
1
140
2.5
141
0.09
142
0
143
25.4
144
1
145
0
146
1
147
0.625
148
0
 71
    0
 72
    0
 73
    0
 74
    1
 75
    0
 76
    0
 77
    0
 78
    8
 79
    0
170
    0
171
    2
172
    0
173
    0
174
    0
175
    0
176
    0
177
    0
178
    0
179
    0
271
    2
272
    4
273
    2
274
    2
275
    0
276
    0
277
    2
278
   44
279
    0
280
    0
281
    0
282
    0
283
    1
284
    0
285
    0
286
    0
288
    0
289
    3
340
STANDARD
341

371
   -2
372
   -2
  0
ENDTAB
  0
TABLE
  2
BLOCK_RECORD
  5
1
330
0
100
AcDbSymbolTable
 70
    2
  0
BLOCK_RECORD
  5
1F
330
1
100
AcDbSymbolTableRecord
100
AcDbBlockTableRecord
  2
*Model_Space
 70
    0
280
    1
281
    0
  0
BLOCK_RECORD
  5
1E
330
1
100
AcDbSymbolTableRecord
100
AcDbBlockTableRecord
  2
*Paper_Space
 70
    0
280
    1
281
    0
  0
ENDTAB
  0
ENDSEC
  0
SECTION
  2
BLOCKS
  0
BLOCK
  5
20
330
1F
100
AcDbEntity
  8
0
100
AcDbBlockBegin
  2
*Model_Space
 70
    0
 10
0
 20
0
 30
0
  3
*Model_Space
  1

  0
ENDBLK
  5
21
330
1F
100
AcDbEntity
  8
0
100
AcDbBlockEnd
  0
BLOCK
  5
1C
330
1B
100
AcDbEntity
  8
0
100
AcDbBlockBegin
  2
*Paper_Space
 70
    0
 10
0
 20
0
 30
0
  3
*Paper_Space
  1

  0
ENDBLK
  5
1D
330
1F
100
AcDbEntity
  8
0
100
AcDbBlockEnd
  0
ENDSEC
  0
SECTION
  2
ENTITIES
  0
CIRCLE
  5
59
100
AcDbEntity
  8
0
  6
ByLayer
 62
  256
370
   -1
100
AcDbCircle
 10
0
 20
0
 40
125
  0
LINE
  5
5A
100
AcDbEntity
  8
0
  6
ByLayer
 62
  256
370
   -1
100
AcDbLine
 10
0
 20
0
 11
0
 21
125
  0
LINE
  5
5B
100
AcDbEntity
  8
0
  6
ByLayer
 62
  256
370
   -1
100
AcDbLine
 10
0
 20
0
 11
-108.2531754730548
 21
-62.49999999999997
  0
LINE
  5
5C
100
AcDbEntity
  8
0
  6
ByLayer
 62
  256
370
   -1
100
AcDbLine
 10
0
 20
0
 11
108.2531754730548
 21
-62.50000000000006
  0
CIRCLE
  5
5D
100
AcDbEntity
  8
0
  6
ByLayer
 62
  256
370
   -1
100
AcDbCircle
 10
2.35922e-016
 20
125
 40
63.5
  0
CIRCLE
  5
5E
100
AcDbEntity
  8
0
  6
ByLayer
 62
  256
370
   -1
100
AcDbCircle
 10
108.253
 20
-62.5
 40
63.5
  0
CIRCLE
  5
5F
100
AcDbEntity
  8
0
  6
ByLayer
 62
  256
370
   -1
100
AcDbCircle
 10
-108.253
 20
-62.5
 40
63.5
  0
CIRCLE
  5
60
100
AcDbEntity
  8
0100-PDB Standard
  6
ByLayer
 62
  256
370
   -1
100
AcDbCircle
 10
15.25
 20
15.25
 40
1.5
  0
CIRCLE
  5
61
100
AcDbEntity
  8
0100-PDB Standard
  6
ByLayer
 62
  256
370
   -1
100
AcDbCircle
 10
-15.25
 20
15.25
 40
1.5
  0
CIRCLE
  5
62
100
AcDbEntity
  8
0100-PDB Standard
  6
ByLayer
 62
  256
370
   -1
100
AcDbCircle
 10
15.25
 20
-15.25
 40
1.5
  0
CIRCLE
  5
63
100
AcDbEntity
  8
0100-PDB Standard
  6
ByLayer
 62
  256
370
   -1
100
AcDbCircle
 10
-15.25
 20
-15.25
 40
1.5
  0
LWPOLYLINE
  5
64
100
AcDbEntity
  8
0100-PDB Standard
  6
ByLayer
 62
  256
370
   -1
100
AcDbPolyline
 90
    4
 70
    1
 43
0
 10
-18
 20
-18
 10
18
 20
-18
 10
18
 20
18
 10
-18
 20
18
  0
CIRCLE
  5
65
100
AcDbEntity
  8
0101-PDB HUBOSD H
  6
ByLayer
 62
  256
370
   -1
100
AcDbCircle
 10
15.25
 20
15.25
 40
1.5
  0
CIRCLE
  5
66
100
AcDbEntity
  8
0101-PDB HUBOSD H
  6
ByLayer
 62
  256
370
   -1
100
AcDbCircle
 10
-15.25
 20
15.25
 40
1.5
  0
CIRCLE
  5
67
100
AcDbEntity
  8
0101-PDB HUBOSD H
  6
ByLayer
 62
  256
370
   -1
100
AcDbCircle
 10
15.25
 20
-15.25
 40
1.5
  0
CIRCLE
  5
68
100
AcDbEntity
  8
0101-PDB HUBOSD H
  6
ByLayer
 62
  256
370
   -1
100
AcDbCircle
 10
-15.25
 20
-15.25
 40
1.5
  0
CIRCLE
  5
69
100
AcDbEntity
  8
0102-PDB HUBOSD XT60
  6
ByLayer
 62
  256
370
   -1
100
AcDbCircle
 10
15.25
 20
15.25
 40
1.5
  0
CIRCLE
  5
6A
100
AcDbEntity
  8
0102-PDB HUBOSD XT60
  6
ByLayer
 62
  256
370
   -1
100
AcDbCircle
 10
-15.25
 20
15.25
 40
1.5
  0
CIRCLE
  5
6B
100
AcDbEntity
  8
0102-PDB HUBOSD XT60
  6
ByLayer
 62
  256
370
   -1
100
AcDbCircle
 10
15.25
 20
-15.25
 40
1.5
  0
CIRCLE
  5
6C
100
AcDbEntity
  8
0102-PDB HUBOSD XT60
  6
ByLayer
 62
  256
370
   -1
100
AcDbCircle
 10
-15.25
 20
-15.25
 40
1.5
  0
LWPOLYLINE
  5
6D
100
AcDbEntity
  8
0101-PDB HUBOSD H
  6
ByLayer
 62
  256
370
   -1
100
AcDbPolyline
 90
    4
 70
    1
 43
0
 10
-18
 20
-23
 10
18
 20
-23
 10
18
 20
23
 10
-18
 20
23
  0
LINE
  5
6E
100
AcDbEntity
  8
0102-PDB HUBOSD XT60
  6
ByLayer
 62
  256
370
   -1
100
AcDbLine
 10
-8
 20
33
 11
-8
 21
18
  0
LINE
  5
6F
100
AcDbEntity
  8
0102-PDB HUBOSD XT60
  6
ByLayer
 62
  256
370
   -1
100
AcDbLine
 10
8
 20
33
 11
8
 21
18
  0
LINE
  5
70
100
AcDbEntity
  8
0102-PDB HUBOSD XT60
  6
ByLayer
 62
  256
370
   -1
100
AcDbLine
 10
-8
 20
33
 11
8
 21
33
  0
LINE
  5
71
100
AcDbEntity
  8
0102-PDB HUBOSD XT60
  6
ByLayer
 62
  256
370
   -1
100
AcDbLine
 10
-18
 20
-18
 11
18
 21
-18
  0
LINE
  5
72
100
AcDbEntity
  8
0102-PDB HUBOSD XT60
  6
ByLayer
 62
  256
370
   -1
100
AcDbLine
 10
18
 20
-18
 11
18
 21
18
  0
LINE
  5
73
100
AcDbEntity
  8
0102-PDB HUBOSD XT60
  6
ByLayer
 62
  256
370
   -1
100
AcDbLine
 10
-18
 20
18
 11
-18
 21
-18
  0
LINE
  5
74
100
AcDbEntity
  8
0102-PDB HUBOSD XT60
  6
ByLayer
 62
  256
370
   -1
100
AcDbLine
 10
-8
 20
18
 11
-18
 21
18
  0
LINE
  5
75
100
AcDbEntity
  8
0102-PDB HUBOSD XT60
  6
ByLayer
 62
  256
370
   -1
100
AcDbLine
 10
18
 20
18
 11
8
 21
18
  0
CIRCLE
  5
76
100
AcDbEntity
  8
0200-Rotors
  6
ByLayer
 62
  256
370
   -1
100
AcDbCircle
 10
2.35922e-016
 20
125
 40
2
  0
CIRCLE
  5
77
100
AcDbEntity
  8
0200-Rotors
  6
ByLayer
 62
  256
370
   -1
100
AcDbCircle
 10
2.35922e-016
 20
125
 40
13.75
  0
CIRCLE
  5
78
100
AcDbEntity
  8
0200-Rotors
  6
ByLayer
 62
  256
370
   -1
100
AcDbCircle
 10
108.253
 20
-62.5
 40
2
  0
CIRCLE
  5
79
100
AcDbEntity
  8
0200-Rotors
  6
ByLayer
 62
  256
370
   -1
100
AcDbCircle
 10
108.253
 20
-62.5
 40
13.75
  0
CIRCLE
  5
7A
100
AcDbEntity
  8
0200-Rotors
  6
ByLayer
 62
  256
370
   -1
100
AcDbCircle
 10
-108.253
 20
-62.5
 40
13.75
  0
CIRCLE
  5
7B
100
AcDbEntity
  8
0200-Rotors
  6
ByLayer
 62
  256
370
   -1
100
AcDbCircle
 10
-108.253
 20
-62.5
 40
2
  0
CIRCLE
  5
7C
100
AcDbEntity
  8
0
  6
ByLayer
 62
  256
370
   -1
100
AcDbCircle
 10
0
 20
0
 40
30
  0
CIRCLE
  5
7D
100
AcDbEntity
  8
0201-Rotors Folded
  6
ByLayer
 62
  256
370
   -1
100
AcDbCircle
 10
-25.98076211353309
 20
80
 40
13.75
  0
CIRCLE
  5
7E
100
AcDbEntity
  8
0201-Rotors Folded
  6
ByLayer
 62
  256
370
   -1
100
AcDbCircle
 10
-25.98076211353309
 20
80
 40
2
  0
CIRCLE
  5
7F
100
AcDbEntity
  8
0201-Rotors Folded
  6
ByLayer
 62
  256
370
   -1
100
AcDbCircle
 10
25.98076211353309
 20
80
 40
13.75
  0
CIRCLE
  5
80
100
AcDbEntity
  8
0201-Rotors Folded
  6
ByLayer
 62
  256
370
   -1
100
AcDbCircle
 10
25.98076211353309
 20
80
 40
2
  0
CIRCLE
  5
81
100
AcDbEntity
  8
0201-Rotors Folded
  6
ByLayer
 62
  256
370
   -1
100
AcDbCircle
 10
2.35922e-016
 20
125
 40
2
  0
CIRCLE
  5
82
100
AcDbEntity
  8
0201-Rotors Folded
  6
ByLayer
 62
  256
370
   -1
100
AcDbCircle
 10
2.35922e-016
 20
125
 40
13.75
  0
LWPOLYLINE
  5
83
100
AcDbEntity
  8
0400-Little Bee 30A
  6
ByLayer
 62
  256
370
   -1
100
AcDbPolyline
 90
    4
 70
    1
 43
0
 10
-8.5
 20
-17.5
 10
8.5
 20
-17.5
 10
8.5
 20
17.5
 10
-8.5
 20
17.5
  0
CIRCLE
  5
84
100
AcDbEntity
  8
0001-Outline
  6
ByLayer
 62
  256
370
   -1
100
AcDbCircle
 10
-25.98076211353316
 20
-14.99999999999999
 40
2.5
  0
CIRCLE
  5
85
100
AcDbEntity
  8
0001-Outline
  6
ByLayer
 62
  256
370
   -1
100
AcDbCircle
 10
25.98076211353316
 20
-15.00000000000002
 40
2.5
  0
LWPOLYLINE
  5
86
100
AcDbEntity
  8
0300-Tail Servo
  6
ByLayer
 62
  256
370
   -1
100
AcDbPolyline
 90
    4
 70
    1
 43
0
 10
-6
 20
107
 10
6
 20
107
 10
6
 20
82.5
 10
-6
 20
82.5
  0
ARC
  5
87
100
AcDbEntity
  8
0001-Outline
  6
ByLayer
 62
  256
370
   -1
100
AcDbCircle
 10
123.2513238964792
 20
-68.5221409829235
 40
10
100
AcDbArc
 50
330.0000000000001
 51
37.61986494804033
  0
LINE
  5
88
100
AcDbEntity
  8
0001-Outline
  6
ByLayer
 62
  256
370
   -1
100
AcDbLine
 10
129.6085051760003
 20
-77.51118001386743
 11
131.9115779343236
 21
-73.5221409829235
  0
ARC
  5
89
100
AcDbEntity
  8
0001-Outline
  6
ByLayer
 62
  256
370
   -1
100
AcDbCircle
 10
120.9482511381559
 20
-72.51118001386743
 40
10
100
AcDbArc
 50
262.3801350519595
 51
330.0000000000001
  0
LINE
  5
8A
100
AcDbEntity
  8
0001-Outline
  6
ByLayer
 62
  256
370
   -1
100
AcDbLine
 10
131.1721044272148
 20
-62.41794277317307
 11
125.2451738447689
 21
-54.72718392961677
  0
ARC
  5
8B
100
AcDbEntity
  8
0001-Outline
  6
ByLayer
 62
  256
370
   -1
100
AcDbCircle
 10
117.3243933140333
 20
-60.83138213936722
 40
10
100
AcDbArc
 50
37.61986494804039
 51
59.99999999999999
  0
LINE
  5
8C
100
AcDbEntity
  8
0001-Outline
  6
ByLayer
 62
  256
370
   -1
100
AcDbLine
 10
109.9983928600218
 20
-81.1353832470739
 11
119.6222506841442
 21
-82.42287627616082
  0
ARC
  5
8D
100
AcDbEntity
  8
0001-Outline
  6
ByLayer
 62
  256
370
   -1
100
AcDbCircle
 10
111.3243933140334
 20
-71.2236869847805
 40
10
100
AcDbArc
 50
240
 51
262.3801350519596
  0
LINE
  5
8E
100
AcDbEntity
  8
0001-Outline
  6
ByLayer
 62
  256
370
   -1
100
AcDbLine
 10
106.3243933140334
 20
-79.8839410226249
 11
95.42055270128631
 21
-73.58860570965462
  0
ARC
  5
8F
100
AcDbEntity
  8
0001-Outline
  6
ByLayer
 62
  256
370
   -1
100
AcDbCircle
 10
100.4205527012863
 20
-64.92835167181022
 40
10
100
AcDbArc
 50
202.1250163489017
 51
240
  0
LINE
  5
90
100
AcDbEntity
  8
0001-Outline
  6
ByLayer
 62
  256
370
   -1
100
AcDbLine
 10
122.3243933140333
 20
-52.17112810152284
 11
111.4205527012863
 21
-45.87579278855259
  0
ARC
  5
91
100
AcDbEntity
  8
0001-Outline
  6
ByLayer
 62
  256
370
   -1
100
AcDbCircle
 10
106.4205527012863
 20
-54.53604682639697
 40
10
100
AcDbArc
 50
59.99999999999999
 51
97.87498365109822
  0
LINE
  5
92
100
AcDbEntity
  8
0001-Outline
  6
ByLayer
 62
  256
370
   -1
100
AcDbLine
 10
105.0504321109787
 20
-44.63035303100761
 11
100.5848252438878
 21
-45.24802000549739
  0
ARC
  5
93
100
AcDbEntity
  8
0001-Outline
  6
ByLayer
 62
  256
370
   -1
100
AcDbCircle
 10
99.2147046535802
 20
-35.34232621010803
 40
10
100
AcDbArc
 50
239.9999999999999
 51
277.8749836510982
  0
LINE
  5
94
100
AcDbEntity
  8
0001-Outline
  6
ByLayer
 62
  256
370
   -1
100
AcDbLine
 10
91.15690993721542
 20
-68.69463933205036
 11
89.43531075361882
 21
-64.46015666411252
  0
ARC
  5
95
100
AcDbEntity
  8
0001-Outline
  6
ByLayer
 62
  256
370
   -1
100
AcDbCircle
 10
80.17166798954793
 20
-68.22644432435264
 40
10
100
AcDbArc
 50
22.12501634890165
 51
59.99999999999994
  0
ARC
  5
96
100
AcDbEntity
  8
0001-Outline
  6
ByLayer
 62
  256
370
   -1
100
AcDbCircle
 10
-123.2513238964792
 20
-68.5221409829235
 40
10
100
AcDbArc
 50
142.3801350519597
 51
210
  0
LINE
  5
97
100
AcDbEntity
  8
0001-Outline
  6
ByLayer
 62
  256
370
   -1
100
AcDbLine
 10
-129.6085051760003
 20
-77.51118001386745
 11
-131.9115779343236
 21
-73.52214098292352
  0
ARC
  5
98
100
AcDbEntity
  8
0001-Outline
  6
ByLayer
 62
  256
370
   -1
100
AcDbCircle
 10
-120.9482511381559
 20
-72.51118001386743
 40
10
100
AcDbArc
 50
210
 51
277.6198649480405
  0
LINE
  5
99
100
AcDbEntity
  8
0001-Outline
  6
ByLayer
 62
  256
370
   -1
100
AcDbLine
 10
-109.9983928600217
 20
-81.1353832470739
 11
-119.6222506841442
 21
-82.42287627616084
  0
ARC
  5
9A
100
AcDbEntity
  8
0001-Outline
  6
ByLayer
 62
  256
370
   -1
100
AcDbCircle
 10
-111.3243933140333
 20
-71.2236869847805
 40
10
100
AcDbArc
 50
277.6198649480405
 51
300
  0
LINE
  5
9B
100
AcDbEntity
  8
0001-Outline
  6
ByLayer
 62
  256
370
   -1
100
AcDbLine
 10
-106.3243933140333
 20
-79.88394102262488
 11
-95.4205527012863
 21
-73.5886057096546
  0
ARC
  5
9C
100
AcDbEntity
  8
0001-Outline
  6
ByLayer
 62
  256
370
   -1
100
AcDbCircle
 10
-100.4205527012863
 20
-64.92835167181022
 40
10
100
AcDbArc
 50
300
 51
337.8749836510983
  0
ARC
  5
9D
100
AcDbEntity
  8
0001-Outline
  6
ByLayer
 62
  256
370
   -1
100
AcDbCircle
 10
-106.4205527012863
 20
-54.53604682639696
 40
10
100
AcDbArc
 50
82.12501634890178
 51
120
  0
LINE
  5
9E
100
AcDbEntity
  8
0001-Outline
  6
ByLayer
 62
  256
370
   -1
100
AcDbLine
 10
-122.3243933140334
 20
-52.17112810152285
 11
-111.4205527012863
 21
-45.87579278855257
  0
LINE
  5
9F
100
AcDbEntity
  8
0001-Outline
  6
ByLayer
 62
  256
370
   -1
100
AcDbLine
 10
-131.1721044272148
 20
-62.41794277317306
 11
-125.2451738447689
 21
-54.72718392961679
  0
ARC
  5
A0
100
AcDbEntity
  8
0001-Outline
  6
ByLayer
 62
  256
370
   -1
100
AcDbCircle
 10
-117.3243933140334
 20
-60.83138213936724
 40
10
100
AcDbArc
 50
120
 51
142.3801350519597
  0
LINE
  5
A1
100
AcDbEntity
  8
0001-Outline
  6
ByLayer
 62
  256
370
   -1
100
AcDbLine
 10
-105.0504321109787
 20
-44.63035303100761
 11
-100.5848252438879
 21
-45.24802000549737
  0
ARC
  5
A2
100
AcDbEntity
  8
0001-Outline
  6
ByLayer
 62
  256
370
   -1
100
AcDbCircle
 10
-99.21470465358031
 20
-35.34232621010803
 40
10
100
AcDbArc
 50
262.1250163489018
 51
299.9999999999999
  0
LINE
  5
A3
100
AcDbEntity
  8
0001-Outline
  6
ByLayer
 62
  256
370
   -1
100
AcDbLine
 10
-91.15690993721542
 20
-68.69463933205034
 11
-89.43531075361878
 21
-64.46015666411242
  0
ARC
  5
A4
100
AcDbEntity
  8
0001-Outline
  6
ByLayer
 62
  256
370
   -1
100
AcDbCircle
 10
-80.17166798954788
 20
-68.22644432435256
 40
10
100
AcDbArc
 50
120
 51
157.8749836510983
  0
ARC
  5
A5
100
AcDbEntity
  8
0001-Outline
  6
ByLayer
 62
  256
370
   -1
100
AcDbCircle
 10
-2.283834871856486
 20
141
 40
10
100
AcDbArc
 50
90
 51
157.6198649480405
  0
LINE
  5
A6
100
AcDbEntity
  8
0001-Outline
  6
ByLayer
 62
  256
370
   -1
100
AcDbLine
 10
2.322310644790312
 20
151
 11
-2.283834871856486
 21
151
  0
ARC
  5
A7
100
AcDbEntity
  8
0001-Outline
  6
ByLayer
 62
  256
370
   -1
100
AcDbCircle
 10
2.322310644790312
 20
141
 40
10
100
AcDbArc
 50
22.38013505195955
 51
90
  0
LINE
  5
A8
100
AcDbEntity
  8
0001-Outline
  6
ByLayer
 62
  256
370
   -1
100
AcDbLine
 10
-11.53061585660364
 20
144.8074980525429
 11
-15.22754309828025
 21
135.8292461798997
  0
ARC
  5
A9
100
AcDbEntity
  8
0001-Outline
  6
ByLayer
 62
  256
370
   -1
100
AcDbCircle
 10
-5.980762113533089
 20
132.0217481273568
 40
10
100
AcDbArc
 50
157.6198649480405
 51
180
  0
LINE
  5
AA
100
AcDbEntity
  8
0001-Outline
  6
ByLayer
 62
  256
370
   -1
100
AcDbLine
 10
15.26601887121407
 20
135.8292461798997
 11
11.56909162953746
 21
144.8074980525429
  0
ARC
  5
AB
100
AcDbEntity
  8
0001-Outline
  6
ByLayer
 62
  256
370
   -1
100
AcDbCircle
 10
6.019237886466911
 20
132.0217481273568
 40
10
100
AcDbArc
 50
0
 51
22.38013505195953
  0
LINE
  5
AC
100
AcDbEntity
  8
0001-Outline
  6
ByLayer
 62
  256
370
   -1
100
AcDbLine
 10
16.01923788646691
 20
132.0217481273568
 11
16.01923788646691
 21
119.4310775014163
  0
ARC
  5
AD
100
AcDbEntity
  8
0001-Outline
  6
ByLayer
 62
  256
370
   -1
100
AcDbCircle
 10
6.019237886466911
 20
119.4310775014163
 40
10
100
AcDbArc
 50
322.1250163489017
 51
0
  0
LINE
  5
AE
100
AcDbEntity
  8
0001-Outline
  6
ByLayer
 62
  256
370
   -1
100
AcDbLine
 10
-15.98076211353309
 20
132.0217481273568
 11
-15.98076211353309
 21
119.4310775014163
  0
ARC
  5
AF
100
AcDbEntity
  8
0001-Outline
  6
ByLayer
 62
  256
370
   -1
100
AcDbCircle
 10
-5.980762113533089
 20
119.4310775014163
 40
10
100
AcDbArc
 50
180
 51
217.8749836510982
  0
LINE
  5
B0
100
AcDbEntity
  8
0001-Outline
  6
ByLayer
 62
  256
370
   -1
100
AcDbLine
 10
-13.87428428729634
 20
113.2916713662671
 11
-11.10647782623674
 21
109.7330630591904
  0
LINE
  5
B1
100
AcDbEntity
  8
0001-Outline
  6
ByLayer
 62
  256
370
   -1
100
AcDbLine
 10
-9
 20
1.10214571844014e-015
 11
-9
 21
103.5936569240412
  0
ARC
  5
B2
100
AcDbEntity
  8
0001-Outline
  6
ByLayer
 62
  256
370
   -1
100
AcDbCircle
 10
-19
 20
103.5936569240412
 40
10
100
AcDbArc
 50
8.142716946215581e-014
 51
37.87498365109819
  0
LINE
  5
B3
100
AcDbEntity
  8
0001-Outline
  6
ByLayer
 62
  256
370
   -1
100
AcDbLine
 10
13.91276006023018
 20
113.2916713662671
 11
11.10647782623674
 21
109.6835942082755
  0
LINE
  5
B4
100
AcDbEntity
  8
0001-Outline
  6
ByLayer
 62
  256
370
   -1
100
AcDbLine
 10
9
 20
-2.204291436880279e-015
 11
9
 21
103.5441880731263
  0
ARC
  5
B5
100
AcDbEntity
  8
0001-Outline
  6
ByLayer
 62
  256
370
   -1
100
AcDbCircle
 10
19
 20
103.5441880731263
 40
10
100
AcDbArc
 50
142.1250163489018
 51
179.9999999999999
  0
ARC
  5
B6
100
AcDbEntity
  8
0001-Outline
  6
ByLayer
 62
  256
370
   -1
100
AcDbCircle
 10
-28.30307275832339
 20
96
 40
10
100
AcDbArc
 50
90
 51
157.6198649480404
  0
LINE
  5
B7
100
AcDbEntity
  8
0001-Outline
  6
ByLayer
 62
  256
370
   -1
100
AcDbLine
 10
-28.30307275832339
 20
106
 11
-23.69692724167661
 21
106
  0
ARC
  5
B8
100
AcDbEntity
  8
0001-Outline
  6
ByLayer
 62
  256
370
   -1
100
AcDbCircle
 10
-23.69692724167661
 20
96
 40
10
100
AcDbArc
 50
22.38013505195961
 51
90
  0
ARC
  5
B9
100
AcDbEntity
  8
0001-Outline
  6
ByLayer
 62
  256
370
   -1
100
AcDbCircle
 10
23.69692724167662
 20
96
 40
10
100
AcDbArc
 50
90
 51
157.6198649480404
  0
LINE
  5
BA
100
AcDbEntity
  8
0001-Outline
  6
ByLayer
 62
  256
370
   -1
100
AcDbLine
 10
28.30307275832339
 20
106
 11
23.69692724167662
 21
106
  0
ARC
  5
BB
100
AcDbEntity
  8
0001-Outline
  6
ByLayer
 62
  256
370
   -1
100
AcDbCircle
 10
28.30307275832339
 20
96
 40
10
100
AcDbArc
 50
22.38013505195962
 51
90
  0
LINE
  5
BC
100
AcDbEntity
  8
0001-Outline
  6
ByLayer
 62
  256
370
   -1
100
AcDbLine
 10
41.24678098474716
 20
90.82924617989976
 11
37.54985374307054
 21
99.80749805254295
  0
ARC
  5
BD
100
AcDbEntity
  8
0001-Outline
  6
ByLayer
 62
  256
370
   -1
100
AcDbCircle
 10
32
 20
87.0217481273568
 40
10
100
AcDbArc
 50
0
 51
22.3801350519596
  0
LINE
  5
BE
100
AcDbEntity
  8
0001-Outline
  6
ByLayer
 62
  256
370
   -1
100
AcDbLine
 10
14.45014625692945
 20
99.80749805254295
 11
10.75321901525284
 21
90.82924617989974
  0
ARC
  5
BF
100
AcDbEntity
  8
0001-Outline
  6
ByLayer
 62
  256
370
   -1
100
AcDbCircle
 10
20
 20
87.0217481273568
 40
10
100
AcDbArc
 50
157.6198649480405
 51
180
  0
LINE
  5
C0
100
AcDbEntity
  8
0001-Outline
  6
ByLayer
 62
  256
370
   -1
100
AcDbLine
 10
10
 20
87.0217481273568
 11
10
 21
74.43107750141625
  0
ARC
  5
C1
100
AcDbEntity
  8
0001-Outline
  6
ByLayer
 62
  256
370
   -1
100
AcDbCircle
 10
20
 20
74.43107750141625
 40
10
100
AcDbArc
 50
180
 51
217.8749836510982
  0
LINE
  5
C2
100
AcDbEntity
  8
0001-Outline
  6
ByLayer
 62
  256
370
   -1
100
AcDbLine
 10
42
 20
87.0217481273568
 11
42
 21
74.43107750141625
  0
ARC
  5
C3
100
AcDbEntity
  8
0001-Outline
  6
ByLayer
 62
  256
370
   -1
100
AcDbCircle
 10
32
 20
74.43107750141625
 40
10
100
AcDbArc
 50
322.1250163489018
 51
0
  0
LINE
  5
C4
100
AcDbEntity
  8
0001-Outline
  6
ByLayer
 62
  256
370
   -1
100
AcDbLine
 10
39.89352217376326
 20
68.29167136626705
 11
37.08723993976983
 21
64.68359420827551
  0
ARC
  5
C5
100
AcDbEntity
  8
0001-Outline
  6
ByLayer
 62
  256
370
   -1
100
AcDbCircle
 10
44.9807621135331
 20
58.54418807312631
 40
10
100
AcDbArc
 50
142.1250163489018
 51
180
  0
LINE
  5
C6
100
AcDbEntity
  8
0001-Outline
  6
ByLayer
 62
  256
370
   -1
100
AcDbLine
 10
12.10647782623674
 20
68.29167136626705
 11
14.87428428729637
 21
64.73306305919039
  0
ARC
  5
C7
100
AcDbEntity
  8
0001-Outline
  6
ByLayer
 62
  256
370
   -1
100
AcDbCircle
 10
6.980762113533104
 20
58.59365692404118
 40
10
100
AcDbArc
 50
4.071358473107791e-014
 51
37.8749836510982
  0
LINE
  5
C8
100
AcDbEntity
  8
0001-Outline
  6
ByLayer
 62
  256
370
   -1
100
AcDbLine
 10
-14.45014625692945
 20
99.80749805254295
 11
-10.75321901525284
 21
90.82924617989974
  0
ARC
  5
C9
100
AcDbEntity
  8
0001-Outline
  6
ByLayer
 62
  256
370
   -1
100
AcDbCircle
 10
-20
 20
87.0217481273568
 40
10
100
AcDbArc
 50
0
 51
22.38013505195953
  0
LINE
  5
CA
100
AcDbEntity
  8
0001-Outline
  6
ByLayer
 62
  256
370
   -1
100
AcDbLine
 10
-10
 20
87.0217481273568
 11
-10
 21
74.43107750141625
  0
ARC
  5
CB
100
AcDbEntity
  8
0001-Outline
  6
ByLayer
 62
  256
370
   -1
100
AcDbCircle
 10
-20
 20
74.43107750141625
 40
10
100
AcDbArc
 50
322.1250163489018
 51
0
  0
LINE
  5
CC
100
AcDbEntity
  8
0001-Outline
  6
ByLayer
 62
  256
370
   -1
100
AcDbLine
 10
-41.24678098474716
 20
90.82924617989976
 11
-37.54985374307054
 21
99.80749805254295
  0
ARC
  5
CD
100
AcDbEntity
  8
0001-Outline
  6
ByLayer
 62
  256
370
   -1
100
AcDbCircle
 10
-32
 20
87.0217481273568
 40
10
100
AcDbArc
 50
157.6198649480404
 51
180
  0
LINE
  5
CE
100
AcDbEntity
  8
0001-Outline
  6
ByLayer
 62
  256
370
   -1
100
AcDbLine
 10
-42
 20
87.0217481273568
 11
-42
 21
74.43107750141625
  0
ARC
  5
CF
100
AcDbEntity
  8
0001-Outline
  6
ByLayer
 62
  256
370
   -1
100
AcDbCircle
 10
-32
 20
74.43107750141625
 40
10
100
AcDbArc
 50
180
 51
217.8749836510982
  0
LINE
  5
D0
100
AcDbEntity
  8
0001-Outline
  6
ByLayer
 62
  256
370
   -1
100
AcDbLine
 10
-39.89352217376326
 20
68.29167136626705
 11
-37.08723993976984
 21
64.68359420827552
  0
ARC
  5
D1
100
AcDbEntity
  8
0001-Outline
  6
ByLayer
 62
  256
370
   -1
100
AcDbCircle
 10
-44.9807621135331
 20
58.54418807312631
 40
10
100
AcDbArc
 50
359.9999999999999
 51
37.87498365109824
  0
LINE
  5
D2
100
AcDbEntity
  8
0001-Outline
  6
ByLayer
 62
  256
370
   -1
100
AcDbLine
 10
-12.10647782623674
 20
68.29167136626705
 11
-14.87428428729637
 21
64.73306305919039
  0
ARC
  5
D3
100
AcDbEntity
  8
0001-Outline
  6
ByLayer
 62
  256
370
   -1
100
AcDbCircle
 10
-6.980762113533105
 20
58.59365692404118
 40
10
100
AcDbArc
 50
142.1250163489018
 51
180
  0
LINE
  5
D4
100
AcDbEntity
  8
0001-Outline
  6
ByLayer
 62
  256
370
   -1
100
AcDbLine
 10
-34.9807621135331
 20
58.54418807312631
 11
-34.98076211353317
 21
-19.35889894354071
  0
LINE
  5
D5
100
AcDbEntity
  8
0001-Outline
  6
ByLayer
 62
  256
370
   -1
100
AcDbLine
 10
-16.9807621135331
 20
58.59365692404119
 11
-16.98076211353317
 21
-19.35889894354064
  0
LINE
  5
D6
100
AcDbEntity
  8
0001-Outline
  6
ByLayer
 62
  256
370
   -1
100
AcDbLine
 10
-17.70584489589779
 20
-20.61477916228961
 11
-85.17166798954788
 21
-59.56619028650816
  0
LINE
  5
D7
100
AcDbEntity
  8
0001-Outline
  6
ByLayer
 62
  256
370
   -1
100
AcDbLine
 10
-26.7058448958978
 20
-5.026321894169714
 11
-94.21470465358033
 21
-44.00258024795241
  0
ARC
  5
D8
100
AcDbEntity
  8
0001-Outline
  6
ByLayer
 62
  256
370
   -1
100
AcDbCircle
 10
-25.98076211353316
 20
-15
 40
10
100
AcDbArc
 50
205.841932763167
 51
454.1580672368331
  0
ARC
  5
D9
100
AcDbEntity
  8
0001-Outline
  6
ByLayer
 62
  256
370
   -1
100
AcDbCircle
 10
25.98076211353317
 20
-14.99999999999998
 40
10
100
AcDbArc
 50
85.84193276316742
 51
334.1580672368328
  0
LINE
  5
DA
100
AcDbEntity
  8
0001-Outline
  6
ByLayer
 62
  256
370
   -1
100
AcDbLine
 10
26.70584489589774
 20
-5.026321894169706
 11
94.21470465358018
 21
-44.00258024795241
  0
LINE
  5
DB
100
AcDbEntity
  8
0001-Outline
  6
ByLayer
 62
  256
370
   -1
100
AcDbLine
 10
17.70584489589782
 20
-20.61477916228965
 11
85.17166798954794
 21
-59.56619028650825
  0
LINE
  5
DC
100
AcDbEntity
  8
0001-Outline
  6
ByLayer
 62
  256
370
   -1
100
AcDbLine
 10
16.9807621135331
 20
58.59365692404118
 11
16.98076211353316
 21
-19.35889894354065
  0
LINE
  5
DD
100
AcDbEntity
  8
0001-Outline
  6
ByLayer
 62
  256
370
   -1
100
AcDbLine
 10
34.9807621135331
 20
58.5441880731263
 11
34.98076211353316
 21
-19.35889894354067
  0
CIRCLE
  5
DE
100
AcDbEntity
  8
0001-Outline
  6
ByLayer
 62
  256
370
   -1
100
AcDbCircle
 10
-43.3013
 20
-25
 40
1.5
  0
CIRCLE
  5
DF
100
AcDbEntity
  8
0001-Outline
  6
ByLayer
 62
  256
370
   -1
100
AcDbCircle
 10
-25.9808
 20
5
 40
1.5
  0
CIRCLE
  5
E0
100
AcDbEntity
  8
0001-Outline
  6
ByLayer
 62
  256
370
   -1
100
AcDbCircle
 10
25.9808
 20
5
 40
1.5
  0
CIRCLE
  5
E1
100
AcDbEntity
  8
0001-Outline
  6
ByLayer
 62
  256
370
   -1
100
AcDbCircle
 10
43.3013
 20
-25
 40
1.5
  0
CIRCLE
  5
E2
100
AcDbEntity
  8
0600-EMAX RS2205
  6
ByLayer
 62
  256
370
   -1
100
AcDbCircle
 10
0
 20
0
 40
13.95
  0
CIRCLE
  5
E3
100
AcDbEntity
  8
0600-EMAX RS2205
  6
ByLayer
 62
  256
370
   -1
100
AcDbCircle
 10
0
 20
0
 40
4
  0
LINE
  5
E4
100
AcDbEntity
  8
0600-EMAX RS2205
  6
ByLayer
 62
  256
370
   -1
100
AcDbLine
 10
-4.000000000000004
 20
-20
 11
3.999999999999996
 21
-20
  0
LINE
  5
E5
100
AcDbEntity
  8
0600-EMAX RS2205
  6
ByLayer
 62
  256
370
   -1
100
AcDbLine
 10
-4.000000000000003
 20
-13.36422463145543
 11
-4.000000000000004
 21
-20
  0
LINE
  5
E6
100
AcDbEntity
  8
0600-EMAX RS2205
  6
ByLayer
 62
  256
370
   -1
100
AcDbLine
 10
3.999999999999996
 20
-20
 11
3.999999999999998
 21
-13.36422463145543
  0
CIRCLE
  5
E7
100
AcDbEntity
  8
0600-EMAX RS2205
  6
ByLayer
 62
    1
370
   -1
100
AcDbCircle
 10
0
 20
0
 40
2.5
  0
CIRCLE
  5
E8
100
AcDbEntity
  8
0600-EMAX RS2205
  6
ByLayer
 62
    5
370
   -1
100
AcDbCircle
 10
0
 20
0
 40
1.5
  0
CIRCLE
  5
E9
100
AcDbEntity
  8
0600-EMAX RS2205
  6
ByLayer
 62
  256
370
   -1
100
AcDbCircle
 10
5.656854249492381
 20
5.656854249492379
 40
1.5
  0
CIRCLE
  5
EA
100
AcDbEntity
  8
0600-EMAX RS2205
  6
ByLayer
 62
  256
370
   -1
100
AcDbCircle
 10
-5.656854249492381
 20
-5.656854249492379
 40
1.5
  0
CIRCLE
  5
EB
100
AcDbEntity
  8
0600-EMAX RS2205
  6
ByLayer
 62
  256
370
   -1
100
AcDbCircle
 10
6.7175144212722
 20
-6.717514421272204
 40
1.5
  0
CIRCLE
  5
EC
100
AcDbEntity
  8
0600-EMAX RS2205
  6
ByLayer
 62
  256
370
   -1
100
AcDbCircle
 10
-6.7175144212722
 20
6.717514421272204
 40
1.5
  0
CIRCLE
  5
ED
100
AcDbEntity
  8
0002-Outline2
  6
ByLayer
 62
  256
370
   -1
100
AcDbCircle
 10
108.253
 20
-62.5
 40
13.95
  0
CIRCLE
  5
EE
100
AcDbEntity
  8
0002-Outline2
  6
ByLayer
 62
  256
370
   -1
100
AcDbCircle
 10
108.253
 20
-62.5
 40
4
  0
LINE
  5
EF
100
AcDbEntity
  8
0002-Outline2
  6
ByLayer
 62
  256
370
   -1
100
AcDbLine
 10
92.93249192431124
 20
-49.03589838486224
 11
88.93249192431124
 21
-55.96410161513774
  0
LINE
  5
F0
100
AcDbEntity
  8
0002-Outline2
  6
ByLayer
 62
  256
370
   -1
100
AcDbLine
 10
98.67924196727787
 20
-52.35378606913453
 11
92.93249192431124
 21
-49.03589838486224
  0
LINE
  5
F1
100
AcDbEntity
  8
0002-Outline2
  6
ByLayer
 62
  256
370
   -1
100
AcDbLine
 10
88.93249192431124
 20
-55.96410161513774
 11
94.67924196727787
 21
-59.28198929941004
  0
CIRCLE
  5
F2
100
AcDbEntity
  8
0002-Outline2
  6
ByLayer
 62
    1
370
   -1
100
AcDbCircle
 10
108.253
 20
-62.5
 40
2.5
  0
CIRCLE
  5
F3
100
AcDbEntity
  8
0002-Outline2
  6
ByLayer
 62
    5
370
   -1
100
AcDbCircle
 10
108.253
 20
-62.5
 40
1.5
  0
CIRCLE
  5
F4
100
AcDbEntity
  8
0002-Outline2
  6
ByLayer
 62
  256
370
   -1
100
AcDbCircle
 10
110.3235523608201
 20
-70.22740661031254
 40
1.5
  0
CIRCLE
  5
F5
100
AcDbEntity
  8
0002-Outline2
  6
ByLayer
 62
  256
370
   -1
100
AcDbCircle
 10
106.1824476391798
 20
-54.77259338968745
 40
1.5
  0
CIRCLE
  5
F6
100
AcDbEntity
  8
0002-Outline2
  6
ByLayer
 62
  256
370
   -1
100
AcDbCircle
 10
99.07670465025386
 20
-64.95878092847394
 40
1.5
  0
CIRCLE
  5
F7
100
AcDbEntity
  8
0002-Outline2
  6
ByLayer
 62
  256
370
   -1
100
AcDbCircle
 10
117.4292953497461
 20
-60.04121907152606
 40
1.5
  0
CIRCLE
  5
F8
100
AcDbEntity
  8
0002-Outline2
  6
ByLayer
 62
  256
370
   -1
100
AcDbCircle
 10
-108.253
 20
-62.5
 40
13.95
  0
CIRCLE
  5
F9
100
AcDbEntity
  8
0002-Outline2
  6
ByLayer
 62
  256
370
   -1
100
AcDbCircle
 10
-108.253
 20
-62.5
 40
4
  0
LINE
  5
FA
100
AcDbEntity
  8
0002-Outline2
  6
ByLayer
 62
  256
370
   -1
100
AcDbLine
 10
-88.93249192431122
 20
-55.96410161513776
 11
-92.93249192431122
 21
-49.03589838486225
  0
LINE
  5
FB
100
AcDbEntity
  8
0002-Outline2
  6
ByLayer
 62
  256
370
   -1
100
AcDbLine
 10
-94.67924196727787
 20
-59.28198929941004
 11
-88.93249192431122
 21
-55.96410161513776
  0
LINE
  5
FC
100
AcDbEntity
  8
0002-Outline2
  6
ByLayer
 62
  256
370
   -1
100
AcDbLine
 10
-92.93249192431122
 20
-49.03589838486225
 11
-98.67924196727787
 21
-52.35378606913454
  0
CIRCLE
  5
FD
100
AcDbEntity
  8
0002-Outline2
  6
ByLayer
 62
    1
370
   -1
100
AcDbCircle
 10
-108.253
 20
-62.5
 40
2.5
  0
CIRCLE
  5
FE
100
AcDbEntity
  8
0002-Outline2
  6
ByLayer
 62
    5
370
   -1
100
AcDbCircle
 10
-108.253
 20
-62.5
 40
1.5
  0
CIRCLE
  5
FF
100
AcDbEntity
  8
0002-Outline2
  6
ByLayer
 62
  256
370
   -1
100
AcDbCircle
 10
-115.9804066103125
 20
-60.42944763917983
 40
1.5
  0
CIRCLE
  5
100
100
AcDbEntity
  8
0002-Outline2
  6
ByLayer
 62
  256
370
   -1
100
AcDbCircle
 10
-100.5255933896875
 20
-64.57055236082017
 40
1.5
  0
CIRCLE
  5
101
100
AcDbEntity
  8
0002-Outline2
  6
ByLayer
 62
  256
370
   -1
100
AcDbCircle
 10
-105.7942190715261
 20
-53.32370465025386
 40
1.5
  0
CIRCLE
  5
102
100
AcDbEntity
  8
0002-Outline2
  6
ByLayer
 62
  256
370
   -1
100
AcDbCircle
 10
-110.7117809284739
 20
-71.67629534974614
 40
1.5
  0
LINE
  5
103
100
AcDbEntity
  8
0500-tail
  6
ByLayer
 62
  256
370
   -1
100
AcDbLine
 10
0
 20
0
 11
37.5
 21
0
  0
LINE
  5
104
100
AcDbEntity
  8
0500-tail
  6
ByLayer
 62
  256
370
   -1
100
AcDbLine
 10
37.5
 20
0
 11
37.5
 21
2
  0
LINE
  5
105
100
AcDbEntity
  8
0500-tail
  6
ByLayer
 62
  256
370
   -1
100
AcDbLine
 10
37.5
 20
2
 11
2
 21
2
  0
LINE
  5
106
100
AcDbEntity
  8
0500-tail
  6
ByLayer
 62
  256
370
   -1
100
AcDbLine
 10
2
 20
2
 11
2
 21
29
  0
LINE
  5
107
100
AcDbEntity
  8
0500-tail
  6
ByLayer
 62
  256
370
   -1
100
AcDbLine
 10
2
 20
29
 11
0
 21
29
  0
LINE
  5
108
100
AcDbEntity
  8
0500-tail
  6
ByLayer
 62
  256
370
   -1
100
AcDbLine
 10
0
 20
29
 11
0
 21
0
  0
LINE
  5
109
100
AcDbEntity
  8
0500-tail
  6
ByLayer
 62
  256
370
   -1
100
AcDbLine
 10
100
 20
-12.75
 11
100
 21
12.75
  0
LINE
  5
10A
100
AcDbEntity
  8
0500-tail
  6
ByLayer
 62
  256
370
   -1
100
AcDbLine
 10
100
 20
12.75
 11
124.75
 21
12.75
  0
LINE
  5
10B
100
AcDbEntity
  8
0500-tail
  6
ByLayer
 62
  256
370
   -1
100
AcDbLine
 10
100
 20
-12.75
 11
124.75
 21
-12.75
  0
ARC
  5
10C
100
AcDbEntity
  8
0500-tail
  6
ByLayer
 62
  256
370
   -1
100
AcDbCircle
 10
124.75
 20
0
 40
12.75
100
AcDbArc
 50
270
 51
450
  0
LINE
  5
10D
100
AcDbEntity
  8
0500-tail
  6
ByLayer
 62
  256
370
   -1
100
AcDbLine
 10
102
 20
-12.75
 11
102
 21
12.75
  0
LINE
  5
10E
100
AcDbEntity
  8
0500-tail
  6
ByLayer
 62
  256
370
   -1
100
AcDbLine
 10
12.75
 20
100
 11
-12.75
 21
100
  0
LINE
  5
10F
100
AcDbEntity
  8
0500-tail
  6
ByLayer
 62
  256
370
   -1
100
AcDbLine
 10
12.75
 20
102
 11
-12.75
 21
102
  0
LINE
  5
110
100
AcDbEntity
  8
0500-tail
  6
ByLayer
 62
  256
370
   -1
100
AcDbLine
 10
12.75
 20
100
 11
12.75
 21
116.25
  0
LINE
  5
111
100
AcDbEntity
  8
0500-tail
  6
ByLayer
 62
  256
370
   -1
100
AcDbLine
 10
-12.75
 20
100
 11
-12.75
 21
116.25
  0
ARC
  5
112
100
AcDbEntity
  8
0500-tail
  6
ByLayer
 62
  256
370
   -1
100
AcDbCircle
 10
0
 20
116.25
 40
12.75
100
AcDbArc
 50
360
 51
180
  0
LINE
  5
113
100
AcDbEntity
  8
0003-Outline3
  6
ByLayer
 62
  256
370
   -1
100
AcDbLine
 10
12.75
 20
108.75
 11
-12.75
 21
108.75
  0
LINE
  5
114
100
AcDbEntity
  8
0003-Outline3
  6
ByLayer
 62
  256
370
   -1
100
AcDbLine
 10
12.75
 20
110.75
 11
-12.75
 21
110.75
  0
LINE
  5
115
100
AcDbEntity
  8
0003-Outline3
  6
ByLayer
 62
  256
370
   -1
100
AcDbLine
 10
12.75
 20
108.75
 11
12.75
 21
125
  0
LINE
  5
116
100
AcDbEntity
  8
0003-Outline3
  6
ByLayer
 62
  256
370
   -1
100
AcDbLine
 10
-12.75
 20
108.75
 11
-12.75
 21
125
  0
ARC
  5
117
100
AcDbEntity
  8
0003-Outline3
  6
ByLayer
 62
  256
370
   -1
100
AcDbCircle
 10
2.35922e-016
 20
125
 40
12.75
100
AcDbArc
 50
360
 51
180
  0
CIRCLE
  5
118
100
AcDbEntity
  8
0003-Outline3
  6
ByLayer
 62
  256
370
   -1
100
AcDbCircle
 10
7
 20
125
 40
1.5
  0
CIRCLE
  5
119
100
AcDbEntity
  8
0003-Outline3
  6
ByLayer
 62
  256
370
   -1
100
AcDbCircle
 10
-7
 20
125
 40
1.5
  0
CIRCLE
  5
11A
100
AcDbEntity
  8
0003-Outline3
  6
ByLayer
 62
  256
370
   -1
100
AcDbCircle
 10
0
 20
132
 40
1.5
  0
CIRCLE
  5
11B
100
AcDbEntity
  8
0003-Outline3
  6
ByLayer
 62
  256
370
   -1
100
AcDbCircle
 10
0
 20
118
 40
1.5
  0
CIRCLE
  5
11C
100
AcDbEntity
  8
0002-Outline2
  6
ByLayer
 62
  256
370
   -1
100
AcDbCircle
 10
2.35922e-016
 20
125
 40
13.95
  0
CIRCLE
  5
11D
100
AcDbEntity
  8
0002-Outline2
  6
ByLayer
 62
  256
370
   -1
100
AcDbCircle
 10
2.35922e-016
 20
125
 40
4
  0
LINE
  5
11E
100
AcDbEntity
  8
0002-Outline2
  6
ByLayer
 62
  256
370
   -1
100
AcDbLine
 10
20
 20
121
 11
20
 21
129
  0
LINE
  5
11F
100
AcDbEntity
  8
0002-Outline2
  6
ByLayer
 62
  256
370
   -1
100
AcDbLine
 10
13.36422463145543
 20
121
 11
20
 21
121
  0
LINE
  5
120
100
AcDbEntity
  8
0002-Outline2
  6
ByLayer
 62
  256
370
   -1
100
AcDbLine
 10
20
 20
129
 11
13.36422463145542
 21
129
  0
CIRCLE
  5
121
100
AcDbEntity
  8
0002-Outline2
  6
ByLayer
 62
    1
370
   -1
100
AcDbCircle
 10
2.35922e-016
 20
125
 40
2.5
  0
CIRCLE
  5
122
100
AcDbEntity
  8
0002-Outline2
  6
ByLayer
 62
    5
370
   -1
100
AcDbCircle
 10
2.35922e-016
 20
125
 40
1.5
  0
CIRCLE
  5
123
100
AcDbEntity
  8
0002-Outline2
  6
ByLayer
 62
  256
370
   -1
100
AcDbCircle
 10
-5.656854249492373
 20
130.6568542494924
 40
1.5
  0
CIRCLE
  5
124
100
AcDbEntity
  8
0002-Outline2
  6
ByLayer
 62
  256
370
   -1
100
AcDbCircle
 10
5.65685424949238
 20
119.3431457505076
 40
1.5
  0
CIRCLE
  5
125
100
AcDbEntity
  8
0002-Outline2
  6
ByLayer
 62
  256
370
   -1
100
AcDbCircle
 10
6.7175144212722
 20
131.7175144212722
 40
1.5
  0
CIRCLE
  5
126
100
AcDbEntity
  8
0002-Outline2
  6
ByLayer
 62
  256
370
   -1
100
AcDbCircle
 10
-6.7175144212722
 20
118.2824855787278
 40
1.5
  0
ENDSEC
  0
SECTION
  2
OBJECTS
  0
DICTIONARY
  5
C
330
0
100
AcDbDictionary
281
    1
  3
ACAD_GROUP
350
D
  0
DICTIONARY
  5
D
330
C
100
AcDbDictionary
281
    1
  0
ENDSEC
  0
EOF
