999
dxfrw 0.6.3
  0
SECTION
  2
HEADER
  9
$ACADVER
  1
AC1021
  9
$DWGCODEPAGE
  3
ANSI_1252
  9
$INSBASE
 10
0
 20
0
 30
0
  9
$EXTMIN
 10
-112.9278579257494
 20
-169.4600127882883
 30
0
  9
$EXTMAX
 10
112.9278579257494
 20
80.00000000000001
 30
0
  9
$LIMMIN
 10
0
 20
0
  9
$LIMMAX
 10
420
 20
297
  9
$ORTHOMODE
 70
    0
  9
$REGENMODE
 70
    1
  9
$FILLMODE
 70
    1
  9
$QTEXTMODE
 70
    0
  9
$MIRRTEXT
 70
    0
  9
$LTSCALE
 40
1
  9
$ATTMODE
 70
    0
  9
$TEXTSIZE
 40
2.5
  9
$TRACEWID
 40
15.68
  9
$TEXTSTYLE
  7
STANDARD
  9
$CLAYER
  8
servo
  9
$CELTYPE
  6
BYLAYER
  9
$CECOLOR
 62
  256
  9
$CELTSCALE
 40
1
  9
$DISPSILH
 70
    0
  9
$DIMSCALE
 40
2.5
  9
$DIMASZ
 40
2.5
  9
$DIMEXO
 40
0.625
  9
$DIMDLI
 40
3.75
  9
$DIMRND
 40
0
  9
$DIMDLE
 40
0
  9
$DIMEXE
 40
1.25
  9
$DIMTP
 40
0
  9
$DIMTM
 40
0
  9
$DIMTXT
 40
2.5
  9
$DIMCEN
 40
2.5
  9
$DIMTSZ
 40
0
  9
$DIMTOL
 70
    0
  9
$DIMLIM
 70
    0
  9
$DIMTIH
 70
    0
  9
$DIMTOH
 70
    0
  9
$DIMSE1
 70
    0
  9
$DIMSE2
 70
    0
  9
$DIMTAD
 70
    1
  9
$DIMZIN
 70
    8
  9
$DIMBLK
  1

  9
$DIMASO
 70
    1
  9
$DIMSHO
 70
    1
  9
$DIMPOST
  1

  9
$DIMAPOST
  1

  9
$DIMALT
 70
    0
  9
$DIMALTD
 70
    3
  9
$DIMALTF
 40
0.03937
  9
$DIMLFAC
 40
1
  9
$DIMTOFL
 70
    1
  9
$DIMTVP
 40
0
  9
$DIMTIX
 70
    0
  9
$DIMSOXD
 70
    0
  9
$DIMSAH
 70
    0
  9
$DIMBLK1
  1

  9
$DIMBLK2
  1

  9
$DIMSTYLE
  2
STANDARD
  9
$DIMCLRD
 70
    0
  9
$DIMCLRE
 70
    0
  9
$DIMCLRT
 70
    0
  9
$DIMTFAC
 40
1
  9
$DIMGAP
 40
0.625
  9
$DIMJUST
 70
    0
  9
$DIMSD1
 70
    0
  9
$DIMSD2
 70
    0
  9
$DIMTOLJ
 70
    0
  9
$DIMTZIN
 70
    8
  9
$DIMALTZ
 70
    0
  9
$DIMALTTZ
 70
    0
  9
$DIMUPT
 70
    0
  9
$DIMDEC
 70
    2
  9
$DIMTDEC
 70
    2
  9
$DIMALTU
 70
    2
  9
$DIMALTTD
 70
    3
  9
$DIMTXSTY
  7
STANDARD
  9
$DIMAUNIT
 70
    0
  9
$DIMADEC
 70
    0
  9
$DIMALTRND
 40
0
  9
$DIMAZIN
 70
    0
  9
$DIMDSEP
 70
   44
  9
$DIMATFIT
 70
    3
  9
$DIMFRAC
 70
    0
  9
$DIMLDRBLK
  1
STANDARD
  9
$DIMLUNIT
 70
    2
  9
$DIMLWD
 70
   -2
  9
$DIMLWE
 70
   -2
  9
$DIMTMOVE
 70
    0
  9
$DIMFXL
 40
1
  9
$DIMFXLON
 70
    0
  9
$DIMJOGANG
 40
0.7854
  9
$DIMTFILL
 70
    0
  9
$DIMTFILLCLR
 70
    0
  9
$DIMARCSYM
 70
    0
  9
$DIMLTYPE
  6

  9
$DIMLTEX1
  6

  9
$DIMLTEX2
  6

  9
$LUNITS
 70
    2
  9
$LUPREC
 70
    4
  9
$SKETCHINC
 40
1
  9
$FILLETRAD
 40
0
  9
$AUNITS
 70
    0
  9
$AUPREC
 70
    2
  9
$MENU
  1
.
  9
$ELEVATION
 40
0
  9
$PELEVATION
 40
0
  9
$THICKNESS
 40
0
  9
$LIMCHECK
 70
    0
  9
$CHAMFERA
 40
0
  9
$CHAMFERB
 40
0
  9
$CHAMFERC
 40
0
  9
$CHAMFERD
 40
0
  9
$SKPOLY
 70
    0
  9
$USRTIMER
 70
    1
  9
$ANGBASE
 50
0
  9
$ANGDIR
 70
    0
  9
$PDMODE
 70
   34
  9
$PDSIZE
 40
0
  9
$PLINEWID
 40
0
  9
$SPLFRAME
 70
    0
  9
$SPLINETYPE
 70
    2
  9
$SPLINESEGS
 70
    8
  9
$HANDSEED
  5
20000
  9
$SURFTAB1
 70
    6
  9
$SURFTAB2
 70
    6
  9
$SURFTYPE
 70
    6
  9
$SURFU
 70
    6
  9
$SURFV
 70
    6
  9
$UCSBASE
  2

  9
$UCSNAME
  2

  9
$UCSORG
 10
0
 20
0
 30
0
  9
$UCSXDIR
 10
1
 20
0
 30
0
  9
$UCSYDIR
 10
0
 20
1
 30
0
  9
$UCSORTHOREF
  2

  9
$UCSORTHOVIEW
 70
    0
  9
$UCSORGTOP
 10
0
 20
0
 30
0
  9
$UCSORGBOTTOM
 10
0
 20
0
 30
0
  9
$UCSORGLEFT
 10
0
 20
0
 30
0
  9
$UCSORGRIGHT
 10
0
 20
0
 30
0
  9
$UCSORGFRONT
 10
0
 20
0
 30
0
  9
$UCSORGBACK
 10
0
 20
0
 30
0
  9
$PUCSBASE
  2

  9
$PUCSNAME
  2

  9
$PUCSORG
 10
0
 20
0
 30
0
  9
$PUCSXDIR
 10
1
 20
0
 30
0
  9
$PUCSYDIR
 10
0
 20
1
 30
0
  9
$PUCSORTHOREF
  2

  9
$PUCSORTHOVIEW
 70
    0
  9
$PUCSORGTOP
 10
0
 20
0
 30
0
  9
$PUCSORGBOTTOM
 10
0
 20
0
 30
0
  9
$PUCSORGLEFT
 10
0
 20
0
 30
0
  9
$PUCSORGRIGHT
 10
0
 20
0
 30
0
  9
$PUCSORGFRONT
 10
0
 20
0
 30
0
  9
$PUCSORGBACK
 10
0
 20
0
 30
0
  9
$USERI1
 70
    0
  9
$USERI2
 70
    0
  9
$USERI3
 70
    0
  9
$USERI4
 70
    0
  9
$USERI5
 70
    0
  9
$USERR1
 40
0
  9
$USERR2
 40
0
  9
$USERR3
 40
0
  9
$USERR4
 40
0
  9
$USERR5
 40
0
  9
$WORLDVIEW
 70
    1
  9
$SHADEDGE
 70
    3
  9
$SHADEDIF
 70
   70
  9
$TILEMODE
 70
    1
  9
$MAXACTVP
 70
   64
  9
$PINSBASE
 10
105
 20
163.4835546615598
 30
0
  9
$PLIMCHECK
 70
    0
  9
$PEXTMIN
 10
0
 20
0
 30
0
  9
$PEXTMAX
 10
0
 20
0
 30
0
  9
$GRIDMODE
 70
    1
  9
$SNAPSTYLE
 70
    0
  9
$PLIMMIN
 10
0
 20
0
  9
$PLIMMAX
 10
210
 20
297
  9
$UNITMODE
 70
    0
  9
$VISRETAIN
 70
    1
  9
$PLINEGEN
 70
    0
  9
$PSLTSCALE
 70
    1
  9
$TREEDEPTH
 70
 3020
  9
$CMLSTYLE
  2
Standard
  9
$CMLJUST
 70
    0
  9
$CMLSCALE
 40
20
  9
$PROXYGRAPHICS
 70
    1
  9
$MEASUREMENT
 70
    1
  9
$CELWEIGHT
370
   -1
  9
$ENDCAPS
280
    0
  9
$JOINSTYLE
280
    0
  9
$LWDISPLAY
290
    0
  9
$INSUNITS
 70
    4
  9
$HYPERLINKBASE
  1

  9
$STYLESHEET
  1

  9
$XEDIT
290
    1
  9
$CEPSNTYPE
380
    0
  9
$PSTYLEMODE
290
    1
  9
$EXTNAMES
290
    1
  9
$PSVPSCALE
 40
0.5327480208411026
  9
$OLESTARTUP
290
    0
  9
$SORTENTS
280
  127
  9
$INDEXCTL
280
    0
  9
$HIDETEXT
280
    1
  9
$XCLIPFRAME
290
    0
  9
$HALOGAP
280
    0
  9
$OBSCOLOR
 70
  257
  9
$OBSLTYPE
280
    0
  9
$INTERSECTIONDISPLAY
280
    0
  9
$INTERSECTIONCOLOR
 70
  257
  9
$DIMASSOC
280
    1
  9
$PROJECTNAME
  1

  9
$CAMERADISPLAY
290
    0
  9
$LENSLENGTH
 40
50
  9
$CAMERAHEIGHT
 40
0
  9
$STEPSPERSEC
 40
2
  9
$STEPSIZE
 40
50
  9
$3DDWFPREC
 40
2
  9
$PSOLWIDTH
 40
5
  9
$PSOLHEIGHT
 40
80
  9
$LOFTANG1
 40
1.570796326794897
  9
$LOFTANG2
 40
1.570796326794897
  9
$LOFTMAG1
 40
0
  9
$LOFTMAG2
 40
0
  9
$LOFTPARAM
 70
    7
  9
$LOFTNORMALS
280
    1
  9
$LATITUDE
 40
1
  9
$LONGITUDE
 40
1
  9
$NORTHDIRECTION
 40
0
  9
$TIMEZONE
 70
-8000
  9
$LIGHTGLYPHDISPLAY
280
    1
  9
$TILEMODELIGHTSYNCH
280
    1
  9
$SOLIDHIST
280
    1
  9
$SHOWHIST
280
    1
  9
$DWFFRAME
280
    2
  9
$DGNFRAME
280
    0
  9
$REALWORLDSCALE
290
    1
  9
$INTERFERECOLOR
 62
    1
  9
$CSHADOW
280
    0
  9
$SHADOWPLANELOCATION
 40
0
  0
ENDSEC
  0
SECTION
  2
CLASSES
  0
ENDSEC
  0
SECTION
  2
TABLES
  0
TABLE
  2
VPORT
  5
8
330
0
100
AcDbSymbolTable
 70
    1
  0
VPORT
  5
31
330
2
100
AcDbSymbolTableRecord
100
AcDbViewportTableRecord
  2
*ACTIVE
 70
    0
 10
0
 20
0
 11
1
 21
1
 12
120.0642954317697
 22
33.59311892909618
 13
0
 23
0
 14
10
 24
10
 15
10
 25
10
 16
0
 26
0
 36
1
 17
0
 27
0
 37
0
 40
239.5064960685561
 41
2.005194805194805
 42
50
 43
0
 44
0
 50
0
 51
0
 71
    0
 72
  100
 73
    1
 74
    3
 75
    0
 76
    1
 77
    0
 78
    0
281
    0
 65
    1
110
0
120
0
130
0
111
1
121
0
131
0
112
0
122
1
132
0
 79
    0
146
0
348
10020
 60
    7
 61
    5
292
1
282
    1
141
0
142
0
 63
  250
421
3358443
  0
ENDTAB
  0
TABLE
  2
LTYPE
  5
5
330
0
100
AcDbSymbolTable
 70
    4
  0
LTYPE
  5
14
330
5
100
AcDbSymbolTableRecord
100
AcDbLinetypeTableRecord
  2
ByBlock
 70
    0
  3

 72
   65
 73
    0
 40
0
  0
LTYPE
  5
15
330
5
100
AcDbSymbolTableRecord
100
AcDbLinetypeTableRecord
  2
ByLayer
 70
    0
  3

 72
   65
 73
    0
 40
0
  0
LTYPE
  5
16
330
5
100
AcDbSymbolTableRecord
100
AcDbLinetypeTableRecord
  2
Continuous
 70
    0
  3
Solid line
 72
   65
 73
    0
 40
0
  0
LTYPE
  5
32
330
5
100
AcDbSymbolTableRecord
100
AcDbLinetypeTableRecord
  2
DOT
 70
    0
  3
Dot . . . . . . . . . . . . . . . . . . . . . .
 72
   65
 73
    2
 40
6.35
 49
0
 74
    0
 49
-6.35
 74
    0
  0
LTYPE
  5
33
330
5
100
AcDbSymbolTableRecord
100
AcDbLinetypeTableRecord
  2
DOTTINY
 70
    0
  3
Dot (.15x) .....................................
 72
   65
 73
    2
 40
0.9525
 49
0
 74
    0
 49
-0.9525
 74
    0
  0
LTYPE
  5
34
330
5
100
AcDbSymbolTableRecord
100
AcDbLinetypeTableRecord
  2
DOT2
 70
    0
  3
Dot (.5x) .....................................
 72
   65
 73
    2
 40
3.175
 49
0
 74
    0
 49
-3.175
 74
    0
  0
LTYPE
  5
35
330
5
100
AcDbSymbolTableRecord
100
AcDbLinetypeTableRecord
  2
DOTX2
 70
    0
  3
Dot (2x) .  .  .  .  .  .  .  .  .  .  .  .  .
 72
   65
 73
    2
 40
12.7
 49
0
 74
    0
 49
-12.7
 74
    0
  0
LTYPE
  5
36
330
5
100
AcDbSymbolTableRecord
100
AcDbLinetypeTableRecord
  2
DASHED
 70
    0
  3
Dashed _ _ _ _ _ _ _ _ _ _ _ _ _ _ _ _ _
 72
   65
 73
    2
 40
19.05
 49
12.7
 74
    0
 49
-6.35
 74
    0
  0
LTYPE
  5
37
330
5
100
AcDbSymbolTableRecord
100
AcDbLinetypeTableRecord
  2
DASHEDTINY
 70
    0
  3
Dashed (.15x) _ _ _ _ _ _ _ _ _ _ _ _ _ _ _ _ _
 72
   65
 73
    2
 40
2.8575
 49
1.905
 74
    0
 49
-0.9525
 74
    0
  0
LTYPE
  5
38
330
5
100
AcDbSymbolTableRecord
100
AcDbLinetypeTableRecord
  2
DASHED2
 70
    0
  3
Dashed (.5x) _ _ _ _ _ _ _ _ _ _ _ _ _ _ _ _ _
 72
   65
 73
    2
 40
9.524999999999999
 49
6.35
 74
    0
 49
-3.175
 74
    0
  0
LTYPE
  5
39
330
5
100
AcDbSymbolTableRecord
100
AcDbLinetypeTableRecord
  2
DASHEDX2
 70
    0
  3
Dashed (2x) ____  ____  ____  ____  ____  ___
 72
   65
 73
    2
 40
38.09999999999999
 49
25.4
 74
    0
 49
-12.7
 74
    0
  0
LTYPE
  5
3A
330
5
100
AcDbSymbolTableRecord
100
AcDbLinetypeTableRecord
  2
DASHDOT
 70
    0
  3
Dash dot __ . __ . __ . __ . __ . __ . __ . __
 72
   65
 73
    4
 40
25.4
 49
12.7
 74
    0
 49
-6.35
 74
    0
 49
0
 74
    0
 49
-6.35
 74
    0
  0
LTYPE
  5
3B
330
5
100
AcDbSymbolTableRecord
100
AcDbLinetypeTableRecord
  2
DASHDOTTINY
 70
    0
  3
Dash dot (.15x) _._._._._._._._._._._._._._._.
 72
   65
 73
    4
 40
3.81
 49
1.905
 74
    0
 49
-0.9525
 74
    0
 49
0
 74
    0
 49
-0.9525
 74
    0
  0
LTYPE
  5
3C
330
5
100
AcDbSymbolTableRecord
100
AcDbLinetypeTableRecord
  2
DASHDOT2
 70
    0
  3
Dash dot (.5x) _._._._._._._._._._._._._._._.
 72
   65
 73
    4
 40
12.7
 49
6.35
 74
    0
 49
-3.175
 74
    0
 49
0
 74
    0
 49
-3.175
 74
    0
  0
LTYPE
  5
3D
330
5
100
AcDbSymbolTableRecord
100
AcDbLinetypeTableRecord
  2
DASHDOTX2
 70
    0
  3
Dash dot (2x) ____  .  ____  .  ____  .  ___
 72
   65
 73
    4
 40
50.8
 49
25.4
 74
    0
 49
-12.7
 74
    0
 49
0
 74
    0
 49
-12.7
 74
    0
  0
LTYPE
  5
3E
330
5
100
AcDbSymbolTableRecord
100
AcDbLinetypeTableRecord
  2
DIVIDE
 70
    0
  3
Divide ____ . . ____ . . ____ . . ____ . . ____
 72
   65
 73
    6
 40
31.75
 49
12.7
 74
    0
 49
-6.35
 74
    0
 49
0
 74
    0
 49
-6.35
 74
    0
 49
0
 74
    0
 49
-6.35
 74
    0
  0
LTYPE
  5
3F
330
5
100
AcDbSymbolTableRecord
100
AcDbLinetypeTableRecord
  2
DIVIDETINY
 70
    0
  3
Divide (.15x) __..__..__..__..__..__..__..__.._
 72
   65
 73
    6
 40
4.7625
 49
1.905
 74
    0
 49
-0.9525
 74
    0
 49
0
 74
    0
 49
-0.9525
 74
    0
 49
0
 74
    0
 49
-0.9525
 74
    0
  0
LTYPE
  5
40
330
5
100
AcDbSymbolTableRecord
100
AcDbLinetypeTableRecord
  2
DIVIDE2
 70
    0
  3
Divide (.5x) __..__..__..__..__..__..__..__.._
 72
   65
 73
    6
 40
15.875
 49
6.35
 74
    0
 49
-3.175
 74
    0
 49
0
 74
    0
 49
-3.175
 74
    0
 49
0
 74
    0
 49
-3.175
 74
    0
  0
LTYPE
  5
41
330
5
100
AcDbSymbolTableRecord
100
AcDbLinetypeTableRecord
  2
DIVIDEX2
 70
    0
  3
Divide (2x) ________  .  .  ________  .  .  _
 72
   65
 73
    6
 40
63.5
 49
25.4
 74
    0
 49
-12.7
 74
    0
 49
0
 74
    0
 49
-12.7
 74
    0
 49
0
 74
    0
 49
-12.7
 74
    0
  0
LTYPE
  5
42
330
5
100
AcDbSymbolTableRecord
100
AcDbLinetypeTableRecord
  2
BORDER
 70
    0
  3
Border __ __ . __ __ . __ __ . __ __ . __ __ .
 72
   65
 73
    6
 40
44.45
 49
12.7
 74
    0
 49
-6.35
 74
    0
 49
12.7
 74
    0
 49
-6.35
 74
    0
 49
0
 74
    0
 49
-6.35
 74
    0
  0
LTYPE
  5
43
330
5
100
AcDbSymbolTableRecord
100
AcDbLinetypeTableRecord
  2
BORDERTINY
 70
    0
  3
Border (.15x) __.__.__.__.__.__.__.__.__.__.__.
 72
   65
 73
    6
 40
6.6675
 49
1.905
 74
    0
 49
-0.9525
 74
    0
 49
1.905
 74
    0
 49
-0.9525
 74
    0
 49
0
 74
    0
 49
-0.9525
 74
    0
  0
LTYPE
  5
44
330
5
100
AcDbSymbolTableRecord
100
AcDbLinetypeTableRecord
  2
BORDER2
 70
    0
  3
Border (.5x) __.__.__.__.__.__.__.__.__.__.__.
 72
   65
 73
    6
 40
22.225
 49
6.35
 74
    0
 49
-3.175
 74
    0
 49
6.35
 74
    0
 49
-3.175
 74
    0
 49
0
 74
    0
 49
-3.175
 74
    0
  0
LTYPE
  5
45
330
5
100
AcDbSymbolTableRecord
100
AcDbLinetypeTableRecord
  2
BORDERX2
 70
    0
  3
Border (2x) ____  ____  .  ____  ____  .  ___
 72
   65
 73
    6
 40
88.89999999999999
 49
25.4
 74
    0
 49
-12.7
 74
    0
 49
25.4
 74
    0
 49
-12.7
 74
    0
 49
0
 74
    0
 49
-12.7
 74
    0
  0
LTYPE
  5
46
330
5
100
AcDbSymbolTableRecord
100
AcDbLinetypeTableRecord
  2
CENTER
 70
    0
  3
Center ____ _ ____ _ ____ _ ____ _ ____ _ ____
 72
   65
 73
    4
 40
50.8
 49
31.75
 74
    0
 49
-6.35
 74
    0
 49
6.35
 74
    0
 49
-6.35
 74
    0
  0
LTYPE
  5
47
330
5
100
AcDbSymbolTableRecord
100
AcDbLinetypeTableRecord
  2
CENTERTINY
 70
    0
  3
Center (.15x) ___ _ ___ _ ___ _ ___ _ ___ _ ___
 72
   65
 73
    4
 40
7.62
 49
4.7625
 74
    0
 49
-0.9525
 74
    0
 49
0.9525
 74
    0
 49
-0.9525
 74
    0
  0
LTYPE
  5
48
330
5
100
AcDbSymbolTableRecord
100
AcDbLinetypeTableRecord
  2
CENTER2
 70
    0
  3
Center (.5x) ___ _ ___ _ ___ _ ___ _ ___ _ ___
 72
   65
 73
    4
 40
28.575
 49
19.05
 74
    0
 49
-3.175
 74
    0
 49
3.175
 74
    0
 49
-3.175
 74
    0
  0
LTYPE
  5
49
330
5
100
AcDbSymbolTableRecord
100
AcDbLinetypeTableRecord
  2
CENTERX2
 70
    0
  3
Center (2x) ________  __  ________  __  _____
 72
   65
 73
    4
 40
101.6
 49
63.5
 74
    0
 49
-12.7
 74
    0
 49
12.7
 74
    0
 49
-12.7
 74
    0
  0
ENDTAB
  0
TABLE
  2
LAYER
  5
2
330
0
100
AcDbSymbolTable
 70
    1
  0
LAYER
  5
10
330
2
100
AcDbSymbolTableRecord
100
AcDbLayerTableRecord
  2
0
 70
    5
 62
    7
  6
CONTINUOUS
370
    0
390
F
  0
LAYER
  5
4A
330
2
100
AcDbSymbolTableRecord
100
AcDbLayerTableRecord
  2
1
 70
    5
 62
    7
  6
CONTINUOUS
370
    0
390
F
  0
LAYER
  5
4B
330
2
100
AcDbSymbolTableRecord
100
AcDbLayerTableRecord
  2
2
 70
    5
 62
    7
  6
CONTINUOUS
370
    0
390
F
  0
LAYER
  5
4C
330
2
100
AcDbSymbolTableRecord
100
AcDbLayerTableRecord
  2
FC
 70
    5
 62
    7
  6
CONTINUOUS
370
    0
390
F
  0
LAYER
  5
4D
330
2
100
AcDbSymbolTableRecord
100
AcDbLayerTableRecord
  2
Tail
 70
    5
 62
    7
  6
CONTINUOUS
370
    0
390
F
  0
LAYER
  5
4E
330
2
100
AcDbSymbolTableRecord
100
AcDbLayerTableRecord
  2
Tail2
 70
    5
 62
    7
  6
CONTINUOUS
370
    0
390
F
  0
LAYER
  5
4F
330
2
100
AcDbSymbolTableRecord
100
AcDbLayerTableRecord
  2
arm-deployed
 70
    4
 62
    7
  6
CONTINUOUS
370
    0
390
F
  0
LAYER
  5
50
330
2
100
AcDbSymbolTableRecord
100
AcDbLayerTableRecord
  2
arm-folded
 70
    4
 62
    7
  6
CONTINUOUS
370
    0
390
F
  0
LAYER
  5
51
330
2
100
AcDbSymbolTableRecord
100
AcDbLayerTableRecord
  2
battery
 70
    5
 62
    7
  6
CONTINUOUS
370
    0
390
F
  0
LAYER
  5
52
330
2
100
AcDbSymbolTableRecord
100
AcDbLayerTableRecord
  2
bounding box
 70
    5
 62
    7
  6
CONTINUOUS
370
    0
390
F
  0
LAYER
  5
53
330
2
100
AcDbSymbolTableRecord
100
AcDbLayerTableRecord
  2
camera
 70
    5
 62
    7
  6
CONTINUOUS
370
    0
390
F
  0
LAYER
  5
54
330
2
100
AcDbSymbolTableRecord
100
AcDbLayerTableRecord
  2
esc-tail
 70
    5
 62
    7
  6
CONTINUOUS
370
    0
390
F
  0
LAYER
  5
55
330
2
100
AcDbSymbolTableRecord
100
AcDbLayerTableRecord
  2
motor-deployed
 70
    5
 62
    7
  6
CONTINUOUS
370
    0
390
F
  0
LAYER
  5
56
330
2
100
AcDbSymbolTableRecord
100
AcDbLayerTableRecord
  2
motor-folded
 70
    5
 62
    7
  6
CONTINUOUS
370
    0
390
F
  0
LAYER
  5
57
330
2
100
AcDbSymbolTableRecord
100
AcDbLayerTableRecord
  2
motor-tail
 70
    5
 62
    7
  6
CONTINUOUS
370
    0
390
F
  0
LAYER
  5
58
330
2
100
AcDbSymbolTableRecord
100
AcDbLayerTableRecord
  2
schema a-main body
 70
    5
 62
    7
  6
CONTINUOUS
370
    0
390
F
  0
LAYER
  5
59
330
2
100
AcDbSymbolTableRecord
100
AcDbLayerTableRecord
  2
schema a-main body top
 70
    5
 62
    7
  6
CONTINUOUS
370
    0
390
F
  0
LAYER
  5
5A
330
2
100
AcDbSymbolTableRecord
100
AcDbLayerTableRecord
  2
schema b-main body
 70
    4
 62
    7
  6
CONTINUOUS
370
    0
390
F
  0
LAYER
  5
5B
330
2
100
AcDbSymbolTableRecord
100
AcDbLayerTableRecord
  2
schema b-main body middle
 70
    4
 62
    7
  6
CONTINUOUS
370
    0
390
F
  0
LAYER
  5
5C
330
2
100
AcDbSymbolTableRecord
100
AcDbLayerTableRecord
  2
schema b-main body top
 70
    4
 62
    7
  6
CONTINUOUS
370
    0
390
F
  0
LAYER
  5
5D
330
2
100
AcDbSymbolTableRecord
100
AcDbLayerTableRecord
  2
schema c-main body
 70
    5
 62
    7
  6
CONTINUOUS
370
    0
390
F
  0
LAYER
  5
5E
330
2
100
AcDbSymbolTableRecord
100
AcDbLayerTableRecord
  2
schema d-main body
 70
    5
 62
    7
  6
CONTINUOUS
370
    0
390
F
  0
LAYER
  5
5F
330
2
100
AcDbSymbolTableRecord
100
AcDbLayerTableRecord
  2
servo
 70
    5
 62
    7
  6
CONTINUOUS
370
    0
390
F
  0
ENDTAB
  0
TABLE
  2
STYLE
  5
3
330
0
100
AcDbSymbolTable
 70
    3
  0
STYLE
  5
60
330
2
100
AcDbSymbolTableRecord
100
AcDbTextStyleTableRecord
  2
standard
 70
    0
 40
0
 41
1
 50
0
 71
    0
 42
1
  3
standard
  4

  0
ENDTAB
  0
TABLE
  2
VIEW
  5
6
330
0
100
AcDbSymbolTable
 70
    0
  0
ENDTAB
  0
TABLE
  2
UCS
  5
7
330
0
100
AcDbSymbolTable
 70
    0
  0
ENDTAB
  0
TABLE
  2
APPID
  5
9
330
0
100
AcDbSymbolTable
 70
    1
  0
APPID
  5
12
330
9
100
AcDbSymbolTableRecord
100
AcDbRegAppTableRecord
  2
ACAD
 70
    0
  0
APPID
  5
61
330
9
100
AcDbSymbolTableRecord
100
AcDbRegAppTableRecord
  2
LibreCad
 70
    0
  0
ENDTAB
  0
TABLE
  2
DIMSTYLE
  5
A
330
0
100
AcDbSymbolTable
 70
    1
100
AcDbDimStyleTable
 71
    1
  0
DIMSTYLE
105
62
330
A
100
AcDbSymbolTableRecord
100
AcDbDimStyleTableRecord
  2
Standard
 70
    0
 40
2.5
 41
2.5
 42
0.625
 43
0.38
 44
1.25
 45
0
 46
0
 47
0
 48
0
 49
1
140
2.5
141
0.09
142
0
143
25.4
144
1
145
0
146
1
147
0.625
148
0
 71
    0
 72
    0
 73
    0
 74
    1
 75
    0
 76
    0
 77
    0
 78
    8
 79
    0
170
    0
171
    2
172
    0
173
    0
174
    0
175
    0
176
    0
177
    0
178
    0
179
    0
271
    2
272
    4
273
    2
274
    2
275
    0
276
    0
277
    2
278
   44
279
    0
280
    0
281
    0
282
    0
283
    1
284
    0
285
    0
286
    0
288
    0
289
    3
340
STANDARD
341

371
   -2
372
   -2
  0
ENDTAB
  0
TABLE
  2
BLOCK_RECORD
  5
1
330
0
100
AcDbSymbolTable
 70
    2
  0
BLOCK_RECORD
  5
1F
330
1
100
AcDbSymbolTableRecord
100
AcDbBlockTableRecord
  2
*Model_Space
 70
    0
280
    1
281
    0
  0
BLOCK_RECORD
  5
1E
330
1
100
AcDbSymbolTableRecord
100
AcDbBlockTableRecord
  2
*Paper_Space
 70
    0
280
    1
281
    0
  0
ENDTAB
  0
ENDSEC
  0
SECTION
  2
BLOCKS
  0
BLOCK
  5
20
330
1F
100
AcDbEntity
  8
0
100
AcDbBlockBegin
  2
*Model_Space
 70
    0
 10
0
 20
0
 30
0
  3
*Model_Space
  1

  0
ENDBLK
  5
21
330
1F
100
AcDbEntity
  8
0
100
AcDbBlockEnd
  0
BLOCK
  5
1C
330
1B
100
AcDbEntity
  8
0
100
AcDbBlockBegin
  2
*Paper_Space
 70
    0
 10
0
 20
0
 30
0
  3
*Paper_Space
  1

  0
ENDBLK
  5
1D
330
1F
100
AcDbEntity
  8
0
100
AcDbBlockEnd
  0
ENDSEC
  0
SECTION
  2
ENTITIES
  0
CIRCLE
  5
63
100
AcDbEntity
  8
arm-deployed
  6
ByLayer
 62
  256
370
   -1
100
AcDbCircle
 10
26.00000000000011
 20
-30.28993361544396
 40
3
  0
ARC
  5
64
100
AcDbEntity
  8
schema a-main body
  6
ByLayer
 62
  256
370
   -1
100
AcDbCircle
 10
-10
 20
-140.617552670502
 40
20
100
AcDbArc
 50
337.7283211345691
 51
0
  0
LINE
  5
65
100
AcDbEntity
  8
schema a-main body
  6
ByLayer
 62
  256
370
   -1
100
AcDbLine
 10
10.00000000000001
 20
-74.59552088549471
 11
10.00000000000001
 21
-140.617552670502
  0
ARC
  5
66
100
AcDbEntity
  8
schema a-main body
  6
ByLayer
 62
  256
370
   -1
100
AcDbCircle
 10
40.00000000000001
 20
-74.59552088549471
 40
30
100
AcDbArc
 50
140.4650000000001
 51
180
  0
CIRCLE
  5
67
100
AcDbEntity
  8
schema a-main body
  6
ByLayer
 62
  256
370
   -1
100
AcDbCircle
 10
17.00000000000004
 20
-48.15050471493567
 40
1.5
  0
CIRCLE
  5
68
100
AcDbEntity
  8
arm-deployed
  6
ByLayer
 62
  256
370
   -1
100
AcDbCircle
 10
44.31025982466635
 20
-22.24416546360082
 40
1.5
  0
ARC
  5
69
100
AcDbEntity
  8
arm-deployed
  6
ByLayer
 62
  256
370
   -1
100
AcDbCircle
 10
44.31025982466635
 20
-22.24416546360082
 40
4
100
AcDbArc
 50
308.1988217168797
 51
339.7038290221899
  0
ARC
  5
6A
100
AcDbEntity
  8
arm-deployed
  6
ByLayer
 62
  256
370
   -1
100
AcDbCircle
 10
26.00000000000011
 20
-30.28993361544396
 40
9
100
AcDbArc
 50
140.464601005615
 51
308.1988282355267
  0
LINE
  5
6B
100
AcDbEntity
  8
arm-deployed
  6
ByLayer
 62
  256
370
   -1
100
AcDbLine
 10
31.56553091197269
 20
-37.3627594769987
 11
46.78382911887638
 21
-25.38764362429182
  0
ARC
  5
6C
100
AcDbEntity
  8
schema a-main body
  6
ByLayer
 62
  256
370
   -1
100
AcDbCircle
 10
10
 20
-140.617552670502
 40
20
100
AcDbArc
 50
180
 51
202.2716788654309
  0
LINE
  5
6D
100
AcDbEntity
  8
schema a-main body
  6
ByLayer
 62
  256
370
   -1
100
AcDbLine
 10
-10.00000000000001
 20
-74.59552088549471
 11
-10.00000000000001
 21
-140.617552670502
  0
ARC
  5
6E
100
AcDbEntity
  8
schema a-main body
  6
ByLayer
 62
  256
370
   -1
100
AcDbCircle
 10
-40.00000000000001
 20
-74.59552088549471
 40
30
100
AcDbArc
 50
360
 51
39.53499999999996
  0
CIRCLE
  5
6F
100
AcDbEntity
  8
schema a-main body
  6
ByLayer
 62
  256
370
   -1
100
AcDbCircle
 10
-17.00000000000004
 20
-48.15050471493568
 40
1.5
  0
ARC
  5
70
100
AcDbEntity
  8
schema a-main body
  6
ByLayer
 62
  256
370
   -1
100
AcDbCircle
 10
19.2539716940889
 20
-136.827564822896
 40
30
100
AcDbArc
 50
202.2716788654309
 51
226.5562707733702
  0
ARC
  5
71
100
AcDbEntity
  8
schema a-main body
  6
ByLayer
 62
  256
370
   -1
100
AcDbCircle
 10
-19.2539716940889
 20
-136.827564822896
 40
30
100
AcDbArc
 50
313.4437292266297
 51
337.7283211345691
  0
ARC
  5
72
100
AcDbEntity
  8
schema a-main body
  6
ByLayer
 62
  256
370
   -1
100
AcDbCircle
 10
0
 20
-157.1569665357656
 40
2
100
AcDbArc
 50
226.55627077337
 51
313.44372922663
  0
LINE
  5
73
100
AcDbEntity
  8
1
  6
ByLayer
 62
    1
370
   -1
100
AcDbLine
 10
-26.00000000000011
 20
-142.5
 11
-26.00000000000011
 21
-30.28993361544397
  0
LINE
  5
74
100
AcDbEntity
  8
1
  6
ByLayer
 62
    1
370
   -1
100
AcDbLine
 10
-26.00000000000011
 20
-30.28993361544397
 11
-97.42785792574934
 21
56.24999999999998
  0
LWPOLYLINE
  5
75
100
AcDbEntity
  8
FC
  6
ByLayer
 62
  256
370
   -1
100
AcDbPolyline
 90
    4
 70
    1
 43
0
 10
-18
 20
-18
 10
18
 20
-18
 10
18
 20
18
 10
-18
 20
18
  0
CIRCLE
  5
76
100
AcDbEntity
  8
FC
  6
ByLayer
 62
  256
370
   -1
100
AcDbCircle
 10
-15.25
 20
-15.25
 40
2.5
  0
CIRCLE
  5
77
100
AcDbEntity
  8
FC
  6
ByLayer
 62
  256
370
   -1
100
AcDbCircle
 10
15.25
 20
-15.25
 40
2.5
  0
CIRCLE
  5
78
100
AcDbEntity
  8
FC
  6
ByLayer
 62
  256
370
   -1
100
AcDbCircle
 10
-15.25
 20
15.25
 40
2.5
  0
CIRCLE
  5
79
100
AcDbEntity
  8
FC
  6
ByLayer
 62
  256
370
   -1
100
AcDbCircle
 10
15.25
 20
15.25
 40
2.5
  0
CIRCLE
  5
7A
100
AcDbEntity
  8
schema a-main body
  6
ByLayer
 62
  256
370
   -1
100
AcDbCircle
 10
44.31025982466635
 20
-22.24416546360082
 40
1.5
  0
ARC
  5
7B
100
AcDbEntity
  8
schema a-main body
  6
ByLayer
 62
  256
370
   -1
100
AcDbCircle
 10
44.31025982466635
 20
-22.24416546360082
 40
4
100
AcDbArc
 50
308.1988217168797
 51
339.7038290221899
  0
LINE
  5
7C
100
AcDbEntity
  8
schema a-main body
  6
ByLayer
 62
  256
370
   -1
100
AcDbLine
 10
32.32552910393814
 20
-36.76472504023721
 11
16.86292355889864
 21
-55.49903707934254
  0
LINE
  5
7D
100
AcDbEntity
  8
schema a-main body
  6
ByLayer
 62
  256
370
   -1
100
AcDbLine
 10
32.32552910393814
 20
-36.76472504023721
 11
46.78382911887638
 21
-25.38764362429182
  0
CIRCLE
  5
7E
100
AcDbEntity
  8
schema a-main body
  6
ByLayer
 62
  256
370
   -1
100
AcDbCircle
 10
-44.31025982466635
 20
-22.24416546360083
 40
1.5
  0
ARC
  5
7F
100
AcDbEntity
  8
schema a-main body
  6
ByLayer
 62
  256
370
   -1
100
AcDbCircle
 10
-44.31025982466635
 20
-22.24416546360083
 40
4
100
AcDbArc
 50
200.2961709778101
 51
231.8011782831203
  0
LINE
  5
80
100
AcDbEntity
  8
schema a-main body
  6
ByLayer
 62
  256
370
   -1
100
AcDbLine
 10
-32.32552910393814
 20
-36.76472504023721
 11
-16.86292355889864
 21
-55.49903707934254
  0
LINE
  5
81
100
AcDbEntity
  8
schema a-main body
  6
ByLayer
 62
  256
370
   -1
100
AcDbLine
 10
-32.32552910393814
 20
-36.76472504023721
 11
-46.78382911887638
 21
-25.38764362429183
  0
CIRCLE
  5
82
100
AcDbEntity
  8
schema a-main body
  6
ByLayer
 62
  256
370
   -1
100
AcDbCircle
 10
38.73109627811089
 20
-14.86530436357947
 40
1.5
  0
CIRCLE
  5
83
100
AcDbEntity
  8
schema a-main body
  6
ByLayer
 62
  256
370
   -1
100
AcDbCircle
 10
-38.73109627811089
 20
-14.86530436357947
 40
1.5
  0
CIRCLE
  5
84
100
AcDbEntity
  8
schema a-main body
  6
ByLayer
 62
  256
370
   -1
100
AcDbCircle
 10
26.00000000000011
 20
-30.28993361544396
 40
1.5
  0
CIRCLE
  5
85
100
AcDbEntity
  8
schema a-main body
  6
ByLayer
 62
  256
370
   -1
100
AcDbCircle
 10
-26.00000000000011
 20
-30.28993361544396
 40
1.5
  0
LINE
  5
86
100
AcDbEntity
  8
2
  6
ByLayer
 62
  256
370
   -1
100
AcDbLine
 10
-97.42785792574934
 20
56.25000000000001
 11
0
 21
0
  0
LINE
  5
87
100
AcDbEntity
  8
2
  6
ByLayer
 62
  256
370
   -1
100
AcDbLine
 10
0
 20
0
 11
97.42785792574935
 21
56.24999999999998
  0
LINE
  5
88
100
AcDbEntity
  8
2
  6
ByLayer
 62
  256
370
   -1
100
AcDbLine
 10
-1.217775880135719e-015
 20
-112.5
 11
0
 21
0
  0
LWPOLYLINE
  5
89
100
AcDbEntity
  8
Tail
  6
ByLayer
 62
  256
370
   -1
100
AcDbPolyline
 90
    4
 70
    1
 43
0
 10
-6
 20
0
 10
6
 20
0
 10
6
 20
26.5
 10
-6
 20
26.5
  0
LINE
  5
8A
100
AcDbEntity
  8
Tail
  6
ByLayer
 62
  256
370
   -1
100
AcDbLine
 10
0
 20
-112.5
 11
15
 21
-112.5
  0
LINE
  5
8B
100
AcDbEntity
  8
Tail
  6
ByLayer
 62
  256
370
   -1
100
AcDbLine
 10
3.061515884555943e-016
 20
-107.5
 11
15
 21
-107.5
  0
LINE
  5
8C
100
AcDbEntity
  8
Tail
  6
ByLayer
 62
  256
370
   -1
100
AcDbLine
 10
-9.184547653667829e-016
 20
-117.5
 11
15
 21
-117.5
  0
LINE
  5
8D
100
AcDbEntity
  8
Tail
  6
ByLayer
 62
  256
370
   -1
100
AcDbLine
 10
9.184547653667829e-016
 20
-97.5
 11
15
 21
-97.5
  0
LINE
  5
8E
100
AcDbEntity
  8
Tail
  6
ByLayer
 62
  256
370
   -1
100
AcDbLine
 10
-2.755364296100349e-015
 20
-127.5
 11
15
 21
-127.5
  0
LINE
  5
8F
100
AcDbEntity
  8
Tail
  6
ByLayer
 62
  256
370
   -1
100
AcDbLine
 10
1.530757942277972e-015
 20
-87.5
 11
15
 21
-87.5
  0
LINE
  5
90
100
AcDbEntity
  8
Tail
  6
ByLayer
 62
  256
370
   -1
100
AcDbLine
 10
-4.592273826833915e-015
 20
-137.5
 11
14.99999999999999
 21
-137.5
  0
LWPOLYLINE
  5
91
100
AcDbEntity
  8
Tail
  6
ByLayer
 62
    1
370
   -1
100
AcDbPolyline
 90
    4
 70
    1
 43
0
 10
-4.999999999999987
 20
-117.5
 10
10.00000000000001
 20
-117.5
 10
10.00000000000001
 20
-127.5
 10
-4.999999999999987
 20
-127.5
  0
LWPOLYLINE
  5
92
100
AcDbEntity
  8
Tail
  6
ByLayer
 62
    1
370
   -1
100
AcDbPolyline
 90
    4
 70
    1
 43
0
 10
-4.999999999999987
 20
-97.5
 10
10.00000000000001
 20
-97.5
 10
10.00000000000001
 20
-107.5
 10
-4.999999999999987
 20
-107.5
  0
LWPOLYLINE
  5
93
100
AcDbEntity
  8
Tail
  6
ByLayer
 62
    5
370
   -1
100
AcDbPolyline
 90
    4
 70
    1
 43
0
 10
4.999999999999987
 20
-107.5
 10
-10.00000000000001
 20
-107.5
 10
-10.00000000000001
 20
-117.5
 10
4.999999999999987
 20
-117.5
  0
LWPOLYLINE
  5
94
100
AcDbEntity
  8
Tail
  6
ByLayer
 62
    5
370
   -1
100
AcDbPolyline
 90
    4
 70
    1
 43
0
 10
4.999999999999987
 20
-87.5
 10
-10.00000000000001
 20
-87.5
 10
-10.00000000000001
 20
-97.5
 10
4.999999999999987
 20
-97.5
  0
LWPOLYLINE
  5
95
100
AcDbEntity
  8
Tail
  6
ByLayer
 62
    5
370
   -1
100
AcDbPolyline
 90
    4
 70
    1
 43
0
 10
4.999999999999987
 20
-127.5
 10
-10.00000000000001
 20
-127.5
 10
-10.00000000000001
 20
-137.5
 10
4.999999999999987
 20
-137.5
  0
CIRCLE
  5
96
100
AcDbEntity
  8
Tail2
  6
ByLayer
 62
  256
370
   -1
100
AcDbCircle
 10
0
 20
10.5
 40
1.5
  0
LWPOLYLINE
  5
97
100
AcDbEntity
  8
Tail2
  6
ByLayer
 62
  256
370
   -1
100
AcDbPolyline
 90
    4
 70
    1
 43
0
 10
-10
 20
-4
 10
10
 20
-4
 10
10
 20
0
 10
-10
 20
0
  0
LINE
  5
98
100
AcDbEntity
  8
Tail2
  6
ByLayer
 62
    1
370
   -1
100
AcDbLine
 10
-5
 20
10.5
 11
5
 21
10.5
  0
LINE
  5
99
100
AcDbEntity
  8
Tail2
  6
ByLayer
 62
    1
370
   -1
100
AcDbLine
 10
0
 20
5.5
 11
0
 21
15.5
  0
CIRCLE
  5
9A
100
AcDbEntity
  8
Tail2
  6
ByLayer
 62
    2
370
   -1
100
AcDbCircle
 10
0
 20
10.5
 40
3
  0
ARC
  5
9B
100
AcDbEntity
  8
Tail2
  6
ByLayer
 62
    1
370
   -1
100
AcDbCircle
 10
0
 20
10.5
 40
6
100
AcDbArc
 50
19.15948375867244
 51
160.8405162413275
  0
LINE
  5
9C
100
AcDbEntity
  8
Tail2
  6
ByLayer
 62
    1
370
   -1
100
AcDbLine
 10
5.667652144085505
 20
12.46919251817667
 11
10
 21
-0
  0
LINE
  5
9D
100
AcDbEntity
  8
Tail2
  6
ByLayer
 62
    1
370
   -1
100
AcDbLine
 10
-5.667652144085505
 20
12.46919251817667
 11
-10
 21
-0
  0
LWPOLYLINE
  5
9E
100
AcDbEntity
  8
Tail2
  6
ByLayer
 62
  256
370
   -1
100
AcDbPolyline
 90
    4
 70
    1
 43
0
 10
-13.75
 20
22
 10
13.75
 20
22
 10
13.75
 20
38.7
 10
-13.75
 20
38.7
  0
LINE
  5
9F
100
AcDbEntity
  8
Tail2
  6
ByLayer
 62
    5
370
   -1
100
AcDbLine
 10
-15
 20
18
 11
15
 21
18
  0
LINE
  5
A0
100
AcDbEntity
  8
Tail2
  6
ByLayer
 62
    5
370
   -1
100
AcDbLine
 10
-15
 20
22
 11
-15
 21
18
  0
LINE
  5
A1
100
AcDbEntity
  8
Tail2
  6
ByLayer
 62
    5
370
   -1
100
AcDbLine
 10
15
 20
22
 11
15
 21
18
  0
LINE
  5
A2
100
AcDbEntity
  8
Tail2
  6
ByLayer
 62
    5
370
   -1
100
AcDbLine
 10
-15
 20
22
 11
15
 21
22
  0
LINE
  5
A3
100
AcDbEntity
  8
Tail2
  6
ByLayer
 62
    5
370
   -1
100
AcDbLine
 10
-3.018659330568421
 20
7.162681338863156
 11
-15
 21
18
  0
LINE
  5
A4
100
AcDbEntity
  8
Tail2
  6
ByLayer
 62
    5
370
   -1
100
AcDbLine
 10
3.018659330568421
 20
7.162681338863156
 11
15
 21
18
  0
ARC
  5
A5
100
AcDbEntity
  8
Tail2
  6
ByLayer
 62
    5
370
   -1
100
AcDbCircle
 10
0
 20
10.5
 40
4.5
100
AcDbArc
 50
227.8701421615336
 51
312.1298578384664
  0
LWPOLYLINE
  5
A6
100
AcDbEntity
  8
battery
  6
ByLayer
 62
  256
370
   -1
100
AcDbPolyline
 90
    4
 70
    1
 43
0
 10
-16
 20
-35
 10
16
 20
-35
 10
16
 20
35
 10
-16
 20
35
  0
LINE
  5
A7
100
AcDbEntity
  8
1
  6
ByLayer
 62
    1
370
   -1
100
AcDbLine
 10
26.00000000000011
 20
-142.5
 11
26.00000000000011
 21
-30.28993361544396
  0
LINE
  5
A8
100
AcDbEntity
  8
1
  6
ByLayer
 62
    1
370
   -1
100
AcDbLine
 10
26.00000000000011
 20
-30.28993361544396
 11
97.42785792574934
 21
56.24999999999998
  0
ARC
  5
A9
100
AcDbEntity
  8
1
  6
ByLayer
 62
    1
370
   -1
100
AcDbCircle
 10
26.00000000000011
 20
-30.28993361544396
 40
24.00175121738743
100
AcDbArc
 50
270
 51
50.46460226783059
  0
SOLID
  5
AA
100
AcDbEntity
  8
1
  6
ByLayer
 62
    1
370
   -1
100
AcDbTrace
 10
41.27843027959121
 20
-11.77902791925955
 30
0
 11
46.30236901344894
 21
-15.63980767538403
 31
0
 12
44.78023028897285
 22
-17.05946136938004
 32
0
 13
44.78023028897285
 23
-17.05946136938004
 33
0
  0
SOLID
  5
AB
100
AcDbEntity
  8
1
  6
ByLayer
 62
    1
370
   -1
100
AcDbTrace
 10
26.00000000000011
 20
-54.29168483283139
 30
0
 11
32.06198367512651
 21
-52.44833607327512
 31
0
 12
32.33221755688204
 22
-54.51214240056885
 32
0
 13
32.33221755688204
 23
-54.51214240056885
 33
0
  0
MTEXT
  5
AC
100
AcDbEntity
  8
1
  6
ByLayer
 62
    1
370
   -1
100
AcDbMText
 10
47.11694174753728
 20
-37.87905520019572
 30
0
 40
6.25
 41
15.97222222222222
 71
    8
 72
    1
  1
140%%D
  7
standard
210
0
220
0
230
1
 50
70.23230113391524
 73
    2
 44
1
  0
CIRCLE
  5
AD
100
AcDbEntity
  8
schema a-main body
  6
ByLayer
 62
  256
370
   -1
100
AcDbCircle
 10
-28.3805569382902
 20
-9.339718303298197
 40
2.5
  0
CIRCLE
  5
AE
100
AcDbEntity
  8
schema a-main body
  6
ByLayer
 62
  256
370
   -1
100
AcDbCircle
 10
-28.3805569382902
 20
-9.339718303298197
 40
1.5
  0
CIRCLE
  5
AF
100
AcDbEntity
  8
schema a-main body
  6
ByLayer
 62
  256
370
   -1
100
AcDbCircle
 10
-38.73109627811089
 20
-14.86530436357947
 40
5
  0
CIRCLE
  5
B0
100
AcDbEntity
  8
schema a-main body
  6
ByLayer
 62
  256
370
   -1
100
AcDbCircle
 10
-17.00000000000004
 20
-48.15050471493568
 40
5
  0
CIRCLE
  5
B1
100
AcDbEntity
  8
schema a-main body
  6
ByLayer
 62
  256
370
   -1
100
AcDbCircle
 10
17.00000000000004
 20
-48.15050471493567
 40
5
  0
CIRCLE
  5
B2
100
AcDbEntity
  8
schema a-main body
  6
ByLayer
 62
  256
370
   -1
100
AcDbCircle
 10
38.73109627811089
 20
-14.86530436357947
 40
5
  0
CIRCLE
  5
B3
100
AcDbEntity
  8
schema a-main body
  6
ByLayer
 62
  256
370
   -1
100
AcDbCircle
 10
15.25
 20
15.25
 40
1.5
  0
CIRCLE
  5
B4
100
AcDbEntity
  8
schema a-main body
  6
ByLayer
 62
  256
370
   -1
100
AcDbCircle
 10
15.25
 20
-15.25
 40
1.5
  0
CIRCLE
  5
B5
100
AcDbEntity
  8
schema a-main body
  6
ByLayer
 62
  256
370
   -1
100
AcDbCircle
 10
-15.25
 20
15.25
 40
1.5
  0
CIRCLE
  5
B6
100
AcDbEntity
  8
schema a-main body
  6
ByLayer
 62
  256
370
   -1
100
AcDbCircle
 10
-15.25
 20
-15.25
 40
1.5
  0
CIRCLE
  5
B7
100
AcDbEntity
  8
schema a-main body
  6
ByLayer
 62
  256
370
   -1
100
AcDbCircle
 10
28.3805569382902
 20
-9.3397183032982
 40
2.5
  0
CIRCLE
  5
B8
100
AcDbEntity
  8
schema a-main body
  6
ByLayer
 62
  256
370
   -1
100
AcDbCircle
 10
28.3805569382902
 20
-9.3397183032982
 40
1.5
  0
LINE
  5
B9
100
AcDbEntity
  8
schema a-main body
  6
ByLayer
 62
  256
370
   -1
100
AcDbLine
 10
50.69319511840747
 20
-13.64867227032466
 11
40.28550873357058
 21
-1.039019468326526
  0
LINE
  5
BA
100
AcDbEntity
  8
schema a-main body
  6
ByLayer
 62
  256
370
   -1
100
AcDbLine
 10
48.06190817658688
 20
-23.63165767746435
 11
51.02655636918129
 21
-15.6155280050675
  0
ARC
  5
BB
100
AcDbEntity
  8
schema a-main body
  6
ByLayer
 62
  256
370
   -1
100
AcDbCircle
 10
49.15073219322102
 20
-14.92178189813574
 40
2
100
AcDbArc
 50
339.7038240808205
 51
39.53539773216924
  0
MTEXT
  5
BC
100
AcDbEntity
  8
camera
  6
ByLayer
 62
    1
370
   -1
100
AcDbMText
 10
-9.542554596324186e-015
 20
101.5625
 30
0
 40
6.25
 41
15.27777777777778
 71
    8
 72
    1
  1
100%%D
  7
standard
210
0
220
0
230
1
 50
360
 73
    2
 44
1
  0
LINE
  5
BD
100
AcDbEntity
  8
camera
  6
DASHEDTINY
 62
    1
370
   -1
100
AcDbLine
 10
-86.53122237393615
 20
130
 11
1.350308753700347e-014
 21
57.39168322071096
  0
SOLID
  5
BE
100
AcDbEntity
  8
camera
  6
ByLayer
 62
    1
370
   -1
100
AcDbTrace
 10
32.63986429942748
 20
84.77978131603702
 30
0
 11
27.5363400180061
 21
88.53472747221542
 31
0
 12
29.0284783518853
 22
89.98588084108948
 32
0
 13
29.0284783518853
 23
89.98588084108948
 33
0
  0
SOLID
  5
BF
100
AcDbEntity
  8
camera
  6
ByLayer
 62
    1
370
   -1
100
AcDbTrace
 10
-32.6398642994275
 20
84.77978131603703
 30
0
 11
-29.0284783518853
 21
89.98588084108948
 31
0
 12
-27.53634001800611
 22
88.53472747221542
 32
0
 13
-27.53634001800611
 23
88.53472747221542
 33
0
  0
ARC
  5
C0
100
AcDbEntity
  8
camera
  6
ByLayer
 62
    1
370
   -1
100
AcDbCircle
 10
-1.224714774039626e-014
 20
57.39168322071095
 40
42.60831677928905
100
AcDbArc
 50
40
 51
140
  0
LINE
  5
C1
100
AcDbEntity
  8
camera
  6
DASHEDTINY
 62
    1
370
   -1
100
AcDbLine
 10
86.53122237393617
 20
130
 11
1.496719415072789e-014
 21
57.39168322071096
  0
CIRCLE
  5
C2
100
AcDbEntity
  8
schema a-main body
  6
ByLayer
 62
  256
370
   -1
100
AcDbCircle
 10
-16
 20
60
 40
1.5
  0
CIRCLE
  5
C3
100
AcDbEntity
  8
schema a-main body
  6
ByLayer
 62
  256
370
   -1
100
AcDbCircle
 10
-16
 20
60
 40
2.5
  0
CIRCLE
  5
C4
100
AcDbEntity
  8
schema a-main body
  6
ByLayer
 62
  256
370
   -1
100
AcDbCircle
 10
16
 20
60
 40
1.5
  0
CIRCLE
  5
C5
100
AcDbEntity
  8
schema a-main body
  6
ByLayer
 62
  256
370
   -1
100
AcDbCircle
 10
16
 20
60
 40
2.5
  0
LINE
  5
C6
100
AcDbEntity
  8
schema a-main body
  6
ByLayer
 62
  256
370
   -1
100
AcDbLine
 10
-50.69319511840747
 20
-13.64867227032466
 11
-40.28550873357058
 21
-1.039019468326519
  0
ARC
  5
C7
100
AcDbEntity
  8
schema a-main body
  6
ByLayer
 62
  256
370
   -1
100
AcDbCircle
 10
-49.15073219322102
 20
-14.92178189813574
 40
2
100
AcDbArc
 50
140.4646022678307
 51
200.2961759191795
  0
LINE
  5
C8
100
AcDbEntity
  8
schema a-main body
  6
ByLayer
 62
  256
370
   -1
100
AcDbLine
 10
-48.06190817658688
 20
-23.63165767746436
 11
-51.02655636918129
 21
-15.61552800506749
  0
ARC
  5
C9
100
AcDbEntity
  8
schema a-main body
  6
ByLayer
 62
  256
370
   -1
100
AcDbCircle
 10
-12.85176803211714
 20
67
 40
2
100
AcDbArc
 50
210.2783556282992
 51
270
  0
ARC
  5
CA
100
AcDbEntity
  8
schema a-main body
  6
ByLayer
 62
  256
370
   -1
100
AcDbCircle
 10
12.85176803211714
 20
67
 40
2
100
AcDbArc
 50
270
 51
329.7216443717008
  0
LINE
  5
CB
100
AcDbEntity
  8
schema a-main body
  6
ByLayer
 62
  256
370
   -1
100
AcDbLine
 10
-12.85176803211714
 20
65
 11
12.85176803211714
 21
65
  0
ARC
  5
CC
100
AcDbEntity
  8
schema a-main body
  6
ByLayer
 62
  256
370
   -1
100
AcDbCircle
 10
-38.74304580838412
 20
-2.312129096137606
 40
2
100
AcDbArc
 50
68.03539437198407
 51
140.4646022678307
  0
ARC
  5
CD
100
AcDbEntity
  8
schema a-main body
  6
ByLayer
 62
  256
370
   -1
100
AcDbCircle
 10
38.74304580838412
 20
-2.312129096137604
 40
2
100
AcDbArc
 50
39.53539773216926
 51
111.964605628016
  0
LINE
  5
CE
100
AcDbEntity
  8
schema a-main body
  6
ByLayer
 62
  256
370
   -1
100
AcDbLine
 10
-17.70701573009144
 20
71.34930212634126
 11
-14.5789401964205
 21
65.99159714654527
  0
ARC
  5
CF
100
AcDbEntity
  8
schema a-main body
  6
ByLayer
 62
  256
370
   -1
100
AcDbCircle
 10
-18.57060181224312
 20
70.84510069961389
 40
1
100
AcDbArc
 50
30.27835562829917
 51
158.1355398792077
  0
LINE
  5
D0
100
AcDbEntity
  8
schema a-main body
  6
ByLayer
 62
  256
370
   -1
100
AcDbLine
 10
17.70701573009144
 20
71.34930212634126
 11
14.5789401964205
 21
65.99159714654527
  0
ARC
  5
D1
100
AcDbEntity
  8
schema a-main body
  6
ByLayer
 62
  256
370
   -1
100
AcDbCircle
 10
18.57060181224312
 20
70.84510069961389
 40
1
100
AcDbArc
 50
21.86446012079229
 51
149.7216443717008
  0
LINE
  5
D2
100
AcDbEntity
  8
schema a-main body
  6
ByLayer
 62
  256
370
   -1
100
AcDbLine
 10
-19.49866924744276
 20
71.21751288486293
 11
-23.63557508447525
 21
60.90816281010711
  0
ARC
  5
D3
100
AcDbEntity
  8
schema a-main body
  6
ByLayer
 62
  256
370
   -1
100
AcDbCircle
 10
-21.77944021407598
 20
60.16333843960903
 40
2
100
AcDbArc
 50
158.1355398792073
 51
210.2783556282992
  0
LINE
  5
D4
100
AcDbEntity
  8
schema a-main body
  6
ByLayer
 62
  256
370
   -1
100
AcDbLine
 10
-23.50661237837934
 20
59.15493558615431
 11
-23.45106855359566
 21
59.05980123807441
  0
ARC
  5
D5
100
AcDbEntity
  8
schema a-main body
  6
ByLayer
 62
  256
370
   -1
100
AcDbCircle
 10
-32.08692937511248
 20
54.01778697080079
 40
10
100
AcDbArc
 50
359.8584100402573
 51
30.27835562829915
  0
ARC
  5
D6
100
AcDbEntity
  8
schema a-main body
  6
ByLayer
 62
  256
370
   -1
100
AcDbCircle
 10
-169.6211703881746
 20
54.35766378990696
 40
147.5346609669404
100
AcDbArc
 50
339.0469561172715
 51
359.8584100402573
  0
ARC
  5
D7
100
AcDbEntity
  8
schema a-main body
  6
ByLayer
 62
  256
370
   -1
100
AcDbCircle
 10
-36.12480951848936
 20
4.179776535514637
 40
5
100
AcDbArc
 50
248.0353943719841
 51
328.9235141425735
  0
LINE
  5
D8
100
AcDbEntity
  8
schema a-main body
  6
ByLayer
 62
  256
370
   -1
100
AcDbLine
 10
19.49866924744276
 20
71.21751288486293
 11
23.63557508447525
 21
60.90816281010711
  0
ARC
  5
D9
100
AcDbEntity
  8
schema a-main body
  6
ByLayer
 62
  256
370
   -1
100
AcDbCircle
 10
21.77944021407598
 20
60.16333843960903
 40
2
100
AcDbArc
 50
329.7216443717008
 51
21.86446012079267
  0
LINE
  5
DA
100
AcDbEntity
  8
schema a-main body
  6
ByLayer
 62
  256
370
   -1
100
AcDbLine
 10
23.50661237837934
 20
59.15493558615431
 11
23.45106855359566
 21
59.05980123807441
  0
ARC
  5
DB
100
AcDbEntity
  8
schema a-main body
  6
ByLayer
 62
  256
370
   -1
100
AcDbCircle
 10
32.08692937511248
 20
54.01778697080079
 40
10
100
AcDbArc
 50
149.7216443717008
 51
180.1415899597427
  0
ARC
  5
DC
100
AcDbEntity
  8
schema a-main body
  6
ByLayer
 62
  256
370
   -1
100
AcDbCircle
 10
169.6211703881746
 20
54.35766378990696
 40
147.5346609669404
100
AcDbArc
 50
180.1415899597427
 51
200.9530438827285
  0
ARC
  5
DD
100
AcDbEntity
  8
schema a-main body
  6
ByLayer
 62
  256
370
   -1
100
AcDbCircle
 10
36.12480951848936
 20
4.179776535514641
 40
5
100
AcDbArc
 50
211.0764858574265
 51
291.9646056280159
  0
LINE
  5
DE
100
AcDbEntity
  8
schema a-main body top
  6
ByLayer
 62
  256
370
   -1
100
AcDbLine
 10
-8
 20
62
 11
8
 21
62
  0
LINE
  5
DF
100
AcDbEntity
  8
schema a-main body top
  6
ByLayer
 62
  256
370
   -1
100
AcDbLine
 10
-8
 20
62
 11
-8
 21
49
  0
LINE
  5
E0
100
AcDbEntity
  8
schema a-main body top
  6
ByLayer
 62
  256
370
   -1
100
AcDbLine
 10
-15
 20
42
 11
-8
 21
49
  0
LINE
  5
E1
100
AcDbEntity
  8
schema a-main body top
  6
ByLayer
 62
  256
370
   -1
100
AcDbLine
 10
8
 20
62
 11
8
 21
49
  0
LINE
  5
E2
100
AcDbEntity
  8
schema a-main body top
  6
ByLayer
 62
  256
370
   -1
100
AcDbLine
 10
15
 20
42
 11
8
 21
49
  0
CIRCLE
  5
E3
100
AcDbEntity
  8
0
  6
ByLayer
 62
    3
370
   -1
100
AcDbCircle
 10
97.42785792574935
 20
56.24999999999998
 40
63.5
  0
CIRCLE
  5
E4
100
AcDbEntity
  8
0
  6
ByLayer
 62
    3
370
   -1
100
AcDbCircle
 10
-97.42785792574934
 20
56.25000000000001
 40
63.5
  0
CIRCLE
  5
E5
100
AcDbEntity
  8
0
  6
ByLayer
 62
    3
370
   -1
100
AcDbCircle
 10
-1.217775880135719e-015
 20
-112.5
 40
63.5
  0
CIRCLE
  5
E6
100
AcDbEntity
  8
0
  6
ByLayer
 62
    4
370
   -1
100
AcDbCircle
 10
97.42785792574935
 20
56.24999999999998
 40
76.19999999999999
  0
CIRCLE
  5
E7
100
AcDbEntity
  8
0
  6
ByLayer
 62
    4
370
   -1
100
AcDbCircle
 10
-97.42785792574934
 20
56.25000000000001
 40
76.19999999999999
  0
CIRCLE
  5
E8
100
AcDbEntity
  8
0
  6
ByLayer
 62
    4
370
   -1
100
AcDbCircle
 10
-1.217775880135719e-015
 20
-112.5
 40
76.19999999999999
  0
LWPOLYLINE
  5
E9
100
AcDbEntity
  8
bounding box
  6
ByLayer
 62
    1
370
   -1
100
AcDbPolyline
 90
    4
 70
    1
 43
0
 10
-40
 20
-180
 10
40
 20
-180
 10
40
 20
80
 10
-40
 20
80
  0
ARC
  5
EA
100
AcDbEntity
  8
schema b-main body
  6
ByLayer
 62
  256
370
   -1
100
AcDbCircle
 10
12.85176803211714
 20
67
 40
2
100
AcDbArc
 50
270
 51
329.7216443717008
  0
LINE
  5
EB
100
AcDbEntity
  8
schema b-main body
  6
ByLayer
 62
  256
370
   -1
100
AcDbLine
 10
-12.85176803211714
 20
65
 11
12.85176803211714
 21
65
  0
ARC
  5
EC
100
AcDbEntity
  8
schema b-main body
  6
ByLayer
 62
  256
370
   -1
100
AcDbCircle
 10
40.00000000000001
 20
-74.59552088549471
 40
30
100
AcDbArc
 50
140.4650000000001
 51
180
  0
ARC
  5
ED
100
AcDbEntity
  8
schema b-main body
  6
ByLayer
 62
  256
370
   -1
100
AcDbCircle
 10
-12.85176803211714
 20
67
 40
2
100
AcDbArc
 50
210.2783556282992
 51
270
  0
ARC
  5
EE
100
AcDbEntity
  8
schema b-main body
  6
ByLayer
 62
  256
370
   -1
100
AcDbCircle
 10
-40.00000000000001
 20
-74.59552088549471
 40
30
100
AcDbArc
 50
360
 51
39.5349999999999
  0
ARC
  5
EF
100
AcDbEntity
  8
schema b-main body top
  6
ByLayer
 62
  256
370
   -1
100
AcDbCircle
 10
12.85176803211714
 20
67
 40
2
100
AcDbArc
 50
270
 51
329.7216443717008
  0
LINE
  5
F0
100
AcDbEntity
  8
schema b-main body top
  6
ByLayer
 62
  256
370
   -1
100
AcDbLine
 10
17.54166391358315
 20
71.06609085436627
 11
14.5789401964205
 21
65.99159714654527
  0
ARC
  5
F1
100
AcDbEntity
  8
schema b-main body top
  6
ByLayer
 62
  256
370
   -1
100
AcDbCircle
 10
19.26883607788653
 20
70.05768800091154
 40
2
100
AcDbArc
 50
49.9999999999997
 51
149.7216443717009
  0
ARC
  5
F2
100
AcDbEntity
  8
schema b-main body top
  6
ByLayer
 62
  256
370
   -1
100
AcDbCircle
 10
6.000000000000003
 20
35
 40
5
100
AcDbArc
 50
269.9999999999999
 51
0
  0
LINE
  5
F3
100
AcDbEntity
  8
schema b-main body top
  6
ByLayer
 62
  256
370
   -1
100
AcDbLine
 10
-6.000000000000003
 20
30
 11
6
 21
30
  0
LINE
  5
F4
100
AcDbEntity
  8
schema b-main body top
  6
ByLayer
 62
  256
370
   -1
100
AcDbLine
 10
11
 20
63
 11
11
 21
35
  0
LINE
  5
F5
100
AcDbEntity
  8
schema b-main body top
  6
ByLayer
 62
  256
370
   -1
100
AcDbLine
 10
13
 20
65
 11
12.85176803211714
 21
65
  0
ARC
  5
F6
100
AcDbEntity
  8
schema b-main body top
  6
ByLayer
 62
  256
370
   -1
100
AcDbCircle
 10
13
 20
63
 40
2
100
AcDbArc
 50
90
 51
180
  0
CIRCLE
  5
F7
100
AcDbEntity
  8
schema b-main body
  6
ByLayer
 62
  256
370
   -1
100
AcDbCircle
 10
17.00000000000004
 20
-48.15050471493567
 40
1.5
  0
CIRCLE
  5
F8
100
AcDbEntity
  8
schema b-main body
  6
ByLayer
 62
  256
370
   -1
100
AcDbCircle
 10
-17.00000000000004
 20
-48.15050471493568
 40
1.5
  0
CIRCLE
  5
F9
100
AcDbEntity
  8
schema b-main body
  6
ByLayer
 62
  256
370
   -1
100
AcDbCircle
 10
26.00000000000011
 20
-30.28993361544396
 40
1.5
  0
CIRCLE
  5
FA
100
AcDbEntity
  8
schema b-main body
  6
ByLayer
 62
  256
370
   -1
100
AcDbCircle
 10
-26.00000000000011
 20
-30.28993361544396
 40
1.5
  0
CIRCLE
  5
FB
100
AcDbEntity
  8
schema b-main body
  6
ByLayer
 62
  256
370
   -1
100
AcDbCircle
 10
15.25
 20
15.25
 40
1.5
  0
CIRCLE
  5
FC
100
AcDbEntity
  8
schema b-main body
  6
ByLayer
 62
  256
370
   -1
100
AcDbCircle
 10
15.25
 20
-15.25
 40
1.5
  0
CIRCLE
  5
FD
100
AcDbEntity
  8
schema b-main body
  6
ByLayer
 62
  256
370
   -1
100
AcDbCircle
 10
-15.25
 20
15.25
 40
1.5
  0
CIRCLE
  5
FE
100
AcDbEntity
  8
schema b-main body
  6
ByLayer
 62
  256
370
   -1
100
AcDbCircle
 10
-15.25
 20
-15.25
 40
1.5
  0
ARC
  5
FF
100
AcDbEntity
  8
schema c-main body
  6
ByLayer
 62
  256
370
   -1
100
AcDbCircle
 10
12.85176803211714
 20
67
 40
2
100
AcDbArc
 50
270
 51
329.7216443717008
  0
LINE
  5
100
100
AcDbEntity
  8
schema c-main body
  6
ByLayer
 62
  256
370
   -1
100
AcDbLine
 10
17.54166391358315
 20
71.06609085436627
 11
14.5789401964205
 21
65.99159714654527
  0
ARC
  5
101
100
AcDbEntity
  8
schema c-main body
  6
ByLayer
 62
  256
370
   -1
100
AcDbCircle
 10
19.26883607788653
 20
70.05768800091154
 40
2
100
AcDbArc
 50
49.9999999999997
 51
149.7216443717009
  0
ARC
  5
102
100
AcDbEntity
  8
schema c-main body
  6
ByLayer
 62
  256
370
   -1
100
AcDbCircle
 10
-12.85176803211714
 20
67
 40
2
100
AcDbArc
 50
210.2783556282992
 51
270
  0
LINE
  5
103
100
AcDbEntity
  8
schema c-main body
  6
ByLayer
 62
  256
370
   -1
100
AcDbLine
 10
-17.54166391358315
 20
71.06609085436627
 11
-14.5789401964205
 21
65.99159714654527
  0
ARC
  5
104
100
AcDbEntity
  8
schema c-main body
  6
ByLayer
 62
  256
370
   -1
100
AcDbCircle
 10
-19.26883607788653
 20
70.05768800091154
 40
2
100
AcDbArc
 50
30.27835562829907
 51
130.0000000000003
  0
ARC
  5
105
100
AcDbEntity
  8
schema c-main body
  6
ByLayer
 62
  256
370
   -1
100
AcDbCircle
 10
6.000000000000003
 20
35
 40
5
100
AcDbArc
 50
269.9999999999999
 51
0
  0
LINE
  5
106
100
AcDbEntity
  8
schema c-main body
  6
ByLayer
 62
  256
370
   -1
100
AcDbLine
 10
-6.000000000000003
 20
30
 11
6
 21
30
  0
ARC
  5
107
100
AcDbEntity
  8
schema c-main body
  6
ByLayer
 62
  256
370
   -1
100
AcDbCircle
 10
-6.000000000000003
 20
35
 40
5
100
AcDbArc
 50
180
 51
270
  0
LINE
  5
108
100
AcDbEntity
  8
schema c-main body
  6
ByLayer
 62
  256
370
   -1
100
AcDbLine
 10
-12.85176803211714
 20
65
 11
-13
 21
65
  0
LINE
  5
109
100
AcDbEntity
  8
schema c-main body
  6
ByLayer
 62
  256
370
   -1
100
AcDbLine
 10
-11
 20
63
 11
-11
 21
35
  0
ARC
  5
10A
100
AcDbEntity
  8
schema c-main body
  6
ByLayer
 62
  256
370
   -1
100
AcDbCircle
 10
-13
 20
63
 40
2
100
AcDbArc
 50
0
 51
90
  0
LINE
  5
10B
100
AcDbEntity
  8
schema c-main body
  6
ByLayer
 62
  256
370
   -1
100
AcDbLine
 10
11
 20
63
 11
11
 21
35
  0
LINE
  5
10C
100
AcDbEntity
  8
schema c-main body
  6
ByLayer
 62
  256
370
   -1
100
AcDbLine
 10
13
 20
65
 11
12.85176803211714
 21
65
  0
ARC
  5
10D
100
AcDbEntity
  8
schema c-main body
  6
ByLayer
 62
  256
370
   -1
100
AcDbCircle
 10
13
 20
63
 40
2
100
AcDbArc
 50
90
 51
180
  0
ARC
  5
10E
100
AcDbEntity
  8
schema c-main body
  6
ByLayer
 62
  256
370
   -1
100
AcDbCircle
 10
40.00025997705705
 20
7.161321150807841
 40
5
100
AcDbArc
 50
179.9996022678306
 51
219.535
  0
LINE
  5
10F
100
AcDbEntity
  8
schema c-main body
  6
ByLayer
 62
  256
370
   -1
100
AcDbLine
 10
35.00025997717987
 20
7.161356198175481
 11
26.02025504622078
 21
65.3849766226199
  0
LINE
  5
110
100
AcDbEntity
  8
schema c-main body
  6
ByLayer
 62
  256
370
   -1
100
AcDbLine
 10
20.55441129725962
 20
71.5897768871495
 11
24.29262227226857
 21
68.45304543675664
  0
ARC
  5
111
100
AcDbEntity
  8
schema c-main body
  6
ByLayer
 62
  256
370
   -1
100
AcDbCircle
 10
21.07868422383589
 20
64.62282322116174
 40
5
100
AcDbArc
 50
8.767814409494621
 51
50.00000000000016
  0
ARC
  5
112
100
AcDbEntity
  8
schema c-main body
  6
ByLayer
 62
  256
370
   -1
100
AcDbCircle
 10
-40.00025997705705
 20
7.16132115080786
 40
5
100
AcDbArc
 50
320.465
 51
0.0003977321694048556
  0
LINE
  5
113
100
AcDbEntity
  8
schema c-main body
  6
ByLayer
 62
  256
370
   -1
100
AcDbLine
 10
-35.00025997717987
 20
7.161356198175485
 11
-26.02025504622078
 21
65.3849766226199
  0
LINE
  5
114
100
AcDbEntity
  8
schema c-main body
  6
ByLayer
 62
  256
370
   -1
100
AcDbLine
 10
-20.55441129725962
 20
71.5897768871495
 11
-24.29262227226857
 21
68.45304543675664
  0
ARC
  5
115
100
AcDbEntity
  8
schema c-main body
  6
ByLayer
 62
  256
370
   -1
100
AcDbCircle
 10
-21.07868422383589
 20
64.62282322116174
 40
5
100
AcDbArc
 50
129.9999999999999
 51
171.2321855905054
  0
LINE
  5
116
100
AcDbEntity
  8
schema c-main body
  6
ByLayer
 62
  256
370
   -1
100
AcDbLine
 10
31.56553091197269
 20
-37.3627594769987
 11
46.78382911887638
 21
-25.38764362429183
  0
ARC
  5
117
100
AcDbEntity
  8
schema c-main body
  6
ByLayer
 62
  256
370
   -1
100
AcDbCircle
 10
44.31025982466635
 20
-22.24416546360083
 40
4
100
AcDbArc
 50
308.1988282355267
 51
0
  0
LINE
  5
118
100
AcDbEntity
  8
schema c-main body
  6
ByLayer
 62
  256
370
   -1
100
AcDbLine
 10
48.31025982466635
 20
-22.24416546360083
 11
48.31025982466635
 21
-12.1993527663539
  0
ARC
  5
119
100
AcDbEntity
  8
schema c-main body
  6
ByLayer
 62
  256
370
   -1
100
AcDbCircle
 10
44.31025982466635
 20
-12.1993527663539
 40
4
100
AcDbArc
 50
0
 51
39.53499999999996
  0
ARC
  5
11A
100
AcDbEntity
  8
schema c-main body
  6
ByLayer
 62
  256
370
   -1
100
AcDbCircle
 10
12.85176803211714
 20
67
 40
2
100
AcDbArc
 50
270
 51
329.7216443717008
  0
LINE
  5
11B
100
AcDbEntity
  8
schema c-main body
  6
ByLayer
 62
  256
370
   -1
100
AcDbLine
 10
-12.85176803211714
 20
65
 11
12.85176803211714
 21
65
  0
ARC
  5
11C
100
AcDbEntity
  8
schema c-main body
  6
ByLayer
 62
  256
370
   -1
100
AcDbCircle
 10
-10
 20
-140.617552670502
 40
20
100
AcDbArc
 50
337.7283211345691
 51
0
  0
LINE
  5
11D
100
AcDbEntity
  8
schema c-main body
  6
ByLayer
 62
  256
370
   -1
100
AcDbLine
 10
10.00000000000001
 20
-74.59552088549471
 11
10.00000000000001
 21
-140.617552670502
  0
ARC
  5
11E
100
AcDbEntity
  8
schema c-main body
  6
ByLayer
 62
  256
370
   -1
100
AcDbCircle
 10
40.00000000000001
 20
-74.59552088549471
 40
30
100
AcDbArc
 50
140.4650000000001
 51
180
  0
ARC
  5
11F
100
AcDbEntity
  8
schema c-main body
  6
ByLayer
 62
  256
370
   -1
100
AcDbCircle
 10
-19.2539716940889
 20
-136.827564822896
 40
30
100
AcDbArc
 50
313.4437292266297
 51
337.7283211345691
  0
ARC
  5
120
100
AcDbEntity
  8
schema c-main body
  6
ByLayer
 62
  256
370
   -1
100
AcDbCircle
 10
0
 20
-157.1569665357656
 40
2
100
AcDbArc
 50
226.55627077337
 51
313.44372922663
  0
LINE
  5
121
100
AcDbEntity
  8
schema c-main body
  6
ByLayer
 62
  256
370
   -1
100
AcDbLine
 10
32.32552910393814
 20
-36.76472504023721
 11
16.86292355889864
 21
-55.49903707934254
  0
LINE
  5
122
100
AcDbEntity
  8
schema c-main body
  6
ByLayer
 62
  256
370
   -1
100
AcDbLine
 10
-31.56553091197269
 20
-37.3627594769987
 11
-46.78382911887638
 21
-25.38764362429183
  0
ARC
  5
123
100
AcDbEntity
  8
schema c-main body
  6
ByLayer
 62
  256
370
   -1
100
AcDbCircle
 10
-44.31025982466635
 20
-22.24416546360083
 40
4
100
AcDbArc
 50
180
 51
231.8011717644733
  0
LINE
  5
124
100
AcDbEntity
  8
schema c-main body
  6
ByLayer
 62
  256
370
   -1
100
AcDbLine
 10
-48.31025982466635
 20
-22.24416546360083
 11
-48.31025982466635
 21
-12.1993527663539
  0
ARC
  5
125
100
AcDbEntity
  8
schema c-main body
  6
ByLayer
 62
  256
370
   -1
100
AcDbCircle
 10
-44.31025982466635
 20
-12.1993527663539
 40
4
100
AcDbArc
 50
140.465
 51
180
  0
ARC
  5
126
100
AcDbEntity
  8
schema c-main body
  6
ByLayer
 62
  256
370
   -1
100
AcDbCircle
 10
-12.85176803211714
 20
67
 40
2
100
AcDbArc
 50
210.2783556282992
 51
270
  0
ARC
  5
127
100
AcDbEntity
  8
schema c-main body
  6
ByLayer
 62
  256
370
   -1
100
AcDbCircle
 10
10
 20
-140.617552670502
 40
20
100
AcDbArc
 50
180
 51
202.2716788654309
  0
LINE
  5
128
100
AcDbEntity
  8
schema c-main body
  6
ByLayer
 62
  256
370
   -1
100
AcDbLine
 10
-10.00000000000001
 20
-74.59552088549471
 11
-10.00000000000001
 21
-140.617552670502
  0
ARC
  5
129
100
AcDbEntity
  8
schema c-main body
  6
ByLayer
 62
  256
370
   -1
100
AcDbCircle
 10
-40.00000000000001
 20
-74.59552088549471
 40
30
100
AcDbArc
 50
360
 51
39.5349999999999
  0
ARC
  5
12A
100
AcDbEntity
  8
schema c-main body
  6
ByLayer
 62
  256
370
   -1
100
AcDbCircle
 10
19.2539716940889
 20
-136.827564822896
 40
30
100
AcDbArc
 50
202.2716788654309
 51
226.5562707733702
  0
ARC
  5
12B
100
AcDbEntity
  8
schema c-main body
  6
ByLayer
 62
  256
370
   -1
100
AcDbCircle
 10
0
 20
-157.1569665357656
 40
2
100
AcDbArc
 50
226.55627077337
 51
313.44372922663
  0
LINE
  5
12C
100
AcDbEntity
  8
schema c-main body
  6
ByLayer
 62
  256
370
   -1
100
AcDbLine
 10
-32.32552910393814
 20
-36.76472504023721
 11
-16.86292355889864
 21
-55.49903707934254
  0
CIRCLE
  5
12D
100
AcDbEntity
  8
schema c-main body
  6
ByLayer
 62
  256
370
   -1
100
AcDbCircle
 10
17.00000000000004
 20
-48.15050471493567
 40
1.5
  0
CIRCLE
  5
12E
100
AcDbEntity
  8
schema c-main body
  6
ByLayer
 62
  256
370
   -1
100
AcDbCircle
 10
-17.00000000000004
 20
-48.15050471493568
 40
1.5
  0
CIRCLE
  5
12F
100
AcDbEntity
  8
schema c-main body
  6
ByLayer
 62
  256
370
   -1
100
AcDbCircle
 10
38.73109627811089
 20
-14.86530436357947
 40
1.5
  0
CIRCLE
  5
130
100
AcDbEntity
  8
schema c-main body
  6
ByLayer
 62
  256
370
   -1
100
AcDbCircle
 10
-38.73109627811089
 20
-14.86530436357947
 40
1.5
  0
CIRCLE
  5
131
100
AcDbEntity
  8
schema c-main body
  6
ByLayer
 62
  256
370
   -1
100
AcDbCircle
 10
26.00000000000011
 20
-30.28993361544396
 40
1.5
  0
CIRCLE
  5
132
100
AcDbEntity
  8
schema c-main body
  6
ByLayer
 62
  256
370
   -1
100
AcDbCircle
 10
-26.00000000000011
 20
-30.28993361544396
 40
1.5
  0
CIRCLE
  5
133
100
AcDbEntity
  8
schema c-main body
  6
ByLayer
 62
  256
370
   -1
100
AcDbCircle
 10
-28.3805569382902
 20
-9.339718303298197
 40
2.5
  0
CIRCLE
  5
134
100
AcDbEntity
  8
schema c-main body
  6
ByLayer
 62
  256
370
   -1
100
AcDbCircle
 10
-28.3805569382902
 20
-9.339718303298197
 40
1.5
  0
CIRCLE
  5
135
100
AcDbEntity
  8
schema c-main body
  6
ByLayer
 62
  256
370
   -1
100
AcDbCircle
 10
-38.73109627811089
 20
-14.86530436357947
 40
5
  0
CIRCLE
  5
136
100
AcDbEntity
  8
schema c-main body
  6
ByLayer
 62
  256
370
   -1
100
AcDbCircle
 10
-17.00000000000004
 20
-48.15050471493568
 40
5
  0
CIRCLE
  5
137
100
AcDbEntity
  8
schema c-main body
  6
ByLayer
 62
  256
370
   -1
100
AcDbCircle
 10
17.00000000000004
 20
-48.15050471493567
 40
5
  0
CIRCLE
  5
138
100
AcDbEntity
  8
schema c-main body
  6
ByLayer
 62
  256
370
   -1
100
AcDbCircle
 10
38.73109627811089
 20
-14.86530436357947
 40
5
  0
CIRCLE
  5
139
100
AcDbEntity
  8
schema c-main body
  6
ByLayer
 62
  256
370
   -1
100
AcDbCircle
 10
15.25
 20
15.25
 40
1.5
  0
CIRCLE
  5
13A
100
AcDbEntity
  8
schema c-main body
  6
ByLayer
 62
  256
370
   -1
100
AcDbCircle
 10
15.25
 20
-15.25
 40
1.5
  0
CIRCLE
  5
13B
100
AcDbEntity
  8
schema c-main body
  6
ByLayer
 62
  256
370
   -1
100
AcDbCircle
 10
-15.25
 20
15.25
 40
1.5
  0
CIRCLE
  5
13C
100
AcDbEntity
  8
schema c-main body
  6
ByLayer
 62
  256
370
   -1
100
AcDbCircle
 10
-15.25
 20
-15.25
 40
1.5
  0
CIRCLE
  5
13D
100
AcDbEntity
  8
schema c-main body
  6
ByLayer
 62
  256
370
   -1
100
AcDbCircle
 10
28.3805569382902
 20
-9.3397183032982
 40
2.5
  0
CIRCLE
  5
13E
100
AcDbEntity
  8
schema c-main body
  6
ByLayer
 62
  256
370
   -1
100
AcDbCircle
 10
28.3805569382902
 20
-9.3397183032982
 40
1.5
  0
CIRCLE
  5
13F
100
AcDbEntity
  8
schema c-main body
  6
ByLayer
 62
  256
370
   -1
100
AcDbCircle
 10
-16
 20
60
 40
1.5
  0
CIRCLE
  5
140
100
AcDbEntity
  8
schema c-main body
  6
ByLayer
 62
  256
370
   -1
100
AcDbCircle
 10
-16
 20
60
 40
2.5
  0
CIRCLE
  5
141
100
AcDbEntity
  8
schema c-main body
  6
ByLayer
 62
  256
370
   -1
100
AcDbCircle
 10
16
 20
60
 40
1.5
  0
CIRCLE
  5
142
100
AcDbEntity
  8
schema c-main body
  6
ByLayer
 62
  256
370
   -1
100
AcDbCircle
 10
16
 20
60
 40
2.5
  0
LINE
  5
143
100
AcDbEntity
  8
schema c-main body
  6
ByLayer
 62
  256
370
   -1
100
AcDbLine
 10
36.14408057020682
 20
3.978573849782475
 11
47.39520335014654
 21
-9.65315492553361
  0
LINE
  5
144
100
AcDbEntity
  8
schema c-main body
  6
ByLayer
 62
  256
370
   -1
100
AcDbLine
 10
-47.39520335014653
 20
-9.65315492553361
 11
-36.14408057020682
 21
3.978573849782493
  0
ARC
  5
145
100
AcDbEntity
  8
arm-deployed
  6
ByLayer
 62
  256
370
   -1
100
AcDbCircle
 10
89.46422143388708
 20
55.48809854608405
 40
1.5
100
AcDbArc
 50
275.4649999999999
 51
5.464999999999788
  0
LINE
  5
146
100
AcDbEntity
  8
arm-deployed
  6
ByLayer
 62
  256
370
   -1
100
AcDbLine
 10
90.95740327611124
 20
55.63095506869328
 11
90.95740327611124
 21
55.63095506869327
  0
ARC
  5
147
100
AcDbEntity
  8
arm-deployed
  6
ByLayer
 62
  256
370
   -1
100
AcDbCircle
 10
89.46422143388705
 20
55.48809854608403
 40
1.5
100
AcDbArc
 50
5.464999999999889
 51
95.46499999999989
  0
LINE
  5
148
100
AcDbEntity
  8
arm-deployed
  6
ByLayer
 62
  256
370
   -1
100
AcDbLine
 10
89.3213649112778
 20
56.98128038830821
 11
87.57931942868291
 21
56.81461444526408
  0
ARC
  5
149
100
AcDbEntity
  8
arm-deployed
  6
ByLayer
 62
  256
370
   -1
100
AcDbCircle
 10
87.72217595129216
 20
55.32143260303991
 40
1.5
100
AcDbArc
 50
95.46499999999999
 51
185.4649999999996
  0
LINE
  5
14A
100
AcDbEntity
  8
arm-deployed
  6
ByLayer
 62
  256
370
   -1
100
AcDbLine
 10
89.60707795649633
 20
53.99491670385984
 11
87.86503247390146
 21
53.82825076081573
  0
LINE
  5
14B
100
AcDbEntity
  8
arm-deployed
  6
ByLayer
 62
  256
370
   -1
100
AcDbLine
 10
86.22899410906798
 20
55.17857608043067
 11
86.228994109068
 21
55.17857608043066
  0
ARC
  5
14C
100
AcDbEntity
  8
arm-deployed
  6
ByLayer
 62
  256
370
   -1
100
AcDbCircle
 10
87.72217595129223
 20
55.32143260303992
 40
1.5
100
AcDbArc
 50
185.465
 51
275.465
  0
ARC
  5
14D
100
AcDbEntity
  8
arm-deployed
  6
ByLayer
 62
  256
370
   -1
100
AcDbCircle
 10
98.18965447182102
 20
48.2874600784628
 40
1.5
100
AcDbArc
 50
5.464999999999889
 51
95.46499999999979
  0
LINE
  5
14E
100
AcDbEntity
  8
arm-deployed
  6
ByLayer
 62
  256
370
   -1
100
AcDbLine
 10
98.04679794921176
 20
49.78064192068695
 11
98.04679794921176
 21
49.78064192068695
  0
ARC
  5
14F
100
AcDbEntity
  8
arm-deployed
  6
ByLayer
 62
  256
370
   -1
100
AcDbCircle
 10
98.18965447182102
 20
48.28746007846277
 40
1.5
100
AcDbArc
 50
95.46499999999989
 51
185.4649999999999
  0
LINE
  5
150
100
AcDbEntity
  8
arm-deployed
  6
ByLayer
 62
  256
370
   -1
100
AcDbLine
 10
96.69647262959683
 20
48.14460355585351
 11
96.86313857264095
 21
46.40255807325862
  0
ARC
  5
151
100
AcDbEntity
  8
arm-deployed
  6
ByLayer
 62
  256
370
   -1
100
AcDbCircle
 10
98.35632041486515
 20
46.54541459586788
 40
1.5
100
AcDbArc
 50
185.465
 51
275.4649999999996
  0
LINE
  5
152
100
AcDbEntity
  8
arm-deployed
  6
ByLayer
 62
  256
370
   -1
100
AcDbLine
 10
99.6828363140452
 20
48.43031660107205
 11
99.84950225708933
 21
46.6882711184772
  0
LINE
  5
153
100
AcDbEntity
  8
arm-deployed
  6
ByLayer
 62
  256
370
   -1
100
AcDbLine
 10
98.49917693747439
 20
45.05223275364372
 11
98.49917693747439
 21
45.05223275364372
  0
ARC
  5
154
100
AcDbEntity
  8
arm-deployed
  6
ByLayer
 62
  256
370
   -1
100
AcDbCircle
 10
98.35632041486514
 20
46.54541459586795
 40
1.5
100
AcDbArc
 50
275.465
 51
5.464999999999991
  0
ARC
  5
155
100
AcDbEntity
  8
arm-deployed
  6
ByLayer
 62
  256
370
   -1
100
AcDbCircle
 10
105.3902929394422
 20
57.01289311639674
 40
1.5
100
AcDbArc
 50
95.46499999999989
 51
185.4649999999998
  0
LINE
  5
156
100
AcDbEntity
  8
arm-deployed
  6
ByLayer
 62
  256
370
   -1
100
AcDbLine
 10
103.8971110972181
 20
56.87003659378749
 11
103.8971110972181
 21
56.8700365937875
  0
ARC
  5
157
100
AcDbEntity
  8
arm-deployed
  6
ByLayer
 62
  256
370
   -1
100
AcDbCircle
 10
105.3902929394423
 20
57.01289311639675
 40
1.5
100
AcDbArc
 50
185.4649999999999
 51
275.465
  0
LINE
  5
158
100
AcDbEntity
  8
arm-deployed
  6
ByLayer
 62
  256
370
   -1
100
AcDbLine
 10
105.5331494620515
 20
55.51971127417255
 11
107.2751949446464
 21
55.68637721721668
  0
ARC
  5
159
100
AcDbEntity
  8
arm-deployed
  6
ByLayer
 62
  256
370
   -1
100
AcDbCircle
 10
107.1323384220372
 20
57.17955905944088
 40
1.5
100
AcDbArc
 50
275.465
 51
5.464999999999635
  0
LINE
  5
15A
100
AcDbEntity
  8
arm-deployed
  6
ByLayer
 62
  256
370
   -1
100
AcDbLine
 10
105.247436416833
 20
58.50607495862092
 11
106.9894818994279
 21
58.67274090166504
  0
LINE
  5
15B
100
AcDbEntity
  8
arm-deployed
  6
ByLayer
 62
  256
370
   -1
100
AcDbLine
 10
108.6255202642613
 20
57.32241558205011
 11
108.6255202642613
 21
57.32241558205011
  0
ARC
  5
15C
100
AcDbEntity
  8
arm-deployed
  6
ByLayer
 62
  256
370
   -1
100
AcDbCircle
 10
107.1323384220371
 20
57.17955905944085
 40
1.5
100
AcDbArc
 50
5.464999999999991
 51
95.46499999999999
  0
ARC
  5
15D
100
AcDbEntity
  8
arm-deployed
  6
ByLayer
 62
  256
370
   -1
100
AcDbCircle
 10
96.66485990150832
 20
64.21353158401797
 40
1.5
100
AcDbArc
 50
185.4649999999999
 51
275.4649999999998
  0
LINE
  5
15E
100
AcDbEntity
  8
arm-deployed
  6
ByLayer
 62
  256
370
   -1
100
AcDbLine
 10
96.80771642411756
 20
62.72034974179382
 11
96.80771642411756
 21
62.72034974179382
  0
ARC
  5
15F
100
AcDbEntity
  8
arm-deployed
  6
ByLayer
 62
  256
370
   -1
100
AcDbCircle
 10
96.66485990150831
 20
64.21353158401801
 40
1.5
100
AcDbArc
 50
275.465
 51
5.464999999999889
  0
LINE
  5
160
100
AcDbEntity
  8
arm-deployed
  6
ByLayer
 62
  256
370
   -1
100
AcDbLine
 10
98.1580417437325
 20
64.35638810662725
 11
97.99137580068837
 21
66.09843358922214
  0
ARC
  5
161
100
AcDbEntity
  8
arm-deployed
  6
ByLayer
 62
  256
370
   -1
100
AcDbCircle
 10
96.49819395846419
 20
65.9555770666129
 40
1.5
100
AcDbArc
 50
5.465000000000092
 51
95.46499999999969
  0
LINE
  5
162
100
AcDbEntity
  8
arm-deployed
  6
ByLayer
 62
  256
370
   -1
100
AcDbLine
 10
95.17167805928412
 20
64.07067506140871
 11
95.00501211624
 21
65.81272054400357
  0
LINE
  5
163
100
AcDbEntity
  8
arm-deployed
  6
ByLayer
 62
  256
370
   -1
100
AcDbLine
 10
96.35533743585493
 20
67.44875890883705
 11
96.35533743585493
 21
67.44875890883705
  0
ARC
  5
164
100
AcDbEntity
  8
arm-deployed
  6
ByLayer
 62
  256
370
   -1
100
AcDbCircle
 10
96.4981939584642
 20
65.95557706661282
 40
1.5
100
AcDbArc
 50
95.46499999999999
 51
185.465
  0
CIRCLE
  5
165
100
AcDbEntity
  8
motor-deployed
  6
ByLayer
 62
  256
370
   -1
100
AcDbCircle
 10
97.42785792574935
 20
56.24999999999999
 40
13.75
  0
CIRCLE
  5
166
100
AcDbEntity
  8
motor-deployed
  6
ByLayer
 62
  256
370
   -1
100
AcDbCircle
 10
-97.42785792574935
 20
56.24999999999999
 40
13.75
  0
CIRCLE
  5
167
100
AcDbEntity
  8
motor-folded
  6
ByLayer
 62
  256
370
   -1
100
AcDbCircle
 10
25.99922106735426
 20
-142.4999999972964
 40
13.75
  0
CIRCLE
  5
168
100
AcDbEntity
  8
motor-folded
  6
ByLayer
 62
  256
370
   -1
100
AcDbCircle
 10
-25.99922106735426
 20
-142.4999999972964
 40
13.75
  0
CIRCLE
  5
169
100
AcDbEntity
  8
motor-tail
  6
ByLayer
 62
  256
370
   -1
100
AcDbCircle
 10
-2.066523222075262e-014
 20
-112.5
 40
13.75
  0
ARC
  5
16A
100
AcDbEntity
  8
schema d-main body
  6
ByLayer
 62
  256
370
   -1
100
AcDbCircle
 10
12.85176803211714
 20
67
 40
2
100
AcDbArc
 50
270
 51
329.7216443717008
  0
LINE
  5
16B
100
AcDbEntity
  8
schema d-main body
  6
ByLayer
 62
  256
370
   -1
100
AcDbLine
 10
17.54166391358315
 20
71.06609085436627
 11
14.5789401964205
 21
65.99159714654527
  0
ARC
  5
16C
100
AcDbEntity
  8
schema d-main body
  6
ByLayer
 62
  256
370
   -1
100
AcDbCircle
 10
19.26883607788653
 20
70.05768800091154
 40
2
100
AcDbArc
 50
49.9999999999997
 51
149.7216443717009
  0
ARC
  5
16D
100
AcDbEntity
  8
schema d-main body
  6
ByLayer
 62
  256
370
   -1
100
AcDbCircle
 10
-12.85176803211714
 20
67
 40
2
100
AcDbArc
 50
210.2783556282992
 51
270
  0
LINE
  5
16E
100
AcDbEntity
  8
schema d-main body
  6
ByLayer
 62
  256
370
   -1
100
AcDbLine
 10
-17.54166391358315
 20
71.06609085436627
 11
-14.5789401964205
 21
65.99159714654527
  0
ARC
  5
16F
100
AcDbEntity
  8
schema d-main body
  6
ByLayer
 62
  256
370
   -1
100
AcDbCircle
 10
-19.26883607788653
 20
70.05768800091154
 40
2
100
AcDbArc
 50
30.27835562829907
 51
130.0000000000003
  0
ARC
  5
170
100
AcDbEntity
  8
schema d-main body
  6
ByLayer
 62
  256
370
   -1
100
AcDbCircle
 10
6.000000000000003
 20
35
 40
5
100
AcDbArc
 50
269.9999999999999
 51
0
  0
LINE
  5
171
100
AcDbEntity
  8
schema d-main body
  6
ByLayer
 62
  256
370
   -1
100
AcDbLine
 10
-6.000000000000003
 20
30
 11
6
 21
30
  0
ARC
  5
172
100
AcDbEntity
  8
schema d-main body
  6
ByLayer
 62
  256
370
   -1
100
AcDbCircle
 10
-6.000000000000003
 20
35
 40
5
100
AcDbArc
 50
180
 51
270
  0
LINE
  5
173
100
AcDbEntity
  8
schema d-main body
  6
ByLayer
 62
  256
370
   -1
100
AcDbLine
 10
-12.85176803211714
 20
65
 11
-13
 21
65
  0
LINE
  5
174
100
AcDbEntity
  8
schema d-main body
  6
ByLayer
 62
  256
370
   -1
100
AcDbLine
 10
-11
 20
63
 11
-11
 21
35
  0
ARC
  5
175
100
AcDbEntity
  8
schema d-main body
  6
ByLayer
 62
  256
370
   -1
100
AcDbCircle
 10
-13
 20
63
 40
2
100
AcDbArc
 50
0
 51
90
  0
LINE
  5
176
100
AcDbEntity
  8
schema d-main body
  6
ByLayer
 62
  256
370
   -1
100
AcDbLine
 10
11
 20
63
 11
11
 21
35
  0
LINE
  5
177
100
AcDbEntity
  8
schema d-main body
  6
ByLayer
 62
  256
370
   -1
100
AcDbLine
 10
13
 20
65
 11
12.85176803211714
 21
65
  0
ARC
  5
178
100
AcDbEntity
  8
schema d-main body
  6
ByLayer
 62
  256
370
   -1
100
AcDbCircle
 10
13
 20
63
 40
2
100
AcDbArc
 50
90
 51
180
  0
ARC
  5
179
100
AcDbEntity
  8
schema d-main body
  6
ByLayer
 62
  256
370
   -1
100
AcDbCircle
 10
40.00025997705705
 20
7.161321150807841
 40
5
100
AcDbArc
 50
179.9996022678306
 51
219.535
  0
LINE
  5
17A
100
AcDbEntity
  8
schema d-main body
  6
ByLayer
 62
  256
370
   -1
100
AcDbLine
 10
35.00025997717987
 20
7.161356198175481
 11
26.02025504622078
 21
65.3849766226199
  0
LINE
  5
17B
100
AcDbEntity
  8
schema d-main body
  6
ByLayer
 62
  256
370
   -1
100
AcDbLine
 10
20.55441129725962
 20
71.5897768871495
 11
24.29262227226857
 21
68.45304543675664
  0
ARC
  5
17C
100
AcDbEntity
  8
schema d-main body
  6
ByLayer
 62
  256
370
   -1
100
AcDbCircle
 10
21.07868422383589
 20
64.62282322116174
 40
5
100
AcDbArc
 50
8.767814409494621
 51
50.00000000000016
  0
ARC
  5
17D
100
AcDbEntity
  8
schema d-main body
  6
ByLayer
 62
  256
370
   -1
100
AcDbCircle
 10
-40.00025997705705
 20
7.16132115080786
 40
5
100
AcDbArc
 50
320.465
 51
0.0003977321694048556
  0
LINE
  5
17E
100
AcDbEntity
  8
schema d-main body
  6
ByLayer
 62
  256
370
   -1
100
AcDbLine
 10
-35.00025997717987
 20
7.161356198175485
 11
-26.02025504622078
 21
65.3849766226199
  0
LINE
  5
17F
100
AcDbEntity
  8
schema d-main body
  6
ByLayer
 62
  256
370
   -1
100
AcDbLine
 10
-20.55441129725962
 20
71.5897768871495
 11
-24.29262227226857
 21
68.45304543675664
  0
ARC
  5
180
100
AcDbEntity
  8
schema d-main body
  6
ByLayer
 62
  256
370
   -1
100
AcDbCircle
 10
-21.07868422383589
 20
64.62282322116174
 40
5
100
AcDbArc
 50
129.9999999999999
 51
171.2321855905054
  0
ARC
  5
181
100
AcDbEntity
  8
schema d-main body
  6
ByLayer
 62
  256
370
   -1
100
AcDbCircle
 10
12.85176803211714
 20
67
 40
2
100
AcDbArc
 50
270
 51
329.7216443717008
  0
LINE
  5
182
100
AcDbEntity
  8
schema d-main body
  6
ByLayer
 62
  256
370
   -1
100
AcDbLine
 10
-12.85176803211714
 20
65
 11
12.85176803211714
 21
65
  0
ARC
  5
183
100
AcDbEntity
  8
schema d-main body
  6
ByLayer
 62
  256
370
   -1
100
AcDbCircle
 10
-10
 20
-140.617552670502
 40
20
100
AcDbArc
 50
337.7283211345691
 51
0
  0
LINE
  5
184
100
AcDbEntity
  8
schema d-main body
  6
ByLayer
 62
  256
370
   -1
100
AcDbLine
 10
10.00000000000001
 20
-74.59552088549471
 11
10.00000000000001
 21
-140.617552670502
  0
ARC
  5
185
100
AcDbEntity
  8
schema d-main body
  6
ByLayer
 62
  256
370
   -1
100
AcDbCircle
 10
40.00000000000001
 20
-74.59552088549471
 40
30
100
AcDbArc
 50
140.4650000000001
 51
180
  0
ARC
  5
186
100
AcDbEntity
  8
schema d-main body
  6
ByLayer
 62
  256
370
   -1
100
AcDbCircle
 10
-19.2539716940889
 20
-136.827564822896
 40
30
100
AcDbArc
 50
313.4437292266297
 51
337.7283211345691
  0
ARC
  5
187
100
AcDbEntity
  8
schema d-main body
  6
ByLayer
 62
  256
370
   -1
100
AcDbCircle
 10
0
 20
-157.1569665357656
 40
2
100
AcDbArc
 50
226.55627077337
 51
313.44372922663
  0
LINE
  5
188
100
AcDbEntity
  8
schema d-main body
  6
ByLayer
 62
  256
370
   -1
100
AcDbLine
 10
32.32552910393814
 20
-36.76472504023721
 11
16.86292355889864
 21
-55.49903707934254
  0
ARC
  5
189
100
AcDbEntity
  8
schema d-main body
  6
ByLayer
 62
  256
370
   -1
100
AcDbCircle
 10
-12.85176803211714
 20
67
 40
2
100
AcDbArc
 50
210.2783556282992
 51
270
  0
ARC
  5
18A
100
AcDbEntity
  8
schema d-main body
  6
ByLayer
 62
  256
370
   -1
100
AcDbCircle
 10
10
 20
-140.617552670502
 40
20
100
AcDbArc
 50
180
 51
202.2716788654309
  0
LINE
  5
18B
100
AcDbEntity
  8
schema d-main body
  6
ByLayer
 62
  256
370
   -1
100
AcDbLine
 10
-10.00000000000001
 20
-74.59552088549471
 11
-10.00000000000001
 21
-140.617552670502
  0
ARC
  5
18C
100
AcDbEntity
  8
schema d-main body
  6
ByLayer
 62
  256
370
   -1
100
AcDbCircle
 10
-40.00000000000001
 20
-74.59552088549471
 40
30
100
AcDbArc
 50
360
 51
39.5349999999999
  0
ARC
  5
18D
100
AcDbEntity
  8
schema d-main body
  6
ByLayer
 62
  256
370
   -1
100
AcDbCircle
 10
19.2539716940889
 20
-136.827564822896
 40
30
100
AcDbArc
 50
202.2716788654309
 51
226.5562707733702
  0
ARC
  5
18E
100
AcDbEntity
  8
schema d-main body
  6
ByLayer
 62
  256
370
   -1
100
AcDbCircle
 10
0
 20
-157.1569665357656
 40
2
100
AcDbArc
 50
226.55627077337
 51
313.44372922663
  0
CIRCLE
  5
18F
100
AcDbEntity
  8
schema d-main body
  6
ByLayer
 62
  256
370
   -1
100
AcDbCircle
 10
17.00000000000004
 20
-48.15050471493567
 40
1.5
  0
CIRCLE
  5
190
100
AcDbEntity
  8
schema d-main body
  6
ByLayer
 62
  256
370
   -1
100
AcDbCircle
 10
-17.00000000000004
 20
-48.15050471493568
 40
1.5
  0
CIRCLE
  5
191
100
AcDbEntity
  8
schema d-main body
  6
ByLayer
 62
  256
370
   -1
100
AcDbCircle
 10
-38.73109627811089
 20
-14.86530436357947
 40
1.5
  0
CIRCLE
  5
192
100
AcDbEntity
  8
schema d-main body
  6
ByLayer
 62
  256
370
   -1
100
AcDbCircle
 10
26.00000000000011
 20
-30.28993361544396
 40
1.5
  0
CIRCLE
  5
193
100
AcDbEntity
  8
schema d-main body
  6
ByLayer
 62
  256
370
   -1
100
AcDbCircle
 10
-26.00000000000011
 20
-30.28993361544396
 40
1.5
  0
CIRCLE
  5
194
100
AcDbEntity
  8
schema d-main body
  6
ByLayer
 62
  256
370
   -1
100
AcDbCircle
 10
-28.3805569382902
 20
-9.339718303298197
 40
2.5
  0
CIRCLE
  5
195
100
AcDbEntity
  8
schema d-main body
  6
ByLayer
 62
  256
370
   -1
100
AcDbCircle
 10
-28.3805569382902
 20
-9.339718303298197
 40
1.5
  0
CIRCLE
  5
196
100
AcDbEntity
  8
schema d-main body
  6
ByLayer
 62
  256
370
   -1
100
AcDbCircle
 10
-38.73109627811089
 20
-14.86530436357947
 40
5
  0
CIRCLE
  5
197
100
AcDbEntity
  8
schema d-main body
  6
ByLayer
 62
  256
370
   -1
100
AcDbCircle
 10
-17.00000000000004
 20
-48.15050471493568
 40
5
  0
CIRCLE
  5
198
100
AcDbEntity
  8
schema d-main body
  6
ByLayer
 62
  256
370
   -1
100
AcDbCircle
 10
17.00000000000004
 20
-48.15050471493567
 40
5
  0
CIRCLE
  5
199
100
AcDbEntity
  8
schema d-main body
  6
ByLayer
 62
  256
370
   -1
100
AcDbCircle
 10
15.25
 20
15.25
 40
1.5
  0
CIRCLE
  5
19A
100
AcDbEntity
  8
schema d-main body
  6
ByLayer
 62
  256
370
   -1
100
AcDbCircle
 10
15.25
 20
-15.25
 40
1.5
  0
CIRCLE
  5
19B
100
AcDbEntity
  8
schema d-main body
  6
ByLayer
 62
  256
370
   -1
100
AcDbCircle
 10
-15.25
 20
15.25
 40
1.5
  0
CIRCLE
  5
19C
100
AcDbEntity
  8
schema d-main body
  6
ByLayer
 62
  256
370
   -1
100
AcDbCircle
 10
-15.25
 20
-15.25
 40
1.5
  0
CIRCLE
  5
19D
100
AcDbEntity
  8
schema d-main body
  6
ByLayer
 62
  256
370
   -1
100
AcDbCircle
 10
28.3805569382902
 20
-9.3397183032982
 40
2.5
  0
CIRCLE
  5
19E
100
AcDbEntity
  8
schema d-main body
  6
ByLayer
 62
  256
370
   -1
100
AcDbCircle
 10
28.3805569382902
 20
-9.3397183032982
 40
1.5
  0
CIRCLE
  5
19F
100
AcDbEntity
  8
schema d-main body
  6
ByLayer
 62
  256
370
   -1
100
AcDbCircle
 10
-16
 20
60
 40
1.5
  0
CIRCLE
  5
1A0
100
AcDbEntity
  8
schema d-main body
  6
ByLayer
 62
  256
370
   -1
100
AcDbCircle
 10
-16
 20
60
 40
2.5
  0
CIRCLE
  5
1A1
100
AcDbEntity
  8
schema d-main body
  6
ByLayer
 62
  256
370
   -1
100
AcDbCircle
 10
16
 20
60
 40
1.5
  0
CIRCLE
  5
1A2
100
AcDbEntity
  8
schema d-main body
  6
ByLayer
 62
  256
370
   -1
100
AcDbCircle
 10
16
 20
60
 40
2.5
  0
CIRCLE
  5
1A3
100
AcDbEntity
  8
schema d-main body
  6
ByLayer
 62
  256
370
   -1
100
AcDbCircle
 10
32.36554813905549
 20
-22.57761898951173
 40
1.5
  0
CIRCLE
  5
1A4
100
AcDbEntity
  8
schema d-main body
  6
ByLayer
 62
  256
370
   -1
100
AcDbCircle
 10
35.5483222085832
 20
-18.72146167654559
 40
1.5
  0
LINE
  5
1A5
100
AcDbEntity
  8
schema d-main body
  6
ByLayer
 62
  256
370
   -1
100
AcDbLine
 10
36.14408057020682
 20
3.978573849782475
 11
38.85617940685023
 21
0.6926266180190619
  0
ARC
  5
1A6
100
AcDbEntity
  8
schema d-main body
  6
ByLayer
 62
  256
370
   -1
100
AcDbCircle
 10
35
 20
-2.490120683006302
 40
5
100
AcDbArc
 50
0
 51
39.53499999999995
  0
LINE
  5
1A7
100
AcDbEntity
  8
schema d-main body
  6
ByLayer
 62
  256
370
   -1
100
AcDbLine
 10
40
 20
-2.490120683006302
 11
40
 21
-28.29783335968346
  0
ARC
  5
1A8
100
AcDbEntity
  8
schema d-main body
  6
ByLayer
 62
  256
370
   -1
100
AcDbCircle
 10
35
 20
-28.29783335968346
 40
5
100
AcDbArc
 50
308.1988282355267
 51
0
  0
LINE
  5
1A9
100
AcDbEntity
  8
schema d-main body
  6
ByLayer
 62
  256
370
   -1
100
AcDbLine
 10
32.32552910393814
 20
-36.76472504023721
 11
38.09196161776254
 21
-32.22718106054721
  0
LINE
  5
1AA
100
AcDbEntity
  8
schema d-main body
  6
ByLayer
 62
  256
370
   -1
100
AcDbLine
 10
-32.32552910393814
 20
-36.76472504023721
 11
-16.86292355889864
 21
-55.49903707934254
  0
LINE
  5
1AB
100
AcDbEntity
  8
schema d-main body
  6
ByLayer
 62
  256
370
   -1
100
AcDbLine
 10
-36.14408057020682
 20
3.978573849782475
 11
-38.85617940685023
 21
0.6926266180190619
  0
ARC
  5
1AC
100
AcDbEntity
  8
schema d-main body
  6
ByLayer
 62
  256
370
   -1
100
AcDbCircle
 10
-35
 20
-2.490120683006302
 40
5
100
AcDbArc
 50
140.465
 51
180
  0
LINE
  5
1AD
100
AcDbEntity
  8
schema d-main body
  6
ByLayer
 62
  256
370
   -1
100
AcDbLine
 10
-40
 20
-2.490120683006302
 11
-40
 21
-28.29783335968346
  0
ARC
  5
1AE
100
AcDbEntity
  8
schema d-main body
  6
ByLayer
 62
  256
370
   -1
100
AcDbCircle
 10
-35
 20
-28.29783335968346
 40
5
100
AcDbArc
 50
180
 51
231.8011717644733
  0
LINE
  5
1AF
100
AcDbEntity
  8
schema d-main body
  6
ByLayer
 62
  256
370
   -1
100
AcDbLine
 10
-32.32552910393814
 20
-36.76472504023721
 11
-38.09196161776254
 21
-32.22718106054721
  0
CIRCLE
  5
1B0
100
AcDbEntity
  8
arm-deployed
  6
ByLayer
 62
  256
370
   -1
100
AcDbCircle
 10
97.42785792574935
 20
56.25000000000003
 40
4.5
  0
CIRCLE
  5
1B1
100
AcDbEntity
  8
schema b-main body
  6
ByLayer
 62
  256
370
   -1
100
AcDbCircle
 10
34.59348998772485
 20
-19.87830887043548
 40
1.5
  0
CIRCLE
  5
1B2
100
AcDbEntity
  8
schema b-main body
  6
ByLayer
 62
  256
370
   -1
100
AcDbCircle
 10
-34.59348998772485
 20
-19.87830887043548
 40
1.5
  0
LINE
  5
1B3
100
AcDbEntity
  8
schema b-main body
  6
ByLayer
 62
  256
370
   -1
100
AcDbLine
 10
32.32552910393813
 20
-36.76472504023722
 11
16.86292355889864
 21
-55.49903707934254
  0
LINE
  5
1B4
100
AcDbEntity
  8
schema b-main body
  6
ByLayer
 62
  256
370
   -1
100
AcDbLine
 10
-32.32552910393813
 20
-36.76472504023722
 11
-16.86292355889864
 21
-55.49903707934254
  0
ARC
  5
1B5
100
AcDbEntity
  8
schema b-main body
  6
ByLayer
 62
  256
370
   -1
100
AcDbCircle
 10
35
 20
-2.490120683006291
 40
5
100
AcDbArc
 50
360
 51
39.53499999999996
  0
LINE
  5
1B6
100
AcDbEntity
  8
schema b-main body
  6
ByLayer
 62
  256
370
   -1
100
AcDbLine
 10
32.32552910393813
 20
-36.76472504023722
 11
38.09196161776254
 21
-32.22718106054721
  0
LINE
  5
1B7
100
AcDbEntity
  8
schema b-main body
  6
ByLayer
 62
  256
370
   -1
100
AcDbLine
 10
40
 20
-2.490120683006293
 11
40
 21
-28.29783335968346
  0
ARC
  5
1B8
100
AcDbEntity
  8
schema b-main body
  6
ByLayer
 62
  256
370
   -1
100
AcDbCircle
 10
35
 20
-28.29783335968346
 40
5
100
AcDbArc
 50
308.1988282355267
 51
0
  0
ARC
  5
1B9
100
AcDbEntity
  8
schema b-main body
  6
ByLayer
 62
  256
370
   -1
100
AcDbCircle
 10
-35
 20
-2.490120683006291
 40
5
100
AcDbArc
 50
140.465
 51
180
  0
LINE
  5
1BA
100
AcDbEntity
  8
schema b-main body
  6
ByLayer
 62
  256
370
   -1
100
AcDbLine
 10
-32.32552910393813
 20
-36.76472504023722
 11
-38.09196161776254
 21
-32.22718106054721
  0
LINE
  5
1BB
100
AcDbEntity
  8
schema b-main body
  6
ByLayer
 62
  256
370
   -1
100
AcDbLine
 10
-40
 20
-2.490120683006293
 11
-40
 21
-28.29783335968346
  0
ARC
  5
1BC
100
AcDbEntity
  8
schema b-main body
  6
ByLayer
 62
  256
370
   -1
100
AcDbCircle
 10
-35
 20
-28.29783335968346
 40
5
100
AcDbArc
 50
180
 51
231.8011717644733
  0
CIRCLE
  5
1BD
100
AcDbEntity
  8
arm-deployed
  6
ByLayer
 62
  256
370
   -1
100
AcDbCircle
 10
34.59348998772485
 20
-19.87830887043548
 40
1.5
  0
ARC
  5
1BE
100
AcDbEntity
  8
schema b-main body top
  6
ByLayer
 62
  256
370
   -1
100
AcDbCircle
 10
20.00000000000001
 20
-1.264763093074355
 40
20
100
AcDbArc
 50
360
 51
7.236922025968003
  0
LINE
  5
1BF
100
AcDbEntity
  8
schema b-main body top
  6
ByLayer
 62
  256
370
   -1
100
AcDbLine
 10
39.84067458440602
 20
1.254687647802598
 11
32.39075460249988
 21
59.92280750531344
  0
LINE
  5
1C0
100
AcDbEntity
  8
schema b-main body top
  6
ByLayer
 62
  256
370
   -1
100
AcDbLine
 10
20.55441129725962
 20
71.5897768871495
 11
30.64452400483108
 21
63.12316703568909
  0
ARC
  5
1C1
100
AcDbEntity
  8
schema b-main body top
  6
ByLayer
 62
  256
370
   -1
100
AcDbCircle
 10
27.43058595639838
 20
59.2929448200942
 40
5
100
AcDbArc
 50
7.236922025968073
 51
49.99999999999998
  0
LINE
  5
1C2
100
AcDbEntity
  8
schema b-main body
  6
ByLayer
 62
  256
370
   -1
100
AcDbLine
 10
38.85617940685022
 20
0.6926266180190694
 11
31.4243228087177
 21
9.696977154786442
  0
ARC
  5
1C3
100
AcDbEntity
  8
schema b-main body
  6
ByLayer
 62
  256
370
   -1
100
AcDbCircle
 10
39.13668162241815
 20
16.06247175683716
 40
10
100
AcDbArc
 50
187.236922025968
 51
219.5349999999999
  0
LINE
  5
1C4
100
AcDbEntity
  8
schema b-main body
  6
ByLayer
 62
  256
370
   -1
100
AcDbLine
 10
-38.85617940685022
 20
0.6926266180190694
 11
-31.4243228087177
 21
9.696977154786435
  0
ARC
  5
1C5
100
AcDbEntity
  8
schema b-main body
  6
ByLayer
 62
  256
370
   -1
100
AcDbCircle
 10
-39.13668162241815
 20
16.06247175683716
 40
10
100
AcDbArc
 50
320.465
 51
352.763077974032
  0
LINE
  5
1C6
100
AcDbEntity
  8
schema b-main body
  6
ByLayer
 62
  256
370
   -1
100
AcDbLine
 10
15.49547441240347
 20
67.56141855279584
 11
14.5789401964205
 21
65.99159714654527
  0
ARC
  5
1C7
100
AcDbEntity
  8
schema b-main body
  6
ByLayer
 62
  256
370
   -1
100
AcDbCircle
 10
17.22264657670684
 20
66.55301569934112
 40
2
100
AcDbArc
 50
50.00000000000001
 51
149.721644371701
  0
LINE
  5
1C8
100
AcDbEntity
  8
schema b-main body
  6
ByLayer
 62
  256
370
   -1
100
AcDbLine
 10
18.50822179607992
 20
68.08510458557907
 11
22.32061577276102
 21
64.8861262058435
  0
LINE
  5
1C9
100
AcDbEntity
  8
schema b-main body
  6
ByLayer
 62
  256
370
   -1
100
AcDbLine
 10
29.21634433021515
 20
14.80274638639869
 11
23.01910801182854
 21
63.60598239369322
  0
ARC
  5
1CA
100
AcDbEntity
  8
schema b-main body
  6
ByLayer
 62
  256
370
   -1
100
AcDbCircle
 10
21.03504055338794
 20
63.35403731960553
 40
2
100
AcDbArc
 50
7.236922025967931
 51
50.00000000000015
  0
LINE
  5
1CB
100
AcDbEntity
  8
schema b-main body
  6
ByLayer
 62
  256
370
   -1
100
AcDbLine
 10
-15.49547441240347
 20
67.56141855279584
 11
-14.5789401964205
 21
65.99159714654527
  0
ARC
  5
1CC
100
AcDbEntity
  8
schema b-main body
  6
ByLayer
 62
  256
370
   -1
100
AcDbCircle
 10
-17.22264657670684
 20
66.55301569934112
 40
2
100
AcDbArc
 50
30.27835562829907
 51
129.9999999999999
  0
LINE
  5
1CD
100
AcDbEntity
  8
schema b-main body
  6
ByLayer
 62
  256
370
   -1
100
AcDbLine
 10
-18.50822179607992
 20
68.08510458557907
 11
-22.32061577276102
 21
64.8861262058435
  0
LINE
  5
1CE
100
AcDbEntity
  8
schema b-main body
  6
ByLayer
 62
  256
370
   -1
100
AcDbLine
 10
-29.21634433021515
 20
14.80274638639867
 11
-23.01910801182854
 21
63.60598239369322
  0
ARC
  5
1CF
100
AcDbEntity
  8
schema b-main body
  6
ByLayer
 62
  256
370
   -1
100
AcDbCircle
 10
-21.03504055338794
 20
63.35403731960553
 40
2
100
AcDbArc
 50
129.9999999999999
 51
172.7630779740321
  0
ARC
  5
1D0
100
AcDbEntity
  8
arm-deployed
  6
ByLayer
 62
  256
370
   -1
100
AcDbCircle
 10
96.68950926118156
 20
76.00000000000001
 40
4
100
AcDbArc
 50
90
 51
162.9646022678311
  0
LINE
  5
1D1
100
AcDbEntity
  8
arm-deployed
  6
ByLayer
 62
  256
370
   -1
100
AcDbLine
 10
48.06190817658688
 20
-23.63165767746435
 11
49.93198007401108
 21
-18.57515928284741
  0
LINE
  5
1D2
100
AcDbEntity
  8
arm-deployed
  6
ByLayer
 62
  256
370
   -1
100
AcDbLine
 10
49.93198007401108
 20
-18.57515928284741
 11
91.49623994566221
 21
31.78289980674301
  0
LINE
  5
1D3
100
AcDbEntity
  8
arm-deployed
  6
ByLayer
 62
  256
370
   -1
100
AcDbLine
 10
96.68950926118156
 20
80
 11
109.9278579257494
 21
80
  0
ARC
  5
1D4
100
AcDbEntity
  8
arm-deployed
  6
ByLayer
 62
  256
370
   -1
100
AcDbCircle
 10
109.9278579257494
 20
77
 40
3
100
AcDbArc
 50
0
 51
90
  0
LINE
  5
1D5
100
AcDbEntity
  8
arm-deployed
  6
ByLayer
 62
  256
370
   -1
100
AcDbLine
 10
112.9278579257494
 20
56.25
 11
112.9278579257494
 21
77
  0
LINE
  5
1D6
100
AcDbEntity
  8
arm-deployed
  6
ByLayer
 62
  256
370
   -1
100
AcDbLine
 10
91.49623994566221
 20
31.78289980674301
 11
107.0497061185915
 21
44.09804388775616
  0
ARC
  5
1D7
100
AcDbEntity
  8
arm-deployed
  6
ByLayer
 62
  256
370
   -1
100
AcDbCircle
 10
97.42785792574939
 20
56.25
 40
15.5
100
AcDbArc
 50
308.371976488786
 51
0
  0
LINE
  5
1D8
100
AcDbEntity
  8
arm-deployed
  6
ByLayer
 62
  256
370
   -1
100
AcDbLine
 10
91.84241963170966
 20
73.83447185346333
 11
92.86501348441146
 21
77.17184984254293
  0
ARC
  5
1D9
100
AcDbEntity
  8
arm-deployed
  6
ByLayer
 62
  256
370
   -1
100
AcDbCircle
 10
82.28118018978446
 20
76.76409645982061
 40
10
100
AcDbArc
 50
306.4404770659776
 51
342.964602267831
  0
ARC
  5
1DA
100
AcDbEntity
  8
arm-deployed
  6
ByLayer
 62
  256
370
   -1
100
AcDbCircle
 10
97.42785792574935
 20
56.24999999999998
 40
15.5
100
AcDbArc
 50
126.4404770659776
 51
175.6887972484496
  0
LINE
  5
1DB
100
AcDbEntity
  8
arm-deployed
  6
ByLayer
 62
  256
370
   -1
100
AcDbLine
 10
19.05891696286977
 20
-24.56094013738332
 11
77.45293605152695
 21
46.18757006887951
  0
ARC
  5
1DC
100
AcDbEntity
  8
arm-deployed
  6
ByLayer
 62
  256
370
   -1
100
AcDbCircle
 10
62.02830679966246
 20
58.91866634699028
 40
20
100
AcDbArc
 50
320.4646022678306
 51
355.6887972484496
  0
CIRCLE
  5
1DD
100
AcDbEntity
  8
arm-deployed
  6
ByLayer
 62
  256
370
   -1
100
AcDbCircle
 10
-26.00000000000011
 20
-30.28993361544395
 40
3
  0
CIRCLE
  5
1DE
100
AcDbEntity
  8
arm-deployed
  6
ByLayer
 62
  256
370
   -1
100
AcDbCircle
 10
-44.31025982466635
 20
-22.24416546360083
 40
1.5
  0
ARC
  5
1DF
100
AcDbEntity
  8
arm-deployed
  6
ByLayer
 62
  256
370
   -1
100
AcDbCircle
 10
-44.31025982466635
 20
-22.24416546360083
 40
4
100
AcDbArc
 50
200.2961709778101
 51
231.8011782831203
  0
ARC
  5
1E0
100
AcDbEntity
  8
arm-deployed
  6
ByLayer
 62
  256
370
   -1
100
AcDbCircle
 10
-26.00000000000011
 20
-30.28993361544395
 40
9
100
AcDbArc
 50
231.8011717644733
 51
39.53539899438496
  0
LINE
  5
1E1
100
AcDbEntity
  8
arm-deployed
  6
ByLayer
 62
  256
370
   -1
100
AcDbLine
 10
-31.56553091197269
 20
-37.36275947699871
 11
-46.78382911887638
 21
-25.3876436242918
  0
ARC
  5
1E2
100
AcDbEntity
  8
arm-deployed
  6
ByLayer
 62
  256
370
   -1
100
AcDbCircle
 10
-89.46422143388708
 20
55.48809854608405
 40
1.5
100
AcDbArc
 50
174.5350000000002
 51
264.5350000000001
  0
LINE
  5
1E3
100
AcDbEntity
  8
arm-deployed
  6
ByLayer
 62
  256
370
   -1
100
AcDbLine
 10
-90.95740327611124
 20
55.63095506869328
 11
-90.95740327611124
 21
55.63095506869327
  0
ARC
  5
1E4
100
AcDbEntity
  8
arm-deployed
  6
ByLayer
 62
  256
370
   -1
100
AcDbCircle
 10
-89.46422143388705
 20
55.48809854608403
 40
1.5
100
AcDbArc
 50
84.53500000000011
 51
174.5350000000001
  0
LINE
  5
1E5
100
AcDbEntity
  8
arm-deployed
  6
ByLayer
 62
  256
370
   -1
100
AcDbLine
 10
-89.3213649112778
 20
56.98128038830821
 11
-87.57931942868291
 21
56.81461444526408
  0
ARC
  5
1E6
100
AcDbEntity
  8
arm-deployed
  6
ByLayer
 62
  256
370
   -1
100
AcDbCircle
 10
-87.72217595129216
 20
55.32143260303991
 40
1.5
100
AcDbArc
 50
354.5350000000004
 51
84.53500000000001
  0
LINE
  5
1E7
100
AcDbEntity
  8
arm-deployed
  6
ByLayer
 62
  256
370
   -1
100
AcDbLine
 10
-89.60707795649633
 20
53.99491670385984
 11
-87.86503247390146
 21
53.82825076081572
  0
LINE
  5
1E8
100
AcDbEntity
  8
arm-deployed
  6
ByLayer
 62
  256
370
   -1
100
AcDbLine
 10
-86.22899410906798
 20
55.17857608043067
 11
-86.228994109068
 21
55.17857608043066
  0
ARC
  5
1E9
100
AcDbEntity
  8
arm-deployed
  6
ByLayer
 62
  256
370
   -1
100
AcDbCircle
 10
-87.72217595129223
 20
55.32143260303992
 40
1.5
100
AcDbArc
 50
264.535
 51
354.535
  0
ARC
  5
1EA
100
AcDbEntity
  8
arm-deployed
  6
ByLayer
 62
  256
370
   -1
100
AcDbCircle
 10
-98.18965447182102
 20
48.2874600784628
 40
1.5
100
AcDbArc
 50
84.53500000000021
 51
174.5350000000001
  0
LINE
  5
1EB
100
AcDbEntity
  8
arm-deployed
  6
ByLayer
 62
  256
370
   -1
100
AcDbLine
 10
-98.04679794921176
 20
49.78064192068695
 11
-98.04679794921176
 21
49.78064192068695
  0
ARC
  5
1EC
100
AcDbEntity
  8
arm-deployed
  6
ByLayer
 62
  256
370
   -1
100
AcDbCircle
 10
-98.18965447182102
 20
48.28746007846277
 40
1.5
100
AcDbArc
 50
354.5350000000001
 51
84.53500000000011
  0
LINE
  5
1ED
100
AcDbEntity
  8
arm-deployed
  6
ByLayer
 62
  256
370
   -1
100
AcDbLine
 10
-96.69647262959683
 20
48.14460355585351
 11
-96.86313857264095
 21
46.40255807325862
  0
ARC
  5
1EE
100
AcDbEntity
  8
arm-deployed
  6
ByLayer
 62
  256
370
   -1
100
AcDbCircle
 10
-98.35632041486515
 20
46.54541459586788
 40
1.5
100
AcDbArc
 50
264.5350000000004
 51
354.535
  0
LINE
  5
1EF
100
AcDbEntity
  8
arm-deployed
  6
ByLayer
 62
  256
370
   -1
100
AcDbLine
 10
-99.6828363140452
 20
48.43031660107205
 11
-99.84950225708933
 21
46.6882711184772
  0
LINE
  5
1F0
100
AcDbEntity
  8
arm-deployed
  6
ByLayer
 62
  256
370
   -1
100
AcDbLine
 10
-98.49917693747439
 20
45.05223275364372
 11
-98.49917693747439
 21
45.05223275364372
  0
ARC
  5
1F1
100
AcDbEntity
  8
arm-deployed
  6
ByLayer
 62
  256
370
   -1
100
AcDbCircle
 10
-98.35632041486514
 20
46.54541459586795
 40
1.5
100
AcDbArc
 50
174.535
 51
264.535
  0
ARC
  5
1F2
100
AcDbEntity
  8
arm-deployed
  6
ByLayer
 62
  256
370
   -1
100
AcDbCircle
 10
-105.3902929394422
 20
57.01289311639674
 40
1.5
100
AcDbArc
 50
354.5350000000002
 51
84.53500000000011
  0
LINE
  5
1F3
100
AcDbEntity
  8
arm-deployed
  6
ByLayer
 62
  256
370
   -1
100
AcDbLine
 10
-103.8971110972181
 20
56.87003659378749
 11
-103.8971110972181
 21
56.8700365937875
  0
ARC
  5
1F4
100
AcDbEntity
  8
arm-deployed
  6
ByLayer
 62
  256
370
   -1
100
AcDbCircle
 10
-105.3902929394423
 20
57.01289311639675
 40
1.5
100
AcDbArc
 50
264.535
 51
354.5350000000001
  0
LINE
  5
1F5
100
AcDbEntity
  8
arm-deployed
  6
ByLayer
 62
  256
370
   -1
100
AcDbLine
 10
-105.5331494620515
 20
55.51971127417255
 11
-107.2751949446464
 21
55.68637721721669
  0
ARC
  5
1F6
100
AcDbEntity
  8
arm-deployed
  6
ByLayer
 62
  256
370
   -1
100
AcDbCircle
 10
-107.1323384220372
 20
57.17955905944088
 40
1.5
100
AcDbArc
 50
174.5350000000004
 51
264.535
  0
LINE
  5
1F7
100
AcDbEntity
  8
arm-deployed
  6
ByLayer
 62
  256
370
   -1
100
AcDbLine
 10
-105.247436416833
 20
58.50607495862092
 11
-106.9894818994279
 21
58.67274090166504
  0
LINE
  5
1F8
100
AcDbEntity
  8
arm-deployed
  6
ByLayer
 62
  256
370
   -1
100
AcDbLine
 10
-108.6255202642613
 20
57.32241558205011
 11
-108.6255202642613
 21
57.32241558205011
  0
ARC
  5
1F9
100
AcDbEntity
  8
arm-deployed
  6
ByLayer
 62
  256
370
   -1
100
AcDbCircle
 10
-107.1323384220371
 20
57.17955905944085
 40
1.5
100
AcDbArc
 50
84.53500000000001
 51
174.535
  0
ARC
  5
1FA
100
AcDbEntity
  8
arm-deployed
  6
ByLayer
 62
  256
370
   -1
100
AcDbCircle
 10
-96.66485990150832
 20
64.21353158401797
 40
1.5
100
AcDbArc
 50
264.5350000000002
 51
354.5350000000001
  0
LINE
  5
1FB
100
AcDbEntity
  8
arm-deployed
  6
ByLayer
 62
  256
370
   -1
100
AcDbLine
 10
-96.80771642411756
 20
62.72034974179382
 11
-96.80771642411756
 21
62.72034974179382
  0
ARC
  5
1FC
100
AcDbEntity
  8
arm-deployed
  6
ByLayer
 62
  256
370
   -1
100
AcDbCircle
 10
-96.66485990150831
 20
64.21353158401801
 40
1.5
100
AcDbArc
 50
174.5350000000001
 51
264.535
  0
LINE
  5
1FD
100
AcDbEntity
  8
arm-deployed
  6
ByLayer
 62
  256
370
   -1
100
AcDbLine
 10
-98.1580417437325
 20
64.35638810662725
 11
-97.99137580068837
 21
66.09843358922214
  0
ARC
  5
1FE
100
AcDbEntity
  8
arm-deployed
  6
ByLayer
 62
  256
370
   -1
100
AcDbCircle
 10
-96.49819395846419
 20
65.9555770666129
 40
1.5
100
AcDbArc
 50
84.53500000000031
 51
174.5349999999999
  0
LINE
  5
1FF
100
AcDbEntity
  8
arm-deployed
  6
ByLayer
 62
  256
370
   -1
100
AcDbLine
 10
-95.17167805928412
 20
64.07067506140871
 11
-95.00501211624
 21
65.81272054400357
  0
LINE
  5
200
100
AcDbEntity
  8
arm-deployed
  6
ByLayer
 62
  256
370
   -1
100
AcDbLine
 10
-96.35533743585493
 20
67.44875890883705
 11
-96.35533743585493
 21
67.44875890883705
  0
ARC
  5
201
100
AcDbEntity
  8
arm-deployed
  6
ByLayer
 62
  256
370
   -1
100
AcDbCircle
 10
-96.4981939584642
 20
65.95557706661282
 40
1.5
100
AcDbArc
 50
354.535
 51
84.53500000000001
  0
CIRCLE
  5
202
100
AcDbEntity
  8
arm-deployed
  6
ByLayer
 62
  256
370
   -1
100
AcDbCircle
 10
-97.42785792574935
 20
56.25000000000003
 40
4.5
  0
CIRCLE
  5
203
100
AcDbEntity
  8
arm-deployed
  6
ByLayer
 62
  256
370
   -1
100
AcDbCircle
 10
-34.59348998772485
 20
-19.87830887043547
 40
1.5
  0
ARC
  5
204
100
AcDbEntity
  8
arm-deployed
  6
ByLayer
 62
  256
370
   -1
100
AcDbCircle
 10
-96.68950926118156
 20
76.00000000000001
 40
4
100
AcDbArc
 50
17.03539773216893
 51
90
  0
LINE
  5
205
100
AcDbEntity
  8
arm-deployed
  6
ByLayer
 62
  256
370
   -1
100
AcDbLine
 10
-48.06190817658688
 20
-23.63165767746434
 11
-49.93198007401108
 21
-18.57515928284741
  0
LINE
  5
206
100
AcDbEntity
  8
arm-deployed
  6
ByLayer
 62
  256
370
   -1
100
AcDbLine
 10
-49.93198007401108
 20
-18.57515928284741
 11
-91.49623994566221
 21
31.78289980674301
  0
LINE
  5
207
100
AcDbEntity
  8
arm-deployed
  6
ByLayer
 62
  256
370
   -1
100
AcDbLine
 10
-96.68950926118156
 20
80
 11
-109.9278579257494
 21
80
  0
ARC
  5
208
100
AcDbEntity
  8
arm-deployed
  6
ByLayer
 62
  256
370
   -1
100
AcDbCircle
 10
-109.9278579257494
 20
77
 40
3
100
AcDbArc
 50
90
 51
180
  0
LINE
  5
209
100
AcDbEntity
  8
arm-deployed
  6
ByLayer
 62
  256
370
   -1
100
AcDbLine
 10
-112.9278579257494
 20
56.25
 11
-112.9278579257494
 21
77
  0
LINE
  5
20A
100
AcDbEntity
  8
arm-deployed
  6
ByLayer
 62
  256
370
   -1
100
AcDbLine
 10
-91.49623994566221
 20
31.78289980674301
 11
-107.0497061185915
 21
44.09804388775616
  0
ARC
  5
20B
100
AcDbEntity
  8
arm-deployed
  6
ByLayer
 62
  256
370
   -1
100
AcDbCircle
 10
-97.42785792574939
 20
56.25
 40
15.5
100
AcDbArc
 50
180
 51
231.628023511214
  0
LINE
  5
20C
100
AcDbEntity
  8
arm-deployed
  6
ByLayer
 62
  256
370
   -1
100
AcDbLine
 10
-91.84241963170966
 20
73.83447185346333
 11
-92.86501348441146
 21
77.17184984254293
  0
ARC
  5
20D
100
AcDbEntity
  8
arm-deployed
  6
ByLayer
 62
  256
370
   -1
100
AcDbCircle
 10
-82.28118018978446
 20
76.76409645982061
 40
10
100
AcDbArc
 50
197.035397732169
 51
233.5595229340224
  0
ARC
  5
20E
100
AcDbEntity
  8
arm-deployed
  6
ByLayer
 62
  256
370
   -1
100
AcDbCircle
 10
-97.42785792574935
 20
56.24999999999998
 40
15.5
100
AcDbArc
 50
4.311202751550422
 51
53.55952293402237
  0
LINE
  5
20F
100
AcDbEntity
  8
arm-deployed
  6
ByLayer
 62
  256
370
   -1
100
AcDbLine
 10
-19.05891696286977
 20
-24.56094013738331
 11
-77.45293605152695
 21
46.18757006887951
  0
ARC
  5
210
100
AcDbEntity
  8
arm-deployed
  6
ByLayer
 62
  256
370
   -1
100
AcDbCircle
 10
-62.02830679966246
 20
58.91866634699028
 40
20
100
AcDbArc
 50
184.3112027515504
 51
219.5353977321694
  0
CIRCLE
  5
211
100
AcDbEntity
  8
arm-folded
  6
ByLayer
 62
  256
370
   -1
100
AcDbCircle
 10
26.00000000000011
 20
-30.28993361544396
 40
3
  0
CIRCLE
  5
212
100
AcDbEntity
  8
arm-folded
  6
ByLayer
 62
  256
370
   -1
100
AcDbCircle
 10
17.00000000000004
 20
-48.15050471493568
 40
1.5
  0
ARC
  5
213
100
AcDbEntity
  8
arm-folded
  6
ByLayer
 62
  256
370
   -1
100
AcDbCircle
 10
17.00000000000004
 20
-48.15050471493568
 40
4
100
AcDbArc
 50
167.7338217168796
 51
199.2388290221899
  0
ARC
  5
214
100
AcDbEntity
  8
arm-folded
  6
ByLayer
 62
  256
370
   -1
100
AcDbCircle
 10
26.00000000000011
 20
-30.28993361544396
 40
9
100
AcDbArc
 50
359.999601005615
 51
167.7338282355267
  0
LINE
  5
215
100
AcDbEntity
  8
arm-folded
  6
ByLayer
 62
  256
370
   -1
100
AcDbLine
 10
17.20545937751556
 20
-28.37785222610174
 11
13.09131527889579
 21
-47.3006907641169
  0
ARC
  5
216
100
AcDbEntity
  8
arm-folded
  6
ByLayer
 62
  256
370
   -1
100
AcDbCircle
 10
31.65607531684665
 20
-136.843145747804
 40
1.5
100
AcDbArc
 50
134.9999999999999
 51
224.9999999999998
  0
LINE
  5
217
100
AcDbEntity
  8
arm-folded
  6
ByLayer
 62
  256
370
   -1
100
AcDbLine
 10
30.59541514506683
 20
-137.9038059195838
 11
30.59541514506682
 21
-137.9038059195838
  0
ARC
  5
218
100
AcDbEntity
  8
arm-folded
  6
ByLayer
 62
  256
370
   -1
100
AcDbCircle
 10
31.65607531684666
 20
-136.843145747804
 40
1.5
100
AcDbArc
 50
224.9999999999999
 51
314.9999999999999
  0
LINE
  5
219
100
AcDbEntity
  8
arm-folded
  6
ByLayer
 62
  256
370
   -1
100
AcDbLine
 10
32.71673548862648
 20
-137.9038059195838
 11
33.95417235570295
 21
-136.6663690525074
  0
ARC
  5
21A
100
AcDbEntity
  8
arm-folded
  6
ByLayer
 62
  256
370
   -1
100
AcDbCircle
 10
32.89351218392313
 20
-135.6057088807275
 40
1.5
100
AcDbArc
 50
315
 51
44.99999999999964
  0
LINE
  5
21B
100
AcDbEntity
  8
arm-folded
  6
ByLayer
 62
  256
370
   -1
100
AcDbLine
 10
30.59541514506681
 20
-135.7824855760242
 11
31.83285201214326
 21
-134.5450487089478
  0
LINE
  5
21C
100
AcDbEntity
  8
arm-folded
  6
ByLayer
 62
  256
370
   -1
100
AcDbLine
 10
33.95417235570295
 20
-134.5450487089477
 11
33.95417235570294
 21
-134.5450487089477
  0
ARC
  5
21D
100
AcDbEntity
  8
arm-folded
  6
ByLayer
 62
  256
370
   -1
100
AcDbCircle
 10
32.89351218392309
 20
-135.6057088807276
 40
1.5
100
AcDbArc
 50
45.00000000000005
 51
134.9999999999999
  0
ARC
  5
21E
100
AcDbEntity
  8
arm-folded
  6
ByLayer
 62
  256
370
   -1
100
AcDbCircle
 10
20.34314574780417
 20
-136.8439246831535
 40
1.5
100
AcDbArc
 50
224.9999999999999
 51
314.9999999999998
  0
LINE
  5
21F
100
AcDbEntity
  8
arm-folded
  6
ByLayer
 62
  256
370
   -1
100
AcDbLine
 10
21.40380591958398
 20
-137.9045848549333
 11
21.40380591958398
 21
-137.9045848549333
  0
ARC
  5
220
100
AcDbEntity
  8
arm-folded
  6
ByLayer
 62
  256
370
   -1
100
AcDbCircle
 10
20.34314574780415
 20
-136.8439246831535
 40
1.5
100
AcDbArc
 50
314.9999999999999
 51
44.99999999999995
  0
LINE
  5
221
100
AcDbEntity
  8
arm-folded
  6
ByLayer
 62
  256
370
   -1
100
AcDbLine
 10
21.40380591958397
 20
-135.7832645113736
 11
20.1663690525075
 21
-134.5458276442972
  0
ARC
  5
222
100
AcDbEntity
  8
arm-folded
  6
ByLayer
 62
  256
370
   -1
100
AcDbCircle
 10
19.10570888072768
 20
-135.606487816077
 40
1.5
100
AcDbArc
 50
45.00000000000005
 51
134.9999999999996
  0
LINE
  5
223
100
AcDbEntity
  8
arm-folded
  6
ByLayer
 62
  256
370
   -1
100
AcDbLine
 10
19.28248557602434
 20
-137.9045848549333
 11
18.0450487089479
 21
-136.6671479878569
  0
LINE
  5
224
100
AcDbEntity
  8
arm-folded
  6
ByLayer
 62
  256
370
   -1
100
AcDbLine
 10
18.04504870894787
 20
-134.5458276442972
 11
18.04504870894787
 21
-134.5458276442972
  0
ARC
  5
225
100
AcDbEntity
  8
arm-folded
  6
ByLayer
 62
  256
370
   -1
100
AcDbCircle
 10
19.10570888072773
 20
-135.606487816077
 40
1.5
100
AcDbArc
 50
134.9999999999999
 51
225
  0
ARC
  5
226
100
AcDbEntity
  8
arm-folded
  6
ByLayer
 62
  256
370
   -1
100
AcDbCircle
 10
20.34392468315362
 20
-148.156854252196
 40
1.5
100
AcDbArc
 50
314.9999999999999
 51
44.99999999999984
  0
LINE
  5
227
100
AcDbEntity
  8
arm-folded
  6
ByLayer
 62
  256
370
   -1
100
AcDbLine
 10
21.40458485493343
 20
-147.0961940804162
 11
21.40458485493343
 21
-147.0961940804162
  0
ARC
  5
228
100
AcDbEntity
  8
arm-folded
  6
ByLayer
 62
  256
370
   -1
100
AcDbCircle
 10
20.3439246831536
 20
-148.156854252196
 40
1.5
100
AcDbArc
 50
44.99999999999995
 51
134.9999999999999
  0
LINE
  5
229
100
AcDbEntity
  8
arm-folded
  6
ByLayer
 62
  256
370
   -1
100
AcDbLine
 10
19.28326451137377
 20
-147.0961940804162
 11
18.0458276442973
 21
-148.3336309474926
  0
ARC
  5
22A
100
AcDbEntity
  8
arm-folded
  6
ByLayer
 62
  256
370
   -1
100
AcDbCircle
 10
19.10648781607714
 20
-149.3942911192725
 40
1.5
100
AcDbArc
 50
134.9999999999999
 51
224.9999999999996
  0
LINE
  5
22B
100
AcDbEntity
  8
arm-folded
  6
ByLayer
 62
  256
370
   -1
100
AcDbLine
 10
21.40458485493344
 20
-149.2175144239758
 11
20.16714798785699
 21
-150.4549512910522
  0
LINE
  5
22C
100
AcDbEntity
  8
arm-folded
  6
ByLayer
 62
  256
370
   -1
100
AcDbLine
 10
18.04582764429731
 20
-150.4549512910523
 11
18.04582764429732
 21
-150.4549512910523
  0
ARC
  5
22D
100
AcDbEntity
  8
arm-folded
  6
ByLayer
 62
  256
370
   -1
100
AcDbCircle
 10
19.10648781607716
 20
-149.3942911192724
 40
1.5
100
AcDbArc
 50
225
 51
315
  0
ARC
  5
22E
100
AcDbEntity
  8
arm-folded
  6
ByLayer
 62
  256
370
   -1
100
AcDbCircle
 10
31.65685425219608
 20
-148.1560753168465
 40
1.5
100
AcDbArc
 50
44.99999999999995
 51
134.9999999999997
  0
LINE
  5
22F
100
AcDbEntity
  8
arm-folded
  6
ByLayer
 62
  256
370
   -1
100
AcDbLine
 10
30.59619408041628
 20
-147.0954151450667
 11
30.59619408041628
 21
-147.0954151450667
  0
ARC
  5
230
100
AcDbEntity
  8
arm-folded
  6
ByLayer
 62
  256
370
   -1
100
AcDbCircle
 10
31.65685425219612
 20
-148.1560753168465
 40
1.5
100
AcDbArc
 50
134.9999999999999
 51
224.9999999999999
  0
LINE
  5
231
100
AcDbEntity
  8
arm-folded
  6
ByLayer
 62
  256
370
   -1
100
AcDbLine
 10
30.59619408041628
 20
-149.2167354886264
 11
31.83363094749275
 21
-150.4541723557028
  0
ARC
  5
232
100
AcDbEntity
  8
arm-folded
  6
ByLayer
 62
  256
370
   -1
100
AcDbCircle
 10
32.89429111927258
 20
-149.393512183923
 40
1.5
100
AcDbArc
 50
225.0000000000001
 51
314.9999999999997
  0
LINE
  5
233
100
AcDbEntity
  8
arm-folded
  6
ByLayer
 62
  256
370
   -1
100
AcDbLine
 10
32.71751442397591
 20
-147.0954151450667
 11
33.95495129105235
 21
-148.3328520121431
  0
LINE
  5
234
100
AcDbEntity
  8
arm-folded
  6
ByLayer
 62
  256
370
   -1
100
AcDbLine
 10
33.95495129105238
 20
-150.4541723557028
 11
33.95495129105238
 21
-150.4541723557028
  0
ARC
  5
235
100
AcDbEntity
  8
arm-folded
  6
ByLayer
 62
  256
370
   -1
100
AcDbCircle
 10
32.89429111927252
 20
-149.393512183923
 40
1.5
100
AcDbArc
 50
315
 51
45.00000000000005
  0
CIRCLE
  5
236
100
AcDbEntity
  8
arm-folded
  6
ByLayer
 62
  256
370
   -1
100
AcDbCircle
 10
25.99922106735427
 20
-142.4999999972964
 40
4.5
  0
CIRCLE
  5
237
100
AcDbEntity
  8
arm-folded
  6
ByLayer
 62
  256
370
   -1
100
AcDbCircle
 10
25.99990628656549
 20
-43.78993361511863
 40
1.5
  0
ARC
  5
238
100
AcDbEntity
  8
arm-folded
  6
ByLayer
 62
  256
370
   -1
100
AcDbCircle
 10
39.1405138894808
 20
-157.261913210481
 40
4
100
AcDbArc
 50
309.535
 51
22.49960226783113
  0
LINE
  5
239
100
AcDbEntity
  8
arm-folded
  6
ByLayer
 62
  256
370
   -1
100
AcDbLine
 10
13.22338675694256
 20
-49.46853066777683
 11
14.99983153252849
 21
-54.55867692064549
  0
LINE
  5
23A
100
AcDbEntity
  8
arm-folded
  6
ByLayer
 62
  256
370
   -1
100
AcDbLine
 10
14.99983153252849
 20
-54.55867692064549
 11
14.99937826737599
 21
-119.8543261918135
  0
LINE
  5
23B
100
AcDbEntity
  8
arm-folded
  6
ByLayer
 62
  256
370
   -1
100
AcDbLine
 10
41.68671173030108
 20
-160.3468567359612
 11
31.47682223009915
 21
-168.7737204323984
  0
ARC
  5
23C
100
AcDbEntity
  8
arm-folded
  6
ByLayer
 62
  256
370
   -1
100
AcDbCircle
 10
29.56717384948393
 20
-166.4600127882883
 40
3
100
AcDbArc
 50
219.535
 51
309.535
  0
LINE
  5
23D
100
AcDbEntity
  8
arm-folded
  6
ByLayer
 62
  256
370
   -1
100
AcDbLine
 10
14.04506490611853
 20
-152.366516630475
 11
27.25346620537379
 21
-168.3696611689035
  0
LINE
  5
23E
100
AcDbEntity
  8
arm-folded
  6
ByLayer
 62
  256
370
   -1
100
AcDbLine
 10
14.99937826737599
 20
-119.8543261918135
 11
10.84318539225429
 21
-139.2527576880288
  0
ARC
  5
23F
100
AcDbEntity
  8
arm-folded
  6
ByLayer
 62
  256
370
   -1
100
AcDbCircle
 10
25.99922106735422
 20
-142.4999999972964
 40
15.5
100
AcDbArc
 50
167.9069764887859
 51
219.535
  0
LINE
  5
240
100
AcDbEntity
  8
arm-folded
  6
ByLayer
 62
  256
370
   -1
100
AcDbLine
 10
41.50029755920934
 20
-152.5063679145492
 11
42.83604264538619
 21
-155.7312051343684
  0
ARC
  5
241
100
AcDbEntity
  8
arm-folded
  6
ByLayer
 62
  256
370
   -1
100
AcDbCircle
 10
50.73911944897278
 20
-148.6795977242676
 40
10
100
AcDbArc
 50
165.9754770659777
 51
202.499602267831
  0
ARC
  5
242
100
AcDbEntity
  8
arm-folded
  6
ByLayer
 62
  256
370
   -1
100
AcDbCircle
 10
25.99922106735425
 20
-142.4999999972964
 40
15.5
100
AcDbArc
 50
345.9754770659777
 51
35.22379724844959
  0
LINE
  5
243
100
AcDbEntity
  8
arm-folded
  6
ByLayer
 62
  256
370
   -1
100
AcDbLine
 10
34.99999999978188
 20
-30.28999628933539
 11
34.99936320331184
 21
-122.0244672439696
  0
ARC
  5
244
100
AcDbEntity
  8
arm-folded
  6
ByLayer
 62
  256
370
   -1
100
AcDbCircle
 10
54.99936320282995
 20
-122.0246060786875
 40
20
100
AcDbArc
 50
179.9996022678306
 51
215.2237972484496
  0
CIRCLE
  5
245
100
AcDbEntity
  8
arm-folded
  6
ByLayer
 62
  256
370
   -1
100
AcDbCircle
 10
-26.00000000000011
 20
-30.28993361544395
 40
3
  0
CIRCLE
  5
246
100
AcDbEntity
  8
arm-folded
  6
ByLayer
 62
  256
370
   -1
100
AcDbCircle
 10
-17.00000000000004
 20
-48.15050471493568
 40
1.5
  0
ARC
  5
247
100
AcDbEntity
  8
arm-folded
  6
ByLayer
 62
  256
370
   -1
100
AcDbCircle
 10
-17.00000000000004
 20
-48.15050471493568
 40
4
100
AcDbArc
 50
340.7611709778101
 51
12.26617828312036
  0
ARC
  5
248
100
AcDbEntity
  8
arm-folded
  6
ByLayer
 62
  256
370
   -1
100
AcDbCircle
 10
-26.00000000000011
 20
-30.28993361544395
 40
9
100
AcDbArc
 50
12.26617176447329
 51
180.000398994385
  0
LINE
  5
249
100
AcDbEntity
  8
arm-folded
  6
ByLayer
 62
  256
370
   -1
100
AcDbLine
 10
-17.20545937751556
 20
-28.37785222610173
 11
-13.09131527889579
 21
-47.30069076411689
  0
ARC
  5
24A
100
AcDbEntity
  8
arm-folded
  6
ByLayer
 62
  256
370
   -1
100
AcDbCircle
 10
-31.65607531684665
 20
-136.843145747804
 40
1.5
100
AcDbArc
 50
315.0000000000002
 51
45.00000000000005
  0
LINE
  5
24B
100
AcDbEntity
  8
arm-folded
  6
ByLayer
 62
  256
370
   -1
100
AcDbLine
 10
-30.59541514506683
 20
-137.9038059195839
 11
-30.59541514506682
 21
-137.9038059195839
  0
ARC
  5
24C
100
AcDbEntity
  8
arm-folded
  6
ByLayer
 62
  256
370
   -1
100
AcDbCircle
 10
-31.65607531684666
 20
-136.843145747804
 40
1.5
100
AcDbArc
 50
225.0000000000001
 51
315.0000000000001
  0
LINE
  5
24D
100
AcDbEntity
  8
arm-folded
  6
ByLayer
 62
  256
370
   -1
100
AcDbLine
 10
-32.71673548862648
 20
-137.9038059195839
 11
-33.95417235570295
 21
-136.6663690525074
  0
ARC
  5
24E
100
AcDbEntity
  8
arm-folded
  6
ByLayer
 62
  256
370
   -1
100
AcDbCircle
 10
-32.89351218392313
 20
-135.6057088807275
 40
1.5
100
AcDbArc
 50
135.0000000000004
 51
225
  0
LINE
  5
24F
100
AcDbEntity
  8
arm-folded
  6
ByLayer
 62
  256
370
   -1
100
AcDbLine
 10
-30.59541514506681
 20
-135.7824855760242
 11
-31.83285201214326
 21
-134.5450487089478
  0
LINE
  5
250
100
AcDbEntity
  8
arm-folded
  6
ByLayer
 62
  256
370
   -1
100
AcDbLine
 10
-33.95417235570295
 20
-134.5450487089477
 11
-33.95417235570294
 21
-134.5450487089477
  0
ARC
  5
251
100
AcDbEntity
  8
arm-folded
  6
ByLayer
 62
  256
370
   -1
100
AcDbCircle
 10
-32.89351218392309
 20
-135.6057088807276
 40
1.5
100
AcDbArc
 50
45.00000000000005
 51
134.9999999999999
  0
ARC
  5
252
100
AcDbEntity
  8
arm-folded
  6
ByLayer
 62
  256
370
   -1
100
AcDbCircle
 10
-20.34314574780417
 20
-136.8439246831535
 40
1.5
100
AcDbArc
 50
225.0000000000002
 51
315.0000000000001
  0
LINE
  5
253
100
AcDbEntity
  8
arm-folded
  6
ByLayer
 62
  256
370
   -1
100
AcDbLine
 10
-21.40380591958398
 20
-137.9045848549333
 11
-21.40380591958398
 21
-137.9045848549333
  0
ARC
  5
254
100
AcDbEntity
  8
arm-folded
  6
ByLayer
 62
  256
370
   -1
100
AcDbCircle
 10
-20.34314574780415
 20
-136.8439246831535
 40
1.5
100
AcDbArc
 50
135.0000000000001
 51
225.0000000000001
  0
LINE
  5
255
100
AcDbEntity
  8
arm-folded
  6
ByLayer
 62
  256
370
   -1
100
AcDbLine
 10
-21.40380591958397
 20
-135.7832645113736
 11
-20.1663690525075
 21
-134.5458276442972
  0
ARC
  5
256
100
AcDbEntity
  8
arm-folded
  6
ByLayer
 62
  256
370
   -1
100
AcDbCircle
 10
-19.10570888072768
 20
-135.6064878160771
 40
1.5
100
AcDbArc
 50
45.00000000000036
 51
134.9999999999999
  0
LINE
  5
257
100
AcDbEntity
  8
arm-folded
  6
ByLayer
 62
  256
370
   -1
100
AcDbLine
 10
-19.28248557602434
 20
-137.9045848549333
 11
-18.0450487089479
 21
-136.6671479878569
  0
LINE
  5
258
100
AcDbEntity
  8
arm-folded
  6
ByLayer
 62
  256
370
   -1
100
AcDbLine
 10
-18.04504870894787
 20
-134.5458276442972
 11
-18.04504870894787
 21
-134.5458276442972
  0
ARC
  5
259
100
AcDbEntity
  8
arm-folded
  6
ByLayer
 62
  256
370
   -1
100
AcDbCircle
 10
-19.10570888072773
 20
-135.606487816077
 40
1.5
100
AcDbArc
 50
315
 51
45.00000000000005
  0
ARC
  5
25A
100
AcDbEntity
  8
arm-folded
  6
ByLayer
 62
  256
370
   -1
100
AcDbCircle
 10
-20.34392468315362
 20
-148.156854252196
 40
1.5
100
AcDbArc
 50
135.0000000000001
 51
225.0000000000001
  0
LINE
  5
25B
100
AcDbEntity
  8
arm-folded
  6
ByLayer
 62
  256
370
   -1
100
AcDbLine
 10
-21.40458485493343
 20
-147.0961940804161
 11
-21.40458485493343
 21
-147.0961940804161
  0
ARC
  5
25C
100
AcDbEntity
  8
arm-folded
  6
ByLayer
 62
  256
370
   -1
100
AcDbCircle
 10
-20.3439246831536
 20
-148.156854252196
 40
1.5
100
AcDbArc
 50
45.00000000000005
 51
135.0000000000001
  0
LINE
  5
25D
100
AcDbEntity
  8
arm-folded
  6
ByLayer
 62
  256
370
   -1
100
AcDbLine
 10
-19.28326451137377
 20
-147.0961940804161
 11
-18.0458276442973
 21
-148.3336309474926
  0
ARC
  5
25E
100
AcDbEntity
  8
arm-folded
  6
ByLayer
 62
  256
370
   -1
100
AcDbCircle
 10
-19.10648781607714
 20
-149.3942911192725
 40
1.5
100
AcDbArc
 50
315.0000000000003
 51
45.00000000000005
  0
LINE
  5
25F
100
AcDbEntity
  8
arm-folded
  6
ByLayer
 62
  256
370
   -1
100
AcDbLine
 10
-21.40458485493344
 20
-149.2175144239758
 11
-20.16714798785699
 21
-150.4549512910522
  0
LINE
  5
260
100
AcDbEntity
  8
arm-folded
  6
ByLayer
 62
  256
370
   -1
100
AcDbLine
 10
-18.04582764429731
 20
-150.4549512910523
 11
-18.04582764429732
 21
-150.4549512910523
  0
ARC
  5
261
100
AcDbEntity
  8
arm-folded
  6
ByLayer
 62
  256
370
   -1
100
AcDbCircle
 10
-19.10648781607716
 20
-149.3942911192724
 40
1.5
100
AcDbArc
 50
225
 51
315
  0
ARC
  5
262
100
AcDbEntity
  8
arm-folded
  6
ByLayer
 62
  256
370
   -1
100
AcDbCircle
 10
-31.65685425219608
 20
-148.1560753168465
 40
1.5
100
AcDbArc
 50
45.00000000000026
 51
135.0000000000001
  0
LINE
  5
263
100
AcDbEntity
  8
arm-folded
  6
ByLayer
 62
  256
370
   -1
100
AcDbLine
 10
-30.59619408041628
 20
-147.0954151450667
 11
-30.59619408041628
 21
-147.0954151450667
  0
ARC
  5
264
100
AcDbEntity
  8
arm-folded
  6
ByLayer
 62
  256
370
   -1
100
AcDbCircle
 10
-31.65685425219612
 20
-148.1560753168465
 40
1.5
100
AcDbArc
 50
315.0000000000001
 51
45.00000000000005
  0
LINE
  5
265
100
AcDbEntity
  8
arm-folded
  6
ByLayer
 62
  256
370
   -1
100
AcDbLine
 10
-30.59619408041628
 20
-149.2167354886264
 11
-31.83363094749275
 21
-150.4541723557028
  0
ARC
  5
266
100
AcDbEntity
  8
arm-folded
  6
ByLayer
 62
  256
370
   -1
100
AcDbCircle
 10
-32.89429111927258
 20
-149.393512183923
 40
1.5
100
AcDbArc
 50
225.0000000000003
 51
314.9999999999999
  0
LINE
  5
267
100
AcDbEntity
  8
arm-folded
  6
ByLayer
 62
  256
370
   -1
100
AcDbLine
 10
-32.71751442397591
 20
-147.0954151450667
 11
-33.95495129105235
 21
-148.3328520121431
  0
LINE
  5
268
100
AcDbEntity
  8
arm-folded
  6
ByLayer
 62
  256
370
   -1
100
AcDbLine
 10
-33.95495129105238
 20
-150.4541723557028
 11
-33.95495129105238
 21
-150.4541723557028
  0
ARC
  5
269
100
AcDbEntity
  8
arm-folded
  6
ByLayer
 62
  256
370
   -1
100
AcDbCircle
 10
-32.89429111927252
 20
-149.393512183923
 40
1.5
100
AcDbArc
 50
134.9999999999999
 51
225
  0
CIRCLE
  5
26A
100
AcDbEntity
  8
arm-folded
  6
ByLayer
 62
  256
370
   -1
100
AcDbCircle
 10
-25.99922106735427
 20
-142.4999999972964
 40
4.5
  0
CIRCLE
  5
26B
100
AcDbEntity
  8
arm-folded
  6
ByLayer
 62
  256
370
   -1
100
AcDbCircle
 10
-25.99990628656549
 20
-43.78993361511863
 40
1.5
  0
ARC
  5
26C
100
AcDbEntity
  8
arm-folded
  6
ByLayer
 62
  256
370
   -1
100
AcDbCircle
 10
-39.1405138894808
 20
-157.261913210481
 40
4
100
AcDbArc
 50
157.5003977321689
 51
230.465
  0
LINE
  5
26D
100
AcDbEntity
  8
arm-folded
  6
ByLayer
 62
  256
370
   -1
100
AcDbLine
 10
-13.22338675694256
 20
-49.46853066777684
 11
-14.99983153252849
 21
-54.55867692064547
  0
LINE
  5
26E
100
AcDbEntity
  8
arm-folded
  6
ByLayer
 62
  256
370
   -1
100
AcDbLine
 10
-14.99983153252849
 20
-54.55867692064547
 11
-14.99937826737599
 21
-119.8543261918135
  0
LINE
  5
26F
100
AcDbEntity
  8
arm-folded
  6
ByLayer
 62
  256
370
   -1
100
AcDbLine
 10
-41.68671173030108
 20
-160.3468567359612
 11
-31.47682223009915
 21
-168.7737204323984
  0
ARC
  5
270
100
AcDbEntity
  8
arm-folded
  6
ByLayer
 62
  256
370
   -1
100
AcDbCircle
 10
-29.56717384948393
 20
-166.4600127882883
 40
3
100
AcDbArc
 50
230.465
 51
320.465
  0
LINE
  5
271
100
AcDbEntity
  8
arm-folded
  6
ByLayer
 62
  256
370
   -1
100
AcDbLine
 10
-14.04506490611853
 20
-152.366516630475
 11
-27.25346620537379
 21
-168.3696611689035
  0
LINE
  5
272
100
AcDbEntity
  8
arm-folded
  6
ByLayer
 62
  256
370
   -1
100
AcDbLine
 10
-14.99937826737599
 20
-119.8543261918135
 11
-10.84318539225429
 21
-139.2527576880288
  0
ARC
  5
273
100
AcDbEntity
  8
arm-folded
  6
ByLayer
 62
  256
370
   -1
100
AcDbCircle
 10
-25.99922106735422
 20
-142.4999999972964
 40
15.5
100
AcDbArc
 50
320.465
 51
12.09302351121405
  0
LINE
  5
274
100
AcDbEntity
  8
arm-folded
  6
ByLayer
 62
  256
370
   -1
100
AcDbLine
 10
-41.50029755920934
 20
-152.5063679145492
 11
-42.83604264538619
 21
-155.7312051343684
  0
ARC
  5
275
100
AcDbEntity
  8
arm-folded
  6
ByLayer
 62
  256
370
   -1
100
AcDbCircle
 10
-50.73911944897278
 20
-148.6795977242676
 40
10
100
AcDbArc
 50
337.5003977321689
 51
14.02452293402231
  0
ARC
  5
276
100
AcDbEntity
  8
arm-folded
  6
ByLayer
 62
  256
370
   -1
100
AcDbCircle
 10
-25.99922106735425
 20
-142.4999999972964
 40
15.5
100
AcDbArc
 50
144.7762027515504
 51
194.0245229340224
  0
LINE
  5
277
100
AcDbEntity
  8
arm-folded
  6
ByLayer
 62
  256
370
   -1
100
AcDbLine
 10
-34.99999999978188
 20
-30.28999628933539
 11
-34.99936320331184
 21
-122.0244672439696
  0
ARC
  5
278
100
AcDbEntity
  8
arm-folded
  6
ByLayer
 62
  256
370
   -1
100
AcDbCircle
 10
-54.99936320282995
 20
-122.0246060786875
 40
20
100
AcDbArc
 50
324.7762027515504
 51
0.0003977321694048556
  0
ARC
  5
279
100
AcDbEntity
  8
schema b-main body top
  6
ByLayer
 62
  256
370
   -1
100
AcDbCircle
 10
-12.85176803211714
 20
67
 40
2
100
AcDbArc
 50
210.2783556282992
 51
270
  0
LINE
  5
27A
100
AcDbEntity
  8
schema b-main body top
  6
ByLayer
 62
  256
370
   -1
100
AcDbLine
 10
-17.54166391358315
 20
71.06609085436627
 11
-14.5789401964205
 21
65.99159714654527
  0
ARC
  5
27B
100
AcDbEntity
  8
schema b-main body top
  6
ByLayer
 62
  256
370
   -1
100
AcDbCircle
 10
-19.26883607788653
 20
70.05768800091154
 40
2
100
AcDbArc
 50
30.27835562829907
 51
130.0000000000003
  0
LINE
  5
27C
100
AcDbEntity
  8
schema b-main body top
  6
ByLayer
 62
  256
370
   -1
100
AcDbLine
 10
-11
 20
63
 11
-11
 21
35
  0
LINE
  5
27D
100
AcDbEntity
  8
schema b-main body top
  6
ByLayer
 62
  256
370
   -1
100
AcDbLine
 10
-13
 20
65
 11
-12.85176803211714
 21
65
  0
ARC
  5
27E
100
AcDbEntity
  8
schema b-main body top
  6
ByLayer
 62
  256
370
   -1
100
AcDbCircle
 10
-13
 20
63
 40
2
100
AcDbArc
 50
360
 51
90
  0
ARC
  5
27F
100
AcDbEntity
  8
schema b-main body top
  6
ByLayer
 62
  256
370
   -1
100
AcDbCircle
 10
-20.00000000000001
 20
-1.264763093074374
 40
20
100
AcDbArc
 50
172.763077974032
 51
180
  0
LINE
  5
280
100
AcDbEntity
  8
schema b-main body top
  6
ByLayer
 62
  256
370
   -1
100
AcDbLine
 10
-39.84067458440602
 20
1.254687647802598
 11
-32.39075460249988
 21
59.92280750531344
  0
LINE
  5
281
100
AcDbEntity
  8
schema b-main body top
  6
ByLayer
 62
  256
370
   -1
100
AcDbLine
 10
-20.55441129725962
 20
71.5897768871495
 11
-30.64452400483108
 21
63.12316703568909
  0
ARC
  5
282
100
AcDbEntity
  8
schema b-main body top
  6
ByLayer
 62
  256
370
   -1
100
AcDbCircle
 10
-27.43058595639838
 20
59.2929448200942
 40
5
100
AcDbArc
 50
130.0000000000001
 51
172.763077974032
  0
ARC
  5
283
100
AcDbEntity
  8
schema b-main body top
  6
ByLayer
 62
  256
370
   -1
100
AcDbCircle
 10
-6.000000000000003
 20
35
 40
5
100
AcDbArc
 50
180
 51
270.0000000000001
  0
LINE
  5
284
100
AcDbEntity
  8
schema b-main body top
  6
ByLayer
 62
  256
370
   -1
100
AcDbLine
 10
-40.00000000000001
 20
-1.264763093074369
 11
-40.00000000000001
 21
-2.562906398152177
  0
ARC
  5
285
100
AcDbEntity
  8
schema b-main body top
  6
ByLayer
 62
  256
370
   -1
100
AcDbCircle
 10
-35.00000000000001
 20
-2.562906398152177
 40
5
100
AcDbArc
 50
180
 51
219.5353977321694
  0
LINE
  5
286
100
AcDbEntity
  8
schema b-main body top
  6
ByLayer
 62
  256
370
   -1
100
AcDbLine
 10
-38.85615731296613
 20
-5.745680467679875
 11
-15.38490425377117
 21
-34.1827740695277
  0
ARC
  5
287
100
AcDbEntity
  8
schema b-main body top
  6
ByLayer
 62
  256
370
   -1
100
AcDbCircle
 10
-11.52874694080504
 20
-31
 40
5
100
AcDbArc
 50
219.5353977321694
 51
270
  0
LINE
  5
288
100
AcDbEntity
  8
schema b-main body top
  6
ByLayer
 62
  256
370
   -1
100
AcDbLine
 10
40.00000000000001
 20
-1.264763093074374
 11
40.00000000000001
 21
-2.562906398152175
  0
ARC
  5
289
100
AcDbEntity
  8
schema b-main body top
  6
ByLayer
 62
  256
370
   -1
100
AcDbCircle
 10
35.00000000000001
 20
-2.562906398152175
 40
5
100
AcDbArc
 50
320.4646022678306
 51
360
  0
LINE
  5
28A
100
AcDbEntity
  8
schema b-main body top
  6
ByLayer
 62
  256
370
   -1
100
AcDbLine
 10
38.85615731296613
 20
-5.745680467679876
 11
15.38490425377117
 21
-34.1827740695277
  0
ARC
  5
28B
100
AcDbEntity
  8
schema b-main body top
  6
ByLayer
 62
  256
370
   -1
100
AcDbCircle
 10
11.52874694080504
 20
-31
 40
5
100
AcDbArc
 50
270
 51
320.4646022678306
  0
LINE
  5
28C
100
AcDbEntity
  8
schema b-main body top
  6
ByLayer
 62
  256
370
   -1
100
AcDbLine
 10
-11.52874694080504
 20
-36
 11
11.52874694080504
 21
-36
  0
CIRCLE
  5
28D
100
AcDbEntity
  8
schema b-main body top
  6
ByLayer
 62
  256
370
   -1
100
AcDbCircle
 10
18.20690320736498
 20
61.81090445557526
 40
1.5
  0
CIRCLE
  5
28E
100
AcDbEntity
  8
schema b-main body top
  6
ByLayer
 62
  256
370
   -1
100
AcDbCircle
 10
24.80332970395574
 20
9.864045794922957
 40
1.5
  0
CIRCLE
  5
28F
100
AcDbEntity
  8
schema b-main body top
  6
ByLayer
 62
  256
370
   -1
100
AcDbCircle
 10
34.51702362735855
 20
-1.904952158450421
 40
1.5
  0
CIRCLE
  5
290
100
AcDbEntity
  8
schema b-main body top
  6
ByLayer
 62
  256
370
   -1
100
AcDbCircle
 10
-18.20690320736498
 20
61.81090445557526
 40
1.5
  0
CIRCLE
  5
291
100
AcDbEntity
  8
schema b-main body top
  6
ByLayer
 62
  256
370
   -1
100
AcDbCircle
 10
-24.80332970395574
 20
9.864045794922957
 40
1.5
  0
CIRCLE
  5
292
100
AcDbEntity
  8
schema b-main body top
  6
ByLayer
 62
  256
370
   -1
100
AcDbCircle
 10
-34.51702362735855
 20
-1.904952158450427
 40
1.5
  0
CIRCLE
  5
293
100
AcDbEntity
  8
schema b-main body
  6
ByLayer
 62
  256
370
   -1
100
AcDbCircle
 10
18.20690320736498
 20
61.81090445557526
 40
1.5
  0
CIRCLE
  5
294
100
AcDbEntity
  8
schema b-main body
  6
ByLayer
 62
  256
370
   -1
100
AcDbCircle
 10
24.80332970395574
 20
9.864045794922957
 40
1.5
  0
CIRCLE
  5
295
100
AcDbEntity
  8
schema b-main body
  6
ByLayer
 62
  256
370
   -1
100
AcDbCircle
 10
34.51702362735855
 20
-1.904952158450421
 40
1.5
  0
CIRCLE
  5
296
100
AcDbEntity
  8
schema b-main body
  6
ByLayer
 62
  256
370
   -1
100
AcDbCircle
 10
-18.20690320736498
 20
61.81090445557526
 40
1.5
  0
CIRCLE
  5
297
100
AcDbEntity
  8
schema b-main body
  6
ByLayer
 62
  256
370
   -1
100
AcDbCircle
 10
-24.80332970395574
 20
9.864045794922957
 40
1.5
  0
CIRCLE
  5
298
100
AcDbEntity
  8
schema b-main body
  6
ByLayer
 62
  256
370
   -1
100
AcDbCircle
 10
-34.51702362735855
 20
-1.904952158450427
 40
1.5
  0
ARC
  5
299
100
AcDbEntity
  8
schema b-main body middle
  6
ByLayer
 62
  256
370
   -1
100
AcDbCircle
 10
12.85176803211714
 20
67
 40
2
100
AcDbArc
 50
270
 51
329.7216443717008
  0
LINE
  5
29A
100
AcDbEntity
  8
schema b-main body middle
  6
ByLayer
 62
  256
370
   -1
100
AcDbLine
 10
-12.85176803211714
 20
65
 11
12.85176803211714
 21
65
  0
ARC
  5
29B
100
AcDbEntity
  8
schema b-main body middle
  6
ByLayer
 62
  256
370
   -1
100
AcDbCircle
 10
-12.85176803211714
 20
67
 40
2
100
AcDbArc
 50
210.2783556282992
 51
270
  0
CIRCLE
  5
29C
100
AcDbEntity
  8
schema b-main body middle
  6
ByLayer
 62
  256
370
   -1
100
AcDbCircle
 10
17.00000000000004
 20
-48.15050471493567
 40
1.5
  0
CIRCLE
  5
29D
100
AcDbEntity
  8
schema b-main body middle
  6
ByLayer
 62
  256
370
   -1
100
AcDbCircle
 10
-17.00000000000004
 20
-48.15050471493568
 40
1.5
  0
CIRCLE
  5
29E
100
AcDbEntity
  8
schema b-main body middle
  6
ByLayer
 62
  256
370
   -1
100
AcDbCircle
 10
26.00000000000011
 20
-30.28993361544396
 40
1.5
  0
CIRCLE
  5
29F
100
AcDbEntity
  8
schema b-main body middle
  6
ByLayer
 62
  256
370
   -1
100
AcDbCircle
 10
-26.00000000000011
 20
-30.28993361544396
 40
1.5
  0
CIRCLE
  5
2A0
100
AcDbEntity
  8
schema b-main body middle
  6
ByLayer
 62
  256
370
   -1
100
AcDbCircle
 10
15.25
 20
15.25
 40
1.5
  0
CIRCLE
  5
2A1
100
AcDbEntity
  8
schema b-main body middle
  6
ByLayer
 62
  256
370
   -1
100
AcDbCircle
 10
15.25
 20
-15.25
 40
1.5
  0
CIRCLE
  5
2A2
100
AcDbEntity
  8
schema b-main body middle
  6
ByLayer
 62
  256
370
   -1
100
AcDbCircle
 10
-15.25
 20
15.25
 40
1.5
  0
CIRCLE
  5
2A3
100
AcDbEntity
  8
schema b-main body middle
  6
ByLayer
 62
  256
370
   -1
100
AcDbCircle
 10
-15.25
 20
-15.25
 40
1.5
  0
CIRCLE
  5
2A4
100
AcDbEntity
  8
schema b-main body middle
  6
ByLayer
 62
  256
370
   -1
100
AcDbCircle
 10
34.59348998772485
 20
-19.87830887043548
 40
1.5
  0
CIRCLE
  5
2A5
100
AcDbEntity
  8
schema b-main body middle
  6
ByLayer
 62
  256
370
   -1
100
AcDbCircle
 10
-34.59348998772485
 20
-19.87830887043548
 40
1.5
  0
LINE
  5
2A6
100
AcDbEntity
  8
schema b-main body middle
  6
ByLayer
 62
  256
370
   -1
100
AcDbLine
 10
-32.32552910393813
 20
-36.76472504023722
 11
-16.86292355889864
 21
-55.49903707934254
  0
ARC
  5
2A7
100
AcDbEntity
  8
schema b-main body middle
  6
ByLayer
 62
  256
370
   -1
100
AcDbCircle
 10
35
 20
-2.490120683006291
 40
5
100
AcDbArc
 50
360
 51
39.53499999999996
  0
LINE
  5
2A8
100
AcDbEntity
  8
schema b-main body middle
  6
ByLayer
 62
  256
370
   -1
100
AcDbLine
 10
32.32552910393813
 20
-36.76472504023722
 11
38.09196161776254
 21
-32.22718106054721
  0
LINE
  5
2A9
100
AcDbEntity
  8
schema b-main body middle
  6
ByLayer
 62
  256
370
   -1
100
AcDbLine
 10
40
 20
-2.490120683006293
 11
40
 21
-28.29783335968346
  0
ARC
  5
2AA
100
AcDbEntity
  8
schema b-main body middle
  6
ByLayer
 62
  256
370
   -1
100
AcDbCircle
 10
35
 20
-28.29783335968346
 40
5
100
AcDbArc
 50
308.1988282355267
 51
0
  0
ARC
  5
2AB
100
AcDbEntity
  8
schema b-main body middle
  6
ByLayer
 62
  256
370
   -1
100
AcDbCircle
 10
-35
 20
-2.490120683006291
 40
5
100
AcDbArc
 50
140.465
 51
180
  0
LINE
  5
2AC
100
AcDbEntity
  8
schema b-main body middle
  6
ByLayer
 62
  256
370
   -1
100
AcDbLine
 10
-32.32552910393813
 20
-36.76472504023722
 11
-38.09196161776254
 21
-32.22718106054721
  0
LINE
  5
2AD
100
AcDbEntity
  8
schema b-main body middle
  6
ByLayer
 62
  256
370
   -1
100
AcDbLine
 10
-40
 20
-2.490120683006293
 11
-40
 21
-28.29783335968346
  0
ARC
  5
2AE
100
AcDbEntity
  8
schema b-main body middle
  6
ByLayer
 62
  256
370
   -1
100
AcDbCircle
 10
-35
 20
-28.29783335968346
 40
5
100
AcDbArc
 50
180
 51
231.8011717644733
  0
LINE
  5
2AF
100
AcDbEntity
  8
schema b-main body middle
  6
ByLayer
 62
  256
370
   -1
100
AcDbLine
 10
38.85617940685022
 20
0.6926266180190694
 11
31.4243228087177
 21
9.696977154786442
  0
ARC
  5
2B0
100
AcDbEntity
  8
schema b-main body middle
  6
ByLayer
 62
  256
370
   -1
100
AcDbCircle
 10
39.13668162241815
 20
16.06247175683716
 40
10
100
AcDbArc
 50
187.236922025968
 51
219.5349999999999
  0
LINE
  5
2B1
100
AcDbEntity
  8
schema b-main body middle
  6
ByLayer
 62
  256
370
   -1
100
AcDbLine
 10
-38.85617940685022
 20
0.6926266180190694
 11
-31.4243228087177
 21
9.696977154786435
  0
ARC
  5
2B2
100
AcDbEntity
  8
schema b-main body middle
  6
ByLayer
 62
  256
370
   -1
100
AcDbCircle
 10
-39.13668162241815
 20
16.06247175683716
 40
10
100
AcDbArc
 50
320.465
 51
352.763077974032
  0
LINE
  5
2B3
100
AcDbEntity
  8
schema b-main body middle
  6
ByLayer
 62
  256
370
   -1
100
AcDbLine
 10
15.49547441240347
 20
67.56141855279584
 11
14.5789401964205
 21
65.99159714654527
  0
ARC
  5
2B4
100
AcDbEntity
  8
schema b-main body middle
  6
ByLayer
 62
  256
370
   -1
100
AcDbCircle
 10
17.22264657670684
 20
66.55301569934112
 40
2
100
AcDbArc
 50
50.00000000000001
 51
149.721644371701
  0
LINE
  5
2B5
100
AcDbEntity
  8
schema b-main body middle
  6
ByLayer
 62
  256
370
   -1
100
AcDbLine
 10
18.50822179607992
 20
68.08510458557907
 11
22.32061577276102
 21
64.8861262058435
  0
LINE
  5
2B6
100
AcDbEntity
  8
schema b-main body middle
  6
ByLayer
 62
  256
370
   -1
100
AcDbLine
 10
29.21634433021515
 20
14.80274638639869
 11
23.01910801182854
 21
63.60598239369322
  0
ARC
  5
2B7
100
AcDbEntity
  8
schema b-main body middle
  6
ByLayer
 62
  256
370
   -1
100
AcDbCircle
 10
21.03504055338794
 20
63.35403731960553
 40
2
100
AcDbArc
 50
7.236922025967931
 51
50.00000000000015
  0
LINE
  5
2B8
100
AcDbEntity
  8
schema b-main body middle
  6
ByLayer
 62
  256
370
   -1
100
AcDbLine
 10
-15.49547441240347
 20
67.56141855279584
 11
-14.5789401964205
 21
65.99159714654527
  0
ARC
  5
2B9
100
AcDbEntity
  8
schema b-main body middle
  6
ByLayer
 62
  256
370
   -1
100
AcDbCircle
 10
-17.22264657670684
 20
66.55301569934112
 40
2
100
AcDbArc
 50
30.27835562829907
 51
129.9999999999999
  0
LINE
  5
2BA
100
AcDbEntity
  8
schema b-main body middle
  6
ByLayer
 62
  256
370
   -1
100
AcDbLine
 10
-18.50822179607992
 20
68.08510458557907
 11
-22.32061577276102
 21
64.8861262058435
  0
LINE
  5
2BB
100
AcDbEntity
  8
schema b-main body middle
  6
ByLayer
 62
  256
370
   -1
100
AcDbLine
 10
-29.21634433021515
 20
14.80274638639867
 11
-23.01910801182854
 21
63.60598239369322
  0
ARC
  5
2BC
100
AcDbEntity
  8
schema b-main body middle
  6
ByLayer
 62
  256
370
   -1
100
AcDbCircle
 10
-21.03504055338794
 20
63.35403731960553
 40
2
100
AcDbArc
 50
129.9999999999999
 51
172.7630779740321
  0
CIRCLE
  5
2BD
100
AcDbEntity
  8
schema b-main body middle
  6
ByLayer
 62
  256
370
   -1
100
AcDbCircle
 10
18.20690320736498
 20
61.81090445557526
 40
1.5
  0
CIRCLE
  5
2BE
100
AcDbEntity
  8
schema b-main body middle
  6
ByLayer
 62
  256
370
   -1
100
AcDbCircle
 10
24.80332970395574
 20
9.864045794922957
 40
1.5
  0
CIRCLE
  5
2BF
100
AcDbEntity
  8
schema b-main body middle
  6
ByLayer
 62
  256
370
   -1
100
AcDbCircle
 10
34.51702362735855
 20
-1.904952158450421
 40
1.5
  0
CIRCLE
  5
2C0
100
AcDbEntity
  8
schema b-main body middle
  6
ByLayer
 62
  256
370
   -1
100
AcDbCircle
 10
-18.20690320736498
 20
61.81090445557526
 40
1.5
  0
CIRCLE
  5
2C1
100
AcDbEntity
  8
schema b-main body middle
  6
ByLayer
 62
  256
370
   -1
100
AcDbCircle
 10
-24.80332970395574
 20
9.864045794922957
 40
1.5
  0
CIRCLE
  5
2C2
100
AcDbEntity
  8
schema b-main body middle
  6
ByLayer
 62
  256
370
   -1
100
AcDbCircle
 10
-34.51702362735855
 20
-1.904952158450427
 40
1.5
  0
CIRCLE
  5
2C3
100
AcDbEntity
  8
schema b-main body middle
  6
ByLayer
 62
  256
370
   -1
100
AcDbCircle
 10
13
 20
-32
 40
1.5
  0
CIRCLE
  5
2C4
100
AcDbEntity
  8
schema b-main body middle
  6
ByLayer
 62
  256
370
   -1
100
AcDbCircle
 10
-13
 20
-32
 40
1.5
  0
CIRCLE
  5
2C5
100
AcDbEntity
  8
schema b-main body top
  6
ByLayer
 62
  256
370
   -1
100
AcDbCircle
 10
13
 20
-32
 40
1.5
  0
CIRCLE
  5
2C6
100
AcDbEntity
  8
schema b-main body top
  6
ByLayer
 62
  256
370
   -1
100
AcDbCircle
 10
-13
 20
-32
 40
1.5
  0
ARC
  5
2C7
100
AcDbEntity
  8
schema b-main body middle
  6
ByLayer
 62
  256
370
   -1
100
AcDbCircle
 10
15
 20
-15
 40
5
100
AcDbArc
 50
90
 51
180
  0
LINE
  5
2C8
100
AcDbEntity
  8
schema b-main body middle
  6
ByLayer
 62
  256
370
   -1
100
AcDbLine
 10
21
 20
-10
 11
15
 21
-10
  0
ARC
  5
2C9
100
AcDbEntity
  8
schema b-main body middle
  6
ByLayer
 62
  256
370
   -1
100
AcDbCircle
 10
21
 20
-8
 40
2
100
AcDbArc
 50
270
 51
0
  0
LINE
  5
2CA
100
AcDbEntity
  8
schema b-main body middle
  6
ByLayer
 62
  256
370
   -1
100
AcDbLine
 10
23
 20
-2
 11
23
 21
-8
  0
ARC
  5
2CB
100
AcDbEntity
  8
schema b-main body middle
  6
ByLayer
 62
  256
370
   -1
100
AcDbCircle
 10
21
 20
-2
 40
2
100
AcDbArc
 50
0
 51
90
  0
LINE
  5
2CC
100
AcDbEntity
  8
schema b-main body middle
  6
ByLayer
 62
  256
370
   -1
100
AcDbLine
 10
10
 20
-15
 11
9.999999999999996
 21
-38.53752232751327
  0
ARC
  5
2CD
100
AcDbEntity
  8
schema b-main body middle
  6
ByLayer
 62
  256
370
   -1
100
AcDbCircle
 10
19.99999999999999
 20
-38.53752232751327
 40
10
100
AcDbArc
 50
180
 51
199.2388240808205
  0
LINE
  5
2CE
100
AcDbEntity
  8
schema b-main body middle
  6
ByLayer
 62
  256
370
   -1
100
AcDbLine
 10
10.55846689235629
 20
-41.83258720961617
 11
14.6139748171141
 21
-53.45306016232948
  0
LINE
  5
2CF
100
AcDbEntity
  8
schema b-main body middle
  6
ByLayer
 62
  256
370
   -1
100
AcDbLine
 10
32.32552910393813
 20
-36.76472504023722
 11
18.04475320138294
 21
-54.06714610631904
  0
ARC
  5
2D0
100
AcDbEntity
  8
schema b-main body middle
  6
ByLayer
 62
  256
370
   -1
100
AcDbCircle
 10
16.50228143864285
 20
-52.79404718590889
 40
2
100
AcDbArc
 50
199.2388240808205
 51
320.465
  0
ARC
  5
2D1
100
AcDbEntity
  8
schema b-main body middle
  6
ByLayer
 62
  256
370
   -1
100
AcDbCircle
 10
-15
 20
-15
 40
5
100
AcDbArc
 50
360
 51
90
  0
LINE
  5
2D2
100
AcDbEntity
  8
schema b-main body middle
  6
ByLayer
 62
  256
370
   -1
100
AcDbLine
 10
-21
 20
-10
 11
-15
 21
-10
  0
ARC
  5
2D3
100
AcDbEntity
  8
schema b-main body middle
  6
ByLayer
 62
  256
370
   -1
100
AcDbCircle
 10
-21
 20
-8
 40
2
100
AcDbArc
 50
180
 51
270
  0
LINE
  5
2D4
100
AcDbEntity
  8
schema b-main body middle
  6
ByLayer
 62
  256
370
   -1
100
AcDbLine
 10
-23
 20
-2
 11
-23
 21
-8
  0
ARC
  5
2D5
100
AcDbEntity
  8
schema b-main body middle
  6
ByLayer
 62
  256
370
   -1
100
AcDbCircle
 10
-21
 20
-2
 40
2
100
AcDbArc
 50
90
 51
180
  0
LINE
  5
2D6
100
AcDbEntity
  8
schema b-main body middle
  6
ByLayer
 62
  256
370
   -1
100
AcDbLine
 10
-10
 20
-15
 11
-9.999999999999996
 21
-38.53752232751327
  0
ARC
  5
2D7
100
AcDbEntity
  8
schema b-main body middle
  6
ByLayer
 62
  256
370
   -1
100
AcDbCircle
 10
-19.99999999999999
 20
-38.53752232751327
 40
10
100
AcDbArc
 50
340.7611759191795
 51
360
  0
LINE
  5
2D8
100
AcDbEntity
  8
schema b-main body middle
  6
ByLayer
 62
  256
370
   -1
100
AcDbLine
 10
-10.55846689235629
 20
-41.83258720961617
 11
-14.6139748171141
 21
-53.45306016232948
  0
ARC
  5
2D9
100
AcDbEntity
  8
schema b-main body middle
  6
ByLayer
 62
  256
370
   -1
100
AcDbCircle
 10
-16.50228143864285
 20
-52.79404718590889
 40
2
100
AcDbArc
 50
219.535
 51
340.7611759191794
  0
LINE
  5
2DA
100
AcDbEntity
  8
schema b-main body middle
  6
ByLayer
 62
  256
370
   -1
100
AcDbLine
 10
-21
 20
0
 11
21
 21
0
  0
CIRCLE
  5
2DB
100
AcDbEntity
  8
schema b-main body
  6
ByLayer
 62
  256
370
   -1
100
AcDbCircle
 10
13
 20
-32
 40
1.5
  0
CIRCLE
  5
2DC
100
AcDbEntity
  8
schema b-main body
  6
ByLayer
 62
  256
370
   -1
100
AcDbCircle
 10
-13
 20
-32
 40
1.5
  0
LINE
  5
2DD
100
AcDbEntity
  8
schema b-main body
  6
ByLayer
 62
  256
370
   -1
100
AcDbLine
 10
-10.00000000000001
 20
-74.59552088549471
 11
-10.00000000000001
 21
-143.9999999999999
  0
LINE
  5
2DE
100
AcDbEntity
  8
schema b-main body
  6
ByLayer
 62
  256
370
   -1
100
AcDbLine
 10
10.00000000000001
 20
-74.59552088549471
 11
10.00000000000001
 21
-144
  0
LINE
  5
2DF
100
AcDbEntity
  8
schema b-main body
  6
ByLayer
 62
  256
370
   -1
100
AcDbLine
 10
-8.296522824641718
 20
-159.3312945782245
 11
-10.00000000000001
 21
-143.9999999999999
  0
ARC
  5
2E0
100
AcDbEntity
  8
schema b-main body
  6
ByLayer
 62
  256
370
   -1
100
AcDbCircle
 10
-5.314871620620861
 20
-159
 40
3
100
AcDbArc
 50
186.34019174591
 51
270
  0
LINE
  5
2E1
100
AcDbEntity
  8
schema b-main body
  6
ByLayer
 62
  256
370
   -1
100
AcDbLine
 10
-5.314871620620861
 20
-162
 11
5.314871620620859
 21
-162
  0
LINE
  5
2E2
100
AcDbEntity
  8
schema b-main body
  6
ByLayer
 62
  256
370
   -1
100
AcDbLine
 10
8.296522824641716
 20
-159.3312945782245
 11
10.00000000000001
 21
-144
  0
ARC
  5
2E3
100
AcDbEntity
  8
schema b-main body
  6
ByLayer
 62
  256
370
   -1
100
AcDbCircle
 10
5.314871620620859
 20
-159
 40
3
100
AcDbArc
 50
270
 51
353.65980825409
  0
LWPOLYLINE
  5
2E4
100
AcDbEntity
  8
esc-tail
  6
ByLayer
 62
    1
370
   -1
100
AcDbPolyline
 90
    4
 70
    1
 43
0
 10
-9
 20
-17
 10
9
 20
-17
 10
9
 20
-52
 10
-9
 20
-52
  0
LINE
  5
2E5
100
AcDbEntity
  8
servo
  6
ByLayer
 62
    5
370
   -1
100
AcDbLine
 10
6
 20
-57
 11
-6
 21
-57
  0
LINE
  5
2E6
100
AcDbEntity
  8
servo
  6
ByLayer
 62
    5
370
   -1
100
AcDbLine
 10
5.999999999999996
 20
-83.5
 11
-6.000000000000004
 21
-83.5
  0
LINE
  5
2E7
100
AcDbEntity
  8
servo
  6
ByLayer
 62
    5
370
   -1
100
AcDbLine
 10
5.999999999999994
 20
-89.5
 11
-6.000000000000006
 21
-89.5
  0
LINE
  5
2E8
100
AcDbEntity
  8
servo
  6
ByLayer
 62
    5
370
   -1
100
AcDbLine
 10
-6
 20
-57
 11
-6.000000000000004
 21
-83.5
  0
LINE
  5
2E9
100
AcDbEntity
  8
servo
  6
ByLayer
 62
    5
370
   -1
100
AcDbLine
 10
6
 20
-57
 11
5.999999999999996
 21
-83.5
  0
LINE
  5
2EA
100
AcDbEntity
  8
servo
  6
ByLayer
 62
    5
370
   -1
100
AcDbLine
 10
5.999999999999995
 20
-87.5
 11
-6.000000000000005
 21
-87.5
  0
LINE
  5
2EB
100
AcDbEntity
  8
servo
  6
ByLayer
 62
    5
370
   -1
100
AcDbLine
 10
-6.000000000000006
 20
-89.5
 11
-6.000000000000005
 21
-87.5
  0
LINE
  5
2EC
100
AcDbEntity
  8
servo
  6
ByLayer
 62
    5
370
   -1
100
AcDbLine
 10
5.999999999999994
 20
-89.5
 11
5.999999999999995
 21
-87.5
  0
LINE
  5
2ED
100
AcDbEntity
  8
servo
  6
ByLayer
 62
    5
370
   -1
100
AcDbLine
 10
-5
 20
-83.5
 11
-5
 21
-87.5
  0
LINE
  5
2EE
100
AcDbEntity
  8
servo
  6
ByLayer
 62
    5
370
   -1
100
AcDbLine
 10
5
 20
-87.5
 11
5
 21
-83.5
  0
ENDSEC
  0
SECTION
  2
OBJECTS
  0
DICTIONARY
  5
C
330
0
100
AcDbDictionary
281
    1
  3
ACAD_GROUP
350
D
  0
DICTIONARY
  5
D
330
C
100
AcDbDictionary
281
    1
  0
ENDSEC
  0
EOF
